<svg width="211" height="211" viewBox="0 0 211 211" fill="none" xmlns="http://www.w3.org/2000/svg">
<path d="M78.5317 197.299C89.0317 197.299 102.532 196.799 111.032 195.799C110.365 188.966 108.632 173.199 107.032 164.799C105.032 154.299 92.0317 151.299 90.0317 150.799C88.0317 150.299 86.0317 147.799 82.5317 143.799C79.0317 139.799 82.0317 115.299 83.0317 108.799C84.0317 102.299 86.5317 77.799 86.5317 72.799C86.5317 67.799 84.5317 56.299 84.0317 54.299C83.5944 52.5501 81.5317 48.799 80.5317 47.799C79.4136 46.681 83.0317 36.799 83.0317 35.299C83.0317 33.799 85.0317 23.799 85.5317 22.799C86.0317 21.799 88.0317 21.799 88.5317 20.799C89.4536 18.9551 88.5317 16.799 87.5317 15.799C85.4701 13.7375 82.5317 13.799 81.0317 14.299C79.5317 14.799 78.5317 18.299 80.0317 19.799C81.5317 21.299 81.0317 20.799 81.0317 22.799C81.0317 24.799 79.0317 29.799 78.5317 32.299C78.0317 34.799 75.5317 42.799 75.5317 43.799C75.5317 44.799 70.0317 41.799 66.0317 41.299C62.0317 40.799 58.5317 41.299 57.5317 41.799C56.5317 42.299 56.0317 40.799 57.5317 36.299C58.7317 32.699 60.6983 22.799 61.5317 18.299C61.365 18.299 61.4317 18.099 63.0317 17.299C65.0317 16.299 65.5317 14.799 65.5317 13.299C65.5317 11.799 63.0317 9.79904 61.0317 9.29904C59.0317 8.79904 58.0317 8.79904 56.5317 10.299C55.0317 11.799 55.5317 13.299 56.0317 14.799C56.4317 15.999 57.365 16.6324 58.0317 17.299C55.365 26.1324 49.8317 44.099 49.0317 45.299C48.0317 46.799 43.9976 50.8467 41.5317 54.299C39.0657 57.7514 36.0317 63.299 32.5317 75.799C28.8298 89.0201 28.5317 97.9657 27.5317 105.799C26.865 105.966 24.6317 106.199 21.0317 105.799C16.5317 105.299 15.5317 98.299 13.0317 91.799C10.5317 85.299 7.03166 84.799 6.03166 84.799C5.03166 84.799 1.53166 84.799 1.03166 93.799C0.53166 102.799 6.03166 110.799 12.0317 116.299C16.8317 120.699 24.0317 121.132 27.0317 120.799C26.5317 125.632 25.4317 137.799 25.0317 147.799C24.5317 160.299 32.5317 176.799 40.0317 185.299C47.5317 193.799 68.0317 197.299 78.5317 197.299Z" fill="#F58A0D" stroke="black" stroke-width="1.5"/>
<path d="M61.0317 110.799C61.5317 117.799 62.5317 126.799 62.0317 134.299C61.5317 141.799 63.0317 148.299 65.5317 149.299C68.0317 150.299 69.0317 150.299 70.5317 148.799C72.0317 147.299 73.5317 143.299 74.0317 140.299C74.5317 137.299 75.0317 126.299 75.0317 122.299C75.0317 119.099 74.865 112.966 74.5317 110.299" stroke="black" stroke-width="1.5"/>
<path d="M74.8251 66.3977C74.4453 66.3647 74.0625 66.3029 73.2999 66.6975C72.7729 66.9702 72.5873 67.4587 72.5465 67.7563C72.5025 67.9566 72.5372 67.8813 72.9185 68.2759C73.2976 68.7293 74.4438 68.6706 75.2064 68.6706C75.969 68.6706 76.7317 68.2759 76.7317 67.8813C76.7317 67.5656 76.2232 66.9606 75.969 66.6975C75.7148 66.566 75.2064 66.4308 74.8251 66.3977Z" fill="black"/>
<path d="M72.5372 67.8813C72.5372 67.8455 72.5401 67.8033 72.5465 67.7563M72.5465 67.7563C72.5873 67.4587 72.7729 66.9702 73.2999 66.6975C74.0625 66.3029 74.4453 66.3647 74.8251 66.3977C75.2064 66.4308 75.7148 66.566 75.969 66.6975C76.2232 66.9606 76.7317 67.5656 76.7317 67.8813C76.7317 68.2759 75.969 68.6706 75.2064 68.6706C74.4438 68.6706 73.2976 68.7293 72.9185 68.2759C72.5372 67.8813 72.5025 67.9566 72.5465 67.7563Z" stroke="black" stroke-width="1.5"/>
<path d="M48.3634 66.299C47.4701 66.299 47.0234 66.4863 46.5767 67.3338C46.4279 67.475 46.6661 67.8422 47.0234 68.1812C47.4701 68.605 49.7033 68.605 50.15 68.1812C50.5967 67.7575 51.0433 67.3338 50.5967 66.91C50.15 66.4863 49.2567 66.299 48.3634 66.299Z" fill="black" stroke="black" stroke-width="1.5"/>
<path d="M56.7817 70.299C58.8322 71.2057 58.3196 71.2057 59.8575 71.659C61.3953 72.1124 61.908 72.1124 63.4459 71.659C64.6762 71.2964 66.009 70.6013 66.5217 70.299" stroke="black" stroke-width="1.5"/>
<path d="M82.0317 142.299C80.0317 139.099 80.5317 130.299 81.0317 126.299L84.0317 126.299C84.4317 126.299 87.1983 126.966 88.5317 127.299C88.1983 125.966 87.9317 121.699 89.5317 115.299C91.5317 107.299 94.5317 102.299 100.532 93.799C106.532 85.299 120.532 76.799 129.532 75.299C138.532 73.799 150.532 73.799 154.532 74.299C158.532 74.799 165.532 75.299 179.032 81.299C192.532 87.299 195.532 93.299 200.032 99.799C204.532 106.299 208.032 118.299 208.532 121.299C208.932 123.699 209.032 128.299 209.032 130.299C209.032 138.799 208.532 149.299 205.532 155.799C203.252 160.739 197.198 169.632 194.032 173.299C194.865 173.632 196.932 174.499 198.532 175.299C200.532 176.299 209.532 178.799 202.532 187.799C195.532 196.799 155.032 200.299 142.032 201.799C129.032 203.299 118.032 201.799 108.532 195.299C99.0317 188.799 95.5317 168.299 95.0317 164.799C94.5317 161.299 94.0317 152.799 91.5317 151.799C89.0317 150.799 84.5317 146.299 82.0317 142.299Z" fill="#A85946" stroke="black" stroke-width="1.5"/>
<path d="M89.0317 145.299C90.6317 147.699 92.365 151.966 93.0317 153.799" stroke="black" stroke-width="1.5"/>
<path d="M194.032 173.299C193.532 173.299 192.532 175.299 187.032 178.799C181.532 182.299 167.032 181.799 161.032 178.799C155.032 175.799 144.032 165.799 142.032 157.299C140.032 148.799 139.032 134.299 144.032 123.299C149.032 112.299 161.032 108.299 167.032 108.299C173.032 108.299 180.032 111.799 182.532 114.299C185.032 116.799 188.032 120.799 188.532 125.299C189.032 129.799 189.532 134.799 186.032 141.299C182.532 147.799 177.032 150.299 176.032 150.799C175.032 151.299 169.543 152.817 166.532 147.799C163.532 142.799 163.532 137.799 169.032 132.799" stroke="black" stroke-width="1.5"/>
<path d="M88.5317 127.299C91.0317 128.299 101.532 130.799 108.032 138.299C114.532 145.799 114.032 145.799 115.532 148.799C117.032 151.799 119.032 158.299 119.032 160.799" stroke="black" stroke-width="1.5"/>
</svg>
