<svg width="211" height="211" viewBox="0 0 211 211" fill="none" xmlns="http://www.w3.org/2000/svg">
<g clip-path="url(#clip0_1_37)">
<path d="M323.115 471.308C375.311 457.445 441.905 438.161 483.128 424.021C472.766 404.965 447.889 361.254 431.273 338.86C410.502 310.866 342.784 319.278 332.326 320.46C321.868 321.642 309.348 316.989 287.824 309.94C266.3 302.891 255.946 227.451 254.213 207.167C252.481 186.883 239.641 112.103 234.484 97.5152C229.328 82.9276 207.525 52.0169 202.977 46.842C199 42.3168 184.877 34.0966 178.875 32.4994C172.164 30.7137 179.958 -2.89409 178.411 -7.27036C176.864 -11.6466 176.493 -43.4624 177.947 -47.0401C179.401 -50.6178 189.344 -53.2585 190.798 -56.8362C193.479 -63.4331 186.673 -68.5062 180.67 -70.1034C168.296 -73.396 153.752 -69.3367 146.811 -65.8975C139.87 -62.4582 138.509 -50.9266 147.512 -48.5308C156.516 -46.135 153.515 -46.9336 155.577 -41.0986C157.64 -35.2636 152.855 -18.0353 152.947 -10.0814C153.04 -2.12742 148.863 24.5135 149.894 27.431C150.926 30.3486 120.491 28.8579 100.091 32.6805C79.6908 36.5031 62.8077 42.583 58.3523 45.3621C53.8969 48.1412 49.8643 44.4251 52.68 29.3158C54.9326 17.2283 54.499 -14.2517 54.0006 -28.4808C53.1721 -28.2608 53.2972 -28.9323 60.4259 -33.3788C69.3367 -38.937 70.2752 -43.9735 68.7283 -48.3497C67.1813 -52.726 52.691 -55.2602 42.2332 -54.0783C31.7754 -52.8963 26.8043 -51.576 20.8947 -45.2192C14.985 -38.8625 19.0175 -35.1464 23.05 -31.4303C26.2761 -28.4574 31.5689 -27.8419 35.5705 -26.7771C31.4243 2.51512 22.447 62.239 19.7078 66.7963C16.2837 72.4929 0.404671 89.6281 -8.29343 102.956C-16.9915 116.285 -26.3525 136.476 -30.8597 177.566C-35.627 221.026 -27.8831 247.519 -24.7755 271.693C-27.9177 273.06 -38.7791 276.689 -57.0875 280.275C-79.973 284.758 -92.1633 265.656 -111.295 249.993C-130.426 234.33 -148.34 237.492 -153.311 238.813C-158.282 240.133 -175.681 244.754 -168.885 271.672C-162.089 298.59 -126.497 314.668 -90.9983 322.792C-62.5994 329.292 -26.3608 321.049 -11.7913 316.116C-9.29214 330.877 -2.2126 367.826 6.11217 397.529C16.5181 434.659 73.3034 472.235 119.353 487.131C165.402 502.027 270.919 485.172 323.115 471.308Z" fill="#F58A0D" stroke="black" stroke-width="6"/>
<path d="M169.69 94.2971C167.768 94.7022 165.801 95.0274 162.417 97.1855C160.079 98.6767 159.66 100.347 159.764 101.269C159.752 101.912 159.847 101.646 162.149 102.294C164.501 103.116 170.138 101.432 173.929 100.425C177.72 99.4179 181.104 97.2597 180.697 96.1084C180.372 95.1874 177.22 94.0933 175.685 93.6614C174.286 93.6133 171.619 93.8903 169.69 94.2971Z" fill="black"/>
<path d="M159.847 101.646C159.81 101.542 159.78 101.415 159.764 101.269M159.764 101.269C159.66 100.347 160.079 98.6767 162.417 97.1855C165.801 95.0274 167.768 94.7022 169.69 94.2971C171.619 93.8903 174.286 93.6133 175.685 93.6614C177.22 94.0933 180.372 95.1874 180.697 96.1084C181.104 97.2597 177.72 99.4179 173.929 100.425C170.138 101.432 164.501 103.116 162.149 102.294C159.847 101.646 159.752 101.912 159.764 101.269Z" stroke="black" stroke-width="6"/>
<path d="M38.0447 128.947C33.604 130.127 31.5768 131.263 30.2305 134.325C29.6361 134.934 31.199 135.69 33.3249 136.208C35.9822 136.854 47.0838 133.906 48.8671 132.08C50.6504 130.254 52.4337 128.428 49.7764 127.781C47.119 127.135 42.4853 127.768 38.0447 128.947Z" fill="black" stroke="black" stroke-width="6"/>
<path d="M84.0182 129.502C95.1466 129.44 92.5982 130.117 100.711 129.409C108.823 128.701 111.372 128.024 118.549 124.671C124.291 121.989 130.2 118.201 132.436 116.643" stroke="black" stroke-width="6"/>
</g>
<defs>
<clipPath id="clip0_1_37">
<rect width="211" height="211" fill="white"/>
</clipPath>
</defs>
</svg>
