<svg width="60" height="30" viewBox="0 0 60 30" fill="none" xmlns="http://www.w3.org/2000/svg">
<g clip-path="url(#clip0_1_4)">
<rect width="60" height="30" fill="#FFC3C3"/>
<path d="M38.3041 0.132413L50.222 8.69553L36.8471 14.7352L38.3041 0.132413Z" fill="#FF5E5E"/>
<path d="M42.6618 17.985L44.2424 29.4215L33.5478 25.072L42.6618 17.985Z" fill="#FFA337"/>
<path d="M13.5961 6.26641L20.7492 15.3286L9.32455 16.9924L13.5961 6.26641Z" fill="#FFEE57"/>
<g filter="url(#filter0_d_1_4)">
<g filter="url(#filter1_d_1_4)">
<rect x="39.4" y="10.61" width="1" height="8" fill="url(#paint0_linear_1_4)"/>
</g>
<mask id="mask0_1_4" style="mask-type:alpha" maskUnits="userSpaceOnUse" x="35" y="5" width="19" height="18">
<rect x="35.8629" y="12.8538" width="13.2485" height="11.8001" transform="rotate(-32.3303 35.8629 12.8538)" fill="#D9D9D9"/>
</mask>
<g mask="url(#mask0_1_4)">
<rect x="38.8308" y="8.89682" width="3.05354" height="11.3592" rx="1.52677" transform="rotate(-32.3276 38.8308 8.89682)" fill="white" fill-opacity="0.3" stroke="black" stroke-width="1.125"/>
</g>
<mask id="mask1_1_4" style="mask-type:alpha" maskUnits="userSpaceOnUse" x="39" y="8" width="8" height="10">
<rect x="39.5293" y="8.94859" width="1.92854" height="10.3795" rx="0.964273" transform="rotate(-32.3276 39.5293 8.94859)" fill="white"/>
</mask>
<g mask="url(#mask1_1_4)">
<rect x="38.6469" y="10.0773" width="11.8225" height="8.59818" fill="url(#paint1_linear_1_4)"/>
</g>
<path d="M12.346 20L14.842 14.4H16.122L18.626 20H17.266L15.218 15.056H15.73L13.674 20H12.346ZM13.594 18.8L13.938 17.816H16.818L17.17 18.8H13.594ZM20.9279 20.064C20.5226 20.064 20.1572 19.9733 19.8319 19.792C19.5066 19.6053 19.2479 19.3467 19.0559 19.016C18.8692 18.6853 18.7759 18.296 18.7759 17.848C18.7759 17.3947 18.8692 17.0027 19.0559 16.672C19.2479 16.3413 19.5066 16.0853 19.8319 15.904C20.1572 15.7227 20.5226 15.632 20.9279 15.632C21.2906 15.632 21.6079 15.712 21.8799 15.872C22.1519 16.032 22.3626 16.2747 22.5119 16.6C22.6612 16.9253 22.7359 17.3413 22.7359 17.848C22.7359 18.3493 22.6639 18.7653 22.5199 19.096C22.3759 19.4213 22.1679 19.664 21.8959 19.824C21.6292 19.984 21.3066 20.064 20.9279 20.064ZM21.1439 19.04C21.3466 19.04 21.5306 18.992 21.6959 18.896C21.8612 18.8 21.9919 18.664 22.0879 18.488C22.1892 18.3067 22.2399 18.0933 22.2399 17.848C22.2399 17.5973 22.1892 17.384 22.0879 17.208C21.9919 17.032 21.8612 16.896 21.6959 16.8C21.5306 16.704 21.3466 16.656 21.1439 16.656C20.9359 16.656 20.7492 16.704 20.5839 16.8C20.4186 16.896 20.2852 17.032 20.1839 17.208C20.0879 17.384 20.0399 17.5973 20.0399 17.848C20.0399 18.0933 20.0879 18.3067 20.1839 18.488C20.2852 18.664 20.4186 18.8 20.5839 18.896C20.7492 18.992 20.9359 19.04 21.1439 19.04ZM22.2719 20V19.12L22.2959 17.84L22.2159 16.568V14.064H23.4639V20H22.2719ZM26.467 20.064C26.0616 20.064 25.6963 19.9733 25.371 19.792C25.0456 19.6053 24.787 19.3467 24.595 19.016C24.4083 18.6853 24.315 18.296 24.315 17.848C24.315 17.3947 24.4083 17.0027 24.595 16.672C24.787 16.3413 25.0456 16.0853 25.371 15.904C25.6963 15.7227 26.0616 15.632 26.467 15.632C26.8296 15.632 27.147 15.712 27.419 15.872C27.691 16.032 27.9016 16.2747 28.051 16.6C28.2003 16.9253 28.275 17.3413 28.275 17.848C28.275 18.3493 28.203 18.7653 28.059 19.096C27.915 19.4213 27.707 19.664 27.435 19.824C27.1683 19.984 26.8456 20.064 26.467 20.064ZM26.683 19.04C26.8856 19.04 27.0696 18.992 27.235 18.896C27.4003 18.8 27.531 18.664 27.627 18.488C27.7283 18.3067 27.779 18.0933 27.779 17.848C27.779 17.5973 27.7283 17.384 27.627 17.208C27.531 17.032 27.4003 16.896 27.235 16.8C27.0696 16.704 26.8856 16.656 26.683 16.656C26.475 16.656 26.2883 16.704 26.123 16.8C25.9576 16.896 25.8243 17.032 25.723 17.208C25.627 17.384 25.579 17.5973 25.579 17.848C25.579 18.0933 25.627 18.3067 25.723 18.488C25.8243 18.664 25.9576 18.8 26.123 18.896C26.2883 18.992 26.475 19.04 26.683 19.04ZM27.811 20V19.12L27.835 17.84L27.755 16.568V14.064H29.003V20H27.811ZM30.158 20V15.696H31.406V20H30.158ZM30.782 15.096C30.5527 15.096 30.366 15.0293 30.222 14.896C30.078 14.7627 30.006 14.5973 30.006 14.4C30.006 14.2027 30.078 14.0373 30.222 13.904C30.366 13.7707 30.5527 13.704 30.782 13.704C31.0114 13.704 31.198 13.768 31.342 13.896C31.486 14.0187 31.558 14.1787 31.558 14.376C31.558 14.584 31.486 14.7573 31.342 14.896C31.2034 15.0293 31.0167 15.096 30.782 15.096ZM34.3243 20.064C33.8176 20.064 33.4229 19.936 33.1403 19.68C32.8576 19.4187 32.7163 19.032 32.7163 18.52V14.744H33.9643V18.504C33.9643 18.6853 34.0123 18.8267 34.1083 18.928C34.2043 19.024 34.3349 19.072 34.5003 19.072C34.6976 19.072 34.8656 19.0187 35.0043 18.912L35.3403 19.792C35.2123 19.8827 35.0576 19.952 34.8763 20C34.7003 20.0427 34.5163 20.064 34.3243 20.064ZM32.0523 16.752V15.792H35.0363V16.752H32.0523ZM36.0408 20V15.696H37.2888V20H36.0408ZM36.6648 15.096C36.4355 15.096 36.2488 15.0293 36.1048 14.896C35.9608 14.7627 35.8888 14.5973 35.8888 14.4C35.8888 14.2027 35.9608 14.0373 36.1048 13.904C36.2488 13.7707 36.4355 13.704 36.6648 13.704C36.8942 13.704 37.0808 13.768 37.2248 13.896C37.3688 14.0187 37.4408 14.1787 37.4408 14.376C37.4408 14.584 37.3688 14.7573 37.2248 14.896C37.0862 15.0293 36.8995 15.096 36.6648 15.096ZM39.6151 20L37.8071 15.696H39.0951L40.5991 19.4H39.9591L41.5191 15.696H42.7191L40.9031 20H39.6151ZM45.2472 20.064C44.7565 20.064 44.3245 19.968 43.9512 19.776C43.5832 19.584 43.2978 19.3227 43.0952 18.992C42.8925 18.656 42.7912 18.2747 42.7912 17.848C42.7912 17.416 42.8898 17.0347 43.0872 16.704C43.2898 16.368 43.5645 16.1067 43.9112 15.92C44.2578 15.728 44.6498 15.632 45.0872 15.632C45.5085 15.632 45.8872 15.7227 46.2232 15.904C46.5645 16.08 46.8338 16.336 47.0312 16.672C47.2285 17.0027 47.3272 17.4 47.3272 17.864C47.3272 17.912 47.3245 17.968 47.3192 18.032C47.3138 18.0907 47.3085 18.1467 47.3032 18.2H43.8072V17.472H46.6472L46.1672 17.688C46.1672 17.464 46.1218 17.2693 46.0312 17.104C45.9405 16.9387 45.8152 16.8107 45.6552 16.72C45.4952 16.624 45.3085 16.576 45.0952 16.576C44.8818 16.576 44.6925 16.624 44.5272 16.72C44.3672 16.8107 44.2418 16.9413 44.1512 17.112C44.0605 17.2773 44.0152 17.4747 44.0152 17.704V17.896C44.0152 18.1307 44.0658 18.3387 44.1672 18.52C44.2738 18.696 44.4205 18.832 44.6072 18.928C44.7992 19.0187 45.0232 19.064 45.2792 19.064C45.5085 19.064 45.7085 19.0293 45.8792 18.96C46.0552 18.8907 46.2152 18.7867 46.3592 18.648L47.0232 19.368C46.8258 19.592 46.5778 19.7653 46.2792 19.888C45.9805 20.0053 45.6365 20.064 45.2472 20.064Z" fill="url(#paint2_linear_1_4)"/>
<path d="M12.346 20L11.4326 19.5929C11.2947 19.9023 11.3228 20.2604 11.5072 20.5445C11.6916 20.8286 12.0073 21 12.346 21V20ZM14.842 14.4V13.4C14.4472 13.4 14.0893 13.6323 13.9286 13.9929L14.842 14.4ZM16.122 14.4L17.0349 13.9918C16.8739 13.6318 16.5163 13.4 16.122 13.4V14.4ZM18.626 20V21C18.9649 21 19.2807 20.8283 19.4651 20.544C19.6494 20.2596 19.6772 19.9012 19.5389 19.5918L18.626 20ZM17.266 20L16.3421 20.3827C16.4969 20.7564 16.8615 21 17.266 21V20ZM15.218 15.056V14.056C14.884 14.056 14.572 14.2227 14.3865 14.5004C14.2009 14.7781 14.1663 15.1301 14.2941 15.4387L15.218 15.056ZM15.73 15.056L16.6533 15.44C16.7816 15.1314 16.7473 14.779 16.5618 14.501C16.3763 14.223 16.0642 14.056 15.73 14.056V15.056ZM13.674 20V21C14.0779 21 14.4422 20.757 14.5973 20.384L13.674 20ZM13.594 18.8L12.65 18.47C12.5431 18.7759 12.591 19.1146 12.7785 19.3788C12.966 19.643 13.27 19.8 13.594 19.8V18.8ZM13.938 17.816V16.816C13.5129 16.816 13.1343 17.0847 12.994 17.486L13.938 17.816ZM16.818 17.816L17.7595 17.4792C17.6173 17.0814 17.2404 16.816 16.818 16.816V17.816ZM17.17 18.8V19.8C17.4953 19.8 17.8002 19.6418 17.9875 19.3758C18.1748 19.1099 18.2211 18.7695 18.1115 18.4632L17.17 18.8ZM13.2593 20.4071L15.7553 14.8071L13.9286 13.9929L11.4326 19.5929L13.2593 20.4071ZM14.842 15.4H16.122V13.4H14.842V15.4ZM15.2091 14.8082L17.7131 20.4082L19.5389 19.5918L17.0349 13.9918L15.2091 14.8082ZM18.626 19H17.266V21H18.626V19ZM18.1898 19.6173L16.1418 14.6733L14.2941 15.4387L16.3421 20.3827L18.1898 19.6173ZM15.218 16.056H15.73V14.056H15.218V16.056ZM14.8066 14.672L12.7506 19.616L14.5973 20.384L16.6533 15.44L14.8066 14.672ZM13.674 19H12.346V21H13.674V19ZM14.5379 19.13L14.8819 18.146L12.994 17.486L12.65 18.47L14.5379 19.13ZM13.938 18.816H16.818V16.816H13.938V18.816ZM15.8764 18.1528L16.2284 19.1368L18.1115 18.4632L17.7595 17.4792L15.8764 18.1528ZM17.17 17.8H13.594V19.8H17.17V17.8ZM19.8319 19.792L19.3342 20.6594L19.345 20.6655L19.8319 19.792ZM19.0559 19.016L18.185 19.5076L18.1911 19.5181L19.0559 19.016ZM19.0559 16.672L18.1911 16.1698L18.1851 16.1804L19.0559 16.672ZM19.8319 15.904L19.345 15.0305L19.345 15.0305L19.8319 15.904ZM21.8799 15.872L22.3869 15.0101L22.3869 15.0101L21.8799 15.872ZM22.5119 16.6L23.4207 16.1828L23.4207 16.1828L22.5119 16.6ZM22.5199 19.096L23.4344 19.5008L23.4367 19.4953L22.5199 19.096ZM21.8959 19.824L21.3889 18.962L21.3814 18.9665L21.8959 19.824ZM21.6959 18.896L21.1938 18.0312L21.1938 18.0312L21.6959 18.896ZM22.0879 18.488L21.2149 18.0002L21.21 18.0091L22.0879 18.488ZM22.0879 17.208L21.21 17.6869C21.2137 17.6936 21.2174 17.7003 21.2213 17.707L22.0879 17.208ZM21.6959 16.8L21.1938 17.6648L21.1938 17.6648L21.6959 16.8ZM20.5839 16.8L21.086 17.6648L21.086 17.6648L20.5839 16.8ZM20.1839 17.208L19.3173 16.709C19.3134 16.7157 19.3097 16.7224 19.306 16.7291L20.1839 17.208ZM20.1839 18.488L19.3001 18.9559C19.3057 18.9663 19.3114 18.9767 19.3173 18.987L20.1839 18.488ZM20.5839 18.896L21.086 18.0312L21.086 18.0312L20.5839 18.896ZM22.2719 20H21.2719C21.2719 20.5523 21.7196 21 22.2719 21V20ZM22.2719 19.12L21.2721 19.1013C21.272 19.1075 21.2719 19.1138 21.2719 19.12L22.2719 19.12ZM22.2959 17.84L23.2957 17.8587C23.2962 17.8316 23.2956 17.8044 23.2939 17.7772L22.2959 17.84ZM22.2159 16.568H21.2159C21.2159 16.5889 21.2166 16.6099 21.2179 16.6308L22.2159 16.568ZM22.2159 14.064V13.064C21.6636 13.064 21.2159 13.5117 21.2159 14.064H22.2159ZM23.4639 14.064H24.4639C24.4639 13.5117 24.0162 13.064 23.4639 13.064V14.064ZM23.4639 20V21C24.0162 21 24.4639 20.5523 24.4639 20H23.4639ZM20.9279 19.064C20.6775 19.064 20.4823 19.0097 20.3188 18.9185L19.345 20.6655C19.8322 20.937 20.3676 21.064 20.9279 21.064V19.064ZM20.3296 18.9246C20.1596 18.8271 20.0263 18.6958 19.9207 18.5139L18.1911 19.5181C18.4695 19.9976 18.8535 20.3835 19.3342 20.6594L20.3296 18.9246ZM19.9267 18.5244C19.8388 18.3687 19.7759 18.1549 19.7759 17.848H17.7759C17.7759 18.4371 17.8997 19.002 18.1851 19.5076L19.9267 18.5244ZM19.7759 17.848C19.7759 17.5335 19.8398 17.3176 19.9267 17.1636L18.1851 16.1804C17.8987 16.6877 17.7759 17.2558 17.7759 17.848H19.7759ZM19.9207 17.1741C20.0249 16.9946 20.1548 16.8689 20.3188 16.7775L19.345 15.0305C18.8583 15.3018 18.4709 15.688 18.1911 16.1699L19.9207 17.1741ZM20.3188 16.7775C20.4823 16.6863 20.6775 16.632 20.9279 16.632V14.632C20.3676 14.632 19.8322 14.759 19.345 15.0305L20.3188 16.7775ZM20.9279 16.632C21.1393 16.632 21.2763 16.6771 21.3729 16.7339L22.3869 15.0101C21.9395 14.7469 21.4418 14.632 20.9279 14.632V16.632ZM21.3729 16.7339C21.4456 16.7767 21.5272 16.8518 21.6031 17.0172L23.4207 16.1828C23.198 15.6975 22.8583 15.2873 22.3869 15.0101L21.3729 16.7339ZM21.6031 17.0172C21.6728 17.169 21.7359 17.4297 21.7359 17.848H23.7359C23.7359 17.253 23.6497 16.6816 23.4207 16.1828L21.6031 17.0172ZM21.7359 17.848C21.7359 18.262 21.6753 18.531 21.6031 18.6967L23.4367 19.4953C23.6526 18.9997 23.7359 18.4367 23.7359 17.848H21.7359ZM21.6055 18.6913C21.5349 18.8507 21.4581 18.9214 21.3889 18.9621L22.4029 20.6859C22.8778 20.4066 23.2169 19.9919 23.4343 19.5007L21.6055 18.6913ZM21.3814 18.9665C21.3008 19.0149 21.1648 19.064 20.9279 19.064V21.064C21.4484 21.064 21.9577 20.9531 22.4104 20.6815L21.3814 18.9665ZM21.1439 20.04C21.5119 20.04 21.8709 19.9507 22.198 19.7608L21.1938 18.0312C21.1902 18.0333 21.1812 18.04 21.1439 18.04V20.04ZM22.198 19.7608C22.5294 19.5684 22.7867 19.2953 22.9658 18.9669L21.21 18.0091C21.2019 18.0241 21.1969 18.0291 21.1968 18.0292C21.1967 18.0293 21.1966 18.0293 21.1966 18.0294C21.1966 18.0294 21.1966 18.0294 21.1966 18.0294C21.1966 18.0294 21.1966 18.0294 21.1966 18.0294C21.1966 18.0294 21.1966 18.0294 21.1965 18.0294C21.1965 18.0295 21.1963 18.0296 21.1959 18.0299C21.1955 18.0302 21.1948 18.0306 21.1938 18.0312L22.198 19.7608ZM22.9608 18.9758C23.1594 18.6205 23.2399 18.2331 23.2399 17.848H21.2399C21.2399 17.9536 21.2191 17.9929 21.215 18.0002L22.9608 18.9758ZM23.2399 17.848C23.2399 17.4629 23.1615 17.0686 22.9545 16.709L21.2213 17.707C21.2169 17.6994 21.2399 17.7318 21.2399 17.848H23.2399ZM22.9658 16.7291C22.7867 16.4007 22.5294 16.1276 22.198 15.9352L21.1938 17.6648C21.1948 17.6654 21.1955 17.6658 21.1959 17.6661C21.1963 17.6664 21.1965 17.6665 21.1965 17.6666C21.1966 17.6666 21.1966 17.6666 21.1966 17.6666C21.1966 17.6666 21.1966 17.6666 21.1966 17.6666C21.1966 17.6666 21.1966 17.6666 21.1966 17.6666C21.1966 17.6667 21.1967 17.6667 21.1968 17.6668C21.1969 17.6669 21.2019 17.6719 21.21 17.6869L22.9658 16.7291ZM22.198 15.9352C21.8709 15.7453 21.5119 15.656 21.1439 15.656V17.656C21.1812 17.656 21.1902 17.6627 21.1938 17.6648L22.198 15.9352ZM21.1439 15.656C20.7755 15.656 20.4129 15.7429 20.0818 15.9352L21.086 17.6648C21.0888 17.6632 21.0916 17.6619 21.0969 17.6605C21.1028 17.659 21.1173 17.656 21.1439 17.656V15.656ZM20.0818 15.9352C19.7555 16.1246 19.5003 16.3911 19.3173 16.709L21.0505 17.707C21.0701 17.6729 21.0816 17.6674 21.086 17.6648L20.0818 15.9352ZM19.306 16.7291C19.1122 17.0844 19.0399 17.4712 19.0399 17.848H21.0399C21.0399 17.786 21.0459 17.7446 21.0515 17.7195C21.0543 17.7071 21.057 17.6988 21.0588 17.6939C21.0606 17.689 21.0618 17.6869 21.0618 17.6869L19.306 16.7291ZM19.0399 17.848C19.0399 18.2247 19.1142 18.6047 19.3001 18.9559L21.0677 18.0201C21.0616 18.0086 21.0399 17.962 21.0399 17.848H19.0399ZM19.3173 18.987C19.5003 19.3049 19.7555 19.5714 20.0818 19.7608L21.086 18.0312C21.0816 18.0286 21.0701 18.0231 21.0505 17.989L19.3173 18.987ZM20.0818 19.7608C20.4129 19.9531 20.7755 20.04 21.1439 20.04V18.04C21.1173 18.04 21.1028 18.037 21.0969 18.0355C21.0916 18.0341 21.0888 18.0328 21.086 18.0312L20.0818 19.7608ZM23.2719 20V19.12H21.2719V20H23.2719ZM23.2717 19.1387L23.2957 17.8587L21.2961 17.8213L21.2721 19.1013L23.2717 19.1387ZM23.2939 17.7772L23.2139 16.5052L21.2179 16.6308L21.2979 17.9028L23.2939 17.7772ZM23.2159 16.568V14.064H21.2159V16.568H23.2159ZM22.2159 15.064H23.4639V13.064H22.2159V15.064ZM22.4639 14.064V20H24.4639V14.064H22.4639ZM23.4639 19H22.2719V21H23.4639V19ZM25.371 19.792L24.8733 20.6594L24.8841 20.6655L25.371 19.792ZM24.595 19.016L23.7241 19.5076L23.7302 19.5181L24.595 19.016ZM24.595 16.672L23.7301 16.1698L23.7241 16.1804L24.595 16.672ZM25.371 15.904L24.8841 15.0305L24.8841 15.0305L25.371 15.904ZM27.419 15.872L27.926 15.0101L27.926 15.0101L27.419 15.872ZM28.051 16.6L28.9598 16.1828L28.9598 16.1828L28.051 16.6ZM28.059 19.096L28.9734 19.5008L28.9758 19.4953L28.059 19.096ZM27.435 19.824L26.9279 18.962L26.9205 18.9665L27.435 19.824ZM27.235 18.896L26.7328 18.0312L26.7328 18.0312L27.235 18.896ZM27.627 18.488L26.754 18.0002L26.7491 18.0091L27.627 18.488ZM27.627 17.208L26.7491 17.6869C26.7528 17.6936 26.7565 17.7003 26.7603 17.707L27.627 17.208ZM27.235 16.8L26.7328 17.6648L26.7328 17.6648L27.235 16.8ZM26.123 16.8L26.6251 17.6648L26.6251 17.6648L26.123 16.8ZM25.723 17.208L24.8563 16.709C24.8525 16.7157 24.8488 16.7224 24.8451 16.7291L25.723 17.208ZM25.723 18.488L24.8392 18.9559C24.8447 18.9663 24.8504 18.9767 24.8563 18.987L25.723 18.488ZM26.123 18.896L26.6251 18.0312L26.6251 18.0312L26.123 18.896ZM27.811 20H26.811C26.811 20.5523 27.2587 21 27.811 21V20ZM27.811 19.12L26.8111 19.1013C26.811 19.1075 26.811 19.1138 26.811 19.12L27.811 19.12ZM27.835 17.84L28.8348 17.8587C28.8353 17.8316 28.8347 17.8044 28.833 17.7772L27.835 17.84ZM27.755 16.568H26.755C26.755 16.5889 26.7556 16.6099 26.7569 16.6308L27.755 16.568ZM27.755 14.064V13.064C27.2027 13.064 26.755 13.5117 26.755 14.064H27.755ZM29.003 14.064H30.003C30.003 13.5117 29.5553 13.064 29.003 13.064V14.064ZM29.003 20V21C29.5553 21 30.003 20.5523 30.003 20H29.003ZM26.467 19.064C26.2166 19.064 26.0214 19.0097 25.8578 18.9185L24.8841 20.6655C25.3712 20.937 25.9067 21.064 26.467 21.064V19.064ZM25.8686 18.9246C25.6987 18.8271 25.5654 18.6958 25.4598 18.5139L23.7302 19.5181C24.0086 19.9976 24.3926 20.3835 24.8733 20.6594L25.8686 18.9246ZM25.4658 18.5244C25.3779 18.3687 25.315 18.1549 25.315 17.848H23.315C23.315 18.4371 23.4387 19.002 23.7241 19.5076L25.4658 18.5244ZM25.315 17.848C25.315 17.5335 25.3788 17.3176 25.4658 17.1636L23.7241 16.1804C23.4378 16.6877 23.315 17.2558 23.315 17.848H25.315ZM25.4598 17.1741C25.564 16.9946 25.6939 16.8689 25.8578 16.7775L24.8841 15.0305C24.3974 15.3018 24.01 15.688 23.7302 16.1699L25.4598 17.1741ZM25.8578 16.7775C26.0214 16.6863 26.2166 16.632 26.467 16.632V14.632C25.9067 14.632 25.3712 14.759 24.8841 15.0305L25.8578 16.7775ZM26.467 16.632C26.6784 16.632 26.8154 16.6771 26.9119 16.7339L27.926 15.0101C27.4786 14.7469 26.9809 14.632 26.467 14.632V16.632ZM26.9119 16.7339C26.9846 16.7767 27.0662 16.8518 27.1421 17.0172L28.9598 16.1828C28.737 15.6975 28.3973 15.2873 27.926 15.0101L26.9119 16.7339ZM27.1421 17.0172C27.2119 17.169 27.275 17.4297 27.275 17.848H29.275C29.275 17.253 29.1887 16.6816 28.9598 16.1828L27.1421 17.0172ZM27.275 17.848C27.275 18.262 27.2143 18.531 27.1421 18.6967L28.9758 19.4953C29.1916 18.9997 29.275 18.4367 29.275 17.848H27.275ZM27.1445 18.6913C27.0739 18.8507 26.9971 18.9214 26.9279 18.9621L27.942 20.6859C28.4168 20.4066 28.756 19.9919 28.9734 19.5007L27.1445 18.6913ZM26.9205 18.9665C26.8399 19.0149 26.7038 19.064 26.467 19.064V21.064C26.9874 21.064 27.4967 20.9531 27.9495 20.6815L26.9205 18.9665ZM26.683 20.04C27.051 20.04 27.41 19.9507 27.7371 19.7608L26.7328 18.0312C26.7293 18.0333 26.7203 18.04 26.683 18.04V20.04ZM27.7371 19.7608C28.0685 19.5684 28.3257 19.2953 28.5049 18.9669L26.7491 18.0091C26.7409 18.0241 26.7359 18.0291 26.7359 18.0292C26.7358 18.0293 26.7357 18.0293 26.7357 18.0294C26.7356 18.0294 26.7356 18.0294 26.7356 18.0294C26.7356 18.0294 26.7356 18.0294 26.7356 18.0294C26.7356 18.0294 26.7356 18.0294 26.7356 18.0294C26.7355 18.0295 26.7354 18.0296 26.735 18.0299C26.7346 18.0302 26.7339 18.0306 26.7328 18.0312L27.7371 19.7608ZM28.4999 18.9758C28.6985 18.6205 28.779 18.2331 28.779 17.848H26.779C26.779 17.9536 26.7581 17.9929 26.754 18.0002L28.4999 18.9758ZM28.779 17.848C28.779 17.4629 28.7006 17.0686 28.4936 16.709L26.7603 17.707C26.756 17.6994 26.779 17.7318 26.779 17.848H28.779ZM28.5049 16.7291C28.3257 16.4007 28.0685 16.1276 27.7371 15.9352L26.7328 17.6648C26.7339 17.6654 26.7346 17.6658 26.735 17.6661C26.7354 17.6664 26.7355 17.6665 26.7356 17.6666C26.7356 17.6666 26.7356 17.6666 26.7356 17.6666C26.7356 17.6666 26.7356 17.6666 26.7356 17.6666C26.7356 17.6666 26.7356 17.6666 26.7357 17.6666C26.7357 17.6667 26.7358 17.6667 26.7359 17.6668C26.7359 17.6669 26.7409 17.6719 26.7491 17.6869L28.5049 16.7291ZM27.7371 15.9352C27.41 15.7453 27.051 15.656 26.683 15.656V17.656C26.7203 17.656 26.7293 17.6627 26.7328 17.6648L27.7371 15.9352ZM26.683 15.656C26.3146 15.656 25.952 15.7429 25.6208 15.9352L26.6251 17.6648C26.6279 17.6632 26.6307 17.6619 26.636 17.6605C26.6418 17.659 26.6564 17.656 26.683 17.656V15.656ZM25.6208 15.9352C25.2946 16.1246 25.0394 16.3911 24.8563 16.709L26.5896 17.707C26.6092 17.6729 26.6207 17.6674 26.6251 17.6648L25.6208 15.9352ZM24.8451 16.7291C24.6513 17.0844 24.579 17.4712 24.579 17.848H26.579C26.579 17.786 26.5849 17.7446 26.5906 17.7195C26.5934 17.7071 26.596 17.6988 26.5979 17.6939C26.5997 17.689 26.6008 17.6869 26.6009 17.6869L24.8451 16.7291ZM24.579 17.848C24.579 18.2247 24.6533 18.6047 24.8392 18.9559L26.6068 18.0201C26.6007 18.0086 26.579 17.962 26.579 17.848H24.579ZM24.8563 18.987C25.0394 19.3049 25.2946 19.5714 25.6208 19.7608L26.6251 18.0312C26.6207 18.0286 26.6092 18.0231 26.5896 17.989L24.8563 18.987ZM25.6208 19.7608C25.952 19.9531 26.3146 20.04 26.683 20.04V18.04C26.6564 18.04 26.6418 18.037 26.636 18.0355C26.6307 18.0341 26.6279 18.0328 26.6251 18.0312L25.6208 19.7608ZM28.811 20V19.12H26.811V20H28.811ZM28.8108 19.1387L28.8348 17.8587L26.8351 17.8213L26.8111 19.1013L28.8108 19.1387ZM28.833 17.7772L28.753 16.5052L26.7569 16.6308L26.8369 17.9028L28.833 17.7772ZM28.755 16.568V14.064H26.755V16.568H28.755ZM27.755 15.064H29.003V13.064H27.755V15.064ZM28.003 14.064V20H30.003V14.064H28.003ZM29.003 19H27.811V21H29.003V19ZM30.158 20H29.158C29.158 20.5523 29.6057 21 30.158 21V20ZM30.158 15.696V14.696C29.6057 14.696 29.158 15.1437 29.158 15.696H30.158ZM31.406 15.696H32.406C32.406 15.1437 31.9583 14.696 31.406 14.696V15.696ZM31.406 20V21C31.9583 21 32.406 20.5523 32.406 20H31.406ZM30.222 14.896L29.5426 15.6298L29.5426 15.6298L30.222 14.896ZM30.222 13.904L30.9014 14.6378L30.9014 14.6378L30.222 13.904ZM31.342 13.896L30.6777 14.6434C30.6829 14.6481 30.6882 14.6527 30.6936 14.6572L31.342 13.896ZM31.342 14.896L32.0351 15.6168L32.0357 15.6163L31.342 14.896ZM31.158 20V15.696H29.158V20H31.158ZM30.158 16.696H31.406V14.696H30.158V16.696ZM30.406 15.696V20H32.406V15.696H30.406ZM31.406 19H30.158V21H31.406V19ZM30.782 14.096C30.7643 14.096 30.7763 14.0935 30.8064 14.1043C30.839 14.1159 30.8733 14.1362 30.9014 14.1622L29.5426 15.6298C29.9022 15.9627 30.3461 16.096 30.782 16.096V14.096ZM30.9014 14.1622C30.9218 14.1811 30.953 14.2179 30.9769 14.2727C31.0007 14.3275 31.006 14.3743 31.006 14.4H29.006C29.006 14.8741 29.1929 15.306 29.5426 15.6298L30.9014 14.1622ZM31.006 14.4C31.006 14.4257 31.0007 14.4725 30.9769 14.5273C30.953 14.5821 30.9218 14.6189 30.9014 14.6378L29.5426 13.1702C29.1929 13.494 29.006 13.9259 29.006 14.4H31.006ZM30.9014 14.6378C30.8733 14.6638 30.839 14.6841 30.8064 14.6957C30.7763 14.7065 30.7643 14.704 30.782 14.704V12.704C30.3461 12.704 29.9022 12.8373 29.5426 13.1702L30.9014 14.6378ZM30.782 14.704C30.8039 14.704 30.7961 14.707 30.7697 14.6979C30.7408 14.688 30.7072 14.6696 30.6777 14.6434L32.0064 13.1486C31.6457 12.8279 31.2071 12.704 30.782 12.704V14.704ZM30.6936 14.6572C30.6618 14.6302 30.6215 14.5837 30.5921 14.5184C30.5632 14.4541 30.558 14.4011 30.558 14.376H32.558C32.558 13.9002 32.3683 13.4566 31.9905 13.1348L30.6936 14.6572ZM30.558 14.376C30.558 14.3626 30.5608 14.3258 30.5805 14.2784C30.6006 14.2301 30.628 14.1953 30.6484 14.1757L32.0357 15.6163C32.3841 15.2808 32.558 14.8434 32.558 14.376H30.558ZM30.6489 14.1752C30.6847 14.1408 30.726 14.117 30.7617 14.1043C30.7941 14.0927 30.8053 14.096 30.782 14.096V16.096C31.215 16.096 31.6709 15.967 32.0351 15.6168L30.6489 14.1752ZM33.1403 19.68L32.4614 20.4143L32.469 20.4212L33.1403 19.68ZM32.7163 14.744V13.744C32.164 13.744 31.7163 14.1917 31.7163 14.744H32.7163ZM33.9643 14.744H34.9643C34.9643 14.1917 34.5166 13.744 33.9643 13.744V14.744ZM34.1083 18.928L33.3823 19.6157C33.3885 19.6223 33.3948 19.6287 33.4012 19.6351L34.1083 18.928ZM35.0043 18.912L35.9385 18.5553C35.8258 18.2601 35.5801 18.0355 35.276 17.9496C34.9719 17.8638 34.6451 17.9267 34.3946 18.1194L35.0043 18.912ZM35.3403 19.792L35.9183 20.608C36.2907 20.3442 36.4373 19.8617 36.2745 19.4353L35.3403 19.792ZM34.8763 20L35.1119 20.9719C35.1187 20.9702 35.1254 20.9685 35.1322 20.9667L34.8763 20ZM32.0523 16.752H31.0523C31.0523 17.3043 31.5 17.752 32.0523 17.752V16.752ZM32.0523 15.792V14.792C31.5 14.792 31.0523 15.2397 31.0523 15.792H32.0523ZM35.0363 15.792H36.0363C36.0363 15.2397 35.5886 14.792 35.0363 14.792V15.792ZM35.0363 16.752V17.752C35.5886 17.752 36.0363 17.3043 36.0363 16.752H35.0363ZM34.3243 19.064C33.9826 19.064 33.8568 18.9798 33.8116 18.9388L32.469 20.4212C32.9891 20.8922 33.6526 21.064 34.3243 21.064V19.064ZM33.8191 18.9457C33.8026 18.9304 33.7163 18.8495 33.7163 18.52H31.7163C31.7163 19.2145 31.9126 19.9069 32.4614 20.4143L33.8191 18.9457ZM33.7163 18.52V14.744H31.7163V18.52H33.7163ZM32.7163 15.744H33.9643V13.744H32.7163V15.744ZM32.9643 14.744V18.504H34.9643V14.744H32.9643ZM32.9643 18.504C32.9643 18.8621 33.0626 19.2782 33.3823 19.6157L34.8342 18.2403C34.8922 18.3014 34.9281 18.3682 34.9472 18.4244C34.965 18.4768 34.9643 18.508 34.9643 18.504H32.9643ZM33.4012 19.6351C33.7242 19.9581 34.1313 20.072 34.5003 20.072V18.072C34.5137 18.072 34.5594 18.0739 34.6231 18.0973C34.6903 18.122 34.7582 18.1637 34.8154 18.2209L33.4012 19.6351ZM34.5003 20.072C34.8885 20.072 35.2784 19.9628 35.614 19.7046L34.3946 18.1194C34.4182 18.1012 34.4456 18.0872 34.4717 18.0789C34.4965 18.071 34.5084 18.072 34.5003 18.072V20.072ZM34.0701 19.2687L34.4061 20.1487L36.2745 19.4353L35.9385 18.5553L34.0701 19.2687ZM34.7623 18.976C34.7488 18.9855 34.7083 19.01 34.6204 19.0333L35.1322 20.9667C35.407 20.894 35.6758 20.7798 35.9183 20.608L34.7623 18.976ZM34.6407 19.0281C34.5463 19.051 34.4417 19.064 34.3243 19.064V21.064C34.5909 21.064 34.8543 21.0343 35.1119 20.9719L34.6407 19.0281ZM33.0523 16.752V15.792H31.0523V16.752H33.0523ZM32.0523 16.792H35.0363V14.792H32.0523V16.792ZM34.0363 15.792V16.752H36.0363V15.792H34.0363ZM35.0363 15.752H32.0523V17.752H35.0363V15.752ZM36.0408 20H35.0408C35.0408 20.5523 35.4886 21 36.0408 21V20ZM36.0408 15.696V14.696C35.4886 14.696 35.0408 15.1437 35.0408 15.696H36.0408ZM37.2888 15.696H38.2888C38.2888 15.1437 37.8411 14.696 37.2888 14.696V15.696ZM37.2888 20V21C37.8411 21 38.2888 20.5523 38.2888 20H37.2888ZM36.1048 14.896L35.4254 15.6298L35.4254 15.6298L36.1048 14.896ZM36.1048 13.904L36.7843 14.6378L36.7843 14.6378L36.1048 13.904ZM37.2248 13.896L36.5605 14.6434C36.5657 14.6481 36.571 14.6527 36.5764 14.6572L37.2248 13.896ZM37.2248 14.896L37.918 15.6168L37.9185 15.6163L37.2248 14.896ZM37.0408 20V15.696H35.0408V20H37.0408ZM36.0408 16.696H37.2888V14.696H36.0408V16.696ZM36.2888 15.696V20H38.2888V15.696H36.2888ZM37.2888 19H36.0408V21H37.2888V19ZM36.6648 14.096C36.6471 14.096 36.6591 14.0935 36.6892 14.1043C36.7218 14.1159 36.7561 14.1362 36.7843 14.1622L35.4254 15.6298C35.785 15.9627 36.2289 16.096 36.6648 16.096V14.096ZM36.7843 14.1622C36.8046 14.1811 36.8358 14.2179 36.8597 14.2727C36.8835 14.3275 36.8888 14.3743 36.8888 14.4H34.8888C34.8888 14.8741 35.0758 15.306 35.4254 15.6298L36.7843 14.1622ZM36.8888 14.4C36.8888 14.4257 36.8835 14.4725 36.8597 14.5273C36.8358 14.5821 36.8046 14.6189 36.7843 14.6378L35.4254 13.1702C35.0758 13.494 34.8888 13.9259 34.8888 14.4H36.8888ZM36.7843 14.6378C36.7561 14.6638 36.7218 14.6841 36.6892 14.6957C36.6591 14.7065 36.6471 14.704 36.6648 14.704V12.704C36.2289 12.704 35.785 12.8373 35.4254 13.1702L36.7843 14.6378ZM36.6648 14.704C36.6867 14.704 36.679 14.707 36.6525 14.6979C36.6236 14.688 36.59 14.6696 36.5605 14.6434L37.8892 13.1486C37.5285 12.8279 37.0899 12.704 36.6648 12.704V14.704ZM36.5764 14.6572C36.5446 14.6302 36.5043 14.5837 36.4749 14.5184C36.446 14.4541 36.4408 14.4011 36.4408 14.376H38.4408C38.4408 13.9002 38.2511 13.4566 37.8733 13.1348L36.5764 14.6572ZM36.4408 14.376C36.4408 14.3626 36.4436 14.3258 36.4633 14.2784C36.4834 14.2301 36.5108 14.1953 36.5312 14.1757L37.9185 15.6163C38.267 15.2808 38.4408 14.8434 38.4408 14.376H36.4408ZM36.5317 14.1752C36.5675 14.1408 36.6088 14.117 36.6445 14.1043C36.6769 14.0927 36.6881 14.096 36.6648 14.096V16.096C37.0978 16.096 37.5537 15.967 37.918 15.6168L36.5317 14.1752ZM39.6151 20L38.6931 20.3873C38.8491 20.7585 39.2124 21 39.6151 21V20ZM37.8071 15.696V14.696C37.4722 14.696 37.1596 14.8636 36.9742 15.1425C36.7889 15.4214 36.7554 15.7746 36.8851 16.0833L37.8071 15.696ZM39.0951 15.696L40.0216 15.3198C39.8685 14.9427 39.5021 14.696 39.0951 14.696V15.696ZM40.5991 19.4V20.4C40.9318 20.4 41.2428 20.2345 41.4286 19.9585C41.6144 19.6825 41.6508 19.3321 41.5256 19.0238L40.5991 19.4ZM39.9591 19.4L39.0375 19.0119C38.9075 19.3206 38.9407 19.674 39.126 19.9531C39.3113 20.2322 39.6241 20.4 39.9591 20.4V19.4ZM41.5191 15.696V14.696C41.1168 14.696 40.7537 14.9371 40.5975 15.3079L41.5191 15.696ZM42.7191 15.696L43.6404 16.0847C43.7707 15.776 43.7377 15.4224 43.5524 15.1432C43.3671 14.8639 43.0542 14.696 42.7191 14.696V15.696ZM40.9031 20V21C41.3052 21 41.6681 20.7592 41.8244 20.3887L40.9031 20ZM40.5371 19.6127L38.7291 15.3087L36.8851 16.0833L38.6931 20.3873L40.5371 19.6127ZM37.8071 16.696H39.0951V14.696H37.8071V16.696ZM38.1686 16.0722L39.6726 19.7762L41.5256 19.0238L40.0216 15.3198L38.1686 16.0722ZM40.5991 18.4H39.9591V20.4H40.5991V18.4ZM40.8807 19.7881L42.4407 16.0841L40.5975 15.3079L39.0375 19.0119L40.8807 19.7881ZM41.5191 16.696H42.7191V14.696H41.5191V16.696ZM41.7977 15.3073L39.9817 19.6113L41.8244 20.3887L43.6404 16.0847L41.7977 15.3073ZM40.9031 19H39.6151V21H40.9031V19ZM43.9512 19.776L43.4886 20.6626L43.4938 20.6653L43.9512 19.776ZM43.0952 18.992L42.2388 19.5085L42.2426 19.5146L43.0952 18.992ZM43.0872 16.704L42.2309 16.1875L42.2284 16.1915L43.0872 16.704ZM43.9112 15.92L44.3853 16.8005L44.3957 16.7948L43.9112 15.92ZM46.2232 15.904L45.7482 16.784C45.7537 16.787 45.7593 16.7899 45.7649 16.7928L46.2232 15.904ZM47.0312 16.672L46.1688 17.1784L46.1724 17.1845L47.0312 16.672ZM47.3192 18.032L48.3151 18.1225L48.3157 18.115L47.3192 18.032ZM47.3032 18.2V19.2C47.8169 19.2 48.2471 18.8107 48.2982 18.2995L47.3032 18.2ZM43.8072 18.2H42.8072C42.8072 18.7523 43.2549 19.2 43.8072 19.2V18.2ZM43.8072 17.472V16.472C43.2549 16.472 42.8072 16.9197 42.8072 17.472H43.8072ZM46.6472 17.472L47.0575 18.3839C47.4874 18.1905 47.7238 17.7231 47.6249 17.2621C47.526 16.8012 47.1186 16.472 46.6472 16.472V17.472ZM46.1672 17.688H45.1672C45.1672 18.0273 45.3392 18.3435 45.6242 18.5278C45.9091 18.712 46.2681 18.7392 46.5775 18.5999L46.1672 17.688ZM46.0312 17.104L45.1543 17.5848L45.1543 17.5848L46.0312 17.104ZM45.6552 16.72L45.1407 17.5775C45.1478 17.5818 45.1549 17.5859 45.1621 17.59L45.6552 16.72ZM44.5272 16.72L45.0202 17.5901L45.0293 17.5848L44.5272 16.72ZM44.1512 17.112L45.028 17.5929L45.0343 17.5812L44.1512 17.112ZM44.1672 18.52L43.2942 19.0078C43.2999 19.0181 43.3059 19.0282 43.312 19.0383L44.1672 18.52ZM44.6072 18.928L44.1498 19.8173C44.1598 19.8224 44.17 19.8274 44.1802 19.8322L44.6072 18.928ZM45.8792 18.96L45.5126 18.0295L45.5028 18.0335L45.8792 18.96ZM46.3592 18.648L47.0943 17.9701C46.9119 17.7723 46.6576 17.6564 46.3888 17.6484C46.12 17.6405 45.8592 17.7411 45.6655 17.9277L46.3592 18.648ZM47.0232 19.368L47.7735 20.029C48.1121 19.6447 48.1055 19.0666 47.7583 18.6901L47.0232 19.368ZM46.2792 19.888L46.6448 20.8188C46.6496 20.8169 46.6543 20.815 46.6591 20.813L46.2792 19.888ZM45.2472 19.064C44.8887 19.064 44.6183 18.9946 44.4085 18.8867L43.4938 20.6653C44.0307 20.9414 44.6242 21.064 45.2472 21.064V19.064ZM44.4137 18.8894C44.1946 18.7751 44.0491 18.6348 43.9478 18.4694L42.2426 19.5146C42.5465 20.0105 42.9717 20.3929 43.4886 20.6626L44.4137 18.8894ZM43.9514 18.4755C43.8509 18.3089 43.7912 18.1091 43.7912 17.848H41.7912C41.7912 18.4403 41.934 19.0031 42.2389 19.5085L43.9514 18.4755ZM43.7912 17.848C43.7912 17.5739 43.8519 17.3739 43.9459 17.2165L42.2284 16.1915C41.9277 16.6954 41.7912 17.2581 41.7912 17.848H43.7912ZM43.9434 17.2205C44.0533 17.0384 44.1957 16.9025 44.3853 16.8005L43.4371 15.0395C42.9333 15.3108 42.5264 15.6976 42.2309 16.1875L43.9434 17.2205ZM44.3957 16.7948C44.5791 16.6932 44.8014 16.632 45.0872 16.632V14.632C44.4983 14.632 43.9366 14.7628 43.4267 15.0452L44.3957 16.7948ZM45.0872 16.632C45.3602 16.632 45.5728 16.6894 45.7482 16.784L46.6981 15.024C46.2015 14.756 45.6568 14.632 45.0872 14.632V16.632ZM45.7649 16.7928C45.9355 16.8808 46.0658 17.003 46.1689 17.1784L47.8934 16.1656C47.6018 15.669 47.1935 15.2792 46.6814 15.0152L45.7649 16.7928ZM46.1724 17.1845C46.26 17.3312 46.3272 17.5434 46.3272 17.864H48.3272C48.3272 17.2566 48.197 16.6742 47.8899 16.1595L46.1724 17.1845ZM46.3272 17.864C46.3272 17.8768 46.3264 17.904 46.3226 17.949L48.3157 18.115C48.3226 18.032 48.3272 17.9472 48.3272 17.864H46.3272ZM46.3233 17.9415C46.3182 17.9974 46.3131 18.0504 46.3081 18.1005L48.2982 18.2995C48.3039 18.2429 48.3095 18.1839 48.315 18.1225L46.3233 17.9415ZM47.3032 17.2H43.8072V19.2H47.3032V17.2ZM44.8072 18.2V17.472H42.8072V18.2H44.8072ZM43.8072 18.472H46.6472V16.472H43.8072V18.472ZM46.2368 16.5601L45.7568 16.7761L46.5775 18.5999L47.0575 18.3839L46.2368 16.5601ZM47.1672 17.688C47.1672 17.3275 47.0934 16.9613 46.908 16.6232L45.1543 17.5848C45.1533 17.583 45.156 17.5869 45.1592 17.6008C45.1626 17.6155 45.1672 17.6433 45.1672 17.688H47.1672ZM46.908 16.6232C46.7304 16.2993 46.474 16.0346 46.1482 15.85L45.1621 17.59C45.1629 17.5905 45.1622 17.5901 45.1604 17.5887C45.1586 17.5873 45.1566 17.5856 45.1546 17.5836C45.1527 17.5817 45.1517 17.5803 45.1514 17.5799C45.1512 17.5796 45.1523 17.5811 45.1543 17.5848L46.908 16.6232ZM46.1697 15.8625C45.833 15.6605 45.4633 15.576 45.0952 15.576V17.576C45.1267 17.576 45.1423 17.5795 45.1461 17.5805C45.1492 17.5813 45.146 17.5807 45.1407 17.5775L46.1697 15.8625ZM45.0952 15.576C44.7264 15.576 44.36 15.6607 44.025 15.8552L45.0293 17.5848C45.03 17.5844 45.0322 17.583 45.0389 17.5813C45.0462 17.5795 45.0638 17.576 45.0952 17.576V15.576ZM44.0341 15.85C43.7 16.0393 43.4432 16.3131 43.268 16.6428L45.0343 17.5812C45.0356 17.5786 45.0367 17.5769 45.0373 17.5757C45.038 17.5746 45.0384 17.5741 45.0384 17.5741C45.0384 17.5741 45.0381 17.5745 45.0375 17.5753C45.0369 17.576 45.036 17.577 45.0348 17.5782C45.0325 17.5807 45.0296 17.5833 45.0266 17.5856C45.0235 17.588 45.0212 17.5894 45.0202 17.59L44.0341 15.85ZM43.2743 16.6312C43.0871 16.9726 43.0152 17.3427 43.0152 17.704H45.0152C45.0152 17.6067 45.0339 17.5821 45.028 17.5928L43.2743 16.6312ZM43.0152 17.704V17.896H45.0152V17.704H43.0152ZM43.0152 17.896C43.0152 18.2789 43.0992 18.6589 43.2942 19.0078L45.0401 18.0322C45.0324 18.0184 45.0152 17.9824 45.0152 17.896H43.0152ZM43.312 19.0383C43.5164 19.3756 43.8022 19.6385 44.1498 19.8173L45.0645 18.0387C45.0387 18.0255 45.0312 18.0164 45.0224 18.0017L43.312 19.0383ZM44.1802 19.8322C44.5303 19.9976 44.9054 20.064 45.2792 20.064V18.064C45.1409 18.064 45.068 18.0397 45.0342 18.0238L44.1802 19.8322ZM45.2792 20.064C45.607 20.064 45.94 20.0147 46.2555 19.8865L45.5028 18.0335C45.477 18.044 45.41 18.064 45.2792 18.064V20.064ZM46.2457 19.8904C46.5502 19.7704 46.82 19.5925 47.0528 19.3683L45.6655 17.9277C45.6103 17.9808 45.5601 18.0109 45.5126 18.0296L46.2457 19.8904ZM45.624 19.3259L46.288 20.0459L47.7583 18.6901L47.0943 17.9701L45.624 19.3259ZM46.2728 18.707C46.1851 18.8065 46.0676 18.8938 45.8992 18.963L46.6591 20.813C47.088 20.6368 47.4665 20.3775 47.7735 20.029L46.2728 18.707ZM45.9135 18.9572C45.7533 19.0202 45.5373 19.064 45.2472 19.064V21.064C45.7357 21.064 46.2077 20.9905 46.6448 20.8188L45.9135 18.9572Z" fill="black"/>
</g>
</g>
<defs>
<filter id="filter0_d_1_4" x="7" y="3.28095" width="46" height="22.719" filterUnits="userSpaceOnUse" color-interpolation-filters="sRGB">
<feFlood flood-opacity="0" result="BackgroundImageFix"/>
<feColorMatrix in="SourceAlpha" type="matrix" values="0 0 0 0 0 0 0 0 0 0 0 0 0 0 0 0 0 0 127 0" result="hardAlpha"/>
<feOffset/>
<feGaussianBlur stdDeviation="2"/>
<feComposite in2="hardAlpha" operator="out"/>
<feColorMatrix type="matrix" values="0 0 0 0 1 0 0 0 0 1 0 0 0 0 1 0 0 0 0.25 0"/>
<feBlend mode="normal" in2="BackgroundImageFix" result="effect1_dropShadow_1_4"/>
<feBlend mode="normal" in="SourceGraphic" in2="effect1_dropShadow_1_4" result="shape"/>
</filter>
<filter id="filter1_d_1_4" x="38.4" y="10.11" width="3" height="10" filterUnits="userSpaceOnUse" color-interpolation-filters="sRGB">
<feFlood flood-opacity="0" result="BackgroundImageFix"/>
<feColorMatrix in="SourceAlpha" type="matrix" values="0 0 0 0 0 0 0 0 0 0 0 0 0 0 0 0 0 0 127 0" result="hardAlpha"/>
<feOffset dy="0.5"/>
<feGaussianBlur stdDeviation="0.5"/>
<feComposite in2="hardAlpha" operator="out"/>
<feColorMatrix type="matrix" values="0 0 0 0 0 0 0 0 0 0 0 0 0 0 0 0 0 0 0.35 0"/>
<feBlend mode="normal" in2="BackgroundImageFix" result="effect1_dropShadow_1_4"/>
<feBlend mode="normal" in="SourceGraphic" in2="effect1_dropShadow_1_4" result="shape"/>
</filter>
<linearGradient id="paint0_linear_1_4" x1="39.9" y1="10.61" x2="39.9" y2="18.61" gradientUnits="userSpaceOnUse">
<stop stop-color="#FF4D00"/>
<stop offset="0.0885417" stop-color="#FF4D00"/>
<stop offset="1" stop-color="#FF0000"/>
</linearGradient>
<linearGradient id="paint1_linear_1_4" x1="44.5581" y1="10.0773" x2="44.5581" y2="18.6755" gradientUnits="userSpaceOnUse">
<stop stop-color="#FF4D00"/>
<stop offset="0.0885417" stop-color="#FF4D00"/>
<stop offset="1" stop-color="#FF0000"/>
</linearGradient>
<linearGradient id="paint2_linear_1_4" x1="30" y1="14.9" x2="30" y2="19.1" gradientUnits="userSpaceOnUse">
<stop stop-color="#FF4D00"/>
<stop offset="1" stop-color="#FF0000"/>
</linearGradient>
<clipPath id="clip0_1_4">
<rect width="60" height="30" fill="white"/>
</clipPath>
</defs>
</svg>
