<svg width="38" height="10" viewBox="0 0 38 10" fill="none" xmlns="http://www.w3.org/2000/svg">
<path d="M1.34597 8L3.84197 2.4H5.12197L7.62597 8H6.26597L4.21797 3.056H4.72997L2.67397 8H1.34597ZM2.59397 6.8L2.93797 5.816H5.81797L6.16997 6.8H2.59397ZM9.92791 8.064C9.52257 8.064 9.15724 7.97333 8.83191 7.792C8.50657 7.60533 8.24791 7.34667 8.05591 7.016C7.86924 6.68533 7.77591 6.296 7.77591 5.848C7.77591 5.39467 7.86924 5.00267 8.05591 4.672C8.24791 4.34133 8.50657 4.08533 8.83191 3.904C9.15724 3.72267 9.52257 3.632 9.92791 3.632C10.2906 3.632 10.6079 3.712 10.8799 3.872C11.1519 4.032 11.3626 4.27467 11.5119 4.6C11.6612 4.92533 11.7359 5.34133 11.7359 5.848C11.7359 6.34933 11.6639 6.76533 11.5199 7.096C11.3759 7.42133 11.1679 7.664 10.8959 7.824C10.6292 7.984 10.3066 8.064 9.92791 8.064ZM10.1439 7.04C10.3466 7.04 10.5306 6.992 10.6959 6.896C10.8612 6.8 10.9919 6.664 11.0879 6.488C11.1892 6.30667 11.2399 6.09333 11.2399 5.848C11.2399 5.59733 11.1892 5.384 11.0879 5.208C10.9919 5.032 10.8612 4.896 10.6959 4.8C10.5306 4.704 10.3466 4.656 10.1439 4.656C9.93591 4.656 9.74924 4.704 9.58391 4.8C9.41857 4.896 9.28524 5.032 9.18391 5.208C9.08791 5.384 9.03991 5.59733 9.03991 5.848C9.03991 6.09333 9.08791 6.30667 9.18391 6.488C9.28524 6.664 9.41857 6.8 9.58391 6.896C9.74924 6.992 9.93591 7.04 10.1439 7.04ZM11.2719 8V7.12L11.2959 5.84L11.2159 4.568V2.064H12.4639V8H11.2719ZM15.467 8.064C15.0616 8.064 14.6963 7.97333 14.371 7.792C14.0456 7.60533 13.787 7.34667 13.595 7.016C13.4083 6.68533 13.315 6.296 13.315 5.848C13.315 5.39467 13.4083 5.00267 13.595 4.672C13.787 4.34133 14.0456 4.08533 14.371 3.904C14.6963 3.72267 15.0616 3.632 15.467 3.632C15.8296 3.632 16.147 3.712 16.419 3.872C16.691 4.032 16.9016 4.27467 17.051 4.6C17.2003 4.92533 17.275 5.34133 17.275 5.848C17.275 6.34933 17.203 6.76533 17.059 7.096C16.915 7.42133 16.707 7.664 16.435 7.824C16.1683 7.984 15.8456 8.064 15.467 8.064ZM15.683 7.04C15.8856 7.04 16.0696 6.992 16.235 6.896C16.4003 6.8 16.531 6.664 16.627 6.488C16.7283 6.30667 16.779 6.09333 16.779 5.848C16.779 5.59733 16.7283 5.384 16.627 5.208C16.531 5.032 16.4003 4.896 16.235 4.8C16.0696 4.704 15.8856 4.656 15.683 4.656C15.475 4.656 15.2883 4.704 15.123 4.8C14.9576 4.896 14.8243 5.032 14.723 5.208C14.627 5.384 14.579 5.59733 14.579 5.848C14.579 6.09333 14.627 6.30667 14.723 6.488C14.8243 6.664 14.9576 6.8 15.123 6.896C15.2883 6.992 15.475 7.04 15.683 7.04ZM16.811 8V7.12L16.835 5.84L16.755 4.568V2.064H18.003V8H16.811ZM19.158 8V3.696H20.406V8H19.158ZM19.782 3.096C19.5527 3.096 19.366 3.02933 19.222 2.896C19.078 2.76267 19.006 2.59733 19.006 2.4C19.006 2.20267 19.078 2.03733 19.222 1.904C19.366 1.77067 19.5527 1.704 19.782 1.704C20.0114 1.704 20.198 1.768 20.342 1.896C20.486 2.01867 20.558 2.17867 20.558 2.376C20.558 2.584 20.486 2.75733 20.342 2.896C20.2034 3.02933 20.0167 3.096 19.782 3.096ZM23.3243 8.064C22.8176 8.064 22.4229 7.936 22.1403 7.68C21.8576 7.41867 21.7163 7.032 21.7163 6.52V2.744H22.9643V6.504C22.9643 6.68533 23.0123 6.82667 23.1083 6.928C23.2043 7.024 23.3349 7.072 23.5003 7.072C23.6976 7.072 23.8656 7.01867 24.0043 6.912L24.3403 7.792C24.2123 7.88267 24.0576 7.952 23.8763 8C23.7003 8.04267 23.5163 8.064 23.3243 8.064ZM21.0523 4.752V3.792H24.0363V4.752H21.0523ZM25.0408 8V3.696H26.2888V8H25.0408ZM25.6648 3.096C25.4355 3.096 25.2488 3.02933 25.1048 2.896C24.9608 2.76267 24.8888 2.59733 24.8888 2.4C24.8888 2.20267 24.9608 2.03733 25.1048 1.904C25.2488 1.77067 25.4355 1.704 25.6648 1.704C25.8942 1.704 26.0808 1.768 26.2248 1.896C26.3688 2.01867 26.4408 2.17867 26.4408 2.376C26.4408 2.584 26.3688 2.75733 26.2248 2.896C26.0862 3.02933 25.8995 3.096 25.6648 3.096ZM28.6151 8L26.8071 3.696H28.0951L29.5991 7.4H28.9591L30.5191 3.696H31.7191L29.9031 8H28.6151ZM34.2472 8.064C33.7565 8.064 33.3245 7.968 32.9512 7.776C32.5832 7.584 32.2978 7.32267 32.0952 6.992C31.8925 6.656 31.7912 6.27467 31.7912 5.848C31.7912 5.416 31.8898 5.03467 32.0872 4.704C32.2898 4.368 32.5645 4.10667 32.9112 3.92C33.2578 3.728 33.6498 3.632 34.0872 3.632C34.5085 3.632 34.8872 3.72267 35.2232 3.904C35.5645 4.08 35.8338 4.336 36.0312 4.672C36.2285 5.00267 36.3272 5.4 36.3272 5.864C36.3272 5.912 36.3245 5.968 36.3192 6.032C36.3138 6.09067 36.3085 6.14667 36.3032 6.2H32.8072V5.472H35.6472L35.1672 5.688C35.1672 5.464 35.1218 5.26933 35.0312 5.104C34.9405 4.93867 34.8152 4.81067 34.6552 4.72C34.4952 4.624 34.3085 4.576 34.0952 4.576C33.8818 4.576 33.6925 4.624 33.5272 4.72C33.3672 4.81067 33.2418 4.94133 33.1512 5.112C33.0605 5.27733 33.0152 5.47467 33.0152 5.704V5.896C33.0152 6.13067 33.0658 6.33867 33.1672 6.52C33.2738 6.696 33.4205 6.832 33.6072 6.928C33.7992 7.01867 34.0232 7.064 34.2792 7.064C34.5085 7.064 34.7085 7.02933 34.8792 6.96C35.0552 6.89067 35.2152 6.78667 35.3592 6.648L36.0232 7.368C35.8258 7.592 35.5778 7.76533 35.2792 7.888C34.9805 8.00533 34.6365 8.064 34.2472 8.064Z" fill="url(#paint0_linear_1_2)"/>
<path d="M1.34597 8L0.432588 7.59289C0.294703 7.90225 0.322779 8.26038 0.507188 8.54447C0.691597 8.82856 1.00727 9 1.34597 9V8ZM3.84197 2.4V1.4C3.44716 1.4 3.08932 1.63229 2.92859 1.99289L3.84197 2.4ZM5.12197 2.4L6.03486 1.99181C5.87388 1.63178 5.51634 1.4 5.12197 1.4V2.4ZM7.62597 8V9C7.96488 9 8.28072 8.82835 8.46507 8.54397C8.64943 8.25959 8.6772 7.90119 8.53886 7.59181L7.62597 8ZM6.26597 8L5.3421 8.3827C5.49688 8.75637 5.86151 9 6.26597 9V8ZM4.21797 3.056V2.056C3.88398 2.056 3.57204 2.22274 3.38649 2.50044C3.20094 2.77814 3.16628 3.13014 3.2941 3.4387L4.21797 3.056ZM4.72997 3.056L5.65331 3.43998C5.78165 3.13137 5.74732 2.77905 5.56183 2.50101C5.37633 2.22298 5.0642 2.056 4.72997 2.056V3.056ZM2.67397 8V9C3.07792 9 3.4422 8.75696 3.59731 8.38398L2.67397 8ZM2.59397 6.8L1.64999 6.46999C1.54306 6.77585 1.59096 7.11456 1.77849 7.37879C1.96603 7.64301 2.26996 7.8 2.59397 7.8V6.8ZM2.93797 5.816V4.816C2.51289 4.816 2.13427 5.08473 1.99399 5.48599L2.93797 5.816ZM5.81797 5.816L6.75954 5.47918C6.61726 5.08144 6.24039 4.816 5.81797 4.816V5.816ZM6.16997 6.8V7.8C6.49526 7.8 6.80022 7.64178 6.98753 7.37584C7.17485 7.10989 7.2211 6.76946 7.11154 6.46318L6.16997 6.8ZM2.25935 8.40711L4.75535 2.80711L2.92859 1.99289L0.432588 7.59289L2.25935 8.40711ZM3.84197 3.4H5.12197V1.4H3.84197V3.4ZM4.20907 2.80819L6.71307 8.40819L8.53886 7.59181L6.03486 1.99181L4.20907 2.80819ZM7.62597 7H6.26597V9H7.62597V7ZM7.18984 7.6173L5.14184 2.6733L3.2941 3.4387L5.3421 8.3827L7.18984 7.6173ZM4.21797 4.056H4.72997V2.056H4.21797V4.056ZM3.80663 2.67202L1.75063 7.61602L3.59731 8.38398L5.65331 3.43998L3.80663 2.67202ZM2.67397 7H1.34597V9H2.67397V7ZM3.53795 7.13001L3.88195 6.14601L1.99399 5.48599L1.64999 6.46999L3.53795 7.13001ZM2.93797 6.816H5.81797V4.816H2.93797V6.816ZM4.8764 6.15282L5.2284 7.13682L7.11154 6.46318L6.75954 5.47918L4.8764 6.15282ZM6.16997 5.8H2.59397V7.8H6.16997V5.8ZM8.83191 7.792L8.3342 8.65943L8.34505 8.66548L8.83191 7.792ZM8.05591 7.016L7.18502 7.50763L7.19112 7.51814L8.05591 7.016ZM8.05591 4.672L7.19105 4.16983L7.18508 4.18041L8.05591 4.672ZM8.83191 3.904L8.34505 3.03052L8.34505 3.03052L8.83191 3.904ZM10.8799 3.872L11.3869 3.01007L11.3869 3.01007L10.8799 3.872ZM11.5119 4.6L12.4207 4.18283L12.4207 4.18283L11.5119 4.6ZM11.5199 7.096L12.4344 7.50075L12.4367 7.49527L11.5199 7.096ZM10.8959 7.824L10.3889 6.96203L10.3814 6.96651L10.8959 7.824ZM10.6959 6.896L10.1938 6.03121L10.1938 6.03121L10.6959 6.896ZM11.0879 6.488L10.2149 6.00015L10.21 6.00915L11.0879 6.488ZM11.0879 5.208L10.21 5.68685C10.2137 5.6936 10.2174 5.7003 10.2213 5.70696L11.0879 5.208ZM10.6959 4.8L10.1938 5.66479L10.1938 5.66479L10.6959 4.8ZM9.58391 4.8L10.086 5.66479L10.086 5.66479L9.58391 4.8ZM9.18391 5.208L8.31728 4.70904C8.31345 4.7157 8.30969 4.7224 8.30601 4.72915L9.18391 5.208ZM9.18391 6.488L8.30012 6.95589C8.30566 6.96635 8.31138 6.97671 8.31728 6.98696L9.18391 6.488ZM9.58391 6.896L10.086 6.03121L10.086 6.03121L9.58391 6.896ZM11.2719 8H10.2719C10.2719 8.55228 10.7196 9 11.2719 9V8ZM11.2719 7.12L10.2721 7.10125C10.272 7.1075 10.2719 7.11375 10.2719 7.12L11.2719 7.12ZM11.2959 5.84L12.2957 5.85875C12.2962 5.83156 12.2956 5.80437 12.2939 5.77723L11.2959 5.84ZM11.2159 4.568H10.2159C10.2159 4.58894 10.2166 4.60987 10.2179 4.63077L11.2159 4.568ZM11.2159 2.064V1.064C10.6636 1.064 10.2159 1.51171 10.2159 2.064H11.2159ZM12.4639 2.064H13.4639C13.4639 1.51171 13.0162 1.064 12.4639 1.064V2.064ZM12.4639 8V9C13.0162 9 13.4639 8.55228 13.4639 8H12.4639ZM9.92791 7.064C9.67754 7.064 9.48231 7.00967 9.31876 6.91852L8.34505 8.66548C8.83217 8.93699 9.36761 9.064 9.92791 9.064V7.064ZM9.32958 6.92463C9.15963 6.82713 9.02631 6.69576 8.9207 6.51386L7.19112 7.51814C7.4695 7.99758 7.85351 8.38354 8.33424 8.65937L9.32958 6.92463ZM8.92673 6.52441C8.83883 6.36869 8.77591 6.15485 8.77591 5.848H6.77591C6.77591 6.43715 6.89965 7.00198 7.18508 7.50759L8.92673 6.52441ZM8.77591 5.848C8.77591 5.5335 8.83978 5.31762 8.92673 5.16359L7.18508 4.18041C6.8987 4.68771 6.77591 5.25583 6.77591 5.848H8.77591ZM8.9207 5.17414C9.02492 4.99464 9.15483 4.86885 9.31876 4.77748L8.34505 3.03052C7.85831 3.30181 7.47089 3.68803 7.19112 4.16986L8.9207 5.17414ZM9.31876 4.77748C9.48231 4.68633 9.67754 4.632 9.92791 4.632V2.632C9.36761 2.632 8.83217 2.75901 8.34505 3.03052L9.31876 4.77748ZM9.92791 4.632C10.1393 4.632 10.2763 4.67712 10.3729 4.73393L11.3869 3.01007C10.9395 2.74688 10.4418 2.632 9.92791 2.632V4.632ZM10.3729 4.73393C10.4456 4.77668 10.5272 4.85178 10.6031 5.01717L12.4207 4.18283C12.198 3.69755 11.8583 3.28732 11.3869 3.01007L10.3729 4.73393ZM10.6031 5.01717C10.6728 5.16905 10.7359 5.42967 10.7359 5.848H12.7359C12.7359 5.253 12.6497 4.68162 12.4207 4.18283L10.6031 5.01717ZM10.7359 5.848C10.7359 6.26199 10.6753 6.53099 10.6031 6.69673L12.4367 7.49527C12.6526 6.99968 12.7359 6.43668 12.7359 5.848H10.7359ZM10.6055 6.69125C10.5349 6.85074 10.4581 6.92138 10.3889 6.96207L11.4029 8.68593C11.8778 8.40662 12.2169 7.99192 12.4343 7.50075L10.6055 6.69125ZM10.3814 6.96651C10.3008 7.01486 10.1648 7.064 9.92791 7.064V9.064C10.4484 9.064 10.9577 8.95314 11.4104 8.68149L10.3814 6.96651ZM10.1439 8.04C10.5119 8.04 10.8709 7.95072 11.198 7.76079L10.1938 6.03121C10.1902 6.03328 10.1812 6.04 10.1439 6.04V8.04ZM11.198 7.76079C11.5294 7.56837 11.7867 7.29528 11.9658 6.96685L10.21 6.00915C10.2019 6.02408 10.1969 6.02912 10.1968 6.02917C10.1967 6.02927 10.1966 6.02934 10.1966 6.02937C10.1966 6.02941 10.1966 6.02942 10.1966 6.02942C10.1966 6.02942 10.1966 6.02942 10.1966 6.02942C10.1966 6.02941 10.1966 6.02942 10.1965 6.02944C10.1965 6.02948 10.1963 6.02963 10.1959 6.02989C10.1955 6.03015 10.1948 6.0306 10.1938 6.03121L11.198 7.76079ZM11.9608 6.97582C12.1594 6.62048 12.2399 6.23311 12.2399 5.848H10.2399C10.2399 5.95356 10.2191 5.99285 10.215 6.00018L11.9608 6.97582ZM12.2399 5.848C12.2399 5.4629 12.1615 5.06856 11.9545 4.70904L10.2213 5.70696C10.2169 5.69944 10.2399 5.73177 10.2399 5.848H12.2399ZM11.9658 4.72915C11.7867 4.40072 11.5294 4.12763 11.198 3.93521L10.1938 5.66479C10.1948 5.6654 10.1955 5.66585 10.1959 5.66611C10.1963 5.66637 10.1965 5.66652 10.1965 5.66656C10.1966 5.66658 10.1966 5.66659 10.1966 5.66658C10.1966 5.66658 10.1966 5.66658 10.1966 5.66658C10.1966 5.66658 10.1966 5.66659 10.1966 5.66663C10.1966 5.66666 10.1967 5.66673 10.1968 5.66683C10.1969 5.66688 10.2019 5.67192 10.21 5.68685L11.9658 4.72915ZM11.198 3.93521C10.8709 3.74528 10.5119 3.656 10.1439 3.656V5.656C10.1812 5.656 10.1902 5.66272 10.1938 5.66479L11.198 3.93521ZM10.1439 3.656C9.77553 3.656 9.41289 3.74295 9.08177 3.93521L10.086 5.66479C10.0888 5.66316 10.0916 5.66187 10.0969 5.66049C10.1028 5.659 10.1173 5.656 10.1439 5.656V3.656ZM9.08177 3.93521C8.75552 4.12464 8.50035 4.39108 8.31728 4.70904L10.0505 5.70696C10.0701 5.67292 10.0816 5.66735 10.086 5.66479L9.08177 3.93521ZM8.30601 4.72915C8.11225 5.08438 8.03991 5.4712 8.03991 5.848H10.0399C10.0399 5.786 10.0459 5.74456 10.0515 5.71951C10.0543 5.70714 10.057 5.69884 10.0588 5.6939C10.0606 5.68901 10.0618 5.68691 10.0618 5.68685L8.30601 4.72915ZM8.03991 5.848C8.03991 6.22468 8.11421 6.60473 8.30012 6.95589L10.0677 6.02011C10.0616 6.00861 10.0399 5.96199 10.0399 5.848H8.03991ZM8.31728 6.98696C8.50035 7.30492 8.75552 7.57135 9.08177 7.76079L10.086 6.03121C10.0816 6.02865 10.0701 6.02308 10.0505 5.98904L8.31728 6.98696ZM9.08177 7.76079C9.41289 7.95305 9.77553 8.04 10.1439 8.04V6.04C10.1173 6.04 10.1028 6.037 10.0969 6.03551C10.0916 6.03413 10.0888 6.03284 10.086 6.03121L9.08177 7.76079ZM12.2719 8V7.12H10.2719V8H12.2719ZM12.2717 7.13875L12.2957 5.85875L10.2961 5.82125L10.2721 7.10125L12.2717 7.13875ZM12.2939 5.77723L12.2139 4.50523L10.2179 4.63077L10.2979 5.90277L12.2939 5.77723ZM12.2159 4.568V2.064H10.2159V4.568H12.2159ZM11.2159 3.064H12.4639V1.064H11.2159V3.064ZM11.4639 2.064V8H13.4639V2.064H11.4639ZM12.4639 7H11.2719V9H12.4639V7ZM14.371 7.792L13.8733 8.65943L13.8841 8.66548L14.371 7.792ZM13.595 7.016L12.7241 7.50763L12.7302 7.51814L13.595 7.016ZM13.595 4.672L12.7301 4.16983L12.7241 4.18041L13.595 4.672ZM14.371 3.904L13.8841 3.03052L13.8841 3.03052L14.371 3.904ZM16.419 3.872L16.926 3.01007L16.926 3.01007L16.419 3.872ZM17.051 4.6L17.9598 4.18283L17.9598 4.18283L17.051 4.6ZM17.059 7.096L17.9734 7.50075L17.9758 7.49527L17.059 7.096ZM16.435 7.824L15.9279 6.96203L15.9205 6.96651L16.435 7.824ZM16.235 6.896L15.7328 6.03121L15.7328 6.03121L16.235 6.896ZM16.627 6.488L15.754 6.00015L15.7491 6.00915L16.627 6.488ZM16.627 5.208L15.7491 5.68685C15.7528 5.6936 15.7565 5.7003 15.7603 5.70696L16.627 5.208ZM16.235 4.8L15.7328 5.66479L15.7328 5.66479L16.235 4.8ZM15.123 4.8L15.6251 5.66479L15.6251 5.66479L15.123 4.8ZM14.723 5.208L13.8563 4.70904C13.8525 4.7157 13.8488 4.7224 13.8451 4.72915L14.723 5.208ZM14.723 6.488L13.8392 6.95589C13.8447 6.96635 13.8504 6.97671 13.8563 6.98696L14.723 6.488ZM15.123 6.896L15.6251 6.03121L15.6251 6.03121L15.123 6.896ZM16.811 8H15.811C15.811 8.55228 16.2587 9 16.811 9V8ZM16.811 7.12L15.8111 7.10125C15.811 7.1075 15.811 7.11375 15.811 7.12L16.811 7.12ZM16.835 5.84L17.8348 5.85875C17.8353 5.83156 17.8347 5.80437 17.833 5.77723L16.835 5.84ZM16.755 4.568H15.755C15.755 4.58894 15.7556 4.60987 15.7569 4.63077L16.755 4.568ZM16.755 2.064V1.064C16.2027 1.064 15.755 1.51171 15.755 2.064H16.755ZM18.003 2.064H19.003C19.003 1.51171 18.5553 1.064 18.003 1.064V2.064ZM18.003 8V9C18.5553 9 19.003 8.55228 19.003 8H18.003ZM15.467 7.064C15.2166 7.064 15.0214 7.00967 14.8578 6.91852L13.8841 8.66548C14.3712 8.93699 14.9067 9.064 15.467 9.064V7.064ZM14.8686 6.92463C14.6987 6.82713 14.5654 6.69576 14.4598 6.51386L12.7302 7.51814C13.0086 7.99758 13.3926 8.38354 13.8733 8.65937L14.8686 6.92463ZM14.4658 6.52441C14.3779 6.36869 14.315 6.15485 14.315 5.848H12.315C12.315 6.43715 12.4387 7.00198 12.7241 7.50759L14.4658 6.52441ZM14.315 5.848C14.315 5.5335 14.3788 5.31762 14.4658 5.16359L12.7241 4.18041C12.4378 4.68771 12.315 5.25583 12.315 5.848H14.315ZM14.4598 5.17414C14.564 4.99464 14.6939 4.86885 14.8578 4.77748L13.8841 3.03052C13.3974 3.30181 13.01 3.68803 12.7302 4.16986L14.4598 5.17414ZM14.8578 4.77748C15.0214 4.68633 15.2166 4.632 15.467 4.632V2.632C14.9067 2.632 14.3712 2.75901 13.8841 3.03052L14.8578 4.77748ZM15.467 4.632C15.6784 4.632 15.8154 4.67712 15.9119 4.73393L16.926 3.01007C16.4786 2.74688 15.9809 2.632 15.467 2.632V4.632ZM15.9119 4.73393C15.9846 4.77668 16.0662 4.85178 16.1421 5.01717L17.9598 4.18283C17.737 3.69755 17.3973 3.28732 16.926 3.01007L15.9119 4.73393ZM16.1421 5.01717C16.2119 5.16905 16.275 5.42967 16.275 5.848H18.275C18.275 5.253 18.1887 4.68162 17.9598 4.18283L16.1421 5.01717ZM16.275 5.848C16.275 6.26199 16.2143 6.53099 16.1421 6.69673L17.9758 7.49527C18.1916 6.99968 18.275 6.43668 18.275 5.848H16.275ZM16.1445 6.69125C16.0739 6.85074 15.9971 6.92138 15.9279 6.96207L16.942 8.68593C17.4168 8.40662 17.756 7.99192 17.9734 7.50075L16.1445 6.69125ZM15.9205 6.96651C15.8399 7.01486 15.7038 7.064 15.467 7.064V9.064C15.9874 9.064 16.4967 8.95314 16.9495 8.68149L15.9205 6.96651ZM15.683 8.04C16.051 8.04 16.41 7.95072 16.7371 7.76079L15.7328 6.03121C15.7293 6.03328 15.7203 6.04 15.683 6.04V8.04ZM16.7371 7.76079C17.0685 7.56837 17.3257 7.29528 17.5049 6.96685L15.7491 6.00915C15.7409 6.02408 15.7359 6.02912 15.7359 6.02917C15.7358 6.02927 15.7357 6.02934 15.7357 6.02937C15.7356 6.02941 15.7356 6.02942 15.7356 6.02942C15.7356 6.02942 15.7356 6.02942 15.7356 6.02942C15.7356 6.02941 15.7356 6.02942 15.7356 6.02944C15.7355 6.02948 15.7354 6.02963 15.735 6.02989C15.7346 6.03015 15.7339 6.0306 15.7328 6.03121L16.7371 7.76079ZM17.4999 6.97582C17.6985 6.62048 17.779 6.23311 17.779 5.848H15.779C15.779 5.95356 15.7581 5.99285 15.754 6.00018L17.4999 6.97582ZM17.779 5.848C17.779 5.4629 17.7006 5.06856 17.4936 4.70904L15.7603 5.70696C15.756 5.69944 15.779 5.73177 15.779 5.848H17.779ZM17.5049 4.72915C17.3257 4.40072 17.0685 4.12763 16.7371 3.93521L15.7328 5.66479C15.7339 5.6654 15.7346 5.66585 15.735 5.66611C15.7354 5.66637 15.7355 5.66652 15.7356 5.66656C15.7356 5.66658 15.7356 5.66659 15.7356 5.66658C15.7356 5.66658 15.7356 5.66658 15.7356 5.66658C15.7356 5.66658 15.7356 5.66659 15.7357 5.66663C15.7357 5.66666 15.7358 5.66673 15.7359 5.66683C15.7359 5.66688 15.7409 5.67192 15.7491 5.68685L17.5049 4.72915ZM16.7371 3.93521C16.41 3.74528 16.051 3.656 15.683 3.656V5.656C15.7203 5.656 15.7293 5.66272 15.7328 5.66479L16.7371 3.93521ZM15.683 3.656C15.3146 3.656 14.952 3.74295 14.6208 3.93521L15.6251 5.66479C15.6279 5.66316 15.6307 5.66187 15.636 5.66049C15.6418 5.659 15.6564 5.656 15.683 5.656V3.656ZM14.6208 3.93521C14.2946 4.12464 14.0394 4.39108 13.8563 4.70904L15.5896 5.70696C15.6092 5.67292 15.6207 5.66735 15.6251 5.66479L14.6208 3.93521ZM13.8451 4.72915C13.6513 5.08438 13.579 5.4712 13.579 5.848H15.579C15.579 5.786 15.5849 5.74456 15.5906 5.71951C15.5934 5.70714 15.596 5.69884 15.5979 5.6939C15.5997 5.68901 15.6008 5.68691 15.6009 5.68685L13.8451 4.72915ZM13.579 5.848C13.579 6.22468 13.6533 6.60473 13.8392 6.95589L15.6068 6.02011C15.6007 6.00861 15.579 5.96199 15.579 5.848H13.579ZM13.8563 6.98696C14.0394 7.30492 14.2946 7.57135 14.6208 7.76079L15.6251 6.03121C15.6207 6.02865 15.6092 6.02308 15.5896 5.98904L13.8563 6.98696ZM14.6208 7.76079C14.952 7.95305 15.3146 8.04 15.683 8.04V6.04C15.6564 6.04 15.6418 6.037 15.636 6.03551C15.6307 6.03413 15.6279 6.03284 15.6251 6.03121L14.6208 7.76079ZM17.811 8V7.12H15.811V8H17.811ZM17.8108 7.13875L17.8348 5.85875L15.8351 5.82125L15.8111 7.10125L17.8108 7.13875ZM17.833 5.77723L17.753 4.50523L15.7569 4.63077L15.8369 5.90277L17.833 5.77723ZM17.755 4.568V2.064H15.755V4.568H17.755ZM16.755 3.064H18.003V1.064H16.755V3.064ZM17.003 2.064V8H19.003V2.064H17.003ZM18.003 7H16.811V9H18.003V7ZM19.158 8H18.158C18.158 8.55228 18.6057 9 19.158 9V8ZM19.158 3.696V2.696C18.6057 2.696 18.158 3.14371 18.158 3.696H19.158ZM20.406 3.696H21.406C21.406 3.14371 20.9583 2.696 20.406 2.696V3.696ZM20.406 8V9C20.9583 9 21.406 8.55228 21.406 8H20.406ZM19.222 2.896L18.5426 3.62976L18.5426 3.62976L19.222 2.896ZM19.222 1.904L19.9014 2.63776L19.9014 2.63776L19.222 1.904ZM20.342 1.896L19.6777 2.64341C19.6829 2.64808 19.6882 2.65269 19.6936 2.65724L20.342 1.896ZM20.342 2.896L21.0351 3.61683L21.0357 3.61632L20.342 2.896ZM20.158 8V3.696H18.158V8H20.158ZM19.158 4.696H20.406V2.696H19.158V4.696ZM19.406 3.696V8H21.406V3.696H19.406ZM20.406 7H19.158V9H20.406V7ZM19.782 2.096C19.7643 2.096 19.7763 2.09351 19.8064 2.10426C19.839 2.1159 19.8733 2.13617 19.9014 2.16224L18.5426 3.62976C18.9022 3.96272 19.3461 4.096 19.782 4.096V2.096ZM19.9014 2.16224C19.9218 2.1811 19.953 2.21786 19.9769 2.27273C20.0007 2.32747 20.006 2.37434 20.006 2.4H18.006C18.006 2.87414 18.1929 3.30598 18.5426 3.62976L19.9014 2.16224ZM20.006 2.4C20.006 2.42566 20.0007 2.47252 19.9769 2.52727C19.953 2.58214 19.9218 2.61891 19.9014 2.63776L18.5426 1.17024C18.1929 1.49402 18.006 1.92586 18.006 2.4H20.006ZM19.9014 2.63776C19.8733 2.66382 19.839 2.6841 19.8064 2.69574C19.7763 2.70649 19.7643 2.704 19.782 2.704V0.704C19.3461 0.704 18.9022 0.837275 18.5426 1.17024L19.9014 2.63776ZM19.782 2.704C19.8039 2.704 19.7961 2.70701 19.7697 2.69795C19.7408 2.68802 19.7072 2.66963 19.6777 2.64341L21.0064 1.14859C20.6457 0.827947 20.2071 0.704 19.782 0.704V2.704ZM19.6936 2.65724C19.6618 2.6302 19.6215 2.58372 19.5921 2.51836C19.5632 2.45414 19.558 2.40113 19.558 2.376H21.558C21.558 1.90016 21.3683 1.45662 20.9905 1.13476L19.6936 2.65724ZM19.558 2.376C19.558 2.36261 19.5608 2.32583 19.5805 2.27839C19.6006 2.2301 19.628 2.19531 19.6484 2.17568L21.0357 3.61632C21.3841 3.28076 21.558 2.84342 21.558 2.376H19.558ZM19.6489 2.17517C19.6847 2.14078 19.726 2.11702 19.7617 2.10426C19.7941 2.09268 19.8053 2.096 19.782 2.096V4.096C20.215 4.096 20.6709 3.96703 21.0351 3.61683L19.6489 2.17517ZM22.1403 7.68L21.4614 8.41431L21.469 8.4212L22.1403 7.68ZM21.7163 2.744V1.744C21.164 1.744 20.7163 2.19172 20.7163 2.744H21.7163ZM22.9643 2.744H23.9643C23.9643 2.19172 23.5166 1.744 22.9643 1.744V2.744ZM23.1083 6.928L22.3823 7.61574C22.3885 7.62228 22.3948 7.62874 22.4012 7.63511L23.1083 6.928ZM24.0043 6.912L24.9385 6.5553C24.8258 6.26007 24.5801 6.03549 24.276 5.94962C23.9719 5.86375 23.6451 5.9267 23.3946 6.11938L24.0043 6.912ZM24.3403 7.792L24.9183 8.60802C25.2907 8.34421 25.4373 7.86169 25.2745 7.4353L24.3403 7.792ZM23.8763 8L24.1119 8.97185C24.1187 8.97021 24.1254 8.96849 24.1322 8.96671L23.8763 8ZM21.0523 4.752H20.0523C20.0523 5.30428 20.5 5.752 21.0523 5.752V4.752ZM21.0523 3.792V2.792C20.5 2.792 20.0523 3.23972 20.0523 3.792H21.0523ZM24.0363 3.792H25.0363C25.0363 3.23972 24.5886 2.792 24.0363 2.792V3.792ZM24.0363 4.752V5.752C24.5886 5.752 25.0363 5.30428 25.0363 4.752H24.0363ZM23.3243 7.064C22.9826 7.064 22.8568 6.97981 22.8116 6.9388L21.469 8.4212C21.9891 8.89219 22.6526 9.064 23.3243 9.064V7.064ZM22.8191 6.94573C22.8026 6.93044 22.7163 6.84951 22.7163 6.52H20.7163C20.7163 7.21449 20.9126 7.9069 21.4614 8.41427L22.8191 6.94573ZM22.7163 6.52V2.744H20.7163V6.52H22.7163ZM21.7163 3.744H22.9643V1.744H21.7163V3.744ZM21.9643 2.744V6.504H23.9643V2.744H21.9643ZM21.9643 6.504C21.9643 6.86207 22.0626 7.27823 22.3823 7.61574L23.8342 6.24026C23.8922 6.30143 23.9281 6.36816 23.9472 6.42442C23.965 6.47683 23.9643 6.50799 23.9643 6.504H21.9643ZM22.4012 7.63511C22.7242 7.95808 23.1313 8.072 23.5003 8.072V6.072C23.5137 6.072 23.5594 6.07394 23.6231 6.09733C23.6903 6.12203 23.7582 6.16371 23.8154 6.22089L22.4012 7.63511ZM23.5003 8.072C23.8885 8.072 24.2784 7.96279 24.614 7.70462L23.3946 6.11938C23.4182 6.1012 23.4456 6.08716 23.4717 6.07888C23.4965 6.07101 23.5084 6.072 23.5003 6.072V8.072ZM23.0701 7.2687L23.4061 8.1487L25.2745 7.4353L24.9385 6.5553L23.0701 7.2687ZM23.7623 6.97598C23.7488 6.98552 23.7083 7.01004 23.6204 7.03329L24.1322 8.96671C24.407 8.89396 24.6758 8.77982 24.9183 8.60802L23.7623 6.97598ZM23.6407 7.02815C23.5463 7.05103 23.4417 7.064 23.3243 7.064V9.064C23.5909 9.064 23.8543 9.03431 24.1119 8.97185L23.6407 7.02815ZM22.0523 4.752V3.792H20.0523V4.752H22.0523ZM21.0523 4.792H24.0363V2.792H21.0523V4.792ZM23.0363 3.792V4.752H25.0363V3.792H23.0363ZM24.0363 3.752H21.0523V5.752H24.0363V3.752ZM25.0408 8H24.0408C24.0408 8.55228 24.4886 9 25.0408 9V8ZM25.0408 3.696V2.696C24.4886 2.696 24.0408 3.14371 24.0408 3.696H25.0408ZM26.2888 3.696H27.2888C27.2888 3.14371 26.8411 2.696 26.2888 2.696V3.696ZM26.2888 8V9C26.8411 9 27.2888 8.55228 27.2888 8H26.2888ZM25.1048 2.896L24.4254 3.62976L24.4254 3.62976L25.1048 2.896ZM25.1048 1.904L25.7843 2.63776L25.7843 2.63776L25.1048 1.904ZM26.2248 1.896L25.5605 2.64341C25.5657 2.64808 25.571 2.65269 25.5764 2.65724L26.2248 1.896ZM26.2248 2.896L26.918 3.61683L26.9185 3.61632L26.2248 2.896ZM26.0408 8V3.696H24.0408V8H26.0408ZM25.0408 4.696H26.2888V2.696H25.0408V4.696ZM25.2888 3.696V8H27.2888V3.696H25.2888ZM26.2888 7H25.0408V9H26.2888V7ZM25.6648 2.096C25.6471 2.096 25.6591 2.09351 25.6892 2.10426C25.7218 2.1159 25.7561 2.13617 25.7843 2.16224L24.4254 3.62976C24.785 3.96272 25.2289 4.096 25.6648 4.096V2.096ZM25.7843 2.16224C25.8046 2.1811 25.8358 2.21786 25.8597 2.27273C25.8835 2.32747 25.8888 2.37434 25.8888 2.4H23.8888C23.8888 2.87414 24.0758 3.30598 24.4254 3.62976L25.7843 2.16224ZM25.8888 2.4C25.8888 2.42566 25.8835 2.47252 25.8597 2.52727C25.8358 2.58214 25.8046 2.61891 25.7843 2.63776L24.4254 1.17024C24.0758 1.49402 23.8888 1.92586 23.8888 2.4H25.8888ZM25.7843 2.63776C25.7561 2.66382 25.7218 2.6841 25.6892 2.69574C25.6591 2.70649 25.6471 2.704 25.6648 2.704V0.704C25.2289 0.704 24.785 0.837275 24.4254 1.17024L25.7843 2.63776ZM25.6648 2.704C25.6867 2.704 25.679 2.70701 25.6525 2.69795C25.6236 2.68802 25.59 2.66963 25.5605 2.64341L26.8892 1.14859C26.5285 0.827947 26.0899 0.704 25.6648 0.704V2.704ZM25.5764 2.65724C25.5446 2.6302 25.5043 2.58372 25.4749 2.51836C25.446 2.45414 25.4408 2.40113 25.4408 2.376H27.4408C27.4408 1.90016 27.2511 1.45662 26.8733 1.13476L25.5764 2.65724ZM25.4408 2.376C25.4408 2.36261 25.4436 2.32583 25.4633 2.27839C25.4834 2.2301 25.5108 2.19531 25.5312 2.17568L26.9185 3.61632C27.267 3.28076 27.4408 2.84342 27.4408 2.376H25.4408ZM25.5317 2.17517C25.5675 2.14078 25.6088 2.11702 25.6445 2.10426C25.6769 2.09268 25.6881 2.096 25.6648 2.096V4.096C26.0978 4.096 26.5537 3.96703 26.918 3.61683L25.5317 2.17517ZM28.6151 8L27.6931 8.38729C27.8491 8.75851 28.2124 9 28.6151 9V8ZM26.8071 3.696V2.696C26.4722 2.696 26.1596 2.86361 25.9742 3.14251C25.7889 3.4214 25.7554 3.77456 25.8851 4.08329L26.8071 3.696ZM28.0951 3.696L29.0216 3.31978C28.8685 2.94268 28.5021 2.696 28.0951 2.696V3.696ZM29.5991 7.4V8.4C29.9318 8.4 30.2428 8.23449 30.4286 7.95847C30.6144 7.68245 30.6508 7.33208 30.5256 7.02378L29.5991 7.4ZM28.9591 7.4L28.0375 7.01185C27.9075 7.32062 27.9407 7.67399 28.126 7.95311C28.3113 8.23222 28.6241 8.4 28.9591 8.4V7.4ZM30.5191 3.696V2.696C30.1168 2.696 29.7537 2.93709 29.5975 3.30785L30.5191 3.696ZM31.7191 3.696L32.6404 4.08475C32.7707 3.77596 32.7377 3.42244 32.5524 3.14316C32.3671 2.86389 32.0542 2.696 31.7191 2.696V3.696ZM29.9031 8V9C30.3052 9 30.6681 8.75919 30.8244 8.38875L29.9031 8ZM29.5371 7.61271L27.7291 3.30871L25.8851 4.08329L27.6931 8.38729L29.5371 7.61271ZM26.8071 4.696H28.0951V2.696H26.8071V4.696ZM27.1686 4.07222L28.6726 7.77622L30.5256 7.02378L29.0216 3.31978L27.1686 4.07222ZM29.5991 6.4H28.9591V8.4H29.5991V6.4ZM29.8807 7.78815L31.4407 4.08415L29.5975 3.30785L28.0375 7.01185L29.8807 7.78815ZM30.5191 4.696H31.7191V2.696H30.5191V4.696ZM30.7977 3.30725L28.9817 7.61125L30.8244 8.38875L32.6404 4.08475L30.7977 3.30725ZM29.9031 7H28.6151V9H29.9031V7ZM32.9512 7.776L32.4886 8.6626L32.4938 8.66529L32.9512 7.776ZM32.0952 6.992L31.2388 7.50851L31.2426 7.51456L32.0952 6.992ZM32.0872 4.704L31.2309 4.1875L31.2284 4.19154L32.0872 4.704ZM32.9112 3.92L33.3853 4.80053L33.3957 4.79479L32.9112 3.92ZM35.2232 3.904L34.7482 4.78402C34.7537 4.787 34.7593 4.78993 34.7649 4.7928L35.2232 3.904ZM36.0312 4.672L35.1688 5.17843L35.1724 5.18446L36.0312 4.672ZM36.3192 6.032L37.3151 6.12254L37.3157 6.11504L36.3192 6.032ZM36.3032 6.2V7.2C36.8169 7.2 37.2471 6.8107 37.2982 6.2995L36.3032 6.2ZM32.8072 6.2H31.8072C31.8072 6.75228 32.2549 7.2 32.8072 7.2V6.2ZM32.8072 5.472V4.472C32.2549 4.472 31.8072 4.91972 31.8072 5.472H32.8072ZM35.6472 5.472L36.0575 6.38392C36.4874 6.19047 36.7238 5.72306 36.6249 5.26214C36.526 4.80123 36.1186 4.472 35.6472 4.472V5.472ZM35.1672 5.688H34.1672C34.1672 6.02733 34.3392 6.34351 34.6242 6.52775C34.9091 6.712 35.2681 6.73917 35.5775 6.59992L35.1672 5.688ZM35.0312 5.104L34.1543 5.58483L34.1543 5.58483L35.0312 5.104ZM34.6552 4.72L34.1407 5.57749C34.1478 5.58176 34.1549 5.58593 34.1621 5.59002L34.6552 4.72ZM33.5272 4.72L34.0202 5.59007L34.0293 5.58479L33.5272 4.72ZM33.1512 5.112L34.028 5.59287L34.0343 5.58116L33.1512 5.112ZM33.1672 6.52L32.2942 7.00782C32.2999 7.01809 32.3059 7.02825 32.312 7.0383L33.1672 6.52ZM33.6072 6.928L33.1498 7.81729C33.1598 7.82245 33.17 7.82743 33.1802 7.83225L33.6072 6.928ZM34.8792 6.96L34.5126 6.02954L34.5028 6.03353L34.8792 6.96ZM35.3592 6.648L36.0943 5.97006C35.9119 5.77234 35.6576 5.65641 35.3888 5.64844C35.12 5.64047 34.8592 5.74112 34.6655 5.92768L35.3592 6.648ZM36.0232 7.368L36.7735 8.02903C37.1121 7.64467 37.1055 7.06661 36.7583 6.69006L36.0232 7.368ZM35.2792 7.888L35.6448 8.81875C35.6496 8.81688 35.6543 8.81497 35.6591 8.81302L35.2792 7.888ZM34.2472 7.064C33.8887 7.064 33.6183 6.9946 33.4085 6.88671L32.4938 8.66529C33.0307 8.9414 33.6242 9.064 34.2472 9.064V7.064ZM33.4137 6.88942C33.1946 6.77508 33.0491 6.63479 32.9478 6.46944L31.2426 7.51456C31.5465 8.01054 31.9717 8.39292 32.4886 8.66258L33.4137 6.88942ZM32.9514 6.47551C32.8509 6.30889 32.7912 6.10908 32.7912 5.848H30.7912C30.7912 6.44025 30.934 7.00311 31.2389 7.50849L32.9514 6.47551ZM32.7912 5.848C32.7912 5.57391 32.8519 5.37392 32.9459 5.21646L31.2284 4.19154C30.9277 4.69542 30.7912 5.25809 30.7912 5.848H32.7912ZM32.9434 5.22049C33.0533 5.03841 33.1957 4.90253 33.3853 4.80047L32.4371 3.03953C31.9333 3.3108 31.5264 3.69759 31.2309 4.18751L32.9434 5.22049ZM33.3957 4.79479C33.5791 4.6932 33.8014 4.632 34.0872 4.632V2.632C33.4983 2.632 32.9366 2.7628 32.4267 3.04521L33.3957 4.79479ZM34.0872 4.632C34.3602 4.632 34.5728 4.68936 34.7482 4.78402L35.6981 3.02398C35.2015 2.75598 34.6568 2.632 34.0872 2.632V4.632ZM34.7649 4.7928C34.9355 4.88078 35.0658 5.003 35.1689 5.17842L36.8934 4.16558C36.6018 3.669 36.1935 3.27922 35.6814 3.0152L34.7649 4.7928ZM35.1724 5.18446C35.26 5.33117 35.3272 5.54336 35.3272 5.864H37.3272C37.3272 5.25664 37.197 4.67417 36.8899 4.15954L35.1724 5.18446ZM35.3272 5.864C35.3272 5.87684 35.3264 5.904 35.3226 5.94896L37.3157 6.11504C37.3226 6.032 37.3272 5.94716 37.3272 5.864H35.3272ZM35.3233 5.94146C35.3182 5.99743 35.3131 6.05043 35.3081 6.1005L37.2982 6.2995C37.3039 6.24291 37.3095 6.18391 37.315 6.12254L35.3233 5.94146ZM36.3032 5.2H32.8072V7.2H36.3032V5.2ZM33.8072 6.2V5.472H31.8072V6.2H33.8072ZM32.8072 6.472H35.6472V4.472H32.8072V6.472ZM35.2368 4.56008L34.7568 4.77608L35.5775 6.59992L36.0575 6.38392L35.2368 4.56008ZM36.1672 5.688C36.1672 5.3275 36.0934 4.96129 35.908 4.62317L34.1543 5.58483C34.1533 5.58299 34.156 5.58686 34.1592 5.60081C34.1626 5.61548 34.1672 5.64332 34.1672 5.688H36.1672ZM35.908 4.62317C35.7304 4.29932 35.474 4.03463 35.1482 3.84998L34.1621 5.59002C34.1629 5.59047 34.1622 5.59009 34.1604 5.58873C34.1586 5.58734 34.1566 5.58558 34.1546 5.58362C34.1527 5.58168 34.1517 5.58029 34.1514 5.57995C34.1512 5.57964 34.1523 5.58105 34.1543 5.58483L35.908 4.62317ZM35.1697 3.86251C34.833 3.66052 34.4633 3.576 34.0952 3.576V5.576C34.1267 5.576 34.1423 5.57951 34.1461 5.58049C34.1492 5.58128 34.146 5.58072 34.1407 5.57749L35.1697 3.86251ZM34.0952 3.576C33.7264 3.576 33.36 3.66071 33.025 3.85521L34.0293 5.58479C34.03 5.58436 34.0322 5.58304 34.0389 5.58133C34.0462 5.57947 34.0638 5.576 34.0952 5.576V3.576ZM33.0341 3.84998C32.7 4.03932 32.4432 4.31314 32.268 4.64284L34.0343 5.58116C34.0356 5.57863 34.0367 5.57686 34.0373 5.57574C34.038 5.57463 34.0384 5.57411 34.0384 5.5741C34.0384 5.57409 34.0381 5.5745 34.0375 5.57526C34.0369 5.57602 34.036 5.57704 34.0348 5.57823C34.0325 5.58071 34.0296 5.58329 34.0266 5.58565C34.0235 5.58799 34.0212 5.58942 34.0202 5.59002L33.0341 3.84998ZM32.2743 4.63117C32.0871 4.97256 32.0152 5.34265 32.0152 5.704H34.0152C34.0152 5.60668 34.0339 5.5821 34.028 5.59283L32.2743 4.63117ZM32.0152 5.704V5.896H34.0152V5.704H32.0152ZM32.0152 5.896C32.0152 6.27894 32.0992 6.65891 32.2942 7.00782L34.0401 6.03218C34.0324 6.01843 34.0152 5.98239 34.0152 5.896H32.0152ZM32.312 7.0383C32.5164 7.37564 32.8022 7.63854 33.1498 7.81729L34.0645 6.03871C34.0387 6.02546 34.0312 6.01636 34.0224 6.0017L32.312 7.0383ZM33.1802 7.83225C33.5303 7.9976 33.9054 8.064 34.2792 8.064V6.064C34.1409 6.064 34.068 6.03974 34.0342 6.02375L33.1802 7.83225ZM34.2792 8.064C34.607 8.064 34.94 8.01467 35.2555 7.88647L34.5028 6.03353C34.477 6.044 34.41 6.064 34.2792 6.064V8.064ZM35.2457 7.89041C35.5502 7.77043 35.82 7.59251 36.0528 7.36832L34.6655 5.92768C34.6103 5.98082 34.5601 6.0109 34.5126 6.02959L35.2457 7.89041ZM34.624 7.32594L35.288 8.04594L36.7583 6.69006L36.0943 5.97006L34.624 7.32594ZM35.2728 6.70697C35.1851 6.80646 35.0676 6.89383 34.8992 6.96298L35.6591 8.81302C36.088 8.63684 36.4665 8.37754 36.7735 8.02903L35.2728 6.70697ZM34.9135 6.95725C34.7533 7.0202 34.5373 7.064 34.2472 7.064V9.064C34.7357 9.064 35.2077 8.99046 35.6448 8.81875L34.9135 6.95725Z" fill="black"/>
<defs>
<linearGradient id="paint0_linear_1_2" x1="19" y1="2" x2="19" y2="8" gradientUnits="userSpaceOnUse">
<stop stop-color="#FF4D00"/>
<stop offset="1" stop-color="#FF0000"/>
</linearGradient>
</defs>
</svg>
