<svg width="76" height="38" viewBox="0 0 76 38" fill="none" xmlns="http://www.w3.org/2000/svg">
<g filter="url(#filter0_d_111_17)">
<rect x="56.3" y="7.22" width="2" height="16" fill="url(#paint0_linear_111_17)"/>
</g>
<mask id="mask0_111_17" style="mask-type:alpha" maskUnits="userSpaceOnUse" x="49" y="-3" width="36" height="35">
<rect x="49.2258" y="11.7076" width="26.4969" height="23.6002" transform="rotate(-32.3303 49.2258 11.7076)" fill="#D9D9D9"/>
</mask>
<g mask="url(#mask0_111_17)">
<rect x="55.1617" y="3.79364" width="6.10709" height="22.7184" rx="3.05354" transform="rotate(-32.3276 55.1617 3.79364)" fill="white" fill-opacity="0.3" stroke="black" stroke-width="2.25"/>
</g>
<mask id="mask1_111_17" style="mask-type:alpha" maskUnits="userSpaceOnUse" x="57" y="2" width="14" height="19">
<rect x="56.5585" y="3.89718" width="3.85709" height="20.759" rx="1.92855" transform="rotate(-32.3276 56.5585 3.89718)" fill="white"/>
</mask>
<g mask="url(#mask1_111_17)">
<rect x="54.7938" y="6.15456" width="23.645" height="17.1964" fill="url(#paint1_linear_111_17)"/>
</g>
<path d="M2.69194 27L7.68394 15.8H10.2439L15.2519 27H12.5319L8.43594 17.112H9.45994L5.34794 27H2.69194ZM5.18794 24.6L5.87594 22.632H11.6359L12.3399 24.6H5.18794ZM19.8558 27.128C19.0451 27.128 18.3145 26.9467 17.6638 26.584C17.0131 26.2107 16.4958 25.6933 16.1118 25.032C15.7385 24.3707 15.5518 23.592 15.5518 22.696C15.5518 21.7893 15.7385 21.0053 16.1118 20.344C16.4958 19.6827 17.0131 19.1707 17.6638 18.808C18.3145 18.4453 19.0451 18.264 19.8558 18.264C20.5811 18.264 21.2158 18.424 21.7598 18.744C22.3038 19.064 22.7251 19.5493 23.0238 20.2C23.3225 20.8507 23.4718 21.6827 23.4718 22.696C23.4718 23.6987 23.3278 24.5307 23.0398 25.192C22.7518 25.8427 22.3358 26.328 21.7918 26.648C21.2585 26.968 20.6131 27.128 19.8558 27.128ZM20.2878 25.08C20.6931 25.08 21.0611 24.984 21.3918 24.792C21.7225 24.6 21.9838 24.328 22.1758 23.976C22.3785 23.6133 22.4798 23.1867 22.4798 22.696C22.4798 22.1947 22.3785 21.768 22.1758 21.416C21.9838 21.064 21.7225 20.792 21.3918 20.6C21.0611 20.408 20.6931 20.312 20.2878 20.312C19.8718 20.312 19.4985 20.408 19.1678 20.6C18.8371 20.792 18.5705 21.064 18.3678 21.416C18.1758 21.768 18.0798 22.1947 18.0798 22.696C18.0798 23.1867 18.1758 23.6133 18.3678 23.976C18.5705 24.328 18.8371 24.6 19.1678 24.792C19.4985 24.984 19.8718 25.08 20.2878 25.08ZM22.5438 27V25.24L22.5918 22.68L22.4318 20.136V15.128H24.9278V27H22.5438ZM30.9339 27.128C30.1233 27.128 29.3926 26.9467 28.7419 26.584C28.0913 26.2107 27.5739 25.6933 27.1899 25.032C26.8166 24.3707 26.6299 23.592 26.6299 22.696C26.6299 21.7893 26.8166 21.0053 27.1899 20.344C27.5739 19.6827 28.0913 19.1707 28.7419 18.808C29.3926 18.4453 30.1233 18.264 30.9339 18.264C31.6593 18.264 32.2939 18.424 32.8379 18.744C33.3819 19.064 33.8033 19.5493 34.1019 20.2C34.4006 20.8507 34.5499 21.6827 34.5499 22.696C34.5499 23.6987 34.4059 24.5307 34.1179 25.192C33.8299 25.8427 33.4139 26.328 32.8699 26.648C32.3366 26.968 31.6913 27.128 30.9339 27.128ZM31.3659 25.08C31.7713 25.08 32.1393 24.984 32.4699 24.792C32.8006 24.6 33.0619 24.328 33.2539 23.976C33.4566 23.6133 33.5579 23.1867 33.5579 22.696C33.5579 22.1947 33.4566 21.768 33.2539 21.416C33.0619 21.064 32.8006 20.792 32.4699 20.6C32.1393 20.408 31.7713 20.312 31.3659 20.312C30.9499 20.312 30.5766 20.408 30.2459 20.6C29.9153 20.792 29.6486 21.064 29.4459 21.416C29.2539 21.768 29.1579 22.1947 29.1579 22.696C29.1579 23.1867 29.2539 23.6133 29.4459 23.976C29.6486 24.328 29.9153 24.6 30.2459 24.792C30.5766 24.984 30.9499 25.08 31.3659 25.08ZM33.6219 27V25.24L33.6699 22.68L33.5099 20.136V15.128H36.0059V27H33.6219ZM38.3161 27V18.392H40.8121V27H38.3161ZM39.5641 17.192C39.1054 17.192 38.7321 17.0587 38.4441 16.792C38.1561 16.5253 38.0121 16.1947 38.0121 15.8C38.0121 15.4053 38.1561 15.0747 38.4441 14.808C38.7321 14.5413 39.1054 14.408 39.5641 14.408C40.0227 14.408 40.3961 14.536 40.6841 14.792C40.9721 15.0373 41.1161 15.3573 41.1161 15.752C41.1161 16.168 40.9721 16.5147 40.6841 16.792C40.4067 17.0587 40.0334 17.192 39.5641 17.192ZM46.6486 27.128C45.6352 27.128 44.8459 26.872 44.2806 26.36C43.7152 25.8373 43.4326 25.064 43.4326 24.04V16.488H45.9286V24.008C45.9286 24.3707 46.0246 24.6533 46.2166 24.856C46.4086 25.048 46.6699 25.144 47.0006 25.144C47.3952 25.144 47.7312 25.0373 48.0086 24.824L48.6806 26.584C48.4246 26.7653 48.1152 26.904 47.7526 27C47.4006 27.0853 47.0326 27.128 46.6486 27.128ZM42.1046 20.504V18.584H48.0726V20.504H42.1046ZM50.0817 27V18.392H52.5777V27H50.0817ZM51.3297 17.192C50.871 17.192 50.4977 17.0587 50.2097 16.792C49.9217 16.5253 49.7777 16.1947 49.7777 15.8C49.7777 15.4053 49.9217 15.0747 50.2097 14.808C50.4977 14.5413 50.871 14.408 51.3297 14.408C51.7884 14.408 52.1617 14.536 52.4497 14.792C52.7377 15.0373 52.8817 15.3573 52.8817 15.752C52.8817 16.168 52.7377 16.5147 52.4497 16.792C52.1724 17.0587 51.799 17.192 51.3297 17.192ZM57.2302 27L53.6142 18.392H56.1902L59.1982 25.8H57.9182L61.0382 18.392H63.4382L59.8062 27H57.2302ZM68.4943 27.128C67.513 27.128 66.649 26.936 65.9023 26.552C65.1663 26.168 64.5956 25.6453 64.1903 24.984C63.785 24.312 63.5823 23.5493 63.5823 22.696C63.5823 21.832 63.7796 21.0693 64.1743 20.408C64.5796 19.736 65.129 19.2133 65.8223 18.84C66.5156 18.456 67.2996 18.264 68.1743 18.264C69.017 18.264 69.7743 18.4453 70.4463 18.808C71.129 19.16 71.6676 19.672 72.0623 20.344C72.457 21.0053 72.6543 21.8 72.6543 22.728C72.6543 22.824 72.649 22.936 72.6383 23.064C72.6276 23.1813 72.617 23.2933 72.6063 23.4H65.6143V21.944H71.2943L70.3343 22.376C70.3343 21.928 70.2436 21.5387 70.0623 21.208C69.881 20.8773 69.6303 20.6213 69.3103 20.44C68.9903 20.248 68.617 20.152 68.1903 20.152C67.7636 20.152 67.385 20.248 67.0543 20.44C66.7343 20.6213 66.4836 20.8827 66.3023 21.224C66.121 21.5547 66.0303 21.9493 66.0303 22.408V22.792C66.0303 23.2613 66.1316 23.6773 66.3343 24.04C66.5476 24.392 66.841 24.664 67.2143 24.856C67.5983 25.0373 68.0463 25.128 68.5583 25.128C69.017 25.128 69.417 25.0587 69.7583 24.92C70.1103 24.7813 70.4303 24.5733 70.7183 24.296L72.0463 25.736C71.6516 26.184 71.1556 26.5307 70.5583 26.776C69.961 27.0107 69.273 27.128 68.4943 27.128Z" fill="url(#paint2_linear_111_17)"/>
<path d="M2.69194 27L0.865176 26.1858C0.589406 26.8045 0.645557 27.5208 1.01438 28.0889C1.38319 28.6571 2.01455 29 2.69194 29V27ZM7.68394 15.8V13.8C6.89433 13.8 6.17863 14.2646 5.85718 14.9858L7.68394 15.8ZM10.2439 15.8L12.0697 14.9836C11.7478 14.2636 11.0327 13.8 10.2439 13.8V15.8ZM15.2519 27V29C15.9298 29 16.5614 28.6567 16.9301 28.0879C17.2989 27.5192 17.3544 26.8024 17.0777 26.1836L15.2519 27ZM12.5319 27L10.6842 27.7654C10.9938 28.5127 11.723 29 12.5319 29V27ZM8.43594 17.112V15.112C7.76796 15.112 7.14409 15.4455 6.77299 16.0009C6.40189 16.5563 6.33256 17.2603 6.5882 17.8774L8.43594 17.112ZM9.45994 17.112L11.3066 17.88C11.5633 17.2627 11.4946 16.5581 11.1237 16.002C10.7527 15.446 10.1284 15.112 9.45994 15.112V17.112ZM5.34794 27V29C6.15584 29 6.8844 28.5139 7.19462 27.768L5.34794 27ZM5.18794 24.6L3.29998 23.94C3.08613 24.5517 3.18191 25.2291 3.55698 25.7576C3.93205 26.286 4.53991 26.6 5.18794 26.6V24.6ZM5.87594 22.632V20.632C5.02578 20.632 4.26854 21.1695 3.98798 21.972L5.87594 22.632ZM11.6359 22.632L13.5191 21.9584C13.2345 21.1629 12.4808 20.632 11.6359 20.632V22.632ZM12.3399 24.6V26.6C12.9905 26.6 13.6004 26.2836 13.9751 25.7517C14.3497 25.2198 14.4422 24.5389 14.2231 23.9264L12.3399 24.6ZM4.5187 27.8142L9.5107 16.6142L5.85718 14.9858L0.865176 26.1858L4.5187 27.8142ZM7.68394 17.8H10.2439V13.8H7.68394V17.8ZM8.41815 16.6164L13.4261 27.8164L17.0777 26.1836L12.0697 14.9836L8.41815 16.6164ZM15.2519 25H12.5319V29H15.2519V25ZM14.3797 26.2346L10.2837 16.3466L6.5882 17.8774L10.6842 27.7654L14.3797 26.2346ZM8.43594 19.112H9.45994V15.112H8.43594V19.112ZM7.61325 16.344L3.50125 26.232L7.19462 27.768L11.3066 17.88L7.61325 16.344ZM5.34794 25H2.69194V29H5.34794V25ZM7.07589 25.26L7.76389 23.292L3.98798 21.972L3.29998 23.94L7.07589 25.26ZM5.87594 24.632H11.6359V20.632H5.87594V24.632ZM9.7528 23.3056L10.4568 25.2736L14.2231 23.9264L13.5191 21.9584L9.7528 23.3056ZM12.3399 22.6H5.18794V26.6H12.3399V22.6ZM17.6638 26.584L16.6685 28.3187C16.6757 28.3229 16.6829 28.3269 16.6901 28.331L17.6638 26.584ZM16.1118 25.032L14.3702 26.0152C14.3741 26.0222 14.3782 26.0293 14.3822 26.0363L16.1118 25.032ZM16.1118 20.344L14.3822 19.3397C14.3782 19.3467 14.3741 19.3538 14.3702 19.3608L16.1118 20.344ZM17.6638 18.808L16.6901 17.061L16.6901 17.061L17.6638 18.808ZM21.7598 18.744L22.7739 17.0201L22.7739 17.0201L21.7598 18.744ZM23.0238 20.2L24.8415 19.3657L24.8415 19.3657L23.0238 20.2ZM23.0398 25.192L24.8687 26.0015L24.8735 25.9905L23.0398 25.192ZM21.7918 26.648L20.7778 24.9241C20.7728 24.9271 20.7678 24.93 20.7628 24.933L21.7918 26.648ZM21.3918 24.792L20.3875 23.0624L20.3875 23.0624L21.3918 24.792ZM22.1758 23.976L20.4299 23.0004C20.4266 23.0063 20.4233 23.0123 20.42 23.0183L22.1758 23.976ZM22.1758 21.416L20.42 22.3737C20.4274 22.3872 20.4349 22.4006 20.4426 22.4139L22.1758 21.416ZM21.3918 20.6L20.3875 22.3296L20.3875 22.3296L21.3918 20.6ZM19.1678 20.6L20.1721 22.3296L20.1721 22.3296L19.1678 20.6ZM18.3678 21.416L16.6346 20.4181C16.6269 20.4314 16.6194 20.4448 16.612 20.4583L18.3678 21.416ZM18.3678 23.976L16.6002 24.9118C16.6113 24.9327 16.6228 24.9534 16.6346 24.9739L18.3678 23.976ZM19.1678 24.792L20.1721 23.0624L20.1721 23.0624L19.1678 24.792ZM22.5438 27H20.5438C20.5438 28.1046 21.4392 29 22.5438 29V27ZM22.5438 25.24L20.5442 25.2025C20.5439 25.215 20.5438 25.2275 20.5438 25.24L22.5438 25.24ZM22.5918 22.68L24.5915 22.7175C24.5925 22.6631 24.5913 22.6087 24.5879 22.5545L22.5918 22.68ZM22.4318 20.136H20.4318C20.4318 20.1779 20.4331 20.2197 20.4358 20.2615L22.4318 20.136ZM22.4318 15.128V13.128C21.3272 13.128 20.4318 14.0234 20.4318 15.128H22.4318ZM24.9278 15.128H26.9278C26.9278 14.0234 26.0324 13.128 24.9278 13.128V15.128ZM24.9278 27V29C26.0324 29 26.9278 28.1046 26.9278 27H24.9278ZM19.8558 25.128C19.3551 25.128 18.9646 25.0193 18.6375 24.837L16.6901 28.331C17.6643 28.874 18.7352 29.128 19.8558 29.128V25.128ZM18.6592 24.8493C18.3193 24.6543 18.0526 24.3915 17.8414 24.0277L14.3822 26.0363C14.939 26.9952 15.707 27.7671 16.6685 28.3187L18.6592 24.8493ZM17.8535 24.0488C17.6777 23.7374 17.5518 23.3097 17.5518 22.696H13.5518C13.5518 23.8743 13.7993 25.004 14.3702 26.0152L17.8535 24.0488ZM17.5518 22.696C17.5518 22.067 17.6796 21.6352 17.8535 21.3272L14.3702 19.3608C13.7974 20.3754 13.5518 21.5117 13.5518 22.696H17.5518ZM17.8414 21.3483C18.0498 20.9893 18.3097 20.7377 18.6375 20.555L16.6901 17.061C15.7166 17.6036 14.9418 18.3761 14.3822 19.3397L17.8414 21.3483ZM18.6375 20.555C18.9646 20.3727 19.3551 20.264 19.8558 20.264V16.264C18.7352 16.264 17.6643 16.518 16.6901 17.061L18.6375 20.555ZM19.8558 20.264C20.2786 20.264 20.5526 20.3542 20.7458 20.4679L22.7739 17.0201C21.879 16.4938 20.8837 16.264 19.8558 16.264V20.264ZM20.7458 20.4679C20.8911 20.5534 21.0543 20.7036 21.2062 21.0343L24.8415 19.3657C24.396 18.3951 23.7165 17.5746 22.7739 17.0201L20.7458 20.4679ZM21.2062 21.0343C21.3456 21.3381 21.4718 21.8593 21.4718 22.696H25.4718C25.4718 21.506 25.2994 20.3632 24.8415 19.3657L21.2062 21.0343ZM21.4718 22.696C21.4718 23.524 21.3505 24.062 21.2061 24.3935L24.8735 25.9905C25.3051 24.9994 25.4718 23.8734 25.4718 22.696H21.4718ZM21.211 24.3825C21.0698 24.7015 20.9161 24.8428 20.7778 24.9241L22.8059 28.3719C23.7555 27.8132 24.4339 26.9838 24.8687 26.0015L21.211 24.3825ZM20.7628 24.933C20.6016 25.0297 20.3295 25.128 19.8558 25.128V29.128C20.8968 29.128 21.9153 28.9063 22.8208 28.363L20.7628 24.933ZM20.2878 27.08C21.0239 27.08 21.7419 26.9014 22.3961 26.5216L20.3875 23.0624C20.3804 23.0666 20.3624 23.08 20.2878 23.08V27.08ZM22.3961 26.5216C23.0588 26.1367 23.5733 25.5906 23.9316 24.9337L20.42 23.0183C20.4037 23.0482 20.3937 23.0582 20.3936 23.0583C20.3934 23.0585 20.3933 23.0587 20.3932 23.0587C20.3931 23.0588 20.3931 23.0588 20.3931 23.0588C20.3931 23.0588 20.3931 23.0588 20.3931 23.0588C20.3931 23.0588 20.3931 23.0588 20.393 23.0589C20.393 23.059 20.3926 23.0593 20.3918 23.0598C20.391 23.0603 20.3896 23.0612 20.3875 23.0624L22.3961 26.5216ZM23.9217 24.9516C24.3188 24.241 24.4798 23.4662 24.4798 22.696H20.4798C20.4798 22.9071 20.4381 22.9857 20.4299 23.0004L23.9217 24.9516ZM24.4798 22.696C24.4798 21.9258 24.3231 21.1371 23.9091 20.4181L20.4426 22.4139C20.4339 22.3989 20.4798 22.4635 20.4798 22.696H24.4798ZM23.9316 20.4583C23.5733 19.8014 23.0588 19.2553 22.3961 18.8704L20.3875 22.3296C20.3896 22.3308 20.391 22.3317 20.3918 22.3322C20.3926 22.3327 20.393 22.333 20.393 22.3331C20.3931 22.3332 20.3931 22.3332 20.3931 22.3332C20.3931 22.3332 20.3931 22.3332 20.3931 22.3332C20.3931 22.3332 20.3931 22.3332 20.3932 22.3333C20.3933 22.3333 20.3934 22.3335 20.3936 22.3337C20.3937 22.3338 20.4037 22.3438 20.42 22.3737L23.9316 20.4583ZM22.3961 18.8704C21.7419 18.4906 21.0239 18.312 20.2878 18.312V22.312C20.3624 22.312 20.3804 22.3254 20.3875 22.3296L22.3961 18.8704ZM20.2878 18.312C19.5511 18.312 18.8258 18.4859 18.1635 18.8704L20.1721 22.3296C20.1777 22.3263 20.1832 22.3237 20.1939 22.321C20.2055 22.318 20.2346 22.312 20.2878 22.312V18.312ZM18.1635 18.8704C17.511 19.2493 17.0007 19.7822 16.6346 20.4181L20.1011 22.4139C20.1403 22.3458 20.1632 22.3347 20.1721 22.3296L18.1635 18.8704ZM16.612 20.4583C16.2245 21.1688 16.0798 21.9424 16.0798 22.696H20.0798C20.0798 22.572 20.0918 22.4891 20.103 22.439C20.1086 22.4143 20.114 22.3977 20.1176 22.3878C20.1212 22.378 20.1235 22.3738 20.1236 22.3737L16.612 20.4583ZM16.0798 22.696C16.0798 23.4494 16.2284 24.2095 16.6002 24.9118L20.1354 23.0402C20.1232 23.0172 20.0798 22.924 20.0798 22.696H16.0798ZM16.6346 24.9739C17.0007 25.6098 17.511 26.1427 18.1635 26.5216L20.1721 23.0624C20.1632 23.0573 20.1403 23.0462 20.1011 22.9781L16.6346 24.9739ZM18.1635 26.5216C18.8258 26.9061 19.5511 27.08 20.2878 27.08V23.08C20.2346 23.08 20.2055 23.074 20.1939 23.071C20.1832 23.0683 20.1777 23.0657 20.1721 23.0624L18.1635 26.5216ZM24.5438 27V25.24H20.5438V27H24.5438ZM24.5435 25.2775L24.5915 22.7175L20.5922 22.6425L20.5442 25.2025L24.5435 25.2775ZM24.5879 22.5545L24.4279 20.0105L20.4358 20.2615L20.5958 22.8055L24.5879 22.5545ZM24.4318 20.136V15.128H20.4318V20.136H24.4318ZM22.4318 17.128H24.9278V13.128H22.4318V17.128ZM22.9278 15.128V27H26.9278V15.128H22.9278ZM24.9278 25H22.5438V29H24.9278V25ZM28.7419 26.584L27.7466 28.3187C27.7538 28.3229 27.761 28.3269 27.7682 28.331L28.7419 26.584ZM27.1899 25.032L25.4483 26.0152C25.4523 26.0222 25.4563 26.0293 25.4604 26.0363L27.1899 25.032ZM27.1899 20.344L25.4604 19.3397C25.4563 19.3467 25.4523 19.3538 25.4483 19.3608L27.1899 20.344ZM28.7419 18.808L27.7682 17.061L27.7682 17.061L28.7419 18.808ZM32.8379 18.744L33.852 17.0201L33.852 17.0201L32.8379 18.744ZM34.1019 20.2L35.9196 19.3657L35.9196 19.3657L34.1019 20.2ZM34.1179 25.192L35.9468 26.0015L35.9516 25.9905L34.1179 25.192ZM32.8699 26.648L31.8559 24.9241C31.8509 24.9271 31.8459 24.93 31.8409 24.933L32.8699 26.648ZM32.4699 24.792L31.4657 23.0624L31.4657 23.0624L32.4699 24.792ZM33.2539 23.976L31.5081 23.0004C31.5047 23.0063 31.5014 23.0123 31.4981 23.0183L33.2539 23.976ZM33.2539 21.416L31.4981 22.3737C31.5055 22.3872 31.513 22.4006 31.5207 22.4139L33.2539 21.416ZM32.4699 20.6L31.4657 22.3296L31.4657 22.3296L32.4699 20.6ZM30.2459 20.6L31.2502 22.3296L31.2502 22.3296L30.2459 20.6ZM29.4459 21.416L27.7127 20.4181C27.705 20.4314 27.6975 20.4448 27.6901 20.4583L29.4459 21.416ZM29.4459 23.976L27.6784 24.9118C27.6894 24.9327 27.7009 24.9534 27.7127 24.9739L29.4459 23.976ZM30.2459 24.792L31.2502 23.0624L31.2502 23.0624L30.2459 24.792ZM33.6219 27H31.6219C31.6219 28.1046 32.5174 29 33.6219 29V27ZM33.6219 25.24L31.6223 25.2025C31.6221 25.215 31.6219 25.2275 31.6219 25.24L33.6219 25.24ZM33.6699 22.68L35.6696 22.7175C35.6706 22.6631 35.6694 22.6087 35.666 22.5545L33.6699 22.68ZM33.5099 20.136H31.5099C31.5099 20.1779 31.5113 20.2197 31.5139 20.2615L33.5099 20.136ZM33.5099 15.128V13.128C32.4054 13.128 31.5099 14.0234 31.5099 15.128H33.5099ZM36.0059 15.128H38.0059C38.0059 14.0234 37.1105 13.128 36.0059 13.128V15.128ZM36.0059 27V29C37.1105 29 38.0059 28.1046 38.0059 27H36.0059ZM30.9339 25.128C30.4332 25.128 30.0427 25.0193 29.7157 24.837L27.7682 28.331C28.7425 28.874 29.8133 29.128 30.9339 29.128V25.128ZM29.7373 24.8493C29.3974 24.6543 29.1307 24.3915 28.9195 24.0277L25.4604 26.0363C26.0171 26.9952 26.7851 27.7671 27.7466 28.3187L29.7373 24.8493ZM28.9316 24.0488C28.7558 23.7374 28.6299 23.3097 28.6299 22.696H24.6299C24.6299 23.8743 24.8774 25.004 25.4483 26.0152L28.9316 24.0488ZM28.6299 22.696C28.6299 22.067 28.7577 21.6352 28.9316 21.3272L25.4483 19.3608C24.8755 20.3754 24.6299 21.5117 24.6299 22.696H28.6299ZM28.9195 21.3483C29.128 20.9893 29.3878 20.7377 29.7157 20.555L27.7682 17.061C26.7947 17.6036 26.0199 18.3761 25.4604 19.3397L28.9195 21.3483ZM29.7157 20.555C30.0427 20.3727 30.4332 20.264 30.9339 20.264V16.264C29.8133 16.264 28.7425 16.518 27.7682 17.061L29.7157 20.555ZM30.9339 20.264C31.3568 20.264 31.6307 20.3542 31.8239 20.4679L33.852 17.0201C32.9572 16.4938 31.9618 16.264 30.9339 16.264V20.264ZM31.8239 20.4679C31.9692 20.5534 32.1325 20.7036 32.2843 21.0343L35.9196 19.3657C35.4741 18.3951 34.7946 17.5746 33.852 17.0201L31.8239 20.4679ZM32.2843 21.0343C32.4237 21.3381 32.5499 21.8593 32.5499 22.696H36.5499C36.5499 21.506 36.3775 20.3632 35.9196 19.3657L32.2843 21.0343ZM32.5499 22.696C32.5499 23.524 32.4286 24.062 32.2843 24.3935L35.9516 25.9905C36.3833 24.9994 36.5499 23.8734 36.5499 22.696H32.5499ZM32.2891 24.3825C32.1479 24.7015 31.9942 24.8428 31.8559 24.9241L33.884 28.3719C34.8336 27.8132 35.512 26.9838 35.9468 26.0015L32.2891 24.3825ZM31.8409 24.933C31.6798 25.0297 31.4077 25.128 30.9339 25.128V29.128C31.9749 29.128 32.9935 28.9063 33.8989 28.363L31.8409 24.933ZM31.3659 27.08C32.102 27.08 32.82 26.9014 33.4742 26.5216L31.4657 23.0624C31.4585 23.0666 31.4405 23.08 31.3659 23.08V27.08ZM33.4742 26.5216C34.137 26.1367 34.6514 25.5906 35.0097 24.9337L31.4981 23.0183C31.4819 23.0482 31.4718 23.0582 31.4717 23.0583C31.4715 23.0585 31.4714 23.0587 31.4713 23.0587C31.4713 23.0588 31.4712 23.0588 31.4712 23.0588C31.4712 23.0588 31.4712 23.0588 31.4712 23.0588C31.4713 23.0588 31.4712 23.0588 31.4712 23.0589C31.4711 23.059 31.4707 23.0593 31.4699 23.0598C31.4691 23.0603 31.4678 23.0612 31.4657 23.0624L33.4742 26.5216ZM34.9998 24.9516C35.397 24.241 35.5579 23.4662 35.5579 22.696H31.5579C31.5579 22.9071 31.5162 22.9857 31.5081 23.0004L34.9998 24.9516ZM35.5579 22.696C35.5579 21.9258 35.4012 21.1371 34.9872 20.4181L31.5207 22.4139C31.512 22.3989 31.5579 22.4635 31.5579 22.696H35.5579ZM35.0097 20.4583C34.6514 19.8014 34.137 19.2553 33.4742 18.8704L31.4657 22.3296C31.4678 22.3308 31.4691 22.3317 31.4699 22.3322C31.4707 22.3327 31.4711 22.333 31.4712 22.3331C31.4712 22.3332 31.4713 22.3332 31.4712 22.3332C31.4712 22.3332 31.4712 22.3332 31.4712 22.3332C31.4712 22.3332 31.4713 22.3332 31.4713 22.3333C31.4714 22.3333 31.4715 22.3335 31.4717 22.3337C31.4718 22.3338 31.4819 22.3438 31.4981 22.3737L35.0097 20.4583ZM33.4742 18.8704C32.82 18.4906 32.102 18.312 31.3659 18.312V22.312C31.4405 22.312 31.4585 22.3254 31.4657 22.3296L33.4742 18.8704ZM31.3659 18.312C30.6292 18.312 29.9039 18.4859 29.2417 18.8704L31.2502 22.3296C31.2558 22.3263 31.2613 22.3237 31.272 22.321C31.2837 22.318 31.3128 22.312 31.3659 22.312V18.312ZM29.2417 18.8704C28.5892 19.2493 28.0788 19.7822 27.7127 20.4181L31.1792 22.4139C31.2184 22.3458 31.2414 22.3347 31.2502 22.3296L29.2417 18.8704ZM27.6901 20.4583C27.3026 21.1688 27.1579 21.9424 27.1579 22.696H31.1579C31.1579 22.572 31.1699 22.4891 31.1812 22.439C31.1867 22.4143 31.1921 22.3977 31.1957 22.3878C31.1994 22.378 31.2017 22.3738 31.2017 22.3737L27.6901 20.4583ZM27.1579 22.696C27.1579 23.4494 27.3065 24.2095 27.6784 24.9118L31.2135 23.0402C31.2013 23.0172 31.1579 22.924 31.1579 22.696H27.1579ZM27.7127 24.9739C28.0788 25.6098 28.5892 26.1427 29.2417 26.5216L31.2502 23.0624C31.2414 23.0573 31.2184 23.0462 31.1792 22.9781L27.7127 24.9739ZM29.2417 26.5216C29.9039 26.9061 30.6292 27.08 31.3659 27.08V23.08C31.3128 23.08 31.2837 23.074 31.272 23.071C31.2613 23.0683 31.2558 23.0657 31.2502 23.0624L29.2417 26.5216ZM35.6219 27V25.24H31.6219V27H35.6219ZM35.6216 25.2775L35.6696 22.7175L31.6703 22.6425L31.6223 25.2025L35.6216 25.2775ZM35.666 22.5545L35.506 20.0105L31.5139 20.2615L31.6739 22.8055L35.666 22.5545ZM35.5099 20.136V15.128H31.5099V20.136H35.5099ZM33.5099 17.128H36.0059V13.128H33.5099V17.128ZM34.0059 15.128V27H38.0059V15.128H34.0059ZM36.0059 25H33.6219V29H36.0059V25ZM38.3161 27H36.3161C36.3161 28.1046 37.2115 29 38.3161 29V27ZM38.3161 18.392V16.392C37.2115 16.392 36.3161 17.2874 36.3161 18.392H38.3161ZM40.8121 18.392H42.8121C42.8121 17.2874 41.9166 16.392 40.8121 16.392V18.392ZM40.8121 27V29C41.9166 29 42.8121 28.1046 42.8121 27H40.8121ZM38.4441 16.792L37.0852 18.2595L37.0852 18.2595L38.4441 16.792ZM38.4441 14.808L39.8029 16.2755L39.8029 16.2755L38.4441 14.808ZM40.6841 14.792L39.3553 16.2868C39.3658 16.2962 39.3764 16.3054 39.3871 16.3145L40.6841 14.792ZM40.6841 16.792L42.0703 18.2337L42.0713 18.2326L40.6841 16.792ZM40.3161 27V18.392H36.3161V27H40.3161ZM38.3161 20.392H40.8121V16.392H38.3161V20.392ZM38.8121 18.392V27H42.8121V18.392H38.8121ZM40.8121 25H38.3161V29H40.8121V25ZM39.5641 15.192C39.5286 15.192 39.5526 15.187 39.6127 15.2085C39.6779 15.2318 39.7466 15.2723 39.8029 15.3245L37.0852 18.2595C37.8045 18.9254 38.6922 19.192 39.5641 19.192V15.192ZM39.8029 15.3245C39.8436 15.3622 39.9059 15.4357 39.9537 15.5455C40.0014 15.6549 40.0121 15.7487 40.0121 15.8H36.0121C36.0121 16.7483 36.3859 17.612 37.0852 18.2595L39.8029 15.3245ZM40.0121 15.8C40.0121 15.8513 40.0014 15.945 39.9537 16.0545C39.9059 16.1643 39.8436 16.2378 39.8029 16.2755L37.0852 13.3405C36.3859 13.988 36.0121 14.8517 36.0121 15.8H40.0121ZM39.8029 16.2755C39.7466 16.3276 39.6779 16.3682 39.6127 16.3915C39.5526 16.413 39.5286 16.408 39.5641 16.408V12.408C38.6922 12.408 37.8044 12.6745 37.0852 13.3405L39.8029 16.2755ZM39.5641 16.408C39.6078 16.408 39.5923 16.414 39.5394 16.3959C39.4815 16.376 39.4143 16.3393 39.3553 16.2868L42.0128 13.2972C41.2913 12.6559 40.4143 12.408 39.5641 12.408V16.408ZM39.3871 16.3145C39.3236 16.2604 39.243 16.1674 39.1842 16.0367C39.1264 15.9083 39.1161 15.8023 39.1161 15.752H43.1161C43.1161 14.8003 42.7367 13.9132 41.981 13.2695L39.3871 16.3145ZM39.1161 15.752C39.1161 15.7252 39.1217 15.6517 39.1611 15.5568C39.2012 15.4602 39.256 15.3906 39.2968 15.3514L42.0713 18.2326C42.7683 17.5615 43.1161 16.6868 43.1161 15.752H39.1161ZM39.2978 15.3503C39.3694 15.2816 39.4519 15.234 39.5234 15.2085C39.5882 15.1854 39.6106 15.192 39.5641 15.192V19.192C40.43 19.192 41.3419 18.9341 42.0703 18.2337L39.2978 15.3503ZM44.2806 26.36L42.9229 27.8285C42.9279 27.8332 42.9329 27.8378 42.938 27.8424L44.2806 26.36ZM43.4326 16.488V14.488C42.328 14.488 41.4326 15.3834 41.4326 16.488H43.4326ZM45.9286 16.488H47.9286C47.9286 15.3834 47.0331 14.488 45.9286 14.488V16.488ZM46.2166 24.856L44.7647 26.2315C44.777 26.2446 44.7896 26.2575 44.8023 26.2702L46.2166 24.856ZM48.0086 24.824L49.877 24.1106C49.6516 23.5201 49.1603 23.071 48.552 22.8992C47.9438 22.7275 47.2901 22.8534 46.7891 23.2388L48.0086 24.824ZM48.6806 26.584L49.8366 28.216C50.5815 27.6884 50.8746 26.7234 50.549 25.8706L48.6806 26.584ZM47.7526 27L48.2238 28.9437C48.2373 28.9404 48.2509 28.937 48.2643 28.9334L47.7526 27ZM42.1046 20.504H40.1046C40.1046 21.6086 41 22.504 42.1046 22.504V20.504ZM42.1046 18.584V16.584C41 16.584 40.1046 17.4794 40.1046 18.584H42.1046ZM48.0726 18.584H50.0726C50.0726 17.4794 49.1771 16.584 48.0726 16.584V18.584ZM48.0726 20.504V22.504C49.1771 22.504 50.0726 21.6086 50.0726 20.504H48.0726ZM46.6486 25.128C45.9653 25.128 45.7137 24.9596 45.6231 24.8776L42.938 27.8424C43.9781 28.7844 45.3052 29.128 46.6486 29.128V25.128ZM45.6383 24.8915C45.6052 24.8609 45.4326 24.699 45.4326 24.04H41.4326C41.4326 25.429 41.8253 26.8138 42.9229 27.8285L45.6383 24.8915ZM45.4326 24.04V16.488H41.4326V24.04H45.4326ZM43.4326 18.488H45.9286V14.488H43.4326V18.488ZM43.9286 16.488V24.008H47.9286V16.488H43.9286ZM43.9286 24.008C43.9286 24.7241 44.1252 25.5565 44.7647 26.2315L47.6685 23.4805C47.7844 23.6029 47.8561 23.7363 47.8943 23.8488C47.9299 23.9537 47.9286 24.016 47.9286 24.008H43.9286ZM44.8023 26.2702C45.4483 26.9162 46.2625 27.144 47.0006 27.144V23.144C47.0274 23.144 47.1189 23.1479 47.2462 23.1947C47.3807 23.2441 47.5164 23.3274 47.6308 23.4418L44.8023 26.2702ZM47.0006 27.144C47.777 27.144 48.5568 26.9256 49.228 26.4092L46.7891 23.2388C46.8364 23.2024 46.8912 23.1743 46.9434 23.1578C46.993 23.142 47.0168 23.144 47.0006 23.144V27.144ZM46.1401 25.5374L46.8121 27.2974L50.549 25.8706L49.877 24.1106L46.1401 25.5374ZM47.5245 24.952C47.4976 24.971 47.4165 25.0201 47.2408 25.0666L48.2643 28.9334C48.814 28.7879 49.3515 28.5596 49.8366 28.216L47.5245 24.952ZM47.2814 25.0563C47.0926 25.1021 46.8833 25.128 46.6486 25.128V29.128C47.1818 29.128 47.7085 29.0686 48.2238 28.9437L47.2814 25.0563ZM44.1046 20.504V18.584H40.1046V20.504H44.1046ZM42.1046 20.584H48.0726V16.584H42.1046V20.584ZM46.0726 18.584V20.504H50.0726V18.584H46.0726ZM48.0726 18.504H42.1046V22.504H48.0726V18.504ZM50.0817 27H48.0817C48.0817 28.1046 48.9771 29 50.0817 29V27ZM50.0817 18.392V16.392C48.9771 16.392 48.0817 17.2874 48.0817 18.392H50.0817ZM52.5777 18.392H54.5777C54.5777 17.2874 53.6823 16.392 52.5777 16.392V18.392ZM52.5777 27V29C53.6823 29 54.5777 28.1046 54.5777 27H52.5777ZM50.2097 16.792L48.8509 18.2595L48.8509 18.2595L50.2097 16.792ZM50.2097 14.808L51.5685 16.2755L51.5685 16.2755L50.2097 14.808ZM52.4497 14.792L51.121 16.2868C51.1315 16.2962 51.1421 16.3054 51.1528 16.3145L52.4497 14.792ZM52.4497 16.792L53.8359 18.2337L53.837 18.2326L52.4497 16.792ZM52.0817 27V18.392H48.0817V27H52.0817ZM50.0817 20.392H52.5777V16.392H50.0817V20.392ZM50.5777 18.392V27H54.5777V18.392H50.5777ZM52.5777 25H50.0817V29H52.5777V25ZM51.3297 15.192C51.2942 15.192 51.3182 15.187 51.3784 15.2085C51.4435 15.2318 51.5122 15.2723 51.5685 15.3245L48.8509 18.2595C49.5701 18.9254 50.4578 19.192 51.3297 19.192V15.192ZM51.5685 15.3245C51.6092 15.3622 51.6716 15.4357 51.7194 15.5455C51.767 15.6549 51.7777 15.7487 51.7777 15.8H47.7777C47.7777 16.7483 48.1515 17.612 48.8509 18.2595L51.5685 15.3245ZM51.7777 15.8C51.7777 15.8513 51.767 15.945 51.7194 16.0545C51.6716 16.1643 51.6092 16.2378 51.5685 16.2755L48.8509 13.3405C48.1515 13.988 47.7777 14.8517 47.7777 15.8H51.7777ZM51.5685 16.2755C51.5122 16.3276 51.4435 16.3682 51.3784 16.3915C51.3182 16.413 51.2942 16.408 51.3297 16.408V12.408C50.4578 12.408 49.5701 12.6745 48.8509 13.3405L51.5685 16.2755ZM51.3297 16.408C51.3734 16.408 51.3579 16.414 51.305 16.3959C51.2472 16.376 51.18 16.3393 51.121 16.2868L53.7784 13.2972C53.057 12.6559 52.1799 12.408 51.3297 12.408V16.408ZM51.1528 16.3145C51.0893 16.2604 51.0087 16.1674 50.9498 16.0367C50.892 15.9083 50.8817 15.8023 50.8817 15.752H54.8817C54.8817 14.8003 54.5023 13.9132 53.7466 13.2695L51.1528 16.3145ZM50.8817 15.752C50.8817 15.7252 50.8873 15.6517 50.9267 15.5568C50.9668 15.4602 51.0216 15.3906 51.0624 15.3514L53.837 18.2326C54.5339 17.5615 54.8817 16.6868 54.8817 15.752H50.8817ZM51.0635 15.3503C51.135 15.2816 51.2176 15.234 51.289 15.2085C51.3538 15.1854 51.3762 15.192 51.3297 15.192V19.192C52.1956 19.192 53.1075 18.9341 53.8359 18.2337L51.0635 15.3503ZM57.2302 27L55.3863 27.7746C55.6982 28.517 56.4249 29 57.2302 29V27ZM53.6142 18.392V16.392C52.9445 16.392 52.3192 16.7272 51.9485 17.285C51.5778 17.8428 51.5109 18.5491 51.7703 19.1666L53.6142 18.392ZM56.1902 18.392L58.0433 17.6396C57.737 16.8854 57.0042 16.392 56.1902 16.392V18.392ZM59.1982 25.8V27.8C59.8637 27.8 60.4856 27.469 60.8572 26.9169C61.2289 26.3649 61.3016 25.6642 61.0513 25.0476L59.1982 25.8ZM57.9182 25.8L56.075 25.0237C55.8149 25.6412 55.8814 26.348 56.252 26.9062C56.6226 27.4644 57.2481 27.8 57.9182 27.8V25.8ZM61.0382 18.392V16.392C60.2336 16.392 59.5073 16.8742 59.195 17.6157L61.0382 18.392ZM63.4382 18.392L65.2809 19.1695C65.5415 18.5519 65.4753 17.8449 65.1048 17.2863C64.7342 16.7278 64.1085 16.392 63.4382 16.392V18.392ZM59.8062 27V29C60.6103 29 61.3363 28.5184 61.6489 27.7775L59.8062 27ZM59.0741 26.2254L55.4581 17.6174L51.7703 19.1666L55.3863 27.7746L59.0741 26.2254ZM53.6142 20.392H56.1902V16.392H53.6142V20.392ZM54.3371 19.1444L57.3451 26.5524L61.0513 25.0476L58.0433 17.6396L54.3371 19.1444ZM59.1982 23.8H57.9182V27.8H59.1982V23.8ZM59.7614 26.5763L62.8814 19.1683L59.195 17.6157L56.075 25.0237L59.7614 26.5763ZM61.0382 20.392H63.4382V16.392H61.0382V20.392ZM61.5955 17.6145L57.9635 26.2225L61.6489 27.7775L65.2809 19.1695L61.5955 17.6145ZM59.8062 25H57.2302V29H59.8062V25ZM65.9023 26.552L64.9772 28.3252L64.9876 28.3306L65.9023 26.552ZM64.1903 24.984L62.4777 26.017C62.4802 26.021 62.4826 26.0251 62.4851 26.0291L64.1903 24.984ZM64.1743 20.408L62.4617 19.375L62.4569 19.3831L64.1743 20.408ZM65.8223 18.84L66.7705 20.6009C66.7775 20.5972 66.7844 20.5934 66.7913 20.5896L65.8223 18.84ZM70.4463 18.808L69.4964 20.568C69.5075 20.574 69.5186 20.5799 69.5297 20.5856L70.4463 18.808ZM72.0623 20.344L70.3377 21.3569L70.3449 21.3689L72.0623 20.344ZM72.6383 23.064L74.6301 23.2451C74.6306 23.2401 74.631 23.2351 74.6314 23.2301L72.6383 23.064ZM72.6063 23.4V25.4C73.6338 25.4 74.4941 24.6214 74.5964 23.599L72.6063 23.4ZM65.6143 23.4H63.6143C63.6143 24.5046 64.5097 25.4 65.6143 25.4V23.4ZM65.6143 21.944V19.944C64.5097 19.944 63.6143 20.8394 63.6143 21.944H65.6143ZM71.2943 21.944L72.115 23.7678C72.9748 23.3809 73.4476 22.4461 73.2498 21.5243C73.0519 20.6025 72.2371 19.944 71.2943 19.944V21.944ZM70.3343 22.376H68.3343C68.3343 23.0547 68.6785 23.687 69.2484 24.0555C69.8183 24.424 70.5362 24.4783 71.155 24.1998L70.3343 22.376ZM70.0623 21.208L68.3087 22.1697L68.3087 22.1697L70.0623 21.208ZM69.3103 20.44L68.2813 22.155C68.2955 22.1635 68.3099 22.1719 68.3243 22.18L69.3103 20.44ZM67.0543 20.44L68.0403 22.18C68.0464 22.1766 68.0525 22.1731 68.0586 22.1696L67.0543 20.44ZM66.3023 21.224L68.0559 22.1857C68.0602 22.1779 68.0644 22.1701 68.0685 22.1623L66.3023 21.224ZM66.3343 24.04L64.5884 25.0156C64.5999 25.0362 64.6117 25.0565 64.6239 25.0766L66.3343 24.04ZM67.2143 24.856L66.2996 26.6346C66.3197 26.6449 66.3399 26.6549 66.3603 26.6645L67.2143 24.856ZM69.7583 24.92L69.0253 23.0592C69.0187 23.0618 69.0121 23.0644 69.0056 23.0671L69.7583 24.92ZM70.7183 24.296L72.1885 22.9401C71.8239 22.5447 71.3153 22.3128 70.7776 22.2969C70.2399 22.2809 69.7185 22.4822 69.331 22.8554L70.7183 24.296ZM72.0463 25.736L73.547 27.0581C74.2242 26.2893 74.2111 25.1332 73.5165 24.3801L72.0463 25.736ZM70.5583 26.776L71.2896 28.6375C71.2992 28.6338 71.3087 28.6299 71.3182 28.626L70.5583 26.776ZM68.4943 25.128C67.7775 25.128 67.2366 24.9892 66.817 24.7734L64.9876 28.3306C66.0614 28.8828 67.2485 29.128 68.4943 29.128V25.128ZM66.8274 24.7788C66.3892 24.5502 66.0982 24.2696 65.8955 23.9389L62.4851 26.0291C63.0931 27.0211 63.9435 27.7858 64.9772 28.3252L66.8274 24.7788ZM65.9029 23.951C65.7019 23.6178 65.5823 23.2182 65.5823 22.696H61.5823C61.5823 23.8805 61.8681 25.0062 62.4777 26.017L65.9029 23.951ZM65.5823 22.696C65.5823 22.1478 65.7038 21.7478 65.8917 21.4329L62.4569 19.3831C61.8555 20.3908 61.5823 21.5162 61.5823 22.696H65.5823ZM65.8869 21.441C66.1066 21.0768 66.3914 20.8051 66.7705 20.6009L64.8741 17.0791C63.8665 17.6216 63.0527 18.3952 62.4617 19.375L65.8869 21.441ZM66.7913 20.5896C67.1582 20.3864 67.6027 20.264 68.1743 20.264V16.264C66.9966 16.264 65.8731 16.5256 64.8533 17.0904L66.7913 20.5896ZM68.1743 20.264C68.7204 20.264 69.1456 20.3787 69.4964 20.568L71.3962 17.048C70.403 16.512 69.3136 16.264 68.1743 16.264V20.264ZM69.5297 20.5856C69.871 20.7616 70.1317 21.006 70.3377 21.3568L73.7869 19.3312C73.2036 18.338 72.387 17.5584 71.3629 17.0304L69.5297 20.5856ZM70.3449 21.3689C70.52 21.6623 70.6543 22.0867 70.6543 22.728H74.6543C74.6543 21.5133 74.394 20.3483 73.7797 19.3191L70.3449 21.3689ZM70.6543 22.728C70.6543 22.7537 70.6527 22.808 70.6452 22.8979L74.6314 23.2301C74.6452 23.064 74.6543 22.8943 74.6543 22.728H70.6543ZM70.6465 22.8829C70.6364 22.9949 70.6263 23.1009 70.6162 23.201L74.5964 23.599C74.6077 23.4858 74.6189 23.3678 74.6301 23.2451L70.6465 22.8829ZM72.6063 21.4H65.6143V25.4H72.6063V21.4ZM67.6143 23.4V21.944H63.6143V23.4H67.6143ZM65.6143 23.944H71.2943V19.944H65.6143V23.944ZM70.4736 20.1202L69.5136 20.5522L71.155 24.1998L72.115 23.7678L70.4736 20.1202ZM72.3343 22.376C72.3343 21.655 72.1868 20.9226 71.8159 20.2463L68.3087 22.1697C68.3067 22.166 68.3119 22.1737 68.3184 22.2016C68.3253 22.231 68.3343 22.2866 68.3343 22.376H72.3343ZM71.8159 20.2463C71.4608 19.5986 70.948 19.0693 70.2963 18.7L68.3243 22.18C68.3259 22.1809 68.3243 22.1802 68.3208 22.1775C68.3172 22.1747 68.3131 22.1712 68.3093 22.1672C68.3055 22.1634 68.3033 22.1606 68.3028 22.1599C68.3024 22.1593 68.3045 22.1621 68.3087 22.1697L71.8159 20.2463ZM70.3393 18.725C69.666 18.321 68.9265 18.152 68.1903 18.152V22.152C68.2533 22.152 68.2846 22.159 68.2922 22.161C68.2984 22.1626 68.2921 22.1614 68.2813 22.155L70.3393 18.725ZM68.1903 18.152C67.4527 18.152 66.72 18.3214 66.05 18.7104L68.0586 22.1696C68.06 22.1687 68.0643 22.1661 68.0778 22.1627C68.0925 22.1589 68.1276 22.152 68.1903 22.152V18.152ZM66.0683 18.7C65.4 19.0786 64.8864 19.6263 64.5361 20.2857L68.0685 22.1623C68.0712 22.1573 68.0733 22.1537 68.0747 22.1515C68.0761 22.1493 68.0768 22.1482 68.0768 22.1482C68.0768 22.1482 68.0763 22.149 68.075 22.1505C68.0737 22.152 68.072 22.1541 68.0697 22.1565C68.0649 22.1614 68.0592 22.1666 68.0531 22.1713C68.0471 22.176 68.0425 22.1788 68.0403 22.18L66.0683 18.7ZM64.5487 20.2623C64.1743 20.9451 64.0303 21.6853 64.0303 22.408H68.0303C68.0303 22.2134 68.0677 22.1642 68.0559 22.1857L64.5487 20.2623ZM64.0303 22.408V22.792H68.0303V22.408H64.0303ZM64.0303 22.792C64.0303 23.5579 64.1985 24.3178 64.5884 25.0156L68.0802 23.0644C68.0648 23.0369 68.0303 22.9648 68.0303 22.792H64.0303ZM64.6239 25.0766C65.0328 25.7513 65.6045 26.2771 66.2996 26.6346L68.129 23.0774C68.0775 23.0509 68.0625 23.0327 68.0447 23.0034L64.6239 25.0766ZM66.3603 26.6645C67.0606 26.9952 67.8108 27.128 68.5583 27.128V23.128C68.2818 23.128 68.136 23.0795 68.0683 23.0475L66.3603 26.6645ZM68.5583 27.128C69.214 27.128 69.8799 27.0293 70.5111 26.7729L69.0056 23.0671C68.954 23.088 68.82 23.128 68.5583 23.128V27.128ZM70.4914 26.7808C71.1005 26.5409 71.64 26.185 72.1056 25.7366L69.331 22.8554C69.2207 22.9616 69.1201 23.0218 69.0253 23.0592L70.4914 26.7808ZM69.2481 25.6519L70.5761 27.0919L73.5165 24.3801L72.1885 22.9401L69.2481 25.6519ZM70.5456 24.4139C70.3703 24.6129 70.1352 24.7877 69.7985 24.926L71.3182 28.626C72.1761 28.2737 72.933 27.7551 73.547 27.0581L70.5456 24.4139ZM69.827 24.9145C69.5065 25.0404 69.0746 25.128 68.4943 25.128V29.128C69.4714 29.128 70.4155 28.9809 71.2896 28.6375L69.827 24.9145Z" fill="black"/>
<path d="M25.7011 36V31.8H26.6731V36H25.7011ZM29.5659 32.724C29.8219 32.724 30.0499 32.776 30.2499 32.88C30.4539 32.98 30.6139 33.136 30.7299 33.348C30.8459 33.556 30.9039 33.824 30.9039 34.152V36H29.9679V34.296C29.9679 34.036 29.9099 33.844 29.7939 33.72C29.6819 33.596 29.5219 33.534 29.3139 33.534C29.1659 33.534 29.0319 33.566 28.9119 33.63C28.7959 33.69 28.7039 33.784 28.6359 33.912C28.5719 34.04 28.5399 34.204 28.5399 34.404V36H27.6039V32.772H28.4979V33.666L28.3299 33.396C28.4459 33.18 28.6119 33.014 28.8279 32.898C29.0439 32.782 29.2899 32.724 29.5659 32.724ZM32.8383 36.048C32.5623 36.048 32.2963 36.016 32.0403 35.952C31.7883 35.884 31.5883 35.8 31.4403 35.7L31.7523 35.028C31.9003 35.12 32.0743 35.196 32.2743 35.256C32.4783 35.312 32.6783 35.34 32.8743 35.34C33.0903 35.34 33.2423 35.314 33.3303 35.262C33.4223 35.21 33.4683 35.138 33.4683 35.046C33.4683 34.97 33.4323 34.914 33.3603 34.878C33.2923 34.838 33.2003 34.808 33.0843 34.788C32.9683 34.768 32.8403 34.748 32.7003 34.728C32.5643 34.708 32.4263 34.682 32.2863 34.65C32.1463 34.614 32.0183 34.562 31.9023 34.494C31.7863 34.426 31.6923 34.334 31.6203 34.218C31.5523 34.102 31.5183 33.952 31.5183 33.768C31.5183 33.564 31.5763 33.384 31.6923 33.228C31.8123 33.072 31.9843 32.95 32.2083 32.862C32.4323 32.77 32.7003 32.724 33.0123 32.724C33.2323 32.724 33.4563 32.748 33.6843 32.796C33.9123 32.844 34.1023 32.914 34.2543 33.006L33.9423 33.672C33.7863 33.58 33.6283 33.518 33.4683 33.486C33.3123 33.45 33.1603 33.432 33.0123 33.432C32.8043 33.432 32.6523 33.46 32.5563 33.516C32.4603 33.572 32.4123 33.644 32.4123 33.732C32.4123 33.812 32.4463 33.872 32.5143 33.912C32.5863 33.952 32.6803 33.984 32.7963 34.008C32.9123 34.032 33.0383 34.054 33.1743 34.074C33.3143 34.09 33.4543 34.116 33.5943 34.152C33.7343 34.188 33.8603 34.24 33.9723 34.308C34.0883 34.372 34.1823 34.462 34.2543 34.578C34.3263 34.69 34.3623 34.838 34.3623 35.022C34.3623 35.222 34.3023 35.4 34.1823 35.556C34.0623 35.708 33.8883 35.828 33.6603 35.916C33.4363 36.004 33.1623 36.048 32.8383 36.048ZM36.2598 36.048C35.8798 36.048 35.5838 35.952 35.3718 35.76C35.1598 35.564 35.0538 35.274 35.0538 34.89V32.058H35.9898V34.878C35.9898 35.014 36.0258 35.12 36.0978 35.196C36.1698 35.268 36.2678 35.304 36.3918 35.304C36.5398 35.304 36.6658 35.264 36.7698 35.184L37.0218 35.844C36.9258 35.912 36.8098 35.964 36.6738 36C36.5418 36.032 36.4038 36.048 36.2598 36.048ZM34.5558 33.564V32.844H36.7938V33.564H34.5558ZM39.5272 36V35.37L39.4672 35.232V34.104C39.4672 33.904 39.4052 33.748 39.2812 33.636C39.1612 33.524 38.9752 33.468 38.7232 33.468C38.5512 33.468 38.3812 33.496 38.2132 33.552C38.0492 33.604 37.9092 33.676 37.7932 33.768L37.4572 33.114C37.6332 32.99 37.8452 32.894 38.0932 32.826C38.3412 32.758 38.5932 32.724 38.8492 32.724C39.3412 32.724 39.7232 32.84 39.9952 33.072C40.2672 33.304 40.4032 33.666 40.4032 34.158V36H39.5272ZM38.5432 36.048C38.2912 36.048 38.0752 36.006 37.8952 35.922C37.7152 35.834 37.5772 35.716 37.4812 35.568C37.3852 35.42 37.3372 35.254 37.3372 35.07C37.3372 34.878 37.3832 34.71 37.4752 34.566C37.5712 34.422 37.7212 34.31 37.9252 34.23C38.1292 34.146 38.3952 34.104 38.7232 34.104H39.5812V34.65H38.8252C38.6052 34.65 38.4532 34.686 38.3692 34.758C38.2892 34.83 38.2492 34.92 38.2492 35.028C38.2492 35.148 38.2952 35.244 38.3872 35.316C38.4832 35.384 38.6132 35.418 38.7772 35.418C38.9332 35.418 39.0732 35.382 39.1972 35.31C39.3212 35.234 39.4112 35.124 39.4672 34.98L39.6112 35.412C39.5432 35.62 39.4192 35.778 39.2392 35.886C39.0592 35.994 38.8272 36.048 38.5432 36.048ZM41.2504 36V31.548H42.1864V36H41.2504ZM43.055 36V31.548H43.991V36H43.055ZM46.4617 36.048C46.0937 36.048 45.7697 35.976 45.4897 35.832C45.2137 35.688 44.9997 35.492 44.8477 35.244C44.6957 34.992 44.6197 34.706 44.6197 34.386C44.6197 34.062 44.6937 33.776 44.8417 33.528C44.9937 33.276 45.1997 33.08 45.4597 32.94C45.7197 32.796 46.0137 32.724 46.3417 32.724C46.6577 32.724 46.9417 32.792 47.1937 32.928C47.4497 33.06 47.6517 33.252 47.7997 33.504C47.9477 33.752 48.0217 34.05 48.0217 34.398C48.0217 34.434 48.0197 34.476 48.0157 34.524C48.0117 34.568 48.0077 34.61 48.0037 34.65H45.3817V34.104H47.5117L47.1517 34.266C47.1517 34.098 47.1177 33.952 47.0497 33.828C46.9817 33.704 46.8877 33.608 46.7677 33.54C46.6477 33.468 46.5077 33.432 46.3477 33.432C46.1877 33.432 46.0457 33.468 45.9217 33.54C45.8017 33.608 45.7077 33.706 45.6397 33.834C45.5717 33.958 45.5377 34.106 45.5377 34.278V34.422C45.5377 34.598 45.5757 34.754 45.6517 34.89C45.7317 35.022 45.8417 35.124 45.9817 35.196C46.1257 35.264 46.2937 35.298 46.4857 35.298C46.6577 35.298 46.8077 35.272 46.9357 35.22C47.0677 35.168 47.1877 35.09 47.2957 34.986L47.7937 35.526C47.6457 35.694 47.4597 35.824 47.2357 35.916C47.0117 36.004 46.7537 36.048 46.4617 36.048ZM48.6449 36V32.772H49.5389V33.684L49.4129 33.42C49.5089 33.192 49.6629 33.02 49.8749 32.904C50.0869 32.784 50.3449 32.724 50.6489 32.724V33.588C50.6089 33.584 50.5729 33.582 50.5409 33.582C50.5089 33.578 50.4749 33.576 50.4389 33.576C50.1829 33.576 49.9749 33.65 49.8149 33.798C49.6589 33.942 49.5809 34.168 49.5809 34.476V36H48.6449Z" fill="url(#paint3_linear_111_17)"/>
<path d="M25.7011 36H24.7011C24.7011 36.5523 25.1488 37 25.7011 37V36ZM25.7011 31.8V30.8C25.1488 30.8 24.7011 31.2477 24.7011 31.8H25.7011ZM26.6731 31.8H27.6731C27.6731 31.2477 27.2254 30.8 26.6731 30.8V31.8ZM26.6731 36V37C27.2254 37 27.6731 36.5523 27.6731 36H26.6731ZM26.7011 36V31.8H24.7011V36H26.7011ZM25.7011 32.8H26.6731V30.8H25.7011V32.8ZM25.6731 31.8V36H27.6731V31.8H25.6731ZM26.6731 35H25.7011V37H26.6731V35ZM30.2499 32.88L29.7885 33.7672C29.7955 33.7709 29.8026 33.7744 29.8097 33.7779L30.2499 32.88ZM30.7299 33.348L29.8526 33.828L29.8565 33.8351L30.7299 33.348ZM30.9039 36V37C31.4562 37 31.9039 36.5523 31.9039 36H30.9039ZM29.9679 36H28.9679C28.9679 36.5523 29.4156 37 29.9679 37V36ZM29.7939 33.72L29.0518 34.3903C29.0557 34.3946 29.0596 34.3989 29.0636 34.4032L29.7939 33.72ZM28.9119 33.63L29.3713 34.5183L29.3825 34.5124L28.9119 33.63ZM28.6359 33.912L27.7528 33.4428C27.7489 33.4501 27.7451 33.4574 27.7414 33.4648L28.6359 33.912ZM28.5399 36V37C29.0922 37 29.5399 36.5523 29.5399 36H28.5399ZM27.6039 36H26.6039C26.6039 36.5523 27.0516 37 27.6039 37V36ZM27.6039 32.772V31.772C27.0516 31.772 26.6039 32.2197 26.6039 32.772H27.6039ZM28.4979 32.772H29.4979C29.4979 32.2197 29.0502 31.772 28.4979 31.772V32.772ZM28.4979 33.666L27.6488 34.1943C27.8847 34.5734 28.3433 34.7502 28.7726 34.6275C29.2019 34.5049 29.4979 34.1125 29.4979 33.666H28.4979ZM28.3299 33.396L27.4489 32.9229C27.2795 33.2383 27.2917 33.6203 27.4808 33.9243L28.3299 33.396ZM28.8279 32.898L29.301 33.779L28.8279 32.898ZM29.5659 33.724C29.6833 33.724 29.7493 33.7468 29.7885 33.7672L30.7112 31.9928C30.3504 31.8052 29.9605 31.724 29.5659 31.724V33.724ZM29.8097 33.7779C29.8163 33.7811 29.829 33.7849 29.8526 33.828L31.6071 32.868C31.3987 32.4871 31.0915 32.1789 30.69 31.9821L29.8097 33.7779ZM29.8565 33.8351C29.864 33.8485 29.9039 33.9332 29.9039 34.152H31.9039C31.9039 33.7148 31.8277 33.2635 31.6032 32.8609L29.8565 33.8351ZM29.9039 34.152V36H31.9039V34.152H29.9039ZM30.9039 35H29.9679V37H30.9039V35ZM30.9679 36V34.296H28.9679V36H30.9679ZM30.9679 34.296C30.9679 33.9131 30.8859 33.4235 30.5241 33.0368L29.0636 34.4032C28.9993 34.3344 28.9745 34.2707 28.9671 34.2462C28.9608 34.2254 28.9679 34.2366 28.9679 34.296H30.9679ZM30.536 33.0497C30.1896 32.6663 29.7303 32.534 29.3139 32.534V34.534C29.3198 34.534 29.2854 34.535 29.2286 34.5129C29.167 34.4891 29.1034 34.4474 29.0518 34.3903L30.536 33.0497ZM29.3139 32.534C29.0166 32.534 28.7187 32.5997 28.4413 32.7476L29.3825 34.5124C29.3662 34.521 29.3495 34.5271 29.3347 34.5307C29.3202 34.5341 29.3123 34.534 29.3139 34.534V32.534ZM28.4525 32.7418C28.1363 32.9053 27.9052 33.1559 27.7528 33.4428L29.519 34.3812C29.5127 34.3931 29.4978 34.4171 29.4705 34.445C29.4426 34.4735 29.4086 34.4989 29.3713 34.5182L28.4525 32.7418ZM27.7414 33.4648C27.586 33.7756 27.5399 34.1068 27.5399 34.404H29.5399C29.5399 34.3562 29.5438 34.3305 29.5454 34.3225C29.5469 34.3148 29.5449 34.3301 29.5303 34.3592L27.7414 33.4648ZM27.5399 34.404V36H29.5399V34.404H27.5399ZM28.5399 35H27.6039V37H28.5399V35ZM28.6039 36V32.772H26.6039V36H28.6039ZM27.6039 33.772H28.4979V31.772H27.6039V33.772ZM27.4979 32.772V33.666H29.4979V32.772H27.4979ZM29.3469 33.1377L29.1789 32.8677L27.4808 33.9243L27.6488 34.1943L29.3469 33.1377ZM29.2109 33.8691C29.2339 33.8262 29.2581 33.8021 29.301 33.779L28.3547 32.017C27.9657 32.2259 27.6578 32.5338 27.4489 32.9229L29.2109 33.8691ZM29.301 33.779C29.3541 33.7505 29.4339 33.724 29.5659 33.724V31.724C29.1458 31.724 28.7337 31.8135 28.3547 32.017L29.301 33.779ZM32.0403 35.952L31.7798 36.9175C31.7858 36.9191 31.7918 36.9206 31.7978 36.9221L32.0403 35.952ZM31.4403 35.7L30.5333 35.2789C30.3266 35.7242 30.4737 36.2537 30.8805 36.5286L31.4403 35.7ZM31.7523 35.028L32.2802 34.1787C32.0371 34.0275 31.7408 33.9879 31.4664 34.0698C31.192 34.1516 30.9659 34.3472 30.8453 34.6069L31.7523 35.028ZM32.2743 35.256L31.987 36.2138C31.9945 36.2161 32.002 36.2182 32.0096 36.2203L32.2743 35.256ZM33.3303 35.262L32.8383 34.3914C32.8327 34.3946 32.8271 34.3978 32.8216 34.4011L33.3303 35.262ZM33.3603 34.878L32.8533 35.7399C32.8729 35.7514 32.8928 35.7623 32.9131 35.7724L33.3603 34.878ZM33.0843 34.788L32.9144 35.7735H32.9144L33.0843 34.788ZM32.7003 34.728L32.5548 35.7174L32.5589 35.7179L32.7003 34.728ZM32.2863 34.65L32.0373 35.6185C32.046 35.6207 32.0547 35.6229 32.0635 35.6249L32.2863 34.65ZM31.9023 34.494L32.408 33.6313L31.9023 34.494ZM31.6203 34.218L30.7576 34.7237C30.7619 34.731 30.7662 34.7382 30.7707 34.7454L31.6203 34.218ZM31.6923 33.228L30.8997 32.6183C30.8964 32.6226 30.8931 32.6269 30.8899 32.6313L31.6923 33.228ZM32.2083 32.862L32.574 33.7928C32.5787 33.7909 32.5835 33.789 32.5882 33.787L32.2083 32.862ZM33.6843 32.796L33.8903 31.8175L33.8903 31.8174L33.6843 32.796ZM34.2543 33.006L35.1599 33.4302C35.3768 32.9672 35.2095 32.4152 34.7721 32.1505L34.2543 33.006ZM33.9423 33.672L33.4343 34.5334C33.6769 34.6765 33.9687 34.7106 34.2378 34.6274C34.5069 34.5441 34.7284 34.3513 34.8479 34.0962L33.9423 33.672ZM33.4683 33.486L33.2435 34.4604C33.253 34.4626 33.2626 34.4647 33.2722 34.4666L33.4683 33.486ZM32.5563 33.516L32.0524 32.6522L32.0524 32.6522L32.5563 33.516ZM32.5143 33.912L32.0073 34.7739C32.0144 34.7781 32.0215 34.7822 32.0287 34.7862L32.5143 33.912ZM33.1743 34.074L33.0288 35.0634C33.0394 35.0649 33.0501 35.0663 33.0608 35.0675L33.1743 34.074ZM33.5943 34.152L33.8434 33.1835V33.1835L33.5943 34.152ZM33.9723 34.308L33.4533 35.1628C33.4652 35.17 33.4771 35.1769 33.4892 35.1836L33.9723 34.308ZM34.2543 34.578L33.4047 35.1054C33.4075 35.1098 33.4103 35.1143 33.4131 35.1188L34.2543 34.578ZM34.1823 35.556L34.9673 36.1757L34.9749 36.1657L34.1823 35.556ZM33.6603 35.916L33.3002 34.9831L33.2947 34.9852L33.6603 35.916ZM32.8383 35.048C32.6403 35.048 32.456 35.0251 32.2828 34.9819L31.7978 36.9221C32.1367 37.0069 32.4843 37.048 32.8383 37.048V35.048ZM32.3008 34.9865C32.1109 34.9353 32.0249 34.8881 32.0002 34.8714L30.8805 36.5286C31.1517 36.7119 31.4657 36.8327 31.7798 36.9175L32.3008 34.9865ZM32.3473 36.1211L32.6593 35.4491L30.8453 34.6069L30.5333 35.2789L32.3473 36.1211ZM31.2244 35.8773C31.4605 36.0241 31.7185 36.1333 31.987 36.2138L32.5617 34.2982C32.4301 34.2587 32.3401 34.2159 32.2802 34.1787L31.2244 35.8773ZM32.0096 36.2203C32.293 36.2981 32.5821 36.34 32.8743 36.34V34.34C32.7745 34.34 32.6636 34.3259 32.539 34.2917L32.0096 36.2203ZM32.8743 36.34C33.1108 36.34 33.5018 36.3222 33.839 36.1229L32.8216 34.4011C32.8753 34.3693 32.9191 34.3529 32.9432 34.3451C32.956 34.3409 32.9658 34.3384 32.9719 34.3369C32.978 34.3354 32.9814 34.3349 32.9817 34.3348C32.9818 34.3348 32.9731 34.3363 32.9538 34.3376C32.9348 34.339 32.9087 34.34 32.8743 34.34V36.34ZM33.8224 36.1326C34.1722 35.9349 34.4683 35.5587 34.4683 35.046H32.4683C32.4683 34.9165 32.5035 34.7678 32.5911 34.6306C32.6746 34.5 32.7752 34.4271 32.8383 34.3914L33.8224 36.1326ZM34.4683 35.046C34.4683 34.8441 34.4183 34.6175 34.2825 34.4062C34.1488 34.1983 33.9706 34.0651 33.8075 33.9836L32.9131 35.7724C32.822 35.7269 32.6978 35.6397 32.6001 35.4878C32.5003 35.3325 32.4683 35.1719 32.4683 35.046H34.4683ZM33.8673 34.0161C33.6574 33.8926 33.4363 33.8339 33.2542 33.8025L32.9144 35.7735C32.9347 35.777 32.9386 35.779 32.9303 35.7762C32.9224 35.7737 32.8937 35.7637 32.8533 35.7399L33.8673 34.0161ZM33.2542 33.8025C33.1271 33.7806 32.9894 33.7591 32.8417 33.7381L32.5589 35.7179C32.6912 35.7369 32.8095 35.7554 32.9144 35.7735L33.2542 33.8025ZM32.8458 33.7386C32.7369 33.7226 32.6247 33.7016 32.5091 33.6751L32.0635 35.6249C32.2279 35.6624 32.3917 35.6934 32.5548 35.7174L32.8458 33.7386ZM32.5354 33.6815C32.4787 33.6669 32.438 33.6489 32.408 33.6313L31.3966 35.3567C31.5986 35.4751 31.8139 35.5611 32.0373 35.6185L32.5354 33.6815ZM32.408 33.6313C32.4188 33.6376 32.4317 33.647 32.4443 33.6593C32.4568 33.6716 32.4652 33.683 32.47 33.6906L30.7707 34.7454C30.927 34.9972 31.1382 35.2052 31.3966 35.3567L32.408 33.6313ZM32.483 33.7123C32.5078 33.7545 32.5166 33.7865 32.5191 33.7974C32.5213 33.8075 32.5183 33.7996 32.5183 33.768H30.5183C30.5183 34.067 30.5725 34.408 30.7576 34.7237L32.483 33.7123ZM32.5183 33.768C32.5183 33.7619 32.519 33.7701 32.5136 33.7867C32.5081 33.8038 32.5002 33.8173 32.4948 33.8247L30.8899 32.6313C30.639 32.9687 30.5183 33.3604 30.5183 33.768H32.5183ZM32.4849 33.8377C32.48 33.8441 32.4793 33.8427 32.4899 33.8352C32.5013 33.827 32.5269 33.8112 32.574 33.7928L31.8427 31.9312C31.4874 32.0708 31.1525 32.2896 30.8997 32.6183L32.4849 33.8377ZM32.5882 33.787C32.6624 33.7566 32.7947 33.724 33.0123 33.724V31.724C32.6059 31.724 32.2022 31.7834 31.8284 31.937L32.5882 33.787ZM33.0123 33.724C33.1591 33.724 33.3141 33.74 33.4783 33.7745L33.8903 31.8174C33.5986 31.756 33.3055 31.724 33.0123 31.724V33.724ZM33.4783 33.7745C33.6285 33.8062 33.7055 33.8427 33.7365 33.8615L34.7721 32.1505C34.4991 31.9853 34.1961 31.8818 33.8903 31.8175L33.4783 33.7745ZM33.3488 32.5818L33.0368 33.2478L34.8479 34.0962L35.1599 33.4302L33.3488 32.5818ZM34.4503 32.8106C34.2083 32.6679 33.9457 32.5617 33.6644 32.5054L33.2722 34.4666C33.3109 34.4743 33.3643 34.4921 33.4343 34.5334L34.4503 32.8106ZM33.6932 32.5116C33.4694 32.46 33.2419 32.432 33.0123 32.432V34.432C33.0787 34.432 33.1552 34.44 33.2435 34.4604L33.6932 32.5116ZM33.0123 32.432C32.7573 32.432 32.3842 32.4587 32.0524 32.6522L33.0602 34.3798C33.0169 34.405 32.9814 34.419 32.9596 34.4264C32.9377 34.4338 32.9246 34.4362 32.9235 34.4365C32.9221 34.4367 32.9285 34.4355 32.9444 34.4342C32.96 34.433 32.9824 34.432 33.0123 34.432V32.432ZM32.0524 32.6522C31.7428 32.8328 31.4123 33.1919 31.4123 33.732H33.4123C33.4123 33.8819 33.3678 34.0355 33.2804 34.1667C33.1994 34.2881 33.1075 34.3522 33.0602 34.3798L32.0524 32.6522ZM31.4123 33.732C31.4123 34.1602 31.6286 34.5512 32.0073 34.7739L33.0213 33.0501C33.1165 33.106 33.2265 33.2004 33.3078 33.344C33.3888 33.4869 33.4123 33.6271 33.4123 33.732H31.4123ZM32.0287 34.7862C32.2186 34.8917 32.4181 34.9509 32.5937 34.9873L32.9989 33.0287C32.9868 33.0262 32.9776 33.024 32.9711 33.0223C32.9646 33.0205 32.9614 33.0195 32.9611 33.0194C32.9607 33.0192 32.964 33.0203 32.9704 33.0231C32.9767 33.0258 32.9868 33.0305 33 33.0378L32.0287 34.7862ZM32.5937 34.9873C32.7314 35.0157 32.8766 35.041 33.0288 35.0634L33.3198 33.0846C33.2 33.067 33.0933 33.0483 32.9989 33.0287L32.5937 34.9873ZM33.0608 35.0675C33.1539 35.0782 33.2487 35.0956 33.3453 35.1205L33.8434 33.1835C33.66 33.1364 33.4747 33.1018 33.2879 33.0805L33.0608 35.0675ZM33.3453 35.1205C33.3999 35.1345 33.4334 35.1507 33.4533 35.1628L34.4913 33.4532C34.2872 33.3293 34.0687 33.2415 33.8434 33.1835L33.3453 35.1205ZM33.4892 35.1836C33.4728 35.1745 33.4549 35.1618 33.4382 35.1458C33.4217 35.1299 33.4108 35.1152 33.4047 35.1054L35.104 34.0506C34.9445 33.7937 34.7261 33.5818 34.4554 33.4324L33.4892 35.1836ZM33.4131 35.1188C33.3811 35.0689 33.3682 35.0281 33.3636 35.0094C33.3594 34.9919 33.3623 34.9938 33.3623 35.022H35.3623C35.3623 34.7169 35.3037 34.3611 35.0955 34.0372L33.4131 35.1188ZM33.3623 35.022C33.3623 35.0204 33.3628 35.0065 33.3697 34.9861C33.3766 34.9655 33.3856 34.9516 33.3897 34.9463L34.9749 36.1657C35.2317 35.8319 35.3623 35.4387 35.3623 35.022H33.3623ZM33.3974 34.9364C33.414 34.9154 33.4043 34.9429 33.3002 34.9831L34.0204 36.8489C34.3723 36.7131 34.7106 36.5006 34.9672 36.1756L33.3974 34.9364ZM33.2947 34.9852C33.2198 35.0146 33.0779 35.048 32.8383 35.048V37.048C33.2467 37.048 33.6528 36.9934 34.026 36.8468L33.2947 34.9852ZM35.3718 35.76L34.6929 36.4943L34.7005 36.5012L35.3718 35.76ZM35.0538 32.058V31.058C34.5015 31.058 34.0538 31.5057 34.0538 32.058H35.0538ZM35.9898 32.058H36.9898C36.9898 31.5057 36.5421 31.058 35.9898 31.058V32.058ZM36.0978 35.196L35.3719 35.8837C35.3781 35.8903 35.3843 35.8967 35.3907 35.9031L36.0978 35.196ZM36.7698 35.184L37.704 34.8273C37.5913 34.5321 37.3457 34.3075 37.0415 34.2216C36.7374 34.1358 36.4106 34.1987 36.1601 34.3914L36.7698 35.184ZM37.0218 35.844L37.5998 36.66C37.9723 36.3962 38.1188 35.9137 37.956 35.4873L37.0218 35.844ZM36.6738 36L36.9094 36.9718C36.9162 36.9702 36.923 36.9685 36.9297 36.9667L36.6738 36ZM34.5558 33.564H33.5558C33.5558 34.1163 34.0035 34.564 34.5558 34.564V33.564ZM34.5558 32.844V31.844C34.0035 31.844 33.5558 32.2917 33.5558 32.844H34.5558ZM36.7938 32.844H37.7938C37.7938 32.2917 37.3461 31.844 36.7938 31.844V32.844ZM36.7938 33.564V34.564C37.3461 34.564 37.7938 34.1163 37.7938 33.564H36.7938ZM36.2598 35.048C36.1523 35.048 36.0905 35.0342 36.0613 35.0248C36.0358 35.0165 36.0354 35.0119 36.0431 35.0188L34.7005 36.5012C35.1499 36.9082 35.7148 37.048 36.2598 37.048V35.048ZM36.0507 35.0257C36.0581 35.0326 36.0647 35.0405 36.0695 35.0478C36.0741 35.0549 36.0745 35.0574 36.0725 35.0522C36.0682 35.0403 36.0538 34.9923 36.0538 34.89H34.0538C34.0538 35.4565 34.2148 36.0522 34.693 36.4943L36.0507 35.0257ZM36.0538 34.89V32.058H34.0538V34.89H36.0538ZM35.0538 33.058H35.9898V31.058H35.0538V33.058ZM34.9898 32.058V34.878H36.9898V32.058H34.9898ZM34.9898 34.878C34.9898 35.1907 35.0761 35.5716 35.3719 35.8837L36.8238 34.5083C36.9755 34.6684 36.9898 34.8373 36.9898 34.878H34.9898ZM35.3907 35.9031C35.6897 36.2021 36.0641 36.304 36.3918 36.304V34.304C36.4259 34.304 36.4901 34.3089 36.5701 34.3383C36.6537 34.369 36.7357 34.4197 36.8049 34.4889L35.3907 35.9031ZM36.3918 36.304C36.7307 36.304 37.0786 36.2081 37.3795 35.9766L36.1601 34.3914C36.2011 34.3599 36.2476 34.3358 36.2947 34.3209C36.3405 34.3063 36.3753 34.304 36.3918 34.304V36.304ZM35.8356 35.5407L36.0876 36.2007L37.956 35.4873L37.704 34.8273L35.8356 35.5407ZM36.4438 35.028C36.4623 35.0148 36.4605 35.022 36.4179 35.0333L36.9297 36.9667C37.1592 36.906 37.3893 36.8092 37.5998 36.66L36.4438 35.028ZM36.4382 35.0282C36.3878 35.0404 36.3292 35.048 36.2598 35.048V37.048C36.4784 37.048 36.6958 37.0236 36.9094 36.9718L36.4382 35.0282ZM35.5558 33.564V32.844H33.5558V33.564H35.5558ZM34.5558 33.844H36.7938V31.844H34.5558V33.844ZM35.7938 32.844V33.564H37.7938V32.844H35.7938ZM36.7938 32.564H34.5558V34.564H36.7938V32.564ZM39.5272 36H38.5272C38.5272 36.5523 38.9749 37 39.5272 37V36ZM39.5272 35.37H40.5272C40.5272 35.2328 40.499 35.0971 40.4443 34.9713L39.5272 35.37ZM39.4672 35.232H38.4672C38.4672 35.3692 38.4955 35.5049 38.5502 35.6307L39.4672 35.232ZM39.2812 33.636L38.5989 34.3671C38.6029 34.3708 38.6069 34.3745 38.6109 34.3781L39.2812 33.636ZM38.2132 33.552L38.5155 34.5052C38.5202 34.5037 38.5248 34.5022 38.5295 34.5007L38.2132 33.552ZM37.7932 33.768L36.9038 34.225C37.0405 34.4912 37.2894 34.6822 37.582 34.7454C37.8746 34.8087 38.1801 34.7375 38.4146 34.5515L37.7932 33.768ZM37.4572 33.114L36.8813 32.2965C36.4736 32.5837 36.3399 33.1274 36.5678 33.571L37.4572 33.114ZM38.0932 32.826L37.8288 31.8616L37.8288 31.8616L38.0932 32.826ZM39.9952 33.072L40.6442 32.3112L39.9952 33.072ZM40.4032 36V37C40.9555 37 41.4032 36.5523 41.4032 36H40.4032ZM37.8952 35.922L37.456 36.8204C37.4614 36.823 37.4669 36.8256 37.4723 36.8282L37.8952 35.922ZM37.4812 35.568L38.3202 35.0238H38.3202L37.4812 35.568ZM37.4752 34.566L36.6432 34.0113C36.6396 34.0167 36.636 34.0221 36.6325 34.0276L37.4752 34.566ZM37.9252 34.23L38.2903 35.161C38.2956 35.1589 38.3008 35.1568 38.306 35.1547L37.9252 34.23ZM39.5812 34.104H40.5812C40.5812 33.5517 40.1335 33.104 39.5812 33.104V34.104ZM39.5812 34.65V35.65C40.1335 35.65 40.5812 35.2023 40.5812 34.65H39.5812ZM38.3692 34.758L37.7184 33.9987C37.7123 34.004 37.7063 34.0093 37.7003 34.0147L38.3692 34.758ZM38.3872 35.316L37.7709 36.1035C37.7835 36.1133 37.7962 36.1228 37.8092 36.132L38.3872 35.316ZM39.1972 35.31L39.6994 36.1748C39.7062 36.1708 39.713 36.1667 39.7198 36.1626L39.1972 35.31ZM39.4672 34.98L40.4159 34.6638C40.2827 34.264 39.9131 33.9907 39.4918 33.9803C39.0705 33.9699 38.688 34.2248 38.5352 34.6176L39.4672 34.98ZM39.6112 35.412L40.5617 35.7227C40.6284 35.519 40.6277 35.2992 40.5599 35.0958L39.6112 35.412ZM39.2392 35.886L38.7247 35.0285H38.7247L39.2392 35.886ZM40.5272 36V35.37H38.5272V36H40.5272ZM40.4443 34.9713L40.3843 34.8333L38.5502 35.6307L38.6102 35.7687L40.4443 34.9713ZM40.4672 35.232V34.104H38.4672V35.232H40.4672ZM40.4672 34.104C40.4672 33.6818 40.3266 33.2327 39.9515 32.8939L38.6109 34.3781C38.5586 34.3308 38.5168 34.2701 38.4914 34.2063C38.4677 34.1466 38.4672 34.1068 38.4672 34.104H40.4672ZM39.9636 32.9049C39.5807 32.5476 39.0972 32.468 38.7232 32.468V34.468C38.7789 34.468 38.787 34.4746 38.7634 34.4675C38.7362 34.4593 38.6699 34.4333 38.5989 34.3671L39.9636 32.9049ZM38.7232 32.468C38.4406 32.468 38.1639 32.5143 37.897 32.6033L38.5295 34.5007C38.5985 34.4777 38.6619 34.468 38.7232 34.468V32.468ZM37.911 32.5988C37.6496 32.6816 37.3971 32.8058 37.1718 32.9845L38.4146 34.5515C38.4214 34.5462 38.4488 34.5264 38.5155 34.5052L37.911 32.5988ZM38.6827 33.311L38.3467 32.657L36.5678 33.571L36.9038 34.225L38.6827 33.311ZM38.0332 33.9315C38.0982 33.8856 38.2001 33.8336 38.3577 33.7904L37.8288 31.8616C37.4904 31.9544 37.1682 32.0944 36.8813 32.2965L38.0332 33.9315ZM38.3577 33.7904C38.5199 33.7459 38.683 33.724 38.8492 33.724V31.724C38.5035 31.724 38.1626 31.7701 37.8288 31.8616L38.3577 33.7904ZM38.8492 33.724C39.1927 33.724 39.3133 33.8047 39.3463 33.8328L40.6442 32.3112C40.1332 31.8753 39.4898 31.724 38.8492 31.724V33.724ZM39.3463 33.8328C39.347 33.8335 39.3477 33.834 39.3495 33.8366C39.3514 33.8394 39.3575 33.8489 39.3651 33.8692C39.3811 33.9118 39.4032 34.0009 39.4032 34.158H41.4032C41.4032 33.4887 41.2139 32.7971 40.6442 32.3112L39.3463 33.8328ZM39.4032 34.158V36H41.4032V34.158H39.4032ZM40.4032 35H39.5272V37H40.4032V35ZM38.5432 35.048C38.3994 35.048 38.3351 35.0238 38.3181 35.0158L37.4723 36.8282C37.8153 36.9882 38.1831 37.048 38.5432 37.048V35.048ZM38.3344 35.0236C38.3125 35.0129 38.3053 35.0063 38.3066 35.0075C38.3072 35.0079 38.3092 35.0097 38.3119 35.0129C38.3147 35.016 38.3176 35.0198 38.3202 35.0238L36.6423 36.1122C36.8498 36.4321 37.1357 36.6638 37.456 36.8204L38.3344 35.0236ZM38.3202 35.0238C38.3245 35.0304 38.33 35.0415 38.3339 35.0547C38.3376 35.0677 38.3372 35.0741 38.3372 35.07H36.3372C36.3372 35.4384 36.4365 35.795 36.6423 36.1122L38.3202 35.0238ZM38.3372 35.07C38.3372 35.0542 38.3391 35.0538 38.3362 35.0641C38.3349 35.0691 38.3327 35.0756 38.3294 35.083C38.3261 35.0905 38.3222 35.0977 38.3179 35.1044L36.6325 34.0276C36.4255 34.3517 36.3372 34.7115 36.3372 35.07H38.3372ZM38.3073 35.1207C38.2976 35.1352 38.2876 35.1473 38.2784 35.1569C38.2693 35.1664 38.262 35.1723 38.258 35.1753C38.2505 35.1809 38.2577 35.1738 38.2903 35.161L37.5601 33.299C37.2165 33.4338 36.8796 33.6567 36.6432 34.0113L38.3073 35.1207ZM38.306 35.1547C38.3453 35.1385 38.4681 35.104 38.7232 35.104V33.104C38.3224 33.104 37.9131 33.1535 37.5445 33.3053L38.306 35.1547ZM38.7232 35.104H39.5812V33.104H38.7232V35.104ZM38.5812 34.104V34.65H40.5812V34.104H38.5812ZM39.5812 33.65H38.8252V35.65H39.5812V33.65ZM38.8252 33.65C38.5676 33.65 38.0932 33.6775 37.7184 33.9987L39.02 35.5173C38.9015 35.6188 38.7959 35.6455 38.7767 35.6501C38.7535 35.6556 38.764 35.65 38.8252 35.65V33.65ZM37.7003 34.0147C37.4087 34.2771 37.2492 34.6376 37.2492 35.028H39.2492C39.2492 35.1003 39.2352 35.1909 39.193 35.2856C39.1509 35.3805 39.0928 35.4522 39.0382 35.5013L37.7003 34.0147ZM37.2492 35.028C37.2492 35.4458 37.4292 35.836 37.7709 36.1035L39.0035 34.5285C39.0668 34.578 39.1357 34.6539 39.1856 34.7579C39.235 34.861 39.2492 34.9576 39.2492 35.028H37.2492ZM37.8092 36.132C38.129 36.3585 38.4854 36.418 38.7772 36.418V34.418C38.7411 34.418 38.8375 34.4095 38.9653 34.5L37.8092 36.132ZM38.7772 36.418C39.0936 36.418 39.4096 36.3431 39.6994 36.1748L38.6951 34.4452C38.713 34.4348 38.7322 34.4271 38.7502 34.4225C38.7677 34.418 38.7778 34.418 38.7772 34.418V36.418ZM39.7198 36.1626C40.0422 35.965 40.2693 35.6766 40.3992 35.3424L38.5352 34.6176C38.542 34.6 38.5566 34.5704 38.5838 34.5373C38.6114 34.5036 38.6434 34.4765 38.6747 34.4574L39.7198 36.1626ZM38.5186 35.2962L38.6626 35.7282L40.5599 35.0958L40.4159 34.6638L38.5186 35.2962ZM38.6607 35.1013C38.6598 35.1042 38.6643 35.0899 38.6806 35.0691C38.6973 35.0479 38.7149 35.0344 38.7247 35.0285L39.7537 36.7435C40.1495 36.506 40.4224 36.1489 40.5617 35.7227L38.6607 35.1013ZM38.7247 35.0285C38.7457 35.0159 38.7077 35.048 38.5432 35.048V37.048C38.9467 37.048 39.3728 36.9721 39.7537 36.7435L38.7247 35.0285ZM41.2504 36H40.2504C40.2504 36.5523 40.6981 37 41.2504 37V36ZM41.2504 31.548V30.548C40.6981 30.548 40.2504 30.9957 40.2504 31.548H41.2504ZM42.1864 31.548H43.1864C43.1864 30.9957 42.7386 30.548 42.1864 30.548V31.548ZM42.1864 36V37C42.7386 37 43.1864 36.5523 43.1864 36H42.1864ZM42.2504 36V31.548H40.2504V36H42.2504ZM41.2504 32.548H42.1864V30.548H41.2504V32.548ZM41.1864 31.548V36H43.1864V31.548H41.1864ZM42.1864 35H41.2504V37H42.1864V35ZM43.055 36H42.055C42.055 36.5523 42.5028 37 43.055 37V36ZM43.055 31.548V30.548C42.5028 30.548 42.055 30.9957 42.055 31.548H43.055ZM43.991 31.548H44.991C44.991 30.9957 44.5433 30.548 43.991 30.548V31.548ZM43.991 36V37C44.5433 37 44.991 36.5523 44.991 36H43.991ZM44.055 36V31.548H42.055V36H44.055ZM43.055 32.548H43.991V30.548H43.055V32.548ZM42.991 31.548V36H44.991V31.548H42.991ZM43.991 35H43.055V37H43.991V35ZM45.4897 35.832L45.0272 36.7186L45.0324 36.7213L45.4897 35.832ZM44.8477 35.244L43.9914 35.7605L43.9951 35.7666L44.8477 35.244ZM44.8417 33.528L43.9854 33.0115L43.983 33.0155L44.8417 33.528ZM45.4597 32.94L45.9339 33.8205L45.9442 33.8148L45.4597 32.94ZM47.1937 32.928L46.7188 33.808C46.7243 33.811 46.7299 33.8139 46.7354 33.8168L47.1937 32.928ZM47.7997 33.504L46.9374 34.0104L46.941 34.0165L47.7997 33.504ZM48.0157 34.524L49.0117 34.6145L49.0123 34.607L48.0157 34.524ZM48.0037 34.65V35.65C48.5175 35.65 48.9477 35.2607 48.9988 34.7495L48.0037 34.65ZM45.3817 34.65H44.3817C44.3817 35.2023 44.8295 35.65 45.3817 35.65V34.65ZM45.3817 34.104V33.104C44.8295 33.104 44.3817 33.5517 44.3817 34.104H45.3817ZM47.5117 34.104L47.9221 35.0159C48.352 34.8225 48.5884 34.3551 48.4895 33.8941C48.3905 33.4332 47.9831 33.104 47.5117 33.104V34.104ZM47.1517 34.266H46.1517C46.1517 34.6053 46.3238 34.9215 46.6088 35.1058C46.8937 35.29 47.2527 35.3172 47.5621 35.1779L47.1517 34.266ZM47.0497 33.828L46.1729 34.3088V34.3088L47.0497 33.828ZM46.7677 33.54L46.2532 34.3975C46.2603 34.4018 46.2675 34.4059 46.2747 34.41L46.7677 33.54ZM45.9217 33.54L46.4148 34.4101L46.4239 34.4048L45.9217 33.54ZM45.6397 33.834L46.5166 34.3149L46.5229 34.3032L45.6397 33.834ZM45.6517 34.89L44.7788 35.3778C44.7845 35.3881 44.7904 35.3982 44.7965 35.4083L45.6517 34.89ZM45.9817 35.196L45.5244 36.0853C45.5344 36.0904 45.5445 36.0954 45.5547 36.1002L45.9817 35.196ZM46.9357 35.22L46.5692 34.2895L46.5594 34.2935L46.9357 35.22ZM47.2957 34.986L48.0309 34.3081C47.8485 34.1103 47.5942 33.9944 47.3254 33.9864C47.0565 33.9785 46.7958 34.0791 46.6021 34.2657L47.2957 34.986ZM47.7937 35.526L48.5441 36.187C48.8827 35.8027 48.8761 35.2246 48.5289 34.8481L47.7937 35.526ZM47.2357 35.916L47.6014 36.8468C47.6062 36.8449 47.6109 36.843 47.6157 36.841L47.2357 35.916ZM46.4617 35.048C46.226 35.048 46.0635 35.0026 45.9471 34.9427L45.0324 36.7213C45.4759 36.9494 45.9615 37.048 46.4617 37.048V35.048ZM45.9523 34.9454C45.8252 34.8791 45.751 34.8041 45.7003 34.7214L43.9951 35.7666C44.2485 36.1799 44.6023 36.4969 45.0272 36.7186L45.9523 34.9454ZM45.704 34.7275C45.6542 34.6449 45.6197 34.5404 45.6197 34.386H43.6197C43.6197 34.8716 43.7373 35.3391 43.9914 35.7605L45.704 34.7275ZM45.6197 34.386C45.6197 34.2199 45.6558 34.1152 45.7004 34.0405L43.983 33.0155C43.7317 33.4368 43.6197 33.9041 43.6197 34.386H45.6197ZM45.698 34.0445C45.7572 33.9464 45.831 33.8759 45.9338 33.8205L44.9856 32.0595C44.5685 32.2841 44.2303 32.6056 43.9854 33.0115L45.698 34.0445ZM45.9442 33.8148C46.041 33.7612 46.1653 33.724 46.3417 33.724V31.724C45.8622 31.724 45.3985 31.8308 44.9752 32.0652L45.9442 33.8148ZM46.3417 33.724C46.5094 33.724 46.6274 33.7587 46.7188 33.808L47.6687 32.048C47.2561 31.8253 46.806 31.724 46.3417 31.724V33.724ZM46.7354 33.8168C46.8207 33.8608 46.8838 33.919 46.9374 34.0104L48.662 32.9976C48.4197 32.585 48.0787 32.2592 47.652 32.0392L46.7354 33.8168ZM46.941 34.0165C46.9792 34.0805 47.0217 34.1934 47.0217 34.398H49.0217C49.0217 33.9066 48.9162 33.4235 48.6584 32.9915L46.941 34.0165ZM47.0217 34.398C47.0217 34.3978 47.0217 34.4012 47.0214 34.4089C47.021 34.4165 47.0203 34.4271 47.0192 34.441L49.0123 34.607C49.0179 34.54 49.0217 34.4692 49.0217 34.398H47.0217ZM47.0198 34.4335C47.0161 34.4748 47.0124 34.5138 47.0087 34.5505L48.9988 34.7495C49.0031 34.7062 49.0074 34.6612 49.0116 34.6145L47.0198 34.4335ZM48.0037 33.65H45.3817V35.65H48.0037V33.65ZM46.3817 34.65V34.104H44.3817V34.65H46.3817ZM45.3817 35.104H47.5117V33.104H45.3817V35.104ZM47.1014 33.1921L46.7414 33.3541L47.5621 35.1779L47.9221 35.0159L47.1014 33.1921ZM48.1517 34.266C48.1517 33.9615 48.0893 33.644 47.9265 33.3472L46.1729 34.3088C46.1606 34.2863 46.1547 34.2677 46.1523 34.2573C46.15 34.2476 46.1517 34.2493 46.1517 34.266H48.1517ZM47.9265 33.3472C47.7716 33.0647 47.5466 32.832 47.2607 32.67L46.2747 34.41C46.2555 34.3991 46.2339 34.3833 46.2137 34.3626C46.1936 34.3421 46.1805 34.3226 46.1729 34.3088L47.9265 33.3472ZM47.2822 32.6825C46.9856 32.5045 46.6625 32.432 46.3477 32.432V34.432C46.3526 34.432 46.3432 34.4325 46.3237 34.4275C46.3034 34.4223 46.2786 34.4127 46.2532 34.3975L47.2822 32.6825ZM46.3477 32.432C46.0323 32.432 45.7132 32.5047 45.4196 32.6752L46.4239 34.4048C46.4039 34.4164 46.3839 34.424 46.367 34.4283C46.3506 34.4325 46.3431 34.432 46.3477 34.432V32.432ZM45.4287 32.67C45.1346 32.8367 44.9091 33.0778 44.7566 33.3648L46.5229 34.3032C46.5165 34.3151 46.5039 34.3348 46.4829 34.3567C46.4617 34.3789 46.4379 34.3969 46.4147 34.41L45.4287 32.67ZM44.7629 33.3532C44.5984 33.6532 44.5377 33.974 44.5377 34.278H46.5377C46.5377 34.2576 46.5398 34.2535 46.5378 34.2619C46.5357 34.271 46.53 34.2904 46.5165 34.3148L44.7629 33.3532ZM44.5377 34.278V34.422H46.5377V34.278H44.5377ZM44.5377 34.422C44.5377 34.7463 44.6091 35.0742 44.7788 35.3778L46.5247 34.4022C46.5282 34.4084 46.5311 34.4147 46.5334 34.4206C46.5357 34.4265 46.5371 34.4312 46.5378 34.4343C46.5394 34.4408 46.5377 34.4378 46.5377 34.422H44.5377ZM44.7965 35.4083C44.9743 35.7016 45.2235 35.9305 45.5244 36.0853L46.4391 34.3067C46.446 34.3103 46.4592 34.3183 46.4742 34.3322C46.4893 34.3462 46.5002 34.3606 46.5069 34.3717L44.7965 35.4083ZM45.5547 36.1002C45.8569 36.2429 46.176 36.298 46.4857 36.298V34.298C46.4115 34.298 46.3946 34.2851 46.4087 34.2918L45.5547 36.1002ZM46.4857 36.298C46.7562 36.298 47.0392 36.2573 47.3121 36.1465L46.5594 34.2935C46.5763 34.2867 46.5592 34.298 46.4857 34.298V36.298ZM47.3023 36.1504C47.5628 36.0478 47.7926 35.8958 47.9894 35.7063L46.6021 34.2657C46.5829 34.2842 46.5727 34.2882 46.5692 34.2896L47.3023 36.1504ZM46.5606 35.6639L47.0586 36.2039L48.5289 34.8481L48.0309 34.3081L46.5606 35.6639ZM47.0434 34.865C47.0051 34.9085 46.9495 34.9525 46.8558 34.991L47.6157 36.841C47.97 36.6955 48.2864 36.4795 48.5441 36.187L47.0434 34.865ZM46.8701 34.9852C46.7845 35.0189 46.6545 35.048 46.4617 35.048V37.048C46.8529 37.048 47.239 36.9891 47.6014 36.8468L46.8701 34.9852ZM48.6449 36H47.6449C47.6449 36.5523 48.0926 37 48.6449 37V36ZM48.6449 32.772V31.772C48.0926 31.772 47.6449 32.2197 47.6449 32.772H48.6449ZM49.5389 32.772H50.5389C50.5389 32.2197 50.0912 31.772 49.5389 31.772V32.772ZM49.5389 33.684L48.6364 34.1147C48.8377 34.5364 49.304 34.7625 49.7597 34.6593C50.2154 34.5561 50.5389 34.1512 50.5389 33.684H49.5389ZM49.4129 33.42L48.4913 33.0319C48.3805 33.2951 48.3874 33.5931 48.5104 33.8507L49.4129 33.42ZM49.8749 32.904L50.3549 33.7813C50.3591 33.779 50.3633 33.7766 50.3675 33.7743L49.8749 32.904ZM50.6489 32.724H51.6489C51.6489 32.1717 51.2012 31.724 50.6489 31.724V32.724ZM50.6489 33.588L50.5494 34.583C50.8305 34.6112 51.1104 34.519 51.3199 34.3295C51.5294 34.1399 51.6489 33.8705 51.6489 33.588H50.6489ZM50.5409 33.582L50.4169 34.5743C50.458 34.5794 50.4994 34.582 50.5409 34.582V33.582ZM49.8149 33.798L50.4932 34.5328L50.4939 34.5321L49.8149 33.798ZM49.5809 36V37C50.1332 37 50.5809 36.5523 50.5809 36H49.5809ZM49.6449 36V32.772H47.6449V36H49.6449ZM48.6449 33.772H49.5389V31.772H48.6449V33.772ZM48.5389 32.772V33.684H50.5389V32.772H48.5389ZM50.4414 33.2533L50.3154 32.9893L48.5104 33.8507L48.6364 34.1147L50.4414 33.2533ZM50.3345 33.8081C50.3388 33.7979 50.3421 33.7921 50.3438 33.7895C50.3453 33.787 50.3459 33.7865 50.3454 33.787C50.3449 33.7876 50.3446 33.7878 50.3452 33.7874C50.3458 33.7869 50.3487 33.7847 50.3549 33.7813L49.3949 32.0267C48.9796 32.254 48.6727 32.601 48.4913 33.0319L50.3345 33.8081ZM50.3675 33.7743C50.3963 33.7579 50.4753 33.724 50.6489 33.724V31.724C50.2145 31.724 49.7775 31.8101 49.3823 32.0337L50.3675 33.7743ZM49.6489 32.724V33.588H51.6489V32.724H49.6489ZM50.7484 32.593C50.6833 32.5865 50.6133 32.582 50.5409 32.582V34.582C50.5362 34.582 50.5346 34.5819 50.5364 34.582C50.5382 34.5821 50.5424 34.5823 50.5494 34.583L50.7484 32.593ZM50.6649 32.5897C50.5874 32.58 50.5117 32.576 50.4389 32.576V34.576C50.4381 34.576 50.4304 34.576 50.4169 34.5743L50.6649 32.5897ZM50.4389 32.576C49.9779 32.576 49.5124 32.7156 49.1358 33.0639L50.4939 34.5321C50.4848 34.5406 50.4734 34.5493 50.4604 34.5571C50.4475 34.565 50.4355 34.5703 50.4261 34.5737C50.4068 34.5805 50.4072 34.576 50.4389 34.576V32.576ZM49.1366 33.0632C48.6976 33.4685 48.5809 34.0165 48.5809 34.476H50.5809C50.5809 34.4027 50.5906 34.3845 50.5847 34.4017C50.5813 34.4117 50.5733 34.4311 50.5577 34.4559C50.5417 34.4811 50.5203 34.5078 50.4932 34.5328L49.1366 33.0632ZM48.5809 34.476V36H50.5809V34.476H48.5809ZM49.5809 35H48.6449V37H49.5809V35Z" fill="black"/>
<defs>
<filter id="filter0_d_111_17" x="54.3" y="6.22" width="6" height="20" filterUnits="userSpaceOnUse" color-interpolation-filters="sRGB">
<feFlood flood-opacity="0" result="BackgroundImageFix"/>
<feColorMatrix in="SourceAlpha" type="matrix" values="0 0 0 0 0 0 0 0 0 0 0 0 0 0 0 0 0 0 127 0" result="hardAlpha"/>
<feOffset dy="1"/>
<feGaussianBlur stdDeviation="1"/>
<feComposite in2="hardAlpha" operator="out"/>
<feColorMatrix type="matrix" values="0 0 0 0 0 0 0 0 0 0 0 0 0 0 0 0 0 0 0.35 0"/>
<feBlend mode="normal" in2="BackgroundImageFix" result="effect1_dropShadow_111_17"/>
<feBlend mode="normal" in="SourceGraphic" in2="effect1_dropShadow_111_17" result="shape"/>
</filter>
<linearGradient id="paint0_linear_111_17" x1="57.3" y1="7.22" x2="57.3" y2="23.22" gradientUnits="userSpaceOnUse">
<stop stop-color="#FF4D00"/>
<stop offset="0.0885417" stop-color="#FF4D00"/>
<stop offset="1" stop-color="#FF0000"/>
</linearGradient>
<linearGradient id="paint1_linear_111_17" x1="66.6163" y1="6.15456" x2="66.6163" y2="23.3509" gradientUnits="userSpaceOnUse">
<stop stop-color="#FF4D00"/>
<stop offset="0.0885417" stop-color="#FF4D00"/>
<stop offset="1" stop-color="#FF0000"/>
</linearGradient>
<linearGradient id="paint2_linear_111_17" x1="38" y1="16" x2="38" y2="27" gradientUnits="userSpaceOnUse">
<stop stop-color="#FF4D00"/>
<stop offset="1" stop-color="#FF0000"/>
</linearGradient>
<linearGradient id="paint3_linear_111_17" x1="38" y1="30" x2="38" y2="37" gradientUnits="userSpaceOnUse">
<stop stop-color="white"/>
<stop offset="1" stop-color="#CFCFCF"/>
</linearGradient>
</defs>
</svg>
