<svg width="39" height="9" viewBox="0 0 39 9" fill="none" xmlns="http://www.w3.org/2000/svg">
<g clip-path="url(#clip0_1_2)">
<path d="M1 8V2H2V3H5V2H6V8H5V4H2V8H1ZM2 2V1H5V2H2ZM7 7V4H8V7H7ZM8 4V3H10V4H8ZM8 8V7H11V5H10V4H11V1H12V8H8ZM13 7V4H14V7H13ZM14 4V3H16V4H14ZM14 8V7H17V5H16V4H17V1H18V8H14ZM19 8V3H20V8H19ZM19 2V1H20V2H19ZM23 8V7H24V8H23ZM22 7V3H21V2H22V1H23V2H24V3H23V7H22ZM25 8V3H26V8H25ZM25 2V1H26V2H25ZM29 8V7H30V8H29ZM28 7V6H29V7H28ZM30 7V6H31V7H30ZM27 6V3H28V6H27ZM31 6V3H32V6H31ZM34 8V7H38V8H34ZM33 7V4H34V5H37V4H38V6H34V7H33ZM34 4V3H37V4H34Z" fill="url(#paint0_linear_1_2)"/>
<path d="M1 8H0V9H1V8ZM1 2V1H0V2H1ZM2 2H3V1H2V2ZM2 3H1V4H2V3ZM5 3V4H6V3H5ZM5 2V1H4V2H5ZM6 2H7V1H6V2ZM6 8V9H7V8H6ZM5 8H4V9H5V8ZM5 4H6V3H5V4ZM2 4V3H1V4H2ZM2 8V9H3V8H2ZM2 2H1V3H2V2ZM2 1V0H1V1H2ZM5 1H6V0H5V1ZM5 2V3H6V2H5ZM2 8V2H0V8H2ZM1 3H2V1H1V3ZM1 2V3H3V2H1ZM2 4H5V2H2V4ZM6 3V2H4V3H6ZM5 3H6V1H5V3ZM5 2V8H7V2H5ZM6 7H5V9H6V7ZM6 8V4H4V8H6ZM5 3H2V5H5V3ZM1 4V8H3V4H1ZM2 7H1V9H2V7ZM3 2V1H1V2H3ZM2 2H5V0H2V2ZM4 1V2H6V1H4ZM5 1H2V3H5V1ZM7 7H6V8H7V7ZM7 4V3H6V4H7ZM8 4H9V3H8V4ZM8 7V8H9V7H8ZM8 4H7V5H8V4ZM8 3V2H7V3H8ZM10 3H11V2H10V3ZM10 4V5H11V4H10ZM8 8H7V9H8V8ZM8 7V6H7V7H8ZM11 7V8H12V7H11ZM11 5H12V4H11V5ZM10 5H9V6H10V5ZM10 4V3H9V4H10ZM11 4V5H12V4H11ZM11 1V0H10V1H11ZM12 1H13V0H12V1ZM12 8V9H13V8H12ZM8 7V4H6V7H8ZM7 5H8V3H7V5ZM7 4V7H9V4H7ZM8 6H7V8H8V6ZM9 4V3H7V4H9ZM8 4H10V2H8V4ZM9 3V4H11V3H9ZM10 3H8V5H10V3ZM9 8V7H7V8H9ZM8 8H11V6H8V8ZM12 7V5H10V7H12ZM11 4H10V6H11V4ZM11 5V4H9V5H11ZM10 5H11V3H10V5ZM12 4V1H10V4H12ZM11 2H12V0H11V2ZM11 1V8H13V1H11ZM12 7H8V9H12V7ZM13 7H12V8H13V7ZM13 4V3H12V4H13ZM14 4H15V3H14V4ZM14 7V8H15V7H14ZM14 4H13V5H14V4ZM14 3V2H13V3H14ZM16 3H17V2H16V3ZM16 4V5H17V4H16ZM14 8H13V9H14V8ZM14 7V6H13V7H14ZM17 7V8H18V7H17ZM17 5H18V4H17V5ZM16 5H15V6H16V5ZM16 4V3H15V4H16ZM17 4V5H18V4H17ZM17 1V0H16V1H17ZM18 1H19V0H18V1ZM18 8V9H19V8H18ZM14 7V4H12V7H14ZM13 5H14V3H13V5ZM13 4V7H15V4H13ZM14 6H13V8H14V6ZM15 4V3H13V4H15ZM14 4H16V2H14V4ZM15 3V4H17V3H15ZM16 3H14V5H16V3ZM15 8V7H13V8H15ZM14 8H17V6H14V8ZM18 7V5H16V7H18ZM17 4H16V6H17V4ZM17 5V4H15V5H17ZM16 5H17V3H16V5ZM18 4V1H16V4H18ZM17 2H18V0H17V2ZM17 1V8H19V1H17ZM18 7H14V9H18V7ZM19 8H18V9H19V8ZM19 3V2H18V3H19ZM20 3H21V2H20V3ZM20 8V9H21V8H20ZM19 2H18V3H19V2ZM19 1V0H18V1H19ZM20 1H21V0H20V1ZM20 2V3H21V2H20ZM20 8V3H18V8H20ZM19 4H20V2H19V4ZM19 3V8H21V3H19ZM20 7H19V9H20V7ZM20 2V1H18V2H20ZM19 2H20V0H19V2ZM19 1V2H21V1H19ZM20 1H19V3H20V1ZM23 8H22V9H23V8ZM23 7V6H22V7H23ZM24 7H25V6H24V7ZM24 8V9H25V8H24ZM22 7H21V8H22V7ZM22 3H23V2H22V3ZM21 3H20V4H21V3ZM21 2V1H20V2H21ZM22 2V3H23V2H22ZM22 1V0H21V1H22ZM23 1H24V0H23V1ZM23 2H22V3H23V2ZM24 2H25V1H24V2ZM24 3V4H25V3H24ZM23 3V2H22V3H23ZM23 7V8H24V7H23ZM24 8V7H22V8H24ZM23 8H24V6H23V8ZM23 7V8H25V7H23ZM24 7H23V9H24V7ZM23 7V3H21V7H23ZM22 2H21V4H22V2ZM22 3V2H20V3H22ZM21 3H22V1H21V3ZM23 2V1H21V2H23ZM22 2H23V0H22V2ZM22 1V2H24V1H22ZM23 3H24V1H23V3ZM23 2V3H25V2H23ZM24 2H23V4H24V2ZM22 3V7H24V3H22ZM23 6H22V8H23V6ZM25 8H24V9H25V8ZM25 3V2H24V3H25ZM26 3H27V2H26V3ZM26 8V9H27V8H26ZM25 2H24V3H25V2ZM25 1V0H24V1H25ZM26 1H27V0H26V1ZM26 2V3H27V2H26ZM26 8V3H24V8H26ZM25 4H26V2H25V4ZM25 3V8H27V3H25ZM26 7H25V9H26V7ZM26 2V1H24V2H26ZM25 2H26V0H25V2ZM25 1V2H27V1H25ZM26 1H25V3H26V1ZM29 8H28V9H29V8ZM29 7V6H28V7H29ZM30 7H31V6H30V7ZM30 8V9H31V8H30ZM28 7H27V8H28V7ZM28 6V5H27V6H28ZM29 6H30V5H29V6ZM29 7V8H30V7H29ZM30 7H29V8H30V7ZM30 6V5H29V6H30ZM31 6H32V5H31V6ZM31 7V8H32V7H31ZM27 6H26V7H27V6ZM27 3V2H26V3H27ZM28 3H29V2H28V3ZM28 6V7H29V6H28ZM31 6H30V7H31V6ZM31 3V2H30V3H31ZM32 3H33V2H32V3ZM32 6V7H33V6H32ZM30 8V7H28V8H30ZM29 8H30V6H29V8ZM29 7V8H31V7H29ZM30 7H29V9H30V7ZM29 7V6H27V7H29ZM28 7H29V5H28V7ZM28 6V7H30V6H28ZM29 6H28V8H29V6ZM31 7V6H29V7H31ZM30 7H31V5H30V7ZM30 6V7H32V6H30ZM31 6H30V8H31V6ZM28 6V3H26V6H28ZM27 4H28V2H27V4ZM27 3V6H29V3H27ZM28 5H27V7H28V5ZM32 6V3H30V6H32ZM31 4H32V2H31V4ZM31 3V6H33V3H31ZM32 5H31V7H32V5ZM34 8H33V9H34V8ZM34 7V6H33V7H34ZM38 7H39V6H38V7ZM38 8V9H39V8H38ZM33 7H32V8H33V7ZM33 4V3H32V4H33ZM34 4H35V3H34V4ZM34 5H33V6H34V5ZM37 5V6H38V5H37ZM37 4V3H36V4H37ZM38 4H39V3H38V4ZM38 6V7H39V6H38ZM34 6V5H33V6H34ZM34 7V8H35V7H34ZM34 4H33V5H34V4ZM34 3V2H33V3H34ZM37 3H38V2H37V3ZM37 4V5H38V4H37ZM35 8V7H33V8H35ZM34 8H38V6H34V8ZM37 7V8H39V7H37ZM38 7H34V9H38V7ZM34 7V4H32V7H34ZM33 5H34V3H33V5ZM33 4V5H35V4H33ZM34 6H37V4H34V6ZM38 5V4H36V5H38ZM37 5H38V3H37V5ZM37 4V6H39V4H37ZM38 5H34V7H38V5ZM33 6V7H35V6H33ZM34 6H33V8H34V6ZM35 4V3H33V4H35ZM34 4H37V2H34V4ZM36 3V4H38V3H36ZM37 3H34V5H37V3Z" fill="black"/>
</g>
<defs>
<linearGradient id="paint0_linear_1_2" x1="20" y1="0" x2="20" y2="11" gradientUnits="userSpaceOnUse">
<stop stop-color="#FF4D00"/>
<stop offset="1" stop-color="#FF0000"/>
</linearGradient>
<clipPath id="clip0_1_2">
<rect width="39" height="9" fill="white"/>
</clipPath>
</defs>
</svg>
