<svg width="60" height="30" viewBox="0 0 60 30" fill="none" xmlns="http://www.w3.org/2000/svg">
<g clip-path="url(#clip0_1_4)">
<rect width="60" height="30" fill="#FFC3C3"/>
<path d="M37.3041 0.132413L49.222 8.69553L35.8471 14.7352L37.3041 0.132413Z" fill="#FF5E5E"/>
<path d="M42.6618 17.985L44.2424 29.4215L33.5478 25.072L42.6618 17.985Z" fill="#FFA337"/>
<path d="M14.5961 6.26641L21.7492 15.3286L10.3245 16.9924L14.5961 6.26641Z" fill="#FFEE57"/>
<g clip-path="url(#clip1_1_4)">
<rect x="40.9" y="9.61" width="1" height="8" fill="url(#paint0_linear_1_4)"/>
<mask id="mask0_1_4" style="mask-type:alpha" maskUnits="userSpaceOnUse" x="37" y="4" width="18" height="18">
<rect x="37.3629" y="11.8538" width="13.2485" height="11.8001" transform="rotate(-32.3303 37.3629 11.8538)" fill="#D9D9D9"/>
</mask>
<g mask="url(#mask0_1_4)">
<rect x="40.3308" y="7.89682" width="3.05354" height="11.3592" rx="1.52677" transform="rotate(-32.3276 40.3308 7.89682)" fill="white" fill-opacity="0.3" stroke="black" stroke-width="1.125"/>
</g>
<mask id="mask1_1_4" style="mask-type:alpha" maskUnits="userSpaceOnUse" x="41" y="7" width="7" height="10">
<rect x="41.0293" y="7.94859" width="1.92854" height="10.3795" rx="0.964273" transform="rotate(-32.3276 41.0293 7.94859)" fill="white"/>
</mask>
<g mask="url(#mask1_1_4)">
<rect x="40.1469" y="9.07728" width="11.8225" height="8.59818" fill="url(#paint1_linear_1_4)"/>
</g>
<path d="M11.5 21V15H12.5V16H15.5V15H16.5V21H15.5V17H12.5V21H11.5ZM12.5 15V14H15.5V15H12.5ZM17.5 20V17H18.5V20H17.5ZM18.5 17V16H20.5V17H18.5ZM18.5 21V20H21.5V18H20.5V17H21.5V14H22.5V21H18.5ZM23.5 20V17H24.5V20H23.5ZM24.5 17V16H26.5V17H24.5ZM24.5 21V20H27.5V18H26.5V17H27.5V14H28.5V21H24.5ZM29.5 21V16H30.5V21H29.5ZM29.5 15V14H30.5V15H29.5ZM33.5 21V20H34.5V21H33.5ZM32.5 20V16H31.5V15H32.5V14H33.5V15H34.5V16H33.5V20H32.5ZM35.5 21V16H36.5V21H35.5ZM35.5 15V14H36.5V15H35.5ZM39.5 21V20H40.5V21H39.5ZM38.5 20V19H39.5V20H38.5ZM40.5 20V19H41.5V20H40.5ZM37.5 19V16H38.5V19H37.5ZM41.5 19V16H42.5V19H41.5ZM44.5 21V20H48.5V21H44.5ZM43.5 20V17H44.5V18H47.5V17H48.5V19H44.5V20H43.5ZM44.5 17V16H47.5V17H44.5Z" fill="url(#paint2_linear_1_4)"/>
<path d="M11.5 21H10.5V22H11.5V21ZM11.5 15V14H10.5V15H11.5ZM12.5 15H13.5V14H12.5V15ZM12.5 16H11.5V17H12.5V16ZM15.5 16V17H16.5V16H15.5ZM15.5 15V14H14.5V15H15.5ZM16.5 15H17.5V14H16.5V15ZM16.5 21V22H17.5V21H16.5ZM15.5 21H14.5V22H15.5V21ZM15.5 17H16.5V16H15.5V17ZM12.5 17V16H11.5V17H12.5ZM12.5 21V22H13.5V21H12.5ZM12.5 15H11.5V16H12.5V15ZM12.5 14V13H11.5V14H12.5ZM15.5 14H16.5V13H15.5V14ZM15.5 15V16H16.5V15H15.5ZM12.5 21V15H10.5V21H12.5ZM11.5 16H12.5V14H11.5V16ZM11.5 15V16H13.5V15H11.5ZM12.5 17H15.5V15H12.5V17ZM16.5 16V15H14.5V16H16.5ZM15.5 16H16.5V14H15.5V16ZM15.5 15V21H17.5V15H15.5ZM16.5 20H15.5V22H16.5V20ZM16.5 21V17H14.5V21H16.5ZM15.5 16H12.5V18H15.5V16ZM11.5 17V21H13.5V17H11.5ZM12.5 20H11.5V22H12.5V20ZM13.5 15V14H11.5V15H13.5ZM12.5 15H15.5V13H12.5V15ZM14.5 14V15H16.5V14H14.5ZM15.5 14H12.5V16H15.5V14ZM17.5 20H16.5V21H17.5V20ZM17.5 17V16H16.5V17H17.5ZM18.5 17H19.5V16H18.5V17ZM18.5 20V21H19.5V20H18.5ZM18.5 17H17.5V18H18.5V17ZM18.5 16V15H17.5V16H18.5ZM20.5 16H21.5V15H20.5V16ZM20.5 17V18H21.5V17H20.5ZM18.5 21H17.5V22H18.5V21ZM18.5 20V19H17.5V20H18.5ZM21.5 20V21H22.5V20H21.5ZM21.5 18H22.5V17H21.5V18ZM20.5 18H19.5V19H20.5V18ZM20.5 17V16H19.5V17H20.5ZM21.5 17V18H22.5V17H21.5ZM21.5 14V13H20.5V14H21.5ZM22.5 14H23.5V13H22.5V14ZM22.5 21V22H23.5V21H22.5ZM18.5 20V17H16.5V20H18.5ZM17.5 18H18.5V16H17.5V18ZM17.5 17V20H19.5V17H17.5ZM18.5 19H17.5V21H18.5V19ZM19.5 17V16H17.5V17H19.5ZM18.5 17H20.5V15H18.5V17ZM19.5 16V17H21.5V16H19.5ZM20.5 16H18.5V18H20.5V16ZM19.5 21V20H17.5V21H19.5ZM18.5 21H21.5V19H18.5V21ZM22.5 20V18H20.5V20H22.5ZM21.5 17H20.5V19H21.5V17ZM21.5 18V17H19.5V18H21.5ZM20.5 18H21.5V16H20.5V18ZM22.5 17V14H20.5V17H22.5ZM21.5 15H22.5V13H21.5V15ZM21.5 14V21H23.5V14H21.5ZM22.5 20H18.5V22H22.5V20ZM23.5 20H22.5V21H23.5V20ZM23.5 17V16H22.5V17H23.5ZM24.5 17H25.5V16H24.5V17ZM24.5 20V21H25.5V20H24.5ZM24.5 17H23.5V18H24.5V17ZM24.5 16V15H23.5V16H24.5ZM26.5 16H27.5V15H26.5V16ZM26.5 17V18H27.5V17H26.5ZM24.5 21H23.5V22H24.5V21ZM24.5 20V19H23.5V20H24.5ZM27.5 20V21H28.5V20H27.5ZM27.5 18H28.5V17H27.5V18ZM26.5 18H25.5V19H26.5V18ZM26.5 17V16H25.5V17H26.5ZM27.5 17V18H28.5V17H27.5ZM27.5 14V13H26.5V14H27.5ZM28.5 14H29.5V13H28.5V14ZM28.5 21V22H29.5V21H28.5ZM24.5 20V17H22.5V20H24.5ZM23.5 18H24.5V16H23.5V18ZM23.5 17V20H25.5V17H23.5ZM24.5 19H23.5V21H24.5V19ZM25.5 17V16H23.5V17H25.5ZM24.5 17H26.5V15H24.5V17ZM25.5 16V17H27.5V16H25.5ZM26.5 16H24.5V18H26.5V16ZM25.5 21V20H23.5V21H25.5ZM24.5 21H27.5V19H24.5V21ZM28.5 20V18H26.5V20H28.5ZM27.5 17H26.5V19H27.5V17ZM27.5 18V17H25.5V18H27.5ZM26.5 18H27.5V16H26.5V18ZM28.5 17V14H26.5V17H28.5ZM27.5 15H28.5V13H27.5V15ZM27.5 14V21H29.5V14H27.5ZM28.5 20H24.5V22H28.5V20ZM29.5 21H28.5V22H29.5V21ZM29.5 16V15H28.5V16H29.5ZM30.5 16H31.5V15H30.5V16ZM30.5 21V22H31.5V21H30.5ZM29.5 15H28.5V16H29.5V15ZM29.5 14V13H28.5V14H29.5ZM30.5 14H31.5V13H30.5V14ZM30.5 15V16H31.5V15H30.5ZM30.5 21V16H28.5V21H30.5ZM29.5 17H30.5V15H29.5V17ZM29.5 16V21H31.5V16H29.5ZM30.5 20H29.5V22H30.5V20ZM30.5 15V14H28.5V15H30.5ZM29.5 15H30.5V13H29.5V15ZM29.5 14V15H31.5V14H29.5ZM30.5 14H29.5V16H30.5V14ZM33.5 21H32.5V22H33.5V21ZM33.5 20V19H32.5V20H33.5ZM34.5 20H35.5V19H34.5V20ZM34.5 21V22H35.5V21H34.5ZM32.5 20H31.5V21H32.5V20ZM32.5 16H33.5V15H32.5V16ZM31.5 16H30.5V17H31.5V16ZM31.5 15V14H30.5V15H31.5ZM32.5 15V16H33.5V15H32.5ZM32.5 14V13H31.5V14H32.5ZM33.5 14H34.5V13H33.5V14ZM33.5 15H32.5V16H33.5V15ZM34.5 15H35.5V14H34.5V15ZM34.5 16V17H35.5V16H34.5ZM33.5 16V15H32.5V16H33.5ZM33.5 20V21H34.5V20H33.5ZM34.5 21V20H32.5V21H34.5ZM33.5 21H34.5V19H33.5V21ZM33.5 20V21H35.5V20H33.5ZM34.5 20H33.5V22H34.5V20ZM33.5 20V16H31.5V20H33.5ZM32.5 15H31.5V17H32.5V15ZM32.5 16V15H30.5V16H32.5ZM31.5 16H32.5V14H31.5V16ZM33.5 15V14H31.5V15H33.5ZM32.5 15H33.5V13H32.5V15ZM32.5 14V15H34.5V14H32.5ZM33.5 16H34.5V14H33.5V16ZM33.5 15V16H35.5V15H33.5ZM34.5 15H33.5V17H34.5V15ZM32.5 16V20H34.5V16H32.5ZM33.5 19H32.5V21H33.5V19ZM35.5 21H34.5V22H35.5V21ZM35.5 16V15H34.5V16H35.5ZM36.5 16H37.5V15H36.5V16ZM36.5 21V22H37.5V21H36.5ZM35.5 15H34.5V16H35.5V15ZM35.5 14V13H34.5V14H35.5ZM36.5 14H37.5V13H36.5V14ZM36.5 15V16H37.5V15H36.5ZM36.5 21V16H34.5V21H36.5ZM35.5 17H36.5V15H35.5V17ZM35.5 16V21H37.5V16H35.5ZM36.5 20H35.5V22H36.5V20ZM36.5 15V14H34.5V15H36.5ZM35.5 15H36.5V13H35.5V15ZM35.5 14V15H37.5V14H35.5ZM36.5 14H35.5V16H36.5V14ZM39.5 21H38.5V22H39.5V21ZM39.5 20V19H38.5V20H39.5ZM40.5 20H41.5V19H40.5V20ZM40.5 21V22H41.5V21H40.5ZM38.5 20H37.5V21H38.5V20ZM38.5 19V18H37.5V19H38.5ZM39.5 19H40.5V18H39.5V19ZM39.5 20V21H40.5V20H39.5ZM40.5 20H39.5V21H40.5V20ZM40.5 19V18H39.5V19H40.5ZM41.5 19H42.5V18H41.5V19ZM41.5 20V21H42.5V20H41.5ZM37.5 19H36.5V20H37.5V19ZM37.5 16V15H36.5V16H37.5ZM38.5 16H39.5V15H38.5V16ZM38.5 19V20H39.5V19H38.5ZM41.5 19H40.5V20H41.5V19ZM41.5 16V15H40.5V16H41.5ZM42.5 16H43.5V15H42.5V16ZM42.5 19V20H43.5V19H42.5ZM40.5 21V20H38.5V21H40.5ZM39.5 21H40.5V19H39.5V21ZM39.5 20V21H41.5V20H39.5ZM40.5 20H39.5V22H40.5V20ZM39.5 20V19H37.5V20H39.5ZM38.5 20H39.5V18H38.5V20ZM38.5 19V20H40.5V19H38.5ZM39.5 19H38.5V21H39.5V19ZM41.5 20V19H39.5V20H41.5ZM40.5 20H41.5V18H40.5V20ZM40.5 19V20H42.5V19H40.5ZM41.5 19H40.5V21H41.5V19ZM38.5 19V16H36.5V19H38.5ZM37.5 17H38.5V15H37.5V17ZM37.5 16V19H39.5V16H37.5ZM38.5 18H37.5V20H38.5V18ZM42.5 19V16H40.5V19H42.5ZM41.5 17H42.5V15H41.5V17ZM41.5 16V19H43.5V16H41.5ZM42.5 18H41.5V20H42.5V18ZM44.5 21H43.5V22H44.5V21ZM44.5 20V19H43.5V20H44.5ZM48.5 20H49.5V19H48.5V20ZM48.5 21V22H49.5V21H48.5ZM43.5 20H42.5V21H43.5V20ZM43.5 17V16H42.5V17H43.5ZM44.5 17H45.5V16H44.5V17ZM44.5 18H43.5V19H44.5V18ZM47.5 18V19H48.5V18H47.5ZM47.5 17V16H46.5V17H47.5ZM48.5 17H49.5V16H48.5V17ZM48.5 19V20H49.5V19H48.5ZM44.5 19V18H43.5V19H44.5ZM44.5 20V21H45.5V20H44.5ZM44.5 17H43.5V18H44.5V17ZM44.5 16V15H43.5V16H44.5ZM47.5 16H48.5V15H47.5V16ZM47.5 17V18H48.5V17H47.5ZM45.5 21V20H43.5V21H45.5ZM44.5 21H48.5V19H44.5V21ZM47.5 20V21H49.5V20H47.5ZM48.5 20H44.5V22H48.5V20ZM44.5 20V17H42.5V20H44.5ZM43.5 18H44.5V16H43.5V18ZM43.5 17V18H45.5V17H43.5ZM44.5 19H47.5V17H44.5V19ZM48.5 18V17H46.5V18H48.5ZM47.5 18H48.5V16H47.5V18ZM47.5 17V19H49.5V17H47.5ZM48.5 18H44.5V20H48.5V18ZM43.5 19V20H45.5V19H43.5ZM44.5 19H43.5V21H44.5V19ZM45.5 17V16H43.5V17H45.5ZM44.5 17H47.5V15H44.5V17ZM46.5 16V17H48.5V16H46.5ZM47.5 16H44.5V18H47.5V16Z" fill="black"/>
</g>
</g>
<defs>
<linearGradient id="paint0_linear_1_4" x1="41.4" y1="9.61" x2="41.4" y2="17.61" gradientUnits="userSpaceOnUse">
<stop stop-color="#FF4D00"/>
<stop offset="0.0885417" stop-color="#FF4D00"/>
<stop offset="1" stop-color="#FF0000"/>
</linearGradient>
<linearGradient id="paint1_linear_1_4" x1="46.0581" y1="9.07728" x2="46.0581" y2="17.6755" gradientUnits="userSpaceOnUse">
<stop stop-color="#FF4D00"/>
<stop offset="0.0885417" stop-color="#FF4D00"/>
<stop offset="1" stop-color="#FF0000"/>
</linearGradient>
<linearGradient id="paint2_linear_1_4" x1="30.5" y1="13" x2="30.5" y2="24" gradientUnits="userSpaceOnUse">
<stop stop-color="#FF4D00"/>
<stop offset="1" stop-color="#FF0000"/>
</linearGradient>
<clipPath id="clip0_1_4">
<rect width="60" height="30" fill="white"/>
</clipPath>
<clipPath id="clip1_1_4">
<rect width="39" height="15" fill="white" transform="translate(10.5 7)"/>
</clipPath>
</defs>
</svg>
