<svg width="38" height="14" viewBox="0 0 38 14" fill="none" xmlns="http://www.w3.org/2000/svg">
<g clip-path="url(#clip0_1_27)">
<g filter="url(#filter0_d_1_27)">
<rect x="28.4" y="2.61" width="1" height="8" fill="url(#paint0_linear_1_27)"/>
</g>
<mask id="mask0_1_27" style="mask-type:alpha" maskUnits="userSpaceOnUse" x="24" y="-3" width="19" height="18">
<rect x="24.8629" y="4.85382" width="13.2485" height="11.8001" transform="rotate(-32.3303 24.8629 4.85382)" fill="#D9D9D9"/>
</mask>
<g mask="url(#mask0_1_27)">
<rect x="27.8308" y="0.896822" width="3.05354" height="11.3592" rx="1.52677" transform="rotate(-32.3276 27.8308 0.896822)" fill="white" fill-opacity="0.3" stroke="black" stroke-width="1.125"/>
</g>
<mask id="mask1_1_27" style="mask-type:alpha" maskUnits="userSpaceOnUse" x="28" y="0" width="8" height="10">
<rect x="28.5293" y="0.948589" width="1.92854" height="10.3795" rx="0.964273" transform="rotate(-32.3276 28.5293 0.948589)" fill="white"/>
</mask>
<g mask="url(#mask1_1_27)">
<rect x="27.6469" y="2.07728" width="11.8225" height="8.59818" fill="url(#paint1_linear_1_27)"/>
</g>
<path d="M1.34597 12L3.84197 6.4H5.12197L7.62597 12H6.26597L4.21797 7.056H4.72997L2.67397 12H1.34597ZM2.59397 10.8L2.93797 9.816H5.81797L6.16997 10.8H2.59397ZM9.92791 12.064C9.52257 12.064 9.15724 11.9733 8.83191 11.792C8.50657 11.6053 8.24791 11.3467 8.05591 11.016C7.86924 10.6853 7.77591 10.296 7.77591 9.848C7.77591 9.39467 7.86924 9.00267 8.05591 8.672C8.24791 8.34133 8.50657 8.08533 8.83191 7.904C9.15724 7.72267 9.52257 7.632 9.92791 7.632C10.2906 7.632 10.6079 7.712 10.8799 7.872C11.1519 8.032 11.3626 8.27467 11.5119 8.6C11.6612 8.92533 11.7359 9.34133 11.7359 9.848C11.7359 10.3493 11.6639 10.7653 11.5199 11.096C11.3759 11.4213 11.1679 11.664 10.8959 11.824C10.6292 11.984 10.3066 12.064 9.92791 12.064ZM10.1439 11.04C10.3466 11.04 10.5306 10.992 10.6959 10.896C10.8612 10.8 10.9919 10.664 11.0879 10.488C11.1892 10.3067 11.2399 10.0933 11.2399 9.848C11.2399 9.59733 11.1892 9.384 11.0879 9.208C10.9919 9.032 10.8612 8.896 10.6959 8.8C10.5306 8.704 10.3466 8.656 10.1439 8.656C9.93591 8.656 9.74924 8.704 9.58391 8.8C9.41857 8.896 9.28524 9.032 9.18391 9.208C9.08791 9.384 9.03991 9.59733 9.03991 9.848C9.03991 10.0933 9.08791 10.3067 9.18391 10.488C9.28524 10.664 9.41857 10.8 9.58391 10.896C9.74924 10.992 9.93591 11.04 10.1439 11.04ZM11.2719 12V11.12L11.2959 9.84L11.2159 8.568V6.064H12.4639V12H11.2719ZM15.467 12.064C15.0616 12.064 14.6963 11.9733 14.371 11.792C14.0456 11.6053 13.787 11.3467 13.595 11.016C13.4083 10.6853 13.315 10.296 13.315 9.848C13.315 9.39467 13.4083 9.00267 13.595 8.672C13.787 8.34133 14.0456 8.08533 14.371 7.904C14.6963 7.72267 15.0616 7.632 15.467 7.632C15.8296 7.632 16.147 7.712 16.419 7.872C16.691 8.032 16.9016 8.27467 17.051 8.6C17.2003 8.92533 17.275 9.34133 17.275 9.848C17.275 10.3493 17.203 10.7653 17.059 11.096C16.915 11.4213 16.707 11.664 16.435 11.824C16.1683 11.984 15.8456 12.064 15.467 12.064ZM15.683 11.04C15.8856 11.04 16.0696 10.992 16.235 10.896C16.4003 10.8 16.531 10.664 16.627 10.488C16.7283 10.3067 16.779 10.0933 16.779 9.848C16.779 9.59733 16.7283 9.384 16.627 9.208C16.531 9.032 16.4003 8.896 16.235 8.8C16.0696 8.704 15.8856 8.656 15.683 8.656C15.475 8.656 15.2883 8.704 15.123 8.8C14.9576 8.896 14.8243 9.032 14.723 9.208C14.627 9.384 14.579 9.59733 14.579 9.848C14.579 10.0933 14.627 10.3067 14.723 10.488C14.8243 10.664 14.9576 10.8 15.123 10.896C15.2883 10.992 15.475 11.04 15.683 11.04ZM16.811 12V11.12L16.835 9.84L16.755 8.568V6.064H18.003V12H16.811ZM19.158 12V7.696H20.406V12H19.158ZM19.782 7.096C19.5527 7.096 19.366 7.02933 19.222 6.896C19.078 6.76267 19.006 6.59733 19.006 6.4C19.006 6.20267 19.078 6.03733 19.222 5.904C19.366 5.77067 19.5527 5.704 19.782 5.704C20.0114 5.704 20.198 5.768 20.342 5.896C20.486 6.01867 20.558 6.17867 20.558 6.376C20.558 6.584 20.486 6.75733 20.342 6.896C20.2034 7.02933 20.0167 7.096 19.782 7.096ZM23.3243 12.064C22.8176 12.064 22.4229 11.936 22.1403 11.68C21.8576 11.4187 21.7163 11.032 21.7163 10.52V6.744H22.9643V10.504C22.9643 10.6853 23.0123 10.8267 23.1083 10.928C23.2043 11.024 23.3349 11.072 23.5003 11.072C23.6976 11.072 23.8656 11.0187 24.0043 10.912L24.3403 11.792C24.2123 11.8827 24.0576 11.952 23.8763 12C23.7003 12.0427 23.5163 12.064 23.3243 12.064ZM21.0523 8.752V7.792H24.0363V8.752H21.0523ZM25.0408 12V7.696H26.2888V12H25.0408ZM25.6648 7.096C25.4355 7.096 25.2488 7.02933 25.1048 6.896C24.9608 6.76267 24.8888 6.59733 24.8888 6.4C24.8888 6.20267 24.9608 6.03733 25.1048 5.904C25.2488 5.77067 25.4355 5.704 25.6648 5.704C25.8942 5.704 26.0808 5.768 26.2248 5.896C26.3688 6.01867 26.4408 6.17867 26.4408 6.376C26.4408 6.584 26.3688 6.75733 26.2248 6.896C26.0862 7.02933 25.8995 7.096 25.6648 7.096ZM28.6151 12L26.8071 7.696H28.0951L29.5991 11.4H28.9591L30.5191 7.696H31.7191L29.9031 12H28.6151ZM34.2472 12.064C33.7565 12.064 33.3245 11.968 32.9512 11.776C32.5832 11.584 32.2978 11.3227 32.0952 10.992C31.8925 10.656 31.7912 10.2747 31.7912 9.848C31.7912 9.416 31.8898 9.03467 32.0872 8.704C32.2898 8.368 32.5645 8.10667 32.9112 7.92C33.2578 7.728 33.6498 7.632 34.0872 7.632C34.5085 7.632 34.8872 7.72267 35.2232 7.904C35.5645 8.08 35.8338 8.336 36.0312 8.672C36.2285 9.00267 36.3272 9.4 36.3272 9.864C36.3272 9.912 36.3245 9.968 36.3192 10.032C36.3138 10.0907 36.3085 10.1467 36.3032 10.2H32.8072V9.472H35.6472L35.1672 9.688C35.1672 9.464 35.1218 9.26933 35.0312 9.104C34.9405 8.93867 34.8152 8.81067 34.6552 8.72C34.4952 8.624 34.3085 8.576 34.0952 8.576C33.8818 8.576 33.6925 8.624 33.5272 8.72C33.3672 8.81067 33.2418 8.94133 33.1512 9.112C33.0605 9.27733 33.0152 9.47467 33.0152 9.704V9.896C33.0152 10.1307 33.0658 10.3387 33.1672 10.52C33.2738 10.696 33.4205 10.832 33.6072 10.928C33.7992 11.0187 34.0232 11.064 34.2792 11.064C34.5085 11.064 34.7085 11.0293 34.8792 10.96C35.0552 10.8907 35.2152 10.7867 35.3592 10.648L36.0232 11.368C35.8258 11.592 35.5778 11.7653 35.2792 11.888C34.9805 12.0053 34.6365 12.064 34.2472 12.064Z" fill="url(#paint2_linear_1_27)"/>
<path d="M1.34597 12L0.432588 11.5929C0.294703 11.9023 0.322779 12.2604 0.507188 12.5445C0.691597 12.8286 1.00727 13 1.34597 13V12ZM3.84197 6.4V5.4C3.44716 5.4 3.08932 5.63229 2.92859 5.99289L3.84197 6.4ZM5.12197 6.4L6.03486 5.99181C5.87388 5.63178 5.51634 5.4 5.12197 5.4V6.4ZM7.62597 12V13C7.96488 13 8.28072 12.8283 8.46507 12.544C8.64943 12.2596 8.6772 11.9012 8.53886 11.5918L7.62597 12ZM6.26597 12L5.3421 12.3827C5.49688 12.7564 5.86151 13 6.26597 13V12ZM4.21797 7.056V6.056C3.88398 6.056 3.57204 6.22274 3.38649 6.50044C3.20094 6.77814 3.16628 7.13014 3.2941 7.4387L4.21797 7.056ZM4.72997 7.056L5.65331 7.43998C5.78165 7.13137 5.74732 6.77905 5.56183 6.50101C5.37633 6.22298 5.0642 6.056 4.72997 6.056V7.056ZM2.67397 12V13C3.07792 13 3.4422 12.757 3.59731 12.384L2.67397 12ZM2.59397 10.8L1.64999 10.47C1.54306 10.7759 1.59096 11.1146 1.77849 11.3788C1.96603 11.643 2.26996 11.8 2.59397 11.8V10.8ZM2.93797 9.816V8.816C2.51289 8.816 2.13427 9.08473 1.99399 9.48599L2.93797 9.816ZM5.81797 9.816L6.75954 9.47918C6.61726 9.08144 6.24039 8.816 5.81797 8.816V9.816ZM6.16997 10.8V11.8C6.49526 11.8 6.80022 11.6418 6.98753 11.3758C7.17485 11.1099 7.2211 10.7695 7.11154 10.4632L6.16997 10.8ZM2.25935 12.4071L4.75535 6.80711L2.92859 5.99289L0.432588 11.5929L2.25935 12.4071ZM3.84197 7.4H5.12197V5.4H3.84197V7.4ZM4.20907 6.80819L6.71307 12.4082L8.53886 11.5918L6.03486 5.99181L4.20907 6.80819ZM7.62597 11H6.26597V13H7.62597V11ZM7.18984 11.6173L5.14184 6.6733L3.2941 7.4387L5.3421 12.3827L7.18984 11.6173ZM4.21797 8.056H4.72997V6.056H4.21797V8.056ZM3.80663 6.67202L1.75063 11.616L3.59731 12.384L5.65331 7.43998L3.80663 6.67202ZM2.67397 11H1.34597V13H2.67397V11ZM3.53795 11.13L3.88195 10.146L1.99399 9.48599L1.64999 10.47L3.53795 11.13ZM2.93797 10.816H5.81797V8.816H2.93797V10.816ZM4.8764 10.1528L5.2284 11.1368L7.11154 10.4632L6.75954 9.47918L4.8764 10.1528ZM6.16997 9.8H2.59397V11.8H6.16997V9.8ZM8.83191 11.792L8.3342 12.6594L8.34505 12.6655L8.83191 11.792ZM8.05591 11.016L7.18502 11.5076L7.19112 11.5181L8.05591 11.016ZM8.05591 8.672L7.19105 8.16983L7.18508 8.18041L8.05591 8.672ZM8.83191 7.904L8.34505 7.03052L8.34505 7.03052L8.83191 7.904ZM10.8799 7.872L11.3869 7.01007L11.3869 7.01007L10.8799 7.872ZM11.5119 8.6L12.4207 8.18283L12.4207 8.18283L11.5119 8.6ZM11.5199 11.096L12.4344 11.5008L12.4367 11.4953L11.5199 11.096ZM10.8959 11.824L10.3889 10.962L10.3814 10.9665L10.8959 11.824ZM10.6959 10.896L10.1938 10.0312L10.1938 10.0312L10.6959 10.896ZM11.0879 10.488L10.2149 10.0002L10.21 10.0091L11.0879 10.488ZM11.0879 9.208L10.21 9.68685C10.2137 9.6936 10.2174 9.7003 10.2213 9.70696L11.0879 9.208ZM10.6959 8.8L10.1938 9.66479L10.1938 9.66479L10.6959 8.8ZM9.58391 8.8L10.086 9.66479L10.086 9.66479L9.58391 8.8ZM9.18391 9.208L8.31728 8.70904C8.31345 8.7157 8.30969 8.7224 8.30601 8.72915L9.18391 9.208ZM9.18391 10.488L8.30012 10.9559C8.30566 10.9663 8.31138 10.9767 8.31728 10.987L9.18391 10.488ZM9.58391 10.896L10.086 10.0312L10.086 10.0312L9.58391 10.896ZM11.2719 12H10.2719C10.2719 12.5523 10.7196 13 11.2719 13V12ZM11.2719 11.12L10.2721 11.1013C10.272 11.1075 10.2719 11.1138 10.2719 11.12L11.2719 11.12ZM11.2959 9.84L12.2957 9.85875C12.2962 9.83156 12.2956 9.80437 12.2939 9.77723L11.2959 9.84ZM11.2159 8.568H10.2159C10.2159 8.58894 10.2166 8.60987 10.2179 8.63077L11.2159 8.568ZM11.2159 6.064V5.064C10.6636 5.064 10.2159 5.51171 10.2159 6.064H11.2159ZM12.4639 6.064H13.4639C13.4639 5.51171 13.0162 5.064 12.4639 5.064V6.064ZM12.4639 12V13C13.0162 13 13.4639 12.5523 13.4639 12H12.4639ZM9.92791 11.064C9.67754 11.064 9.48231 11.0097 9.31876 10.9185L8.34505 12.6655C8.83217 12.937 9.36761 13.064 9.92791 13.064V11.064ZM9.32958 10.9246C9.15963 10.8271 9.02631 10.6958 8.9207 10.5139L7.19112 11.5181C7.4695 11.9976 7.85351 12.3835 8.33424 12.6594L9.32958 10.9246ZM8.92673 10.5244C8.83883 10.3687 8.77591 10.1549 8.77591 9.848H6.77591C6.77591 10.4371 6.89965 11.002 7.18508 11.5076L8.92673 10.5244ZM8.77591 9.848C8.77591 9.5335 8.83978 9.31762 8.92673 9.16359L7.18508 8.18041C6.8987 8.68771 6.77591 9.25583 6.77591 9.848H8.77591ZM8.9207 9.17414C9.02492 8.99464 9.15483 8.86885 9.31876 8.77748L8.34505 7.03052C7.85831 7.30181 7.47089 7.68803 7.19112 8.16986L8.9207 9.17414ZM9.31876 8.77748C9.48231 8.68633 9.67754 8.632 9.92791 8.632V6.632C9.36761 6.632 8.83217 6.75901 8.34505 7.03052L9.31876 8.77748ZM9.92791 8.632C10.1393 8.632 10.2763 8.67712 10.3729 8.73393L11.3869 7.01007C10.9395 6.74688 10.4418 6.632 9.92791 6.632V8.632ZM10.3729 8.73393C10.4456 8.77668 10.5272 8.85178 10.6031 9.01717L12.4207 8.18283C12.198 7.69755 11.8583 7.28732 11.3869 7.01007L10.3729 8.73393ZM10.6031 9.01717C10.6728 9.16905 10.7359 9.42967 10.7359 9.848H12.7359C12.7359 9.253 12.6497 8.68162 12.4207 8.18283L10.6031 9.01717ZM10.7359 9.848C10.7359 10.262 10.6753 10.531 10.6031 10.6967L12.4367 11.4953C12.6526 10.9997 12.7359 10.4367 12.7359 9.848H10.7359ZM10.6055 10.6913C10.5349 10.8507 10.4581 10.9214 10.3889 10.9621L11.4029 12.6859C11.8778 12.4066 12.2169 11.9919 12.4343 11.5007L10.6055 10.6913ZM10.3814 10.9665C10.3008 11.0149 10.1648 11.064 9.92791 11.064V13.064C10.4484 13.064 10.9577 12.9531 11.4104 12.6815L10.3814 10.9665ZM10.1439 12.04C10.5119 12.04 10.8709 11.9507 11.198 11.7608L10.1938 10.0312C10.1902 10.0333 10.1812 10.04 10.1439 10.04V12.04ZM11.198 11.7608C11.5294 11.5684 11.7867 11.2953 11.9658 10.9669L10.21 10.0091C10.2019 10.0241 10.1969 10.0291 10.1968 10.0292C10.1967 10.0293 10.1966 10.0293 10.1966 10.0294C10.1966 10.0294 10.1966 10.0294 10.1966 10.0294C10.1966 10.0294 10.1966 10.0294 10.1966 10.0294C10.1966 10.0294 10.1966 10.0294 10.1965 10.0294C10.1965 10.0295 10.1963 10.0296 10.1959 10.0299C10.1955 10.0302 10.1948 10.0306 10.1938 10.0312L11.198 11.7608ZM11.9608 10.9758C12.1594 10.6205 12.2399 10.2331 12.2399 9.848H10.2399C10.2399 9.95356 10.2191 9.99285 10.215 10.0002L11.9608 10.9758ZM12.2399 9.848C12.2399 9.4629 12.1615 9.06856 11.9545 8.70904L10.2213 9.70696C10.2169 9.69944 10.2399 9.73177 10.2399 9.848H12.2399ZM11.9658 8.72915C11.7867 8.40072 11.5294 8.12763 11.198 7.93521L10.1938 9.66479C10.1948 9.6654 10.1955 9.66585 10.1959 9.66611C10.1963 9.66637 10.1965 9.66652 10.1965 9.66656C10.1966 9.66658 10.1966 9.66659 10.1966 9.66658C10.1966 9.66658 10.1966 9.66658 10.1966 9.66658C10.1966 9.66658 10.1966 9.66659 10.1966 9.66663C10.1966 9.66666 10.1967 9.66673 10.1968 9.66683C10.1969 9.66688 10.2019 9.67192 10.21 9.68685L11.9658 8.72915ZM11.198 7.93521C10.8709 7.74528 10.5119 7.656 10.1439 7.656V9.656C10.1812 9.656 10.1902 9.66272 10.1938 9.66479L11.198 7.93521ZM10.1439 7.656C9.77553 7.656 9.41289 7.74295 9.08177 7.93521L10.086 9.66479C10.0888 9.66316 10.0916 9.66187 10.0969 9.66049C10.1028 9.659 10.1173 9.656 10.1439 9.656V7.656ZM9.08177 7.93521C8.75552 8.12464 8.50035 8.39108 8.31728 8.70904L10.0505 9.70696C10.0701 9.67292 10.0816 9.66735 10.086 9.66479L9.08177 7.93521ZM8.30601 8.72915C8.11225 9.08438 8.03991 9.4712 8.03991 9.848H10.0399C10.0399 9.786 10.0459 9.74456 10.0515 9.71951C10.0543 9.70714 10.057 9.69884 10.0588 9.6939C10.0606 9.68901 10.0618 9.68691 10.0618 9.68685L8.30601 8.72915ZM8.03991 9.848C8.03991 10.2247 8.11421 10.6047 8.30012 10.9559L10.0677 10.0201C10.0616 10.0086 10.0399 9.96199 10.0399 9.848H8.03991ZM8.31728 10.987C8.50035 11.3049 8.75552 11.5714 9.08177 11.7608L10.086 10.0312C10.0816 10.0286 10.0701 10.0231 10.0505 9.98904L8.31728 10.987ZM9.08177 11.7608C9.41289 11.9531 9.77553 12.04 10.1439 12.04V10.04C10.1173 10.04 10.1028 10.037 10.0969 10.0355C10.0916 10.0341 10.0888 10.0328 10.086 10.0312L9.08177 11.7608ZM12.2719 12V11.12H10.2719V12H12.2719ZM12.2717 11.1387L12.2957 9.85875L10.2961 9.82125L10.2721 11.1013L12.2717 11.1387ZM12.2939 9.77723L12.2139 8.50523L10.2179 8.63077L10.2979 9.90277L12.2939 9.77723ZM12.2159 8.568V6.064H10.2159V8.568H12.2159ZM11.2159 7.064H12.4639V5.064H11.2159V7.064ZM11.4639 6.064V12H13.4639V6.064H11.4639ZM12.4639 11H11.2719V13H12.4639V11ZM14.371 11.792L13.8733 12.6594L13.8841 12.6655L14.371 11.792ZM13.595 11.016L12.7241 11.5076L12.7302 11.5181L13.595 11.016ZM13.595 8.672L12.7301 8.16983L12.7241 8.18041L13.595 8.672ZM14.371 7.904L13.8841 7.03052L13.8841 7.03052L14.371 7.904ZM16.419 7.872L16.926 7.01007L16.926 7.01007L16.419 7.872ZM17.051 8.6L17.9598 8.18283L17.9598 8.18283L17.051 8.6ZM17.059 11.096L17.9734 11.5008L17.9758 11.4953L17.059 11.096ZM16.435 11.824L15.9279 10.962L15.9205 10.9665L16.435 11.824ZM16.235 10.896L15.7328 10.0312L15.7328 10.0312L16.235 10.896ZM16.627 10.488L15.754 10.0002L15.7491 10.0091L16.627 10.488ZM16.627 9.208L15.7491 9.68685C15.7528 9.6936 15.7565 9.7003 15.7603 9.70696L16.627 9.208ZM16.235 8.8L15.7328 9.66479L15.7328 9.66479L16.235 8.8ZM15.123 8.8L15.6251 9.66479L15.6251 9.66479L15.123 8.8ZM14.723 9.208L13.8563 8.70904C13.8525 8.7157 13.8488 8.7224 13.8451 8.72915L14.723 9.208ZM14.723 10.488L13.8392 10.9559C13.8447 10.9663 13.8504 10.9767 13.8563 10.987L14.723 10.488ZM15.123 10.896L15.6251 10.0312L15.6251 10.0312L15.123 10.896ZM16.811 12H15.811C15.811 12.5523 16.2587 13 16.811 13V12ZM16.811 11.12L15.8111 11.1013C15.811 11.1075 15.811 11.1138 15.811 11.12L16.811 11.12ZM16.835 9.84L17.8348 9.85875C17.8353 9.83156 17.8347 9.80437 17.833 9.77723L16.835 9.84ZM16.755 8.568H15.755C15.755 8.58894 15.7556 8.60987 15.7569 8.63077L16.755 8.568ZM16.755 6.064V5.064C16.2027 5.064 15.755 5.51171 15.755 6.064H16.755ZM18.003 6.064H19.003C19.003 5.51171 18.5553 5.064 18.003 5.064V6.064ZM18.003 12V13C18.5553 13 19.003 12.5523 19.003 12H18.003ZM15.467 11.064C15.2166 11.064 15.0214 11.0097 14.8578 10.9185L13.8841 12.6655C14.3712 12.937 14.9067 13.064 15.467 13.064V11.064ZM14.8686 10.9246C14.6987 10.8271 14.5654 10.6958 14.4598 10.5139L12.7302 11.5181C13.0086 11.9976 13.3926 12.3835 13.8733 12.6594L14.8686 10.9246ZM14.4658 10.5244C14.3779 10.3687 14.315 10.1549 14.315 9.848H12.315C12.315 10.4371 12.4387 11.002 12.7241 11.5076L14.4658 10.5244ZM14.315 9.848C14.315 9.5335 14.3788 9.31762 14.4658 9.16359L12.7241 8.18041C12.4378 8.68771 12.315 9.25583 12.315 9.848H14.315ZM14.4598 9.17414C14.564 8.99464 14.6939 8.86885 14.8578 8.77748L13.8841 7.03052C13.3974 7.30181 13.01 7.68803 12.7302 8.16986L14.4598 9.17414ZM14.8578 8.77748C15.0214 8.68633 15.2166 8.632 15.467 8.632V6.632C14.9067 6.632 14.3712 6.75901 13.8841 7.03052L14.8578 8.77748ZM15.467 8.632C15.6784 8.632 15.8154 8.67712 15.9119 8.73393L16.926 7.01007C16.4786 6.74688 15.9809 6.632 15.467 6.632V8.632ZM15.9119 8.73393C15.9846 8.77668 16.0662 8.85178 16.1421 9.01717L17.9598 8.18283C17.737 7.69755 17.3973 7.28732 16.926 7.01007L15.9119 8.73393ZM16.1421 9.01717C16.2119 9.16905 16.275 9.42967 16.275 9.848H18.275C18.275 9.253 18.1887 8.68162 17.9598 8.18283L16.1421 9.01717ZM16.275 9.848C16.275 10.262 16.2143 10.531 16.1421 10.6967L17.9758 11.4953C18.1916 10.9997 18.275 10.4367 18.275 9.848H16.275ZM16.1445 10.6913C16.0739 10.8507 15.9971 10.9214 15.9279 10.9621L16.942 12.6859C17.4168 12.4066 17.756 11.9919 17.9734 11.5007L16.1445 10.6913ZM15.9205 10.9665C15.8399 11.0149 15.7038 11.064 15.467 11.064V13.064C15.9874 13.064 16.4967 12.9531 16.9495 12.6815L15.9205 10.9665ZM15.683 12.04C16.051 12.04 16.41 11.9507 16.7371 11.7608L15.7328 10.0312C15.7293 10.0333 15.7203 10.04 15.683 10.04V12.04ZM16.7371 11.7608C17.0685 11.5684 17.3257 11.2953 17.5049 10.9669L15.7491 10.0091C15.7409 10.0241 15.7359 10.0291 15.7359 10.0292C15.7358 10.0293 15.7357 10.0293 15.7357 10.0294C15.7356 10.0294 15.7356 10.0294 15.7356 10.0294C15.7356 10.0294 15.7356 10.0294 15.7356 10.0294C15.7356 10.0294 15.7356 10.0294 15.7356 10.0294C15.7355 10.0295 15.7354 10.0296 15.735 10.0299C15.7346 10.0302 15.7339 10.0306 15.7328 10.0312L16.7371 11.7608ZM17.4999 10.9758C17.6985 10.6205 17.779 10.2331 17.779 9.848H15.779C15.779 9.95356 15.7581 9.99285 15.754 10.0002L17.4999 10.9758ZM17.779 9.848C17.779 9.4629 17.7006 9.06856 17.4936 8.70904L15.7603 9.70696C15.756 9.69944 15.779 9.73177 15.779 9.848H17.779ZM17.5049 8.72915C17.3257 8.40072 17.0685 8.12763 16.7371 7.93521L15.7328 9.66479C15.7339 9.6654 15.7346 9.66585 15.735 9.66611C15.7354 9.66637 15.7355 9.66652 15.7356 9.66656C15.7356 9.66658 15.7356 9.66659 15.7356 9.66658C15.7356 9.66658 15.7356 9.66658 15.7356 9.66658C15.7356 9.66658 15.7356 9.66659 15.7357 9.66663C15.7357 9.66666 15.7358 9.66673 15.7359 9.66683C15.7359 9.66688 15.7409 9.67192 15.7491 9.68685L17.5049 8.72915ZM16.7371 7.93521C16.41 7.74528 16.051 7.656 15.683 7.656V9.656C15.7203 9.656 15.7293 9.66272 15.7328 9.66479L16.7371 7.93521ZM15.683 7.656C15.3146 7.656 14.952 7.74295 14.6208 7.93521L15.6251 9.66479C15.6279 9.66316 15.6307 9.66187 15.636 9.66049C15.6418 9.659 15.6564 9.656 15.683 9.656V7.656ZM14.6208 7.93521C14.2946 8.12464 14.0394 8.39108 13.8563 8.70904L15.5896 9.70696C15.6092 9.67292 15.6207 9.66735 15.6251 9.66479L14.6208 7.93521ZM13.8451 8.72915C13.6513 9.08438 13.579 9.4712 13.579 9.848H15.579C15.579 9.786 15.5849 9.74456 15.5906 9.71951C15.5934 9.70714 15.596 9.69884 15.5979 9.6939C15.5997 9.68901 15.6008 9.68691 15.6009 9.68685L13.8451 8.72915ZM13.579 9.848C13.579 10.2247 13.6533 10.6047 13.8392 10.9559L15.6068 10.0201C15.6007 10.0086 15.579 9.96199 15.579 9.848H13.579ZM13.8563 10.987C14.0394 11.3049 14.2946 11.5714 14.6208 11.7608L15.6251 10.0312C15.6207 10.0286 15.6092 10.0231 15.5896 9.98904L13.8563 10.987ZM14.6208 11.7608C14.952 11.9531 15.3146 12.04 15.683 12.04V10.04C15.6564 10.04 15.6418 10.037 15.636 10.0355C15.6307 10.0341 15.6279 10.0328 15.6251 10.0312L14.6208 11.7608ZM17.811 12V11.12H15.811V12H17.811ZM17.8108 11.1387L17.8348 9.85875L15.8351 9.82125L15.8111 11.1013L17.8108 11.1387ZM17.833 9.77723L17.753 8.50523L15.7569 8.63077L15.8369 9.90277L17.833 9.77723ZM17.755 8.568V6.064H15.755V8.568H17.755ZM16.755 7.064H18.003V5.064H16.755V7.064ZM17.003 6.064V12H19.003V6.064H17.003ZM18.003 11H16.811V13H18.003V11ZM19.158 12H18.158C18.158 12.5523 18.6057 13 19.158 13V12ZM19.158 7.696V6.696C18.6057 6.696 18.158 7.14371 18.158 7.696H19.158ZM20.406 7.696H21.406C21.406 7.14371 20.9583 6.696 20.406 6.696V7.696ZM20.406 12V13C20.9583 13 21.406 12.5523 21.406 12H20.406ZM19.222 6.896L18.5426 7.62976L18.5426 7.62976L19.222 6.896ZM19.222 5.904L19.9014 6.63776L19.9014 6.63776L19.222 5.904ZM20.342 5.896L19.6777 6.64341C19.6829 6.64808 19.6882 6.65269 19.6936 6.65724L20.342 5.896ZM20.342 6.896L21.0351 7.61683L21.0357 7.61632L20.342 6.896ZM20.158 12V7.696H18.158V12H20.158ZM19.158 8.696H20.406V6.696H19.158V8.696ZM19.406 7.696V12H21.406V7.696H19.406ZM20.406 11H19.158V13H20.406V11ZM19.782 6.096C19.7643 6.096 19.7763 6.09351 19.8064 6.10426C19.839 6.1159 19.8733 6.13617 19.9014 6.16224L18.5426 7.62976C18.9022 7.96272 19.3461 8.096 19.782 8.096V6.096ZM19.9014 6.16224C19.9218 6.1811 19.953 6.21786 19.9769 6.27273C20.0007 6.32747 20.006 6.37434 20.006 6.4H18.006C18.006 6.87414 18.1929 7.30598 18.5426 7.62976L19.9014 6.16224ZM20.006 6.4C20.006 6.42566 20.0007 6.47252 19.9769 6.52727C19.953 6.58214 19.9218 6.61891 19.9014 6.63776L18.5426 5.17024C18.1929 5.49402 18.006 5.92586 18.006 6.4H20.006ZM19.9014 6.63776C19.8733 6.66382 19.839 6.6841 19.8064 6.69574C19.7763 6.70649 19.7643 6.704 19.782 6.704V4.704C19.3461 4.704 18.9022 4.83727 18.5426 5.17024L19.9014 6.63776ZM19.782 6.704C19.8039 6.704 19.7961 6.70701 19.7697 6.69795C19.7408 6.68802 19.7072 6.66963 19.6777 6.64341L21.0064 5.14859C20.6457 4.82795 20.2071 4.704 19.782 4.704V6.704ZM19.6936 6.65724C19.6618 6.6302 19.6215 6.58372 19.5921 6.51836C19.5632 6.45414 19.558 6.40113 19.558 6.376H21.558C21.558 5.90016 21.3683 5.45662 20.9905 5.13476L19.6936 6.65724ZM19.558 6.376C19.558 6.36261 19.5608 6.32583 19.5805 6.27839C19.6006 6.2301 19.628 6.19531 19.6484 6.17568L21.0357 7.61632C21.3841 7.28076 21.558 6.84342 21.558 6.376H19.558ZM19.6489 6.17517C19.6847 6.14078 19.726 6.11702 19.7617 6.10426C19.7941 6.09268 19.8053 6.096 19.782 6.096V8.096C20.215 8.096 20.6709 7.96703 21.0351 7.61683L19.6489 6.17517ZM22.1403 11.68L21.4614 12.4143L21.469 12.4212L22.1403 11.68ZM21.7163 6.744V5.744C21.164 5.744 20.7163 6.19172 20.7163 6.744H21.7163ZM22.9643 6.744H23.9643C23.9643 6.19172 23.5166 5.744 22.9643 5.744V6.744ZM23.1083 10.928L22.3823 11.6157C22.3885 11.6223 22.3948 11.6287 22.4012 11.6351L23.1083 10.928ZM24.0043 10.912L24.9385 10.5553C24.8258 10.2601 24.5801 10.0355 24.276 9.94962C23.9719 9.86375 23.6451 9.9267 23.3946 10.1194L24.0043 10.912ZM24.3403 11.792L24.9183 12.608C25.2907 12.3442 25.4373 11.8617 25.2745 11.4353L24.3403 11.792ZM23.8763 12L24.1119 12.9719C24.1187 12.9702 24.1254 12.9685 24.1322 12.9667L23.8763 12ZM21.0523 8.752H20.0523C20.0523 9.30428 20.5 9.752 21.0523 9.752V8.752ZM21.0523 7.792V6.792C20.5 6.792 20.0523 7.23972 20.0523 7.792H21.0523ZM24.0363 7.792H25.0363C25.0363 7.23972 24.5886 6.792 24.0363 6.792V7.792ZM24.0363 8.752V9.752C24.5886 9.752 25.0363 9.30428 25.0363 8.752H24.0363ZM23.3243 11.064C22.9826 11.064 22.8568 10.9798 22.8116 10.9388L21.469 12.4212C21.9891 12.8922 22.6526 13.064 23.3243 13.064V11.064ZM22.8191 10.9457C22.8026 10.9304 22.7163 10.8495 22.7163 10.52H20.7163C20.7163 11.2145 20.9126 11.9069 21.4614 12.4143L22.8191 10.9457ZM22.7163 10.52V6.744H20.7163V10.52H22.7163ZM21.7163 7.744H22.9643V5.744H21.7163V7.744ZM21.9643 6.744V10.504H23.9643V6.744H21.9643ZM21.9643 10.504C21.9643 10.8621 22.0626 11.2782 22.3823 11.6157L23.8342 10.2403C23.8922 10.3014 23.9281 10.3682 23.9472 10.4244C23.965 10.4768 23.9643 10.508 23.9643 10.504H21.9643ZM22.4012 11.6351C22.7242 11.9581 23.1313 12.072 23.5003 12.072V10.072C23.5137 10.072 23.5594 10.0739 23.6231 10.0973C23.6903 10.122 23.7582 10.1637 23.8154 10.2209L22.4012 11.6351ZM23.5003 12.072C23.8885 12.072 24.2784 11.9628 24.614 11.7046L23.3946 10.1194C23.4182 10.1012 23.4456 10.0872 23.4717 10.0789C23.4965 10.071 23.5084 10.072 23.5003 10.072V12.072ZM23.0701 11.2687L23.4061 12.1487L25.2745 11.4353L24.9385 10.5553L23.0701 11.2687ZM23.7623 10.976C23.7488 10.9855 23.7083 11.01 23.6204 11.0333L24.1322 12.9667C24.407 12.894 24.6758 12.7798 24.9183 12.608L23.7623 10.976ZM23.6407 11.0281C23.5463 11.051 23.4417 11.064 23.3243 11.064V13.064C23.5909 13.064 23.8543 13.0343 24.1119 12.9719L23.6407 11.0281ZM22.0523 8.752V7.792H20.0523V8.752H22.0523ZM21.0523 8.792H24.0363V6.792H21.0523V8.792ZM23.0363 7.792V8.752H25.0363V7.792H23.0363ZM24.0363 7.752H21.0523V9.752H24.0363V7.752ZM25.0408 12H24.0408C24.0408 12.5523 24.4886 13 25.0408 13V12ZM25.0408 7.696V6.696C24.4886 6.696 24.0408 7.14371 24.0408 7.696H25.0408ZM26.2888 7.696H27.2888C27.2888 7.14371 26.8411 6.696 26.2888 6.696V7.696ZM26.2888 12V13C26.8411 13 27.2888 12.5523 27.2888 12H26.2888ZM25.1048 6.896L24.4254 7.62976L24.4254 7.62976L25.1048 6.896ZM25.1048 5.904L25.7843 6.63776L25.7843 6.63776L25.1048 5.904ZM26.2248 5.896L25.5605 6.64341C25.5657 6.64808 25.571 6.65269 25.5764 6.65724L26.2248 5.896ZM26.2248 6.896L26.918 7.61683L26.9185 7.61632L26.2248 6.896ZM26.0408 12V7.696H24.0408V12H26.0408ZM25.0408 8.696H26.2888V6.696H25.0408V8.696ZM25.2888 7.696V12H27.2888V7.696H25.2888ZM26.2888 11H25.0408V13H26.2888V11ZM25.6648 6.096C25.6471 6.096 25.6591 6.09351 25.6892 6.10426C25.7218 6.1159 25.7561 6.13617 25.7843 6.16224L24.4254 7.62976C24.785 7.96272 25.2289 8.096 25.6648 8.096V6.096ZM25.7843 6.16224C25.8046 6.1811 25.8358 6.21786 25.8597 6.27273C25.8835 6.32747 25.8888 6.37434 25.8888 6.4H23.8888C23.8888 6.87414 24.0758 7.30598 24.4254 7.62976L25.7843 6.16224ZM25.8888 6.4C25.8888 6.42566 25.8835 6.47252 25.8597 6.52727C25.8358 6.58214 25.8046 6.61891 25.7843 6.63776L24.4254 5.17024C24.0758 5.49402 23.8888 5.92586 23.8888 6.4H25.8888ZM25.7843 6.63776C25.7561 6.66382 25.7218 6.6841 25.6892 6.69574C25.6591 6.70649 25.6471 6.704 25.6648 6.704V4.704C25.2289 4.704 24.785 4.83727 24.4254 5.17024L25.7843 6.63776ZM25.6648 6.704C25.6867 6.704 25.679 6.70701 25.6525 6.69795C25.6236 6.68802 25.59 6.66963 25.5605 6.64341L26.8892 5.14859C26.5285 4.82795 26.0899 4.704 25.6648 4.704V6.704ZM25.5764 6.65724C25.5446 6.6302 25.5043 6.58372 25.4749 6.51836C25.446 6.45414 25.4408 6.40113 25.4408 6.376H27.4408C27.4408 5.90016 27.2511 5.45662 26.8733 5.13476L25.5764 6.65724ZM25.4408 6.376C25.4408 6.36261 25.4436 6.32583 25.4633 6.27839C25.4834 6.2301 25.5108 6.19531 25.5312 6.17568L26.9185 7.61632C27.267 7.28076 27.4408 6.84342 27.4408 6.376H25.4408ZM25.5317 6.17517C25.5675 6.14078 25.6088 6.11702 25.6445 6.10426C25.6769 6.09268 25.6881 6.096 25.6648 6.096V8.096C26.0978 8.096 26.5537 7.96703 26.918 7.61683L25.5317 6.17517ZM28.6151 12L27.6931 12.3873C27.8491 12.7585 28.2124 13 28.6151 13V12ZM26.8071 7.696V6.696C26.4722 6.696 26.1596 6.86361 25.9742 7.14251C25.7889 7.4214 25.7554 7.77456 25.8851 8.08329L26.8071 7.696ZM28.0951 7.696L29.0216 7.31978C28.8685 6.94268 28.5021 6.696 28.0951 6.696V7.696ZM29.5991 11.4V12.4C29.9318 12.4 30.2428 12.2345 30.4286 11.9585C30.6144 11.6825 30.6508 11.3321 30.5256 11.0238L29.5991 11.4ZM28.9591 11.4L28.0375 11.0119C27.9075 11.3206 27.9407 11.674 28.126 11.9531C28.3113 12.2322 28.6241 12.4 28.9591 12.4V11.4ZM30.5191 7.696V6.696C30.1168 6.696 29.7537 6.93709 29.5975 7.30785L30.5191 7.696ZM31.7191 7.696L32.6404 8.08475C32.7707 7.77596 32.7377 7.42244 32.5524 7.14316C32.3671 6.86389 32.0542 6.696 31.7191 6.696V7.696ZM29.9031 12V13C30.3052 13 30.6681 12.7592 30.8244 12.3887L29.9031 12ZM29.5371 11.6127L27.7291 7.30871L25.8851 8.08329L27.6931 12.3873L29.5371 11.6127ZM26.8071 8.696H28.0951V6.696H26.8071V8.696ZM27.1686 8.07222L28.6726 11.7762L30.5256 11.0238L29.0216 7.31978L27.1686 8.07222ZM29.5991 10.4H28.9591V12.4H29.5991V10.4ZM29.8807 11.7881L31.4407 8.08415L29.5975 7.30785L28.0375 11.0119L29.8807 11.7881ZM30.5191 8.696H31.7191V6.696H30.5191V8.696ZM30.7977 7.30725L28.9817 11.6113L30.8244 12.3887L32.6404 8.08475L30.7977 7.30725ZM29.9031 11H28.6151V13H29.9031V11ZM32.9512 11.776L32.4886 12.6626L32.4938 12.6653L32.9512 11.776ZM32.0952 10.992L31.2388 11.5085L31.2426 11.5146L32.0952 10.992ZM32.0872 8.704L31.2309 8.1875L31.2284 8.19154L32.0872 8.704ZM32.9112 7.92L33.3853 8.80053L33.3957 8.79479L32.9112 7.92ZM35.2232 7.904L34.7482 8.78402C34.7537 8.787 34.7593 8.78993 34.7649 8.7928L35.2232 7.904ZM36.0312 8.672L35.1688 9.17843L35.1724 9.18446L36.0312 8.672ZM36.3192 10.032L37.3151 10.1225L37.3157 10.115L36.3192 10.032ZM36.3032 10.2V11.2C36.8169 11.2 37.2471 10.8107 37.2982 10.2995L36.3032 10.2ZM32.8072 10.2H31.8072C31.8072 10.7523 32.2549 11.2 32.8072 11.2V10.2ZM32.8072 9.472V8.472C32.2549 8.472 31.8072 8.91972 31.8072 9.472H32.8072ZM35.6472 9.472L36.0575 10.3839C36.4874 10.1905 36.7238 9.72306 36.6249 9.26214C36.526 8.80123 36.1186 8.472 35.6472 8.472V9.472ZM35.1672 9.688H34.1672C34.1672 10.0273 34.3392 10.3435 34.6242 10.5278C34.9091 10.712 35.2681 10.7392 35.5775 10.5999L35.1672 9.688ZM35.0312 9.104L34.1543 9.58483L34.1543 9.58483L35.0312 9.104ZM34.6552 8.72L34.1407 9.57749C34.1478 9.58176 34.1549 9.58593 34.1621 9.59002L34.6552 8.72ZM33.5272 8.72L34.0202 9.59007L34.0293 9.58479L33.5272 8.72ZM33.1512 9.112L34.028 9.59287L34.0343 9.58116L33.1512 9.112ZM33.1672 10.52L32.2942 11.0078C32.2999 11.0181 32.3059 11.0282 32.312 11.0383L33.1672 10.52ZM33.6072 10.928L33.1498 11.8173C33.1598 11.8224 33.17 11.8274 33.1802 11.8322L33.6072 10.928ZM34.8792 10.96L34.5126 10.0295L34.5028 10.0335L34.8792 10.96ZM35.3592 10.648L36.0943 9.97006C35.9119 9.77234 35.6576 9.65641 35.3888 9.64844C35.12 9.64047 34.8592 9.74112 34.6655 9.92768L35.3592 10.648ZM36.0232 11.368L36.7735 12.029C37.1121 11.6447 37.1055 11.0666 36.7583 10.6901L36.0232 11.368ZM35.2792 11.888L35.6448 12.8188C35.6496 12.8169 35.6543 12.815 35.6591 12.813L35.2792 11.888ZM34.2472 11.064C33.8887 11.064 33.6183 10.9946 33.4085 10.8867L32.4938 12.6653C33.0307 12.9414 33.6242 13.064 34.2472 13.064V11.064ZM33.4137 10.8894C33.1946 10.7751 33.0491 10.6348 32.9478 10.4694L31.2426 11.5146C31.5465 12.0105 31.9717 12.3929 32.4886 12.6626L33.4137 10.8894ZM32.9514 10.4755C32.8509 10.3089 32.7912 10.1091 32.7912 9.848H30.7912C30.7912 10.4403 30.934 11.0031 31.2389 11.5085L32.9514 10.4755ZM32.7912 9.848C32.7912 9.57391 32.8519 9.37392 32.9459 9.21646L31.2284 8.19154C30.9277 8.69542 30.7912 9.25809 30.7912 9.848H32.7912ZM32.9434 9.22049C33.0533 9.03841 33.1957 8.90253 33.3853 8.80047L32.4371 7.03953C31.9333 7.3108 31.5264 7.69759 31.2309 8.18751L32.9434 9.22049ZM33.3957 8.79479C33.5791 8.6932 33.8014 8.632 34.0872 8.632V6.632C33.4983 6.632 32.9366 6.7628 32.4267 7.04521L33.3957 8.79479ZM34.0872 8.632C34.3602 8.632 34.5728 8.68936 34.7482 8.78402L35.6981 7.02398C35.2015 6.75598 34.6568 6.632 34.0872 6.632V8.632ZM34.7649 8.7928C34.9355 8.88078 35.0658 9.003 35.1689 9.17842L36.8934 8.16558C36.6018 7.669 36.1935 7.27922 35.6814 7.0152L34.7649 8.7928ZM35.1724 9.18446C35.26 9.33117 35.3272 9.54336 35.3272 9.864H37.3272C37.3272 9.25664 37.197 8.67417 36.8899 8.15954L35.1724 9.18446ZM35.3272 9.864C35.3272 9.87684 35.3264 9.904 35.3226 9.94896L37.3157 10.115C37.3226 10.032 37.3272 9.94716 37.3272 9.864H35.3272ZM35.3233 9.94146C35.3182 9.99743 35.3131 10.0504 35.3081 10.1005L37.2982 10.2995C37.3039 10.2429 37.3095 10.1839 37.315 10.1225L35.3233 9.94146ZM36.3032 9.2H32.8072V11.2H36.3032V9.2ZM33.8072 10.2V9.472H31.8072V10.2H33.8072ZM32.8072 10.472H35.6472V8.472H32.8072V10.472ZM35.2368 8.56008L34.7568 8.77608L35.5775 10.5999L36.0575 10.3839L35.2368 8.56008ZM36.1672 9.688C36.1672 9.3275 36.0934 8.96129 35.908 8.62317L34.1543 9.58483C34.1533 9.58299 34.156 9.58686 34.1592 9.60081C34.1626 9.61548 34.1672 9.64332 34.1672 9.688H36.1672ZM35.908 8.62317C35.7304 8.29932 35.474 8.03463 35.1482 7.84998L34.1621 9.59002C34.1629 9.59047 34.1622 9.59009 34.1604 9.58873C34.1586 9.58734 34.1566 9.58558 34.1546 9.58362C34.1527 9.58168 34.1517 9.58029 34.1514 9.57995C34.1512 9.57964 34.1523 9.58105 34.1543 9.58483L35.908 8.62317ZM35.1697 7.86251C34.833 7.66052 34.4633 7.576 34.0952 7.576V9.576C34.1267 9.576 34.1423 9.57951 34.1461 9.58049C34.1492 9.58128 34.146 9.58072 34.1407 9.57749L35.1697 7.86251ZM34.0952 7.576C33.7264 7.576 33.36 7.66071 33.025 7.85521L34.0293 9.58479C34.03 9.58436 34.0322 9.58304 34.0389 9.58133C34.0462 9.57947 34.0638 9.576 34.0952 9.576V7.576ZM33.0341 7.84998C32.7 8.03932 32.4432 8.31314 32.268 8.64284L34.0343 9.58116C34.0356 9.57863 34.0367 9.57686 34.0373 9.57574C34.038 9.57463 34.0384 9.57411 34.0384 9.5741C34.0384 9.57409 34.0381 9.5745 34.0375 9.57526C34.0369 9.57602 34.036 9.57704 34.0348 9.57823C34.0325 9.58071 34.0296 9.58329 34.0266 9.58565C34.0235 9.58799 34.0212 9.58942 34.0202 9.59002L33.0341 7.84998ZM32.2743 8.63117C32.0871 8.97256 32.0152 9.34265 32.0152 9.704H34.0152C34.0152 9.60668 34.0339 9.5821 34.028 9.59283L32.2743 8.63117ZM32.0152 9.704V9.896H34.0152V9.704H32.0152ZM32.0152 9.896C32.0152 10.2789 32.0992 10.6589 32.2942 11.0078L34.0401 10.0322C34.0324 10.0184 34.0152 9.98239 34.0152 9.896H32.0152ZM32.312 11.0383C32.5164 11.3756 32.8022 11.6385 33.1498 11.8173L34.0645 10.0387C34.0387 10.0255 34.0312 10.0164 34.0224 10.0017L32.312 11.0383ZM33.1802 11.8322C33.5303 11.9976 33.9054 12.064 34.2792 12.064V10.064C34.1409 10.064 34.068 10.0397 34.0342 10.0238L33.1802 11.8322ZM34.2792 12.064C34.607 12.064 34.94 12.0147 35.2555 11.8865L34.5028 10.0335C34.477 10.044 34.41 10.064 34.2792 10.064V12.064ZM35.2457 11.8904C35.5502 11.7704 35.82 11.5925 36.0528 11.3683L34.6655 9.92768C34.6103 9.98082 34.5601 10.0109 34.5126 10.0296L35.2457 11.8904ZM34.624 11.3259L35.288 12.0459L36.7583 10.6901L36.0943 9.97006L34.624 11.3259ZM35.2728 10.707C35.1851 10.8065 35.0676 10.8938 34.8992 10.963L35.6591 12.813C36.088 12.6368 36.4665 12.3775 36.7735 12.029L35.2728 10.707ZM34.9135 10.9572C34.7533 11.0202 34.5373 11.064 34.2472 11.064V13.064C34.7357 13.064 35.2077 12.9905 35.6448 12.8188L34.9135 10.9572Z" fill="black"/>
</g>
<defs>
<filter id="filter0_d_1_27" x="27.4" y="2.11" width="3" height="10" filterUnits="userSpaceOnUse" color-interpolation-filters="sRGB">
<feFlood flood-opacity="0" result="BackgroundImageFix"/>
<feColorMatrix in="SourceAlpha" type="matrix" values="0 0 0 0 0 0 0 0 0 0 0 0 0 0 0 0 0 0 127 0" result="hardAlpha"/>
<feOffset dy="0.5"/>
<feGaussianBlur stdDeviation="0.5"/>
<feComposite in2="hardAlpha" operator="out"/>
<feColorMatrix type="matrix" values="0 0 0 0 0 0 0 0 0 0 0 0 0 0 0 0 0 0 0.35 0"/>
<feBlend mode="normal" in2="BackgroundImageFix" result="effect1_dropShadow_1_27"/>
<feBlend mode="normal" in="SourceGraphic" in2="effect1_dropShadow_1_27" result="shape"/>
</filter>
<linearGradient id="paint0_linear_1_27" x1="28.9" y1="2.61" x2="28.9" y2="10.61" gradientUnits="userSpaceOnUse">
<stop stop-color="#FF4D00"/>
<stop offset="0.0885417" stop-color="#FF4D00"/>
<stop offset="1" stop-color="#FF0000"/>
</linearGradient>
<linearGradient id="paint1_linear_1_27" x1="33.5581" y1="2.07728" x2="33.5581" y2="10.6755" gradientUnits="userSpaceOnUse">
<stop stop-color="#FF4D00"/>
<stop offset="0.0885417" stop-color="#FF4D00"/>
<stop offset="1" stop-color="#FF0000"/>
</linearGradient>
<linearGradient id="paint2_linear_1_27" x1="19" y1="6.9" x2="19" y2="11.1" gradientUnits="userSpaceOnUse">
<stop stop-color="#FF4D00"/>
<stop offset="1" stop-color="#FF0000"/>
</linearGradient>
<clipPath id="clip0_1_27">
<rect width="38" height="14" fill="white"/>
</clipPath>
</defs>
</svg>
