<svg width="39" height="15" viewBox="0 0 39 15" fill="none" xmlns="http://www.w3.org/2000/svg">
<g clip-path="url(#clip0_1_27)">
<rect x="30.4" y="2.61" width="1" height="8" fill="url(#paint0_linear_1_27)"/>
<mask id="mask0_1_27" style="mask-type:alpha" maskUnits="userSpaceOnUse" x="26" y="-3" width="19" height="18">
<rect x="26.8629" y="4.85382" width="13.2485" height="11.8001" transform="rotate(-32.3303 26.8629 4.85382)" fill="#D9D9D9"/>
</mask>
<g mask="url(#mask0_1_27)">
<rect x="29.8308" y="0.89682" width="3.05354" height="11.3592" rx="1.52677" transform="rotate(-32.3276 29.8308 0.89682)" fill="white" fill-opacity="0.3" stroke="black" stroke-width="1.125"/>
</g>
<mask id="mask1_1_27" style="mask-type:alpha" maskUnits="userSpaceOnUse" x="30" y="0" width="8" height="10">
<rect x="30.5293" y="0.948589" width="1.92854" height="10.3795" rx="0.964273" transform="rotate(-32.3276 30.5293 0.948589)" fill="white"/>
</mask>
<g mask="url(#mask1_1_27)">
<rect x="29.6469" y="2.07728" width="11.8225" height="8.59818" fill="url(#paint1_linear_1_27)"/>
</g>
<path d="M1 14V8H2V9H5V8H6V14H5V10H2V14H1ZM2 8V7H5V8H2ZM7 13V10H8V13H7ZM8 10V9H10V10H8ZM8 14V13H11V11H10V10H11V7H12V14H8ZM13 13V10H14V13H13ZM14 10V9H16V10H14ZM14 14V13H17V11H16V10H17V7H18V14H14ZM19 14V9H20V14H19ZM19 8V7H20V8H19ZM23 14V13H24V14H23ZM22 13V9H21V8H22V7H23V8H24V9H23V13H22ZM25 14V9H26V14H25ZM25 8V7H26V8H25ZM29 14V13H30V14H29ZM28 13V12H29V13H28ZM30 13V12H31V13H30ZM27 12V9H28V12H27ZM31 12V9H32V12H31ZM34 14V13H38V14H34ZM33 13V10H34V11H37V10H38V12H34V13H33ZM34 10V9H37V10H34Z" fill="url(#paint2_linear_1_27)"/>
<path d="M1 14H0V15H1V14ZM1 8V7H0V8H1ZM2 8H3V7H2V8ZM2 9H1V10H2V9ZM5 9V10H6V9H5ZM5 8V7H4V8H5ZM6 8H7V7H6V8ZM6 14V15H7V14H6ZM5 14H4V15H5V14ZM5 10H6V9H5V10ZM2 10V9H1V10H2ZM2 14V15H3V14H2ZM2 8H1V9H2V8ZM2 7V6H1V7H2ZM5 7H6V6H5V7ZM5 8V9H6V8H5ZM2 14V8H0V14H2ZM1 9H2V7H1V9ZM1 8V9H3V8H1ZM2 10H5V8H2V10ZM6 9V8H4V9H6ZM5 9H6V7H5V9ZM5 8V14H7V8H5ZM6 13H5V15H6V13ZM6 14V10H4V14H6ZM5 9H2V11H5V9ZM1 10V14H3V10H1ZM2 13H1V15H2V13ZM3 8V7H1V8H3ZM2 8H5V6H2V8ZM4 7V8H6V7H4ZM5 7H2V9H5V7ZM7 13H6V14H7V13ZM7 10V9H6V10H7ZM8 10H9V9H8V10ZM8 13V14H9V13H8ZM8 10H7V11H8V10ZM8 9V8H7V9H8ZM10 9H11V8H10V9ZM10 10V11H11V10H10ZM8 14H7V15H8V14ZM8 13V12H7V13H8ZM11 13V14H12V13H11ZM11 11H12V10H11V11ZM10 11H9V12H10V11ZM10 10V9H9V10H10ZM11 10V11H12V10H11ZM11 7V6H10V7H11ZM12 7H13V6H12V7ZM12 14V15H13V14H12ZM8 13V10H6V13H8ZM7 11H8V9H7V11ZM7 10V13H9V10H7ZM8 12H7V14H8V12ZM9 10V9H7V10H9ZM8 10H10V8H8V10ZM9 9V10H11V9H9ZM10 9H8V11H10V9ZM9 14V13H7V14H9ZM8 14H11V12H8V14ZM12 13V11H10V13H12ZM11 10H10V12H11V10ZM11 11V10H9V11H11ZM10 11H11V9H10V11ZM12 10V7H10V10H12ZM11 8H12V6H11V8ZM11 7V14H13V7H11ZM12 13H8V15H12V13ZM13 13H12V14H13V13ZM13 10V9H12V10H13ZM14 10H15V9H14V10ZM14 13V14H15V13H14ZM14 10H13V11H14V10ZM14 9V8H13V9H14ZM16 9H17V8H16V9ZM16 10V11H17V10H16ZM14 14H13V15H14V14ZM14 13V12H13V13H14ZM17 13V14H18V13H17ZM17 11H18V10H17V11ZM16 11H15V12H16V11ZM16 10V9H15V10H16ZM17 10V11H18V10H17ZM17 7V6H16V7H17ZM18 7H19V6H18V7ZM18 14V15H19V14H18ZM14 13V10H12V13H14ZM13 11H14V9H13V11ZM13 10V13H15V10H13ZM14 12H13V14H14V12ZM15 10V9H13V10H15ZM14 10H16V8H14V10ZM15 9V10H17V9H15ZM16 9H14V11H16V9ZM15 14V13H13V14H15ZM14 14H17V12H14V14ZM18 13V11H16V13H18ZM17 10H16V12H17V10ZM17 11V10H15V11H17ZM16 11H17V9H16V11ZM18 10V7H16V10H18ZM17 8H18V6H17V8ZM17 7V14H19V7H17ZM18 13H14V15H18V13ZM19 14H18V15H19V14ZM19 9V8H18V9H19ZM20 9H21V8H20V9ZM20 14V15H21V14H20ZM19 8H18V9H19V8ZM19 7V6H18V7H19ZM20 7H21V6H20V7ZM20 8V9H21V8H20ZM20 14V9H18V14H20ZM19 10H20V8H19V10ZM19 9V14H21V9H19ZM20 13H19V15H20V13ZM20 8V7H18V8H20ZM19 8H20V6H19V8ZM19 7V8H21V7H19ZM20 7H19V9H20V7ZM23 14H22V15H23V14ZM23 13V12H22V13H23ZM24 13H25V12H24V13ZM24 14V15H25V14H24ZM22 13H21V14H22V13ZM22 9H23V8H22V9ZM21 9H20V10H21V9ZM21 8V7H20V8H21ZM22 8V9H23V8H22ZM22 7V6H21V7H22ZM23 7H24V6H23V7ZM23 8H22V9H23V8ZM24 8H25V7H24V8ZM24 9V10H25V9H24ZM23 9V8H22V9H23ZM23 13V14H24V13H23ZM24 14V13H22V14H24ZM23 14H24V12H23V14ZM23 13V14H25V13H23ZM24 13H23V15H24V13ZM23 13V9H21V13H23ZM22 8H21V10H22V8ZM22 9V8H20V9H22ZM21 9H22V7H21V9ZM23 8V7H21V8H23ZM22 8H23V6H22V8ZM22 7V8H24V7H22ZM23 9H24V7H23V9ZM23 8V9H25V8H23ZM24 8H23V10H24V8ZM22 9V13H24V9H22ZM23 12H22V14H23V12ZM25 14H24V15H25V14ZM25 9V8H24V9H25ZM26 9H27V8H26V9ZM26 14V15H27V14H26ZM25 8H24V9H25V8ZM25 7V6H24V7H25ZM26 7H27V6H26V7ZM26 8V9H27V8H26ZM26 14V9H24V14H26ZM25 10H26V8H25V10ZM25 9V14H27V9H25ZM26 13H25V15H26V13ZM26 8V7H24V8H26ZM25 8H26V6H25V8ZM25 7V8H27V7H25ZM26 7H25V9H26V7ZM29 14H28V15H29V14ZM29 13V12H28V13H29ZM30 13H31V12H30V13ZM30 14V15H31V14H30ZM28 13H27V14H28V13ZM28 12V11H27V12H28ZM29 12H30V11H29V12ZM29 13V14H30V13H29ZM30 13H29V14H30V13ZM30 12V11H29V12H30ZM31 12H32V11H31V12ZM31 13V14H32V13H31ZM27 12H26V13H27V12ZM27 9V8H26V9H27ZM28 9H29V8H28V9ZM28 12V13H29V12H28ZM31 12H30V13H31V12ZM31 9V8H30V9H31ZM32 9H33V8H32V9ZM32 12V13H33V12H32ZM30 14V13H28V14H30ZM29 14H30V12H29V14ZM29 13V14H31V13H29ZM30 13H29V15H30V13ZM29 13V12H27V13H29ZM28 13H29V11H28V13ZM28 12V13H30V12H28ZM29 12H28V14H29V12ZM31 13V12H29V13H31ZM30 13H31V11H30V13ZM30 12V13H32V12H30ZM31 12H30V14H31V12ZM28 12V9H26V12H28ZM27 10H28V8H27V10ZM27 9V12H29V9H27ZM28 11H27V13H28V11ZM32 12V9H30V12H32ZM31 10H32V8H31V10ZM31 9V12H33V9H31ZM32 11H31V13H32V11ZM34 14H33V15H34V14ZM34 13V12H33V13H34ZM38 13H39V12H38V13ZM38 14V15H39V14H38ZM33 13H32V14H33V13ZM33 10V9H32V10H33ZM34 10H35V9H34V10ZM34 11H33V12H34V11ZM37 11V12H38V11H37ZM37 10V9H36V10H37ZM38 10H39V9H38V10ZM38 12V13H39V12H38ZM34 12V11H33V12H34ZM34 13V14H35V13H34ZM34 10H33V11H34V10ZM34 9V8H33V9H34ZM37 9H38V8H37V9ZM37 10V11H38V10H37ZM35 14V13H33V14H35ZM34 14H38V12H34V14ZM37 13V14H39V13H37ZM38 13H34V15H38V13ZM34 13V10H32V13H34ZM33 11H34V9H33V11ZM33 10V11H35V10H33ZM34 12H37V10H34V12ZM38 11V10H36V11H38ZM37 11H38V9H37V11ZM37 10V12H39V10H37ZM38 11H34V13H38V11ZM33 12V13H35V12H33ZM34 12H33V14H34V12ZM35 10V9H33V10H35ZM34 10H37V8H34V10ZM36 9V10H38V9H36ZM37 9H34V11H37V9Z" fill="black"/>
</g>
<defs>
<linearGradient id="paint0_linear_1_27" x1="30.9" y1="2.61" x2="30.9" y2="10.61" gradientUnits="userSpaceOnUse">
<stop stop-color="#FF4D00"/>
<stop offset="0.0885417" stop-color="#FF4D00"/>
<stop offset="1" stop-color="#FF0000"/>
</linearGradient>
<linearGradient id="paint1_linear_1_27" x1="35.5581" y1="2.07728" x2="35.5581" y2="10.6755" gradientUnits="userSpaceOnUse">
<stop stop-color="#FF4D00"/>
<stop offset="0.0885417" stop-color="#FF4D00"/>
<stop offset="1" stop-color="#FF0000"/>
</linearGradient>
<linearGradient id="paint2_linear_1_27" x1="20" y1="6" x2="20" y2="17" gradientUnits="userSpaceOnUse">
<stop stop-color="#FF4D00"/>
<stop offset="1" stop-color="#FF0000"/>
</linearGradient>
<clipPath id="clip0_1_27">
<rect width="39" height="15" fill="white"/>
</clipPath>
</defs>
</svg>
