<svg width="78" height="41" viewBox="0 0 78 41" fill="none" xmlns="http://www.w3.org/2000/svg">
<rect x="60.8" y="7.22" width="2" height="16" fill="url(#paint0_linear_111_17)"/>
<mask id="mask0_111_17" style="mask-type:alpha" maskUnits="userSpaceOnUse" x="53" y="-3" width="36" height="35">
<rect x="53.7258" y="11.7076" width="26.4969" height="23.6002" transform="rotate(-32.3303 53.7258 11.7076)" fill="#D9D9D9"/>
</mask>
<g mask="url(#mask0_111_17)">
<rect x="59.6617" y="3.79364" width="6.10709" height="22.7184" rx="3.05354" transform="rotate(-32.3276 59.6617 3.79364)" fill="white" fill-opacity="0.3" stroke="black" stroke-width="2.25"/>
</g>
<mask id="mask1_111_17" style="mask-type:alpha" maskUnits="userSpaceOnUse" x="61" y="2" width="14" height="19">
<rect x="61.0585" y="3.89718" width="3.85709" height="20.759" rx="1.92855" transform="rotate(-32.3276 61.0585 3.89718)" fill="white"/>
</mask>
<g mask="url(#mask1_111_17)">
<rect x="59.2938" y="6.15456" width="23.645" height="17.1964" fill="url(#paint1_linear_111_17)"/>
</g>
<path d="M2 29V17H4V19H10V17H12V29H10V21H4V29H2ZM4 17V15H10V17H4ZM14 27V21H16V27H14ZM16 21V19H20V21H16ZM16 29V27H22V23H20V21H22V15H24V29H16ZM26 27V21H28V27H26ZM28 21V19H32V21H28ZM28 29V27H34V23H32V21H34V15H36V29H28ZM38 29V19H40V29H38ZM38 17V15H40V17H38ZM46 29V27H48V29H46ZM44 27V19H42V17H44V15H46V17H48V19H46V27H44ZM50 29V19H52V29H50ZM50 17V15H52V17H50ZM58 29V27H60V29H58ZM56 27V25H58V27H56ZM60 27V25H62V27H60ZM54 25V19H56V25H54ZM62 25V19H64V25H62ZM68 29V27H76V29H68ZM66 27V21H68V23H74V21H76V25H68V27H66ZM68 21V19H74V21H68Z" fill="url(#paint2_linear_111_17)"/>
<path d="M2 29H0V31H2V29ZM2 17V15H0V17H2ZM4 17H6V15H4V17ZM4 19H2V21H4V19ZM10 19V21H12V19H10ZM10 17V15H8V17H10ZM12 17H14V15H12V17ZM12 29V31H14V29H12ZM10 29H8V31H10V29ZM10 21H12V19H10V21ZM4 21V19H2V21H4ZM4 29V31H6V29H4ZM4 17H2V19H4V17ZM4 15V13H2V15H4ZM10 15H12V13H10V15ZM10 17V19H12V17H10ZM4 29V17H0V29H4ZM2 19H4V15H2V19ZM2 17V19H6V17H2ZM4 21H10V17H4V21ZM12 19V17H8V19H12ZM10 19H12V15H10V19ZM10 17V29H14V17H10ZM12 27H10V31H12V27ZM12 29V21H8V29H12ZM10 19H4V23H10V19ZM2 21V29H6V21H2ZM4 27H2V31H4V27ZM6 17V15H2V17H6ZM4 17H10V13H4V17ZM8 15V17H12V15H8ZM10 15H4V19H10V15ZM14 27H12V29H14V27ZM14 21V19H12V21H14ZM16 21H18V19H16V21ZM16 27V29H18V27H16ZM16 21H14V23H16V21ZM16 19V17H14V19H16ZM20 19H22V17H20V19ZM20 21V23H22V21H20ZM16 29H14V31H16V29ZM16 27V25H14V27H16ZM22 27V29H24V27H22ZM22 23H24V21H22V23ZM20 23H18V25H20V23ZM20 21V19H18V21H20ZM22 21V23H24V21H22ZM22 15V13H20V15H22ZM24 15H26V13H24V15ZM24 29V31H26V29H24ZM16 27V21H12V27H16ZM14 23H16V19H14V23ZM14 21V27H18V21H14ZM16 25H14V29H16V25ZM18 21V19H14V21H18ZM16 21H20V17H16V21ZM18 19V21H22V19H18ZM20 19H16V23H20V19ZM18 29V27H14V29H18ZM16 29H22V25H16V29ZM24 27V23H20V27H24ZM22 21H20V25H22V21ZM22 23V21H18V23H22ZM20 23H22V19H20V23ZM24 21V15H20V21H24ZM22 17H24V13H22V17ZM22 15V29H26V15H22ZM24 27H16V31H24V27ZM26 27H24V29H26V27ZM26 21V19H24V21H26ZM28 21H30V19H28V21ZM28 27V29H30V27H28ZM28 21H26V23H28V21ZM28 19V17H26V19H28ZM32 19H34V17H32V19ZM32 21V23H34V21H32ZM28 29H26V31H28V29ZM28 27V25H26V27H28ZM34 27V29H36V27H34ZM34 23H36V21H34V23ZM32 23H30V25H32V23ZM32 21V19H30V21H32ZM34 21V23H36V21H34ZM34 15V13H32V15H34ZM36 15H38V13H36V15ZM36 29V31H38V29H36ZM28 27V21H24V27H28ZM26 23H28V19H26V23ZM26 21V27H30V21H26ZM28 25H26V29H28V25ZM30 21V19H26V21H30ZM28 21H32V17H28V21ZM30 19V21H34V19H30ZM32 19H28V23H32V19ZM30 29V27H26V29H30ZM28 29H34V25H28V29ZM36 27V23H32V27H36ZM34 21H32V25H34V21ZM34 23V21H30V23H34ZM32 23H34V19H32V23ZM36 21V15H32V21H36ZM34 17H36V13H34V17ZM34 15V29H38V15H34ZM36 27H28V31H36V27ZM38 29H36V31H38V29ZM38 19V17H36V19H38ZM40 19H42V17H40V19ZM40 29V31H42V29H40ZM38 17H36V19H38V17ZM38 15V13H36V15H38ZM40 15H42V13H40V15ZM40 17V19H42V17H40ZM40 29V19H36V29H40ZM38 21H40V17H38V21ZM38 19V29H42V19H38ZM40 27H38V31H40V27ZM40 17V15H36V17H40ZM38 17H40V13H38V17ZM38 15V17H42V15H38ZM40 15H38V19H40V15ZM46 29H44V31H46V29ZM46 27V25H44V27H46ZM48 27H50V25H48V27ZM48 29V31H50V29H48ZM44 27H42V29H44V27ZM44 19H46V17H44V19ZM42 19H40V21H42V19ZM42 17V15H40V17H42ZM44 17V19H46V17H44ZM44 15V13H42V15H44ZM46 15H48V13H46V15ZM46 17H44V19H46V17ZM48 17H50V15H48V17ZM48 19V21H50V19H48ZM46 19V17H44V19H46ZM46 27V29H48V27H46ZM48 29V27H44V29H48ZM46 29H48V25H46V29ZM46 27V29H50V27H46ZM48 27H46V31H48V27ZM46 27V19H42V27H46ZM44 17H42V21H44V17ZM44 19V17H40V19H44ZM42 19H44V15H42V19ZM46 17V15H42V17H46ZM44 17H46V13H44V17ZM44 15V17H48V15H44ZM46 19H48V15H46V19ZM46 17V19H50V17H46ZM48 17H46V21H48V17ZM44 19V27H48V19H44ZM46 25H44V29H46V25ZM50 29H48V31H50V29ZM50 19V17H48V19H50ZM52 19H54V17H52V19ZM52 29V31H54V29H52ZM50 17H48V19H50V17ZM50 15V13H48V15H50ZM52 15H54V13H52V15ZM52 17V19H54V17H52ZM52 29V19H48V29H52ZM50 21H52V17H50V21ZM50 19V29H54V19H50ZM52 27H50V31H52V27ZM52 17V15H48V17H52ZM50 17H52V13H50V17ZM50 15V17H54V15H50ZM52 15H50V19H52V15ZM58 29H56V31H58V29ZM58 27V25H56V27H58ZM60 27H62V25H60V27ZM60 29V31H62V29H60ZM56 27H54V29H56V27ZM56 25V23H54V25H56ZM58 25H60V23H58V25ZM58 27V29H60V27H58ZM60 27H58V29H60V27ZM60 25V23H58V25H60ZM62 25H64V23H62V25ZM62 27V29H64V27H62ZM54 25H52V27H54V25ZM54 19V17H52V19H54ZM56 19H58V17H56V19ZM56 25V27H58V25H56ZM62 25H60V27H62V25ZM62 19V17H60V19H62ZM64 19H66V17H64V19ZM64 25V27H66V25H64ZM60 29V27H56V29H60ZM58 29H60V25H58V29ZM58 27V29H62V27H58ZM60 27H58V31H60V27ZM58 27V25H54V27H58ZM56 27H58V23H56V27ZM56 25V27H60V25H56ZM58 25H56V29H58V25ZM62 27V25H58V27H62ZM60 27H62V23H60V27ZM60 25V27H64V25H60ZM62 25H60V29H62V25ZM56 25V19H52V25H56ZM54 21H56V17H54V21ZM54 19V25H58V19H54ZM56 23H54V27H56V23ZM64 25V19H60V25H64ZM62 21H64V17H62V21ZM62 19V25H66V19H62ZM64 23H62V27H64V23ZM68 29H66V31H68V29ZM68 27V25H66V27H68ZM76 27H78V25H76V27ZM76 29V31H78V29H76ZM66 27H64V29H66V27ZM66 21V19H64V21H66ZM68 21H70V19H68V21ZM68 23H66V25H68V23ZM74 23V25H76V23H74ZM74 21V19H72V21H74ZM76 21H78V19H76V21ZM76 25V27H78V25H76ZM68 25V23H66V25H68ZM68 27V29H70V27H68ZM68 21H66V23H68V21ZM68 19V17H66V19H68ZM74 19H76V17H74V19ZM74 21V23H76V21H74ZM70 29V27H66V29H70ZM68 29H76V25H68V29ZM74 27V29H78V27H74ZM76 27H68V31H76V27ZM68 27V21H64V27H68ZM66 23H68V19H66V23ZM66 21V23H70V21H66ZM68 25H74V21H68V25ZM76 23V21H72V23H76ZM74 23H76V19H74V23ZM74 21V25H78V21H74ZM76 23H68V27H76V23ZM66 25V27H70V25H66ZM68 25H66V29H68V25ZM70 21V19H66V21H70ZM68 21H74V17H68V21ZM72 19V21H76V19H72ZM74 19H68V23H74V19Z" fill="black"/>
<path d="M1 38.25V37.5H1.75V33.75H1V33H3.25V33.75H2.5V37.5H3.25V38.25H1ZM7 38.25V35.25H7.75V38.25H7ZM4 38.25V34.5H7V35.25H4.75V38.25H4ZM8.5 38.25V37.5H11.5V38.25H8.5ZM11.5 37.5V36.75H12.25V37.5H11.5ZM9.25 36.75V36H11.5V36.75H9.25ZM8.5 36V35.25H9.25V36H8.5ZM9.25 35.25V34.5H12.25V35.25H9.25ZM14.5 38.25V37.5H15.25V38.25H14.5ZM13.75 37.5V34.5H13V33.75H13.75V33H14.5V33.75H15.25V34.5H14.5V37.5H13.75ZM16 37.5V36.75H16.75V37.5H16ZM16.75 38.25V37.5H19V36.75H16.75V36H19V35.25H19.75V38.25H16.75ZM16.75 35.25V34.5H19V35.25H16.75ZM21.25 38.25V37.5H22V38.25H21.25ZM20.5 37.5V33H21.25V37.5H20.5ZM23.5 38.25V37.5H24.25V38.25H23.5ZM22.75 37.5V33H23.5V37.5H22.75ZM25.75 38.25V37.5H28.75V38.25H25.75ZM25 37.5V35.25H25.75V36H28V35.25H28.75V36.75H25.75V37.5H25ZM25.75 35.25V34.5H28V35.25H25.75ZM32.5 36V35.25H33.25V36H32.5ZM29.5 38.25V34.5H30.25V35.25H31V36H30.25V38.25H29.5ZM31 35.25V34.5H32.5V35.25H31Z" fill="url(#paint3_linear_111_17)"/>
<path d="M1 38.25H0V39.25H1V38.25ZM1 37.5V36.5H0V37.5H1ZM1.75 37.5V38.5H2.75V37.5H1.75ZM1.75 33.75H2.75V32.75H1.75V33.75ZM1 33.75H0V34.75H1V33.75ZM1 33V32H0V33H1ZM3.25 33H4.25V32H3.25V33ZM3.25 33.75V34.75H4.25V33.75H3.25ZM2.5 33.75V32.75H1.5V33.75H2.5ZM2.5 37.5H1.5V38.5H2.5V37.5ZM3.25 37.5H4.25V36.5H3.25V37.5ZM3.25 38.25V39.25H4.25V38.25H3.25ZM2 38.25V37.5H0V38.25H2ZM1 38.5H1.75V36.5H1V38.5ZM2.75 37.5V33.75H0.75V37.5H2.75ZM1.75 32.75H1V34.75H1.75V32.75ZM2 33.75V33H0V33.75H2ZM1 34H3.25V32H1V34ZM2.25 33V33.75H4.25V33H2.25ZM3.25 32.75H2.5V34.75H3.25V32.75ZM1.5 33.75V37.5H3.5V33.75H1.5ZM2.5 38.5H3.25V36.5H2.5V38.5ZM2.25 37.5V38.25H4.25V37.5H2.25ZM3.25 37.25H1V39.25H3.25V37.25ZM7 38.25H6V39.25H7V38.25ZM7 35.25V34.25H6V35.25H7ZM7.75 35.25H8.75V34.25H7.75V35.25ZM7.75 38.25V39.25H8.75V38.25H7.75ZM4 38.25H3V39.25H4V38.25ZM4 34.5V33.5H3V34.5H4ZM7 34.5H8V33.5H7V34.5ZM7 35.25V36.25H8V35.25H7ZM4.75 35.25V34.25H3.75V35.25H4.75ZM4.75 38.25V39.25H5.75V38.25H4.75ZM8 38.25V35.25H6V38.25H8ZM7 36.25H7.75V34.25H7V36.25ZM6.75 35.25V38.25H8.75V35.25H6.75ZM7.75 37.25H7V39.25H7.75V37.25ZM5 38.25V34.5H3V38.25H5ZM4 35.5H7V33.5H4V35.5ZM6 34.5V35.25H8V34.5H6ZM7 34.25H4.75V36.25H7V34.25ZM3.75 35.25V38.25H5.75V35.25H3.75ZM4.75 37.25H4V39.25H4.75V37.25ZM8.5 38.25H7.5V39.25H8.5V38.25ZM8.5 37.5V36.5H7.5V37.5H8.5ZM11.5 37.5H12.5V36.5H11.5V37.5ZM11.5 38.25V39.25H12.5V38.25H11.5ZM11.5 37.5H10.5V38.5H11.5V37.5ZM11.5 36.75V35.75H10.5V36.75H11.5ZM12.25 36.75H13.25V35.75H12.25V36.75ZM12.25 37.5V38.5H13.25V37.5H12.25ZM9.25 36.75H8.25V37.75H9.25V36.75ZM9.25 36V35H8.25V36H9.25ZM11.5 36H12.5V35H11.5V36ZM11.5 36.75V37.75H12.5V36.75H11.5ZM8.5 36H7.5V37H8.5V36ZM8.5 35.25V34.25H7.5V35.25H8.5ZM9.25 35.25H10.25V34.25H9.25V35.25ZM9.25 36V37H10.25V36H9.25ZM9.25 35.25H8.25V36.25H9.25V35.25ZM9.25 34.5V33.5H8.25V34.5H9.25ZM12.25 34.5H13.25V33.5H12.25V34.5ZM12.25 35.25V36.25H13.25V35.25H12.25ZM9.5 38.25V37.5H7.5V38.25H9.5ZM8.5 38.5H11.5V36.5H8.5V38.5ZM10.5 37.5V38.25H12.5V37.5H10.5ZM11.5 37.25H8.5V39.25H11.5V37.25ZM12.5 37.5V36.75H10.5V37.5H12.5ZM11.5 37.75H12.25V35.75H11.5V37.75ZM11.25 36.75V37.5H13.25V36.75H11.25ZM12.25 36.5H11.5V38.5H12.25V36.5ZM10.25 36.75V36H8.25V36.75H10.25ZM9.25 37H11.5V35H9.25V37ZM10.5 36V36.75H12.5V36H10.5ZM11.5 35.75H9.25V37.75H11.5V35.75ZM9.5 36V35.25H7.5V36H9.5ZM8.5 36.25H9.25V34.25H8.5V36.25ZM8.25 35.25V36H10.25V35.25H8.25ZM9.25 35H8.5V37H9.25V35ZM10.25 35.25V34.5H8.25V35.25H10.25ZM9.25 35.5H12.25V33.5H9.25V35.5ZM11.25 34.5V35.25H13.25V34.5H11.25ZM12.25 34.25H9.25V36.25H12.25V34.25ZM14.5 38.25H13.5V39.25H14.5V38.25ZM14.5 37.5V36.5H13.5V37.5H14.5ZM15.25 37.5H16.25V36.5H15.25V37.5ZM15.25 38.25V39.25H16.25V38.25H15.25ZM13.75 37.5H12.75V38.5H13.75V37.5ZM13.75 34.5H14.75V33.5H13.75V34.5ZM13 34.5H12V35.5H13V34.5ZM13 33.75V32.75H12V33.75H13ZM13.75 33.75V34.75H14.75V33.75H13.75ZM13.75 33V32H12.75V33H13.75ZM14.5 33H15.5V32H14.5V33ZM14.5 33.75H13.5V34.75H14.5V33.75ZM15.25 33.75H16.25V32.75H15.25V33.75ZM15.25 34.5V35.5H16.25V34.5H15.25ZM14.5 34.5V33.5H13.5V34.5H14.5ZM14.5 37.5V38.5H15.5V37.5H14.5ZM15.5 38.25V37.5H13.5V38.25H15.5ZM14.5 38.5H15.25V36.5H14.5V38.5ZM14.25 37.5V38.25H16.25V37.5H14.25ZM15.25 37.25H14.5V39.25H15.25V37.25ZM14.75 37.5V34.5H12.75V37.5H14.75ZM13.75 33.5H13V35.5H13.75V33.5ZM14 34.5V33.75H12V34.5H14ZM13 34.75H13.75V32.75H13V34.75ZM14.75 33.75V33H12.75V33.75H14.75ZM13.75 34H14.5V32H13.75V34ZM13.5 33V33.75H15.5V33H13.5ZM14.5 34.75H15.25V32.75H14.5V34.75ZM14.25 33.75V34.5H16.25V33.75H14.25ZM15.25 33.5H14.5V35.5H15.25V33.5ZM13.5 34.5V37.5H15.5V34.5H13.5ZM14.5 36.5H13.75V38.5H14.5V36.5ZM16 37.5H15V38.5H16V37.5ZM16 36.75V35.75H15V36.75H16ZM16.75 36.75H17.75V35.75H16.75V36.75ZM16.75 37.5V38.5H17.75V37.5H16.75ZM16.75 38.25H15.75V39.25H16.75V38.25ZM16.75 37.5V36.5H15.75V37.5H16.75ZM19 37.5V38.5H20V37.5H19ZM19 36.75H20V35.75H19V36.75ZM16.75 36.75H15.75V37.75H16.75V36.75ZM16.75 36V35H15.75V36H16.75ZM19 36V37H20V36H19ZM19 35.25V34.25H18V35.25H19ZM19.75 35.25H20.75V34.25H19.75V35.25ZM19.75 38.25V39.25H20.75V38.25H19.75ZM16.75 35.25H15.75V36.25H16.75V35.25ZM16.75 34.5V33.5H15.75V34.5H16.75ZM19 34.5H20V33.5H19V34.5ZM19 35.25V36.25H20V35.25H19ZM17 37.5V36.75H15V37.5H17ZM16 37.75H16.75V35.75H16V37.75ZM15.75 36.75V37.5H17.75V36.75H15.75ZM16.75 36.5H16V38.5H16.75V36.5ZM17.75 38.25V37.5H15.75V38.25H17.75ZM16.75 38.5H19V36.5H16.75V38.5ZM20 37.5V36.75H18V37.5H20ZM19 35.75H16.75V37.75H19V35.75ZM17.75 36.75V36H15.75V36.75H17.75ZM16.75 37H19V35H16.75V37ZM20 36V35.25H18V36H20ZM19 36.25H19.75V34.25H19V36.25ZM18.75 35.25V38.25H20.75V35.25H18.75ZM19.75 37.25H16.75V39.25H19.75V37.25ZM17.75 35.25V34.5H15.75V35.25H17.75ZM16.75 35.5H19V33.5H16.75V35.5ZM18 34.5V35.25H20V34.5H18ZM19 34.25H16.75V36.25H19V34.25ZM21.25 38.25H20.25V39.25H21.25V38.25ZM21.25 37.5V36.5H20.25V37.5H21.25ZM22 37.5H23V36.5H22V37.5ZM22 38.25V39.25H23V38.25H22ZM20.5 37.5H19.5V38.5H20.5V37.5ZM20.5 33V32H19.5V33H20.5ZM21.25 33H22.25V32H21.25V33ZM21.25 37.5V38.5H22.25V37.5H21.25ZM22.25 38.25V37.5H20.25V38.25H22.25ZM21.25 38.5H22V36.5H21.25V38.5ZM21 37.5V38.25H23V37.5H21ZM22 37.25H21.25V39.25H22V37.25ZM21.5 37.5V33H19.5V37.5H21.5ZM20.5 34H21.25V32H20.5V34ZM20.25 33V37.5H22.25V33H20.25ZM21.25 36.5H20.5V38.5H21.25V36.5ZM23.5 38.25H22.5V39.25H23.5V38.25ZM23.5 37.5V36.5H22.5V37.5H23.5ZM24.25 37.5H25.25V36.5H24.25V37.5ZM24.25 38.25V39.25H25.25V38.25H24.25ZM22.75 37.5H21.75V38.5H22.75V37.5ZM22.75 33V32H21.75V33H22.75ZM23.5 33H24.5V32H23.5V33ZM23.5 37.5V38.5H24.5V37.5H23.5ZM24.5 38.25V37.5H22.5V38.25H24.5ZM23.5 38.5H24.25V36.5H23.5V38.5ZM23.25 37.5V38.25H25.25V37.5H23.25ZM24.25 37.25H23.5V39.25H24.25V37.25ZM23.75 37.5V33H21.75V37.5H23.75ZM22.75 34H23.5V32H22.75V34ZM22.5 33V37.5H24.5V33H22.5ZM23.5 36.5H22.75V38.5H23.5V36.5ZM25.75 38.25H24.75V39.25H25.75V38.25ZM25.75 37.5V36.5H24.75V37.5H25.75ZM28.75 37.5H29.75V36.5H28.75V37.5ZM28.75 38.25V39.25H29.75V38.25H28.75ZM25 37.5H24V38.5H25V37.5ZM25 35.25V34.25H24V35.25H25ZM25.75 35.25H26.75V34.25H25.75V35.25ZM25.75 36H24.75V37H25.75V36ZM28 36V37H29V36H28ZM28 35.25V34.25H27V35.25H28ZM28.75 35.25H29.75V34.25H28.75V35.25ZM28.75 36.75V37.75H29.75V36.75H28.75ZM25.75 36.75V35.75H24.75V36.75H25.75ZM25.75 37.5V38.5H26.75V37.5H25.75ZM25.75 35.25H24.75V36.25H25.75V35.25ZM25.75 34.5V33.5H24.75V34.5H25.75ZM28 34.5H29V33.5H28V34.5ZM28 35.25V36.25H29V35.25H28ZM26.75 38.25V37.5H24.75V38.25H26.75ZM25.75 38.5H28.75V36.5H25.75V38.5ZM27.75 37.5V38.25H29.75V37.5H27.75ZM28.75 37.25H25.75V39.25H28.75V37.25ZM26 37.5V35.25H24V37.5H26ZM25 36.25H25.75V34.25H25V36.25ZM24.75 35.25V36H26.75V35.25H24.75ZM25.75 37H28V35H25.75V37ZM29 36V35.25H27V36H29ZM28 36.25H28.75V34.25H28V36.25ZM27.75 35.25V36.75H29.75V35.25H27.75ZM28.75 35.75H25.75V37.75H28.75V35.75ZM24.75 36.75V37.5H26.75V36.75H24.75ZM25.75 36.5H25V38.5H25.75V36.5ZM26.75 35.25V34.5H24.75V35.25H26.75ZM25.75 35.5H28V33.5H25.75V35.5ZM27 34.5V35.25H29V34.5H27ZM28 34.25H25.75V36.25H28V34.25ZM32.5 36H31.5V37H32.5V36ZM32.5 35.25V34.25H31.5V35.25H32.5ZM33.25 35.25H34.25V34.25H33.25V35.25ZM33.25 36V37H34.25V36H33.25ZM29.5 38.25H28.5V39.25H29.5V38.25ZM29.5 34.5V33.5H28.5V34.5H29.5ZM30.25 34.5H31.25V33.5H30.25V34.5ZM30.25 35.25H29.25V36.25H30.25V35.25ZM31 35.25H32V34.25H31V35.25ZM31 36V37H32V36H31ZM30.25 36V35H29.25V36H30.25ZM30.25 38.25V39.25H31.25V38.25H30.25ZM31 35.25H30V36.25H31V35.25ZM31 34.5V33.5H30V34.5H31ZM32.5 34.5H33.5V33.5H32.5V34.5ZM32.5 35.25V36.25H33.5V35.25H32.5ZM33.5 36V35.25H31.5V36H33.5ZM32.5 36.25H33.25V34.25H32.5V36.25ZM32.25 35.25V36H34.25V35.25H32.25ZM33.25 35H32.5V37H33.25V35ZM30.5 38.25V34.5H28.5V38.25H30.5ZM29.5 35.5H30.25V33.5H29.5V35.5ZM29.25 34.5V35.25H31.25V34.5H29.25ZM30.25 36.25H31V34.25H30.25V36.25ZM30 35.25V36H32V35.25H30ZM31 35H30.25V37H31V35ZM29.25 36V38.25H31.25V36H29.25ZM30.25 37.25H29.5V39.25H30.25V37.25ZM32 35.25V34.5H30V35.25H32ZM31 35.5H32.5V33.5H31V35.5ZM31.5 34.5V35.25H33.5V34.5H31.5ZM32.5 34.25H31V36.25H32.5V34.25Z" fill="black"/>
<defs>
<linearGradient id="paint0_linear_111_17" x1="61.8" y1="7.22" x2="61.8" y2="23.22" gradientUnits="userSpaceOnUse">
<stop stop-color="#FF4D00"/>
<stop offset="0.0885417" stop-color="#FF4D00"/>
<stop offset="1" stop-color="#FF0000"/>
</linearGradient>
<linearGradient id="paint1_linear_111_17" x1="71.1163" y1="6.15456" x2="71.1163" y2="23.3509" gradientUnits="userSpaceOnUse">
<stop stop-color="#FF4D00"/>
<stop offset="0.0885417" stop-color="#FF4D00"/>
<stop offset="1" stop-color="#FF0000"/>
</linearGradient>
<linearGradient id="paint2_linear_111_17" x1="40" y1="14" x2="40" y2="36" gradientUnits="userSpaceOnUse">
<stop stop-color="#FF4D00"/>
<stop offset="1" stop-color="#FF0000"/>
</linearGradient>
<linearGradient id="paint3_linear_111_17" x1="17.5" y1="33" x2="17.5" y2="41" gradientUnits="userSpaceOnUse">
<stop stop-color="white"/>
<stop offset="1" stop-color="#CFCFCF"/>
</linearGradient>
</defs>
</svg>
