<svg width="16" height="16" viewBox="0 0 16 16" fill="none" xmlns="http://www.w3.org/2000/svg">
<rect x="0.25" y="0.25" width="15.5" height="15.5" rx="3.75" fill="black"/>
<rect x="0.25" y="0.25" width="15.5" height="15.5" rx="3.75" stroke="#2E2E2E" stroke-width="0.5"/>
<path d="M2.59002 5.752H3.20602V7.138H1.77602V5.917L2.46902 4.025H3.14002L2.59002 5.752ZM4.59202 5.752H5.20802V7.138H3.77802V5.917L4.47102 4.025H5.14202L4.59202 5.752ZM7.13629 5.774C7.13629 5.27533 7.27562 4.88667 7.55429 4.608C7.83295 4.32933 8.25462 4.19 8.81929 4.19H9.85329V5.147H8.97329C8.52595 5.147 8.30229 5.378 8.30229 5.84V6.225H9.76529V7.171H8.30229V12H7.13629V7.171H6.32229V6.225H7.13629V5.774ZM13.4067 5.532H12.7907V4.146H14.2207V5.367L13.5277 7.259H12.8567L13.4067 5.532ZM11.4047 5.532H10.7887V4.146H12.2187V5.367L11.5257 7.259H10.8547L11.4047 5.532Z" fill="#EDEDED"/>
</svg>
