<svg width="73" height="9" viewBox="0 0 73 9" fill="none" xmlns="http://www.w3.org/2000/svg">
<g clip-path="url(#clip0_1_2)">
<path d="M1 8V2H2V3H5V2H6V8H5V4H2V8H1ZM2 2V1H5V2H2ZM7 7V4H8V7H7ZM8 4V3H10V4H8ZM8 8V7H11V5H10V4H11V1H12V8H8ZM17 5V4H18V5H17ZM13 8V3H14V4H15V5H14V8H13ZM15 4V3H17V4H15ZM20 8V7H24V8H20ZM19 7V4H20V5H23V4H24V6H20V7H19ZM20 4V3H23V4H20ZM29 8V4H30V8H29ZM25 8V3H29V4H26V8H25ZM31 7V6H32V7H31ZM32 8V7H35V6H32V5H35V4H36V8H32ZM32 4V3H35V4H32ZM37 8V7H41V8H37ZM41 7V6H42V7H41ZM38 6V5H41V6H38ZM37 5V4H38V5H37ZM38 4V3H42V4H38ZM44 8V7H48V8H44ZM43 7V4H44V5H47V4H48V6H44V7H43ZM44 4V3H47V4H44ZM53 5V4H54V5H53ZM49 8V3H50V4H51V5H50V8H49ZM51 4V3H53V4H51ZM57 8V7H58V8H57ZM56 7V6H57V7H56ZM58 7V6H59V7H58ZM55 6V3H56V6H55ZM59 6V3H60V6H59ZM62 8V7H66V8H62ZM61 7V4H62V5H65V4H66V6H62V7H61ZM62 4V3H65V4H62ZM71 5V4H72V5H71ZM67 8V3H68V4H69V5H68V8H67ZM69 4V3H71V4H69Z" fill="url(#paint0_linear_1_2)"/>
<path d="M1 8H0V9H1V8ZM1 2V1H0V2H1ZM2 2H3V1H2V2ZM2 3H1V4H2V3ZM5 3V4H6V3H5ZM5 2V1H4V2H5ZM6 2H7V1H6V2ZM6 8V9H7V8H6ZM5 8H4V9H5V8ZM5 4H6V3H5V4ZM2 4V3H1V4H2ZM2 8V9H3V8H2ZM2 2H1V3H2V2ZM2 1V0H1V1H2ZM5 1H6V0H5V1ZM5 2V3H6V2H5ZM2 8V2H0V8H2ZM1 3H2V1H1V3ZM1 2V3H3V2H1ZM2 4H5V2H2V4ZM6 3V2H4V3H6ZM5 3H6V1H5V3ZM5 2V8H7V2H5ZM6 7H5V9H6V7ZM6 8V4H4V8H6ZM5 3H2V5H5V3ZM1 4V8H3V4H1ZM2 7H1V9H2V7ZM3 2V1H1V2H3ZM2 2H5V0H2V2ZM4 1V2H6V1H4ZM5 1H2V3H5V1ZM7 7H6V8H7V7ZM7 4V3H6V4H7ZM8 4H9V3H8V4ZM8 7V8H9V7H8ZM8 4H7V5H8V4ZM8 3V2H7V3H8ZM10 3H11V2H10V3ZM10 4V5H11V4H10ZM8 8H7V9H8V8ZM8 7V6H7V7H8ZM11 7V8H12V7H11ZM11 5H12V4H11V5ZM10 5H9V6H10V5ZM10 4V3H9V4H10ZM11 4V5H12V4H11ZM11 1V0H10V1H11ZM12 1H13V0H12V1ZM12 8V9H13V8H12ZM8 7V4H6V7H8ZM7 5H8V3H7V5ZM7 4V7H9V4H7ZM8 6H7V8H8V6ZM9 4V3H7V4H9ZM8 4H10V2H8V4ZM9 3V4H11V3H9ZM10 3H8V5H10V3ZM9 8V7H7V8H9ZM8 8H11V6H8V8ZM12 7V5H10V7H12ZM11 4H10V6H11V4ZM11 5V4H9V5H11ZM10 5H11V3H10V5ZM12 4V1H10V4H12ZM11 2H12V0H11V2ZM11 1V8H13V1H11ZM12 7H8V9H12V7ZM17 5H16V6H17V5ZM17 4V3H16V4H17ZM18 4H19V3H18V4ZM18 5V6H19V5H18ZM13 8H12V9H13V8ZM13 3V2H12V3H13ZM14 3H15V2H14V3ZM14 4H13V5H14V4ZM15 4H16V3H15V4ZM15 5V6H16V5H15ZM14 5V4H13V5H14ZM14 8V9H15V8H14ZM15 4H14V5H15V4ZM15 3V2H14V3H15ZM17 3H18V2H17V3ZM17 4V5H18V4H17ZM18 5V4H16V5H18ZM17 5H18V3H17V5ZM17 4V5H19V4H17ZM18 4H17V6H18V4ZM14 8V3H12V8H14ZM13 4H14V2H13V4ZM13 3V4H15V3H13ZM14 5H15V3H14V5ZM14 4V5H16V4H14ZM15 4H14V6H15V4ZM13 5V8H15V5H13ZM14 7H13V9H14V7ZM16 4V3H14V4H16ZM15 4H17V2H15V4ZM16 3V4H18V3H16ZM17 3H15V5H17V3ZM20 8H19V9H20V8ZM20 7V6H19V7H20ZM24 7H25V6H24V7ZM24 8V9H25V8H24ZM19 7H18V8H19V7ZM19 4V3H18V4H19ZM20 4H21V3H20V4ZM20 5H19V6H20V5ZM23 5V6H24V5H23ZM23 4V3H22V4H23ZM24 4H25V3H24V4ZM24 6V7H25V6H24ZM20 6V5H19V6H20ZM20 7V8H21V7H20ZM20 4H19V5H20V4ZM20 3V2H19V3H20ZM23 3H24V2H23V3ZM23 4V5H24V4H23ZM21 8V7H19V8H21ZM20 8H24V6H20V8ZM23 7V8H25V7H23ZM24 7H20V9H24V7ZM20 7V4H18V7H20ZM19 5H20V3H19V5ZM19 4V5H21V4H19ZM20 6H23V4H20V6ZM24 5V4H22V5H24ZM23 5H24V3H23V5ZM23 4V6H25V4H23ZM24 5H20V7H24V5ZM19 6V7H21V6H19ZM20 6H19V8H20V6ZM21 4V3H19V4H21ZM20 4H23V2H20V4ZM22 3V4H24V3H22ZM23 3H20V5H23V3ZM29 8H28V9H29V8ZM29 4V3H28V4H29ZM30 4H31V3H30V4ZM30 8V9H31V8H30ZM25 8H24V9H25V8ZM25 3V2H24V3H25ZM29 3H30V2H29V3ZM29 4V5H30V4H29ZM26 4V3H25V4H26ZM26 8V9H27V8H26ZM30 8V4H28V8H30ZM29 5H30V3H29V5ZM29 4V8H31V4H29ZM30 7H29V9H30V7ZM26 8V3H24V8H26ZM25 4H29V2H25V4ZM28 3V4H30V3H28ZM29 3H26V5H29V3ZM25 4V8H27V4H25ZM26 7H25V9H26V7ZM31 7H30V8H31V7ZM31 6V5H30V6H31ZM32 6H33V5H32V6ZM32 7V8H33V7H32ZM32 8H31V9H32V8ZM32 7V6H31V7H32ZM35 7V8H36V7H35ZM35 6H36V5H35V6ZM32 6H31V7H32V6ZM32 5V4H31V5H32ZM35 5V6H36V5H35ZM35 4V3H34V4H35ZM36 4H37V3H36V4ZM36 8V9H37V8H36ZM32 4H31V5H32V4ZM32 3V2H31V3H32ZM35 3H36V2H35V3ZM35 4V5H36V4H35ZM32 7V6H30V7H32ZM31 7H32V5H31V7ZM31 6V7H33V6H31ZM32 6H31V8H32V6ZM33 8V7H31V8H33ZM32 8H35V6H32V8ZM36 7V6H34V7H36ZM35 5H32V7H35V5ZM33 6V5H31V6H33ZM32 6H35V4H32V6ZM36 5V4H34V5H36ZM35 5H36V3H35V5ZM35 4V8H37V4H35ZM36 7H32V9H36V7ZM33 4V3H31V4H33ZM32 4H35V2H32V4ZM34 3V4H36V3H34ZM35 3H32V5H35V3ZM37 8H36V9H37V8ZM37 7V6H36V7H37ZM41 7H42V6H41V7ZM41 8V9H42V8H41ZM41 7H40V8H41V7ZM41 6V5H40V6H41ZM42 6H43V5H42V6ZM42 7V8H43V7H42ZM38 6H37V7H38V6ZM38 5V4H37V5H38ZM41 5H42V4H41V5ZM41 6V7H42V6H41ZM37 5H36V6H37V5ZM37 4V3H36V4H37ZM38 4H39V3H38V4ZM38 5V6H39V5H38ZM38 4H37V5H38V4ZM38 3V2H37V3H38ZM42 3H43V2H42V3ZM42 4V5H43V4H42ZM38 8V7H36V8H38ZM37 8H41V6H37V8ZM40 7V8H42V7H40ZM41 7H37V9H41V7ZM42 7V6H40V7H42ZM41 7H42V5H41V7ZM41 6V7H43V6H41ZM42 6H41V8H42V6ZM39 6V5H37V6H39ZM38 6H41V4H38V6ZM40 5V6H42V5H40ZM41 5H38V7H41V5ZM38 5V4H36V5H38ZM37 5H38V3H37V5ZM37 4V5H39V4H37ZM38 4H37V6H38V4ZM39 4V3H37V4H39ZM38 4H42V2H38V4ZM41 3V4H43V3H41ZM42 3H38V5H42V3ZM44 8H43V9H44V8ZM44 7V6H43V7H44ZM48 7H49V6H48V7ZM48 8V9H49V8H48ZM43 7H42V8H43V7ZM43 4V3H42V4H43ZM44 4H45V3H44V4ZM44 5H43V6H44V5ZM47 5V6H48V5H47ZM47 4V3H46V4H47ZM48 4H49V3H48V4ZM48 6V7H49V6H48ZM44 6V5H43V6H44ZM44 7V8H45V7H44ZM44 4H43V5H44V4ZM44 3V2H43V3H44ZM47 3H48V2H47V3ZM47 4V5H48V4H47ZM45 8V7H43V8H45ZM44 8H48V6H44V8ZM47 7V8H49V7H47ZM48 7H44V9H48V7ZM44 7V4H42V7H44ZM43 5H44V3H43V5ZM43 4V5H45V4H43ZM44 6H47V4H44V6ZM48 5V4H46V5H48ZM47 5H48V3H47V5ZM47 4V6H49V4H47ZM48 5H44V7H48V5ZM43 6V7H45V6H43ZM44 6H43V8H44V6ZM45 4V3H43V4H45ZM44 4H47V2H44V4ZM46 3V4H48V3H46ZM47 3H44V5H47V3ZM53 5H52V6H53V5ZM53 4V3H52V4H53ZM54 4H55V3H54V4ZM54 5V6H55V5H54ZM49 8H48V9H49V8ZM49 3V2H48V3H49ZM50 3H51V2H50V3ZM50 4H49V5H50V4ZM51 4H52V3H51V4ZM51 5V6H52V5H51ZM50 5V4H49V5H50ZM50 8V9H51V8H50ZM51 4H50V5H51V4ZM51 3V2H50V3H51ZM53 3H54V2H53V3ZM53 4V5H54V4H53ZM54 5V4H52V5H54ZM53 5H54V3H53V5ZM53 4V5H55V4H53ZM54 4H53V6H54V4ZM50 8V3H48V8H50ZM49 4H50V2H49V4ZM49 3V4H51V3H49ZM50 5H51V3H50V5ZM50 4V5H52V4H50ZM51 4H50V6H51V4ZM49 5V8H51V5H49ZM50 7H49V9H50V7ZM52 4V3H50V4H52ZM51 4H53V2H51V4ZM52 3V4H54V3H52ZM53 3H51V5H53V3ZM57 8H56V9H57V8ZM57 7V6H56V7H57ZM58 7H59V6H58V7ZM58 8V9H59V8H58ZM56 7H55V8H56V7ZM56 6V5H55V6H56ZM57 6H58V5H57V6ZM57 7V8H58V7H57ZM58 7H57V8H58V7ZM58 6V5H57V6H58ZM59 6H60V5H59V6ZM59 7V8H60V7H59ZM55 6H54V7H55V6ZM55 3V2H54V3H55ZM56 3H57V2H56V3ZM56 6V7H57V6H56ZM59 6H58V7H59V6ZM59 3V2H58V3H59ZM60 3H61V2H60V3ZM60 6V7H61V6H60ZM58 8V7H56V8H58ZM57 8H58V6H57V8ZM57 7V8H59V7H57ZM58 7H57V9H58V7ZM57 7V6H55V7H57ZM56 7H57V5H56V7ZM56 6V7H58V6H56ZM57 6H56V8H57V6ZM59 7V6H57V7H59ZM58 7H59V5H58V7ZM58 6V7H60V6H58ZM59 6H58V8H59V6ZM56 6V3H54V6H56ZM55 4H56V2H55V4ZM55 3V6H57V3H55ZM56 5H55V7H56V5ZM60 6V3H58V6H60ZM59 4H60V2H59V4ZM59 3V6H61V3H59ZM60 5H59V7H60V5ZM62 8H61V9H62V8ZM62 7V6H61V7H62ZM66 7H67V6H66V7ZM66 8V9H67V8H66ZM61 7H60V8H61V7ZM61 4V3H60V4H61ZM62 4H63V3H62V4ZM62 5H61V6H62V5ZM65 5V6H66V5H65ZM65 4V3H64V4H65ZM66 4H67V3H66V4ZM66 6V7H67V6H66ZM62 6V5H61V6H62ZM62 7V8H63V7H62ZM62 4H61V5H62V4ZM62 3V2H61V3H62ZM65 3H66V2H65V3ZM65 4V5H66V4H65ZM63 8V7H61V8H63ZM62 8H66V6H62V8ZM65 7V8H67V7H65ZM66 7H62V9H66V7ZM62 7V4H60V7H62ZM61 5H62V3H61V5ZM61 4V5H63V4H61ZM62 6H65V4H62V6ZM66 5V4H64V5H66ZM65 5H66V3H65V5ZM65 4V6H67V4H65ZM66 5H62V7H66V5ZM61 6V7H63V6H61ZM62 6H61V8H62V6ZM63 4V3H61V4H63ZM62 4H65V2H62V4ZM64 3V4H66V3H64ZM65 3H62V5H65V3ZM71 5H70V6H71V5ZM71 4V3H70V4H71ZM72 4H73V3H72V4ZM72 5V6H73V5H72ZM67 8H66V9H67V8ZM67 3V2H66V3H67ZM68 3H69V2H68V3ZM68 4H67V5H68V4ZM69 4H70V3H69V4ZM69 5V6H70V5H69ZM68 5V4H67V5H68ZM68 8V9H69V8H68ZM69 4H68V5H69V4ZM69 3V2H68V3H69ZM71 3H72V2H71V3ZM71 4V5H72V4H71ZM72 5V4H70V5H72ZM71 5H72V3H71V5ZM71 4V5H73V4H71ZM72 4H71V6H72V4ZM68 8V3H66V8H68ZM67 4H68V2H67V4ZM67 3V4H69V3H67ZM68 5H69V3H68V5ZM68 4V5H70V4H68ZM69 4H68V6H69V4ZM67 5V8H69V5H67ZM68 7H67V9H68V7ZM70 4V3H68V4H70ZM69 4H71V2H69V4ZM70 3V4H72V3H70ZM71 3H69V5H71V3Z" fill="black"/>
</g>
<defs>
<linearGradient id="paint0_linear_1_2" x1="37" y1="0" x2="37" y2="11" gradientUnits="userSpaceOnUse">
<stop stop-color="#C345FF"/>
<stop offset="1" stop-color="#4584FF"/>
</linearGradient>
<clipPath id="clip0_1_2">
<rect width="73" height="9" fill="white"/>
</clipPath>
</defs>
</svg>
