<svg width="70" height="36" viewBox="0 0 70 36" fill="none" xmlns="http://www.w3.org/2000/svg">
<rect width="70" height="36" fill="#CBD0FF"/>
<circle cx="50" cy="30" r="6" fill="#C345FF"/>
<circle cx="52.5" cy="8.5" r="8.5" fill="#4584FF"/>
<circle cx="18.5" cy="16.5" r="7.5" fill="#45FFBC"/>
<g filter="url(#filter0_d_3_2)">
<path d="M6.15847 21L8.65447 15.4H9.93447L12.4385 21H11.0785L9.03047 16.056H9.54247L7.48647 21H6.15847ZM7.40647 19.8L7.75047 18.816H10.6305L10.9825 19.8H7.40647ZM14.7404 21.064C14.3351 21.064 13.9697 20.9733 13.6444 20.792C13.3191 20.6053 13.0604 20.3467 12.8684 20.016C12.6817 19.6853 12.5884 19.296 12.5884 18.848C12.5884 18.3947 12.6817 18.0027 12.8684 17.672C13.0604 17.3413 13.3191 17.0853 13.6444 16.904C13.9697 16.7227 14.3351 16.632 14.7404 16.632C15.1031 16.632 15.4204 16.712 15.6924 16.872C15.9644 17.032 16.1751 17.2747 16.3244 17.6C16.4737 17.9253 16.5484 18.3413 16.5484 18.848C16.5484 19.3493 16.4764 19.7653 16.3324 20.096C16.1884 20.4213 15.9804 20.664 15.7084 20.824C15.4417 20.984 15.1191 21.064 14.7404 21.064ZM14.9564 20.04C15.1591 20.04 15.3431 19.992 15.5084 19.896C15.6737 19.8 15.8044 19.664 15.9004 19.488C16.0017 19.3067 16.0524 19.0933 16.0524 18.848C16.0524 18.5973 16.0017 18.384 15.9004 18.208C15.8044 18.032 15.6737 17.896 15.5084 17.8C15.3431 17.704 15.1591 17.656 14.9564 17.656C14.7484 17.656 14.5617 17.704 14.3964 17.8C14.2311 17.896 14.0977 18.032 13.9964 18.208C13.9004 18.384 13.8524 18.5973 13.8524 18.848C13.8524 19.0933 13.9004 19.3067 13.9964 19.488C14.0977 19.664 14.2311 19.8 14.3964 19.896C14.5617 19.992 14.7484 20.04 14.9564 20.04ZM16.0844 21V20.12L16.1084 18.84L16.0284 17.568V15.064H17.2764V21H16.0844ZM18.4315 21V16.696H19.6235V17.912L19.4555 17.56C19.5835 17.256 19.7888 17.0267 20.0715 16.872C20.3541 16.712 20.6981 16.632 21.1035 16.632V17.784C21.0501 17.7787 21.0021 17.776 20.9595 17.776C20.9168 17.7707 20.8715 17.768 20.8235 17.768C20.4821 17.768 20.2048 17.8667 19.9915 18.064C19.7835 18.256 19.6795 18.5573 19.6795 18.968V21H18.4315ZM23.9503 21.064C23.4596 21.064 23.0276 20.968 22.6543 20.776C22.2863 20.584 22.0009 20.3227 21.7983 19.992C21.5956 19.656 21.4943 19.2747 21.4943 18.848C21.4943 18.416 21.5929 18.0347 21.7903 17.704C21.9929 17.368 22.2676 17.1067 22.6143 16.92C22.9609 16.728 23.3529 16.632 23.7903 16.632C24.2116 16.632 24.5903 16.7227 24.9263 16.904C25.2676 17.08 25.5369 17.336 25.7343 17.672C25.9316 18.0027 26.0303 18.4 26.0303 18.864C26.0303 18.912 26.0276 18.968 26.0223 19.032C26.0169 19.0907 26.0116 19.1467 26.0063 19.2H22.5103V18.472H25.3503L24.8703 18.688C24.8703 18.464 24.8249 18.2693 24.7343 18.104C24.6436 17.9387 24.5183 17.8107 24.3583 17.72C24.1983 17.624 24.0116 17.576 23.7983 17.576C23.5849 17.576 23.3956 17.624 23.2303 17.72C23.0703 17.8107 22.9449 17.9413 22.8543 18.112C22.7636 18.2773 22.7183 18.4747 22.7183 18.704V18.896C22.7183 19.1307 22.7689 19.3387 22.8703 19.52C22.9769 19.696 23.1236 19.832 23.3103 19.928C23.5023 20.0187 23.7263 20.064 23.9823 20.064C24.2116 20.064 24.4116 20.0293 24.5823 19.96C24.7583 19.8907 24.9183 19.7867 25.0623 19.648L25.7263 20.368C25.5289 20.592 25.2809 20.7653 24.9823 20.888C24.6836 21.0053 24.3396 21.064 23.9503 21.064ZM29.4772 16.632C29.8185 16.632 30.1225 16.7013 30.3892 16.84C30.6612 16.9733 30.8745 17.1813 31.0292 17.464C31.1838 17.7413 31.2612 18.0987 31.2612 18.536V21H30.0132V18.728C30.0132 18.3813 29.9358 18.1253 29.7812 17.96C29.6318 17.7947 29.4185 17.712 29.1412 17.712C28.9438 17.712 28.7652 17.7547 28.6052 17.84C28.4505 17.92 28.3278 18.0453 28.2372 18.216C28.1518 18.3867 28.1092 18.6053 28.1092 18.872V21H26.8612V16.696H28.0532V17.888L27.8292 17.528C27.9838 17.24 28.2052 17.0187 28.4932 16.864C28.7812 16.7093 29.1092 16.632 29.4772 16.632ZM35.0324 21V20.16L34.9524 19.976V18.472C34.9524 18.2053 34.8697 17.9973 34.7044 17.848C34.5444 17.6987 34.2964 17.624 33.9604 17.624C33.7311 17.624 33.5044 17.6613 33.2804 17.736C33.0617 17.8053 32.8751 17.9013 32.7204 18.024L32.2724 17.152C32.5071 16.9867 32.7897 16.8587 33.1204 16.768C33.4511 16.6773 33.7871 16.632 34.1284 16.632C34.7844 16.632 35.2937 16.7867 35.6564 17.096C36.0191 17.4053 36.2004 17.888 36.2004 18.544V21H35.0324ZM33.7204 21.064C33.3844 21.064 33.0964 21.008 32.8564 20.896C32.6164 20.7787 32.4324 20.6213 32.3044 20.424C32.1764 20.2267 32.1124 20.0053 32.1124 19.76C32.1124 19.504 32.1737 19.28 32.2964 19.088C32.4244 18.896 32.6244 18.7467 32.8964 18.64C33.1684 18.528 33.5231 18.472 33.9604 18.472H35.1044V19.2H34.0964C33.8031 19.2 33.6004 19.248 33.4884 19.344C33.3817 19.44 33.3284 19.56 33.3284 19.704C33.3284 19.864 33.3897 19.992 33.5124 20.088C33.6404 20.1787 33.8137 20.224 34.0324 20.224C34.2404 20.224 34.4271 20.176 34.5924 20.08C34.7577 19.9787 34.8777 19.832 34.9524 19.64L35.1444 20.216C35.0537 20.4933 34.8884 20.704 34.6484 20.848C34.4084 20.992 34.0991 21.064 33.7204 21.064ZM38.7779 21.064C38.4099 21.064 38.0552 21.0213 37.7139 20.936C37.3779 20.8453 37.1112 20.7333 36.9139 20.6L37.3299 19.704C37.5272 19.8267 37.7592 19.928 38.0259 20.008C38.2979 20.0827 38.5646 20.12 38.8259 20.12C39.1139 20.12 39.3166 20.0853 39.4339 20.016C39.5566 19.9467 39.6179 19.8507 39.6179 19.728C39.6179 19.6267 39.5699 19.552 39.4739 19.504C39.3832 19.4507 39.2606 19.4107 39.1059 19.384C38.9512 19.3573 38.7806 19.3307 38.5939 19.304C38.4126 19.2773 38.2286 19.2427 38.0419 19.2C37.8552 19.152 37.6846 19.0827 37.5299 18.992C37.3752 18.9013 37.2499 18.7787 37.1539 18.624C37.0632 18.4693 37.0179 18.2693 37.0179 18.024C37.0179 17.752 37.0952 17.512 37.2499 17.304C37.4099 17.096 37.6392 16.9333 37.9379 16.816C38.2366 16.6933 38.5939 16.632 39.0099 16.632C39.3032 16.632 39.6019 16.664 39.9059 16.728C40.2099 16.792 40.4632 16.8853 40.6659 17.008L40.2499 17.896C40.0419 17.7733 39.8312 17.6907 39.6179 17.648C39.4099 17.6 39.2072 17.576 39.0099 17.576C38.7326 17.576 38.5299 17.6133 38.4019 17.688C38.2739 17.7627 38.2099 17.8587 38.2099 17.976C38.2099 18.0827 38.2552 18.1627 38.3459 18.216C38.4419 18.2693 38.5672 18.312 38.7219 18.344C38.8766 18.376 39.0446 18.4053 39.2259 18.432C39.4126 18.4533 39.5992 18.488 39.7859 18.536C39.9726 18.584 40.1406 18.6533 40.2899 18.744C40.4446 18.8293 40.5699 18.9493 40.6659 19.104C40.7619 19.2533 40.8099 19.4507 40.8099 19.696C40.8099 19.9627 40.7299 20.2 40.5699 20.408C40.4099 20.6107 40.1779 20.7707 39.8739 20.888C39.5752 21.0053 39.2099 21.064 38.7779 21.064ZM43.7159 21.064C43.2252 21.064 42.7932 20.968 42.4199 20.776C42.0519 20.584 41.7666 20.3227 41.5639 19.992C41.3612 19.656 41.2599 19.2747 41.2599 18.848C41.2599 18.416 41.3586 18.0347 41.5559 17.704C41.7586 17.368 42.0332 17.1067 42.3799 16.92C42.7266 16.728 43.1186 16.632 43.5559 16.632C43.9772 16.632 44.3559 16.7227 44.6919 16.904C45.0332 17.08 45.3026 17.336 45.4999 17.672C45.6972 18.0027 45.7959 18.4 45.7959 18.864C45.7959 18.912 45.7932 18.968 45.7879 19.032C45.7826 19.0907 45.7772 19.1467 45.7719 19.2H42.2759V18.472H45.1159L44.6359 18.688C44.6359 18.464 44.5906 18.2693 44.4999 18.104C44.4092 17.9387 44.2839 17.8107 44.1239 17.72C43.9639 17.624 43.7772 17.576 43.5639 17.576C43.3506 17.576 43.1612 17.624 42.9959 17.72C42.8359 17.8107 42.7106 17.9413 42.6199 18.112C42.5292 18.2773 42.4839 18.4747 42.4839 18.704V18.896C42.4839 19.1307 42.5346 19.3387 42.6359 19.52C42.7426 19.696 42.8892 19.832 43.0759 19.928C43.2679 20.0187 43.4919 20.064 43.7479 20.064C43.9772 20.064 44.1772 20.0293 44.3479 19.96C44.5239 19.8907 44.6839 19.7867 44.8279 19.648L45.4919 20.368C45.2946 20.592 45.0466 20.7653 44.7479 20.888C44.4492 21.0053 44.1052 21.064 43.7159 21.064ZM46.6268 21V16.696H47.8188V17.912L47.6508 17.56C47.7788 17.256 47.9841 17.0267 48.2668 16.872C48.5494 16.712 48.8934 16.632 49.2988 16.632V17.784C49.2454 17.7787 49.1974 17.776 49.1548 17.776C49.1121 17.7707 49.0668 17.768 49.0188 17.768C48.6774 17.768 48.4001 17.8667 48.1868 18.064C47.9788 18.256 47.8748 18.5573 47.8748 18.968V21H46.6268ZM51.3573 21L49.5493 16.696H50.8373L52.3413 20.4H51.7013L53.2613 16.696H54.4613L52.6453 21H51.3573ZM56.9893 21.064C56.4987 21.064 56.0667 20.968 55.6933 20.776C55.3253 20.584 55.04 20.3227 54.8373 19.992C54.6347 19.656 54.5333 19.2747 54.5333 18.848C54.5333 18.416 54.632 18.0347 54.8293 17.704C55.032 17.368 55.3067 17.1067 55.6533 16.92C56 16.728 56.392 16.632 56.8293 16.632C57.2507 16.632 57.6293 16.7227 57.9653 16.904C58.3067 17.08 58.576 17.336 58.7733 17.672C58.9707 18.0027 59.0693 18.4 59.0693 18.864C59.0693 18.912 59.0667 18.968 59.0613 19.032C59.056 19.0907 59.0507 19.1467 59.0453 19.2H55.5493V18.472H58.3893L57.9093 18.688C57.9093 18.464 57.864 18.2693 57.7733 18.104C57.6827 17.9387 57.5573 17.8107 57.3973 17.72C57.2373 17.624 57.0507 17.576 56.8373 17.576C56.624 17.576 56.4347 17.624 56.2693 17.72C56.1093 17.8107 55.984 17.9413 55.8933 18.112C55.8027 18.2773 55.7573 18.4747 55.7573 18.704V18.896C55.7573 19.1307 55.808 19.3387 55.9093 19.52C56.016 19.696 56.1627 19.832 56.3493 19.928C56.5413 20.0187 56.7653 20.064 57.0213 20.064C57.2507 20.064 57.4507 20.0293 57.6213 19.96C57.7973 19.8907 57.9573 19.7867 58.1013 19.648L58.7653 20.368C58.568 20.592 58.32 20.7653 58.0213 20.888C57.7227 21.0053 57.3787 21.064 56.9893 21.064ZM59.9002 21V16.696H61.0922V17.912L60.9242 17.56C61.0522 17.256 61.2576 17.0267 61.5402 16.872C61.8229 16.712 62.1669 16.632 62.5722 16.632V17.784C62.5189 17.7787 62.4709 17.776 62.4282 17.776C62.3856 17.7707 62.3402 17.768 62.2922 17.768C61.9509 17.768 61.6736 17.8667 61.4602 18.064C61.2522 18.256 61.1482 18.5573 61.1482 18.968V21H59.9002Z" fill="url(#paint0_linear_3_2)"/>
<path d="M6.15847 21L5.24509 20.5929C5.1072 20.9023 5.13528 21.2604 5.31969 21.5445C5.5041 21.8286 5.81977 22 6.15847 22V21ZM8.65447 15.4V14.4C8.25966 14.4 7.90182 14.6323 7.74109 14.9929L8.65447 15.4ZM9.93447 15.4L10.8474 14.9918C10.6864 14.6318 10.3288 14.4 9.93447 14.4V15.4ZM12.4385 21V22C12.7774 22 13.0932 21.8283 13.2776 21.544C13.4619 21.2596 13.4897 20.9012 13.3514 20.5918L12.4385 21ZM11.0785 21L10.1546 21.3827C10.3094 21.7564 10.674 22 11.0785 22V21ZM9.03047 16.056V15.056C8.69648 15.056 8.38454 15.2227 8.19899 15.5004C8.01344 15.7781 7.97878 16.1301 8.1066 16.4387L9.03047 16.056ZM9.54247 16.056L10.4658 16.44C10.5941 16.1314 10.5598 15.779 10.3743 15.501C10.1888 15.223 9.8767 15.056 9.54247 15.056V16.056ZM7.48647 21V22C7.89042 22 8.2547 21.757 8.40981 21.384L7.48647 21ZM7.40647 19.8L6.46249 19.47C6.35556 19.7759 6.40346 20.1146 6.59099 20.3788C6.77853 20.643 7.08246 20.8 7.40647 20.8V19.8ZM7.75047 18.816V17.816C7.32539 17.816 6.94677 18.0847 6.80649 18.486L7.75047 18.816ZM10.6305 18.816L11.572 18.4792C11.4298 18.0814 11.0529 17.816 10.6305 17.816V18.816ZM10.9825 19.8V20.8C11.3078 20.8 11.6127 20.6418 11.8 20.3758C11.9873 20.1099 12.0336 19.7695 11.924 19.4632L10.9825 19.8ZM7.07185 21.4071L9.56785 15.8071L7.74109 14.9929L5.24509 20.5929L7.07185 21.4071ZM8.65447 16.4H9.93447V14.4H8.65447V16.4ZM9.02157 15.8082L11.5256 21.4082L13.3514 20.5918L10.8474 14.9918L9.02157 15.8082ZM12.4385 20H11.0785V22H12.4385V20ZM12.0023 20.6173L9.95434 15.6733L8.1066 16.4387L10.1546 21.3827L12.0023 20.6173ZM9.03047 17.056H9.54247V15.056H9.03047V17.056ZM8.61913 15.672L6.56313 20.616L8.40981 21.384L10.4658 16.44L8.61913 15.672ZM7.48647 20H6.15847V22H7.48647V20ZM8.35045 20.13L8.69445 19.146L6.80649 18.486L6.46249 19.47L8.35045 20.13ZM7.75047 19.816H10.6305V17.816H7.75047V19.816ZM9.6889 19.1528L10.0409 20.1368L11.924 19.4632L11.572 18.4792L9.6889 19.1528ZM10.9825 18.8H7.40647V20.8H10.9825V18.8ZM13.6444 20.792L13.1467 21.6594L13.1575 21.6655L13.6444 20.792ZM12.8684 20.016L11.9975 20.5076L12.0036 20.5181L12.8684 20.016ZM12.8684 17.672L12.0036 17.1698L11.9976 17.1804L12.8684 17.672ZM13.6444 16.904L13.1575 16.0305L13.1575 16.0305L13.6444 16.904ZM15.6924 16.872L16.1994 16.0101L16.1994 16.0101L15.6924 16.872ZM16.3244 17.6L17.2332 17.1828L17.2332 17.1828L16.3244 17.6ZM16.3324 20.096L17.2469 20.5008L17.2492 20.4953L16.3324 20.096ZM15.7084 20.824L15.2014 19.962L15.1939 19.9665L15.7084 20.824ZM15.5084 19.896L15.0063 19.0312L15.0063 19.0312L15.5084 19.896ZM15.9004 19.488L15.0274 19.0002L15.0225 19.0091L15.9004 19.488ZM15.9004 18.208L15.0225 18.6869C15.0262 18.6936 15.0299 18.7003 15.0338 18.707L15.9004 18.208ZM15.5084 17.8L15.0063 18.6648L15.0063 18.6648L15.5084 17.8ZM14.3964 17.8L14.8985 18.6648L14.8985 18.6648L14.3964 17.8ZM13.9964 18.208L13.1298 17.709C13.1259 17.7157 13.1222 17.7224 13.1185 17.7291L13.9964 18.208ZM13.9964 19.488L13.1126 19.9559C13.1182 19.9663 13.1239 19.9767 13.1298 19.987L13.9964 19.488ZM14.3964 19.896L14.8985 19.0312L14.8985 19.0312L14.3964 19.896ZM16.0844 21H15.0844C15.0844 21.5523 15.5321 22 16.0844 22V21ZM16.0844 20.12L15.0846 20.1013C15.0845 20.1075 15.0844 20.1138 15.0844 20.12L16.0844 20.12ZM16.1084 18.84L17.1082 18.8587C17.1087 18.8316 17.1081 18.8044 17.1064 18.7772L16.1084 18.84ZM16.0284 17.568H15.0284C15.0284 17.5889 15.0291 17.6099 15.0304 17.6308L16.0284 17.568ZM16.0284 15.064V14.064C15.4761 14.064 15.0284 14.5117 15.0284 15.064H16.0284ZM17.2764 15.064H18.2764C18.2764 14.5117 17.8287 14.064 17.2764 14.064V15.064ZM17.2764 21V22C17.8287 22 18.2764 21.5523 18.2764 21H17.2764ZM14.7404 20.064C14.49 20.064 14.2948 20.0097 14.1313 19.9185L13.1575 21.6655C13.6447 21.937 14.1801 22.064 14.7404 22.064V20.064ZM14.1421 19.9246C13.9721 19.8271 13.8388 19.6958 13.7332 19.5139L12.0036 20.5181C12.282 20.9976 12.666 21.3835 13.1467 21.6594L14.1421 19.9246ZM13.7392 19.5244C13.6513 19.3687 13.5884 19.1549 13.5884 18.848H11.5884C11.5884 19.4371 11.7122 20.002 11.9976 20.5076L13.7392 19.5244ZM13.5884 18.848C13.5884 18.5335 13.6523 18.3176 13.7392 18.1636L11.9976 17.1804C11.7112 17.6877 11.5884 18.2558 11.5884 18.848H13.5884ZM13.7332 18.1741C13.8374 17.9946 13.9673 17.8689 14.1313 17.7775L13.1575 16.0305C12.6708 16.3018 12.2834 16.688 12.0036 17.1699L13.7332 18.1741ZM14.1313 17.7775C14.2948 17.6863 14.49 17.632 14.7404 17.632V15.632C14.1801 15.632 13.6447 15.759 13.1575 16.0305L14.1313 17.7775ZM14.7404 17.632C14.9518 17.632 15.0888 17.6771 15.1854 17.7339L16.1994 16.0101C15.752 15.7469 15.2543 15.632 14.7404 15.632V17.632ZM15.1854 17.7339C15.2581 17.7767 15.3397 17.8518 15.4156 18.0172L17.2332 17.1828C17.0105 16.6975 16.6708 16.2873 16.1994 16.0101L15.1854 17.7339ZM15.4156 18.0172C15.4853 18.169 15.5484 18.4297 15.5484 18.848H17.5484C17.5484 18.253 17.4622 17.6816 17.2332 17.1828L15.4156 18.0172ZM15.5484 18.848C15.5484 19.262 15.4878 19.531 15.4156 19.6967L17.2492 20.4953C17.4651 19.9997 17.5484 19.4367 17.5484 18.848H15.5484ZM15.418 19.6913C15.3474 19.8507 15.2706 19.9214 15.2014 19.9621L16.2154 21.6859C16.6903 21.4066 17.0294 20.9919 17.2468 20.5007L15.418 19.6913ZM15.1939 19.9665C15.1133 20.0149 14.9773 20.064 14.7404 20.064V22.064C15.2609 22.064 15.7702 21.9531 16.2229 21.6815L15.1939 19.9665ZM14.9564 21.04C15.3244 21.04 15.6834 20.9507 16.0105 20.7608L15.0063 19.0312C15.0027 19.0333 14.9937 19.04 14.9564 19.04V21.04ZM16.0105 20.7608C16.3419 20.5684 16.5992 20.2953 16.7783 19.9669L15.0225 19.0091C15.0144 19.0241 15.0094 19.0291 15.0093 19.0292C15.0092 19.0293 15.0091 19.0293 15.0091 19.0294C15.0091 19.0294 15.0091 19.0294 15.0091 19.0294C15.0091 19.0294 15.0091 19.0294 15.0091 19.0294C15.0091 19.0294 15.0091 19.0294 15.009 19.0294C15.009 19.0295 15.0088 19.0296 15.0084 19.0299C15.008 19.0302 15.0073 19.0306 15.0063 19.0312L16.0105 20.7608ZM16.7733 19.9758C16.9719 19.6205 17.0524 19.2331 17.0524 18.848H15.0524C15.0524 18.9536 15.0316 18.9929 15.0275 19.0002L16.7733 19.9758ZM17.0524 18.848C17.0524 18.4629 16.974 18.0686 16.767 17.709L15.0338 18.707C15.0294 18.6994 15.0524 18.7318 15.0524 18.848H17.0524ZM16.7783 17.7291C16.5992 17.4007 16.3419 17.1276 16.0105 16.9352L15.0063 18.6648C15.0073 18.6654 15.008 18.6658 15.0084 18.6661C15.0088 18.6664 15.009 18.6665 15.009 18.6666C15.0091 18.6666 15.0091 18.6666 15.0091 18.6666C15.0091 18.6666 15.0091 18.6666 15.0091 18.6666C15.0091 18.6666 15.0091 18.6666 15.0091 18.6666C15.0091 18.6667 15.0092 18.6667 15.0093 18.6668C15.0094 18.6669 15.0144 18.6719 15.0225 18.6869L16.7783 17.7291ZM16.0105 16.9352C15.6834 16.7453 15.3244 16.656 14.9564 16.656V18.656C14.9937 18.656 15.0027 18.6627 15.0063 18.6648L16.0105 16.9352ZM14.9564 16.656C14.588 16.656 14.2254 16.7429 13.8943 16.9352L14.8985 18.6648C14.9013 18.6632 14.9041 18.6619 14.9094 18.6605C14.9153 18.659 14.9298 18.656 14.9564 18.656V16.656ZM13.8943 16.9352C13.568 17.1246 13.3128 17.3911 13.1298 17.709L14.863 18.707C14.8826 18.6729 14.8941 18.6674 14.8985 18.6648L13.8943 16.9352ZM13.1185 17.7291C12.9247 18.0844 12.8524 18.4712 12.8524 18.848H14.8524C14.8524 18.786 14.8584 18.7446 14.864 18.7195C14.8668 18.7071 14.8695 18.6988 14.8713 18.6939C14.8731 18.689 14.8743 18.6869 14.8743 18.6869L13.1185 17.7291ZM12.8524 18.848C12.8524 19.2247 12.9267 19.6047 13.1126 19.9559L14.8802 19.0201C14.8741 19.0086 14.8524 18.962 14.8524 18.848H12.8524ZM13.1298 19.987C13.3128 20.3049 13.568 20.5714 13.8943 20.7608L14.8985 19.0312C14.8941 19.0286 14.8826 19.0231 14.863 18.989L13.1298 19.987ZM13.8943 20.7608C14.2254 20.9531 14.588 21.04 14.9564 21.04V19.04C14.9298 19.04 14.9153 19.037 14.9094 19.0355C14.9041 19.0341 14.9013 19.0328 14.8985 19.0312L13.8943 20.7608ZM17.0844 21V20.12H15.0844V21H17.0844ZM17.0842 20.1387L17.1082 18.8587L15.1086 18.8213L15.0846 20.1013L17.0842 20.1387ZM17.1064 18.7772L17.0264 17.5052L15.0304 17.6308L15.1104 18.9028L17.1064 18.7772ZM17.0284 17.568V15.064H15.0284V17.568H17.0284ZM16.0284 16.064H17.2764V14.064H16.0284V16.064ZM16.2764 15.064V21H18.2764V15.064H16.2764ZM17.2764 20H16.0844V22H17.2764V20ZM18.4315 21H17.4315C17.4315 21.5523 17.8792 22 18.4315 22V21ZM18.4315 16.696V15.696C17.8792 15.696 17.4315 16.1437 17.4315 16.696H18.4315ZM19.6235 16.696H20.6235C20.6235 16.1437 20.1758 15.696 19.6235 15.696V16.696ZM19.6235 17.912L18.721 18.3427C18.9222 18.7644 19.3886 18.9905 19.8443 18.8873C20.3 18.7841 20.6235 18.3792 20.6235 17.912H19.6235ZM19.4555 17.56L18.5338 17.1719C18.423 17.4351 18.43 17.7331 18.553 17.9907L19.4555 17.56ZM20.0715 16.872L20.5515 17.7493C20.5557 17.747 20.5599 17.7446 20.5641 17.7423L20.0715 16.872ZM21.1035 16.632H22.1035C22.1035 16.0797 21.6558 15.632 21.1035 15.632V16.632ZM21.1035 17.784L21.004 18.779C21.2851 18.8072 21.565 18.715 21.7745 18.5255C21.984 18.3359 22.1035 18.0665 22.1035 17.784H21.1035ZM20.9595 17.776L20.8354 18.7683C20.8766 18.7734 20.918 18.776 20.9595 18.776V17.776ZM19.9915 18.064L20.6697 18.7988L20.6705 18.7981L19.9915 18.064ZM19.6795 21V22C20.2318 22 20.6795 21.5523 20.6795 21H19.6795ZM19.4315 21V16.696H17.4315V21H19.4315ZM18.4315 17.696H19.6235V15.696H18.4315V17.696ZM18.6235 16.696V17.912H20.6235V16.696H18.6235ZM20.5259 17.4813L20.3579 17.1293L18.553 17.9907L18.721 18.3427L20.5259 17.4813ZM20.3771 17.9481C20.4197 17.847 20.4721 17.7927 20.5515 17.7493L19.5915 15.9947C19.1055 16.2606 18.7473 16.665 18.5338 17.1719L20.3771 17.9481ZM20.5641 17.7423C20.6636 17.6859 20.8285 17.632 21.1035 17.632V15.632C20.5677 15.632 20.0447 15.7381 19.5789 16.0017L20.5641 17.7423ZM20.1035 16.632V17.784H22.1035V16.632H20.1035ZM21.203 16.789C21.1245 16.7811 21.0425 16.776 20.9595 16.776V18.776C20.9618 18.776 20.9757 18.7762 21.004 18.779L21.203 16.789ZM21.0835 16.7837C20.9953 16.7727 20.9082 16.768 20.8235 16.768V18.768C20.8347 18.768 20.8383 18.7686 20.8354 18.7683L21.0835 16.7837ZM20.8235 16.768C20.2772 16.768 19.7423 16.9323 19.3124 17.3299L20.6705 18.7981C20.6765 18.7926 20.6818 18.7887 20.6947 18.7842C20.7101 18.7787 20.7491 18.768 20.8235 18.768V16.768ZM19.3132 17.3292C18.8221 17.7825 18.6795 18.4058 18.6795 18.968H20.6795C20.6795 18.8433 20.6957 18.7807 20.7028 18.7602C20.7078 18.7458 20.7018 18.7693 20.6697 18.7988L19.3132 17.3292ZM18.6795 18.968V21H20.6795V18.968H18.6795ZM19.6795 20H18.4315V22H19.6795V20ZM22.6543 20.776L22.1917 21.6626L22.1969 21.6653L22.6543 20.776ZM21.7983 19.992L20.942 20.5085L20.9457 20.5146L21.7983 19.992ZM21.7903 17.704L20.934 17.1875L20.9316 17.1915L21.7903 17.704ZM22.6143 16.92L23.0884 17.8005L23.0988 17.7948L22.6143 16.92ZM24.9263 16.904L24.4513 17.784C24.4569 17.787 24.4624 17.7899 24.468 17.7928L24.9263 16.904ZM25.7343 17.672L24.872 18.1784L24.8756 18.1845L25.7343 17.672ZM26.0223 19.032L27.0182 19.1225L27.0188 19.115L26.0223 19.032ZM26.0063 19.2V20.2C26.52 20.2 26.9502 19.8107 27.0013 19.2995L26.0063 19.2ZM22.5103 19.2H21.5103C21.5103 19.7523 21.958 20.2 22.5103 20.2V19.2ZM22.5103 18.472V17.472C21.958 17.472 21.5103 17.9197 21.5103 18.472H22.5103ZM25.3503 18.472L25.7606 19.3839C26.1905 19.1905 26.4269 18.7231 26.328 18.2621C26.2291 17.8012 25.8217 17.472 25.3503 17.472V18.472ZM24.8703 18.688H23.8703C23.8703 19.0273 24.0424 19.3435 24.3273 19.5278C24.6123 19.712 24.9712 19.7392 25.2806 19.5999L24.8703 18.688ZM24.7343 18.104L23.8575 18.5848L23.8575 18.5848L24.7343 18.104ZM24.3583 17.72L23.8438 18.5775C23.8509 18.5818 23.8581 18.5859 23.8653 18.59L24.3583 17.72ZM23.2303 17.72L23.7233 18.5901L23.7324 18.5848L23.2303 17.72ZM22.8543 18.112L23.7312 18.5929L23.7374 18.5812L22.8543 18.112ZM22.8703 19.52L21.9973 20.0078C22.0031 20.0181 22.009 20.0282 22.0151 20.0383L22.8703 19.52ZM23.3103 19.928L22.8529 20.8173C22.863 20.8224 22.8731 20.8274 22.8833 20.8322L23.3103 19.928ZM24.5823 19.96L24.2157 19.0295L24.2059 19.0335L24.5823 19.96ZM25.0623 19.648L25.7974 18.9701C25.6151 18.7723 25.3608 18.6564 25.0919 18.6484C24.8231 18.6405 24.5624 18.7411 24.3686 18.9277L25.0623 19.648ZM25.7263 20.368L26.4766 21.029C26.8152 20.6447 26.8087 20.0666 26.4614 19.6901L25.7263 20.368ZM24.9823 20.888L25.3479 21.8188C25.3527 21.8169 25.3575 21.815 25.3622 21.813L24.9823 20.888ZM23.9503 20.064C23.5919 20.064 23.3214 19.9946 23.1116 19.8867L22.1969 21.6653C22.7338 21.9414 23.3274 22.064 23.9503 22.064V20.064ZM23.1168 19.8894C22.8977 19.7751 22.7522 19.6348 22.6509 19.4694L20.9457 20.5146C21.2497 21.0105 21.6749 21.3929 22.1917 21.6626L23.1168 19.8894ZM22.6546 19.4755C22.5541 19.3089 22.4943 19.1091 22.4943 18.848H20.4943C20.4943 19.4403 20.6372 20.0031 20.942 20.5085L22.6546 19.4755ZM22.4943 18.848C22.4943 18.5739 22.555 18.3739 22.649 18.2165L20.9316 17.1915C20.6309 17.6954 20.4943 18.2581 20.4943 18.848H22.4943ZM22.6466 18.2205C22.7564 18.0384 22.8988 17.9025 23.0884 17.8005L22.1402 16.0395C21.6364 16.3108 21.2295 16.6976 20.934 17.1875L22.6466 18.2205ZM23.0988 17.7948C23.2822 17.6932 23.5045 17.632 23.7903 17.632V15.632C23.2014 15.632 22.6397 15.7628 22.1298 16.0452L23.0988 17.7948ZM23.7903 17.632C24.0633 17.632 24.2759 17.6894 24.4513 17.784L25.4012 16.024C24.9046 15.756 24.3599 15.632 23.7903 15.632V17.632ZM24.468 17.7928C24.6386 17.8808 24.769 18.003 24.872 18.1784L26.5966 17.1656C26.3049 16.669 25.8966 16.2792 25.3846 16.0152L24.468 17.7928ZM24.8756 18.1845C24.9631 18.3312 25.0303 18.5434 25.0303 18.864H27.0303C27.0303 18.2566 26.9001 17.6742 26.593 17.1595L24.8756 18.1845ZM25.0303 18.864C25.0303 18.8768 25.0295 18.904 25.0257 18.949L27.0188 19.115C27.0257 19.032 27.0303 18.9472 27.0303 18.864H25.0303ZM25.0264 18.9415C25.0213 18.9974 25.0163 19.0504 25.0112 19.1005L27.0013 19.2995C27.007 19.2429 27.0126 19.1839 27.0182 19.1225L25.0264 18.9415ZM26.0063 18.2H22.5103V20.2H26.0063V18.2ZM23.5103 19.2V18.472H21.5103V19.2H23.5103ZM22.5103 19.472H25.3503V17.472H22.5103V19.472ZM24.9399 17.5601L24.4599 17.7761L25.2806 19.5999L25.7606 19.3839L24.9399 17.5601ZM25.8703 18.688C25.8703 18.3275 25.7965 17.9613 25.6111 17.6232L23.8575 18.5848C23.8565 18.583 23.8591 18.5869 23.8623 18.6008C23.8658 18.6155 23.8703 18.6433 23.8703 18.688H25.8703ZM25.6111 17.6232C25.4335 17.2993 25.1771 17.0346 24.8513 16.85L23.8653 18.59C23.8661 18.5905 23.8653 18.5901 23.8635 18.5887C23.8617 18.5873 23.8597 18.5856 23.8578 18.5836C23.8559 18.5817 23.8548 18.5803 23.8545 18.5799C23.8543 18.5796 23.8554 18.5811 23.8575 18.5848L25.6111 17.6232ZM24.8728 16.8625C24.5361 16.6605 24.1664 16.576 23.7983 16.576V18.576C23.8298 18.576 23.8454 18.5795 23.8492 18.5805C23.8523 18.5813 23.8492 18.5807 23.8438 18.5775L24.8728 16.8625ZM23.7983 16.576C23.4295 16.576 23.0631 16.6607 22.7281 16.8552L23.7324 18.5848C23.7331 18.5844 23.7353 18.583 23.742 18.5813C23.7494 18.5795 23.7669 18.576 23.7983 18.576V16.576ZM22.7373 16.85C22.4031 17.0393 22.1463 17.3131 21.9712 17.6428L23.7374 18.5812C23.7387 18.5786 23.7398 18.5769 23.7405 18.5757C23.7412 18.5746 23.7415 18.5741 23.7415 18.5741C23.7415 18.5741 23.7413 18.5745 23.7406 18.5753C23.74 18.576 23.7391 18.577 23.738 18.5782C23.7356 18.5807 23.7327 18.5833 23.7297 18.5856C23.7267 18.588 23.7244 18.5894 23.7233 18.59L22.7373 16.85ZM21.9775 17.6312C21.7903 17.9726 21.7183 18.3427 21.7183 18.704H23.7183C23.7183 18.6067 23.737 18.5821 23.7311 18.5928L21.9775 17.6312ZM21.7183 18.704V18.896H23.7183V18.704H21.7183ZM21.7183 18.896C21.7183 19.2789 21.8024 19.6589 21.9973 20.0078L23.7432 19.0322C23.7355 19.0184 23.7183 18.9824 23.7183 18.896H21.7183ZM22.0151 20.0383C22.2195 20.3756 22.5054 20.6385 22.8529 20.8173L23.7676 19.0387C23.7419 19.0255 23.7344 19.0164 23.7255 19.0017L22.0151 20.0383ZM22.8833 20.8322C23.2334 20.9976 23.6085 21.064 23.9823 21.064V19.064C23.844 19.064 23.7711 19.0397 23.7373 19.0238L22.8833 20.8322ZM23.9823 21.064C24.3101 21.064 24.6431 21.0147 24.9587 20.8865L24.2059 19.0335C24.1801 19.044 24.1131 19.064 23.9823 19.064V21.064ZM24.9488 20.8904C25.2534 20.7704 25.5231 20.5925 25.7559 20.3683L24.3686 18.9277C24.3135 18.9808 24.2632 19.0109 24.2158 19.0296L24.9488 20.8904ZM24.3272 20.3259L24.9912 21.0459L26.4614 19.6901L25.7974 18.9701L24.3272 20.3259ZM24.9759 19.707C24.8883 19.8065 24.7707 19.8938 24.6024 19.963L25.3622 21.813C25.7912 21.6368 26.1696 21.3775 26.4766 21.029L24.9759 19.707ZM24.6166 19.9572C24.4564 20.0202 24.2404 20.064 23.9503 20.064V22.064C24.4388 22.064 24.9109 21.9905 25.3479 21.8188L24.6166 19.9572ZM30.3892 16.84L29.9278 17.7272C29.9348 17.7309 29.9419 17.7344 29.949 17.7379L30.3892 16.84ZM31.0292 17.464L30.1519 17.944L30.1558 17.9511L31.0292 17.464ZM31.2612 21V22C31.8134 22 32.2612 21.5523 32.2612 21H31.2612ZM30.0132 21H29.0132C29.0132 21.5523 29.4609 22 30.0132 22V21ZM29.7812 17.96L29.0391 18.6303C29.043 18.6346 29.0469 18.6389 29.0509 18.6432L29.7812 17.96ZM28.6052 17.84L29.0646 18.7283L29.0757 18.7224L28.6052 17.84ZM28.2372 18.216L27.354 17.7468C27.3502 17.7541 27.3464 17.7614 27.3427 17.7688L28.2372 18.216ZM28.1092 21V22C28.6614 22 29.1092 21.5523 29.1092 21H28.1092ZM26.8612 21H25.8612C25.8612 21.5523 26.3089 22 26.8612 22V21ZM26.8612 16.696V15.696C26.3089 15.696 25.8612 16.1437 25.8612 16.696H26.8612ZM28.0532 16.696H29.0532C29.0532 16.1437 28.6054 15.696 28.0532 15.696V16.696ZM28.0532 17.888L27.2041 18.4163C27.44 18.7954 27.8986 18.9722 28.3279 18.8495C28.7572 18.7269 29.0532 18.3345 29.0532 17.888H28.0532ZM27.8292 17.528L26.9482 17.0549C26.7788 17.3703 26.7909 17.7523 26.9801 18.0563L27.8292 17.528ZM28.4932 16.864L28.9663 17.745L28.9663 17.745L28.4932 16.864ZM29.4772 17.632C29.6799 17.632 29.8219 17.6722 29.9278 17.7272L30.8505 15.9528C30.423 15.7305 29.9571 15.632 29.4772 15.632V17.632ZM29.949 17.7379C30.0236 17.7745 30.0896 17.8302 30.1519 17.944L31.9064 16.984C31.6593 16.5324 31.2988 16.1722 30.8293 15.9421L29.949 17.7379ZM30.1558 17.9511C30.2019 18.0338 30.2612 18.2079 30.2612 18.536H32.2612C32.2612 17.9895 32.1657 17.4488 31.9025 16.9769L30.1558 17.9511ZM30.2612 18.536V21H32.2612V18.536H30.2612ZM31.2612 20H30.0132V22H31.2612V20ZM31.0132 21V18.728H29.0132V21H31.0132ZM31.0132 18.728C31.0132 18.2584 30.9118 17.7048 30.5114 17.2768L29.0509 18.6432C29.0059 18.5951 28.9956 18.5577 28.9979 18.5652C29.0013 18.5764 29.0132 18.6253 29.0132 18.728H31.0132ZM30.5233 17.2897C30.1396 16.8649 29.6269 16.712 29.1412 16.712V18.712C29.1817 18.712 29.178 18.7181 29.1478 18.7064C29.1325 18.7005 29.1133 18.6911 29.0927 18.677C29.072 18.6628 29.0538 18.6467 29.0391 18.6303L30.5233 17.2897ZM29.1412 16.712C28.7945 16.712 28.4519 16.7884 28.1346 16.9576L29.0757 18.7224C29.0784 18.7209 29.0931 18.712 29.1412 18.712V16.712ZM28.1457 16.9518C27.7909 17.1353 27.5291 17.4172 27.354 17.7468L29.1203 18.6852C29.1253 18.6757 29.1238 18.6812 29.1118 18.6935C29.0992 18.7064 29.0825 18.7189 29.0646 18.7282L28.1457 16.9518ZM27.3427 17.7688C27.166 18.1223 27.1092 18.5081 27.1092 18.872H29.1092C29.1092 18.7026 29.1377 18.6511 29.1316 18.6632L27.3427 17.7688ZM27.1092 18.872V21H29.1092V18.872H27.1092ZM28.1092 20H26.8612V22H28.1092V20ZM27.8612 21V16.696H25.8612V21H27.8612ZM26.8612 17.696H28.0532V15.696H26.8612V17.696ZM27.0532 16.696V17.888H29.0532V16.696H27.0532ZM28.9022 17.3597L28.6782 16.9997L26.9801 18.0563L27.2041 18.4163L28.9022 17.3597ZM28.7102 18.0011C28.7719 17.8862 28.8513 17.8067 28.9663 17.745L28.02 15.983C27.559 16.2306 27.1958 16.5938 26.9482 17.0549L28.7102 18.0011ZM28.9663 17.745C29.0913 17.6778 29.2532 17.632 29.4772 17.632V15.632C28.9651 15.632 28.471 15.7408 28.02 15.983L28.9663 17.745ZM35.0324 21H34.0324C34.0324 21.5523 34.4801 22 35.0324 22V21ZM35.0324 20.16H36.0324C36.0324 20.0228 36.0042 19.8871 35.9495 19.7613L35.0324 20.16ZM34.9524 19.976H33.9524C33.9524 20.1132 33.9806 20.2489 34.0353 20.3747L34.9524 19.976ZM34.7044 17.848L34.0221 18.5791C34.0261 18.5828 34.0301 18.5865 34.0341 18.5901L34.7044 17.848ZM33.2804 17.736L33.5827 18.6892C33.5873 18.6877 33.592 18.6862 33.5966 18.6847L33.2804 17.736ZM32.7204 18.024L31.8309 18.481C31.9677 18.7472 32.2166 18.9382 32.5092 19.0014C32.8018 19.0647 33.1073 18.9935 33.3418 18.8075L32.7204 18.024ZM32.2724 17.152L31.6965 16.3345C31.2888 16.6217 31.155 17.1654 31.3829 17.609L32.2724 17.152ZM33.1204 16.768L32.856 15.8036L32.856 15.8036L33.1204 16.768ZM35.6564 17.096L36.3054 16.3352L36.3054 16.3352L35.6564 17.096ZM36.2004 21V22C36.7527 22 37.2004 21.5523 37.2004 21H36.2004ZM32.8564 20.896L32.4172 21.7944C32.4226 21.797 32.4281 21.7996 32.4335 21.8022L32.8564 20.896ZM32.3044 20.424L33.1434 19.8798L33.1434 19.8798L32.3044 20.424ZM32.2964 19.088L31.4644 18.5333C31.4608 18.5387 31.4572 18.5441 31.4537 18.5496L32.2964 19.088ZM32.8964 18.64L33.2615 19.571C33.2667 19.5689 33.272 19.5668 33.2772 19.5647L32.8964 18.64ZM35.1044 18.472H36.1044C36.1044 17.9197 35.6567 17.472 35.1044 17.472V18.472ZM35.1044 19.2V20.2C35.6567 20.2 36.1044 19.7523 36.1044 19.2H35.1044ZM33.4884 19.344L32.8376 18.5847C32.8315 18.59 32.8254 18.5953 32.8194 18.6007L33.4884 19.344ZM33.5124 20.088L32.8961 20.8755C32.9086 20.8853 32.9214 20.8948 32.9344 20.904L33.5124 20.088ZM34.5924 20.08L35.0945 20.9448C35.1014 20.9408 35.1082 20.9367 35.115 20.9326L34.5924 20.08ZM34.9524 19.64L35.9011 19.3238C35.7678 18.924 35.3983 18.6507 34.977 18.6403C34.5557 18.6299 34.1731 18.8848 34.0204 19.2776L34.9524 19.64ZM35.1444 20.216L36.0949 20.5267C36.1615 20.323 36.1609 20.1032 36.0931 19.8998L35.1444 20.216ZM34.6484 20.848L34.1339 19.9905L34.1339 19.9905L34.6484 20.848ZM36.0324 21V20.16H34.0324V21H36.0324ZM35.9495 19.7613L35.8695 19.5773L34.0353 20.3747L34.1153 20.5587L35.9495 19.7613ZM35.9524 19.976V18.472H33.9524V19.976H35.9524ZM35.9524 18.472C35.9524 17.9831 35.7911 17.482 35.3747 17.1059L34.0341 18.5901C34.02 18.5774 34.0051 18.5609 33.9914 18.5412C33.9777 18.5214 33.9678 18.5021 33.9611 18.4853C33.9477 18.4516 33.9524 18.4415 33.9524 18.472H35.9524ZM35.3867 17.1169C34.9638 16.7222 34.4183 16.624 33.9604 16.624V18.624C34.0078 18.624 34.0435 18.6267 34.0691 18.6299C34.0947 18.6332 34.1075 18.6367 34.1101 18.6375C34.1139 18.6387 34.0731 18.6267 34.0221 18.5791L35.3867 17.1169ZM33.9604 16.624C33.6204 16.624 33.2871 16.6797 32.9642 16.7873L33.5966 18.6847C33.7217 18.643 33.8417 18.624 33.9604 18.624V16.624ZM32.9782 16.7828C32.6621 16.883 32.3629 17.0312 32.099 17.2405L33.3418 18.8075C33.3872 18.7715 33.4613 18.7277 33.5827 18.6892L32.9782 16.7828ZM33.6099 17.567L33.1619 16.695L31.3829 17.609L31.8309 18.481L33.6099 17.567ZM32.8484 17.9695C32.9721 17.8823 33.1446 17.7983 33.3848 17.7324L32.856 15.8036C32.4349 15.9191 32.0421 16.091 31.6965 16.3345L32.8484 17.9695ZM33.3848 17.7324C33.6297 17.6653 33.8768 17.632 34.1284 17.632V15.632C33.6973 15.632 33.2724 15.6894 32.856 15.8036L33.3848 17.7324ZM34.1284 17.632C34.6359 17.632 34.8838 17.7513 35.0075 17.8568L36.3054 16.3352C35.7037 15.822 34.933 15.632 34.1284 15.632V17.632ZM35.0075 17.8568C35.0724 17.9122 35.2004 18.0653 35.2004 18.544H37.2004C37.2004 17.7107 36.9657 16.8984 36.3054 16.3352L35.0075 17.8568ZM35.2004 18.544V21H37.2004V18.544H35.2004ZM36.2004 20H35.0324V22H36.2004V20ZM33.7204 20.064C33.4925 20.064 33.3563 20.0258 33.2793 19.9898L32.4335 21.8022C32.8365 21.9902 33.2763 22.064 33.7204 22.064V20.064ZM33.2956 19.9976C33.1959 19.9489 33.1599 19.9052 33.1434 19.8798L31.4654 20.9682C31.705 21.3374 32.0369 21.6085 32.4172 21.7944L33.2956 19.9976ZM33.1434 19.8798C33.1251 19.8517 33.1124 19.8209 33.1124 19.76H31.1124C31.1124 20.1897 31.2277 20.6016 31.4654 20.9682L33.1434 19.8798ZM33.1124 19.76C33.1124 19.6705 33.1315 19.6383 33.1391 19.6264L31.4537 18.5496C31.216 18.9217 31.1124 19.3375 31.1124 19.76H33.1124ZM33.1285 19.6427C33.1242 19.6491 33.1246 19.6453 33.1407 19.6333C33.1582 19.6202 33.1949 19.5971 33.2615 19.571L32.5313 17.709C32.1197 17.8705 31.7328 18.1307 31.4644 18.5333L33.1285 19.6427ZM33.2772 19.5647C33.3845 19.5205 33.596 19.472 33.9604 19.472V17.472C33.4502 17.472 32.9523 17.5355 32.5157 17.7153L33.2772 19.5647ZM33.9604 19.472H35.1044V17.472H33.9604V19.472ZM34.1044 18.472V19.2H36.1044V18.472H34.1044ZM35.1044 18.2H34.0964V20.2H35.1044V18.2ZM34.0964 18.2C33.7655 18.2 33.2404 18.2395 32.8376 18.5847L34.1392 20.1033C34.0854 20.1494 34.0368 20.176 34.0055 20.1903C33.9746 20.2045 33.9556 20.2089 33.9549 20.2091C33.9538 20.2093 33.9644 20.2068 33.9897 20.2043C34.0147 20.2019 34.0498 20.2 34.0964 20.2V18.2ZM32.8194 18.6007C32.5012 18.8871 32.3284 19.2776 32.3284 19.704H34.3284C34.3284 19.7583 34.3177 19.8324 34.2822 19.9121C34.2467 19.992 34.1986 20.0502 34.1574 20.0873L32.8194 18.6007ZM32.3284 19.704C32.3284 20.1618 32.5237 20.584 32.8961 20.8755L34.1287 19.3005C34.1766 19.338 34.2341 19.3999 34.2762 19.4879C34.318 19.575 34.3284 19.6536 34.3284 19.704H32.3284ZM32.9344 20.904C33.2862 21.1532 33.6859 21.224 34.0324 21.224V19.224C33.9904 19.224 33.9797 19.2195 33.9914 19.2225C34.005 19.2261 34.0432 19.2385 34.0904 19.272L32.9344 20.904ZM34.0324 21.224C34.4008 21.224 34.7634 21.1371 35.0945 20.9448L34.0903 19.2152C34.0875 19.2168 34.0847 19.2181 34.0794 19.2195C34.0735 19.221 34.059 19.224 34.0324 19.224V21.224ZM35.115 20.9326C35.4787 20.7097 35.7358 20.3846 35.8844 20.0024L34.0204 19.2776C34.0179 19.284 34.0203 19.2756 34.0324 19.2608C34.045 19.2454 34.0593 19.2339 34.0698 19.2274L35.115 20.9326ZM34.0037 19.9562L34.1957 20.5322L36.0931 19.8998L35.9011 19.3238L34.0037 19.9562ZM34.1939 19.9053C34.1746 19.9644 34.1581 19.976 34.1339 19.9905L35.1629 21.7055C35.6187 21.432 35.9329 21.0222 36.0949 20.5267L34.1939 19.9053ZM34.1339 19.9905C34.0949 20.0139 33.9796 20.064 33.7204 20.064V22.064C34.2186 22.064 34.7219 21.9701 35.1629 21.7055L34.1339 19.9905ZM37.7139 20.936L37.4534 21.9015C37.4594 21.9031 37.4654 21.9046 37.4714 21.9061L37.7139 20.936ZM36.9139 20.6L36.0069 20.1789C35.8001 20.6242 35.9472 21.1537 36.354 21.4286L36.9139 20.6ZM37.3299 19.704L37.8578 18.8547C37.6147 18.7035 37.3184 18.6639 37.044 18.7458C36.7696 18.8276 36.5435 19.0232 36.4229 19.2829L37.3299 19.704ZM38.0259 20.008L37.7386 20.9658C37.7461 20.9681 37.7536 20.9702 37.7612 20.9723L38.0259 20.008ZM39.4339 20.016L38.9418 19.1454C38.9363 19.1486 38.9307 19.1518 38.9252 19.1551L39.4339 20.016ZM39.4739 19.504L38.9669 20.3659C38.9864 20.3774 39.0064 20.3883 39.0267 20.3984L39.4739 19.504ZM39.1059 19.384L38.936 20.3695L38.936 20.3695L39.1059 19.384ZM38.5939 19.304L38.4484 20.2934L38.4525 20.2939L38.5939 19.304ZM38.0419 19.2L37.7929 20.1685C37.8016 20.1707 37.8103 20.1729 37.8191 20.1749L38.0419 19.2ZM37.5299 18.992L38.0356 18.1293L38.0356 18.1293L37.5299 18.992ZM37.1539 18.624L36.2912 19.1297C36.2955 19.137 36.2998 19.1442 36.3043 19.1514L37.1539 18.624ZM37.2499 17.304L36.4573 16.6943C36.454 16.6986 36.4507 16.7029 36.4474 16.7073L37.2499 17.304ZM37.9379 16.816L38.3036 17.7468C38.3083 17.7449 38.3131 17.743 38.3178 17.741L37.9379 16.816ZM39.9059 16.728L40.1119 15.7494L40.1119 15.7494L39.9059 16.728ZM40.6659 17.008L41.5715 17.4322C41.7884 16.9692 41.6211 16.4172 41.1837 16.1525L40.6659 17.008ZM40.2499 17.896L39.7419 18.7574C39.9845 18.9005 40.2763 18.9346 40.5454 18.8514C40.8144 18.7681 41.036 18.5753 41.1555 18.3202L40.2499 17.896ZM39.6179 17.648L39.393 18.6224C39.4026 18.6246 39.4122 18.6267 39.4218 18.6286L39.6179 17.648ZM38.4019 17.688L37.898 16.8242L37.898 16.8242L38.4019 17.688ZM38.3459 18.216L37.8389 19.0779C37.846 19.0821 37.8531 19.0862 37.8603 19.0902L38.3459 18.216ZM39.2259 18.432L39.0804 19.4214C39.091 19.4229 39.1017 19.4243 39.1124 19.4255L39.2259 18.432ZM39.7859 18.536L40.0349 17.5675L40.0349 17.5675L39.7859 18.536ZM40.2899 18.744L39.7709 19.5988C39.7827 19.606 39.7947 19.6129 39.8068 19.6196L40.2899 18.744ZM40.6659 19.104L39.8163 19.6314C39.8191 19.6359 39.8219 19.6403 39.8247 19.6448L40.6659 19.104ZM40.5699 20.408L41.3549 21.0277L41.3625 21.0177L40.5699 20.408ZM39.8739 20.888L39.5138 19.9551L39.5083 19.9572L39.8739 20.888ZM38.7779 20.064C38.4879 20.064 38.2149 20.0305 37.9564 19.9659L37.4714 21.9061C37.8956 22.0122 38.3319 22.064 38.7779 22.064V20.064ZM37.9744 19.9705C37.7005 19.8966 37.5478 19.8215 37.4738 19.7714L36.354 21.4286C36.6746 21.6452 37.0553 21.7941 37.4534 21.9015L37.9744 19.9705ZM37.8209 21.0211L38.2369 20.1251L36.4229 19.2829L36.0069 20.1789L37.8209 21.0211ZM36.802 20.5533C37.0874 20.7307 37.4034 20.8653 37.7386 20.9658L38.3133 19.0502C38.1151 18.9907 37.967 18.9226 37.8578 18.8547L36.802 20.5533ZM37.7612 20.9723C38.1126 21.0688 38.4684 21.12 38.8259 21.12V19.12C38.6608 19.12 38.4832 19.0965 38.2906 19.0437L37.7612 20.9723ZM38.8259 21.12C39.1344 21.12 39.5761 21.0935 39.9426 20.8769L38.9252 19.1551C38.9715 19.1277 39.0067 19.1151 39.0208 19.1105C39.0355 19.1057 39.0384 19.1061 39.0253 19.1083C39.0127 19.1105 38.99 19.1135 38.9554 19.116C38.9211 19.1184 38.8782 19.12 38.8259 19.12V21.12ZM39.926 20.8866C40.3064 20.6715 40.6179 20.2713 40.6179 19.728H38.6179C38.6179 19.6138 38.6492 19.4788 38.7292 19.3536C38.805 19.235 38.8941 19.1724 38.9418 19.1454L39.926 20.8866ZM40.6179 19.728C40.6179 19.5135 40.5649 19.2758 40.4231 19.0552C40.2834 18.838 40.0962 18.6971 39.9211 18.6096L39.0267 20.3984C38.9476 20.3589 38.8324 20.2794 38.7407 20.1368C38.6469 19.9908 38.6179 19.8412 38.6179 19.728H40.6179ZM39.9809 18.6421C39.7483 18.5053 39.4965 18.4366 39.2758 18.3985L38.936 20.3695C38.9756 20.3763 38.9969 20.3825 39.0039 20.3847C39.007 20.3857 39.0051 20.3853 38.9991 20.3827C38.9931 20.38 38.9819 20.3748 38.9669 20.3659L39.9809 18.6421ZM39.2758 18.3985C39.11 18.37 38.9297 18.3418 38.7353 18.3141L38.4525 20.2939C38.6315 20.3195 38.7925 20.3447 38.936 20.3695L39.2758 18.3985ZM38.7394 18.3146C38.5851 18.292 38.427 18.2622 38.2647 18.2251L37.8191 20.1749C38.0302 20.2231 38.24 20.2627 38.4484 20.2934L38.7394 18.3146ZM38.2909 18.2315C38.1876 18.2049 38.1043 18.1696 38.0356 18.1293L37.0242 19.8547C37.2649 19.9958 37.5229 20.0991 37.7929 20.1685L38.2909 18.2315ZM38.0356 18.1293C38.0234 18.1221 38.0152 18.1155 38.0035 18.0966L36.3043 19.1514C36.4846 19.4419 36.7271 19.6805 37.0242 19.8547L38.0356 18.1293ZM38.0166 18.1183C38.03 18.1412 38.0303 18.151 38.0272 18.1369C38.0238 18.122 38.0179 18.0863 38.0179 18.024H36.0179C36.0179 18.3843 36.0834 18.7753 36.2912 19.1297L38.0166 18.1183ZM38.0179 18.024C38.0179 17.9556 38.0326 17.9273 38.0524 17.9007L36.4474 16.7073C36.1579 17.0967 36.0179 17.5484 36.0179 18.024H38.0179ZM38.0425 17.9137C38.0697 17.8784 38.1361 17.8125 38.3036 17.7468L37.5723 15.8852C37.1423 16.0541 36.7501 16.3136 36.4573 16.6943L38.0425 17.9137ZM38.3178 17.741C38.4667 17.6799 38.6883 17.632 39.0099 17.632V15.632C38.4995 15.632 38.0065 15.7068 37.558 15.891L38.3178 17.741ZM39.0099 17.632C39.2301 17.632 39.4597 17.656 39.6999 17.7065L40.1119 15.7494C39.7441 15.672 39.3764 15.632 39.0099 15.632V17.632ZM39.6999 17.7065C39.9261 17.7542 40.0664 17.8141 40.1481 17.8635L41.1837 16.1525C40.8601 15.9566 40.4937 15.8298 40.1119 15.7494L39.6999 17.7065ZM39.7603 16.5838L39.3443 17.4718L41.1555 18.3202L41.5715 17.4322L39.7603 16.5838ZM40.7579 17.0346C40.4639 16.8613 40.1487 16.7343 39.814 16.6674L39.4218 18.6286C39.5138 18.647 39.6199 18.6854 39.7419 18.7574L40.7579 17.0346ZM39.8428 16.6736C39.567 16.61 39.2888 16.576 39.0099 16.576V18.576C39.1257 18.576 39.2528 18.59 39.393 18.6224L39.8428 16.6736ZM39.0099 16.576C38.6856 16.576 38.2618 16.6121 37.898 16.8242L38.9058 18.5518C38.8705 18.5723 38.8441 18.5823 38.8327 18.5861C38.8212 18.5901 38.8196 18.5896 38.8311 18.5875C38.8562 18.5828 38.9127 18.576 39.0099 18.576V16.576ZM37.898 16.8242C37.5564 17.0235 37.2099 17.4065 37.2099 17.976H39.2099C39.2099 18.1112 39.1694 18.2515 39.09 18.3707C39.017 18.4801 38.9371 18.5335 38.9058 18.5518L37.898 16.8242ZM37.2099 17.976C37.2099 18.4309 37.4375 18.8418 37.8389 19.0779L38.8529 17.3541C38.9368 17.4034 39.0382 17.4894 39.1139 17.623C39.1892 17.7559 39.2099 17.8845 39.2099 17.976H37.2099ZM37.8603 19.0902C38.0742 19.209 38.305 19.2789 38.5193 19.3233L38.9245 17.3647C38.8802 17.3556 38.8511 17.3471 38.8342 17.3413C38.8169 17.3355 38.818 17.3343 38.8315 17.3418L37.8603 19.0902ZM38.5193 19.3233C38.6956 19.3597 38.8829 19.3923 39.0804 19.4214L39.3714 17.4426C39.2062 17.4184 39.0575 17.3923 38.9245 17.3647L38.5193 19.3233ZM39.1124 19.4255C39.2522 19.4415 39.3936 19.4676 39.5369 19.5045L40.0349 17.5675C39.8049 17.5084 39.573 17.4652 39.3395 17.4385L39.1124 19.4255ZM39.5369 19.5045C39.6382 19.5305 39.7137 19.564 39.7709 19.5988L40.8089 17.8892C40.5675 17.7426 40.307 17.6375 40.0349 17.5675L39.5369 19.5045ZM39.8068 19.6196C39.8086 19.6206 39.8092 19.621 39.809 19.6209C39.8089 19.6208 39.8085 19.6205 39.8083 19.6203C39.8081 19.6201 39.8086 19.6205 39.8098 19.622C39.8109 19.6234 39.8132 19.6264 39.8163 19.6314L41.5155 18.5766C41.3321 18.2811 41.0824 18.0391 40.773 17.8684L39.8068 19.6196ZM39.8247 19.6448C39.8046 19.6135 39.8008 19.5944 39.8022 19.6004C39.804 19.6076 39.8099 19.6371 39.8099 19.696H41.8099C41.8099 19.3295 41.7393 18.9245 41.5071 18.5632L39.8247 19.6448ZM39.8099 19.696C39.8099 19.746 39.8005 19.7681 39.7773 19.7983L41.3625 21.0177C41.6593 20.6319 41.8099 20.1794 41.8099 19.696H39.8099ZM39.785 19.7884C39.7616 19.8181 39.6939 19.8856 39.5138 19.9551L40.234 21.8209C40.6619 21.6558 41.0582 21.4033 41.3548 21.0276L39.785 19.7884ZM39.5083 19.9572C39.3587 20.016 39.1255 20.064 38.7779 20.064V22.064C39.2943 22.064 39.7917 21.9947 40.2396 21.8188L39.5083 19.9572ZM42.4199 20.776L41.9573 21.6626L41.9626 21.6653L42.4199 20.776ZM41.5639 19.992L40.7076 20.5085L40.7113 20.5146L41.5639 19.992ZM41.5559 17.704L40.6996 17.1875L40.6972 17.1915L41.5559 17.704ZM42.3799 16.92L42.854 17.8005L42.8644 17.7948L42.3799 16.92ZM44.6919 16.904L44.217 17.784C44.2225 17.787 44.228 17.7899 44.2336 17.7928L44.6919 16.904ZM45.4999 17.672L44.6376 18.1784L44.6412 18.1845L45.4999 17.672ZM45.7879 19.032L46.7838 19.1225L46.7845 19.115L45.7879 19.032ZM45.7719 19.2V20.2C46.2857 20.2 46.7158 19.8107 46.7669 19.2995L45.7719 19.2ZM42.2759 19.2H41.2759C41.2759 19.7523 41.7236 20.2 42.2759 20.2V19.2ZM42.2759 18.472V17.472C41.7236 17.472 41.2759 17.9197 41.2759 18.472H42.2759ZM45.1159 18.472L45.5263 19.3839C45.9562 19.1905 46.1926 18.7231 46.0936 18.2621C45.9947 17.8012 45.5873 17.472 45.1159 17.472V18.472ZM44.6359 18.688H43.6359C43.6359 19.0273 43.808 19.3435 44.0929 19.5278C44.3779 19.712 44.7368 19.7392 45.0463 19.5999L44.6359 18.688ZM44.4999 18.104L43.6231 18.5848L43.6231 18.5848L44.4999 18.104ZM44.1239 17.72L43.6094 18.5775C43.6165 18.5818 43.6237 18.5859 43.6309 18.59L44.1239 17.72ZM42.9959 17.72L43.4889 18.5901L43.498 18.5848L42.9959 17.72ZM42.6199 18.112L43.4968 18.5929L43.503 18.5812L42.6199 18.112ZM42.6359 19.52L41.763 20.0078C41.7687 20.0181 41.7746 20.0282 41.7807 20.0383L42.6359 19.52ZM43.0759 19.928L42.6186 20.8173C42.6286 20.8224 42.6387 20.8274 42.6489 20.8322L43.0759 19.928ZM44.3479 19.96L43.9814 19.0295L43.9715 19.0335L44.3479 19.96ZM44.8279 19.648L45.563 18.9701C45.3807 18.7723 45.1264 18.6564 44.8576 18.6484C44.5887 18.6405 44.328 18.7411 44.1343 18.9277L44.8279 19.648ZM45.4919 20.368L46.2423 21.029C46.5809 20.6447 46.5743 20.0666 46.227 19.6901L45.4919 20.368ZM44.7479 20.888L45.1136 21.8188C45.1183 21.8169 45.1231 21.815 45.1278 21.813L44.7479 20.888ZM43.7159 20.064C43.3575 20.064 43.087 19.9946 42.8773 19.8867L41.9626 21.6653C42.4994 21.9414 43.093 22.064 43.7159 22.064V20.064ZM42.8825 19.8894C42.6633 19.7751 42.5179 19.6348 42.4165 19.4694L40.7113 20.5146C41.0153 21.0105 41.4405 21.3929 41.9573 21.6626L42.8825 19.8894ZM42.4202 19.4755C42.3197 19.3089 42.2599 19.1091 42.2599 18.848H40.2599C40.2599 19.4403 40.4028 20.0031 40.7076 20.5085L42.4202 19.4755ZM42.2599 18.848C42.2599 18.5739 42.3207 18.3739 42.4146 18.2165L40.6972 17.1915C40.3965 17.6954 40.2599 18.2581 40.2599 18.848H42.2599ZM42.4122 18.2205C42.522 18.0384 42.6645 17.9025 42.854 17.8005L41.9058 16.0395C41.402 16.3108 40.9951 16.6976 40.6996 17.1875L42.4122 18.2205ZM42.8644 17.7948C43.0478 17.6932 43.2701 17.632 43.5559 17.632V15.632C42.967 15.632 42.4053 15.7628 41.8954 16.0452L42.8644 17.7948ZM43.5559 17.632C43.8289 17.632 44.0416 17.6894 44.217 17.784L45.1668 16.024C44.6702 15.756 44.1255 15.632 43.5559 15.632V17.632ZM44.2336 17.7928C44.4042 17.8808 44.5346 18.003 44.6376 18.1784L46.3622 17.1656C46.0706 16.669 45.6622 16.2792 45.1502 16.0152L44.2336 17.7928ZM44.6412 18.1845C44.7287 18.3312 44.7959 18.5434 44.7959 18.864H46.7959C46.7959 18.2566 46.6657 17.6742 46.3586 17.1595L44.6412 18.1845ZM44.7959 18.864C44.7959 18.8768 44.7951 18.904 44.7914 18.949L46.7845 19.115C46.7914 19.032 46.7959 18.9472 46.7959 18.864H44.7959ZM44.792 18.9415C44.7869 18.9974 44.7819 19.0504 44.7769 19.1005L46.7669 19.2995C46.7726 19.2429 46.7782 19.1839 46.7838 19.1225L44.792 18.9415ZM45.7719 18.2H42.2759V20.2H45.7719V18.2ZM43.2759 19.2V18.472H41.2759V19.2H43.2759ZM42.2759 19.472H45.1159V17.472H42.2759V19.472ZM44.7055 17.5601L44.2255 17.7761L45.0463 19.5999L45.5263 19.3839L44.7055 17.5601ZM45.6359 18.688C45.6359 18.3275 45.5621 17.9613 45.3767 17.6232L43.6231 18.5848C43.6221 18.583 43.6247 18.5869 43.628 18.6008C43.6314 18.6155 43.6359 18.6433 43.6359 18.688H45.6359ZM45.3767 17.6232C45.1991 17.2993 44.9428 17.0346 44.6169 16.85L43.6309 18.59C43.6317 18.5905 43.6309 18.5901 43.6291 18.5887C43.6273 18.5873 43.6253 18.5856 43.6234 18.5836C43.6215 18.5817 43.6204 18.5803 43.6202 18.5799C43.6199 18.5796 43.621 18.5811 43.6231 18.5848L45.3767 17.6232ZM44.6384 16.8625C44.3018 16.6605 43.932 16.576 43.5639 16.576V18.576C43.5954 18.576 43.611 18.5795 43.6149 18.5805C43.6179 18.5813 43.6148 18.5807 43.6094 18.5775L44.6384 16.8625ZM43.5639 16.576C43.1951 16.576 42.8288 16.6607 42.4938 16.8552L43.498 18.5848C43.4988 18.5844 43.5009 18.583 43.5077 18.5813C43.515 18.5795 43.5326 18.576 43.5639 18.576V16.576ZM42.5029 16.85C42.1688 17.0393 41.9119 17.3131 41.7368 17.6428L43.503 18.5812C43.5044 18.5786 43.5054 18.5769 43.5061 18.5757C43.5068 18.5746 43.5072 18.5741 43.5072 18.5741C43.5072 18.5741 43.5069 18.5745 43.5062 18.5753C43.5056 18.576 43.5047 18.577 43.5036 18.5782C43.5012 18.5807 43.4984 18.5833 43.4953 18.5856C43.4923 18.588 43.49 18.5894 43.4889 18.59L42.5029 16.85ZM41.7431 17.6312C41.5559 17.9726 41.4839 18.3427 41.4839 18.704H43.4839C43.4839 18.6067 43.5026 18.5821 43.4967 18.5928L41.7431 17.6312ZM41.4839 18.704V18.896H43.4839V18.704H41.4839ZM41.4839 18.896C41.4839 19.2789 41.568 19.6589 41.763 20.0078L43.5088 19.0322C43.5012 19.0184 43.4839 18.9824 43.4839 18.896H41.4839ZM41.7807 20.0383C41.9852 20.3756 42.271 20.6385 42.6186 20.8173L43.5333 19.0387C43.5075 19.0255 43.5 19.0164 43.4911 19.0017L41.7807 20.0383ZM42.6489 20.8322C42.999 20.9976 43.3741 21.064 43.7479 21.064V19.064C43.6097 19.064 43.5368 19.0397 43.5029 19.0238L42.6489 20.8322ZM43.7479 21.064C44.0757 21.064 44.4087 21.0147 44.7243 20.8865L43.9715 19.0335C43.9458 19.044 43.8787 19.064 43.7479 19.064V21.064ZM44.7144 20.8904C45.019 20.7704 45.2887 20.5925 45.5215 20.3683L44.1343 18.9277C44.0791 18.9808 44.0288 19.0109 43.9814 19.0296L44.7144 20.8904ZM44.0928 20.3259L44.7568 21.0459L46.227 19.6901L45.563 18.9701L44.0928 20.3259ZM44.7415 19.707C44.6539 19.8065 44.5364 19.8938 44.368 19.963L45.1278 21.813C45.5568 21.6368 45.9352 21.3775 46.2423 21.029L44.7415 19.707ZM44.3823 19.9572C44.222 20.0202 44.0061 20.064 43.7159 20.064V22.064C44.2044 22.064 44.6765 21.9905 45.1136 21.8188L44.3823 19.9572ZM46.6268 21H45.6268C45.6268 21.5523 46.0745 22 46.6268 22V21ZM46.6268 16.696V15.696C46.0745 15.696 45.6268 16.1437 45.6268 16.696H46.6268ZM47.8188 16.696H48.8188C48.8188 16.1437 48.3711 15.696 47.8188 15.696V16.696ZM47.8188 17.912L46.9163 18.3427C47.1175 18.7644 47.5839 18.9905 48.0396 18.8873C48.4953 18.7841 48.8188 18.3792 48.8188 17.912H47.8188ZM47.6508 17.56L46.7291 17.1719C46.6183 17.4351 46.6253 17.7331 46.7483 17.9907L47.6508 17.56ZM48.2668 16.872L48.7468 17.7493C48.751 17.747 48.7552 17.7446 48.7594 17.7423L48.2668 16.872ZM49.2988 16.632H50.2988C50.2988 16.0797 49.8511 15.632 49.2988 15.632V16.632ZM49.2988 17.784L49.1993 18.779C49.4804 18.8072 49.7603 18.715 49.9698 18.5255C50.1793 18.3359 50.2988 18.0665 50.2988 17.784H49.2988ZM49.1548 17.776L49.0307 18.7683C49.0719 18.7734 49.1133 18.776 49.1548 18.776V17.776ZM48.1868 18.064L48.8651 18.7988L48.8658 18.7981L48.1868 18.064ZM47.8748 21V22C48.4271 22 48.8748 21.5523 48.8748 21H47.8748ZM47.6268 21V16.696H45.6268V21H47.6268ZM46.6268 17.696H47.8188V15.696H46.6268V17.696ZM46.8188 16.696V17.912H48.8188V16.696H46.8188ZM48.7213 17.4813L48.5533 17.1293L46.7483 17.9907L46.9163 18.3427L48.7213 17.4813ZM48.5724 17.9481C48.615 17.847 48.6674 17.7927 48.7468 17.7493L47.7868 15.9947C47.3008 16.2606 46.9426 16.665 46.7291 17.1719L48.5724 17.9481ZM48.7594 17.7423C48.8589 17.6859 49.0239 17.632 49.2988 17.632V15.632C48.763 15.632 48.24 15.7381 47.7742 16.0017L48.7594 17.7423ZM48.2988 16.632V17.784H50.2988V16.632H48.2988ZM49.3983 16.789C49.3198 16.7811 49.2378 16.776 49.1548 16.776V18.776C49.1571 18.776 49.1711 18.7762 49.1993 18.779L49.3983 16.789ZM49.2788 16.7837C49.1906 16.7727 49.1035 16.768 49.0188 16.768V18.768C49.03 18.768 49.0336 18.7686 49.0307 18.7683L49.2788 16.7837ZM49.0188 16.768C48.4725 16.768 47.9376 16.9323 47.5077 17.3299L48.8658 18.7981C48.8718 18.7926 48.8771 18.7887 48.89 18.7842C48.9054 18.7787 48.9444 18.768 49.0188 18.768V16.768ZM47.5085 17.3292C47.0175 17.7825 46.8748 18.4058 46.8748 18.968H48.8748C48.8748 18.8433 48.891 18.7807 48.8981 18.7602C48.9031 18.7458 48.8971 18.7693 48.8651 18.7988L47.5085 17.3292ZM46.8748 18.968V21H48.8748V18.968H46.8748ZM47.8748 20H46.6268V22H47.8748V20ZM51.3573 21L50.4353 21.3873C50.5913 21.7585 50.9546 22 51.3573 22V21ZM49.5493 16.696V15.696C49.2144 15.696 48.9018 15.8636 48.7164 16.1425C48.5311 16.4214 48.4976 16.7746 48.6273 17.0833L49.5493 16.696ZM50.8373 16.696L51.7638 16.3198C51.6107 15.9427 51.2443 15.696 50.8373 15.696V16.696ZM52.3413 20.4V21.4C52.674 21.4 52.985 21.2345 53.1708 20.9585C53.3566 20.6825 53.393 20.3321 53.2678 20.0238L52.3413 20.4ZM51.7013 20.4L50.7797 20.0119C50.6496 20.3206 50.6829 20.674 50.8682 20.9531C51.0535 21.2322 51.3662 21.4 51.7013 21.4V20.4ZM53.2613 16.696V15.696C52.859 15.696 52.4958 15.9371 52.3397 16.3079L53.2613 16.696ZM54.4613 16.696L55.3826 17.0847C55.5129 16.776 55.4799 16.4224 55.2946 16.1432C55.1093 15.8639 54.7964 15.696 54.4613 15.696V16.696ZM52.6453 21V22C53.0474 22 53.4103 21.7592 53.5666 21.3887L52.6453 21ZM52.2792 20.6127L50.4712 16.3087L48.6273 17.0833L50.4353 21.3873L52.2792 20.6127ZM49.5493 17.696H50.8373V15.696H49.5493V17.696ZM49.9107 17.0722L51.4147 20.7762L53.2678 20.0238L51.7638 16.3198L49.9107 17.0722ZM52.3413 19.4H51.7013V21.4H52.3413V19.4ZM52.6229 20.7881L54.1829 17.0841L52.3397 16.3079L50.7797 20.0119L52.6229 20.7881ZM53.2613 17.696H54.4613V15.696H53.2613V17.696ZM53.5399 16.3073L51.7239 20.6113L53.5666 21.3887L55.3826 17.0847L53.5399 16.3073ZM52.6453 20H51.3573V22H52.6453V20ZM55.6933 20.776L55.2308 21.6626L55.236 21.6653L55.6933 20.776ZM54.8373 19.992L53.981 20.5085L53.9847 20.5146L54.8373 19.992ZM54.8293 17.704L53.973 17.1875L53.9706 17.1915L54.8293 17.704ZM55.6533 16.92L56.1275 17.8005L56.1378 17.7948L55.6533 16.92ZM57.9653 16.904L57.4904 17.784C57.4959 17.787 57.5015 17.7899 57.5071 17.7928L57.9653 16.904ZM58.7733 17.672L57.911 18.1784L57.9146 18.1845L58.7733 17.672ZM59.0613 19.032L60.0573 19.1225L60.0579 19.115L59.0613 19.032ZM59.0453 19.2V20.2C59.5591 20.2 59.9893 19.8107 60.0404 19.2995L59.0453 19.2ZM55.5493 19.2H54.5493C54.5493 19.7523 54.9971 20.2 55.5493 20.2V19.2ZM55.5493 18.472V17.472C54.9971 17.472 54.5493 17.9197 54.5493 18.472H55.5493ZM58.3893 18.472L58.7997 19.3839C59.2296 19.1905 59.466 18.7231 59.3671 18.2621C59.2681 17.8012 58.8608 17.472 58.3893 17.472V18.472ZM57.9093 18.688H56.9093C56.9093 19.0273 57.0814 19.3435 57.3664 19.5278C57.6513 19.712 58.0103 19.7392 58.3197 19.5999L57.9093 18.688ZM57.7733 18.104L56.8965 18.5848L56.8965 18.5848L57.7733 18.104ZM57.3973 17.72L56.8828 18.5775C56.89 18.5818 56.8971 18.5859 56.9043 18.59L57.3973 17.72ZM56.2693 17.72L56.7624 18.5901L56.7715 18.5848L56.2693 17.72ZM55.8933 18.112L56.7702 18.5929L56.7765 18.5812L55.8933 18.112ZM55.9093 19.52L55.0364 20.0078C55.0421 20.0181 55.0481 20.0282 55.0541 20.0383L55.9093 19.52ZM56.3493 19.928L55.892 20.8173C55.902 20.8224 55.9121 20.8274 55.9223 20.8322L56.3493 19.928ZM57.6213 19.96L57.2548 19.0295L57.245 19.0335L57.6213 19.96ZM58.1013 19.648L58.8365 18.9701C58.6541 18.7723 58.3998 18.6564 58.131 18.6484C57.8622 18.6405 57.6014 18.7411 57.4077 18.9277L58.1013 19.648ZM58.7653 20.368L59.5157 21.029C59.8543 20.6447 59.8477 20.0666 59.5005 19.6901L58.7653 20.368ZM58.0213 20.888L58.387 21.8188C58.3918 21.8169 58.3965 21.815 58.4013 21.813L58.0213 20.888ZM56.9893 20.064C56.6309 20.064 56.3605 19.9946 56.1507 19.8867L55.236 21.6653C55.7729 21.9414 56.3664 22.064 56.9893 22.064V20.064ZM56.1559 19.8894C55.9368 19.7751 55.7913 19.6348 55.6899 19.4694L53.9847 20.5146C54.2887 21.0105 54.7139 21.3929 55.2308 21.6626L56.1559 19.8894ZM55.6936 19.4755C55.5931 19.3089 55.5333 19.1091 55.5333 18.848H53.5333C53.5333 19.4403 53.6762 20.0031 53.9811 20.5085L55.6936 19.4755ZM55.5333 18.848C55.5333 18.5739 55.5941 18.3739 55.6881 18.2165L53.9706 17.1915C53.6699 17.6954 53.5333 18.2581 53.5333 18.848H55.5333ZM55.6856 18.2205C55.7955 18.0384 55.9379 17.9025 56.1274 17.8005L55.1792 16.0395C54.6755 16.3108 54.2686 16.6976 53.9731 17.1875L55.6856 18.2205ZM56.1378 17.7948C56.3213 17.6932 56.5436 17.632 56.8293 17.632V15.632C56.2405 15.632 55.6787 15.7628 55.1688 16.0452L56.1378 17.7948ZM56.8293 17.632C57.1024 17.632 57.315 17.6894 57.4904 17.784L58.4403 16.024C57.9437 15.756 57.399 15.632 56.8293 15.632V17.632ZM57.5071 17.7928C57.6777 17.8808 57.808 18.003 57.9111 18.1784L59.6356 17.1656C59.344 16.669 58.9357 16.2792 58.4236 16.0152L57.5071 17.7928ZM57.9146 18.1845C58.0022 18.3312 58.0693 18.5434 58.0693 18.864H60.0693C60.0693 18.2566 59.9392 17.6742 59.6321 17.1595L57.9146 18.1845ZM58.0693 18.864C58.0693 18.8768 58.0685 18.904 58.0648 18.949L60.0579 19.115C60.0648 19.032 60.0693 18.9472 60.0693 18.864H58.0693ZM58.0655 18.9415C58.0604 18.9974 58.0553 19.0504 58.0503 19.1005L60.0404 19.2995C60.046 19.2429 60.0517 19.1839 60.0572 19.1225L58.0655 18.9415ZM59.0453 18.2H55.5493V20.2H59.0453V18.2ZM56.5493 19.2V18.472H54.5493V19.2H56.5493ZM55.5493 19.472H58.3893V17.472H55.5493V19.472ZM57.979 17.5601L57.499 17.7761L58.3197 19.5999L58.7997 19.3839L57.979 17.5601ZM58.9093 18.688C58.9093 18.3275 58.8356 17.9613 58.6502 17.6232L56.8965 18.5848C56.8955 18.583 56.8982 18.5869 56.9014 18.6008C56.9048 18.6155 56.9093 18.6433 56.9093 18.688H58.9093ZM58.6502 17.6232C58.4726 17.2993 58.2162 17.0346 57.8904 16.85L56.9043 18.59C56.9051 18.5905 56.9044 18.5901 56.9026 18.5887C56.9008 18.5873 56.8987 18.5856 56.8968 18.5836C56.8949 18.5817 56.8939 18.5803 56.8936 18.5799C56.8934 18.5796 56.8945 18.5811 56.8965 18.5848L58.6502 17.6232ZM57.9118 16.8625C57.5752 16.6605 57.2054 16.576 56.8373 16.576V18.576C56.8688 18.576 56.8845 18.5795 56.8883 18.5805C56.8914 18.5813 56.8882 18.5807 56.8828 18.5775L57.9118 16.8625ZM56.8373 16.576C56.4686 16.576 56.1022 16.6607 55.7672 16.8552L56.7715 18.5848C56.7722 18.5844 56.7744 18.583 56.7811 18.5813C56.7884 18.5795 56.806 18.576 56.8373 18.576V16.576ZM55.7763 16.85C55.4422 17.0393 55.1854 17.3131 55.0102 17.6428L56.7765 18.5812C56.7778 18.5786 56.7788 18.5769 56.7795 18.5757C56.7802 18.5746 56.7806 18.5741 56.7806 18.5741C56.7806 18.5741 56.7803 18.5745 56.7797 18.5753C56.7791 18.576 56.7782 18.577 56.777 18.5782C56.7746 18.5807 56.7718 18.5833 56.7688 18.5856C56.7657 18.588 56.7634 18.5894 56.7624 18.59L55.7763 16.85ZM55.0165 17.6312C54.8293 17.9726 54.7573 18.3427 54.7573 18.704H56.7573C56.7573 18.6067 56.776 18.5821 56.7702 18.5928L55.0165 17.6312ZM54.7573 18.704V18.896H56.7573V18.704H54.7573ZM54.7573 18.896C54.7573 19.2789 54.8414 19.6589 55.0364 20.0078L56.7823 19.0322C56.7746 19.0184 56.7573 18.9824 56.7573 18.896H54.7573ZM55.0541 20.0383C55.2586 20.3756 55.5444 20.6385 55.892 20.8173L56.8067 19.0387C56.7809 19.0255 56.7734 19.0164 56.7645 19.0017L55.0541 20.0383ZM55.9223 20.8322C56.2725 20.9976 56.6476 21.064 57.0213 21.064V19.064C56.8831 19.064 56.8102 19.0397 56.7763 19.0238L55.9223 20.8322ZM57.0213 21.064C57.3492 21.064 57.6822 21.0147 57.9977 20.8865L57.245 19.0335C57.2192 19.044 57.1522 19.064 57.0213 19.064V21.064ZM57.9879 20.8904C58.2924 20.7704 58.5622 20.5925 58.795 20.3683L57.4077 18.9277C57.3525 18.9808 57.3023 19.0109 57.2548 19.0296L57.9879 20.8904ZM57.3662 20.3259L58.0302 21.0459L59.5005 19.6901L58.8365 18.9701L57.3662 20.3259ZM58.015 19.707C57.9273 19.8065 57.8098 19.8938 57.6414 19.963L58.4013 21.813C58.8302 21.6368 59.2087 21.3775 59.5157 21.029L58.015 19.707ZM57.6557 19.9572C57.4954 20.0202 57.2795 20.064 56.9893 20.064V22.064C57.4779 22.064 57.9499 21.9905 58.387 21.8188L57.6557 19.9572ZM59.9002 21H58.9002C58.9002 21.5523 59.3479 22 59.9002 22V21ZM59.9002 16.696V15.696C59.3479 15.696 58.9002 16.1437 58.9002 16.696H59.9002ZM61.0922 16.696H62.0922C62.0922 16.1437 61.6445 15.696 61.0922 15.696V16.696ZM61.0922 17.912L60.1897 18.3427C60.391 18.7644 60.8574 18.9905 61.313 18.8873C61.7687 18.7841 62.0922 18.3792 62.0922 17.912H61.0922ZM60.9242 17.56L60.0026 17.1719C59.8918 17.4351 59.8988 17.7331 60.0217 17.9907L60.9242 17.56ZM61.5402 16.872L62.0202 17.7493C62.0244 17.747 62.0286 17.7446 62.0328 17.7423L61.5402 16.872ZM62.5722 16.632H63.5722C63.5722 16.0797 63.1245 15.632 62.5722 15.632V16.632ZM62.5722 17.784L62.4727 18.779C62.7538 18.8072 63.0337 18.715 63.2432 18.5255C63.4527 18.3359 63.5722 18.0665 63.5722 17.784H62.5722ZM62.4282 17.776L62.3042 18.7683C62.3453 18.7734 62.3868 18.776 62.4282 18.776V17.776ZM61.4602 18.064L62.1385 18.7988L62.1393 18.7981L61.4602 18.064ZM61.1482 21V22C61.7005 22 62.1482 21.5523 62.1482 21H61.1482ZM60.9002 21V16.696H58.9002V21H60.9002ZM59.9002 17.696H61.0922V15.696H59.9002V17.696ZM60.0922 16.696V17.912H62.0922V16.696H60.0922ZM61.9947 17.4813L61.8267 17.1293L60.0217 17.9907L60.1897 18.3427L61.9947 17.4813ZM61.8459 17.9481C61.8884 17.847 61.9409 17.7927 62.0202 17.7493L61.0602 15.9947C60.5743 16.2606 60.216 16.665 60.0026 17.1719L61.8459 17.9481ZM62.0328 17.7423C62.1323 17.6859 62.2973 17.632 62.5722 17.632V15.632C62.0365 15.632 61.5135 15.7381 61.0476 16.0017L62.0328 17.7423ZM61.5722 16.632V17.784H63.5722V16.632H61.5722ZM62.6717 16.789C62.5933 16.7811 62.5112 16.776 62.4282 16.776V18.776C62.4305 18.776 62.4445 18.7762 62.4727 18.779L62.6717 16.789ZM62.5523 16.7837C62.464 16.7727 62.377 16.768 62.2922 16.768V18.768C62.3035 18.768 62.3071 18.7686 62.3042 18.7683L62.5523 16.7837ZM62.2922 16.768C61.7459 16.768 61.211 16.9323 60.7812 17.3299L62.1393 18.7981C62.1453 18.7926 62.1506 18.7887 62.1634 18.7842C62.1788 18.7787 62.2179 18.768 62.2922 18.768V16.768ZM60.7819 17.3292C60.2909 17.7825 60.1482 18.4058 60.1482 18.968H62.1482C62.1482 18.8433 62.1645 18.7807 62.1715 18.7602C62.1765 18.7458 62.1705 18.7693 62.1385 18.7988L60.7819 17.3292ZM60.1482 18.968V21H62.1482V18.968H60.1482ZM61.1482 20H59.9002V22H61.1482V20Z" fill="black"/>
</g>
<defs>
<filter id="filter0_d_3_2" x="1" y="10" width="67" height="17" filterUnits="userSpaceOnUse" color-interpolation-filters="sRGB">
<feFlood flood-opacity="0" result="BackgroundImageFix"/>
<feColorMatrix in="SourceAlpha" type="matrix" values="0 0 0 0 0 0 0 0 0 0 0 0 0 0 0 0 0 0 127 0" result="hardAlpha"/>
<feOffset/>
<feGaussianBlur stdDeviation="2"/>
<feComposite in2="hardAlpha" operator="out"/>
<feColorMatrix type="matrix" values="0 0 0 0 1 0 0 0 0 1 0 0 0 0 1 0 0 0 0.25 0"/>
<feBlend mode="normal" in2="BackgroundImageFix" result="effect1_dropShadow_3_2"/>
<feBlend mode="normal" in="SourceGraphic" in2="effect1_dropShadow_3_2" result="shape"/>
</filter>
<linearGradient id="paint0_linear_3_2" x1="34.5" y1="15" x2="34.5" y2="21" gradientUnits="userSpaceOnUse">
<stop stop-color="#C345FF"/>
<stop offset="1" stop-color="#4584FF"/>
</linearGradient>
</defs>
</svg>
