<svg width="16" height="16" viewBox="0 0 16 16" fill="none" xmlns="http://www.w3.org/2000/svg">
<g clip-path="url(#clip0_1_13)">
<rect width="16" height="16" fill="#CBD0FF"/>
<circle cx="13.5" cy="12.5" r="2.5" fill="#C345FF"/>
<circle cx="14.5" cy="4.5" r="3.5" fill="#4584FF"/>
<circle cx="2" cy="7" r="3" fill="#45FFBC"/>
<mask id="path-5-inside-1_1_13" fill="white">
<path d="M2 3C2 2.44772 2.44772 2 3 2H13C13.5523 2 14 2.44772 14 3V14H2V3Z"/>
</mask>
<path d="M1 3C1 1.89543 1.89543 1 3 1H13C14.1046 1 15 1.89543 15 3H13H3H1ZM14 14H2H14ZM1 14V3C1 1.89543 1.89543 1 3 1V3V14H1ZM13 1C14.1046 1 15 1.89543 15 3V14H13V3V1Z" fill="black" mask="url(#path-5-inside-1_1_13)"/>
<mask id="path-7-outside-2_1_13" maskUnits="userSpaceOnUse" x="2" y="2" width="12" height="4" fill="black">
<rect fill="white" x="2" y="2" width="12" height="4"/>
<path d="M2 3C2 2.44772 2.44772 2 3 2H13C13.5523 2 14 2.44772 14 3V4C14 4.55228 13.5523 5 13 5H3C2.44772 5 2 4.55228 2 4V3Z"/>
</mask>
<path d="M2 3C2 2.44772 2.44772 2 3 2H13C13.5523 2 14 2.44772 14 3V4C14 4.55228 13.5523 5 13 5H3C2.44772 5 2 4.55228 2 4V3Z" fill="#2E2E2E"/>
<path d="M2 2H14H2ZM14 4C14 4.82843 13.3284 5.5 12.5 5.5H3.5C2.67157 5.5 2 4.82843 2 4C2 4.27614 2.44772 4.5 3 4.5H13C13.5523 4.5 14 4.27614 14 4ZM2 5V2V5ZM14 2V5V2Z" fill="black" mask="url(#path-7-outside-2_1_13)"/>
<mask id="path-9-outside-3_1_13" maskUnits="userSpaceOnUse" x="2" y="6" width="12" height="4" fill="black">
<rect fill="white" x="2" y="6" width="12" height="4"/>
<path d="M2 7C2 6.44772 2.44772 6 3 6H13C13.5523 6 14 6.44772 14 7V8C14 8.55228 13.5523 9 13 9H3C2.44772 9 2 8.55228 2 8V7Z"/>
</mask>
<path d="M2 7C2 6.44772 2.44772 6 3 6H13C13.5523 6 14 6.44772 14 7V8C14 8.55228 13.5523 9 13 9H3C2.44772 9 2 8.55228 2 8V7Z" fill="#2E2E2E"/>
<path d="M2 6H14H2ZM14 8C14 8.82843 13.3284 9.5 12.5 9.5H3.5C2.67157 9.5 2 8.82843 2 8C2 8.27614 2.44772 8.5 3 8.5H13C13.5523 8.5 14 8.27614 14 8ZM2 9V6V9ZM14 6V9V6Z" fill="black" mask="url(#path-9-outside-3_1_13)"/>
<mask id="path-11-outside-4_1_13" maskUnits="userSpaceOnUse" x="2" y="10" width="12" height="4" fill="black">
<rect fill="white" x="2" y="10" width="12" height="4"/>
<path d="M2 11C2 10.4477 2.44772 10 3 10H13C13.5523 10 14 10.4477 14 11V12C14 12.5523 13.5523 13 13 13H3C2.44772 13 2 12.5523 2 12V11Z"/>
</mask>
<path d="M2 11C2 10.4477 2.44772 10 3 10H13C13.5523 10 14 10.4477 14 11V12C14 12.5523 13.5523 13 13 13H3C2.44772 13 2 12.5523 2 12V11Z" fill="#2E2E2E"/>
<path d="M2 10H14H2ZM14 12C14 12.8284 13.3284 13.5 12.5 13.5H3.5C2.67157 13.5 2 12.8284 2 12C2 12.2761 2.44772 12.5 3 12.5H13C13.5523 12.5 14 12.2761 14 12ZM2 13V10V13ZM14 10V13V10Z" fill="black" mask="url(#path-11-outside-4_1_13)"/>
<circle cx="12.5" cy="3.5" r="0.5" fill="#4584FF"/>
<circle cx="10.5" cy="3.5" r="0.5" fill="#45FFBC"/>
<circle cx="12.5" cy="7.5" r="0.5" fill="#4584FF"/>
<circle cx="10.5" cy="7.5" r="0.5" fill="#45FFBC"/>
<circle cx="12.5" cy="11.5" r="0.5" fill="#4584FF"/>
<circle cx="10.5" cy="11.5" r="0.5" fill="#45FFBC"/>
<rect x="3" y="3" width="2" height="1" rx="0.25" fill="url(#paint0_linear_1_13)"/>
<rect x="3" y="7" width="2" height="1" rx="0.25" fill="url(#paint1_linear_1_13)"/>
<rect x="3" y="11" width="2" height="1" rx="0.25" fill="url(#paint2_linear_1_13)"/>
</g>
<defs>
<linearGradient id="paint0_linear_1_13" x1="4" y1="3" x2="4" y2="4" gradientUnits="userSpaceOnUse">
<stop stop-color="#D869FF"/>
<stop offset="1" stop-color="#A954FF"/>
</linearGradient>
<linearGradient id="paint1_linear_1_13" x1="4" y1="7" x2="4" y2="8" gradientUnits="userSpaceOnUse">
<stop stop-color="#D869FF"/>
<stop offset="1" stop-color="#A954FF"/>
</linearGradient>
<linearGradient id="paint2_linear_1_13" x1="4" y1="11" x2="4" y2="12" gradientUnits="userSpaceOnUse">
<stop stop-color="#D869FF"/>
<stop offset="1" stop-color="#A954FF"/>
</linearGradient>
<clipPath id="clip0_1_13">
<rect width="16" height="16" fill="white"/>
</clipPath>
</defs>
</svg>
