<svg width="79" height="40" viewBox="0 0 79 40" fill="none" xmlns="http://www.w3.org/2000/svg">
<rect width="79" height="40" fill="#CBD0FF"/>
<circle cx="53" cy="31" r="6" fill="#C345FF"/>
<circle cx="55.5" cy="10.5" r="8.5" fill="#4584FF"/>
<circle cx="21.5" cy="17.5" r="7.5" fill="#45FFBC"/>
<g clip-path="url(#clip0_3_2)">
<path d="M4 24V18H5V19H8V18H9V24H8V20H5V24H4ZM5 18V17H8V18H5ZM10 23V20H11V23H10ZM11 20V19H13V20H11ZM11 24V23H14V21H13V20H14V17H15V24H11ZM20 21V20H21V21H20ZM16 24V19H17V20H18V21H17V24H16ZM18 20V19H20V20H18ZM23 24V23H27V24H23ZM22 23V20H23V21H26V20H27V22H23V23H22ZM23 20V19H26V20H23ZM32 24V20H33V24H32ZM28 24V19H32V20H29V24H28ZM34 23V22H35V23H34ZM35 24V23H38V22H35V21H38V20H39V24H35ZM35 20V19H38V20H35ZM40 24V23H44V24H40ZM44 23V22H45V23H44ZM41 22V21H44V22H41ZM40 21V20H41V21H40ZM41 20V19H45V20H41ZM47 24V23H51V24H47ZM46 23V20H47V21H50V20H51V22H47V23H46ZM47 20V19H50V20H47ZM56 21V20H57V21H56ZM52 24V19H53V20H54V21H53V24H52ZM54 20V19H56V20H54ZM60 24V23H61V24H60ZM59 23V22H60V23H59ZM61 23V22H62V23H61ZM58 22V19H59V22H58ZM62 22V19H63V22H62ZM65 24V23H69V24H65ZM64 23V20H65V21H68V20H69V22H65V23H64ZM65 20V19H68V20H65ZM74 21V20H75V21H74ZM70 24V19H71V20H72V21H71V24H70ZM72 20V19H74V20H72Z" fill="url(#paint0_linear_3_2)"/>
<path d="M4 24H3V25H4V24ZM4 18V17H3V18H4ZM5 18H6V17H5V18ZM5 19H4V20H5V19ZM8 19V20H9V19H8ZM8 18V17H7V18H8ZM9 18H10V17H9V18ZM9 24V25H10V24H9ZM8 24H7V25H8V24ZM8 20H9V19H8V20ZM5 20V19H4V20H5ZM5 24V25H6V24H5ZM5 18H4V19H5V18ZM5 17V16H4V17H5ZM8 17H9V16H8V17ZM8 18V19H9V18H8ZM5 24V18H3V24H5ZM4 19H5V17H4V19ZM4 18V19H6V18H4ZM5 20H8V18H5V20ZM9 19V18H7V19H9ZM8 19H9V17H8V19ZM8 18V24H10V18H8ZM9 23H8V25H9V23ZM9 24V20H7V24H9ZM8 19H5V21H8V19ZM4 20V24H6V20H4ZM5 23H4V25H5V23ZM6 18V17H4V18H6ZM5 18H8V16H5V18ZM7 17V18H9V17H7ZM8 17H5V19H8V17ZM10 23H9V24H10V23ZM10 20V19H9V20H10ZM11 20H12V19H11V20ZM11 23V24H12V23H11ZM11 20H10V21H11V20ZM11 19V18H10V19H11ZM13 19H14V18H13V19ZM13 20V21H14V20H13ZM11 24H10V25H11V24ZM11 23V22H10V23H11ZM14 23V24H15V23H14ZM14 21H15V20H14V21ZM13 21H12V22H13V21ZM13 20V19H12V20H13ZM14 20V21H15V20H14ZM14 17V16H13V17H14ZM15 17H16V16H15V17ZM15 24V25H16V24H15ZM11 23V20H9V23H11ZM10 21H11V19H10V21ZM10 20V23H12V20H10ZM11 22H10V24H11V22ZM12 20V19H10V20H12ZM11 20H13V18H11V20ZM12 19V20H14V19H12ZM13 19H11V21H13V19ZM12 24V23H10V24H12ZM11 24H14V22H11V24ZM15 23V21H13V23H15ZM14 20H13V22H14V20ZM14 21V20H12V21H14ZM13 21H14V19H13V21ZM15 20V17H13V20H15ZM14 18H15V16H14V18ZM14 17V24H16V17H14ZM15 23H11V25H15V23ZM20 21H19V22H20V21ZM20 20V19H19V20H20ZM21 20H22V19H21V20ZM21 21V22H22V21H21ZM16 24H15V25H16V24ZM16 19V18H15V19H16ZM17 19H18V18H17V19ZM17 20H16V21H17V20ZM18 20H19V19H18V20ZM18 21V22H19V21H18ZM17 21V20H16V21H17ZM17 24V25H18V24H17ZM18 20H17V21H18V20ZM18 19V18H17V19H18ZM20 19H21V18H20V19ZM20 20V21H21V20H20ZM21 21V20H19V21H21ZM20 21H21V19H20V21ZM20 20V21H22V20H20ZM21 20H20V22H21V20ZM17 24V19H15V24H17ZM16 20H17V18H16V20ZM16 19V20H18V19H16ZM17 21H18V19H17V21ZM17 20V21H19V20H17ZM18 20H17V22H18V20ZM16 21V24H18V21H16ZM17 23H16V25H17V23ZM19 20V19H17V20H19ZM18 20H20V18H18V20ZM19 19V20H21V19H19ZM20 19H18V21H20V19ZM23 24H22V25H23V24ZM23 23V22H22V23H23ZM27 23H28V22H27V23ZM27 24V25H28V24H27ZM22 23H21V24H22V23ZM22 20V19H21V20H22ZM23 20H24V19H23V20ZM23 21H22V22H23V21ZM26 21V22H27V21H26ZM26 20V19H25V20H26ZM27 20H28V19H27V20ZM27 22V23H28V22H27ZM23 22V21H22V22H23ZM23 23V24H24V23H23ZM23 20H22V21H23V20ZM23 19V18H22V19H23ZM26 19H27V18H26V19ZM26 20V21H27V20H26ZM24 24V23H22V24H24ZM23 24H27V22H23V24ZM26 23V24H28V23H26ZM27 23H23V25H27V23ZM23 23V20H21V23H23ZM22 21H23V19H22V21ZM22 20V21H24V20H22ZM23 22H26V20H23V22ZM27 21V20H25V21H27ZM26 21H27V19H26V21ZM26 20V22H28V20H26ZM27 21H23V23H27V21ZM22 22V23H24V22H22ZM23 22H22V24H23V22ZM24 20V19H22V20H24ZM23 20H26V18H23V20ZM25 19V20H27V19H25ZM26 19H23V21H26V19ZM32 24H31V25H32V24ZM32 20V19H31V20H32ZM33 20H34V19H33V20ZM33 24V25H34V24H33ZM28 24H27V25H28V24ZM28 19V18H27V19H28ZM32 19H33V18H32V19ZM32 20V21H33V20H32ZM29 20V19H28V20H29ZM29 24V25H30V24H29ZM33 24V20H31V24H33ZM32 21H33V19H32V21ZM32 20V24H34V20H32ZM33 23H32V25H33V23ZM29 24V19H27V24H29ZM28 20H32V18H28V20ZM31 19V20H33V19H31ZM32 19H29V21H32V19ZM28 20V24H30V20H28ZM29 23H28V25H29V23ZM34 23H33V24H34V23ZM34 22V21H33V22H34ZM35 22H36V21H35V22ZM35 23V24H36V23H35ZM35 24H34V25H35V24ZM35 23V22H34V23H35ZM38 23V24H39V23H38ZM38 22H39V21H38V22ZM35 22H34V23H35V22ZM35 21V20H34V21H35ZM38 21V22H39V21H38ZM38 20V19H37V20H38ZM39 20H40V19H39V20ZM39 24V25H40V24H39ZM35 20H34V21H35V20ZM35 19V18H34V19H35ZM38 19H39V18H38V19ZM38 20V21H39V20H38ZM35 23V22H33V23H35ZM34 23H35V21H34V23ZM34 22V23H36V22H34ZM35 22H34V24H35V22ZM36 24V23H34V24H36ZM35 24H38V22H35V24ZM39 23V22H37V23H39ZM38 21H35V23H38V21ZM36 22V21H34V22H36ZM35 22H38V20H35V22ZM39 21V20H37V21H39ZM38 21H39V19H38V21ZM38 20V24H40V20H38ZM39 23H35V25H39V23ZM36 20V19H34V20H36ZM35 20H38V18H35V20ZM37 19V20H39V19H37ZM38 19H35V21H38V19ZM40 24H39V25H40V24ZM40 23V22H39V23H40ZM44 23H45V22H44V23ZM44 24V25H45V24H44ZM44 23H43V24H44V23ZM44 22V21H43V22H44ZM45 22H46V21H45V22ZM45 23V24H46V23H45ZM41 22H40V23H41V22ZM41 21V20H40V21H41ZM44 21H45V20H44V21ZM44 22V23H45V22H44ZM40 21H39V22H40V21ZM40 20V19H39V20H40ZM41 20H42V19H41V20ZM41 21V22H42V21H41ZM41 20H40V21H41V20ZM41 19V18H40V19H41ZM45 19H46V18H45V19ZM45 20V21H46V20H45ZM41 24V23H39V24H41ZM40 24H44V22H40V24ZM43 23V24H45V23H43ZM44 23H40V25H44V23ZM45 23V22H43V23H45ZM44 23H45V21H44V23ZM44 22V23H46V22H44ZM45 22H44V24H45V22ZM42 22V21H40V22H42ZM41 22H44V20H41V22ZM43 21V22H45V21H43ZM44 21H41V23H44V21ZM41 21V20H39V21H41ZM40 21H41V19H40V21ZM40 20V21H42V20H40ZM41 20H40V22H41V20ZM42 20V19H40V20H42ZM41 20H45V18H41V20ZM44 19V20H46V19H44ZM45 19H41V21H45V19ZM47 24H46V25H47V24ZM47 23V22H46V23H47ZM51 23H52V22H51V23ZM51 24V25H52V24H51ZM46 23H45V24H46V23ZM46 20V19H45V20H46ZM47 20H48V19H47V20ZM47 21H46V22H47V21ZM50 21V22H51V21H50ZM50 20V19H49V20H50ZM51 20H52V19H51V20ZM51 22V23H52V22H51ZM47 22V21H46V22H47ZM47 23V24H48V23H47ZM47 20H46V21H47V20ZM47 19V18H46V19H47ZM50 19H51V18H50V19ZM50 20V21H51V20H50ZM48 24V23H46V24H48ZM47 24H51V22H47V24ZM50 23V24H52V23H50ZM51 23H47V25H51V23ZM47 23V20H45V23H47ZM46 21H47V19H46V21ZM46 20V21H48V20H46ZM47 22H50V20H47V22ZM51 21V20H49V21H51ZM50 21H51V19H50V21ZM50 20V22H52V20H50ZM51 21H47V23H51V21ZM46 22V23H48V22H46ZM47 22H46V24H47V22ZM48 20V19H46V20H48ZM47 20H50V18H47V20ZM49 19V20H51V19H49ZM50 19H47V21H50V19ZM56 21H55V22H56V21ZM56 20V19H55V20H56ZM57 20H58V19H57V20ZM57 21V22H58V21H57ZM52 24H51V25H52V24ZM52 19V18H51V19H52ZM53 19H54V18H53V19ZM53 20H52V21H53V20ZM54 20H55V19H54V20ZM54 21V22H55V21H54ZM53 21V20H52V21H53ZM53 24V25H54V24H53ZM54 20H53V21H54V20ZM54 19V18H53V19H54ZM56 19H57V18H56V19ZM56 20V21H57V20H56ZM57 21V20H55V21H57ZM56 21H57V19H56V21ZM56 20V21H58V20H56ZM57 20H56V22H57V20ZM53 24V19H51V24H53ZM52 20H53V18H52V20ZM52 19V20H54V19H52ZM53 21H54V19H53V21ZM53 20V21H55V20H53ZM54 20H53V22H54V20ZM52 21V24H54V21H52ZM53 23H52V25H53V23ZM55 20V19H53V20H55ZM54 20H56V18H54V20ZM55 19V20H57V19H55ZM56 19H54V21H56V19ZM60 24H59V25H60V24ZM60 23V22H59V23H60ZM61 23H62V22H61V23ZM61 24V25H62V24H61ZM59 23H58V24H59V23ZM59 22V21H58V22H59ZM60 22H61V21H60V22ZM60 23V24H61V23H60ZM61 23H60V24H61V23ZM61 22V21H60V22H61ZM62 22H63V21H62V22ZM62 23V24H63V23H62ZM58 22H57V23H58V22ZM58 19V18H57V19H58ZM59 19H60V18H59V19ZM59 22V23H60V22H59ZM62 22H61V23H62V22ZM62 19V18H61V19H62ZM63 19H64V18H63V19ZM63 22V23H64V22H63ZM61 24V23H59V24H61ZM60 24H61V22H60V24ZM60 23V24H62V23H60ZM61 23H60V25H61V23ZM60 23V22H58V23H60ZM59 23H60V21H59V23ZM59 22V23H61V22H59ZM60 22H59V24H60V22ZM62 23V22H60V23H62ZM61 23H62V21H61V23ZM61 22V23H63V22H61ZM62 22H61V24H62V22ZM59 22V19H57V22H59ZM58 20H59V18H58V20ZM58 19V22H60V19H58ZM59 21H58V23H59V21ZM63 22V19H61V22H63ZM62 20H63V18H62V20ZM62 19V22H64V19H62ZM63 21H62V23H63V21ZM65 24H64V25H65V24ZM65 23V22H64V23H65ZM69 23H70V22H69V23ZM69 24V25H70V24H69ZM64 23H63V24H64V23ZM64 20V19H63V20H64ZM65 20H66V19H65V20ZM65 21H64V22H65V21ZM68 21V22H69V21H68ZM68 20V19H67V20H68ZM69 20H70V19H69V20ZM69 22V23H70V22H69ZM65 22V21H64V22H65ZM65 23V24H66V23H65ZM65 20H64V21H65V20ZM65 19V18H64V19H65ZM68 19H69V18H68V19ZM68 20V21H69V20H68ZM66 24V23H64V24H66ZM65 24H69V22H65V24ZM68 23V24H70V23H68ZM69 23H65V25H69V23ZM65 23V20H63V23H65ZM64 21H65V19H64V21ZM64 20V21H66V20H64ZM65 22H68V20H65V22ZM69 21V20H67V21H69ZM68 21H69V19H68V21ZM68 20V22H70V20H68ZM69 21H65V23H69V21ZM64 22V23H66V22H64ZM65 22H64V24H65V22ZM66 20V19H64V20H66ZM65 20H68V18H65V20ZM67 19V20H69V19H67ZM68 19H65V21H68V19ZM74 21H73V22H74V21ZM74 20V19H73V20H74ZM75 20H76V19H75V20ZM75 21V22H76V21H75ZM70 24H69V25H70V24ZM70 19V18H69V19H70ZM71 19H72V18H71V19ZM71 20H70V21H71V20ZM72 20H73V19H72V20ZM72 21V22H73V21H72ZM71 21V20H70V21H71ZM71 24V25H72V24H71ZM72 20H71V21H72V20ZM72 19V18H71V19H72ZM74 19H75V18H74V19ZM74 20V21H75V20H74ZM75 21V20H73V21H75ZM74 21H75V19H74V21ZM74 20V21H76V20H74ZM75 20H74V22H75V20ZM71 24V19H69V24H71ZM70 20H71V18H70V20ZM70 19V20H72V19H70ZM71 21H72V19H71V21ZM71 20V21H73V20H71ZM72 20H71V22H72V20ZM70 21V24H72V21H70ZM71 23H70V25H71V23ZM73 20V19H71V20H73ZM72 20H74V18H72V20ZM73 19V20H75V19H73ZM74 19H72V21H74V19Z" fill="black"/>
</g>
<defs>
<linearGradient id="paint0_linear_3_2" x1="40" y1="16" x2="40" y2="27" gradientUnits="userSpaceOnUse">
<stop stop-color="#C345FF"/>
<stop offset="1" stop-color="#4584FF"/>
</linearGradient>
<clipPath id="clip0_3_2">
<rect width="73" height="9" fill="white" transform="translate(3 16)"/>
</clipPath>
</defs>
</svg>
