<svg width="16" height="16" viewBox="0 0 16 16" fill="none" xmlns="http://www.w3.org/2000/svg">
<g clip-path="url(#clip0_1_18)">
<rect width="16" height="16" fill="url(#paint0_linear_1_18)"/>
<path fill-rule="evenodd" clip-rule="evenodd" d="M3.125 14H2V3.0625V3C2 2.44772 2.44772 2 3 2H3.0625H12.9375H13C13.5523 2 14 2.44772 14 3V3.0625V14H12.875V11.8307C12.9528 11.7426 13 11.6268 13 11.5C13 11.3732 12.9528 11.2574 12.875 11.1693V7.83073C12.9528 7.74259 13 7.62681 13 7.5C13 7.37319 12.9528 7.25741 12.875 7.16927V3.83073C12.9528 3.74259 13 3.62681 13 3.5C13 3.37319 12.9528 3.25741 12.875 3.16927V3.125H12.8307C12.7426 3.0472 12.6268 3 12.5 3C12.3732 3 12.2574 3.0472 12.1693 3.125H10.8307C10.7426 3.0472 10.6268 3 10.5 3C10.3732 3 10.2574 3.0472 10.1693 3.125H4.96655C4.92333 3.05027 4.84254 3 4.75 3H3.25C3.11193 3 3 3.11193 3 3.25V3.75C3 3.84254 3.05027 3.92333 3.125 3.96655V7.03345C3.05027 7.07667 3 7.15746 3 7.25V7.75C3 7.84254 3.05027 7.92333 3.125 7.96655V11.0334C3.05027 11.0767 3 11.1575 3 11.25V11.75C3 11.8425 3.05027 11.9233 3.125 11.9666V14Z" fill="#DDDDDD"/>
<path d="M2 4H14V4.625C14 5.17728 13.5523 5.625 13 5.625H3C2.44772 5.625 2 5.17728 2 4.625V4Z" fill="#DDDDDD"/>
<path d="M2 8H14V8.625C14 9.17728 13.5523 9.625 13 9.625H3C2.44772 9.625 2 9.17728 2 8.625V8Z" fill="#DDDDDD"/>
<path d="M2 12H14V12.625C14 13.1773 13.5523 13.625 13 13.625H3C2.44772 13.625 2 13.1773 2 12.625V12Z" fill="#DDDDDD"/>
<path fill-rule="evenodd" clip-rule="evenodd" d="M3 2C2.44772 2 2 2.44772 2 3V4C2 4.55228 2.44772 5 3 5H13C13.5523 5 14 4.55228 14 4V3C14 2.44772 13.5523 2 13 2H3ZM12.5 4C12.7761 4 13 3.77614 13 3.5C13 3.22386 12.7761 3 12.5 3C12.2239 3 12 3.22386 12 3.5C12 3.77614 12.2239 4 12.5 4ZM11 3.5C11 3.77614 10.7761 4 10.5 4C10.2239 4 10 3.77614 10 3.5C10 3.22386 10.2239 3 10.5 3C10.7761 3 11 3.22386 11 3.5ZM3.25 3C3.11193 3 3 3.11193 3 3.25V3.75C3 3.88807 3.11193 4 3.25 4H4.75C4.88807 4 5 3.88807 5 3.75V3.25C5 3.11193 4.88807 3 4.75 3H3.25Z" fill="white"/>
<path fill-rule="evenodd" clip-rule="evenodd" d="M3 6C2.44772 6 2 6.44772 2 7V8C2 8.55228 2.44772 9 3 9H13C13.5523 9 14 8.55228 14 8V7C14 6.44772 13.5523 6 13 6H3ZM12.5 8C12.7761 8 13 7.77614 13 7.5C13 7.22386 12.7761 7 12.5 7C12.2239 7 12 7.22386 12 7.5C12 7.77614 12.2239 8 12.5 8ZM11 7.5C11 7.77614 10.7761 8 10.5 8C10.2239 8 10 7.77614 10 7.5C10 7.22386 10.2239 7 10.5 7C10.7761 7 11 7.22386 11 7.5ZM3.25 7C3.11193 7 3 7.11193 3 7.25V7.75C3 7.88807 3.11193 8 3.25 8H4.75C4.88807 8 5 7.88807 5 7.75V7.25C5 7.11193 4.88807 7 4.75 7H3.25Z" fill="white"/>
<path fill-rule="evenodd" clip-rule="evenodd" d="M3 10C2.44772 10 2 10.4477 2 11V12C2 12.5523 2.44772 13 3 13H13C13.5523 13 14 12.5523 14 12V11C14 10.4477 13.5523 10 13 10H3ZM12.5 12C12.7761 12 13 11.7761 13 11.5C13 11.2239 12.7761 11 12.5 11C12.2239 11 12 11.2239 12 11.5C12 11.7761 12.2239 12 12.5 12ZM11 11.5C11 11.7761 10.7761 12 10.5 12C10.2239 12 10 11.7761 10 11.5C10 11.2239 10.2239 11 10.5 11C10.7761 11 11 11.2239 11 11.5ZM3.25 11C3.11193 11 3 11.1119 3 11.25V11.75C3 11.8881 3.11193 12 3.25 12H4.75C4.88807 12 5 11.8881 5 11.75V11.25C5 11.1119 4.88807 11 4.75 11H3.25Z" fill="white"/>
</g>
<defs>
<linearGradient id="paint0_linear_1_18" x1="8" y1="0" x2="8" y2="16" gradientUnits="userSpaceOnUse">
<stop stop-color="#575BC2"/>
<stop offset="1" stop-color="#9175CD"/>
</linearGradient>
<clipPath id="clip0_1_18">
<rect width="16" height="16" fill="white"/>
</clipPath>
</defs>
</svg>
