<svg width="59" height="9" viewBox="0 0 59 9" fill="none" xmlns="http://www.w3.org/2000/svg">
<path d="M1.15847 7L3.65447 1.4H4.93447L7.43847 7H6.07847L4.03047 2.056H4.54247L2.48647 7H1.15847ZM2.40647 5.8L2.75047 4.816H5.63047L5.98247 5.8H2.40647ZM9.74041 7.064C9.33507 7.064 8.96974 6.97333 8.64441 6.792C8.31907 6.60533 8.06041 6.34667 7.86841 6.016C7.68174 5.68533 7.58841 5.296 7.58841 4.848C7.58841 4.39467 7.68174 4.00267 7.86841 3.672C8.06041 3.34133 8.31907 3.08533 8.64441 2.904C8.96974 2.72267 9.33507 2.632 9.74041 2.632C10.1031 2.632 10.4204 2.712 10.6924 2.872C10.9644 3.032 11.1751 3.27467 11.3244 3.6C11.4737 3.92533 11.5484 4.34133 11.5484 4.848C11.5484 5.34933 11.4764 5.76533 11.3324 6.096C11.1884 6.42133 10.9804 6.664 10.7084 6.824C10.4417 6.984 10.1191 7.064 9.74041 7.064ZM9.95641 6.04C10.1591 6.04 10.3431 5.992 10.5084 5.896C10.6737 5.8 10.8044 5.664 10.9004 5.488C11.0017 5.30667 11.0524 5.09333 11.0524 4.848C11.0524 4.59733 11.0017 4.384 10.9004 4.208C10.8044 4.032 10.6737 3.896 10.5084 3.8C10.3431 3.704 10.1591 3.656 9.95641 3.656C9.74841 3.656 9.56174 3.704 9.39641 3.8C9.23107 3.896 9.09774 4.032 8.99641 4.208C8.90041 4.384 8.85241 4.59733 8.85241 4.848C8.85241 5.09333 8.90041 5.30667 8.99641 5.488C9.09774 5.664 9.23107 5.8 9.39641 5.896C9.56174 5.992 9.74841 6.04 9.95641 6.04ZM11.0844 7V6.12L11.1084 4.84L11.0284 3.568V1.064H12.2764V7H11.0844ZM13.4315 7V2.696H14.6235V3.912L14.4555 3.56C14.5835 3.256 14.7888 3.02667 15.0715 2.872C15.3541 2.712 15.6981 2.632 16.1035 2.632V3.784C16.0501 3.77867 16.0021 3.776 15.9595 3.776C15.9168 3.77067 15.8715 3.768 15.8235 3.768C15.4821 3.768 15.2048 3.86667 14.9915 4.064C14.7835 4.256 14.6795 4.55733 14.6795 4.968V7H13.4315ZM18.9503 7.064C18.4596 7.064 18.0276 6.968 17.6543 6.776C17.2863 6.584 17.0009 6.32267 16.7983 5.992C16.5956 5.656 16.4943 5.27467 16.4943 4.848C16.4943 4.416 16.5929 4.03467 16.7903 3.704C16.9929 3.368 17.2676 3.10667 17.6143 2.92C17.9609 2.728 18.3529 2.632 18.7903 2.632C19.2116 2.632 19.5903 2.72267 19.9263 2.904C20.2676 3.08 20.5369 3.336 20.7343 3.672C20.9316 4.00267 21.0303 4.4 21.0303 4.864C21.0303 4.912 21.0276 4.968 21.0223 5.032C21.0169 5.09067 21.0116 5.14667 21.0063 5.2H17.5103V4.472H20.3503L19.8703 4.688C19.8703 4.464 19.8249 4.26933 19.7343 4.104C19.6436 3.93867 19.5183 3.81067 19.3583 3.72C19.1983 3.624 19.0116 3.576 18.7983 3.576C18.5849 3.576 18.3956 3.624 18.2303 3.72C18.0703 3.81067 17.9449 3.94133 17.8543 4.112C17.7636 4.27733 17.7183 4.47467 17.7183 4.704V4.896C17.7183 5.13067 17.7689 5.33867 17.8703 5.52C17.9769 5.696 18.1236 5.832 18.3103 5.928C18.5023 6.01867 18.7263 6.064 18.9823 6.064C19.2116 6.064 19.4116 6.02933 19.5823 5.96C19.7583 5.89067 19.9183 5.78667 20.0623 5.648L20.7263 6.368C20.5289 6.592 20.2809 6.76533 19.9823 6.888C19.6836 7.00533 19.3396 7.064 18.9503 7.064ZM24.4772 2.632C24.8185 2.632 25.1225 2.70133 25.3892 2.84C25.6612 2.97333 25.8745 3.18133 26.0292 3.464C26.1838 3.74133 26.2612 4.09867 26.2612 4.536V7H25.0132V4.728C25.0132 4.38133 24.9358 4.12533 24.7812 3.96C24.6318 3.79467 24.4185 3.712 24.1412 3.712C23.9438 3.712 23.7652 3.75467 23.6052 3.84C23.4505 3.92 23.3278 4.04533 23.2372 4.216C23.1518 4.38667 23.1092 4.60533 23.1092 4.872V7H21.8612V2.696H23.0532V3.888L22.8292 3.528C22.9838 3.24 23.2052 3.01867 23.4932 2.864C23.7812 2.70933 24.1092 2.632 24.4772 2.632ZM30.0324 7V6.16L29.9524 5.976V4.472C29.9524 4.20533 29.8697 3.99733 29.7044 3.848C29.5444 3.69867 29.2964 3.624 28.9604 3.624C28.7311 3.624 28.5044 3.66133 28.2804 3.736C28.0617 3.80533 27.8751 3.90133 27.7204 4.024L27.2724 3.152C27.5071 2.98667 27.7897 2.85867 28.1204 2.768C28.4511 2.67733 28.7871 2.632 29.1284 2.632C29.7844 2.632 30.2937 2.78667 30.6564 3.096C31.0191 3.40533 31.2004 3.888 31.2004 4.544V7H30.0324ZM28.7204 7.064C28.3844 7.064 28.0964 7.008 27.8564 6.896C27.6164 6.77867 27.4324 6.62133 27.3044 6.424C27.1764 6.22667 27.1124 6.00533 27.1124 5.76C27.1124 5.504 27.1737 5.28 27.2964 5.088C27.4244 4.896 27.6244 4.74667 27.8964 4.64C28.1684 4.528 28.5231 4.472 28.9604 4.472H30.1044V5.2H29.0964C28.8031 5.2 28.6004 5.248 28.4884 5.344C28.3817 5.44 28.3284 5.56 28.3284 5.704C28.3284 5.864 28.3897 5.992 28.5124 6.088C28.6404 6.17867 28.8137 6.224 29.0324 6.224C29.2404 6.224 29.4271 6.176 29.5924 6.08C29.7577 5.97867 29.8777 5.832 29.9524 5.64L30.1444 6.216C30.0537 6.49333 29.8884 6.704 29.6484 6.848C29.4084 6.992 29.0991 7.064 28.7204 7.064ZM33.7779 7.064C33.4099 7.064 33.0552 7.02133 32.7139 6.936C32.3779 6.84533 32.1112 6.73333 31.9139 6.6L32.3299 5.704C32.5272 5.82667 32.7592 5.928 33.0259 6.008C33.2979 6.08267 33.5646 6.12 33.8259 6.12C34.1139 6.12 34.3166 6.08533 34.4339 6.016C34.5566 5.94667 34.6179 5.85067 34.6179 5.728C34.6179 5.62667 34.5699 5.552 34.4739 5.504C34.3832 5.45067 34.2606 5.41067 34.1059 5.384C33.9512 5.35733 33.7806 5.33067 33.5939 5.304C33.4126 5.27733 33.2286 5.24267 33.0419 5.2C32.8552 5.152 32.6846 5.08267 32.5299 4.992C32.3752 4.90133 32.2499 4.77867 32.1539 4.624C32.0632 4.46933 32.0179 4.26933 32.0179 4.024C32.0179 3.752 32.0952 3.512 32.2499 3.304C32.4099 3.096 32.6392 2.93333 32.9379 2.816C33.2366 2.69333 33.5939 2.632 34.0099 2.632C34.3032 2.632 34.6019 2.664 34.9059 2.728C35.2099 2.792 35.4632 2.88533 35.6659 3.008L35.2499 3.896C35.0419 3.77333 34.8312 3.69067 34.6179 3.648C34.4099 3.6 34.2072 3.576 34.0099 3.576C33.7326 3.576 33.5299 3.61333 33.4019 3.688C33.2739 3.76267 33.2099 3.85867 33.2099 3.976C33.2099 4.08267 33.2552 4.16267 33.3459 4.216C33.4419 4.26933 33.5672 4.312 33.7219 4.344C33.8766 4.376 34.0446 4.40533 34.2259 4.432C34.4126 4.45333 34.5992 4.488 34.7859 4.536C34.9726 4.584 35.1406 4.65333 35.2899 4.744C35.4446 4.82933 35.5699 4.94933 35.6659 5.104C35.7619 5.25333 35.8099 5.45067 35.8099 5.696C35.8099 5.96267 35.7299 6.2 35.5699 6.408C35.4099 6.61067 35.1779 6.77067 34.8739 6.888C34.5752 7.00533 34.2099 7.064 33.7779 7.064ZM38.7159 7.064C38.2252 7.064 37.7932 6.968 37.4199 6.776C37.0519 6.584 36.7666 6.32267 36.5639 5.992C36.3612 5.656 36.2599 5.27467 36.2599 4.848C36.2599 4.416 36.3586 4.03467 36.5559 3.704C36.7586 3.368 37.0332 3.10667 37.3799 2.92C37.7266 2.728 38.1186 2.632 38.5559 2.632C38.9772 2.632 39.3559 2.72267 39.6919 2.904C40.0332 3.08 40.3026 3.336 40.4999 3.672C40.6972 4.00267 40.7959 4.4 40.7959 4.864C40.7959 4.912 40.7932 4.968 40.7879 5.032C40.7826 5.09067 40.7772 5.14667 40.7719 5.2H37.2759V4.472H40.1159L39.6359 4.688C39.6359 4.464 39.5906 4.26933 39.4999 4.104C39.4092 3.93867 39.2839 3.81067 39.1239 3.72C38.9639 3.624 38.7772 3.576 38.5639 3.576C38.3506 3.576 38.1612 3.624 37.9959 3.72C37.8359 3.81067 37.7106 3.94133 37.6199 4.112C37.5292 4.27733 37.4839 4.47467 37.4839 4.704V4.896C37.4839 5.13067 37.5346 5.33867 37.6359 5.52C37.7426 5.696 37.8892 5.832 38.0759 5.928C38.2679 6.01867 38.4919 6.064 38.7479 6.064C38.9772 6.064 39.1772 6.02933 39.3479 5.96C39.5239 5.89067 39.6839 5.78667 39.8279 5.648L40.4919 6.368C40.2946 6.592 40.0466 6.76533 39.7479 6.888C39.4492 7.00533 39.1052 7.064 38.7159 7.064ZM41.6268 7V2.696H42.8188V3.912L42.6508 3.56C42.7788 3.256 42.9841 3.02667 43.2668 2.872C43.5494 2.712 43.8934 2.632 44.2988 2.632V3.784C44.2454 3.77867 44.1974 3.776 44.1548 3.776C44.1121 3.77067 44.0668 3.768 44.0188 3.768C43.6774 3.768 43.4001 3.86667 43.1868 4.064C42.9788 4.256 42.8748 4.55733 42.8748 4.968V7H41.6268ZM46.3573 7L44.5493 2.696H45.8373L47.3413 6.4H46.7013L48.2613 2.696H49.4613L47.6453 7H46.3573ZM51.9893 7.064C51.4987 7.064 51.0667 6.968 50.6933 6.776C50.3253 6.584 50.04 6.32267 49.8373 5.992C49.6347 5.656 49.5333 5.27467 49.5333 4.848C49.5333 4.416 49.632 4.03467 49.8293 3.704C50.032 3.368 50.3067 3.10667 50.6533 2.92C51 2.728 51.392 2.632 51.8293 2.632C52.2507 2.632 52.6293 2.72267 52.9653 2.904C53.3067 3.08 53.576 3.336 53.7733 3.672C53.9707 4.00267 54.0693 4.4 54.0693 4.864C54.0693 4.912 54.0667 4.968 54.0613 5.032C54.056 5.09067 54.0507 5.14667 54.0453 5.2H50.5493V4.472H53.3893L52.9093 4.688C52.9093 4.464 52.864 4.26933 52.7733 4.104C52.6827 3.93867 52.5573 3.81067 52.3973 3.72C52.2373 3.624 52.0507 3.576 51.8373 3.576C51.624 3.576 51.4347 3.624 51.2693 3.72C51.1093 3.81067 50.984 3.94133 50.8933 4.112C50.8027 4.27733 50.7573 4.47467 50.7573 4.704V4.896C50.7573 5.13067 50.808 5.33867 50.9093 5.52C51.016 5.696 51.1627 5.832 51.3493 5.928C51.5413 6.01867 51.7653 6.064 52.0213 6.064C52.2507 6.064 52.4507 6.02933 52.6213 5.96C52.7973 5.89067 52.9573 5.78667 53.1013 5.648L53.7653 6.368C53.568 6.592 53.32 6.76533 53.0213 6.888C52.7227 7.00533 52.3787 7.064 51.9893 7.064ZM54.9002 7V2.696H56.0922V3.912L55.9242 3.56C56.0522 3.256 56.2576 3.02667 56.5402 2.872C56.8229 2.712 57.1669 2.632 57.5722 2.632V3.784C57.5189 3.77867 57.4709 3.776 57.4282 3.776C57.3856 3.77067 57.3402 3.768 57.2922 3.768C56.9509 3.768 56.6736 3.86667 56.4602 4.064C56.2522 4.256 56.1482 4.55733 56.1482 4.968V7H54.9002Z" fill="url(#paint0_linear_1_2)"/>
<path d="M1.15847 7L0.245088 6.59289C0.107203 6.90225 0.135279 7.26038 0.319688 7.54447C0.504097 7.82856 0.819773 8 1.15847 8V7ZM3.65447 1.4V0.4C3.25966 0.4 2.90182 0.632286 2.74109 0.992893L3.65447 1.4ZM4.93447 1.4L5.84736 0.991805C5.68638 0.631784 5.32884 0.4 4.93447 0.4V1.4ZM7.43847 7V8C7.77738 8 8.09322 7.82835 8.27757 7.54397C8.46193 7.25959 8.4897 6.90119 8.35136 6.59181L7.43847 7ZM6.07847 7L5.1546 7.3827C5.30938 7.75637 5.67401 8 6.07847 8V7ZM4.03047 2.056V1.056C3.69648 1.056 3.38454 1.22274 3.19899 1.50044C3.01344 1.77814 2.97878 2.13014 3.1066 2.4387L4.03047 2.056ZM4.54247 2.056L5.46581 2.43998C5.59415 2.13137 5.55982 1.77905 5.37433 1.50101C5.18883 1.22298 4.8767 1.056 4.54247 1.056V2.056ZM2.48647 7V8C2.89042 8 3.2547 7.75696 3.40981 7.38398L2.48647 7ZM2.40647 5.8L1.46249 5.46999C1.35556 5.77585 1.40346 6.11456 1.59099 6.37879C1.77853 6.64301 2.08246 6.8 2.40647 6.8V5.8ZM2.75047 4.816V3.816C2.32539 3.816 1.94677 4.08473 1.80649 4.48599L2.75047 4.816ZM5.63047 4.816L6.57204 4.47918C6.42976 4.08144 6.05289 3.816 5.63047 3.816V4.816ZM5.98247 5.8V6.8C6.30776 6.8 6.61272 6.64178 6.80003 6.37584C6.98735 6.10989 7.0336 5.76946 6.92404 5.46318L5.98247 5.8ZM2.07185 7.40711L4.56785 1.80711L2.74109 0.992893L0.245088 6.59289L2.07185 7.40711ZM3.65447 2.4H4.93447V0.4H3.65447V2.4ZM4.02157 1.80819L6.52557 7.40819L8.35136 6.59181L5.84736 0.991805L4.02157 1.80819ZM7.43847 6H6.07847V8H7.43847V6ZM7.00234 6.6173L4.95434 1.6733L3.1066 2.4387L5.1546 7.3827L7.00234 6.6173ZM4.03047 3.056H4.54247V1.056H4.03047V3.056ZM3.61913 1.67202L1.56313 6.61602L3.40981 7.38398L5.46581 2.43998L3.61913 1.67202ZM2.48647 6H1.15847V8H2.48647V6ZM3.35045 6.13001L3.69445 5.14601L1.80649 4.48599L1.46249 5.46999L3.35045 6.13001ZM2.75047 5.816H5.63047V3.816H2.75047V5.816ZM4.6889 5.15282L5.0409 6.13682L6.92404 5.46318L6.57204 4.47918L4.6889 5.15282ZM5.98247 4.8H2.40647V6.8H5.98247V4.8ZM8.64441 6.792L8.1467 7.65943L8.15755 7.66548L8.64441 6.792ZM7.86841 6.016L6.99752 6.50763L7.00362 6.51814L7.86841 6.016ZM7.86841 3.672L7.00355 3.16983L6.99758 3.18041L7.86841 3.672ZM8.64441 2.904L8.15755 2.03052L8.15755 2.03052L8.64441 2.904ZM10.6924 2.872L11.1994 2.01007L11.1994 2.01007L10.6924 2.872ZM11.3244 3.6L12.2332 3.18283L12.2332 3.18283L11.3244 3.6ZM11.3324 6.096L12.2469 6.50075L12.2492 6.49527L11.3324 6.096ZM10.7084 6.824L10.2014 5.96203L10.1939 5.96651L10.7084 6.824ZM10.5084 5.896L10.0063 5.03121L10.0063 5.03121L10.5084 5.896ZM10.9004 5.488L10.0274 5.00015L10.0225 5.00915L10.9004 5.488ZM10.9004 4.208L10.0225 4.68685C10.0262 4.6936 10.0299 4.7003 10.0338 4.70696L10.9004 4.208ZM10.5084 3.8L10.0063 4.66479L10.0063 4.66479L10.5084 3.8ZM9.39641 3.8L9.89854 4.66479L9.89854 4.66479L9.39641 3.8ZM8.99641 4.208L8.12978 3.70904C8.12595 3.7157 8.12219 3.7224 8.11851 3.72915L8.99641 4.208ZM8.99641 5.488L8.11262 5.95589C8.11816 5.96635 8.12388 5.97671 8.12978 5.98696L8.99641 5.488ZM9.39641 5.896L9.89854 5.03121L9.89854 5.03121L9.39641 5.896ZM11.0844 7H10.0844C10.0844 7.55228 10.5321 8 11.0844 8V7ZM11.0844 6.12L10.0846 6.10125C10.0845 6.1075 10.0844 6.11375 10.0844 6.12L11.0844 6.12ZM11.1084 4.84L12.1082 4.85875C12.1087 4.83156 12.1081 4.80437 12.1064 4.77723L11.1084 4.84ZM11.0284 3.568H10.0284C10.0284 3.58894 10.0291 3.60987 10.0304 3.63077L11.0284 3.568ZM11.0284 1.064V0.0639997C10.4761 0.0639997 10.0284 0.511715 10.0284 1.064H11.0284ZM12.2764 1.064H13.2764C13.2764 0.511715 12.8287 0.0639997 12.2764 0.0639997V1.064ZM12.2764 7V8C12.8287 8 13.2764 7.55228 13.2764 7H12.2764ZM9.74041 6.064C9.49004 6.064 9.29481 6.00967 9.13126 5.91852L8.15755 7.66548C8.64467 7.93699 9.18011 8.064 9.74041 8.064V6.064ZM9.14208 5.92463C8.97213 5.82713 8.83881 5.69576 8.7332 5.51386L7.00362 6.51814C7.282 6.99758 7.66601 7.38354 8.14674 7.65937L9.14208 5.92463ZM8.73923 5.52441C8.65133 5.36869 8.58841 5.15485 8.58841 4.848H6.58841C6.58841 5.43715 6.71215 6.00198 6.99758 6.50759L8.73923 5.52441ZM8.58841 4.848C8.58841 4.5335 8.65228 4.31762 8.73923 4.16359L6.99758 3.18041C6.7112 3.68771 6.58841 4.25583 6.58841 4.848H8.58841ZM8.7332 4.17414C8.83742 3.99464 8.96733 3.86885 9.13126 3.77748L8.15755 2.03052C7.67081 2.30181 7.28339 2.68803 7.00362 3.16986L8.7332 4.17414ZM9.13126 3.77748C9.29481 3.68633 9.49004 3.632 9.74041 3.632V1.632C9.18011 1.632 8.64467 1.75901 8.15755 2.03052L9.13126 3.77748ZM9.74041 3.632C9.95181 3.632 10.0888 3.67712 10.1854 3.73393L11.1994 2.01007C10.752 1.74688 10.2543 1.632 9.74041 1.632V3.632ZM10.1854 3.73393C10.2581 3.77668 10.3397 3.85178 10.4156 4.01717L12.2332 3.18283C12.0105 2.69755 11.6708 2.28732 11.1994 2.01007L10.1854 3.73393ZM10.4156 4.01717C10.4853 4.16905 10.5484 4.42967 10.5484 4.848H12.5484C12.5484 4.253 12.4622 3.68162 12.2332 3.18283L10.4156 4.01717ZM10.5484 4.848C10.5484 5.26199 10.4878 5.53099 10.4156 5.69673L12.2492 6.49527C12.4651 5.99968 12.5484 5.43668 12.5484 4.848H10.5484ZM10.418 5.69125C10.3474 5.85074 10.2706 5.92138 10.2014 5.96207L11.2154 7.68593C11.6903 7.40662 12.0294 6.99192 12.2468 6.50075L10.418 5.69125ZM10.1939 5.96651C10.1133 6.01486 9.97727 6.064 9.74041 6.064V8.064C10.2609 8.064 10.7702 7.95314 11.2229 7.68149L10.1939 5.96651ZM9.95641 7.04C10.3244 7.04 10.6834 6.95072 11.0105 6.76079L10.0063 5.03121C10.0027 5.03328 9.9937 5.04 9.95641 5.04V7.04ZM11.0105 6.76079C11.3419 6.56837 11.5992 6.29528 11.7783 5.96685L10.0225 5.00915C10.0144 5.02408 10.0094 5.02912 10.0093 5.02917C10.0092 5.02927 10.0091 5.02934 10.0091 5.02937C10.0091 5.02941 10.0091 5.02942 10.0091 5.02942C10.0091 5.02942 10.0091 5.02942 10.0091 5.02942C10.0091 5.02941 10.0091 5.02942 10.009 5.02944C10.009 5.02948 10.0088 5.02963 10.0084 5.02989C10.008 5.03015 10.0073 5.0306 10.0063 5.03121L11.0105 6.76079ZM11.7733 5.97582C11.9719 5.62048 12.0524 5.23311 12.0524 4.848H10.0524C10.0524 4.95356 10.0316 4.99285 10.0275 5.00018L11.7733 5.97582ZM12.0524 4.848C12.0524 4.4629 11.974 4.06856 11.767 3.70904L10.0338 4.70696C10.0294 4.69944 10.0524 4.73177 10.0524 4.848H12.0524ZM11.7783 3.72915C11.5992 3.40072 11.3419 3.12763 11.0105 2.93521L10.0063 4.66479C10.0073 4.6654 10.008 4.66585 10.0084 4.66611C10.0088 4.66637 10.009 4.66652 10.009 4.66656C10.0091 4.66658 10.0091 4.66659 10.0091 4.66658C10.0091 4.66658 10.0091 4.66658 10.0091 4.66658C10.0091 4.66658 10.0091 4.66659 10.0091 4.66663C10.0091 4.66666 10.0092 4.66673 10.0093 4.66683C10.0094 4.66688 10.0144 4.67192 10.0225 4.68685L11.7783 3.72915ZM11.0105 2.93521C10.6834 2.74528 10.3244 2.656 9.95641 2.656V4.656C9.9937 4.656 10.0027 4.66272 10.0063 4.66479L11.0105 2.93521ZM9.95641 2.656C9.58803 2.656 9.22539 2.74295 8.89427 2.93521L9.89854 4.66479C9.90134 4.66316 9.9041 4.66187 9.90945 4.66049C9.91527 4.659 9.92982 4.656 9.95641 4.656V2.656ZM8.89427 2.93521C8.56802 3.12464 8.31285 3.39108 8.12978 3.70904L9.86303 4.70696C9.88263 4.67292 9.89412 4.66735 9.89854 4.66479L8.89427 2.93521ZM8.11851 3.72915C7.92475 4.08438 7.85241 4.4712 7.85241 4.848H9.85241C9.85241 4.786 9.85838 4.74456 9.86402 4.71951C9.8668 4.70714 9.86948 4.69884 9.87131 4.6939C9.87312 4.68901 9.87427 4.68691 9.8743 4.68685L8.11851 3.72915ZM7.85241 4.848C7.85241 5.22468 7.92671 5.60473 8.11262 5.95589L9.88019 5.02011C9.8741 5.00861 9.85241 4.96199 9.85241 4.848H7.85241ZM8.12978 5.98696C8.31285 6.30492 8.56802 6.57135 8.89427 6.76079L9.89854 5.03121C9.89412 5.02865 9.88263 5.02308 9.86303 4.98904L8.12978 5.98696ZM8.89427 6.76079C9.22539 6.95305 9.58803 7.04 9.95641 7.04V5.04C9.92982 5.04 9.91527 5.037 9.90945 5.03551C9.9041 5.03413 9.90134 5.03284 9.89854 5.03121L8.89427 6.76079ZM12.0844 7V6.12H10.0844V7H12.0844ZM12.0842 6.13875L12.1082 4.85875L10.1086 4.82125L10.0846 6.10125L12.0842 6.13875ZM12.1064 4.77723L12.0264 3.50523L10.0304 3.63077L10.1104 4.90277L12.1064 4.77723ZM12.0284 3.568V1.064H10.0284V3.568H12.0284ZM11.0284 2.064H12.2764V0.0639997H11.0284V2.064ZM11.2764 1.064V7H13.2764V1.064H11.2764ZM12.2764 6H11.0844V8H12.2764V6ZM13.4315 7H12.4315C12.4315 7.55228 12.8792 8 13.4315 8V7ZM13.4315 2.696V1.696C12.8792 1.696 12.4315 2.14371 12.4315 2.696H13.4315ZM14.6235 2.696H15.6235C15.6235 2.14371 15.1758 1.696 14.6235 1.696V2.696ZM14.6235 3.912L13.721 4.34273C13.9222 4.76438 14.3886 4.99048 14.8443 4.88732C15.3 4.78415 15.6235 4.37921 15.6235 3.912H14.6235ZM14.4555 3.56L13.5338 3.17194C13.423 3.43509 13.43 3.73305 13.553 3.99073L14.4555 3.56ZM15.0715 2.872L15.5515 3.74926C15.5557 3.74696 15.5599 3.74462 15.5641 3.74226L15.0715 2.872ZM16.1035 2.632H17.1035C17.1035 2.07972 16.6558 1.632 16.1035 1.632V2.632ZM16.1035 3.784L16.004 4.77904C16.2851 4.80715 16.565 4.71503 16.7745 4.52545C16.984 4.33587 17.1035 4.06653 17.1035 3.784H16.1035ZM15.9595 3.776L15.8354 4.76828C15.8766 4.77342 15.918 4.776 15.9595 4.776L15.9595 3.776ZM14.9915 4.064L15.6697 4.7988L15.6705 4.7981L14.9915 4.064ZM14.6795 7V8C15.2318 8 15.6795 7.55228 15.6795 7H14.6795ZM14.4315 7V2.696H12.4315V7H14.4315ZM13.4315 3.696H14.6235V1.696H13.4315V3.696ZM13.6235 2.696V3.912H15.6235V2.696H13.6235ZM15.5259 3.48127L15.3579 3.12927L13.553 3.99073L13.721 4.34273L15.5259 3.48127ZM15.3771 3.94806C15.4197 3.84699 15.4721 3.79269 15.5515 3.74926L14.5915 1.99474C14.1055 2.26064 13.7473 2.66501 13.5338 3.17194L15.3771 3.94806ZM15.5641 3.74226C15.6636 3.68594 15.8285 3.632 16.1035 3.632V1.632C15.5677 1.632 15.0447 1.73806 14.5789 2.00174L15.5641 3.74226ZM15.1035 2.632V3.784H17.1035V2.632H15.1035ZM16.203 2.78896C16.1245 2.78112 16.0425 2.776 15.9595 2.776V4.776C15.9618 4.776 15.9757 4.77621 16.004 4.77904L16.203 2.78896ZM16.0835 2.78372C15.9953 2.77269 15.9082 2.768 15.8235 2.768V4.768C15.8347 4.768 15.8383 4.76864 15.8354 4.76828L16.0835 2.78372ZM15.8235 2.768C15.2772 2.768 14.7423 2.9323 14.3124 3.3299L15.6705 4.7981C15.6765 4.79255 15.6818 4.78872 15.6947 4.78415C15.7101 4.77867 15.7491 4.768 15.8235 4.768V2.768ZM14.3132 3.3292C13.8221 3.78247 13.6795 4.4058 13.6795 4.968H15.6795C15.6795 4.84334 15.6957 4.78066 15.7028 4.76025C15.7078 4.74575 15.7018 4.76925 15.6697 4.7988L14.3132 3.3292ZM13.6795 4.968V7H15.6795V4.968H13.6795ZM14.6795 6H13.4315V8H14.6795V6ZM17.6543 6.776L17.1917 7.6626L17.1969 7.66529L17.6543 6.776ZM16.7983 5.992L15.942 6.50851L15.9457 6.51456L16.7983 5.992ZM16.7903 3.704L15.934 3.1875L15.9316 3.19154L16.7903 3.704ZM17.6143 2.92L18.0884 3.80053L18.0988 3.79479L17.6143 2.92ZM19.9263 2.904L19.4513 3.78402C19.4569 3.787 19.4624 3.78993 19.468 3.7928L19.9263 2.904ZM20.7343 3.672L19.872 4.17843L19.8756 4.18446L20.7343 3.672ZM21.0223 5.032L22.0182 5.12254L22.0188 5.11504L21.0223 5.032ZM21.0063 5.2V6.2C21.52 6.2 21.9502 5.8107 22.0013 5.2995L21.0063 5.2ZM17.5103 5.2H16.5103C16.5103 5.75228 16.958 6.2 17.5103 6.2V5.2ZM17.5103 4.472V3.472C16.958 3.472 16.5103 3.91972 16.5103 4.472H17.5103ZM20.3503 4.472L20.7606 5.38392C21.1905 5.19047 21.4269 4.72306 21.328 4.26214C21.2291 3.80123 20.8217 3.472 20.3503 3.472V4.472ZM19.8703 4.688H18.8703C18.8703 5.02733 19.0424 5.34351 19.3273 5.52775C19.6123 5.712 19.9712 5.73917 20.2806 5.59992L19.8703 4.688ZM19.7343 4.104L18.8575 4.58483L18.8575 4.58483L19.7343 4.104ZM19.3583 3.72L18.8438 4.57749C18.8509 4.58176 18.8581 4.58593 18.8653 4.59002L19.3583 3.72ZM18.2303 3.72L18.7233 4.59007L18.7324 4.58479L18.2303 3.72ZM17.8543 4.112L18.7312 4.59287L18.7374 4.58116L17.8543 4.112ZM17.8703 5.52L16.9973 6.00782C17.0031 6.01809 17.009 6.02825 17.0151 6.0383L17.8703 5.52ZM18.3103 5.928L17.8529 6.81729C17.863 6.82245 17.8731 6.82743 17.8833 6.83225L18.3103 5.928ZM19.5823 5.96L19.2157 5.02954L19.2059 5.03353L19.5823 5.96ZM20.0623 5.648L20.7974 4.97006C20.6151 4.77234 20.3608 4.65641 20.0919 4.64844C19.8231 4.64047 19.5624 4.74112 19.3686 4.92768L20.0623 5.648ZM20.7263 6.368L21.4766 7.02903C21.8152 6.64467 21.8087 6.06661 21.4614 5.69006L20.7263 6.368ZM19.9823 6.888L20.3479 7.81875C20.3527 7.81688 20.3575 7.81497 20.3622 7.81302L19.9823 6.888ZM18.9503 6.064C18.5919 6.064 18.3214 5.9946 18.1116 5.88671L17.1969 7.66529C17.7338 7.9414 18.3274 8.064 18.9503 8.064V6.064ZM18.1168 5.88942C17.8977 5.77508 17.7522 5.63479 17.6509 5.46944L15.9457 6.51456C16.2497 7.01054 16.6749 7.39292 17.1917 7.66258L18.1168 5.88942ZM17.6546 5.47551C17.5541 5.30889 17.4943 5.10908 17.4943 4.848H15.4943C15.4943 5.44025 15.6372 6.00311 15.942 6.50849L17.6546 5.47551ZM17.4943 4.848C17.4943 4.57391 17.555 4.37392 17.649 4.21646L15.9316 3.19154C15.6309 3.69542 15.4943 4.25809 15.4943 4.848H17.4943ZM17.6466 4.22049C17.7564 4.03841 17.8988 3.90253 18.0884 3.80047L17.1402 2.03953C16.6364 2.3108 16.2295 2.69759 15.934 3.18751L17.6466 4.22049ZM18.0988 3.79479C18.2822 3.6932 18.5045 3.632 18.7903 3.632V1.632C18.2014 1.632 17.6397 1.7628 17.1298 2.04521L18.0988 3.79479ZM18.7903 3.632C19.0633 3.632 19.2759 3.68936 19.4513 3.78402L20.4012 2.02398C19.9046 1.75598 19.3599 1.632 18.7903 1.632V3.632ZM19.468 3.7928C19.6386 3.88078 19.769 4.003 19.872 4.17842L21.5966 3.16558C21.3049 2.669 20.8966 2.27922 20.3846 2.0152L19.468 3.7928ZM19.8756 4.18446C19.9631 4.33117 20.0303 4.54336 20.0303 4.864H22.0303C22.0303 4.25664 21.9001 3.67417 21.593 3.15954L19.8756 4.18446ZM20.0303 4.864C20.0303 4.87684 20.0295 4.904 20.0257 4.94896L22.0188 5.11504C22.0257 5.032 22.0303 4.94716 22.0303 4.864H20.0303ZM20.0264 4.94146C20.0213 4.99743 20.0163 5.05043 20.0112 5.1005L22.0013 5.2995C22.007 5.24291 22.0126 5.18391 22.0182 5.12254L20.0264 4.94146ZM21.0063 4.2H17.5103V6.2H21.0063V4.2ZM18.5103 5.2V4.472H16.5103V5.2H18.5103ZM17.5103 5.472H20.3503V3.472H17.5103V5.472ZM19.9399 3.56008L19.4599 3.77608L20.2806 5.59992L20.7606 5.38392L19.9399 3.56008ZM20.8703 4.688C20.8703 4.3275 20.7965 3.96129 20.6111 3.62317L18.8575 4.58483C18.8565 4.58299 18.8591 4.58686 18.8623 4.60081C18.8658 4.61548 18.8703 4.64332 18.8703 4.688H20.8703ZM20.6111 3.62317C20.4335 3.29932 20.1771 3.03463 19.8513 2.84998L18.8653 4.59002C18.8661 4.59047 18.8653 4.59009 18.8635 4.58873C18.8617 4.58734 18.8597 4.58558 18.8578 4.58362C18.8559 4.58168 18.8548 4.58029 18.8545 4.57995C18.8543 4.57964 18.8554 4.58105 18.8575 4.58483L20.6111 3.62317ZM19.8728 2.86251C19.5361 2.66052 19.1664 2.576 18.7983 2.576V4.576C18.8298 4.576 18.8454 4.57951 18.8492 4.58049C18.8523 4.58128 18.8492 4.58072 18.8438 4.57749L19.8728 2.86251ZM18.7983 2.576C18.4295 2.576 18.0631 2.66071 17.7281 2.85521L18.7324 4.58479C18.7331 4.58436 18.7353 4.58304 18.742 4.58133C18.7494 4.57947 18.7669 4.576 18.7983 4.576V2.576ZM17.7373 2.84998C17.4031 3.03932 17.1463 3.31314 16.9712 3.64284L18.7374 4.58116C18.7387 4.57863 18.7398 4.57686 18.7405 4.57574C18.7412 4.57463 18.7415 4.57411 18.7415 4.5741C18.7415 4.57409 18.7413 4.5745 18.7406 4.57526C18.74 4.57602 18.7391 4.57704 18.738 4.57823C18.7356 4.58071 18.7327 4.58329 18.7297 4.58565C18.7267 4.58799 18.7244 4.58942 18.7233 4.59002L17.7373 2.84998ZM16.9775 3.63117C16.7903 3.97256 16.7183 4.34265 16.7183 4.704H18.7183C18.7183 4.60668 18.737 4.5821 18.7311 4.59283L16.9775 3.63117ZM16.7183 4.704V4.896H18.7183V4.704H16.7183ZM16.7183 4.896C16.7183 5.27894 16.8024 5.65891 16.9973 6.00782L18.7432 5.03218C18.7355 5.01843 18.7183 4.98239 18.7183 4.896H16.7183ZM17.0151 6.0383C17.2195 6.37564 17.5054 6.63854 17.8529 6.81729L18.7676 5.03871C18.7419 5.02546 18.7344 5.01636 18.7255 5.0017L17.0151 6.0383ZM17.8833 6.83225C18.2334 6.9976 18.6085 7.064 18.9823 7.064V5.064C18.844 5.064 18.7711 5.03974 18.7373 5.02375L17.8833 6.83225ZM18.9823 7.064C19.3101 7.064 19.6431 7.01467 19.9587 6.88647L19.2059 5.03353C19.1801 5.044 19.1131 5.064 18.9823 5.064V7.064ZM19.9488 6.89041C20.2534 6.77043 20.5231 6.59251 20.7559 6.36832L19.3686 4.92768C19.3135 4.98082 19.2632 5.0109 19.2158 5.02959L19.9488 6.89041ZM19.3272 6.32594L19.9912 7.04594L21.4614 5.69006L20.7974 4.97006L19.3272 6.32594ZM19.9759 5.70697C19.8883 5.80646 19.7707 5.89383 19.6024 5.96298L20.3622 7.81302C20.7912 7.63684 21.1696 7.37754 21.4766 7.02903L19.9759 5.70697ZM19.6166 5.95725C19.4564 6.0202 19.2404 6.064 18.9503 6.064V8.064C19.4388 8.064 19.9109 7.99046 20.3479 7.81875L19.6166 5.95725ZM25.3892 2.84L24.9278 3.72722C24.9348 3.73087 24.9419 3.73444 24.949 3.73792L25.3892 2.84ZM26.0292 3.464L25.1519 3.94403L25.1558 3.95107L26.0292 3.464ZM26.2612 7V8C26.8134 8 27.2612 7.55228 27.2612 7H26.2612ZM25.0132 7H24.0132C24.0132 7.55228 24.4609 8 25.0132 8V7ZM24.7812 3.96L24.0391 4.63029C24.043 4.63461 24.0469 4.6389 24.0509 4.64316L24.7812 3.96ZM23.6052 3.84L24.0646 4.72829L24.0757 4.72235L23.6052 3.84ZM23.2372 4.216L22.354 3.74684C22.3502 3.75411 22.3464 3.76143 22.3427 3.76879L23.2372 4.216ZM23.1092 7V8C23.6614 8 24.1092 7.55228 24.1092 7H23.1092ZM21.8612 7H20.8612C20.8612 7.55228 21.3089 8 21.8612 8V7ZM21.8612 2.696V1.696C21.3089 1.696 20.8612 2.14371 20.8612 2.696H21.8612ZM23.0532 2.696H24.0532C24.0532 2.14371 23.6054 1.696 23.0532 1.696V2.696ZM23.0532 3.888L22.2041 4.4163C22.44 4.79539 22.8986 4.97218 23.3279 4.84952C23.7572 4.72687 24.0532 4.33448 24.0532 3.888H23.0532ZM22.8292 3.528L21.9482 3.05487C21.7788 3.37033 21.7909 3.75228 21.9801 4.0563L22.8292 3.528ZM23.4932 2.864L23.9663 3.74499L23.9663 3.74499L23.4932 2.864ZM24.4772 3.632C24.6799 3.632 24.8219 3.67217 24.9278 3.72722L25.8505 1.95278C25.423 1.7305 24.9571 1.632 24.4772 1.632V3.632ZM24.949 3.73792C25.0236 3.77447 25.0896 3.83022 25.1519 3.94401L26.9064 2.98399C26.6593 2.53244 26.2988 2.1722 25.8293 1.94208L24.949 3.73792ZM25.1558 3.95107C25.2019 4.03383 25.2612 4.20787 25.2612 4.536H27.2612C27.2612 3.98946 27.1657 3.44884 26.9025 2.97693L25.1558 3.95107ZM25.2612 4.536V7H27.2612V4.536H25.2612ZM26.2612 6H25.0132V8H26.2612V6ZM26.0132 7V4.728H24.0132V7H26.0132ZM26.0132 4.728C26.0132 4.25842 25.9118 3.70483 25.5114 3.27684L24.0509 4.64316C24.0059 4.59509 23.9956 4.55772 23.9979 4.56518C24.0013 4.57639 24.0132 4.62528 24.0132 4.728H26.0132ZM25.5233 3.28971C25.1396 2.86492 24.6269 2.712 24.1412 2.712V4.712C24.1817 4.712 24.178 4.71813 24.1478 4.70644C24.1325 4.70051 24.1133 4.69106 24.0927 4.67696C24.072 4.66279 24.0538 4.64667 24.0391 4.63029L25.5233 3.28971ZM24.1412 2.712C23.7945 2.712 23.4519 2.78838 23.1346 2.95765L24.0757 4.72235C24.0784 4.72095 24.0931 4.712 24.1412 4.712V2.712ZM23.1457 2.95178C22.7909 3.13532 22.5291 3.41724 22.354 3.74684L24.1203 4.68515C24.1253 4.67573 24.1238 4.68124 24.1118 4.69346C24.0992 4.70635 24.0825 4.71894 24.0646 4.72822L23.1457 2.95178ZM22.3427 3.76879C22.166 4.12226 22.1092 4.50811 22.1092 4.872H24.1092C24.1092 4.70255 24.1377 4.65107 24.1316 4.66321L22.3427 3.76879ZM22.1092 4.872V7H24.1092V4.872H22.1092ZM23.1092 6H21.8612V8H23.1092V6ZM22.8612 7V2.696H20.8612V7H22.8612ZM21.8612 3.696H23.0532V1.696H21.8612V3.696ZM22.0532 2.696V3.888H24.0532V2.696H22.0532ZM23.9022 3.3597L23.6782 2.9997L21.9801 4.0563L22.2041 4.4163L23.9022 3.3597ZM23.7102 4.00113C23.7719 3.88619 23.8513 3.80672 23.9663 3.74499L23.02 1.98301C22.559 2.23061 22.1958 2.59381 21.9482 3.05487L23.7102 4.00113ZM23.9663 3.74499C24.0913 3.67784 24.2532 3.632 24.4772 3.632V1.632C23.9651 1.632 23.471 1.74083 23.02 1.98301L23.9663 3.74499ZM30.0324 7H29.0324C29.0324 7.55228 29.4801 8 30.0324 8V7ZM30.0324 6.16H31.0324C31.0324 6.02281 31.0042 5.88709 30.9495 5.76127L30.0324 6.16ZM29.9524 5.976H28.9524C28.9524 6.11319 28.9806 6.24891 29.0353 6.37473L29.9524 5.976ZM29.7044 3.848L29.0221 4.57906C29.0261 4.58277 29.0301 4.58645 29.0341 4.5901L29.7044 3.848ZM28.2804 3.736L28.5827 4.68923C28.5873 4.68775 28.592 4.68623 28.5966 4.68468L28.2804 3.736ZM27.7204 4.024L26.8309 4.48098C26.9677 4.74723 27.2166 4.9382 27.5092 5.00144C27.8018 5.06467 28.1073 4.9935 28.3418 4.8075L27.7204 4.024ZM27.2724 3.152L26.6965 2.33452C26.2888 2.62174 26.155 3.16541 26.3829 3.60898L27.2724 3.152ZM28.1204 2.768L27.856 1.8036L27.856 1.8036L28.1204 2.768ZM30.6564 3.096L31.3054 2.33517L31.3054 2.33517L30.6564 3.096ZM31.2004 7V8C31.7527 8 32.2004 7.55228 32.2004 7H31.2004ZM27.8564 6.896L27.4172 7.79438C27.4226 7.79703 27.4281 7.79963 27.4335 7.80218L27.8564 6.896ZM27.3044 6.424L28.1434 5.87981L28.1434 5.87981L27.3044 6.424ZM27.2964 5.088L26.4644 4.5333C26.4608 4.5387 26.4572 4.54414 26.4537 4.54961L27.2964 5.088ZM27.8964 4.64L28.2615 5.57097C28.2667 5.56892 28.272 5.56682 28.2772 5.56468L27.8964 4.64ZM30.1044 4.472H31.1044C31.1044 3.91972 30.6567 3.472 30.1044 3.472V4.472ZM30.1044 5.2V6.2C30.6567 6.2 31.1044 5.75228 31.1044 5.2H30.1044ZM28.4884 5.344L27.8376 4.58474C27.8315 4.58999 27.8254 4.59531 27.8194 4.60071L28.4884 5.344ZM28.5124 6.088L27.8961 6.87551C27.9086 6.88531 27.9214 6.89482 27.9344 6.90402L28.5124 6.088ZM29.5924 6.08L30.0945 6.94479C30.1014 6.94081 30.1082 6.93674 30.115 6.9326L29.5924 6.08ZM29.9524 5.64L30.9011 5.32377C30.7678 4.92399 30.3983 4.65065 29.977 4.6403C29.5557 4.62995 29.1731 4.8848 29.0204 5.27755L29.9524 5.64ZM30.1444 6.216L31.0949 6.52674C31.1615 6.32296 31.1609 6.10316 31.0931 5.89977L30.1444 6.216ZM29.6484 6.848L29.1339 5.99051L29.1339 5.99051L29.6484 6.848ZM31.0324 7V6.16H29.0324V7H31.0324ZM30.9495 5.76127L30.8695 5.57727L29.0353 6.37473L29.1153 6.55873L30.9495 5.76127ZM30.9524 5.976V4.472H28.9524V5.976H30.9524ZM30.9524 4.472C30.9524 3.98313 30.7911 3.48201 30.3747 3.1059L29.0341 4.5901C29.02 4.57736 29.0051 4.56094 28.9914 4.54117C28.9777 4.52141 28.9678 4.5021 28.9611 4.48534C28.9477 4.45163 28.9524 4.44145 28.9524 4.472H30.9524ZM30.3867 3.11694C29.9638 2.72224 29.4183 2.624 28.9604 2.624V4.624C29.0078 4.624 29.0435 4.62666 29.0691 4.62993C29.0947 4.6332 29.1075 4.63674 29.1101 4.63754C29.1139 4.63868 29.0731 4.62666 29.0221 4.57906L30.3867 3.11694ZM28.9604 2.624C28.6204 2.624 28.2871 2.67968 27.9642 2.78732L28.5966 4.68468C28.7217 4.64299 28.8417 4.624 28.9604 4.624V2.624ZM27.9782 2.78277C27.6621 2.88297 27.3629 3.03117 27.099 3.2405L28.3418 4.8075C28.3872 4.77149 28.4613 4.7277 28.5827 4.68923L27.9782 2.78277ZM28.6099 3.56702L28.1619 2.69502L26.3829 3.60898L26.8309 4.48098L28.6099 3.56702ZM27.8484 3.96948C27.9721 3.88231 28.1446 3.79827 28.3848 3.7324L27.856 1.8036C27.4349 1.91906 27.0421 2.09102 26.6965 2.33452L27.8484 3.96948ZM28.3848 3.7324C28.6297 3.66525 28.8768 3.632 29.1284 3.632V1.632C28.6973 1.632 28.2724 1.68941 27.856 1.8036L28.3848 3.7324ZM29.1284 3.632C29.6359 3.632 29.8838 3.75134 30.0075 3.85683L31.3054 2.33517C30.7037 1.822 29.933 1.632 29.1284 1.632V3.632ZM30.0075 3.85683C30.0724 3.91223 30.2004 4.06533 30.2004 4.544H32.2004C32.2004 3.71067 31.9657 2.89843 31.3054 2.33517L30.0075 3.85683ZM30.2004 4.544V7H32.2004V4.544H30.2004ZM31.2004 6H30.0324V8H31.2004V6ZM28.7204 6.064C28.4925 6.064 28.3563 6.02575 28.2793 5.98982L27.4335 7.80218C27.8365 7.99025 28.2763 8.064 28.7204 8.064V6.064ZM28.2956 5.99762C28.1959 5.94888 28.1599 5.90522 28.1434 5.87981L26.4654 6.96819C26.705 7.33744 27.0369 7.60846 27.4172 7.79438L28.2956 5.99762ZM28.1434 5.87981C28.1251 5.85171 28.1124 5.82095 28.1124 5.76H26.1124C26.1124 6.18972 26.2277 6.60162 26.4654 6.96819L28.1434 5.87981ZM28.1124 5.76C28.1124 5.67049 28.1315 5.63828 28.1391 5.62639L26.4537 4.54961C26.216 4.92172 26.1124 5.33751 26.1124 5.76H28.1124ZM28.1285 5.6427C28.1242 5.64909 28.1246 5.64527 28.1407 5.63328C28.1582 5.62025 28.1949 5.59709 28.2615 5.57097L27.5313 3.70903C27.1197 3.87047 26.7328 4.13068 26.4644 4.5333L28.1285 5.6427ZM28.2772 5.56468C28.3845 5.52048 28.596 5.472 28.9604 5.472V3.472C28.4502 3.472 27.9523 3.53552 27.5157 3.71532L28.2772 5.56468ZM28.9604 5.472H30.1044V3.472H28.9604V5.472ZM29.1044 4.472V5.2H31.1044V4.472H29.1044ZM30.1044 4.2H29.0964V6.2H30.1044V4.2ZM29.0964 4.2C28.7655 4.2 28.2404 4.23954 27.8376 4.58474L29.1392 6.10326C29.0854 6.14939 29.0368 6.176 29.0055 6.19031C28.9746 6.20445 28.9556 6.20891 28.9549 6.20908C28.9538 6.20933 28.9644 6.2068 28.9897 6.20435C29.0147 6.20193 29.0498 6.2 29.0964 6.2V4.2ZM27.8194 4.60071C27.5012 4.8871 27.3284 5.27763 27.3284 5.704H29.3284C29.3284 5.75829 29.3177 5.83238 29.2822 5.91214C29.2467 5.99198 29.1986 6.05015 29.1574 6.08729L27.8194 4.60071ZM27.3284 5.704C27.3284 6.16178 27.5237 6.58404 27.8961 6.87551L29.1287 5.30049C29.1766 5.338 29.2341 5.3999 29.2762 5.48788C29.318 5.57502 29.3284 5.65357 29.3284 5.704H27.3284ZM27.9344 6.90402C28.2862 7.15322 28.6859 7.224 29.0324 7.224V5.224C28.9904 5.224 28.9797 5.21947 28.9914 5.22254C29.005 5.22608 29.0432 5.2385 29.0904 5.27198L27.9344 6.90402ZM29.0324 7.224C29.4008 7.224 29.7634 7.13705 30.0945 6.94479L29.0903 5.21521C29.0875 5.21684 29.0847 5.21813 29.0794 5.21951C29.0735 5.221 29.059 5.224 29.0324 5.224V7.224ZM30.115 6.9326C30.4787 6.70965 30.7358 6.38463 30.8844 6.00245L29.0204 5.27755C29.0179 5.28405 29.0203 5.2756 29.0324 5.26076C29.045 5.24539 29.0593 5.23387 29.0698 5.2274L30.115 6.9326ZM29.0037 5.95623L29.1957 6.53223L31.0931 5.89977L30.9011 5.32377L29.0037 5.95623ZM29.1939 5.90526C29.1746 5.96442 29.1581 5.97597 29.1339 5.99051L30.1629 7.70549C30.6187 7.43203 30.9329 7.02225 31.0949 6.52674L29.1939 5.90526ZM29.1339 5.99051C29.0949 6.01392 28.9796 6.064 28.7204 6.064V8.064C29.2186 8.064 29.7219 7.97008 30.1629 7.70549L29.1339 5.99051ZM32.7139 6.936L32.4534 7.90147C32.4594 7.90308 32.4654 7.90464 32.4714 7.90614L32.7139 6.936ZM31.9139 6.6L31.0069 6.17889C30.8001 6.62419 30.9472 7.15372 31.354 7.42859L31.9139 6.6ZM32.3299 5.704L32.8578 4.85471C32.6147 4.70355 32.3184 4.66388 32.044 4.74575C31.7696 4.82762 31.5435 5.02318 31.4229 5.28289L32.3299 5.704ZM33.0259 6.008L32.7386 6.96583C32.7461 6.96808 32.7536 6.97025 32.7612 6.97233L33.0259 6.008ZM34.4339 6.016L33.9418 5.14544C33.9363 5.1486 33.9307 5.15181 33.9252 5.15507L34.4339 6.016ZM34.4739 5.504L33.9669 6.36593C33.9864 6.37744 34.0064 6.38828 34.0267 6.39843L34.4739 5.504ZM34.1059 5.384L33.936 6.36946L33.936 6.36946L34.1059 5.384ZM33.5939 5.304L33.4484 6.29337L33.4525 6.29395L33.5939 5.304ZM33.0419 5.2L32.7929 6.16849C32.8016 6.17073 32.8103 6.17285 32.8191 6.17486L33.0419 5.2ZM32.5299 4.992L33.0356 4.1293L33.0356 4.1293L32.5299 4.992ZM32.1539 4.624L31.2912 5.12972C31.2955 5.13699 31.2998 5.1442 31.3043 5.15136L32.1539 4.624ZM32.2499 3.304L31.4573 2.69429C31.454 2.6986 31.4507 2.70293 31.4474 2.7073L32.2499 3.304ZM32.9379 2.816L33.3036 3.74675C33.3083 3.74488 33.3131 3.74297 33.3178 3.74102L32.9379 2.816ZM34.9059 2.728L35.1119 1.74945L35.1119 1.74945L34.9059 2.728ZM35.6659 3.008L36.5715 3.43222C36.7884 2.96925 36.6211 2.41723 36.1837 2.1525L35.6659 3.008ZM35.2499 3.896L34.7419 4.75737C34.9845 4.90045 35.2763 4.93458 35.5454 4.85136C35.8144 4.76814 36.036 4.57529 36.1555 4.32022L35.2499 3.896ZM34.6179 3.648L34.393 4.62239C34.4026 4.62459 34.4122 4.62666 34.4218 4.62858L34.6179 3.648ZM33.4019 3.688L32.898 2.82422L32.898 2.82422L33.4019 3.688ZM33.3459 4.216L32.8389 5.07793C32.846 5.0821 32.8531 5.08617 32.8603 5.09016L33.3459 4.216ZM34.2259 4.432L34.0804 5.42136C34.091 5.42292 34.1017 5.42431 34.1124 5.42553L34.2259 4.432ZM34.7859 4.536L35.0349 3.56751L35.0349 3.56751L34.7859 4.536ZM35.2899 4.744L34.7709 5.59879C34.7827 5.60596 34.7947 5.6129 34.8068 5.61958L35.2899 4.744ZM35.6659 5.104L34.8163 5.63136C34.8191 5.63585 34.8219 5.64032 34.8247 5.64476L35.6659 5.104ZM35.5699 6.408L36.3549 7.02769L36.3625 7.01771L35.5699 6.408ZM34.8739 6.888L34.5138 5.95506L34.5083 5.95725L34.8739 6.888ZM33.7779 6.064C33.4879 6.064 33.2149 6.03047 32.9564 5.96586L32.4714 7.90614C32.8956 8.0122 33.3319 8.064 33.7779 8.064V6.064ZM32.9744 5.97053C32.7005 5.89661 32.5478 5.82146 32.4738 5.77141L31.354 7.42859C31.6746 7.64521 32.0553 7.79406 32.4534 7.90147L32.9744 5.97053ZM32.8209 7.02111L33.2369 6.12511L31.4229 5.28289L31.0069 6.17889L32.8209 7.02111ZM31.802 6.55329C32.0874 6.73074 32.4034 6.86528 32.7386 6.96583L33.3133 5.05017C33.1151 4.99072 32.967 4.92259 32.8578 4.85471L31.802 6.55329ZM32.7612 6.97233C33.1126 7.0688 33.4684 7.12 33.8259 7.12V5.12C33.6608 5.12 33.4832 5.09653 33.2906 5.04367L32.7612 6.97233ZM33.8259 7.12C34.1344 7.12 34.5761 7.09351 34.9426 6.87693L33.9252 5.15507C33.9715 5.12768 34.0067 5.11506 34.0208 5.11047C34.0355 5.10569 34.0384 5.10608 34.0253 5.10832C34.0127 5.11047 33.99 5.11354 33.9554 5.11599C33.9211 5.11841 33.8782 5.12 33.8259 5.12V7.12ZM34.926 6.88656C35.3064 6.67153 35.6179 6.27132 35.6179 5.728H33.6179C33.6179 5.61382 33.6492 5.4788 33.7292 5.35361C33.805 5.23501 33.8941 5.17243 33.9418 5.14544L34.926 6.88656ZM35.6179 5.728C35.6179 5.51345 35.5649 5.27582 35.4231 5.05524C35.2834 4.83798 35.0962 4.6971 34.9211 4.60957L34.0267 6.39843C33.9476 6.3589 33.8324 6.27936 33.7407 6.13676C33.6469 5.99085 33.6179 5.84121 33.6179 5.728H35.6179ZM34.9809 4.64207C34.7483 4.50525 34.4965 4.4366 34.2758 4.39854L33.936 6.36946C33.9756 6.37629 33.9969 6.38245 34.0039 6.38473C34.007 6.38574 34.0051 6.38528 33.9991 6.38266C33.9931 6.38004 33.9819 6.37477 33.9669 6.36593L34.9809 4.64207ZM34.2758 4.39854C34.11 4.36995 33.9297 4.34182 33.7353 4.31405L33.4525 6.29395C33.6315 6.31952 33.7925 6.34471 33.936 6.36946L34.2758 4.39854ZM33.7394 4.31464C33.5851 4.29196 33.427 4.26222 33.2647 4.22514L32.8191 6.17486C33.0302 6.22311 33.24 6.26271 33.4484 6.29336L33.7394 4.31464ZM33.2909 4.23151C33.1876 4.20494 33.1043 4.16955 33.0356 4.1293L32.0242 5.8547C32.2649 5.99578 32.5229 6.09906 32.7929 6.16849L33.2909 4.23151ZM33.0356 4.1293C33.0234 4.12212 33.0152 4.11545 33.0035 4.09664L31.3043 5.15136C31.4846 5.44188 31.7271 5.68055 32.0242 5.8547L33.0356 4.1293ZM33.0166 4.11828C33.03 4.14118 33.0303 4.15097 33.0272 4.13694C33.0238 4.12198 33.0179 4.08631 33.0179 4.024H31.0179C31.0179 4.38429 31.0834 4.7753 31.2912 5.12972L33.0166 4.11828ZM33.0179 4.024C33.0179 3.95563 33.0326 3.92732 33.0524 3.9007L31.4474 2.7073C31.1579 3.09668 31.0179 3.54837 31.0179 4.024H33.0179ZM33.0425 3.91371C33.0697 3.87839 33.1361 3.81252 33.3036 3.74675L32.5723 1.88525C32.1423 2.05414 31.7501 2.31361 31.4573 2.69429L33.0425 3.91371ZM33.3178 3.74102C33.4667 3.67989 33.6883 3.632 34.0099 3.632V1.632C33.4995 1.632 33.0065 1.70677 32.558 1.89098L33.3178 3.74102ZM34.0099 3.632C34.2301 3.632 34.4597 3.65597 34.6999 3.70655L35.1119 1.74945C34.7441 1.67203 34.3764 1.632 34.0099 1.632V3.632ZM34.6999 3.70655C34.9261 3.75418 35.0664 3.81405 35.1481 3.8635L36.1837 2.1525C35.8601 1.95661 35.4937 1.82982 35.1119 1.74945L34.6999 3.70655ZM34.7603 2.58377L34.3443 3.47177L36.1555 4.32022L36.5715 3.43222L34.7603 2.58377ZM35.7579 3.03463C35.4639 2.86125 35.1487 2.73435 34.814 2.66742L34.4218 4.62858C34.5138 4.64699 34.6199 4.68542 34.7419 4.75737L35.7579 3.03463ZM34.8428 2.67361C34.567 2.60997 34.2888 2.576 34.0099 2.576V4.576C34.1257 4.576 34.2528 4.59003 34.393 4.62239L34.8428 2.67361ZM34.0099 2.576C33.6856 2.576 33.2618 2.61205 32.898 2.82422L33.9058 4.55178C33.8705 4.57233 33.8441 4.58228 33.8327 4.58614C33.8212 4.59006 33.8196 4.58957 33.8311 4.58745C33.8562 4.58282 33.9127 4.576 34.0099 4.576V2.576ZM32.898 2.82422C32.5564 3.02351 32.2099 3.40655 32.2099 3.976H34.2099C34.2099 4.1112 34.1694 4.2515 34.09 4.3707C34.017 4.4801 33.9371 4.53349 33.9058 4.55178L32.898 2.82422ZM32.2099 3.976C32.2099 4.43089 32.4375 4.84184 32.8389 5.07793L33.8529 3.35407C33.9368 3.40338 34.0382 3.48941 34.1139 3.62299C34.1892 3.75589 34.2099 3.88445 34.2099 3.976H32.2099ZM32.8603 5.09016C33.0742 5.209 33.305 5.27892 33.5193 5.32326L33.9245 3.36474C33.8802 3.35558 33.8511 3.3471 33.8342 3.34135C33.8169 3.33548 33.818 3.33433 33.8315 3.34184L32.8603 5.09016ZM33.5193 5.32326C33.6956 5.35974 33.8829 5.39231 34.0804 5.42136L34.3714 3.44264C34.2062 3.41835 34.0575 3.39226 33.9245 3.36474L33.5193 5.32326ZM34.1124 5.42553C34.2522 5.44151 34.3936 5.46765 34.5369 5.50449L35.0349 3.56751C34.8049 3.50835 34.573 3.46515 34.3395 3.43847L34.1124 5.42553ZM34.5369 5.50449C34.6382 5.53054 34.7137 5.56402 34.7709 5.59879L35.8089 3.88921C35.5675 3.74264 35.307 3.63745 35.0349 3.56751L34.5369 5.50449ZM34.8068 5.61958C34.8086 5.62056 34.8092 5.62103 34.809 5.6209C34.8089 5.62077 34.8085 5.62051 34.8083 5.62031C34.8081 5.62011 34.8086 5.62053 34.8098 5.62196C34.8109 5.62341 34.8132 5.62637 34.8163 5.63136L36.5155 4.57664C36.3321 4.28105 36.0824 4.03911 35.773 3.86842L34.8068 5.61958ZM34.8247 5.64476C34.8046 5.61352 34.8008 5.59439 34.8022 5.60035C34.804 5.6076 34.8099 5.63709 34.8099 5.696H36.8099C36.8099 5.32953 36.7393 4.92446 36.5071 4.56324L34.8247 5.64476ZM34.8099 5.696C34.8099 5.74598 34.8005 5.76813 34.7773 5.79829L36.3625 7.01771C36.6593 6.63187 36.8099 6.17935 36.8099 5.696H34.8099ZM34.785 5.78836C34.7616 5.81806 34.6939 5.88556 34.5138 5.95508L35.234 7.82092C35.6619 7.65577 36.0582 7.40327 36.3548 7.02764L34.785 5.78836ZM34.5083 5.95725C34.3587 6.01598 34.1255 6.064 33.7779 6.064V8.064C34.2943 8.064 34.7917 7.99468 35.2396 7.81875L34.5083 5.95725ZM37.4199 6.776L36.9573 7.6626L36.9626 7.66529L37.4199 6.776ZM36.5639 5.992L35.7076 6.50851L35.7113 6.51456L36.5639 5.992ZM36.5559 3.704L35.6996 3.1875L35.6972 3.19154L36.5559 3.704ZM37.3799 2.92L37.854 3.80053L37.8644 3.79479L37.3799 2.92ZM39.6919 2.904L39.217 3.78402C39.2225 3.787 39.228 3.78993 39.2336 3.7928L39.6919 2.904ZM40.4999 3.672L39.6376 4.17843L39.6412 4.18446L40.4999 3.672ZM40.7879 5.032L41.7838 5.12254L41.7845 5.11504L40.7879 5.032ZM40.7719 5.2V6.2C41.2857 6.2 41.7158 5.8107 41.7669 5.2995L40.7719 5.2ZM37.2759 5.2H36.2759C36.2759 5.75228 36.7236 6.2 37.2759 6.2V5.2ZM37.2759 4.472V3.472C36.7236 3.472 36.2759 3.91972 36.2759 4.472H37.2759ZM40.1159 4.472L40.5263 5.38392C40.9562 5.19047 41.1926 4.72306 41.0936 4.26214C40.9947 3.80123 40.5873 3.472 40.1159 3.472V4.472ZM39.6359 4.688H38.6359C38.6359 5.02733 38.808 5.34351 39.0929 5.52775C39.3779 5.712 39.7368 5.73917 40.0463 5.59992L39.6359 4.688ZM39.4999 4.104L38.6231 4.58483L38.6231 4.58483L39.4999 4.104ZM39.1239 3.72L38.6094 4.57749C38.6165 4.58176 38.6237 4.58593 38.6309 4.59002L39.1239 3.72ZM37.9959 3.72L38.4889 4.59007L38.498 4.58479L37.9959 3.72ZM37.6199 4.112L38.4968 4.59287L38.503 4.58116L37.6199 4.112ZM37.6359 5.52L36.763 6.00782C36.7687 6.01809 36.7746 6.02825 36.7807 6.0383L37.6359 5.52ZM38.0759 5.928L37.6186 6.81729C37.6286 6.82245 37.6387 6.82743 37.6489 6.83225L38.0759 5.928ZM39.3479 5.96L38.9814 5.02954L38.9715 5.03353L39.3479 5.96ZM39.8279 5.648L40.563 4.97006C40.3807 4.77234 40.1264 4.65641 39.8576 4.64844C39.5887 4.64047 39.328 4.74112 39.1343 4.92768L39.8279 5.648ZM40.4919 6.368L41.2423 7.02903C41.5809 6.64467 41.5743 6.06661 41.227 5.69006L40.4919 6.368ZM39.7479 6.888L40.1136 7.81875C40.1183 7.81688 40.1231 7.81497 40.1278 7.81302L39.7479 6.888ZM38.7159 6.064C38.3575 6.064 38.087 5.9946 37.8773 5.88671L36.9626 7.66529C37.4994 7.9414 38.093 8.064 38.7159 8.064V6.064ZM37.8825 5.88942C37.6633 5.77508 37.5179 5.63479 37.4165 5.46944L35.7113 6.51456C36.0153 7.01054 36.4405 7.39292 36.9573 7.66258L37.8825 5.88942ZM37.4202 5.47551C37.3197 5.30889 37.2599 5.10908 37.2599 4.848H35.2599C35.2599 5.44025 35.4028 6.00311 35.7076 6.50849L37.4202 5.47551ZM37.2599 4.848C37.2599 4.57391 37.3207 4.37392 37.4146 4.21646L35.6972 3.19154C35.3965 3.69542 35.2599 4.25809 35.2599 4.848H37.2599ZM37.4122 4.22049C37.522 4.03841 37.6645 3.90253 37.854 3.80047L36.9058 2.03953C36.402 2.3108 35.9951 2.69759 35.6996 3.18751L37.4122 4.22049ZM37.8644 3.79479C38.0478 3.6932 38.2701 3.632 38.5559 3.632V1.632C37.967 1.632 37.4053 1.7628 36.8954 2.04521L37.8644 3.79479ZM38.5559 3.632C38.8289 3.632 39.0416 3.68936 39.217 3.78402L40.1668 2.02398C39.6702 1.75598 39.1255 1.632 38.5559 1.632V3.632ZM39.2336 3.7928C39.4042 3.88078 39.5346 4.003 39.6376 4.17842L41.3622 3.16558C41.0706 2.669 40.6622 2.27922 40.1502 2.0152L39.2336 3.7928ZM39.6412 4.18446C39.7287 4.33117 39.7959 4.54336 39.7959 4.864H41.7959C41.7959 4.25664 41.6657 3.67417 41.3586 3.15954L39.6412 4.18446ZM39.7959 4.864C39.7959 4.87684 39.7951 4.904 39.7914 4.94896L41.7845 5.11504C41.7914 5.032 41.7959 4.94716 41.7959 4.864H39.7959ZM39.792 4.94146C39.7869 4.99743 39.7819 5.05043 39.7769 5.1005L41.7669 5.2995C41.7726 5.24291 41.7782 5.18391 41.7838 5.12254L39.792 4.94146ZM40.7719 4.2H37.2759V6.2H40.7719V4.2ZM38.2759 5.2V4.472H36.2759V5.2H38.2759ZM37.2759 5.472H40.1159V3.472H37.2759V5.472ZM39.7055 3.56008L39.2255 3.77608L40.0463 5.59992L40.5263 5.38392L39.7055 3.56008ZM40.6359 4.688C40.6359 4.3275 40.5621 3.96129 40.3767 3.62317L38.6231 4.58483C38.6221 4.58299 38.6247 4.58686 38.628 4.60081C38.6314 4.61548 38.6359 4.64332 38.6359 4.688H40.6359ZM40.3767 3.62317C40.1991 3.29932 39.9428 3.03463 39.6169 2.84998L38.6309 4.59002C38.6317 4.59047 38.6309 4.59009 38.6291 4.58873C38.6273 4.58734 38.6253 4.58558 38.6234 4.58362C38.6215 4.58168 38.6204 4.58029 38.6202 4.57995C38.6199 4.57964 38.621 4.58105 38.6231 4.58483L40.3767 3.62317ZM39.6384 2.86251C39.3018 2.66052 38.932 2.576 38.5639 2.576V4.576C38.5954 4.576 38.611 4.57951 38.6149 4.58049C38.6179 4.58128 38.6148 4.58072 38.6094 4.57749L39.6384 2.86251ZM38.5639 2.576C38.1951 2.576 37.8288 2.66071 37.4938 2.85521L38.498 4.58479C38.4988 4.58436 38.5009 4.58304 38.5077 4.58133C38.515 4.57947 38.5326 4.576 38.5639 4.576V2.576ZM37.5029 2.84998C37.1688 3.03932 36.9119 3.31314 36.7368 3.64284L38.503 4.58116C38.5044 4.57863 38.5054 4.57686 38.5061 4.57574C38.5068 4.57463 38.5072 4.57411 38.5072 4.5741C38.5072 4.57409 38.5069 4.5745 38.5062 4.57526C38.5056 4.57602 38.5047 4.57704 38.5036 4.57823C38.5012 4.58071 38.4984 4.58329 38.4953 4.58565C38.4923 4.58799 38.49 4.58942 38.4889 4.59002L37.5029 2.84998ZM36.7431 3.63117C36.5559 3.97256 36.4839 4.34265 36.4839 4.704H38.4839C38.4839 4.60668 38.5026 4.5821 38.4967 4.59283L36.7431 3.63117ZM36.4839 4.704V4.896H38.4839V4.704H36.4839ZM36.4839 4.896C36.4839 5.27894 36.568 5.65891 36.763 6.00782L38.5088 5.03218C38.5012 5.01843 38.4839 4.98239 38.4839 4.896H36.4839ZM36.7807 6.0383C36.9852 6.37564 37.271 6.63854 37.6186 6.81729L38.5333 5.03871C38.5075 5.02546 38.5 5.01636 38.4911 5.0017L36.7807 6.0383ZM37.6489 6.83225C37.999 6.9976 38.3741 7.064 38.7479 7.064V5.064C38.6097 5.064 38.5368 5.03974 38.5029 5.02375L37.6489 6.83225ZM38.7479 7.064C39.0757 7.064 39.4087 7.01467 39.7243 6.88647L38.9715 5.03353C38.9458 5.044 38.8787 5.064 38.7479 5.064V7.064ZM39.7144 6.89041C40.019 6.77043 40.2887 6.59251 40.5215 6.36832L39.1343 4.92768C39.0791 4.98082 39.0288 5.0109 38.9814 5.02959L39.7144 6.89041ZM39.0928 6.32594L39.7568 7.04594L41.227 5.69006L40.563 4.97006L39.0928 6.32594ZM39.7415 5.70697C39.6539 5.80646 39.5364 5.89383 39.368 5.96298L40.1278 7.81302C40.5568 7.63684 40.9352 7.37754 41.2423 7.02903L39.7415 5.70697ZM39.3823 5.95725C39.222 6.0202 39.0061 6.064 38.7159 6.064V8.064C39.2044 8.064 39.6765 7.99046 40.1136 7.81875L39.3823 5.95725ZM41.6268 7H40.6268C40.6268 7.55228 41.0745 8 41.6268 8V7ZM41.6268 2.696V1.696C41.0745 1.696 40.6268 2.14371 40.6268 2.696H41.6268ZM42.8188 2.696H43.8188C43.8188 2.14371 43.3711 1.696 42.8188 1.696V2.696ZM42.8188 3.912L41.9163 4.34273C42.1175 4.76438 42.5839 4.99048 43.0396 4.88732C43.4953 4.78415 43.8188 4.37921 43.8188 3.912H42.8188ZM42.6508 3.56L41.7291 3.17194C41.6183 3.43509 41.6253 3.73305 41.7483 3.99073L42.6508 3.56ZM43.2668 2.872L43.7468 3.74926C43.751 3.74696 43.7552 3.74462 43.7594 3.74226L43.2668 2.872ZM44.2988 2.632H45.2988C45.2988 2.07972 44.8511 1.632 44.2988 1.632V2.632ZM44.2988 3.784L44.1993 4.77904C44.4804 4.80715 44.7603 4.71503 44.9698 4.52545C45.1793 4.33587 45.2988 4.06653 45.2988 3.784H44.2988ZM44.1548 3.776L44.0307 4.76828C44.0719 4.77342 44.1133 4.776 44.1548 4.776V3.776ZM43.1868 4.064L43.8651 4.7988L43.8658 4.7981L43.1868 4.064ZM42.8748 7V8C43.4271 8 43.8748 7.55228 43.8748 7H42.8748ZM42.6268 7V2.696H40.6268V7H42.6268ZM41.6268 3.696H42.8188V1.696H41.6268V3.696ZM41.8188 2.696V3.912H43.8188V2.696H41.8188ZM43.7213 3.48127L43.5533 3.12927L41.7483 3.99073L41.9163 4.34273L43.7213 3.48127ZM43.5724 3.94806C43.615 3.84699 43.6674 3.79269 43.7468 3.74926L42.7868 1.99474C42.3008 2.26064 41.9426 2.66501 41.7291 3.17194L43.5724 3.94806ZM43.7594 3.74226C43.8589 3.68594 44.0239 3.632 44.2988 3.632V1.632C43.763 1.632 43.24 1.73806 42.7742 2.00174L43.7594 3.74226ZM43.2988 2.632V3.784H45.2988V2.632H43.2988ZM44.3983 2.78896C44.3198 2.78112 44.2378 2.776 44.1548 2.776V4.776C44.1571 4.776 44.1711 4.77621 44.1993 4.77904L44.3983 2.78896ZM44.2788 2.78372C44.1906 2.77269 44.1035 2.768 44.0188 2.768V4.768C44.03 4.768 44.0336 4.76864 44.0307 4.76828L44.2788 2.78372ZM44.0188 2.768C43.4725 2.768 42.9376 2.9323 42.5077 3.3299L43.8658 4.7981C43.8718 4.79255 43.8771 4.78872 43.89 4.78415C43.9054 4.77867 43.9444 4.768 44.0188 4.768V2.768ZM42.5085 3.3292C42.0175 3.78247 41.8748 4.4058 41.8748 4.968H43.8748C43.8748 4.84334 43.891 4.78066 43.8981 4.76025C43.9031 4.74575 43.8971 4.76925 43.8651 4.7988L42.5085 3.3292ZM41.8748 4.968V7H43.8748V4.968H41.8748ZM42.8748 6H41.6268V8H42.8748V6ZM46.3573 7L45.4353 7.38729C45.5913 7.75851 45.9546 8 46.3573 8V7ZM44.5493 2.696V1.696C44.2144 1.696 43.9018 1.86361 43.7164 2.14251C43.5311 2.4214 43.4976 2.77456 43.6273 3.08329L44.5493 2.696ZM45.8373 2.696L46.7638 2.31978C46.6107 1.94268 46.2443 1.696 45.8373 1.696V2.696ZM47.3413 6.4V7.4C47.674 7.4 47.985 7.23449 48.1708 6.95847C48.3566 6.68245 48.393 6.33208 48.2678 6.02378L47.3413 6.4ZM46.7013 6.4L45.7797 6.01185C45.6496 6.32062 45.6829 6.67399 45.8682 6.95311C46.0535 7.23222 46.3662 7.4 46.7013 7.4V6.4ZM48.2613 2.696V1.696C47.859 1.696 47.4958 1.93709 47.3397 2.30785L48.2613 2.696ZM49.4613 2.696L50.3826 3.08475C50.5129 2.77596 50.4799 2.42244 50.2946 2.14316C50.1093 1.86389 49.7964 1.696 49.4613 1.696V2.696ZM47.6453 7V8C48.0474 8 48.4103 7.75919 48.5666 7.38875L47.6453 7ZM47.2792 6.61271L45.4712 2.30871L43.6273 3.08329L45.4353 7.38729L47.2792 6.61271ZM44.5493 3.696H45.8373V1.696H44.5493V3.696ZM44.9107 3.07222L46.4147 6.77622L48.2678 6.02378L46.7638 2.31978L44.9107 3.07222ZM47.3413 5.4H46.7013V7.4H47.3413V5.4ZM47.6229 6.78815L49.1829 3.08415L47.3397 2.30785L45.7797 6.01185L47.6229 6.78815ZM48.2613 3.696H49.4613V1.696H48.2613V3.696ZM48.5399 2.30725L46.7239 6.61125L48.5666 7.38875L50.3826 3.08475L48.5399 2.30725ZM47.6453 6H46.3573V8H47.6453V6ZM50.6933 6.776L50.2308 7.6626L50.236 7.66529L50.6933 6.776ZM49.8373 5.992L48.981 6.50851L48.9847 6.51456L49.8373 5.992ZM49.8293 3.704L48.973 3.1875L48.9706 3.19154L49.8293 3.704ZM50.6533 2.92L51.1275 3.80053L51.1378 3.79479L50.6533 2.92ZM52.9653 2.904L52.4904 3.78402C52.4959 3.787 52.5015 3.78993 52.5071 3.7928L52.9653 2.904ZM53.7733 3.672L52.911 4.17843L52.9146 4.18446L53.7733 3.672ZM54.0613 5.032L55.0573 5.12254L55.0579 5.11504L54.0613 5.032ZM54.0453 5.2V6.2C54.5591 6.2 54.9893 5.8107 55.0404 5.2995L54.0453 5.2ZM50.5493 5.2H49.5493C49.5493 5.75228 49.9971 6.2 50.5493 6.2V5.2ZM50.5493 4.472V3.472C49.9971 3.472 49.5493 3.91972 49.5493 4.472H50.5493ZM53.3893 4.472L53.7997 5.38392C54.2296 5.19047 54.466 4.72306 54.3671 4.26214C54.2681 3.80123 53.8608 3.472 53.3893 3.472V4.472ZM52.9093 4.688H51.9093C51.9093 5.02733 52.0814 5.34351 52.3664 5.52775C52.6513 5.712 53.0103 5.73917 53.3197 5.59992L52.9093 4.688ZM52.7733 4.104L51.8965 4.58483L51.8965 4.58483L52.7733 4.104ZM52.3973 3.72L51.8828 4.57749C51.89 4.58176 51.8971 4.58593 51.9043 4.59002L52.3973 3.72ZM51.2693 3.72L51.7624 4.59007L51.7715 4.58479L51.2693 3.72ZM50.8933 4.112L51.7702 4.59287L51.7765 4.58116L50.8933 4.112ZM50.9093 5.52L50.0364 6.00782C50.0421 6.01809 50.0481 6.02825 50.0541 6.0383L50.9093 5.52ZM51.3493 5.928L50.892 6.81729C50.902 6.82245 50.9121 6.82743 50.9223 6.83225L51.3493 5.928ZM52.6213 5.96L52.2548 5.02954L52.245 5.03353L52.6213 5.96ZM53.1013 5.648L53.8365 4.97006C53.6541 4.77234 53.3998 4.65641 53.131 4.64844C52.8622 4.64047 52.6014 4.74112 52.4077 4.92768L53.1013 5.648ZM53.7653 6.368L54.5157 7.02903C54.8543 6.64467 54.8477 6.06661 54.5005 5.69006L53.7653 6.368ZM53.0213 6.888L53.387 7.81875C53.3918 7.81688 53.3965 7.81497 53.4013 7.81302L53.0213 6.888ZM51.9893 6.064C51.6309 6.064 51.3605 5.9946 51.1507 5.88671L50.236 7.66529C50.7729 7.9414 51.3664 8.064 51.9893 8.064V6.064ZM51.1559 5.88942C50.9368 5.77508 50.7913 5.63479 50.6899 5.46944L48.9847 6.51456C49.2887 7.01054 49.7139 7.39292 50.2308 7.66258L51.1559 5.88942ZM50.6936 5.47551C50.5931 5.30889 50.5333 5.10908 50.5333 4.848H48.5333C48.5333 5.44025 48.6762 6.00311 48.9811 6.50849L50.6936 5.47551ZM50.5333 4.848C50.5333 4.57391 50.5941 4.37392 50.6881 4.21646L48.9706 3.19154C48.6699 3.69542 48.5333 4.25809 48.5333 4.848H50.5333ZM50.6856 4.22049C50.7955 4.03841 50.9379 3.90253 51.1274 3.80047L50.1792 2.03953C49.6755 2.3108 49.2686 2.69759 48.9731 3.18751L50.6856 4.22049ZM51.1378 3.79479C51.3213 3.6932 51.5436 3.632 51.8293 3.632V1.632C51.2405 1.632 50.6787 1.7628 50.1688 2.04521L51.1378 3.79479ZM51.8293 3.632C52.1024 3.632 52.315 3.68936 52.4904 3.78402L53.4403 2.02398C52.9437 1.75598 52.399 1.632 51.8293 1.632V3.632ZM52.5071 3.7928C52.6777 3.88078 52.808 4.003 52.9111 4.17842L54.6356 3.16558C54.344 2.669 53.9357 2.27922 53.4236 2.0152L52.5071 3.7928ZM52.9146 4.18446C53.0022 4.33117 53.0693 4.54336 53.0693 4.864H55.0693C55.0693 4.25664 54.9392 3.67417 54.6321 3.15954L52.9146 4.18446ZM53.0693 4.864C53.0693 4.87684 53.0685 4.904 53.0648 4.94896L55.0579 5.11504C55.0648 5.032 55.0693 4.94716 55.0693 4.864H53.0693ZM53.0655 4.94146C53.0604 4.99743 53.0553 5.05043 53.0503 5.1005L55.0404 5.2995C55.046 5.24291 55.0517 5.18391 55.0572 5.12254L53.0655 4.94146ZM54.0453 4.2H50.5493V6.2H54.0453V4.2ZM51.5493 5.2V4.472H49.5493V5.2H51.5493ZM50.5493 5.472H53.3893V3.472H50.5493V5.472ZM52.979 3.56008L52.499 3.77608L53.3197 5.59992L53.7997 5.38392L52.979 3.56008ZM53.9093 4.688C53.9093 4.3275 53.8356 3.96129 53.6502 3.62317L51.8965 4.58483C51.8955 4.58299 51.8982 4.58686 51.9014 4.60081C51.9048 4.61548 51.9093 4.64332 51.9093 4.688H53.9093ZM53.6502 3.62317C53.4726 3.29932 53.2162 3.03463 52.8904 2.84998L51.9043 4.59002C51.9051 4.59047 51.9044 4.59009 51.9026 4.58873C51.9008 4.58734 51.8987 4.58558 51.8968 4.58362C51.8949 4.58168 51.8939 4.58029 51.8936 4.57995C51.8934 4.57964 51.8945 4.58105 51.8965 4.58483L53.6502 3.62317ZM52.9118 2.86251C52.5752 2.66052 52.2054 2.576 51.8373 2.576V4.576C51.8688 4.576 51.8845 4.57951 51.8883 4.58049C51.8914 4.58128 51.8882 4.58072 51.8828 4.57749L52.9118 2.86251ZM51.8373 2.576C51.4686 2.576 51.1022 2.66071 50.7672 2.85521L51.7715 4.58479C51.7722 4.58436 51.7744 4.58304 51.7811 4.58133C51.7884 4.57947 51.806 4.576 51.8373 4.576V2.576ZM50.7763 2.84998C50.4422 3.03932 50.1854 3.31314 50.0102 3.64284L51.7765 4.58116C51.7778 4.57863 51.7788 4.57686 51.7795 4.57574C51.7802 4.57463 51.7806 4.57411 51.7806 4.5741C51.7806 4.57409 51.7803 4.5745 51.7797 4.57526C51.7791 4.57602 51.7782 4.57704 51.777 4.57823C51.7746 4.58071 51.7718 4.58329 51.7688 4.58565C51.7657 4.58799 51.7634 4.58942 51.7624 4.59002L50.7763 2.84998ZM50.0165 3.63117C49.8293 3.97256 49.7573 4.34265 49.7573 4.704H51.7573C51.7573 4.60668 51.776 4.5821 51.7702 4.59283L50.0165 3.63117ZM49.7573 4.704V4.896H51.7573V4.704H49.7573ZM49.7573 4.896C49.7573 5.27894 49.8414 5.65891 50.0364 6.00782L51.7823 5.03218C51.7746 5.01843 51.7573 4.98239 51.7573 4.896H49.7573ZM50.0541 6.0383C50.2586 6.37564 50.5444 6.63854 50.892 6.81729L51.8067 5.03871C51.7809 5.02546 51.7734 5.01636 51.7645 5.0017L50.0541 6.0383ZM50.9223 6.83225C51.2725 6.9976 51.6476 7.064 52.0213 7.064V5.064C51.8831 5.064 51.8102 5.03974 51.7763 5.02375L50.9223 6.83225ZM52.0213 7.064C52.3492 7.064 52.6822 7.01467 52.9977 6.88647L52.245 5.03353C52.2192 5.044 52.1522 5.064 52.0213 5.064V7.064ZM52.9879 6.89041C53.2924 6.77043 53.5622 6.59251 53.795 6.36832L52.4077 4.92768C52.3525 4.98082 52.3023 5.0109 52.2548 5.02959L52.9879 6.89041ZM52.3662 6.32594L53.0302 7.04594L54.5005 5.69006L53.8365 4.97006L52.3662 6.32594ZM53.015 5.70697C52.9273 5.80646 52.8098 5.89383 52.6414 5.96298L53.4013 7.81302C53.8302 7.63684 54.2087 7.37754 54.5157 7.02903L53.015 5.70697ZM52.6557 5.95725C52.4954 6.0202 52.2795 6.064 51.9893 6.064V8.064C52.4779 8.064 52.9499 7.99046 53.387 7.81875L52.6557 5.95725ZM54.9002 7H53.9002C53.9002 7.55228 54.3479 8 54.9002 8V7ZM54.9002 2.696V1.696C54.3479 1.696 53.9002 2.14371 53.9002 2.696H54.9002ZM56.0922 2.696H57.0922C57.0922 2.14371 56.6445 1.696 56.0922 1.696V2.696ZM56.0922 3.912L55.1897 4.34273C55.391 4.76438 55.8574 4.99048 56.313 4.88732C56.7687 4.78415 57.0922 4.37921 57.0922 3.912H56.0922ZM55.9242 3.56L55.0026 3.17194C54.8918 3.43509 54.8988 3.73305 55.0217 3.99073L55.9242 3.56ZM56.5402 2.872L57.0202 3.74926C57.0244 3.74696 57.0286 3.74462 57.0328 3.74226L56.5402 2.872ZM57.5722 2.632H58.5722C58.5722 2.07972 58.1245 1.632 57.5722 1.632V2.632ZM57.5722 3.784L57.4727 4.77904C57.7538 4.80715 58.0337 4.71503 58.2432 4.52545C58.4527 4.33587 58.5722 4.06653 58.5722 3.784H57.5722ZM57.4282 3.776L57.3042 4.76828C57.3453 4.77342 57.3868 4.776 57.4282 4.776V3.776ZM56.4602 4.064L57.1385 4.7988L57.1393 4.7981L56.4602 4.064ZM56.1482 7V8C56.7005 8 57.1482 7.55228 57.1482 7H56.1482ZM55.9002 7V2.696H53.9002V7H55.9002ZM54.9002 3.696H56.0922V1.696H54.9002V3.696ZM55.0922 2.696V3.912H57.0922V2.696H55.0922ZM56.9947 3.48127L56.8267 3.12927L55.0217 3.99073L55.1897 4.34273L56.9947 3.48127ZM56.8459 3.94806C56.8884 3.84699 56.9409 3.79269 57.0202 3.74926L56.0602 1.99474C55.5743 2.26064 55.216 2.66501 55.0026 3.17194L56.8459 3.94806ZM57.0328 3.74226C57.1323 3.68594 57.2973 3.632 57.5722 3.632V1.632C57.0365 1.632 56.5135 1.73806 56.0476 2.00174L57.0328 3.74226ZM56.5722 2.632V3.784H58.5722V2.632H56.5722ZM57.6717 2.78896C57.5933 2.78112 57.5112 2.776 57.4282 2.776V4.776C57.4305 4.776 57.4445 4.77621 57.4727 4.77904L57.6717 2.78896ZM57.5523 2.78372C57.464 2.77269 57.377 2.768 57.2922 2.768V4.768C57.3035 4.768 57.3071 4.76864 57.3042 4.76828L57.5523 2.78372ZM57.2922 2.768C56.7459 2.768 56.211 2.9323 55.7812 3.3299L57.1393 4.7981C57.1453 4.79255 57.1506 4.78872 57.1634 4.78415C57.1788 4.77867 57.2179 4.768 57.2922 4.768V2.768ZM55.7819 3.3292C55.2909 3.78247 55.1482 4.4058 55.1482 4.968H57.1482C57.1482 4.84334 57.1645 4.78066 57.1715 4.76025C57.1765 4.74575 57.1705 4.76925 57.1385 4.7988L55.7819 3.3292ZM55.1482 4.968V7H57.1482V4.968H55.1482ZM56.1482 6H54.9002V8H56.1482V6Z" fill="black"/>
<defs>
<linearGradient id="paint0_linear_1_2" x1="29.5" y1="1" x2="29.5" y2="7" gradientUnits="userSpaceOnUse">
<stop stop-color="#C345FF"/>
<stop offset="1" stop-color="#4584FF"/>
</linearGradient>
</defs>
</svg>
