<svg width="64" height="15" viewBox="0 0 64 15" fill="none" xmlns="http://www.w3.org/2000/svg">
<g filter="url(#filter0_i_1_46)">
<mask id="path-1-outside-1_1_46" maskUnits="userSpaceOnUse" x="3" y="1.5" width="6" height="12" fill="black">
<rect fill="white" x="3" y="1.5" width="6" height="12"/>
<path d="M3 3.5H6.75C6.88807 3.5 7 3.61193 7 3.75V11.25C7 11.3881 6.88807 11.5 6.75 11.5H3V3.5Z"/>
</mask>
<path d="M3 1.5H6.75C7.99264 1.5 9 2.50736 9 3.75L5 5.5H3V1.5ZM9 11.25C9 12.4926 7.99264 13.5 6.75 13.5H3V9.5H5L9 11.25ZM3 11.5V3.5V11.5ZM6.75 1.5C7.99264 1.5 9 2.50736 9 3.75V11.25C9 12.4926 7.99264 13.5 6.75 13.5L5 9.5V5.5L6.75 1.5Z" fill="white" mask="url(#path-1-outside-1_1_46)"/>
<path d="M0 4.75C0 4.61193 0.111929 4.5 0.25 4.5H5.75C5.88807 4.5 6 4.61193 6 4.75V10.25C6 10.3881 5.88807 10.5 5.75 10.5H0.25C0.111929 10.5 0 10.3881 0 10.25V4.75Z" fill="url(#paint0_linear_1_46)"/>
</g>
<path d="M11.9872 11V4H15.1672C15.9272 4 16.5972 4.14667 17.1772 4.44C17.7572 4.72667 18.2106 5.13 18.5372 5.65C18.8639 6.17 19.0272 6.78667 19.0272 7.5C19.0272 8.20667 18.8639 8.82333 18.5372 9.35C18.2106 9.87 17.7572 10.2767 17.1772 10.57C16.5972 10.8567 15.9272 11 15.1672 11H11.9872ZM13.6072 9.67H15.0872C15.5539 9.67 15.9572 9.58333 16.2972 9.41C16.6439 9.23 16.9106 8.97667 17.0972 8.65C17.2906 8.32333 17.3872 7.94 17.3872 7.5C17.3872 7.05333 17.2906 6.67 17.0972 6.35C16.9106 6.02333 16.6439 5.77333 16.2972 5.6C15.9572 5.42 15.5539 5.33 15.0872 5.33H13.6072V9.67ZM22.8089 11.08C22.1956 11.08 21.6556 10.96 21.1889 10.72C20.7289 10.48 20.3723 10.1533 20.1189 9.74C19.8656 9.32 19.7389 8.84333 19.7389 8.31C19.7389 7.77 19.8623 7.29333 20.1089 6.88C20.3623 6.46 20.7056 6.13333 21.1389 5.9C21.5723 5.66 22.0623 5.54 22.6089 5.54C23.1356 5.54 23.6089 5.65333 24.0289 5.88C24.4556 6.1 24.7923 6.42 25.0389 6.84C25.2856 7.25333 25.4089 7.75 25.4089 8.33C25.4089 8.39 25.4056 8.46 25.3989 8.54C25.3923 8.61333 25.3856 8.68333 25.3789 8.75H21.0089V7.84H24.5589L23.9589 8.11C23.9589 7.83 23.9023 7.58667 23.7889 7.38C23.6756 7.17333 23.5189 7.01333 23.3189 6.9C23.1189 6.78 22.8856 6.72 22.6189 6.72C22.3523 6.72 22.1156 6.78 21.9089 6.9C21.7089 7.01333 21.5523 7.17667 21.4389 7.39C21.3256 7.59667 21.2689 7.84333 21.2689 8.13V8.37C21.2689 8.66333 21.3323 8.92333 21.4589 9.15C21.5923 9.37 21.7756 9.54 22.0089 9.66C22.2489 9.77333 22.5289 9.83 22.8489 9.83C23.1356 9.83 23.3856 9.78667 23.5989 9.7C23.8189 9.61333 24.0189 9.48333 24.1989 9.31L25.0289 10.21C24.7823 10.49 24.4723 10.7067 24.0989 10.86C23.7256 11.0067 23.2956 11.08 22.8089 11.08ZM29.0475 11.08C28.4675 11.08 27.9509 10.9633 27.4975 10.73C27.0442 10.49 26.6875 10.16 26.4275 9.74C26.1742 9.32 26.0475 8.84333 26.0475 8.31C26.0475 7.77 26.1742 7.29333 26.4275 6.88C26.6875 6.46 27.0442 6.13333 27.4975 5.9C27.9509 5.66 28.4675 5.54 29.0475 5.54C29.6142 5.54 30.1075 5.66 30.5275 5.9C30.9475 6.13333 31.2575 6.47 31.4575 6.91L30.2475 7.56C30.1075 7.30667 29.9309 7.12 29.7175 7C29.5109 6.88 29.2842 6.82 29.0375 6.82C28.7709 6.82 28.5309 6.88 28.3175 7C28.1042 7.12 27.9342 7.29 27.8075 7.51C27.6875 7.73 27.6275 7.99667 27.6275 8.31C27.6275 8.62333 27.6875 8.89 27.8075 9.11C27.9342 9.33 28.1042 9.5 28.3175 9.62C28.5309 9.74 28.7709 9.8 29.0375 9.8C29.2842 9.8 29.5109 9.74333 29.7175 9.63C29.9309 9.51 30.1075 9.32 30.2475 9.06L31.4575 9.72C31.2575 10.1533 30.9475 10.49 30.5275 10.73C30.1075 10.9633 29.6142 11.08 29.0475 11.08ZM33.6164 9.9L33.6564 8L36.1664 5.62H38.0264L35.6164 8.07L34.8064 8.73L33.6164 9.9ZM32.3264 11V3.58H33.8864V11H32.3264ZM36.3364 11L34.5164 8.74L35.4964 7.53L38.2264 11H36.3364ZM42.388 11.12C41.848 11.12 41.3447 11.0333 40.878 10.86C40.418 10.68 40.018 10.4267 39.678 10.1C39.338 9.77333 39.0713 9.39 38.878 8.95C38.6913 8.51 38.598 8.02667 38.598 7.5C38.598 6.97333 38.6913 6.49 38.878 6.05C39.0713 5.61 39.338 5.22667 39.678 4.9C40.0247 4.57333 40.428 4.32333 40.888 4.15C41.348 3.97 41.8513 3.88 42.398 3.88C43.0047 3.88 43.5513 3.98667 44.038 4.2C44.5313 4.40667 44.9447 4.71333 45.278 5.12L44.238 6.08C43.998 5.80667 43.7313 5.60333 43.438 5.47C43.1447 5.33 42.8247 5.26 42.478 5.26C42.1513 5.26 41.8513 5.31333 41.578 5.42C41.3047 5.52667 41.068 5.68 40.868 5.88C40.668 6.08 40.5113 6.31667 40.398 6.59C40.2913 6.86333 40.238 7.16667 40.238 7.5C40.238 7.83333 40.2913 8.13667 40.398 8.41C40.5113 8.68333 40.668 8.92 40.868 9.12C41.068 9.32 41.3047 9.47333 41.578 9.58C41.8513 9.68667 42.1513 9.74 42.478 9.74C42.8247 9.74 43.1447 9.67333 43.438 9.54C43.7313 9.4 43.998 9.19 44.238 8.91L45.278 9.87C44.9447 10.2767 44.5313 10.5867 44.038 10.8C43.5513 11.0133 43.0013 11.12 42.388 11.12ZM46.262 11V5.62H47.752V7.14L47.542 6.7C47.702 6.32 47.9587 6.03333 48.312 5.84C48.6653 5.64 49.0953 5.54 49.602 5.54V6.98C49.5353 6.97333 49.4753 6.97 49.422 6.97C49.3687 6.96333 49.312 6.96 49.252 6.96C48.8253 6.96 48.4787 7.08333 48.212 7.33C47.952 7.57 47.822 7.94667 47.822 8.46V11H46.262ZM53.478 11V9.95L53.378 9.72V7.84C53.378 7.50667 53.2747 7.24667 53.068 7.06C52.868 6.87333 52.558 6.78 52.138 6.78C51.8513 6.78 51.568 6.82667 51.288 6.92C51.0147 7.00667 50.7813 7.12667 50.588 7.28L50.028 6.19C50.3213 5.98333 50.6747 5.82333 51.088 5.71C51.5013 5.59667 51.9213 5.54 52.348 5.54C53.168 5.54 53.8047 5.73333 54.258 6.12C54.7113 6.50667 54.938 7.11 54.938 7.93V11H53.478ZM51.838 11.08C51.418 11.08 51.058 11.01 50.758 10.87C50.458 10.7233 50.228 10.5267 50.068 10.28C49.908 10.0333 49.828 9.75667 49.828 9.45C49.828 9.13 49.9047 8.85 50.058 8.61C50.218 8.37 50.468 8.18333 50.808 8.05C51.148 7.91 51.5913 7.84 52.138 7.84H53.568V8.75H52.308C51.9413 8.75 51.688 8.81 51.548 8.93C51.4147 9.05 51.348 9.2 51.348 9.38C51.348 9.58 51.4247 9.74 51.578 9.86C51.738 9.97333 51.9547 10.03 52.228 10.03C52.488 10.03 52.7213 9.97 52.928 9.85C53.1347 9.72333 53.2847 9.54 53.378 9.3L53.618 10.02C53.5047 10.3667 53.298 10.63 52.998 10.81C52.698 10.99 52.3113 11.08 51.838 11.08ZM56.5399 11V5.5C56.5399 4.89333 56.7199 4.41 57.0799 4.05C57.4399 3.68333 57.9532 3.5 58.6199 3.5C58.8465 3.5 59.0632 3.52333 59.2699 3.57C59.4832 3.61667 59.6632 3.69 59.8099 3.79L59.3999 4.92C59.3132 4.86 59.2165 4.81333 59.1099 4.78C59.0032 4.74667 58.8899 4.73 58.7699 4.73C58.5432 4.73 58.3665 4.79667 58.2399 4.93C58.1199 5.05667 58.0599 5.25 58.0599 5.51V6.01L58.0999 6.68V11H56.5399ZM55.7099 6.94V5.74H59.4399V6.94H55.7099ZM62.4171 11.08C61.7837 11.08 61.2904 10.92 60.9371 10.6C60.5837 10.2733 60.4071 9.79 60.4071 9.15V4.43H61.9671V9.13C61.9671 9.35667 62.0271 9.53333 62.1471 9.66C62.2671 9.78 62.4304 9.84 62.6371 9.84C62.8837 9.84 63.0937 9.77333 63.2671 9.64L63.6871 10.74C63.5271 10.8533 63.3337 10.94 63.1071 11C62.8871 11.0533 62.6571 11.08 62.4171 11.08ZM59.5771 6.94V5.74H63.3071V6.94H59.5771Z" fill="white"/>
<defs>
<filter id="filter0_i_1_46" x="0" y="1.4" width="9" height="12.1" filterUnits="userSpaceOnUse" color-interpolation-filters="sRGB">
<feFlood flood-opacity="0" result="BackgroundImageFix"/>
<feBlend mode="normal" in="SourceGraphic" in2="BackgroundImageFix" result="shape"/>
<feColorMatrix in="SourceAlpha" type="matrix" values="0 0 0 0 0 0 0 0 0 0 0 0 0 0 0 0 0 0 127 0" result="hardAlpha"/>
<feOffset dy="-0.1"/>
<feGaussianBlur stdDeviation="0.1"/>
<feComposite in2="hardAlpha" operator="arithmetic" k2="-1" k3="1"/>
<feColorMatrix type="matrix" values="0 0 0 0 0 0 0 0 0 0 0 0 0 0 0 0 0 0 0.2 0"/>
<feBlend mode="normal" in2="shape" result="effect1_innerShadow_1_46"/>
</filter>
<linearGradient id="paint0_linear_1_46" x1="0" y1="4.5" x2="6" y2="10.5" gradientUnits="userSpaceOnUse">
<stop stop-color="#A055FF"/>
<stop offset="1" stop-color="#5599FF"/>
</linearGradient>
</defs>
</svg>
