<svg width="62" height="12" viewBox="0 0 62 12" fill="none" xmlns="http://www.w3.org/2000/svg">
<g filter="url(#filter0_i_1_46)">
<mask id="path-1-outside-1_1_46" maskUnits="userSpaceOnUse" x="3" y="0" width="6" height="12" fill="black">
<rect fill="white" x="3" width="6" height="12"/>
<path d="M3 2H6.75C6.88807 2 7 2.11193 7 2.25V9.75C7 9.88807 6.88807 10 6.75 10H3V2Z"/>
</mask>
<path d="M3 0H6.75C7.99264 0 9 1.00736 9 2.25L5 4H3V0ZM9 9.75C9 10.9926 7.99264 12 6.75 12H3V8H5L9 9.75ZM3 10V2V10ZM6.75 0C7.99264 0 9 1.00736 9 2.25V9.75C9 10.9926 7.99264 12 6.75 12L5 8V4L6.75 0Z" fill="white" mask="url(#path-1-outside-1_1_46)"/>
<path d="M0 3.25C0 3.11193 0.111929 3 0.25 3H5.75C5.88807 3 6 3.11193 6 3.25V8.75C6 8.88807 5.88807 9 5.75 9H0.25C0.111929 9 0 8.88807 0 8.75V3.25Z" fill="url(#paint0_linear_1_46)"/>
</g>
<path d="M17 8.5V3.5H18V8.5H17ZM13 9.5V2.5H17V3.5H14V8.5H17V9.5H13Z" fill="white"/>
<path d="M20 9.5V8.5H24V9.5H20ZM19 8.5V5.5H20V6.5H23V5.5H24V7.5H20V8.5H19ZM20 5.5V4.5H23V5.5H20Z" fill="white"/>
<path d="M26 9.5V8.5H29V9.5H26ZM29 8.5V7.5H30V8.5H29ZM25 8.5V5.5H26V8.5H25ZM29 6.5V5.5H30V6.5H29ZM26 5.5V4.5H29V5.5H26Z" fill="white"/>
<path d="M34 9.5V8.5H35V9.5H34ZM33 8.5V7.5H34V8.5H33ZM33 6.5V5.5H34V6.5H33ZM34 5.5V4.5H35V5.5H34ZM31 9.5V2.5H32V6.5H33V7.5H32V9.5H31Z" fill="white"/>
<path d="M37 9.5V8.5H40V9.5H37ZM40 8.5V7.5H41V8.5H40ZM36 8.5V3.5H37V8.5H36ZM40 4.5V3.5H41V4.5H40ZM37 3.5V2.5H40V3.5H37Z" fill="white"/>
<path d="M46 6.5V5.5H47V6.5H46ZM42 9.5V4.5H43V5.5H44V6.5H43V9.5H42ZM44 5.5V4.5H46V5.5H44Z" fill="white"/>
<path d="M48 8.5V7.5H49V8.5H48ZM49 9.5V8.5H52V7.5H49V6.5H52V5.5H53V9.5H49ZM49 5.5V4.5H52V5.5H49Z" fill="white"/>
<path d="M55 9.5V5.5H54V4.5H55V3.5H56V4.5H58V5.5H56V9.5H55ZM56 3.5V2.5H58V3.5H56Z" fill="white"/>
<path d="M61 9.5V8.5H62V9.5H61ZM60 8.5V4.5H59V3.5H60V2.5H61V3.5H62V4.5H61V8.5H60Z" fill="white"/>
<defs>
<filter id="filter0_i_1_46" x="0" y="-0.1" width="9" height="12.1" filterUnits="userSpaceOnUse" color-interpolation-filters="sRGB">
<feFlood flood-opacity="0" result="BackgroundImageFix"/>
<feBlend mode="normal" in="SourceGraphic" in2="BackgroundImageFix" result="shape"/>
<feColorMatrix in="SourceAlpha" type="matrix" values="0 0 0 0 0 0 0 0 0 0 0 0 0 0 0 0 0 0 127 0" result="hardAlpha"/>
<feOffset dy="-0.1"/>
<feGaussianBlur stdDeviation="0.1"/>
<feComposite in2="hardAlpha" operator="arithmetic" k2="-1" k3="1"/>
<feColorMatrix type="matrix" values="0 0 0 0 0 0 0 0 0 0 0 0 0 0 0 0 0 0 0.2 0"/>
<feBlend mode="normal" in2="shape" result="effect1_innerShadow_1_46"/>
</filter>
<linearGradient id="paint0_linear_1_46" x1="0" y1="3" x2="6" y2="9" gradientUnits="userSpaceOnUse">
<stop stop-color="#A055FF"/>
<stop offset="1" stop-color="#5599FF"/>
</linearGradient>
</defs>
</svg>
