<svg width="64" height="15" viewBox="0 0 64 15" fill="none" xmlns="http://www.w3.org/2000/svg">
<g filter="url(#filter0_i_1_46)">
<mask id="path-1-outside-1_1_46" maskUnits="userSpaceOnUse" x="3" y="1.5" width="6" height="12" fill="black">
<rect fill="white" x="3" y="1.5" width="6" height="12"/>
<path d="M3 3.5H6.75C6.88807 3.5 7 3.61193 7 3.75V11.25C7 11.3881 6.88807 11.5 6.75 11.5H3V3.5Z"/>
</mask>
<path d="M3 1.5H6.75C7.99264 1.5 9 2.50736 9 3.75L5 5.5H3V1.5ZM9 11.25C9 12.4926 7.99264 13.5 6.75 13.5H3V9.5H5L9 11.25ZM3 11.5V3.5V11.5ZM6.75 1.5C7.99264 1.5 9 2.50736 9 3.75V11.25C9 12.4926 7.99264 13.5 6.75 13.5L5 9.5V5.5L6.75 1.5Z" fill="white" mask="url(#path-1-outside-1_1_46)"/>
<path d="M0 4.75C0 4.61193 0.111929 4.5 0.25 4.5H5.75C5.88807 4.5 6 4.61193 6 4.75V10.25C6 10.3881 5.88807 10.5 5.75 10.5H0.25C0.111929 10.5 0 10.3881 0 10.25V4.75Z" fill="url(#paint0_linear_1_46)"/>
</g>
<path d="M11.9872 11V4H15.1672C15.9272 4 16.5972 4.14667 17.1772 4.44C17.7572 4.72667 18.2106 5.13 18.5372 5.65C18.8639 6.17 19.0272 6.78667 19.0272 7.5C19.0272 8.20667 18.8639 8.82333 18.5372 9.35C18.2106 9.87 17.7572 10.2767 17.1772 10.57C16.5972 10.8567 15.9272 11 15.1672 11H11.9872ZM13.6072 9.67H15.0872C15.5539 9.67 15.9572 9.58333 16.2972 9.41C16.6439 9.23 16.9106 8.97667 17.0972 8.65C17.2906 8.32333 17.3872 7.94 17.3872 7.5C17.3872 7.05333 17.2906 6.67 17.0972 6.35C16.9106 6.02333 16.6439 5.77333 16.2972 5.6C15.9572 5.42 15.5539 5.33 15.0872 5.33H13.6072V9.67ZM22.8089 11.08C22.1956 11.08 21.6556 10.96 21.1889 10.72C20.7289 10.48 20.3723 10.1533 20.1189 9.74C19.8656 9.32 19.7389 8.84333 19.7389 8.31C19.7389 7.77 19.8623 7.29333 20.1089 6.88C20.3623 6.46 20.7056 6.13333 21.1389 5.9C21.5723 5.66 22.0623 5.54 22.6089 5.54C23.1356 5.54 23.6089 5.65333 24.0289 5.88C24.4556 6.1 24.7923 6.42 25.0389 6.84C25.2856 7.25333 25.4089 7.75 25.4089 8.33C25.4089 8.39 25.4056 8.46 25.3989 8.54C25.3923 8.61333 25.3856 8.68333 25.3789 8.75H21.0089V7.84H24.5589L23.9589 8.11C23.9589 7.83 23.9023 7.58667 23.7889 7.38C23.6756 7.17333 23.5189 7.01333 23.3189 6.9C23.1189 6.78 22.8856 6.72 22.6189 6.72C22.3523 6.72 22.1156 6.78 21.9089 6.9C21.7089 7.01333 21.5523 7.17667 21.4389 7.39C21.3256 7.59667 21.2689 7.84333 21.2689 8.13V8.37C21.2689 8.66333 21.3323 8.92333 21.4589 9.15C21.5923 9.37 21.7756 9.54 22.0089 9.66C22.2489 9.77333 22.5289 9.83 22.8489 9.83C23.1356 9.83 23.3856 9.78667 23.5989 9.7C23.8189 9.61333 24.0189 9.48333 24.1989 9.31L25.0289 10.21C24.7823 10.49 24.4723 10.7067 24.0989 10.86C23.7256 11.0067 23.2956 11.08 22.8089 11.08ZM29.0475 11.08C28.4675 11.08 27.9509 10.9633 27.4975 10.73C27.0442 10.49 26.6875 10.16 26.4275 9.74C26.1742 9.32 26.0475 8.84333 26.0475 8.31C26.0475 7.77 26.1742 7.29333 26.4275 6.88C26.6875 6.46 27.0442 6.13333 27.4975 5.9C27.9509 5.66 28.4675 5.54 29.0475 5.54C29.6142 5.54 30.1075 5.66 30.5275 5.9C30.9475 6.13333 31.2575 6.47 31.4575 6.91L30.2475 7.56C30.1075 7.30667 29.9309 7.12 29.7175 7C29.5109 6.88 29.2842 6.82 29.0375 6.82C28.7709 6.82 28.5309 6.88 28.3175 7C28.1042 7.12 27.9342 7.29 27.8075 7.51C27.6875 7.73 27.6275 7.99667 27.6275 8.31C27.6275 8.62333 27.6875 8.89 27.8075 9.11C27.9342 9.33 28.1042 9.5 28.3175 9.62C28.5309 9.74 28.7709 9.8 29.0375 9.8C29.2842 9.8 29.5109 9.74333 29.7175 9.63C29.9309 9.51 30.1075 9.32 30.2475 9.06L31.4575 9.72C31.2575 10.1533 30.9475 10.49 30.5275 10.73C30.1075 10.9633 29.6142 11.08 29.0475 11.08ZM33.6164 9.9L33.6564 8L36.1664 5.62H38.0264L35.6164 8.07L34.8064 8.73L33.6164 9.9ZM32.3264 11V3.58H33.8864V11H32.3264ZM36.3364 11L34.5164 8.74L35.4964 7.53L38.2264 11H36.3364ZM42.388 11.12C41.848 11.12 41.3447 11.0333 40.878 10.86C40.418 10.68 40.018 10.4267 39.678 10.1C39.338 9.77333 39.0713 9.39 38.878 8.95C38.6913 8.51 38.598 8.02667 38.598 7.5C38.598 6.97333 38.6913 6.49 38.878 6.05C39.0713 5.61 39.338 5.22667 39.678 4.9C40.0247 4.57333 40.428 4.32333 40.888 4.15C41.348 3.97 41.8513 3.88 42.398 3.88C43.0047 3.88 43.5513 3.98667 44.038 4.2C44.5313 4.40667 44.9447 4.71333 45.278 5.12L44.238 6.08C43.998 5.80667 43.7313 5.60333 43.438 5.47C43.1447 5.33 42.8247 5.26 42.478 5.26C42.1513 5.26 41.8513 5.31333 41.578 5.42C41.3047 5.52667 41.068 5.68 40.868 5.88C40.668 6.08 40.5113 6.31667 40.398 6.59C40.2913 6.86333 40.238 7.16667 40.238 7.5C40.238 7.83333 40.2913 8.13667 40.398 8.41C40.5113 8.68333 40.668 8.92 40.868 9.12C41.068 9.32 41.3047 9.47333 41.578 9.58C41.8513 9.68667 42.1513 9.74 42.478 9.74C42.8247 9.74 43.1447 9.67333 43.438 9.54C43.7313 9.4 43.998 9.19 44.238 8.91L45.278 9.87C44.9447 10.2767 44.5313 10.5867 44.038 10.8C43.5513 11.0133 43.0013 11.12 42.388 11.12ZM46.262 11V5.62H47.752V7.14L47.542 6.7C47.702 6.32 47.9587 6.03333 48.312 5.84C48.6653 5.64 49.0953 5.54 49.602 5.54V6.98C49.5353 6.97333 49.4753 6.97 49.422 6.97C49.3687 6.96333 49.312 6.96 49.252 6.96C48.8253 6.96 48.4787 7.08333 48.212 7.33C47.952 7.57 47.822 7.94667 47.822 8.46V11H46.262ZM53.478 11V9.95L53.378 9.72V7.84C53.378 7.50667 53.2747 7.24667 53.068 7.06C52.868 6.87333 52.558 6.78 52.138 6.78C51.8513 6.78 51.568 6.82667 51.288 6.92C51.0147 7.00667 50.7813 7.12667 50.588 7.28L50.028 6.19C50.3213 5.98333 50.6747 5.82333 51.088 5.71C51.5013 5.59667 51.9213 5.54 52.348 5.54C53.168 5.54 53.8047 5.73333 54.258 6.12C54.7113 6.50667 54.938 7.11 54.938 7.93V11H53.478ZM51.838 11.08C51.418 11.08 51.058 11.01 50.758 10.87C50.458 10.7233 50.228 10.5267 50.068 10.28C49.908 10.0333 49.828 9.75667 49.828 9.45C49.828 9.13 49.9047 8.85 50.058 8.61C50.218 8.37 50.468 8.18333 50.808 8.05C51.148 7.91 51.5913 7.84 52.138 7.84H53.568V8.75H52.308C51.9413 8.75 51.688 8.81 51.548 8.93C51.4147 9.05 51.348 9.2 51.348 9.38C51.348 9.58 51.4247 9.74 51.578 9.86C51.738 9.97333 51.9547 10.03 52.228 10.03C52.488 10.03 52.7213 9.97 52.928 9.85C53.1347 9.72333 53.2847 9.54 53.378 9.3L53.618 10.02C53.5047 10.3667 53.298 10.63 52.998 10.81C52.698 10.99 52.3113 11.08 51.838 11.08ZM56.5399 11V5.5C56.5399 4.89333 56.7199 4.41 57.0799 4.05C57.4399 3.68333 57.9532 3.5 58.6199 3.5C58.8465 3.5 59.0632 3.52333 59.2699 3.57C59.4832 3.61667 59.6632 3.69 59.8099 3.79L59.3999 4.92C59.3132 4.86 59.2165 4.81333 59.1099 4.78C59.0032 4.74667 58.8899 4.73 58.7699 4.73C58.5432 4.73 58.3665 4.79667 58.2399 4.93C58.1199 5.05667 58.0599 5.25 58.0599 5.51V6.01L58.0999 6.68V11H56.5399ZM55.7099 6.94V5.74H59.4399V6.94H55.7099ZM62.4171 11.08C61.7837 11.08 61.2904 10.92 60.9371 10.6C60.5837 10.2733 60.4071 9.79 60.4071 9.15V4.43H61.9671V9.13C61.9671 9.35667 62.0271 9.53333 62.1471 9.66C62.2671 9.78 62.4304 9.84 62.6371 9.84C62.8837 9.84 63.0937 9.77333 63.2671 9.64L63.6871 10.74C63.5271 10.8533 63.3337 10.94 63.1071 11C62.8871 11.0533 62.6571 11.08 62.4171 11.08ZM59.5771 6.94V5.74H63.3071V6.94H59.5771Z" fill="white"/>
<path d="M11.9872 11H11.4872C11.4872 11.2761 11.7111 11.5 11.9872 11.5V11ZM11.9872 4V3.5C11.7111 3.5 11.4872 3.72386 11.4872 4H11.9872ZM17.1772 4.44L16.9516 4.8862L16.9557 4.88824L17.1772 4.44ZM18.5372 5.65L18.1138 5.91597L18.5372 5.65ZM18.5372 9.35L18.9606 9.61598L18.9621 9.61355L18.5372 9.35ZM17.1772 10.57L17.3988 11.0183L17.4029 11.0162L17.1772 10.57ZM13.6072 9.67H13.1072C13.1072 9.94614 13.3311 10.17 13.6072 10.17V9.67ZM16.2972 9.41L16.5243 9.85547L16.5276 9.85375L16.2972 9.41ZM17.0972 8.65L16.6669 8.39531L16.6631 8.40193L17.0972 8.65ZM17.0972 6.35L16.663 6.59814L16.6693 6.60856L17.0972 6.35ZM16.2972 5.6L16.0632 6.04201L16.0736 6.04721L16.2972 5.6ZM13.6072 5.33V4.83C13.3311 4.83 13.1072 5.05386 13.1072 5.33H13.6072ZM12.4872 11V4H11.4872V11H12.4872ZM11.9872 4.5H15.1672V3.5H11.9872V4.5ZM15.1672 4.5C15.8621 4.5 16.4525 4.63376 16.9516 4.88618L17.4029 3.99382C16.742 3.65957 15.9924 3.5 15.1672 3.5V4.5ZM16.9557 4.88824C17.4575 5.13626 17.839 5.47848 18.1138 5.91597L18.9606 5.38403C18.5821 4.78152 18.057 4.31707 17.3988 3.99176L16.9557 4.88824ZM18.1138 5.91597C18.3828 6.34412 18.5272 6.86527 18.5272 7.5H19.5272C19.5272 6.70806 19.345 5.99588 18.9606 5.38403L18.1138 5.91597ZM18.5272 7.5C18.5272 8.1269 18.3833 8.64956 18.1123 9.08645L18.9621 9.61355C19.3445 8.9971 19.5272 8.28643 19.5272 7.5H18.5272ZM18.1138 9.08403C17.8383 9.52256 17.4554 9.86898 16.9516 10.1238L17.4029 11.0162C18.059 10.6844 18.5828 10.2174 18.9606 9.61597L18.1138 9.08403ZM16.9557 10.1218C16.4556 10.3689 15.8637 10.5 15.1672 10.5V11.5C15.9907 11.5 16.7388 11.3444 17.3988 11.0182L16.9557 10.1218ZM15.1672 10.5H11.9872V11.5H15.1672V10.5ZM13.6072 10.17H15.0872V9.17H13.6072V10.17ZM15.0872 10.17C15.6155 10.17 16.1 10.0718 16.5243 9.85545L16.0701 8.96455C15.8144 9.09491 15.4923 9.17 15.0872 9.17V10.17ZM16.5276 9.85375C16.9562 9.63124 17.2951 9.31149 17.5313 8.89807L16.6631 8.40193C16.526 8.64185 16.3316 8.82876 16.0668 8.96625L16.5276 9.85375ZM17.5275 8.90466C17.7733 8.48933 17.8872 8.01514 17.8872 7.5H16.8872C16.8872 7.86486 16.8078 8.15734 16.6669 8.39534L17.5275 8.90466ZM17.8872 7.5C17.8872 6.98005 17.7741 6.50344 17.5252 6.09144L16.6693 6.60856C16.807 6.83656 16.8872 7.12661 16.8872 7.5H17.8872ZM17.5313 6.10193C17.2942 5.68686 16.953 5.36885 16.5208 5.15279L16.0736 6.04721C16.3348 6.17781 16.527 6.35981 16.6631 6.59807L17.5313 6.10193ZM16.5312 5.15811C16.1053 4.93264 15.6182 4.83 15.0872 4.83V5.83C15.4896 5.83 15.8092 5.90736 16.0633 6.04189L16.5312 5.15811ZM15.0872 4.83H13.6072V5.83H15.0872V4.83ZM13.1072 5.33V9.67H14.1072V5.33H13.1072ZM21.1889 10.72L20.9577 11.1633L20.9603 11.1646L21.1889 10.72ZM20.1189 9.74L19.6908 9.99825L19.6926 10.0013L20.1189 9.74ZM20.1089 6.88L19.6808 6.62175L19.6796 6.62377L20.1089 6.88ZM21.1389 5.9L21.376 6.34027L21.3812 6.3374L21.1389 5.9ZM24.0289 5.88L23.7914 6.32009L23.7998 6.3244L24.0289 5.88ZM25.0389 6.84L24.6078 7.09322L24.6096 7.09623L25.0389 6.84ZM25.3989 8.54L25.8969 8.58527L25.8972 8.58152L25.3989 8.54ZM25.3789 8.75V9.25C25.6358 9.25 25.8509 9.05535 25.8765 8.79975L25.3789 8.75ZM21.0089 8.75H20.5089C20.5089 9.02614 20.7328 9.25 21.0089 9.25V8.75ZM21.0089 7.84V7.34C20.7328 7.34 20.5089 7.56386 20.5089 7.84H21.0089ZM24.5589 7.84L24.7641 8.29596C24.9791 8.19923 25.0973 7.96553 25.0478 7.73507C24.9983 7.50461 24.7947 7.34 24.5589 7.34V7.84ZM23.9589 8.11H23.4589C23.4589 8.27966 23.545 8.43775 23.6875 8.52988C23.8299 8.622 24.0094 8.63558 24.1641 8.56596L23.9589 8.11ZM23.7889 7.38L23.3505 7.62042L23.3505 7.62042L23.7889 7.38ZM23.3189 6.9L23.0616 7.32888L23.0724 7.33501L23.3189 6.9ZM21.9089 6.9L22.1555 7.33503L22.16 7.33239L21.9089 6.9ZM21.4389 7.39L21.8774 7.63044L21.8805 7.62458L21.4389 7.39ZM21.4589 9.15L21.0225 9.39391C21.0253 9.39904 21.0283 9.40412 21.0313 9.40915L21.4589 9.15ZM22.0089 9.66L21.7803 10.1046C21.7853 10.1072 21.7903 10.1097 21.7954 10.1121L22.0089 9.66ZM23.5989 9.7L23.4157 9.23477L23.4108 9.23677L23.5989 9.7ZM24.1989 9.31L24.5665 8.97103C24.4753 8.87217 24.3482 8.81421 24.2138 8.81022C24.0794 8.80623 23.949 8.85656 23.8521 8.94984L24.1989 9.31ZM25.0289 10.21L25.4041 10.5405C25.5734 10.3483 25.5701 10.0593 25.3965 9.87103L25.0289 10.21ZM24.0989 10.86L24.2818 11.3254L24.2889 11.3225L24.0989 10.86ZM22.8089 10.58C22.2617 10.58 21.8025 10.4733 21.4176 10.2754L20.9603 11.1646C21.5087 11.4467 22.1295 11.58 22.8089 11.58V10.58ZM21.4202 10.2767C21.0347 10.0755 20.7479 9.8094 20.5452 9.47872L19.6926 10.0013C19.9966 10.4973 20.4232 10.8845 20.9577 11.1633L21.4202 10.2767ZM20.5471 9.48175C20.3448 9.14645 20.2389 8.76054 20.2389 8.31H19.2389C19.2389 8.92613 19.3864 9.49355 19.6908 9.99825L20.5471 9.48175ZM20.2389 8.31C20.2389 7.84896 20.3433 7.46296 20.5383 7.13623L19.6796 6.62377C19.3812 7.12371 19.2389 7.69104 19.2389 8.31H20.2389ZM20.5371 7.13825C20.744 6.7952 21.0212 6.53127 21.376 6.34023L20.9019 5.45976C20.39 5.7354 19.9806 6.1248 19.6808 6.62175L20.5371 7.13825ZM21.3812 6.3374C21.7329 6.1426 22.1381 6.04 22.6089 6.04V5.04C21.9865 5.04 21.4116 5.1774 20.8967 5.4626L21.3812 6.3374ZM22.6089 6.04C23.0615 6.04 23.4518 6.13668 23.7915 6.32001L24.2664 5.43999C23.7661 5.16999 23.2098 5.04 22.6089 5.04V6.04ZM23.7998 6.3244C24.1411 6.50039 24.4083 6.7535 24.6078 7.09321L25.4701 6.58679C25.1763 6.0865 24.7701 5.69961 24.2581 5.4356L23.7998 6.3244ZM24.6096 7.09623C24.8014 7.41758 24.9089 7.82168 24.9089 8.33H25.9089C25.9089 7.67832 25.7699 7.08908 25.4683 6.58377L24.6096 7.09623ZM24.9089 8.33C24.9089 8.37242 24.9065 8.428 24.9007 8.49848L25.8972 8.58152C25.9047 8.492 25.9089 8.40758 25.9089 8.33H24.9089ZM24.901 8.49473C24.8945 8.56671 24.8879 8.63521 24.8814 8.70025L25.8765 8.79975C25.8833 8.73145 25.8901 8.65995 25.8969 8.58527L24.901 8.49473ZM25.3789 8.25H21.0089V9.25H25.3789V8.25ZM21.5089 8.75V7.84H20.5089V8.75H21.5089ZM21.0089 8.34H24.5589V7.34H21.0089V8.34ZM24.3538 7.38404L23.7538 7.65404L24.1641 8.56596L24.7641 8.29596L24.3538 7.38404ZM24.4589 8.11C24.4589 7.76175 24.3881 7.43264 24.2274 7.13958L23.3505 7.62042C23.4165 7.74069 23.4589 7.89825 23.4589 8.11H24.4589ZM24.2274 7.13958C24.0706 6.85366 23.8484 6.62531 23.5655 6.46499L23.0724 7.33501C23.1895 7.40135 23.2807 7.493 23.3505 7.62042L24.2274 7.13958ZM23.5762 6.47125C23.2879 6.29826 22.963 6.22 22.6189 6.22V7.22C22.8082 7.22 22.95 7.26174 23.0617 7.32875L23.5762 6.47125ZM22.6189 6.22C22.2745 6.22 21.9494 6.29835 21.6579 6.46761L22.16 7.33239C22.2819 7.26165 22.43 7.22 22.6189 7.22V6.22ZM21.6624 6.46499C21.3754 6.62766 21.153 6.86257 20.9974 7.15542L21.8805 7.62458C21.9516 7.49077 22.0425 7.39901 22.1555 7.33501L21.6624 6.46499ZM21.0005 7.14958C20.8389 7.44428 20.7689 7.77733 20.7689 8.13H21.7689C21.7689 7.90934 21.8123 7.74905 21.8774 7.63042L21.0005 7.14958ZM20.7689 8.13V8.37H21.7689V8.13H20.7689ZM20.7689 8.37C20.7689 8.73747 20.849 9.08345 21.0225 9.39391L21.8954 8.90609C21.8156 8.76321 21.7689 8.5892 21.7689 8.37H20.7689ZM21.0313 9.40915C21.2136 9.70982 21.4665 9.94327 21.7803 10.1046L22.2376 9.21536C22.0847 9.13673 21.971 9.03018 21.8865 8.89085L21.0313 9.40915ZM21.7954 10.1121C22.1145 10.2628 22.4701 10.33 22.8489 10.33V9.33C22.5878 9.33 22.3834 9.28387 22.2224 9.20788L21.7954 10.1121ZM22.8489 10.33C23.1849 10.33 23.5014 10.2793 23.7871 10.1632L23.4108 9.23677C23.2699 9.294 23.0864 9.33 22.8489 9.33V10.33ZM23.7822 10.1652C24.0665 10.0532 24.3214 9.88625 24.5458 9.67016L23.8521 8.94984C23.7165 9.08041 23.5714 9.17345 23.4157 9.2348L23.7822 10.1652ZM23.8314 9.64897L24.6614 10.549L25.3965 9.87103L24.5665 8.97103L23.8314 9.64897ZM24.6538 9.87948C24.4619 10.0972 24.2172 10.2709 23.909 10.3975L24.2889 11.3225C24.7274 11.1424 25.1026 10.8828 25.4041 10.5405L24.6538 9.87948ZM23.9161 10.3946C23.612 10.5141 23.246 10.58 22.8089 10.58V11.58C23.3452 11.58 23.8392 11.4992 24.2818 11.3254L23.9161 10.3946ZM27.4975 10.73L27.2636 11.1719L27.2687 11.1746L27.4975 10.73ZM26.4275 9.74L25.9994 9.99826L26.0024 10.0032L26.4275 9.74ZM26.4275 6.88L26.0024 6.61682L26.0012 6.61872L26.4275 6.88ZM27.4975 5.9L27.7264 6.3446L27.7315 6.34189L27.4975 5.9ZM30.5275 5.9L30.2795 6.33415L30.2847 6.33708L30.5275 5.9ZM31.4575 6.91L31.6942 7.35047C31.9261 7.22588 32.0217 6.94278 31.9127 6.7031L31.4575 6.91ZM30.2475 7.56L29.8099 7.80184C29.9424 8.0415 30.2429 8.13005 30.4842 8.00047L30.2475 7.56ZM29.7175 7L29.4664 7.43243L29.4724 7.43579L29.7175 7ZM28.3175 7L28.5627 7.43579L28.5627 7.43579L28.3175 7ZM27.8075 7.51L27.3741 7.26045L27.3686 7.27057L27.8075 7.51ZM27.8075 9.11L27.3685 9.34949L27.3742 9.35948L27.8075 9.11ZM28.3175 9.62L28.5627 9.18421L28.5627 9.18421L28.3175 9.62ZM29.7175 9.63L29.958 10.0684L29.9627 10.0658L29.7175 9.63ZM30.2475 9.06L30.487 8.62105C30.3701 8.55733 30.2327 8.54281 30.1052 8.5807C29.9776 8.61859 29.8704 8.70578 29.8073 8.82295L30.2475 9.06ZM31.4575 9.72L31.9115 9.92953C32.0218 9.69059 31.928 9.40707 31.697 9.28105L31.4575 9.72ZM30.5275 10.73L30.7704 11.1671L30.7756 11.1641L30.5275 10.73ZM29.0475 10.58C28.5361 10.58 28.0997 10.4776 27.7264 10.2854L27.2687 11.1746C27.802 11.4491 28.399 11.58 29.0475 11.58V10.58ZM27.7315 10.2881C27.3535 10.088 27.0641 9.81836 26.8527 9.47682L26.0024 10.0032C26.311 10.5016 26.7349 10.892 27.2636 11.1719L27.7315 10.2881ZM26.8557 9.48175C26.6534 9.14645 26.5475 8.76054 26.5475 8.31H25.5475C25.5475 8.92613 25.695 9.49355 25.9994 9.99825L26.8557 9.48175ZM26.5475 8.31C26.5475 7.85142 26.6541 7.46725 26.8538 7.14128L26.0012 6.61872C25.6944 7.11941 25.5475 7.68858 25.5475 8.31H26.5475ZM26.8527 7.14318C27.0633 6.8029 27.351 6.53777 27.7264 6.34457L27.2687 5.45543C26.7374 5.72889 26.3118 6.1171 26.0024 6.61682L26.8527 7.14318ZM27.7315 6.34189C28.1038 6.1448 28.5383 6.04 29.0475 6.04V5.04C28.3968 5.04 27.798 5.1752 27.2636 5.45811L27.7315 6.34189ZM29.0475 6.04C29.5422 6.04 29.9471 6.14418 30.2795 6.33412L30.7756 5.46588C30.268 5.17582 29.6862 5.04 29.0475 5.04V6.04ZM30.2847 6.33708C30.6105 6.51807 30.8464 6.77376 31.0024 7.1169L31.9127 6.7031C31.6687 6.16624 31.2846 5.74859 30.7704 5.46292L30.2847 6.33708ZM31.2209 6.46953L30.0109 7.11953L30.4842 8.00047L31.6942 7.35047L31.2209 6.46953ZM30.6852 7.31816C30.5085 6.99856 30.2707 6.73747 29.9627 6.56421L29.4724 7.43579C29.5911 7.50253 29.7065 7.61477 29.8099 7.80184L30.6852 7.31816ZM29.9686 6.56761C29.6832 6.40186 29.3694 6.32 29.0375 6.32V7.32C29.199 7.32 29.3386 7.35814 29.4665 7.43239L29.9686 6.56761ZM29.0375 6.32C28.6929 6.32 28.3672 6.39841 28.0724 6.56421L28.5627 7.43579C28.6946 7.36159 28.8488 7.32 29.0375 7.32V6.32ZM28.0724 6.56421C27.7778 6.72995 27.544 6.96566 27.3742 7.26052L28.2409 7.75948C28.3244 7.61434 28.4307 7.51005 28.5627 7.43579L28.0724 6.56421ZM27.3686 7.27057C27.1997 7.58019 27.1275 7.9336 27.1275 8.31H28.1275C28.1275 8.05973 28.1754 7.87981 28.2465 7.74943L27.3686 7.27057ZM27.1275 8.31C27.1275 8.6864 27.1997 9.03981 27.3686 9.34943L28.2465 8.87057C28.1754 8.74019 28.1275 8.56027 28.1275 8.31H27.1275ZM27.3742 9.35948C27.544 9.65434 27.7778 9.89005 28.0724 10.0558L28.5627 9.18421C28.4307 9.10995 28.3244 9.00566 28.2409 8.86052L27.3742 9.35948ZM28.0724 10.0558C28.3672 10.2216 28.6929 10.3 29.0375 10.3V9.3C28.8488 9.3 28.6946 9.25841 28.5627 9.18421L28.0724 10.0558ZM29.0375 10.3C29.3642 10.3 29.6741 10.2241 29.958 10.0684L29.4771 9.19159C29.3476 9.26261 29.2042 9.3 29.0375 9.3V10.3ZM29.9627 10.0658C30.2742 9.89056 30.5122 9.62309 30.6878 9.29705L29.8073 8.82295C29.7029 9.01691 29.5876 9.12944 29.4724 9.19421L29.9627 10.0658ZM30.0081 9.49895L31.2181 10.1589L31.697 9.28105L30.487 8.62105L30.0081 9.49895ZM31.0036 9.51047C30.8478 9.84798 30.6105 10.1067 30.2795 10.2959L30.7756 11.1641C31.2846 10.8733 31.6673 10.4587 31.9115 9.92953L31.0036 9.51047ZM30.2847 10.2929C29.9513 10.4781 29.5445 10.58 29.0475 10.58V11.58C29.6839 11.58 30.2638 11.4485 30.7704 11.1671L30.2847 10.2929ZM33.6164 9.9L33.1166 9.88948C33.1123 10.0928 33.2316 10.2785 33.4183 10.3591C33.605 10.4397 33.822 10.3991 33.967 10.2565L33.6164 9.9ZM33.6564 8L33.3124 7.63718C33.2155 7.72908 33.1594 7.85594 33.1566 7.98948L33.6564 8ZM36.1664 5.62V5.12C36.0384 5.12 35.9153 5.1691 35.8224 5.25718L36.1664 5.62ZM38.0264 5.62L38.3829 5.97063C38.5242 5.82699 38.5655 5.61259 38.4876 5.42676C38.4097 5.24093 38.2279 5.12 38.0264 5.12V5.62ZM35.6164 8.07L35.9323 8.45762C35.9465 8.44604 35.96 8.4337 35.9729 8.42063L35.6164 8.07ZM34.8064 8.73L34.4906 8.34238C34.4786 8.3522 34.467 8.36257 34.4559 8.37346L34.8064 8.73ZM32.3264 11H31.8264C31.8264 11.2761 32.0503 11.5 32.3264 11.5V11ZM32.3264 3.58V3.08C32.0503 3.08 31.8264 3.30386 31.8264 3.58H32.3264ZM33.8864 3.58H34.3864C34.3864 3.30386 34.1626 3.08 33.8864 3.08V3.58ZM33.8864 11V11.5C34.1626 11.5 34.3864 11.2761 34.3864 11H33.8864ZM36.3364 11L35.947 11.3136C36.0419 11.4315 36.1851 11.5 36.3364 11.5V11ZM34.5164 8.74L34.1279 8.42531C33.9796 8.60838 33.9793 8.87012 34.127 9.05361L34.5164 8.74ZM35.4964 7.53L35.8894 7.22084C35.7954 7.10132 35.6521 7.03109 35.5 7.03001C35.3479 7.02894 35.2036 7.09713 35.1079 7.21531L35.4964 7.53ZM38.2264 11V11.5C38.4179 11.5 38.5926 11.3907 38.6762 11.2184C38.7599 11.0462 38.7378 10.8413 38.6194 10.6908L38.2264 11ZM34.1163 9.91052L34.1563 8.01052L33.1566 7.98948L33.1166 9.88948L34.1163 9.91052ZM34.0005 8.36282L36.5105 5.98282L35.8224 5.25718L33.3124 7.63718L34.0005 8.36282ZM36.1664 6.12H38.0264V5.12H36.1664V6.12ZM37.67 5.26937L35.26 7.71937L35.9729 8.42063L38.3829 5.97063L37.67 5.26937ZM35.3006 7.68238L34.4906 8.34238L35.1223 9.11762L35.9323 8.45762L35.3006 7.68238ZM34.4559 8.37346L33.2659 9.54346L33.967 10.2565L35.157 9.08654L34.4559 8.37346ZM32.8264 11V3.58H31.8264V11H32.8264ZM32.3264 4.08H33.8864V3.08H32.3264V4.08ZM33.3864 3.58V11H34.3864V3.58H33.3864ZM33.8864 10.5H32.3264V11.5H33.8864V10.5ZM36.7259 10.6864L34.9059 8.42639L34.127 9.05361L35.947 11.3136L36.7259 10.6864ZM34.905 9.05469L35.885 7.84469L35.1079 7.21531L34.1279 8.42531L34.905 9.05469ZM35.1035 7.83916L37.8335 11.3092L38.6194 10.6908L35.8894 7.22084L35.1035 7.83916ZM38.2264 10.5H36.3364V11.5H38.2264V10.5ZM40.878 10.86L40.6958 11.3257L40.7039 11.3287L40.878 10.86ZM39.678 10.1L39.3316 10.4606L39.3316 10.4606L39.678 10.1ZM38.878 8.95L38.4177 9.14529L38.4202 9.15114L38.878 8.95ZM38.878 6.05L38.4202 5.84885L38.4177 5.85472L38.878 6.05ZM39.678 4.9L39.3351 4.53609L39.3316 4.53945L39.678 4.9ZM40.888 4.15L41.0643 4.61792L41.0702 4.61562L40.888 4.15ZM44.038 4.2L43.8372 4.658L43.8448 4.66117L44.038 4.2ZM45.278 5.12L45.6171 5.4874C45.8117 5.30784 45.8325 5.00778 45.6647 4.80304L45.278 5.12ZM44.238 6.08L43.8623 6.4099C43.9512 6.51117 44.0772 6.57225 44.2118 6.57931C44.3464 6.58637 44.4781 6.53881 44.5771 6.4474L44.238 6.08ZM43.438 5.47L43.2226 5.92132L43.2311 5.92518L43.438 5.47ZM40.868 5.88L41.2216 6.23355L41.2216 6.23355L40.868 5.88ZM40.398 6.59L39.936 6.39845L39.9322 6.40823L40.398 6.59ZM40.398 8.41L39.9321 8.59181L39.9361 8.60151L40.398 8.41ZM40.868 9.12L40.5145 9.47355L40.5145 9.47355L40.868 9.12ZM43.438 9.54L43.6449 9.99526L43.6534 9.99124L43.438 9.54ZM44.238 8.91L44.5771 8.5426C44.4774 8.45049 44.3444 8.40293 44.2088 8.41085C44.0733 8.41877 43.9468 8.4815 43.8584 8.5846L44.238 8.91ZM45.278 9.87L45.6647 10.187C45.8325 9.98222 45.8117 9.68216 45.6171 9.5026L45.278 9.87ZM44.038 10.8L43.8395 10.3411L43.8373 10.3421L44.038 10.8ZM42.388 10.62C41.9024 10.62 41.4585 10.5422 41.0521 10.3913L40.7039 11.3287C41.2308 11.5244 41.7936 11.62 42.388 11.62V10.62ZM41.0602 10.3944C40.6583 10.2371 40.3149 10.0185 40.0244 9.73945L39.3316 10.4606C39.7211 10.8348 40.1777 11.1229 40.6958 11.3256L41.0602 10.3944ZM40.0244 9.73945C39.7325 9.45901 39.5033 9.13013 39.3358 8.74886L38.4202 9.15114C38.6394 9.64986 38.9435 10.0877 39.3316 10.4606L40.0244 9.73945ZM39.3383 8.75472C39.1804 8.38252 39.098 7.96644 39.098 7.5H38.098C38.098 8.08689 38.2023 8.63748 38.4177 9.14527L39.3383 8.75472ZM39.098 7.5C39.098 7.03356 39.1804 6.61748 39.3383 6.24527L38.4177 5.85472C38.2023 6.36252 38.098 6.91311 38.098 7.5H39.098ZM39.3358 6.25114C39.5033 5.86986 39.7325 5.54099 40.0244 5.26055L39.3316 4.53945C38.9435 4.91234 38.6394 5.35013 38.4202 5.84886L39.3358 6.25114ZM40.0209 5.26389C40.3179 4.98402 40.6642 4.76867 41.0643 4.61788L40.7117 3.68211C40.1919 3.878 39.7314 4.16264 39.3351 4.53611L40.0209 5.26389ZM41.0702 4.61562C41.4663 4.46064 41.907 4.38 42.398 4.38V3.38C41.7956 3.38 41.2298 3.47936 40.7058 3.68438L41.0702 4.61562ZM42.398 4.38C42.9453 4.38 43.4223 4.47601 43.8373 4.65793L44.2387 3.74207C43.6804 3.49732 43.064 3.38 42.398 3.38V4.38ZM43.8448 4.66117C44.2642 4.83685 44.6107 5.09457 44.8913 5.43696L45.6647 4.80304C45.2787 4.3321 44.7985 3.97648 44.2312 3.73883L43.8448 4.66117ZM44.9389 4.7526L43.8989 5.7126L44.5771 6.4474L45.6171 5.4874L44.9389 4.7526ZM44.6137 5.7501C44.333 5.43039 44.0106 5.18104 43.6449 5.01482L43.2311 5.92518C43.4521 6.02563 43.663 6.18295 43.8623 6.4099L44.6137 5.7501ZM43.6534 5.01876C43.2884 4.84455 42.8941 4.76 42.478 4.76V5.76C42.7552 5.76 43.001 5.81545 43.2226 5.92124L43.6534 5.01876ZM42.478 4.76C42.0962 4.76 41.7337 4.82251 41.3962 4.95421L41.7598 5.88579C41.969 5.80415 42.2065 5.76 42.478 5.76V4.76ZM41.3962 4.95421C41.061 5.08505 40.7652 5.27573 40.5145 5.52645L41.2216 6.23355C41.3708 6.08427 41.5484 5.96828 41.7598 5.88579L41.3962 4.95421ZM40.5145 5.52645C40.2659 5.77496 40.0734 6.06741 39.9361 6.39849L40.8599 6.78151C40.9493 6.56593 41.0701 6.38504 41.2216 6.23355L40.5145 5.52645ZM39.9322 6.40823C39.8001 6.74683 39.738 7.11287 39.738 7.5H40.738C40.738 7.22047 40.7826 6.97983 40.8638 6.77177L39.9322 6.40823ZM39.738 7.5C39.738 7.88713 39.8001 8.25317 39.9322 8.59177L40.8638 8.22823C40.7826 8.02017 40.738 7.77953 40.738 7.5H39.738ZM39.9361 8.60151C40.0734 8.93259 40.2659 9.22504 40.5145 9.47355L41.2216 8.76645C41.0701 8.61496 40.9493 8.43407 40.8599 8.21849L39.9361 8.60151ZM40.5145 9.47355C40.7652 9.72427 41.061 9.91495 41.3962 10.0458L41.7598 9.11421C41.5484 9.03172 41.3708 8.91573 41.2216 8.76645L40.5145 9.47355ZM41.3962 10.0458C41.7337 10.1775 42.0962 10.24 42.478 10.24V9.24C42.2065 9.24 41.969 9.19585 41.7598 9.11421L41.3962 10.0458ZM42.478 10.24C42.8906 10.24 43.2818 10.1602 43.6449 9.99518L43.2311 9.08482C43.0076 9.18642 42.7588 9.24 42.478 9.24V10.24ZM43.6534 9.99124C44.0176 9.81741 44.3384 9.56122 44.6176 9.2354L43.8584 8.5846C43.6577 8.81878 43.4451 8.98259 43.2226 9.08876L43.6534 9.99124ZM43.8989 9.2774L44.9389 10.2374L45.6171 9.5026L44.5771 8.5426L43.8989 9.2774ZM44.8913 9.55304C44.6097 9.89665 44.2614 10.1586 43.8396 10.3411L44.2365 11.2589C44.8013 11.0147 45.2797 10.6567 45.6647 10.187L44.8913 9.55304ZM43.8373 10.3421C43.4229 10.5237 42.9428 10.62 42.388 10.62V11.62C43.0599 11.62 43.6798 11.503 44.2387 11.2579L43.8373 10.3421ZM46.262 11H45.762C45.762 11.2761 45.9858 11.5 46.262 11.5V11ZM46.262 5.62V5.12C45.9858 5.12 45.762 5.34386 45.762 5.62H46.262ZM47.752 5.62H48.252C48.252 5.34386 48.0281 5.12 47.752 5.12V5.62ZM47.752 7.14L47.3008 7.35536C47.4014 7.56619 47.6346 7.67924 47.8624 7.62766C48.0902 7.57607 48.252 7.3736 48.252 7.14H47.752ZM47.542 6.7L47.0812 6.50597C47.0258 6.63755 47.0293 6.78653 47.0908 6.91536L47.542 6.7ZM48.312 5.84L48.552 6.27868L48.5583 6.27513L48.312 5.84ZM49.602 5.54H50.102C50.102 5.26386 49.8781 5.04 49.602 5.04V5.54ZM49.602 6.98L49.5522 7.47752C49.6928 7.49158 49.8328 7.44552 49.9375 7.35073C50.0422 7.25594 50.102 7.12126 50.102 6.98H49.602ZM49.422 6.97L49.36 7.46614C49.3805 7.46871 49.4013 7.47 49.422 7.47V6.97ZM48.212 7.33L48.5511 7.6974L48.5515 7.69705L48.212 7.33ZM47.822 11V11.5C48.0981 11.5 48.322 11.2761 48.322 11H47.822ZM46.762 11V5.62H45.762V11H46.762ZM46.262 6.12H47.752V5.12H46.262V6.12ZM47.252 5.62V7.14H48.252V5.62H47.252ZM48.2032 6.92464L47.9932 6.48464L47.0908 6.91536L47.3008 7.35536L48.2032 6.92464ZM48.0028 6.89403C48.1201 6.6155 48.3003 6.41635 48.552 6.27863L48.072 5.40137C47.617 5.65032 47.2839 6.0245 47.0812 6.50597L48.0028 6.89403ZM48.5583 6.27513C48.82 6.12697 49.1605 6.04 49.602 6.04V5.04C49.0301 5.04 48.5106 5.15303 48.0657 5.40487L48.5583 6.27513ZM49.102 5.54V6.98H50.102V5.54H49.102ZM49.6517 6.48248C49.5725 6.47456 49.4955 6.47 49.422 6.47V7.47C49.4551 7.47 49.4981 7.47211 49.5522 7.47752L49.6517 6.48248ZM49.484 6.47386C49.4079 6.46435 49.3304 6.46 49.252 6.46V7.46C49.2936 7.46 49.3294 7.46232 49.36 7.46614L49.484 6.47386ZM49.252 6.46C48.7228 6.46 48.2474 6.61615 47.8725 6.96295L48.5515 7.69705C48.7099 7.55052 48.9278 7.46 49.252 7.46V6.46ZM47.8729 6.9626C47.4713 7.33324 47.322 7.8709 47.322 8.46H48.322C48.322 8.02243 48.4327 7.80676 48.5511 7.6974L47.8729 6.9626ZM47.322 8.46V11H48.322V8.46H47.322ZM47.822 10.5H46.262V11.5H47.822V10.5ZM53.478 11H52.978C52.978 11.2761 53.2019 11.5 53.478 11.5V11ZM53.478 9.95H53.978C53.978 9.8814 53.9639 9.81354 53.9365 9.75064L53.478 9.95ZM53.378 9.72H52.878C52.878 9.78859 52.8921 9.85646 52.9195 9.91936L53.378 9.72ZM53.068 7.06L52.7268 7.42558L52.7329 7.43105L53.068 7.06ZM51.288 6.92L51.4391 7.39667L51.4461 7.39434L51.288 6.92ZM50.588 7.28L50.1433 7.50849C50.2117 7.64162 50.3361 7.7371 50.4824 7.76872C50.6287 7.80033 50.7814 7.76475 50.8987 7.67175L50.588 7.28ZM50.028 6.19L49.74 5.78126C49.5362 5.92487 49.4693 6.1967 49.5833 6.41849L50.028 6.19ZM51.088 5.71L50.9558 5.2278L50.9558 5.2278L51.088 5.71ZM54.258 6.12L54.5825 5.73958L54.5825 5.73958L54.258 6.12ZM54.938 11V11.5C55.2142 11.5 55.438 11.2761 55.438 11H54.938ZM50.758 10.87L50.5384 11.3193L50.5466 11.3231L50.758 10.87ZM50.068 10.28L50.4875 10.0079L50.4875 10.0079L50.068 10.28ZM50.058 8.61L49.6419 8.3326L49.6367 8.34081L50.058 8.61ZM50.808 8.05L50.9906 8.51555L50.9984 8.51234L50.808 8.05ZM53.568 7.84H54.068C54.068 7.56386 53.8442 7.34 53.568 7.34V7.84ZM53.568 8.75V9.25C53.8442 9.25 54.068 9.02614 54.068 8.75H53.568ZM51.548 8.93L51.2225 8.55026L51.2135 8.55835L51.548 8.93ZM51.578 9.86L51.2699 10.2538C51.2761 10.2587 51.2825 10.2634 51.289 10.268L51.578 9.86ZM52.928 9.85L53.1791 10.2825L53.1893 10.2763L52.928 9.85ZM53.378 9.3L53.8523 9.14189C53.7857 8.942 53.6009 8.80533 53.3903 8.80015C53.1797 8.79497 52.9884 8.9224 52.912 9.11878L53.378 9.3ZM53.618 10.02L54.0933 10.1754C54.1266 10.0735 54.1262 9.96358 54.0923 9.86189L53.618 10.02ZM52.998 10.81L52.7408 10.3813L52.7408 10.3813L52.998 10.81ZM53.978 11V9.95H52.978V11H53.978ZM53.9365 9.75064L53.8365 9.52064L52.9195 9.91936L53.0195 10.1494L53.9365 9.75064ZM53.878 9.72V7.84H52.878V9.72H53.878ZM53.878 7.84C53.878 7.39557 53.7354 6.989 53.4032 6.68895L52.7329 7.43105C52.814 7.50433 52.878 7.61777 52.878 7.84H53.878ZM53.4092 6.69447C53.0777 6.38512 52.619 6.28 52.138 6.28V7.28C52.497 7.28 52.6583 7.36155 52.7268 7.42553L53.4092 6.69447ZM52.138 6.28C51.796 6.28 51.4594 6.33584 51.1299 6.44566L51.4461 7.39434C51.6767 7.31749 51.9067 7.28 52.138 7.28V6.28ZM51.1369 6.44338C50.8149 6.54548 50.5253 6.69159 50.2773 6.88825L50.8987 7.67175C51.0374 7.56175 51.2145 7.46785 51.4391 7.39662L51.1369 6.44338ZM51.0327 7.05151L50.4727 5.96151L49.5833 6.41849L50.1433 7.50849L51.0327 7.05151ZM50.316 6.59874C50.5538 6.43116 50.8521 6.29314 51.2202 6.1922L50.9558 5.2278C50.4972 5.35353 50.0888 5.53551 49.74 5.78126L50.316 6.59874ZM51.2202 6.1922C51.5907 6.09063 51.9662 6.04 52.348 6.04V5.04C51.8765 5.04 51.412 5.10271 50.9558 5.2278L51.2202 6.1922ZM52.348 6.04C53.0937 6.04 53.5997 6.21567 53.9335 6.50042L54.5825 5.73958C54.0097 5.251 53.2423 5.04 52.348 5.04V6.04ZM53.9335 6.50042C54.238 6.76012 54.438 7.19866 54.438 7.93H55.438C55.438 7.02134 55.1847 6.25322 54.5825 5.73958L53.9335 6.50042ZM54.438 7.93V11H55.438V7.93H54.438ZM54.938 10.5H53.478V11.5H54.938V10.5ZM51.838 10.58C51.4721 10.58 51.188 10.5189 50.9695 10.4169L50.5466 11.3231C50.9281 11.5011 51.3639 11.58 51.838 11.58V10.58ZM50.9776 10.4208C50.7478 10.3084 50.5917 10.1686 50.4875 10.0079L49.6485 10.5521C49.8643 10.8847 50.1682 11.1382 50.5384 11.3192L50.9776 10.4208ZM50.4875 10.0079C50.3824 9.84585 50.328 9.66447 50.328 9.45H49.328C49.328 9.84886 49.4336 10.2208 49.6485 10.5521L50.4875 10.0079ZM50.328 9.45C50.328 9.21324 50.3836 9.02914 50.4794 8.87919L49.6367 8.34081C49.4258 8.67086 49.328 9.04676 49.328 9.45H50.328ZM50.474 8.88735C50.5638 8.75266 50.7204 8.62143 50.9906 8.51549L50.6255 7.58451C50.2156 7.74523 49.8722 7.98734 49.642 8.33265L50.474 8.88735ZM50.9984 8.51234C51.2561 8.40624 51.6278 8.34 52.138 8.34V7.34C51.5549 7.34 51.04 7.41376 50.6176 7.58766L50.9984 8.51234ZM52.138 8.34H53.568V7.34H52.138V8.34ZM53.068 7.84V8.75H54.068V7.84H53.068ZM53.568 8.25H52.308V9.25H53.568V8.25ZM52.308 8.25C51.9225 8.25 51.508 8.30577 51.2226 8.55037L51.8734 9.30963C51.8632 9.31842 51.8792 9.30027 51.9582 9.28154C52.0353 9.26329 52.1491 9.25 52.308 9.25V8.25ZM51.2135 8.55835C50.9744 8.77355 50.848 9.05882 50.848 9.38H51.848C51.848 9.35314 51.8526 9.34069 51.8549 9.33557C51.8572 9.33049 51.8631 9.31908 51.8825 9.30165L51.2135 8.55835ZM50.848 9.38C50.848 9.72889 50.9916 10.036 51.2699 10.2538L51.8862 9.46625C51.8641 9.449 51.8583 9.43795 51.8564 9.43394C51.8543 9.42951 51.848 9.41479 51.848 9.38H50.848ZM51.289 10.268C51.5609 10.4606 51.8907 10.53 52.228 10.53V9.53C52.0186 9.53 51.9151 9.48606 51.867 9.45199L51.289 10.268ZM52.228 10.53C52.5682 10.53 52.8895 10.4505 53.1791 10.2824L52.6769 9.41761C52.5532 9.48947 52.4078 9.53 52.228 9.53V10.53ZM53.1893 10.2763C53.4952 10.0888 53.7137 9.81632 53.844 9.48122L52.912 9.11878C52.8557 9.26368 52.7742 9.35784 52.6667 9.4237L53.1893 10.2763ZM52.9037 9.45811L53.1437 10.1781L54.0923 9.86189L53.8523 9.14189L52.9037 9.45811ZM53.1428 9.86463C53.0651 10.1022 52.9329 10.266 52.7408 10.3813L53.2553 11.2387C53.6631 10.994 53.9443 10.6311 54.0933 10.1754L53.1428 9.86463ZM52.7408 10.3813C52.5412 10.501 52.2516 10.58 51.838 10.58V11.58C52.3711 11.58 52.8548 11.479 53.2553 11.2387L52.7408 10.3813ZM56.5399 11H56.0399C56.0399 11.2761 56.2637 11.5 56.5399 11.5V11ZM57.0799 4.05L57.4335 4.40357L57.4367 4.40029L57.0799 4.05ZM59.2699 3.57L59.1597 4.05773L59.163 4.05845L59.2699 3.57ZM59.8099 3.79L60.2799 3.96054C60.3578 3.7458 60.2803 3.50557 60.0916 3.37689L59.8099 3.79ZM59.3999 4.92L59.1153 5.3311C59.2428 5.41936 59.404 5.44348 59.5517 5.39638C59.6995 5.34928 59.817 5.2363 59.8699 5.09054L59.3999 4.92ZM58.2399 4.93L57.8774 4.58562L57.8769 4.58613L58.2399 4.93ZM58.0599 6.01H57.5599C57.5599 6.01994 57.5602 6.02988 57.5608 6.0398L58.0599 6.01ZM58.0999 6.68H58.5999C58.5999 6.67006 58.5996 6.66012 58.599 6.6502L58.0999 6.68ZM58.0999 11V11.5C58.376 11.5 58.5999 11.2761 58.5999 11H58.0999ZM55.7099 6.94H55.2099C55.2099 7.21614 55.4337 7.44 55.7099 7.44V6.94ZM55.7099 5.74V5.24C55.4337 5.24 55.2099 5.46386 55.2099 5.74H55.7099ZM59.4399 5.74H59.9399C59.9399 5.46386 59.716 5.24 59.4399 5.24V5.74ZM59.4399 6.94V7.44C59.716 7.44 59.9399 7.21614 59.9399 6.94H59.4399ZM57.0399 11V5.5H56.0399V11H57.0399ZM57.0399 5.5C57.0399 4.99869 57.1849 4.65213 57.4334 4.40355L56.7263 3.69645C56.2549 4.16787 56.0399 4.78798 56.0399 5.5H57.0399ZM57.4367 4.40029C57.677 4.15556 58.0457 4 58.6199 4V3C57.8608 3 57.2028 3.21111 56.7231 3.6997L57.4367 4.40029ZM58.6199 4C58.8121 4 58.9916 4.01976 59.1598 4.05772L59.38 3.08228C59.1348 3.0269 58.881 3 58.6199 3V4ZM59.163 4.05845C59.3278 4.09449 59.4451 4.14645 59.5282 4.20311L60.0916 3.37689C59.8813 3.23355 59.6387 3.13885 59.3767 3.08155L59.163 4.05845ZM59.3399 3.61946L58.9299 4.74946L59.8699 5.09054L60.2799 3.96054L59.3399 3.61946ZM59.6845 4.5089C59.5538 4.41845 59.411 4.35026 59.259 4.30276L58.9607 5.25724C59.0221 5.27641 59.0726 5.30155 59.1153 5.3311L59.6845 4.5089ZM59.259 4.30276C59.1006 4.25327 58.9367 4.23 58.7699 4.23V5.23C58.843 5.23 58.9058 5.24007 58.9607 5.25724L59.259 4.30276ZM58.7699 4.23C58.4403 4.23 58.1196 4.33066 57.8774 4.58562L58.6024 5.27437C58.6135 5.26268 58.6462 5.23 58.7699 5.23V4.23ZM57.8769 4.58613C57.6341 4.8424 57.5599 5.18369 57.5599 5.51H58.5599C58.5599 5.41673 58.5708 5.35548 58.5824 5.3182C58.588 5.30016 58.5934 5.28893 58.5969 5.28263C58.6003 5.27655 58.6025 5.27423 58.6029 5.27387L57.8769 4.58613ZM57.5599 5.51V6.01H58.5599V5.51H57.5599ZM57.5608 6.0398L57.6008 6.7098L58.599 6.6502L58.559 5.9802L57.5608 6.0398ZM57.5999 6.68V11H58.5999V6.68H57.5999ZM58.0999 10.5H56.5399V11.5H58.0999V10.5ZM56.2099 6.94V5.74H55.2099V6.94H56.2099ZM55.7099 6.24H59.4399V5.24H55.7099V6.24ZM58.9399 5.74V6.94H59.9399V5.74H58.9399ZM59.4399 6.44H55.7099V7.44H59.4399V6.44ZM60.9371 10.6L60.5976 10.9672L60.6014 10.9706L60.9371 10.6ZM60.4071 4.43V3.93C60.1309 3.93 59.9071 4.15386 59.9071 4.43H60.4071ZM61.9671 4.43H62.4671C62.4671 4.15386 62.2432 3.93 61.9671 3.93V4.43ZM62.1471 9.66L61.784 10.004L61.7935 10.0136L62.1471 9.66ZM63.2671 9.64L63.7342 9.46165C63.6778 9.31403 63.555 9.20175 63.4029 9.15881C63.2509 9.11588 63.0875 9.14735 62.9622 9.24369L63.2671 9.64ZM63.6871 10.74L63.9761 11.148C64.1623 11.0161 64.2356 10.7748 64.1542 10.5616L63.6871 10.74ZM63.1071 11L63.2249 11.486L63.235 11.4834L63.1071 11ZM59.5771 6.94H59.0771C59.0771 7.21614 59.3009 7.44 59.5771 7.44V6.94ZM59.5771 5.74V5.24C59.3009 5.24 59.0771 5.46386 59.0771 5.74H59.5771ZM63.3071 5.74H63.8071C63.8071 5.46386 63.5832 5.24 63.3071 5.24V5.74ZM63.3071 6.94V7.44C63.5832 7.44 63.8071 7.21614 63.8071 6.94H63.3071ZM62.4171 10.58C61.8662 10.58 61.5074 10.4419 61.2727 10.2294L60.6014 10.9706C61.0735 11.3981 61.7012 11.58 62.4171 11.58V10.58ZM61.2765 10.2329C61.0562 10.0292 60.9071 9.69876 60.9071 9.15H59.9071C59.9071 9.88124 60.1112 10.5174 60.5976 10.9671L61.2765 10.2329ZM60.9071 9.15V4.43H59.9071V9.15H60.9071ZM60.4071 4.93H61.9671V3.93H60.4071V4.93ZM61.4671 4.43V9.13H62.4671V4.43H61.4671ZM61.4671 9.13C61.4671 9.44504 61.5522 9.75912 61.7841 10.0039L62.51 9.31613C62.5019 9.30755 62.4671 9.2683 62.4671 9.13H61.4671ZM61.7935 10.0136C62.027 10.247 62.3286 10.34 62.6371 10.34V9.34C62.5322 9.34 62.5071 9.31296 62.5006 9.30645L61.7935 10.0136ZM62.6371 10.34C62.9792 10.34 63.3001 10.2454 63.5719 10.0363L62.9622 9.24369C62.8874 9.30127 62.7883 9.34 62.6371 9.34V10.34ZM62.8 9.81835L63.22 10.9184L64.1542 10.5616L63.7342 9.46165L62.8 9.81835ZM63.3981 10.332C63.2953 10.4048 63.1591 10.469 62.9791 10.5166L63.235 11.4834C63.5084 11.411 63.7588 11.3019 63.9761 11.148L63.3981 10.332ZM62.9893 10.5141C62.8101 10.5575 62.6198 10.58 62.4171 10.58V11.58C62.6944 11.58 62.9641 11.5492 63.2249 11.4859L62.9893 10.5141ZM60.0771 6.94V5.74H59.0771V6.94H60.0771ZM59.5771 6.24H63.3071V5.24H59.5771V6.24ZM62.8071 5.74V6.94H63.8071V5.74H62.8071ZM63.3071 6.44H59.5771V7.44H63.3071V6.44Z" fill="#242424"/>
<defs>
<filter id="filter0_i_1_46" x="0" y="1.4" width="9" height="12.1" filterUnits="userSpaceOnUse" color-interpolation-filters="sRGB">
<feFlood flood-opacity="0" result="BackgroundImageFix"/>
<feBlend mode="normal" in="SourceGraphic" in2="BackgroundImageFix" result="shape"/>
<feColorMatrix in="SourceAlpha" type="matrix" values="0 0 0 0 0 0 0 0 0 0 0 0 0 0 0 0 0 0 127 0" result="hardAlpha"/>
<feOffset dy="-0.1"/>
<feGaussianBlur stdDeviation="0.1"/>
<feComposite in2="hardAlpha" operator="arithmetic" k2="-1" k3="1"/>
<feColorMatrix type="matrix" values="0 0 0 0 0 0 0 0 0 0 0 0 0 0 0 0 0 0 0.2 0"/>
<feBlend mode="normal" in2="shape" result="effect1_innerShadow_1_46"/>
</filter>
<linearGradient id="paint0_linear_1_46" x1="0" y1="4.5" x2="6" y2="10.5" gradientUnits="userSpaceOnUse">
<stop stop-color="#A055FF"/>
<stop offset="1" stop-color="#5599FF"/>
</linearGradient>
</defs>
</svg>
