<svg width="16" height="16" viewBox="0 0 16 16" fill="none" xmlns="http://www.w3.org/2000/svg">
<g clip-path="url(#clip0_3_6)">
<rect width="16" height="16" fill="url(#paint0_linear_3_6)"/>
<mask id="path-3-outside-1_3_6" maskUnits="userSpaceOnUse" x="2.55577" y="0.749281" width="10.8885" height="14.6201" fill="black">
<rect fill="white" x="2.55577" y="0.749281" width="10.8885" height="14.6201"/>
<path fill-rule="evenodd" clip-rule="evenodd" d="M5.58068 2.89124C5.4429 2.88227 5.32394 2.98669 5.31496 3.12447L5.21751 4.6213C5.20854 4.75908 5.31296 4.87805 5.45073 4.88702L7.69598 5.0332L7.2087 12.5172C7.19076 12.7928 7.39967 13.0309 7.67533 13.0488C7.95079 13.0667 8.18863 12.858 8.20657 12.5825L8.69387 5.09818L10.9391 5.24436C11.0769 5.25334 11.1959 5.14892 11.2048 5.01114L11.3023 3.51431C11.3113 3.37653 11.2068 3.25756 11.0691 3.24859L5.58068 2.89124Z"/>
</mask>
<path fill-rule="evenodd" clip-rule="evenodd" d="M5.58068 2.89124C5.4429 2.88227 5.32394 2.98669 5.31496 3.12447L5.21751 4.6213C5.20854 4.75908 5.31296 4.87805 5.45073 4.88702L7.69598 5.0332L7.2087 12.5172C7.19076 12.7928 7.39967 13.0309 7.67533 13.0488C7.95079 13.0667 8.18863 12.858 8.20657 12.5825L8.69387 5.09818L10.9391 5.24436C11.0769 5.25334 11.1959 5.14892 11.2048 5.01114L11.3023 3.51431C11.3113 3.37653 11.2068 3.25756 11.0691 3.24859L5.58068 2.89124Z" fill="white" fill-opacity="0.6"/>
<path d="M5.45073 4.88702L5.37764 6.00964L5.37764 6.00964L5.45073 4.88702ZM7.69598 5.0332L8.81861 5.1063L8.8917 3.98368L7.76908 3.91058L7.69598 5.0332ZM8.69387 5.09818L8.76696 3.97555L7.64434 3.90246L7.57125 5.02508L8.69387 5.09818ZM10.9391 5.24436L10.866 6.36699L10.9391 5.24436ZM6.43759 3.19757C6.40619 3.67979 5.98981 4.04526 5.50759 4.01387L5.65377 1.76862C4.89599 1.71928 4.24168 2.29359 4.19234 3.05138L6.43759 3.19757ZM6.34013 4.6944L6.43759 3.19757L4.19234 3.05138L4.09488 4.54821L6.34013 4.6944ZM5.52383 3.76439C6.00606 3.79579 6.37153 4.21217 6.34013 4.6944L4.09488 4.54821C4.04554 5.306 4.61985 5.9603 5.37764 6.00964L5.52383 3.76439ZM7.76908 3.91058L5.52383 3.76439L5.37764 6.00964L7.62289 6.15583L7.76908 3.91058ZM8.33133 12.5903L8.81861 5.1063L6.57336 4.96011L6.08608 12.4441L8.33133 12.5903ZM7.74843 11.9262C8.09277 11.9486 8.35375 12.2459 8.33133 12.5903L6.08608 12.4441C6.02776 13.3397 6.70657 14.1131 7.60224 14.1714L7.74843 11.9262ZM7.08394 12.5094C7.10638 12.1649 7.40387 11.9037 7.74843 11.9262L7.60224 14.1714C8.49771 14.2297 9.27089 13.5511 9.32919 12.6556L7.08394 12.5094ZM7.57125 5.02508L7.08394 12.5094L9.32919 12.6556L9.81649 5.17127L7.57125 5.02508ZM11.0122 4.12174L8.76696 3.97555L8.62078 6.2208L10.866 6.36699L11.0122 4.12174ZM10.0822 4.93804C10.1136 4.45581 10.53 4.09034 11.0122 4.12174L10.866 6.36699C11.6238 6.41633 12.2781 5.84202 12.3275 5.08423L10.0822 4.93804ZM10.1797 3.44121L10.0822 4.93804L12.3275 5.08423L12.4249 3.5874L10.1797 3.44121ZM10.996 4.37121C10.5137 4.33982 10.1483 3.92344 10.1797 3.44121L12.4249 3.5874C12.4742 2.82961 11.8999 2.17531 11.1422 2.12597L10.996 4.37121ZM5.50759 4.01387L10.996 4.37121L11.1422 2.12597L5.65377 1.76862L5.50759 4.01387Z" fill="white" mask="url(#path-3-outside-1_3_6)"/>
</g>
<defs>
<linearGradient id="paint0_linear_3_6" x1="8" y1="0" x2="8" y2="16" gradientUnits="userSpaceOnUse">
<stop stop-color="#5775C2"/>
<stop offset="1" stop-color="#75A3CD"/>
</linearGradient>
<clipPath id="clip0_3_6">
<rect width="16" height="16" rx="2" fill="white"/>
</clipPath>
</defs>
</svg>
