<svg width="61" height="31" viewBox="0 0 61 31" fill="none" xmlns="http://www.w3.org/2000/svg">
<g clip-path="url(#clip0_1_2)">
<rect width="61" height="31" fill="white"/>
<rect width="61" height="31" fill="#D8CBFF"/>
<rect x="11.0486" y="6.81876" width="11.5596" height="11.5596" transform="rotate(10.2079 11.0486 6.81876)" fill="#85CCFF"/>
<rect x="35.6441" y="2.79801" width="13.6719" height="13.6704" transform="rotate(-13.9589 35.6441 2.79801)" fill="#6D55FF"/>
<rect x="37.5742" y="20.6045" width="9.43249" height="9.42372" transform="rotate(9.82854 37.5742 20.6045)" fill="#A772FF"/>
<g clip-path="url(#clip1_1_2)">
<path d="M11.6 22V15H12.6V17H15.6V15H16.6V22H15.6V18H12.6V22H11.6ZM17.6 21V20H18.6V21H17.6ZM18.6 22V21H21.6V20H18.6V19H21.6V18H22.6V22H18.6ZM18.6 18V17H21.6V18H18.6ZM25.6 20V18H26.6V20H25.6ZM27.6 22V18H28.6V22H27.6ZM23.6 22V17H25.6V18H24.6V22H23.6ZM26.6 18V17H27.6V18H26.6ZM31.6 20V18H32.6V20H31.6ZM33.6 22V18H34.6V22H33.6ZM29.6 22V17H31.6V18H30.6V22H29.6ZM32.6 18V17H33.6V18H32.6ZM36.6 22V21H40.6V22H36.6ZM35.6 21V18H36.6V19H39.6V18H40.6V20H36.6V21H35.6ZM36.6 18V17H39.6V18H36.6ZM45.6 19V18H46.6V19H45.6ZM41.6 22V17H42.6V18H43.6V19H42.6V22H41.6ZM43.6 18V17H45.6V18H43.6Z" fill="url(#paint0_linear_1_2)"/>
<path d="M11.6 22H10.6V23H11.6V22ZM11.6 15V14H10.6V15H11.6ZM12.6 15H13.6V14H12.6V15ZM12.6 17H11.6V18H12.6V17ZM15.6 17V18H16.6V17H15.6ZM15.6 15V14H14.6V15H15.6ZM16.6 15H17.6V14H16.6V15ZM16.6 22V23H17.6V22H16.6ZM15.6 22H14.6V23H15.6V22ZM15.6 18H16.6V17H15.6V18ZM12.6 18V17H11.6V18H12.6ZM12.6 22V23H13.6V22H12.6ZM12.6 22V15H10.6V22H12.6ZM11.6 16H12.6V14H11.6V16ZM11.6 15V17H13.6V15H11.6ZM12.6 18H15.6V16H12.6V18ZM16.6 17V15H14.6V17H16.6ZM15.6 16H16.6V14H15.6V16ZM15.6 15V22H17.6V15H15.6ZM16.6 21H15.6V23H16.6V21ZM16.6 22V18H14.6V22H16.6ZM15.6 17H12.6V19H15.6V17ZM11.6 18V22H13.6V18H11.6ZM12.6 21H11.6V23H12.6V21ZM17.6 21H16.6V22H17.6V21ZM17.6 20V19H16.6V20H17.6ZM18.6 20H19.6V19H18.6V20ZM18.6 21V22H19.6V21H18.6ZM18.6 22H17.6V23H18.6V22ZM18.6 21V20H17.6V21H18.6ZM21.6 21V22H22.6V21H21.6ZM21.6 20H22.6V19H21.6V20ZM18.6 20H17.6V21H18.6V20ZM18.6 19V18H17.6V19H18.6ZM21.6 19V20H22.6V19H21.6ZM21.6 18V17H20.6V18H21.6ZM22.6 18H23.6V17H22.6V18ZM22.6 22V23H23.6V22H22.6ZM18.6 18H17.6V19H18.6V18ZM18.6 17V16H17.6V17H18.6ZM21.6 17H22.6V16H21.6V17ZM21.6 18V19H22.6V18H21.6ZM18.6 21V20H16.6V21H18.6ZM17.6 21H18.6V19H17.6V21ZM17.6 20V21H19.6V20H17.6ZM18.6 20H17.6V22H18.6V20ZM19.6 22V21H17.6V22H19.6ZM18.6 22H21.6V20H18.6V22ZM22.6 21V20H20.6V21H22.6ZM21.6 19H18.6V21H21.6V19ZM19.6 20V19H17.6V20H19.6ZM18.6 20H21.6V18H18.6V20ZM22.6 19V18H20.6V19H22.6ZM21.6 19H22.6V17H21.6V19ZM21.6 18V22H23.6V18H21.6ZM22.6 21H18.6V23H22.6V21ZM19.6 18V17H17.6V18H19.6ZM18.6 18H21.6V16H18.6V18ZM20.6 17V18H22.6V17H20.6ZM21.6 17H18.6V19H21.6V17ZM25.6 20H24.6V21H25.6V20ZM25.6 18V17H24.6V18H25.6ZM26.6 18H27.6V17H26.6V18ZM26.6 20V21H27.6V20H26.6ZM27.6 22H26.6V23H27.6V22ZM27.6 18V17H26.6V18H27.6ZM28.6 18H29.6V17H28.6V18ZM28.6 22V23H29.6V22H28.6ZM23.6 22H22.6V23H23.6V22ZM23.6 17V16H22.6V17H23.6ZM25.6 17H26.6V16H25.6V17ZM25.6 18V19H26.6V18H25.6ZM24.6 18V17H23.6V18H24.6ZM24.6 22V23H25.6V22H24.6ZM26.6 18H25.6V19H26.6V18ZM26.6 17V16H25.6V17H26.6ZM27.6 17H28.6V16H27.6V17ZM27.6 18V19H28.6V18H27.6ZM26.6 20V18H24.6V20H26.6ZM25.6 19H26.6V17H25.6V19ZM25.6 18V20H27.6V18H25.6ZM26.6 19H25.6V21H26.6V19ZM28.6 22V18H26.6V22H28.6ZM27.6 19H28.6V17H27.6V19ZM27.6 18V22H29.6V18H27.6ZM28.6 21H27.6V23H28.6V21ZM24.6 22V17H22.6V22H24.6ZM23.6 18H25.6V16H23.6V18ZM24.6 17V18H26.6V17H24.6ZM25.6 17H24.6V19H25.6V17ZM23.6 18V22H25.6V18H23.6ZM24.6 21H23.6V23H24.6V21ZM27.6 18V17H25.6V18H27.6ZM26.6 18H27.6V16H26.6V18ZM26.6 17V18H28.6V17H26.6ZM27.6 17H26.6V19H27.6V17ZM31.6 20H30.6V21H31.6V20ZM31.6 18V17H30.6V18H31.6ZM32.6 18H33.6V17H32.6V18ZM32.6 20V21H33.6V20H32.6ZM33.6 22H32.6V23H33.6V22ZM33.6 18V17H32.6V18H33.6ZM34.6 18H35.6V17H34.6V18ZM34.6 22V23H35.6V22H34.6ZM29.6 22H28.6V23H29.6V22ZM29.6 17V16H28.6V17H29.6ZM31.6 17H32.6V16H31.6V17ZM31.6 18V19H32.6V18H31.6ZM30.6 18V17H29.6V18H30.6ZM30.6 22V23H31.6V22H30.6ZM32.6 18H31.6V19H32.6V18ZM32.6 17V16H31.6V17H32.6ZM33.6 17H34.6V16H33.6V17ZM33.6 18V19H34.6V18H33.6ZM32.6 20V18H30.6V20H32.6ZM31.6 19H32.6V17H31.6V19ZM31.6 18V20H33.6V18H31.6ZM32.6 19H31.6V21H32.6V19ZM34.6 22V18H32.6V22H34.6ZM33.6 19H34.6V17H33.6V19ZM33.6 18V22H35.6V18H33.6ZM34.6 21H33.6V23H34.6V21ZM30.6 22V17H28.6V22H30.6ZM29.6 18H31.6V16H29.6V18ZM30.6 17V18H32.6V17H30.6ZM31.6 17H30.6V19H31.6V17ZM29.6 18V22H31.6V18H29.6ZM30.6 21H29.6V23H30.6V21ZM33.6 18V17H31.6V18H33.6ZM32.6 18H33.6V16H32.6V18ZM32.6 17V18H34.6V17H32.6ZM33.6 17H32.6V19H33.6V17ZM36.6 22H35.6V23H36.6V22ZM36.6 21V20H35.6V21H36.6ZM40.6 21H41.6V20H40.6V21ZM40.6 22V23H41.6V22H40.6ZM35.6 21H34.6V22H35.6V21ZM35.6 18V17H34.6V18H35.6ZM36.6 18H37.6V17H36.6V18ZM36.6 19H35.6V20H36.6V19ZM39.6 19V20H40.6V19H39.6ZM39.6 18V17H38.6V18H39.6ZM40.6 18H41.6V17H40.6V18ZM40.6 20V21H41.6V20H40.6ZM36.6 20V19H35.6V20H36.6ZM36.6 21V22H37.6V21H36.6ZM36.6 18H35.6V19H36.6V18ZM36.6 17V16H35.6V17H36.6ZM39.6 17H40.6V16H39.6V17ZM39.6 18V19H40.6V18H39.6ZM37.6 22V21H35.6V22H37.6ZM36.6 22H40.6V20H36.6V22ZM39.6 21V22H41.6V21H39.6ZM40.6 21H36.6V23H40.6V21ZM36.6 21V18H34.6V21H36.6ZM35.6 19H36.6V17H35.6V19ZM35.6 18V19H37.6V18H35.6ZM36.6 20H39.6V18H36.6V20ZM40.6 19V18H38.6V19H40.6ZM39.6 19H40.6V17H39.6V19ZM39.6 18V20H41.6V18H39.6ZM40.6 19H36.6V21H40.6V19ZM35.6 20V21H37.6V20H35.6ZM36.6 20H35.6V22H36.6V20ZM37.6 18V17H35.6V18H37.6ZM36.6 18H39.6V16H36.6V18ZM38.6 17V18H40.6V17H38.6ZM39.6 17H36.6V19H39.6V17ZM45.6 19H44.6V20H45.6V19ZM45.6 18V17H44.6V18H45.6ZM46.6 18H47.6V17H46.6V18ZM46.6 19V20H47.6V19H46.6ZM41.6 22H40.6V23H41.6V22ZM41.6 17V16H40.6V17H41.6ZM42.6 17H43.6V16H42.6V17ZM42.6 18H41.6V19H42.6V18ZM43.6 18H44.6V17H43.6V18ZM43.6 19V20H44.6V19H43.6ZM42.6 19V18H41.6V19H42.6ZM42.6 22V23H43.6V22H42.6ZM43.6 18H42.6V19H43.6V18ZM43.6 17V16H42.6V17H43.6ZM45.6 17H46.6V16H45.6V17ZM45.6 18V19H46.6V18H45.6ZM46.6 19V18H44.6V19H46.6ZM45.6 19H46.6V17H45.6V19ZM45.6 18V19H47.6V18H45.6ZM46.6 18H45.6V20H46.6V18ZM42.6 22V17H40.6V22H42.6ZM41.6 18H42.6V16H41.6V18ZM41.6 17V18H43.6V17H41.6ZM42.6 19H43.6V17H42.6V19ZM42.6 18V19H44.6V18H42.6ZM43.6 18H42.6V20H43.6V18ZM41.6 19V22H43.6V19H41.6ZM42.6 21H41.6V23H42.6V21ZM44.6 18V17H42.6V18H44.6ZM43.6 18H45.6V16H43.6V18ZM44.6 17V18H46.6V17H44.6ZM45.6 17H43.6V19H45.6V17Z" fill="black"/>
<rect x="38.1617" y="16.115" width="7.125" height="3.125" rx="0.8125" transform="rotate(-75.884 38.1617 16.115)" fill="url(#paint1_linear_1_2)" stroke="black" stroke-width="1.125"/>
<mask id="path-8-outside-1_1_2" maskUnits="userSpaceOnUse" x="40.906" y="10.8605" width="10.9175" height="7.28788" fill="black">
<rect fill="white" x="40.906" y="10.8605" width="10.9175" height="7.28788"/>
<path d="M41.3937 13.7699L41.6376 12.8001L48.9113 14.6293C49.179 14.6967 49.3415 14.9682 49.2741 15.236V15.236C49.2068 15.5039 48.935 15.6664 48.6671 15.599L41.3937 13.7699Z"/>
</mask>
<path d="M41.3937 13.7699L41.6376 12.8001L48.9113 14.6293C49.179 14.6967 49.3415 14.9682 49.2741 15.236V15.236C49.2068 15.5039 48.935 15.6664 48.6671 15.599L41.3937 13.7699Z" fill="url(#paint2_linear_1_2)"/>
<path d="M41.3937 13.7699L41.6376 12.8001L41.3937 13.7699ZM49.1857 13.5383C50.056 13.7572 50.584 14.6401 50.3652 15.5103C50.1463 16.3808 49.2632 16.909 48.3927 16.6901L48.305 14.4769L48.0611 15.4467L49.1857 13.5383ZM50.3652 15.5103C50.1463 16.3808 49.2632 16.909 48.3927 16.6901L41.1194 14.861L41.6376 12.8001L48.9113 14.6293C49.0399 14.6617 49.1503 14.7437 49.2184 14.8575C49.2864 14.9713 49.3065 15.1074 49.2741 15.236L50.3652 15.5103ZM41.912 11.7091L49.1857 13.5383C50.056 13.7572 50.584 14.6401 50.3652 15.5103L49.2741 15.236C49.2418 15.3646 49.1597 15.4751 49.0458 15.5432C48.932 15.6113 48.7957 15.6314 48.6671 15.599L41.8788 13.8919L41.3937 13.7699L41.912 11.7091Z" fill="black" mask="url(#path-8-outside-1_1_2)"/>
</g>
</g>
<defs>
<linearGradient id="paint0_linear_1_2" x1="29.6" y1="14" x2="29.6" y2="25" gradientUnits="userSpaceOnUse">
<stop stop-color="#00D1FF"/>
<stop offset="1" stop-color="#001AFF"/>
</linearGradient>
<linearGradient id="paint1_linear_1_2" x1="41.8444" y1="15.7067" x2="41.8444" y2="17.7067" gradientUnits="userSpaceOnUse">
<stop stop-color="#C9C9C9"/>
<stop offset="1" stop-color="#9A9A9A"/>
</linearGradient>
<linearGradient id="paint2_linear_1_2" x1="41.5157" y1="13.285" x2="49.2741" y2="15.2361" gradientUnits="userSpaceOnUse">
<stop stop-color="#A45F20"/>
<stop offset="1" stop-color="#7B4717"/>
</linearGradient>
<clipPath id="clip0_1_2">
<rect width="61" height="31" fill="white"/>
</clipPath>
<clipPath id="clip1_1_2">
<rect width="40" height="15" fill="white" transform="translate(10.6 8)"/>
</clipPath>
</defs>
</svg>
