<svg width="39" height="16" viewBox="0 0 39 16" fill="none" xmlns="http://www.w3.org/2000/svg">
<path d="M5.65244 8.4H6.94844V14H5.65244V8.4ZM3.10844 14H1.81244V8.4H3.10844V14ZM5.74844 11.704H3.01244V10.608H5.74844V11.704ZM10.8254 14V13.16L10.7454 12.976V11.472C10.7454 11.2053 10.6627 10.9973 10.4974 10.848C10.3374 10.6987 10.0894 10.624 9.75338 10.624C9.52404 10.624 9.29738 10.6613 9.07338 10.736C8.85471 10.8053 8.66804 10.9013 8.51338 11.024L8.06538 10.152C8.30004 9.98667 8.58271 9.85867 8.91338 9.768C9.24404 9.67733 9.58004 9.632 9.92138 9.632C10.5774 9.632 11.0867 9.78667 11.4494 10.096C11.812 10.4053 11.9934 10.888 11.9934 11.544V14H10.8254ZM9.51338 14.064C9.17738 14.064 8.88938 14.008 8.64938 13.896C8.40938 13.7787 8.22538 13.6213 8.09738 13.424C7.96938 13.2267 7.90538 13.0053 7.90538 12.76C7.90538 12.504 7.96671 12.28 8.08938 12.088C8.21738 11.896 8.41738 11.7467 8.68938 11.64C8.96138 11.528 9.31604 11.472 9.75338 11.472H10.8974V12.2H9.88938C9.59604 12.2 9.39338 12.248 9.28138 12.344C9.17471 12.44 9.12138 12.56 9.12138 12.704C9.12138 12.864 9.18271 12.992 9.30538 13.088C9.43338 13.1787 9.60671 13.224 9.82538 13.224C10.0334 13.224 10.22 13.176 10.3854 13.08C10.5507 12.9787 10.6707 12.832 10.7454 12.64L10.9374 13.216C10.8467 13.4933 10.6814 13.704 10.4414 13.848C10.2014 13.992 9.89204 14.064 9.51338 14.064ZM18.6349 9.632C18.9762 9.632 19.2775 9.70133 19.5389 9.84C19.8055 9.97333 20.0135 10.1813 20.1629 10.464C20.3175 10.7413 20.3949 11.0987 20.3949 11.536V14H19.1469V11.728C19.1469 11.3813 19.0749 11.1253 18.9309 10.96C18.7869 10.7947 18.5842 10.712 18.3229 10.712C18.1415 10.712 17.9789 10.7547 17.8349 10.84C17.6909 10.92 17.5789 11.0427 17.4989 11.208C17.4189 11.3733 17.3789 11.584 17.3789 11.84V14H16.1309V11.728C16.1309 11.3813 16.0589 11.1253 15.9149 10.96C15.7762 10.7947 15.5762 10.712 15.3149 10.712C15.1335 10.712 14.9709 10.7547 14.8269 10.84C14.6829 10.92 14.5709 11.0427 14.4909 11.208C14.4109 11.3733 14.3709 11.584 14.3709 11.84V14H13.1229V9.696H14.3149V10.872L14.0909 10.528C14.2402 10.2347 14.4509 10.0133 14.7229 9.864C15.0002 9.70933 15.3149 9.632 15.6669 9.632C16.0615 9.632 16.4055 9.73333 16.6989 9.936C16.9975 10.1333 17.1949 10.4373 17.2909 10.848L16.8509 10.728C16.9949 10.392 17.2242 10.1253 17.5389 9.928C17.8589 9.73067 18.2242 9.632 18.6349 9.632ZM27.0255 9.632C27.3668 9.632 27.6682 9.70133 27.9295 9.84C28.1962 9.97333 28.4042 10.1813 28.5535 10.464C28.7082 10.7413 28.7855 11.0987 28.7855 11.536V14H27.5375V11.728C27.5375 11.3813 27.4655 11.1253 27.3215 10.96C27.1775 10.7947 26.9748 10.712 26.7135 10.712C26.5322 10.712 26.3695 10.7547 26.2255 10.84C26.0815 10.92 25.9695 11.0427 25.8895 11.208C25.8095 11.3733 25.7695 11.584 25.7695 11.84V14H24.5215V11.728C24.5215 11.3813 24.4495 11.1253 24.3055 10.96C24.1668 10.7947 23.9668 10.712 23.7055 10.712C23.5242 10.712 23.3615 10.7547 23.2175 10.84C23.0735 10.92 22.9615 11.0427 22.8815 11.208C22.8015 11.3733 22.7615 11.584 22.7615 11.84V14H21.5135V9.696H22.7055V10.872L22.4815 10.528C22.6308 10.2347 22.8415 10.0133 23.1135 9.864C23.3908 9.70933 23.7055 9.632 24.0575 9.632C24.4522 9.632 24.7962 9.73333 25.0895 9.936C25.3882 10.1333 25.5855 10.4373 25.6815 10.848L25.2415 10.728C25.3855 10.392 25.6148 10.1253 25.9295 9.928C26.2495 9.73067 26.6148 9.632 27.0255 9.632ZM32.0714 14.064C31.5807 14.064 31.1487 13.968 30.7754 13.776C30.4074 13.584 30.122 13.3227 29.9194 12.992C29.7167 12.656 29.6154 12.2747 29.6154 11.848C29.6154 11.416 29.714 11.0347 29.9114 10.704C30.114 10.368 30.3887 10.1067 30.7354 9.92C31.082 9.728 31.474 9.632 31.9114 9.632C32.3327 9.632 32.7114 9.72267 33.0474 9.904C33.3887 10.08 33.658 10.336 33.8554 10.672C34.0527 11.0027 34.1514 11.4 34.1514 11.864C34.1514 11.912 34.1487 11.968 34.1434 12.032C34.138 12.0907 34.1327 12.1467 34.1274 12.2H30.6314V11.472H33.4714L32.9914 11.688C32.9914 11.464 32.946 11.2693 32.8554 11.104C32.7647 10.9387 32.6394 10.8107 32.4794 10.72C32.3194 10.624 32.1327 10.576 31.9194 10.576C31.706 10.576 31.5167 10.624 31.3514 10.72C31.1914 10.8107 31.066 10.9413 30.9754 11.112C30.8847 11.2773 30.8394 11.4747 30.8394 11.704V11.896C30.8394 12.1307 30.89 12.3387 30.9914 12.52C31.098 12.696 31.2447 12.832 31.4314 12.928C31.6234 13.0187 31.8474 13.064 32.1034 13.064C32.3327 13.064 32.5327 13.0293 32.7034 12.96C32.8794 12.8907 33.0394 12.7867 33.1834 12.648L33.8474 13.368C33.65 13.592 33.402 13.7653 33.1034 13.888C32.8047 14.0053 32.4607 14.064 32.0714 14.064ZM34.9823 14V9.696H36.1743V10.912L36.0063 10.56C36.1343 10.256 36.3396 10.0267 36.6223 9.872C36.9049 9.712 37.2489 9.632 37.6543 9.632V10.784C37.6009 10.7787 37.5529 10.776 37.5103 10.776C37.4676 10.7707 37.4223 10.768 37.3743 10.768C37.0329 10.768 36.7556 10.8667 36.5423 11.064C36.3343 11.256 36.2303 11.5573 36.2303 11.968V14H34.9823Z" fill="url(#paint0_linear_1_15)"/>
<path d="M5.65244 8.4V7.4C5.10015 7.4 4.65244 7.84771 4.65244 8.4H5.65244ZM6.94844 8.4H7.94844C7.94844 7.84771 7.50072 7.4 6.94844 7.4V8.4ZM6.94844 14V15C7.50072 15 7.94844 14.5523 7.94844 14H6.94844ZM5.65244 14H4.65244C4.65244 14.5523 5.10015 15 5.65244 15V14ZM3.10844 14V15C3.66072 15 4.10844 14.5523 4.10844 14H3.10844ZM1.81244 14H0.812438C0.812438 14.5523 1.26015 15 1.81244 15L1.81244 14ZM1.81244 8.4V7.4C1.26015 7.4 0.812438 7.84771 0.812438 8.4H1.81244ZM3.10844 8.4H4.10844C4.10844 7.84771 3.66072 7.4 3.10844 7.4V8.4ZM5.74844 11.704V12.704C6.30072 12.704 6.74844 12.2563 6.74844 11.704H5.74844ZM3.01244 11.704H2.01244C2.01244 12.2563 2.46015 12.704 3.01244 12.704V11.704ZM3.01244 10.608V9.608C2.46015 9.608 2.01244 10.0557 2.01244 10.608H3.01244ZM5.74844 10.608H6.74844C6.74844 10.0557 6.30072 9.608 5.74844 9.608V10.608ZM5.65244 9.4H6.94844V7.4H5.65244V9.4ZM5.94844 8.4V14H7.94844V8.4H5.94844ZM6.94844 13H5.65244V15H6.94844V13ZM6.65244 14V8.4H4.65244V14H6.65244ZM3.10844 13H1.81244V15H3.10844V13ZM2.81244 14V8.4H0.812438V14H2.81244ZM1.81244 9.4H3.10844V7.4H1.81244V9.4ZM2.10844 8.4V14H4.10844V8.4H2.10844ZM5.74844 10.704H3.01244V12.704H5.74844V10.704ZM4.01244 11.704V10.608H2.01244V11.704H4.01244ZM3.01244 11.608H5.74844V9.608H3.01244V11.608ZM4.74844 10.608V11.704H6.74844V10.608H4.74844ZM10.8254 14H9.82538C9.82538 14.5523 10.2731 15 10.8254 15V14ZM10.8254 13.16H11.8254C11.8254 13.0228 11.7971 12.8871 11.7424 12.7613L10.8254 13.16ZM10.7454 12.976H9.74538C9.74538 13.1132 9.7736 13.2489 9.8283 13.3747L10.7454 12.976ZM10.4974 10.848L9.81506 11.5791C9.81904 11.5828 9.82305 11.5865 9.82709 11.5901L10.4974 10.848ZM9.07338 10.736L9.37562 11.6892C9.38029 11.6877 9.38495 11.6862 9.3896 11.6847L9.07338 10.736ZM8.51338 11.024L7.6239 11.481C7.76069 11.7472 8.00956 11.9382 8.30214 12.0014C8.59472 12.0647 8.90024 11.9935 9.13477 11.8075L8.51338 11.024ZM8.06538 10.152L7.48942 9.33452C7.08176 9.62174 6.94801 10.1654 7.1759 10.609L8.06538 10.152ZM8.91338 9.768L8.64894 8.8036L8.64894 8.8036L8.91338 9.768ZM11.4494 10.096L12.0983 9.33517L12.0983 9.33517L11.4494 10.096ZM11.9934 14V15C12.5457 15 12.9934 14.5523 12.9934 14H11.9934ZM8.64938 13.896L8.21017 14.7944C8.21558 14.797 8.22102 14.7996 8.22649 14.8022L8.64938 13.896ZM8.09738 13.424L8.93634 12.8798L8.93634 12.8798L8.09738 13.424ZM8.08938 12.088L7.25732 11.5333C7.25372 11.5387 7.25017 11.5441 7.24668 11.5496L8.08938 12.088ZM8.68938 11.64L9.05446 12.571C9.0597 12.5689 9.06492 12.5668 9.07012 12.5647L8.68938 11.64ZM10.8974 11.472H11.8974C11.8974 10.9197 11.4497 10.472 10.8974 10.472V11.472ZM10.8974 12.2V13.2C11.4497 13.2 11.8974 12.7523 11.8974 12.2H10.8974ZM9.28138 12.344L8.63058 11.5847C8.62446 11.59 8.6184 11.5953 8.61241 11.6007L9.28138 12.344ZM9.30538 13.088L8.68907 13.8755C8.7016 13.8853 8.71437 13.8948 8.72736 13.904L9.30538 13.088ZM10.3854 13.08L10.8875 13.9448C10.8944 13.9408 10.9012 13.9367 10.9079 13.9326L10.3854 13.08ZM10.7454 12.64L11.6941 12.3238C11.5608 11.924 11.1912 11.6507 10.7699 11.6403C10.3487 11.6299 9.96611 11.8848 9.81337 12.2776L10.7454 12.64ZM10.9374 13.216L11.8879 13.5267C11.9545 13.323 11.9539 13.1032 11.8861 12.8998L10.9374 13.216ZM10.4414 13.848L9.92688 12.9905L9.92688 12.9905L10.4414 13.848ZM11.8254 14V13.16H9.82538V14H11.8254ZM11.7424 12.7613L11.6624 12.5773L9.8283 13.3747L9.9083 13.5587L11.7424 12.7613ZM11.7454 12.976V11.472H9.74538V12.976H11.7454ZM11.7454 11.472C11.7454 10.9831 11.5841 10.482 11.1677 10.1059L9.82709 11.5901C9.81298 11.5774 9.79807 11.5609 9.78435 11.5412C9.77063 11.5214 9.76074 11.5021 9.75408 11.4853C9.74068 11.4516 9.74538 11.4415 9.74538 11.472H11.7454ZM11.1797 10.1169C10.7568 9.72224 10.2113 9.624 9.75338 9.624V11.624C9.80077 11.624 9.8365 11.6267 9.86205 11.6299C9.88763 11.6332 9.90043 11.6367 9.90308 11.6375C9.90687 11.6387 9.86606 11.6267 9.81506 11.5791L11.1797 10.1169ZM9.75338 9.624C9.41339 9.624 9.08006 9.67968 8.75715 9.78732L9.3896 11.6847C9.51469 11.643 9.6347 11.624 9.75338 11.624V9.624ZM8.77113 9.78277C8.45512 9.88297 8.15592 10.0312 7.89198 10.2405L9.13477 11.8075C9.18017 11.7715 9.2543 11.7277 9.37562 11.6892L8.77113 9.78277ZM9.40285 10.567L8.95485 9.69502L7.1759 10.609L7.6239 11.481L9.40285 10.567ZM8.64133 10.9695C8.76506 10.8823 8.93759 10.7983 9.17781 10.7324L8.64894 8.8036C8.22783 8.91906 7.83503 9.09102 7.48942 9.33452L8.64133 10.9695ZM9.17781 10.7324C9.42271 10.6653 9.66979 10.632 9.92138 10.632V8.632C9.4903 8.632 9.06537 8.68941 8.64894 8.8036L9.17781 10.7324ZM9.92138 10.632C10.4288 10.632 10.6767 10.7513 10.8004 10.8568L12.0983 9.33517C11.4967 8.822 10.7259 8.632 9.92138 8.632V10.632ZM10.8004 10.8568C10.8654 10.9122 10.9934 11.0653 10.9934 11.544H12.9934C12.9934 10.7107 12.7587 9.89843 12.0983 9.33517L10.8004 10.8568ZM10.9934 11.544V14H12.9934V11.544H10.9934ZM11.9934 13H10.8254V15H11.9934V13ZM9.51338 13.064C9.28551 13.064 9.14927 13.0258 9.07226 12.9898L8.22649 14.8022C8.62948 14.9902 9.06924 15.064 9.51338 15.064V13.064ZM9.08859 12.9976C8.98889 12.9489 8.95282 12.9052 8.93634 12.8798L7.25841 13.9682C7.49793 14.3374 7.82986 14.6085 8.21017 14.7944L9.08859 12.9976ZM8.93634 12.8798C8.91811 12.8517 8.90538 12.8209 8.90538 12.76H6.90538C6.90538 13.1897 7.02064 13.6016 7.25841 13.9682L8.93634 12.8798ZM8.90538 12.76C8.90538 12.6705 8.92447 12.6383 8.93207 12.6264L7.24668 11.5496C7.00894 11.9217 6.90538 12.3375 6.90538 12.76H8.90538ZM8.92143 12.6427C8.91716 12.6491 8.9176 12.6453 8.93366 12.6333C8.95112 12.6202 8.98787 12.5971 9.05446 12.571L8.32429 10.709C7.91262 10.8705 7.52574 11.1307 7.25732 11.5333L8.92143 12.6427ZM9.07012 12.5647C9.17747 12.5205 9.38893 12.472 9.75338 12.472V10.472C9.24316 10.472 8.74528 10.5355 8.30863 10.7153L9.07012 12.5647ZM9.75338 12.472H10.8974V10.472H9.75338V12.472ZM9.89738 11.472V12.2H11.8974V11.472H9.89738ZM10.8974 11.2H9.88938V13.2H10.8974V11.2ZM9.88938 11.2C9.55845 11.2 9.03332 11.2395 8.63058 11.5847L9.93217 13.1033C9.87834 13.1494 9.82976 13.176 9.7985 13.1903C9.76759 13.2045 9.74857 13.2089 9.74784 13.2091C9.74678 13.2093 9.7574 13.2068 9.7827 13.2043C9.80767 13.2019 9.84275 13.2 9.88938 13.2V11.2ZM8.61241 11.6007C8.2942 11.8871 8.12138 12.2776 8.12138 12.704H10.1214C10.1214 12.7583 10.1106 12.8324 10.0752 12.9121C10.0397 12.992 9.99161 13.0502 9.95034 13.0873L8.61241 11.6007ZM8.12138 12.704C8.12138 13.1618 8.31664 13.584 8.68907 13.8755L9.92168 12.3005C9.96961 12.338 10.027 12.3999 10.0692 12.4879C10.1109 12.575 10.1214 12.6536 10.1214 12.704H8.12138ZM8.72736 13.904C9.07916 14.1532 9.47886 14.224 9.82538 14.224V12.224C9.78341 12.224 9.77268 12.2195 9.7844 12.2225C9.79792 12.2261 9.83614 12.2385 9.88339 12.272L8.72736 13.904ZM9.82538 14.224C10.1938 14.224 10.5564 14.1371 10.8875 13.9448L9.88324 12.2152C9.88044 12.2168 9.87768 12.2181 9.87233 12.2195C9.86651 12.221 9.85197 12.224 9.82538 12.224V14.224ZM10.9079 13.9326C11.2717 13.7097 11.5288 13.3846 11.6774 13.0024L9.81337 12.2776C9.81084 12.284 9.81328 12.2756 9.82542 12.2608C9.838 12.2454 9.85225 12.2339 9.86281 12.2274L10.9079 13.9326ZM9.79669 12.9562L9.98869 13.5322L11.8861 12.8998L11.6941 12.3238L9.79669 12.9562ZM9.98688 12.9053C9.96754 12.9644 9.9511 12.976 9.92688 12.9905L10.9559 14.7055C11.4116 14.432 11.7259 14.0222 11.8879 13.5267L9.98688 12.9053ZM9.92688 12.9905C9.88785 13.0139 9.77254 13.064 9.51338 13.064V15.064C10.0115 15.064 10.5149 14.9701 10.9559 14.7055L9.92688 12.9905ZM19.5389 9.84L19.0702 10.7233C19.0773 10.7271 19.0844 10.7308 19.0917 10.7344L19.5389 9.84ZM20.1629 10.464L19.2787 10.9311C19.2822 10.9378 19.2858 10.9445 19.2895 10.9511L20.1629 10.464ZM20.3949 14V15C20.9472 15 21.3949 14.5523 21.3949 14H20.3949ZM19.1469 14H18.1469C18.1469 14.5523 18.5946 15 19.1469 15V14ZM18.9309 10.96L19.685 10.3032L19.685 10.3032L18.9309 10.96ZM17.8349 10.84L18.3205 11.7142C18.3286 11.7096 18.3367 11.705 18.3447 11.7003L17.8349 10.84ZM17.4989 11.208L18.399 11.6436L18.399 11.6436L17.4989 11.208ZM17.3789 14V15C17.9312 15 18.3789 14.5523 18.3789 14H17.3789ZM16.1309 14H15.1309C15.1309 14.5523 15.5786 15 16.1309 15V14ZM15.9149 10.96L15.1487 11.6026C15.1527 11.6074 15.1567 11.6121 15.1608 11.6168L15.9149 10.96ZM14.8269 10.84L15.3125 11.7142C15.3206 11.7096 15.3287 11.705 15.3367 11.7003L14.8269 10.84ZM14.4909 11.208L15.391 11.6436L15.391 11.6436L14.4909 11.208ZM14.3709 14V15C14.9232 15 15.3709 14.5523 15.3709 14H14.3709ZM13.1229 14H12.1229C12.1229 14.5523 12.5706 15 13.1229 15V14ZM13.1229 9.696V8.696C12.5706 8.696 12.1229 9.14371 12.1229 9.696H13.1229ZM14.3149 9.696H15.3149C15.3149 9.14371 14.8672 8.696 14.3149 8.696V9.696ZM14.3149 10.872L13.4769 11.4177C13.7184 11.7886 14.1751 11.9566 14.5995 11.8306C15.0238 11.7047 15.3149 11.3147 15.3149 10.872H14.3149ZM14.0909 10.528L13.1997 10.0743C13.0375 10.393 13.0578 10.774 13.2529 11.0737L14.0909 10.528ZM14.7229 9.864L15.2041 10.7406L15.2099 10.7374L14.7229 9.864ZM16.6989 9.936L16.1304 10.7587C16.1361 10.7627 16.1419 10.7665 16.1476 10.7703L16.6989 9.936ZM17.2909 10.848L17.0278 11.8128C17.3677 11.9055 17.7313 11.8125 17.9849 11.5679C18.2386 11.3234 18.3448 10.9634 18.2646 10.6204L17.2909 10.848ZM16.8509 10.728L15.9317 10.3341C15.8178 10.6 15.8246 10.9023 15.9504 11.1628C16.0762 11.4234 16.3086 11.6166 16.5878 11.6928L16.8509 10.728ZM17.5389 9.928L17.014 9.0768L17.0076 9.08081L17.5389 9.928ZM18.6349 10.632C18.8381 10.632 18.974 10.6723 19.0702 10.7233L20.0076 8.95665C19.5811 8.73035 19.1144 8.632 18.6349 8.632V10.632ZM19.0917 10.7344C19.1579 10.7675 19.2194 10.8189 19.2787 10.9311L21.0471 9.99688C20.8077 9.54376 20.4532 9.17913 19.9861 8.94557L19.0917 10.7344ZM19.2895 10.9511C19.3357 11.0338 19.3949 11.2079 19.3949 11.536H21.3949C21.3949 10.9895 21.2994 10.4488 21.0362 9.97693L19.2895 10.9511ZM19.3949 11.536V14H21.3949V11.536H19.3949ZM20.3949 13H19.1469V15H20.3949V13ZM20.1469 14V11.728H18.1469V14H20.1469ZM20.1469 11.728C20.1469 11.2729 20.0573 10.7307 19.685 10.3032L18.1768 11.6168C18.1331 11.5666 18.1259 11.5315 18.1302 11.5467C18.1353 11.5646 18.1469 11.6201 18.1469 11.728H20.1469ZM19.685 10.3032C19.3144 9.87777 18.8125 9.712 18.3229 9.712V11.712C18.3486 11.712 18.3326 11.716 18.2932 11.6999C18.2495 11.6821 18.2073 11.6518 18.1768 11.6168L19.685 10.3032ZM18.3229 9.712C17.9776 9.712 17.6362 9.79535 17.3251 9.97971L18.3447 11.7003C18.3409 11.7025 18.3365 11.7048 18.3316 11.7068C18.3266 11.7089 18.3222 11.7103 18.3186 11.7113C18.3109 11.7133 18.3112 11.712 18.3229 11.712V9.712ZM17.3492 9.96584C17.0047 10.1572 16.7577 10.444 16.5987 10.7724L18.399 11.6436C18.4014 11.6388 18.397 11.6492 18.3814 11.6663C18.3651 11.6841 18.3439 11.7012 18.3205 11.7142L17.3492 9.96584ZM16.5987 10.7724C16.4324 11.1162 16.3789 11.4889 16.3789 11.84H18.3789C18.3789 11.6791 18.4053 11.6305 18.399 11.6436L16.5987 10.7724ZM16.3789 11.84V14H18.3789V11.84H16.3789ZM17.3789 13H16.1309V15H17.3789V13ZM17.1309 14V11.728H15.1309V14H17.1309ZM17.1309 11.728C17.1309 11.2729 17.0413 10.7307 16.669 10.3032L15.1608 11.6168C15.1171 11.5666 15.1099 11.5315 15.1142 11.5467C15.1193 11.5646 15.1309 11.6201 15.1309 11.728H17.1309ZM16.6811 10.3174C16.3123 9.87776 15.8033 9.712 15.3149 9.712V11.712C15.341 11.712 15.3224 11.7161 15.2789 11.6982C15.2305 11.6782 15.1832 11.6437 15.1487 11.6026L16.6811 10.3174ZM15.3149 9.712C14.9696 9.712 14.6282 9.79535 14.3171 9.97971L15.3367 11.7003C15.3329 11.7025 15.3285 11.7048 15.3236 11.7068C15.3186 11.7089 15.3142 11.7103 15.3106 11.7113C15.3029 11.7133 15.3032 11.712 15.3149 11.712V9.712ZM14.3412 9.96584C13.9967 10.1572 13.7497 10.444 13.5907 10.7724L15.391 11.6436C15.3934 11.6388 15.389 11.6492 15.3734 11.6663C15.3571 11.6841 15.3359 11.7012 15.3125 11.7142L14.3412 9.96584ZM13.5907 10.7724C13.4244 11.1162 13.3709 11.4889 13.3709 11.84H15.3709C15.3709 11.6791 15.3973 11.6305 15.391 11.6436L13.5907 10.7724ZM13.3709 11.84V14H15.3709V11.84H13.3709ZM14.3709 13H13.1229V15H14.3709V13ZM14.1229 14V9.696H12.1229V14H14.1229ZM13.1229 10.696H14.3149V8.696H13.1229V10.696ZM13.3149 9.696V10.872H15.3149V9.696H13.3149ZM15.1529 10.3263L14.9289 9.98233L13.2529 11.0737L13.4769 11.4177L15.1529 10.3263ZM14.982 10.9817C15.0461 10.8558 15.1191 10.7873 15.2041 10.7406L14.2416 8.98742C13.7827 9.23939 13.4343 9.61353 13.1997 10.0743L14.982 10.9817ZM15.2099 10.7374C15.3227 10.6745 15.4665 10.632 15.6669 10.632V8.632C15.1633 8.632 14.6777 8.74418 14.2358 8.99064L15.2099 10.7374ZM15.6669 10.632C15.8811 10.632 16.0219 10.6837 16.1304 10.7587L17.2673 9.11327C16.7892 8.78292 16.242 8.632 15.6669 8.632V10.632ZM16.1476 10.7703C16.1958 10.8022 16.2682 10.8664 16.3171 11.0756L18.2646 10.6204C18.1215 10.0082 17.7993 9.46451 17.2501 9.10166L16.1476 10.7703ZM17.554 9.88324L17.114 9.76324L16.5878 11.6928L17.0278 11.8128L17.554 9.88324ZM17.77 11.1219C17.8325 10.9761 17.9249 10.8663 18.0702 10.7752L17.0076 9.08081C16.5235 9.3844 16.1573 9.80787 15.9317 10.3341L17.77 11.1219ZM18.0638 10.7792C18.2115 10.688 18.3919 10.632 18.6349 10.632V8.632C18.0566 8.632 17.5062 8.77329 17.014 9.07683L18.0638 10.7792ZM27.9295 9.84L27.4608 10.7233C27.4679 10.7271 27.4751 10.7308 27.4823 10.7344L27.9295 9.84ZM28.5535 10.464L27.6693 10.9311C27.6728 10.9378 27.6765 10.9445 27.6801 10.9511L28.5535 10.464ZM28.7855 14V15C29.3378 15 29.7855 14.5523 29.7855 14H28.7855ZM27.5375 14H26.5375C26.5375 14.5523 26.9852 15 27.5375 15V14ZM27.3215 10.96L28.0756 10.3032L28.0756 10.3032L27.3215 10.96ZM26.2255 10.84L26.7111 11.7142C26.7193 11.7096 26.7273 11.705 26.7353 11.7003L26.2255 10.84ZM25.8895 11.208L26.7897 11.6436L26.7897 11.6436L25.8895 11.208ZM25.7695 14V15C26.3218 15 26.7695 14.5523 26.7695 14H25.7695ZM24.5215 14H23.5215C23.5215 14.5523 23.9692 15 24.5215 15V14ZM24.3055 10.96L23.5393 11.6026C23.5433 11.6074 23.5473 11.6121 23.5514 11.6168L24.3055 10.96ZM23.2175 10.84L23.7031 11.7142C23.7113 11.7096 23.7193 11.705 23.7273 11.7003L23.2175 10.84ZM22.8815 11.208L23.7817 11.6436L23.7817 11.6436L22.8815 11.208ZM22.7615 14V15C23.3138 15 23.7615 14.5523 23.7615 14H22.7615ZM21.5135 14H20.5135C20.5135 14.5523 20.9612 15 21.5135 15V14ZM21.5135 9.696V8.696C20.9612 8.696 20.5135 9.14371 20.5135 9.696H21.5135ZM22.7055 9.696H23.7055C23.7055 9.14371 23.2578 8.696 22.7055 8.696V9.696ZM22.7055 10.872L21.8675 11.4177C22.1091 11.7886 22.5657 11.9566 22.9901 11.8306C23.4145 11.7047 23.7055 11.3147 23.7055 10.872H22.7055ZM22.4815 10.528L21.5903 10.0743C21.4281 10.393 21.4484 10.774 21.6435 11.0737L22.4815 10.528ZM23.1135 9.864L23.5948 10.7406L23.6006 10.7374L23.1135 9.864ZM25.0895 9.936L24.5211 10.7587C24.5268 10.7627 24.5325 10.7665 24.5382 10.7703L25.0895 9.936ZM25.6815 10.848L25.4184 11.8128C25.7583 11.9055 26.1219 11.8125 26.3755 11.5679C26.6292 11.3234 26.7354 10.9634 26.6552 10.6204L25.6815 10.848ZM25.2415 10.728L24.3224 10.3341C24.2084 10.6 24.2152 10.9023 24.341 11.1628C24.4668 11.4234 24.6993 11.6166 24.9784 11.6928L25.2415 10.728ZM25.9295 9.928L25.4046 9.0768L25.3982 9.08081L25.9295 9.928ZM27.0255 10.632C27.2287 10.632 27.3646 10.6723 27.4608 10.7233L28.3982 8.95665C27.9717 8.73035 27.505 8.632 27.0255 8.632V10.632ZM27.4823 10.7344C27.5485 10.7675 27.61 10.8189 27.6693 10.9311L29.4377 9.99688C29.1983 9.54376 28.8438 9.17913 28.3767 8.94557L27.4823 10.7344ZM27.6801 10.9511C27.7263 11.0338 27.7855 11.2079 27.7855 11.536H29.7855C29.7855 10.9895 29.69 10.4488 29.4269 9.97693L27.6801 10.9511ZM27.7855 11.536V14H29.7855V11.536H27.7855ZM28.7855 13H27.5375V15H28.7855V13ZM28.5375 14V11.728H26.5375V14H28.5375ZM28.5375 11.728C28.5375 11.2729 28.4479 10.7307 28.0756 10.3032L26.5674 11.6168C26.5237 11.5666 26.5165 11.5315 26.5208 11.5467C26.5259 11.5646 26.5375 11.6201 26.5375 11.728H28.5375ZM28.0756 10.3032C27.705 9.87777 27.2031 9.712 26.7135 9.712V11.712C26.7393 11.712 26.7232 11.716 26.6838 11.6999C26.6401 11.6821 26.5979 11.6518 26.5674 11.6168L28.0756 10.3032ZM26.7135 9.712C26.3682 9.712 26.0268 9.79535 25.7157 9.97971L26.7353 11.7003C26.7316 11.7025 26.7271 11.7048 26.7222 11.7068C26.7173 11.7089 26.7128 11.7103 26.7092 11.7113C26.7015 11.7133 26.7018 11.712 26.7135 11.712V9.712ZM25.7399 9.96584C25.3954 10.1572 25.1483 10.444 24.9893 10.7724L26.7897 11.6436C26.792 11.6388 26.7876 11.6492 26.772 11.6663C26.7557 11.6841 26.7345 11.7012 26.7111 11.7142L25.7399 9.96584ZM24.9893 10.7724C24.823 11.1162 24.7695 11.4889 24.7695 11.84H26.7695C26.7695 11.6791 26.796 11.6305 26.7897 11.6436L24.9893 10.7724ZM24.7695 11.84V14H26.7695V11.84H24.7695ZM25.7695 13H24.5215V15H25.7695V13ZM25.5215 14V11.728H23.5215V14H25.5215ZM25.5215 11.728C25.5215 11.2729 25.4319 10.7307 25.0596 10.3032L23.5514 11.6168C23.5077 11.5666 23.5005 11.5315 23.5048 11.5467C23.5099 11.5646 23.5215 11.6201 23.5215 11.728H25.5215ZM25.0717 10.3174C24.703 9.87776 24.1939 9.712 23.7055 9.712V11.712C23.7317 11.712 23.713 11.7161 23.6695 11.6982C23.6211 11.6782 23.5738 11.6437 23.5393 11.6026L25.0717 10.3174ZM23.7055 9.712C23.3602 9.712 23.0188 9.79535 22.7077 9.97971L23.7273 11.7003C23.7236 11.7025 23.7191 11.7048 23.7142 11.7068C23.7093 11.7089 23.7048 11.7103 23.7012 11.7113C23.6935 11.7133 23.6938 11.712 23.7055 11.712V9.712ZM22.7319 9.96584C22.3874 10.1572 22.1403 10.444 21.9813 10.7724L23.7817 11.6436C23.784 11.6388 23.7796 11.6492 23.764 11.6663C23.7477 11.6841 23.7265 11.7012 23.7031 11.7142L22.7319 9.96584ZM21.9813 10.7724C21.815 11.1162 21.7615 11.4889 21.7615 11.84H23.7615C23.7615 11.6791 23.788 11.6305 23.7817 11.6436L21.9813 10.7724ZM21.7615 11.84V14H23.7615V11.84H21.7615ZM22.7615 13H21.5135V15H22.7615V13ZM22.5135 14V9.696H20.5135V14H22.5135ZM21.5135 10.696H22.7055V8.696H21.5135V10.696ZM21.7055 9.696V10.872H23.7055V9.696H21.7055ZM23.5435 10.3263L23.3195 9.98233L21.6435 11.0737L21.8675 11.4177L23.5435 10.3263ZM23.3727 10.9817C23.4367 10.8558 23.5097 10.7873 23.5948 10.7406L22.6322 8.98742C22.1733 9.23939 21.8249 9.61353 21.5903 10.0743L23.3727 10.9817ZM23.6006 10.7374C23.7133 10.6745 23.8571 10.632 24.0575 10.632V8.632C23.5539 8.632 23.0684 8.74418 22.6264 8.99064L23.6006 10.7374ZM24.0575 10.632C24.2718 10.632 24.4125 10.6837 24.5211 10.7587L25.6579 9.11327C25.1798 8.78292 24.6326 8.632 24.0575 8.632V10.632ZM24.5382 10.7703C24.5864 10.8022 24.6589 10.8664 24.7078 11.0756L26.6552 10.6204C26.5121 10.0082 26.1899 9.46451 25.6408 9.10166L24.5382 10.7703ZM25.9446 9.88324L25.5046 9.76324L24.9784 11.6928L25.4184 11.8128L25.9446 9.88324ZM26.1606 11.1219C26.2231 10.9761 26.3156 10.8663 26.4608 10.7752L25.3982 9.08081C24.9141 9.3844 24.5479 9.80787 24.3224 10.3341L26.1606 11.1219ZM26.4544 10.7792C26.6022 10.688 26.7825 10.632 27.0255 10.632V8.632C26.4472 8.632 25.8968 8.77329 25.4046 9.07683L26.4544 10.7792ZM30.7754 13.776L30.3128 14.6626L30.318 14.6653L30.7754 13.776ZM29.9194 12.992L29.0631 13.5085L29.0668 13.5146L29.9194 12.992ZM29.9114 10.704L29.0551 10.1875L29.0527 10.1915L29.9114 10.704ZM30.7354 9.92L31.2095 10.8005L31.2199 10.7948L30.7354 9.92ZM33.0474 9.904L32.5724 10.784C32.578 10.787 32.5835 10.7899 32.5891 10.7928L33.0474 9.904ZM33.8554 10.672L32.9931 11.1784L32.9967 11.1845L33.8554 10.672ZM34.1434 12.032L35.1393 12.1225L35.1399 12.115L34.1434 12.032ZM34.1274 12.2V13.2C34.6411 13.2 35.0713 12.8107 35.1224 12.2995L34.1274 12.2ZM30.6314 12.2H29.6314C29.6314 12.7523 30.0791 13.2 30.6314 13.2V12.2ZM30.6314 11.472V10.472C30.0791 10.472 29.6314 10.9197 29.6314 11.472H30.6314ZM33.4714 11.472L33.8817 12.3839C34.3116 12.1905 34.548 11.7231 34.4491 11.2621C34.3502 10.8012 33.9428 10.472 33.4714 10.472V11.472ZM32.9914 11.688H31.9914C31.9914 12.0273 32.1635 12.3435 32.4484 12.5278C32.7334 12.712 33.0923 12.7392 33.4017 12.5999L32.9914 11.688ZM32.8554 11.104L31.9786 11.5848L31.9786 11.5848L32.8554 11.104ZM32.4794 10.72L31.9649 11.5775C31.972 11.5818 31.9791 11.5859 31.9864 11.59L32.4794 10.72ZM31.3514 10.72L31.8444 11.5901L31.8535 11.5848L31.3514 10.72ZM30.9754 11.112L31.8523 11.5929L31.8585 11.5812L30.9754 11.112ZM30.9914 12.52L30.1184 13.0078C30.1242 13.0181 30.1301 13.0282 30.1362 13.0383L30.9914 12.52ZM31.4314 12.928L30.974 13.8173C30.9841 13.8224 30.9942 13.8274 31.0044 13.8322L31.4314 12.928ZM32.7034 12.96L32.3368 12.0295L32.327 12.0335L32.7034 12.96ZM33.1834 12.648L33.9185 11.9701C33.7362 11.7723 33.4819 11.6564 33.213 11.6484C32.9442 11.6405 32.6835 11.7411 32.4897 11.9277L33.1834 12.648ZM33.8474 13.368L34.5977 14.029C34.9363 13.6447 34.9298 13.0666 34.5825 12.6901L33.8474 13.368ZM33.1034 13.888L33.469 14.8188C33.4738 14.8169 33.4786 14.815 33.4833 14.813L33.1034 13.888ZM32.0714 13.064C31.7129 13.064 31.4425 12.9946 31.2327 12.8867L30.318 14.6653C30.8549 14.9414 31.4485 15.064 32.0714 15.064V13.064ZM31.2379 12.8894C31.0188 12.7751 30.8733 12.6348 30.772 12.4694L29.0668 13.5146C29.3708 14.0105 29.7959 14.3929 30.3128 14.6626L31.2379 12.8894ZM30.7757 12.4755C30.6752 12.3089 30.6154 12.1091 30.6154 11.848H28.6154C28.6154 12.4403 28.7582 13.0031 29.0631 13.5085L30.7757 12.4755ZM30.6154 11.848C30.6154 11.5739 30.6761 11.3739 30.7701 11.2165L29.0527 10.1915C28.752 10.6954 28.6154 11.2581 28.6154 11.848H30.6154ZM30.7677 11.2205C30.8775 11.0384 31.0199 10.9025 31.2095 10.8005L30.2613 9.03953C29.7575 9.3108 29.3506 9.69759 29.0551 10.1875L30.7677 11.2205ZM31.2199 10.7948C31.4033 10.6932 31.6256 10.632 31.9114 10.632V8.632C31.3225 8.632 30.7608 8.7628 30.2509 9.04521L31.2199 10.7948ZM31.9114 10.632C32.1844 10.632 32.397 10.6894 32.5724 10.784L33.5223 9.02398C33.0257 8.75598 32.481 8.632 31.9114 8.632V10.632ZM32.5891 10.7928C32.7597 10.8808 32.8901 11.003 32.9931 11.1784L34.7177 10.1656C34.426 9.669 34.0177 9.27922 33.5057 9.0152L32.5891 10.7928ZM32.9967 11.1845C33.0842 11.3312 33.1514 11.5434 33.1514 11.864H35.1514C35.1514 11.2566 35.0212 10.6742 34.7141 10.1595L32.9967 11.1845ZM33.1514 11.864C33.1514 11.8768 33.1506 11.904 33.1468 11.949L35.1399 12.115C35.1468 12.032 35.1514 11.9472 35.1514 11.864H33.1514ZM33.1475 11.9415C33.1424 11.9974 33.1373 12.0504 33.1323 12.1005L35.1224 12.2995C35.1281 12.2429 35.1337 12.1839 35.1393 12.1225L33.1475 11.9415ZM34.1274 11.2H30.6314V13.2H34.1274V11.2ZM31.6314 12.2V11.472H29.6314V12.2H31.6314ZM30.6314 12.472H33.4714V10.472H30.6314V12.472ZM33.061 10.5601L32.581 10.7761L33.4017 12.5999L33.8817 12.3839L33.061 10.5601ZM33.9914 11.688C33.9914 11.3275 33.9176 10.9613 33.7322 10.6232L31.9786 11.5848C31.9776 11.583 31.9802 11.5869 31.9834 11.6008C31.9869 11.6155 31.9914 11.6433 31.9914 11.688H33.9914ZM33.7322 10.6232C33.5546 10.2993 33.2982 10.0346 32.9724 9.84998L31.9864 11.59C31.9872 11.5905 31.9864 11.5901 31.9846 11.5887C31.9828 11.5873 31.9808 11.5856 31.9789 11.5836C31.977 11.5817 31.9759 11.5803 31.9756 11.5799C31.9754 11.5796 31.9765 11.5811 31.9786 11.5848L33.7322 10.6232ZM32.9939 9.86251C32.6572 9.66052 32.2875 9.576 31.9194 9.576V11.576C31.9509 11.576 31.9665 11.5795 31.9703 11.5805C31.9734 11.5813 31.9703 11.5807 31.9649 11.5775L32.9939 9.86251ZM31.9194 9.576C31.5506 9.576 31.1842 9.66071 30.8492 9.85521L31.8535 11.5848C31.8542 11.5844 31.8564 11.583 31.8631 11.5813C31.8705 11.5795 31.888 11.576 31.9194 11.576V9.576ZM30.8584 9.84998C30.5242 10.0393 30.2674 10.3131 30.0923 10.6428L31.8585 11.5812C31.8598 11.5786 31.8609 11.5769 31.8616 11.5757C31.8623 11.5746 31.8626 11.5741 31.8626 11.5741C31.8626 11.5741 31.8623 11.5745 31.8617 11.5753C31.8611 11.576 31.8602 11.577 31.8591 11.5782C31.8567 11.5807 31.8538 11.5833 31.8508 11.5856C31.8478 11.588 31.8455 11.5894 31.8444 11.59L30.8584 9.84998ZM30.0986 10.6312C29.9113 10.9726 29.8394 11.3427 29.8394 11.704H31.8394C31.8394 11.6067 31.8581 11.5821 31.8522 11.5928L30.0986 10.6312ZM29.8394 11.704V11.896H31.8394V11.704H29.8394ZM29.8394 11.896C29.8394 12.2789 29.9234 12.6589 30.1184 13.0078L31.8643 12.0322C31.8566 12.0184 31.8394 11.9824 31.8394 11.896H29.8394ZM30.1362 13.0383C30.3406 13.3756 30.6265 13.6385 30.974 13.8173L31.8887 12.0387C31.8629 12.0255 31.8555 12.0164 31.8466 12.0017L30.1362 13.0383ZM31.0044 13.8322C31.3545 13.9976 31.7296 14.064 32.1034 14.064V12.064C31.9651 12.064 31.8922 12.0397 31.8584 12.0238L31.0044 13.8322ZM32.1034 14.064C32.4312 14.064 32.7642 14.0147 33.0798 13.8865L32.327 12.0335C32.3012 12.044 32.2342 12.064 32.1034 12.064V14.064ZM33.0699 13.8904C33.3745 13.7704 33.6442 13.5925 33.877 13.3683L32.4897 11.9277C32.4345 11.9808 32.3843 12.0109 32.3369 12.0296L33.0699 13.8904ZM32.4483 13.3259L33.1123 14.0459L34.5825 12.6901L33.9185 11.9701L32.4483 13.3259ZM33.097 12.707C33.0094 12.8065 32.8918 12.8938 32.7235 12.963L33.4833 14.813C33.9123 14.6368 34.2907 14.3775 34.5977 14.029L33.097 12.707ZM32.7377 12.9572C32.5775 13.0202 32.3615 13.064 32.0714 13.064V15.064C32.5599 15.064 33.0319 14.9905 33.469 14.8188L32.7377 12.9572ZM34.9823 14H33.9823C33.9823 14.5523 34.43 15 34.9823 15V14ZM34.9823 9.696V8.696C34.43 8.696 33.9823 9.14371 33.9823 9.696H34.9823ZM36.1743 9.696H37.1743C37.1743 9.14371 36.7265 8.696 36.1743 8.696V9.696ZM36.1743 10.912L35.2718 11.3427C35.473 11.7644 35.9394 11.9905 36.3951 11.8873C36.8507 11.7841 37.1743 11.3792 37.1743 10.912H36.1743ZM36.0063 10.56L35.0846 10.1719C34.9738 10.4351 34.9808 10.7331 35.1038 10.9907L36.0063 10.56ZM36.6223 9.872L37.1023 10.7493C37.1065 10.747 37.1107 10.7446 37.1148 10.7423L36.6223 9.872ZM37.6543 9.632H38.6543C38.6543 9.07972 38.2065 8.632 37.6543 8.632V9.632ZM37.6543 10.784L37.5547 11.779C37.8359 11.8072 38.1158 11.715 38.3253 11.5255C38.5347 11.3359 38.6543 11.0665 38.6543 10.784H37.6543ZM37.5103 10.776L37.3862 11.7683C37.4274 11.7734 37.4688 11.776 37.5103 11.776V10.776ZM36.5423 11.064L37.2205 11.7988L37.2213 11.7981L36.5423 11.064ZM36.2303 14V15C36.7825 15 37.2303 14.5523 37.2303 14H36.2303ZM35.9823 14V9.696H33.9823V14H35.9823ZM34.9823 10.696H36.1743V8.696H34.9823V10.696ZM35.1743 9.696V10.912H37.1743V9.696H35.1743ZM37.0767 10.4813L36.9087 10.1293L35.1038 10.9907L35.2718 11.3427L37.0767 10.4813ZM36.9279 10.9481C36.9704 10.847 37.0229 10.7927 37.1023 10.7493L36.1422 8.99474C35.6563 9.26064 35.2981 9.66501 35.0846 10.1719L36.9279 10.9481ZM37.1148 10.7423C37.2143 10.6859 37.3793 10.632 37.6543 10.632V8.632C37.1185 8.632 36.5955 8.73806 36.1297 9.00174L37.1148 10.7423ZM36.6543 9.632V10.784H38.6543V9.632H36.6543ZM37.7538 9.78896C37.6753 9.78112 37.5933 9.776 37.5103 9.776V11.776C37.5126 11.776 37.5265 11.7762 37.5547 11.779L37.7538 9.78896ZM37.6343 9.78372C37.5461 9.77269 37.459 9.768 37.3743 9.768V11.768C37.3855 11.768 37.3891 11.7686 37.3862 11.7683L37.6343 9.78372ZM37.3743 9.768C36.828 9.768 36.2931 9.9323 35.8632 10.3299L37.2213 11.7981C37.2273 11.7926 37.2326 11.7887 37.2454 11.7842C37.2608 11.7787 37.2999 11.768 37.3743 11.768V9.768ZM35.864 10.3292C35.3729 10.7825 35.2303 11.4058 35.2303 11.968H37.2303C37.2303 11.8433 37.2465 11.7807 37.2535 11.7602C37.2585 11.7458 37.2525 11.7693 37.2205 11.7988L35.864 10.3292ZM35.2303 11.968V14H37.2303V11.968H35.2303ZM36.2303 13H34.9823V15H36.2303V13Z" fill="black"/>
<rect x="25.5617" y="8.11502" width="7.125" height="3.125" rx="0.8125" transform="rotate(-75.884 25.5617 8.11502)" fill="url(#paint1_linear_1_15)" stroke="black" stroke-width="1.125"/>
<mask id="path-4-outside-1_1_15" maskUnits="userSpaceOnUse" x="28.306" y="2.86054" width="10.9175" height="7.28788" fill="black">
<rect fill="white" x="28.306" y="2.86054" width="10.9175" height="7.28788"/>
<path d="M28.7937 5.76995L29.0376 4.80015L36.3113 6.62933C36.579 6.69665 36.7415 6.96825 36.6742 7.23595C36.6068 7.50386 36.335 7.66642 36.0671 7.59905L28.7937 5.76995Z"/>
</mask>
<path d="M28.7937 5.76995L29.0376 4.80015L36.3113 6.62933C36.579 6.69665 36.7415 6.96825 36.6742 7.23595C36.6068 7.50386 36.335 7.66642 36.0671 7.59905L28.7937 5.76995Z" fill="url(#paint2_linear_1_15)"/>
<path d="M28.7937 5.76995L29.0376 4.80015L28.7937 5.76995ZM36.5857 5.5383C37.456 5.75716 37.984 6.64006 37.7652 7.51033C37.5463 8.38079 36.6632 8.90898 35.7927 8.69008L35.705 6.47686L35.4611 7.44666L36.5857 5.5383ZM37.7652 7.51033C37.5463 8.38079 36.6632 8.90898 35.7927 8.69008L28.5194 6.86098L29.0376 4.80015L36.3113 6.62933C36.4399 6.66166 36.5503 6.74374 36.6184 6.8575C36.6864 6.97126 36.7065 7.1074 36.6742 7.23595L37.7652 7.51033ZM29.312 3.70912L36.5857 5.5383C37.456 5.75716 37.984 6.64006 37.7652 7.51033L36.6742 7.23595C36.6418 7.36461 36.5597 7.47514 36.4458 7.54323C36.332 7.61132 36.1957 7.6314 36.0671 7.59905L29.2788 5.89194L28.7937 5.76995L29.312 3.70912Z" fill="black" mask="url(#path-4-outside-1_1_15)"/>
<defs>
<linearGradient id="paint0_linear_1_15" x1="19.5" y1="6" x2="19.5" y2="16" gradientUnits="userSpaceOnUse">
<stop stop-color="#00D1FF"/>
<stop offset="1" stop-color="#001AFF"/>
</linearGradient>
<linearGradient id="paint1_linear_1_15" x1="29.2444" y1="7.70669" x2="29.2444" y2="9.70669" gradientUnits="userSpaceOnUse">
<stop stop-color="#C9C9C9"/>
<stop offset="1" stop-color="#9A9A9A"/>
</linearGradient>
<linearGradient id="paint2_linear_1_15" x1="28.9157" y1="5.28505" x2="36.6741" y2="7.23613" gradientUnits="userSpaceOnUse">
<stop stop-color="#A45F20"/>
<stop offset="1" stop-color="#7B4717"/>
</linearGradient>
</defs>
</svg>
