<svg width="37" height="9" viewBox="0 0 37 9" fill="none" xmlns="http://www.w3.org/2000/svg">
<g clip-path="url(#clip0_1_13)">
<path d="M1 8V1H2V3H5V1H6V8H5V4H2V8H1ZM7 7V6H8V7H7ZM8 8V7H11V6H8V5H11V4H12V8H8ZM8 4V3H11V4H8ZM15 6V4H16V6H15ZM17 8V4H18V8H17ZM13 8V3H15V4H14V8H13ZM16 4V3H17V4H16ZM21 6V4H22V6H21ZM23 8V4H24V8H23ZM19 8V3H21V4H20V8H19ZM22 4V3H23V4H22ZM26 8V7H30V8H26ZM25 7V4H26V5H29V4H30V6H26V7H25ZM26 4V3H29V4H26ZM35 5V4H36V5H35ZM31 8V3H32V4H33V5H32V8H31ZM33 4V3H35V4H33Z" fill="url(#paint0_linear_1_13)"/>
<path d="M1 8H0V9H1V8ZM1 1V0H0V1H1ZM2 1H3V0H2V1ZM2 3H1V4H2V3ZM5 3V4H6V3H5ZM5 1V0H4V1H5ZM6 1H7V0H6V1ZM6 8V9H7V8H6ZM5 8H4V9H5V8ZM5 4H6V3H5V4ZM2 4V3H1V4H2ZM2 8V9H3V8H2ZM2 8V1H0V8H2ZM1 2H2V0H1V2ZM1 1V3H3V1H1ZM2 4H5V2H2V4ZM6 3V1H4V3H6ZM5 2H6V0H5V2ZM5 1V8H7V1H5ZM6 7H5V9H6V7ZM6 8V4H4V8H6ZM5 3H2V5H5V3ZM1 4V8H3V4H1ZM2 7H1V9H2V7ZM7 7H6V8H7V7ZM7 6V5H6V6H7ZM8 6H9V5H8V6ZM8 7V8H9V7H8ZM8 8H7V9H8V8ZM8 7V6H7V7H8ZM11 7V8H12V7H11ZM11 6H12V5H11V6ZM8 6H7V7H8V6ZM8 5V4H7V5H8ZM11 5V6H12V5H11ZM11 4V3H10V4H11ZM12 4H13V3H12V4ZM12 8V9H13V8H12ZM8 4H7V5H8V4ZM8 3V2H7V3H8ZM11 3H12V2H11V3ZM11 4V5H12V4H11ZM8 7V6H6V7H8ZM7 7H8V5H7V7ZM7 6V7H9V6H7ZM8 6H7V8H8V6ZM9 8V7H7V8H9ZM8 8H11V6H8V8ZM12 7V6H10V7H12ZM11 5H8V7H11V5ZM9 6V5H7V6H9ZM8 6H11V4H8V6ZM12 5V4H10V5H12ZM11 5H12V3H11V5ZM11 4V8H13V4H11ZM12 7H8V9H12V7ZM9 4V3H7V4H9ZM8 4H11V2H8V4ZM10 3V4H12V3H10ZM11 3H8V5H11V3ZM15 6H14V7H15V6ZM15 4V3H14V4H15ZM16 4H17V3H16V4ZM16 6V7H17V6H16ZM17 8H16V9H17V8ZM17 4V3H16V4H17ZM18 4H19V3H18V4ZM18 8V9H19V8H18ZM13 8H12V9H13V8ZM13 3V2H12V3H13ZM15 3H16V2H15V3ZM15 4V5H16V4H15ZM14 4V3H13V4H14ZM14 8V9H15V8H14ZM16 4H15V5H16V4ZM16 3V2H15V3H16ZM17 3H18V2H17V3ZM17 4V5H18V4H17ZM16 6V4H14V6H16ZM15 5H16V3H15V5ZM15 4V6H17V4H15ZM16 5H15V7H16V5ZM18 8V4H16V8H18ZM17 5H18V3H17V5ZM17 4V8H19V4H17ZM18 7H17V9H18V7ZM14 8V3H12V8H14ZM13 4H15V2H13V4ZM14 3V4H16V3H14ZM15 3H14V5H15V3ZM13 4V8H15V4H13ZM14 7H13V9H14V7ZM17 4V3H15V4H17ZM16 4H17V2H16V4ZM16 3V4H18V3H16ZM17 3H16V5H17V3ZM21 6H20V7H21V6ZM21 4V3H20V4H21ZM22 4H23V3H22V4ZM22 6V7H23V6H22ZM23 8H22V9H23V8ZM23 4V3H22V4H23ZM24 4H25V3H24V4ZM24 8V9H25V8H24ZM19 8H18V9H19V8ZM19 3V2H18V3H19ZM21 3H22V2H21V3ZM21 4V5H22V4H21ZM20 4V3H19V4H20ZM20 8V9H21V8H20ZM22 4H21V5H22V4ZM22 3V2H21V3H22ZM23 3H24V2H23V3ZM23 4V5H24V4H23ZM22 6V4H20V6H22ZM21 5H22V3H21V5ZM21 4V6H23V4H21ZM22 5H21V7H22V5ZM24 8V4H22V8H24ZM23 5H24V3H23V5ZM23 4V8H25V4H23ZM24 7H23V9H24V7ZM20 8V3H18V8H20ZM19 4H21V2H19V4ZM20 3V4H22V3H20ZM21 3H20V5H21V3ZM19 4V8H21V4H19ZM20 7H19V9H20V7ZM23 4V3H21V4H23ZM22 4H23V2H22V4ZM22 3V4H24V3H22ZM23 3H22V5H23V3ZM26 8H25V9H26V8ZM26 7V6H25V7H26ZM30 7H31V6H30V7ZM30 8V9H31V8H30ZM25 7H24V8H25V7ZM25 4V3H24V4H25ZM26 4H27V3H26V4ZM26 5H25V6H26V5ZM29 5V6H30V5H29ZM29 4V3H28V4H29ZM30 4H31V3H30V4ZM30 6V7H31V6H30ZM26 6V5H25V6H26ZM26 7V8H27V7H26ZM26 4H25V5H26V4ZM26 3V2H25V3H26ZM29 3H30V2H29V3ZM29 4V5H30V4H29ZM27 8V7H25V8H27ZM26 8H30V6H26V8ZM29 7V8H31V7H29ZM30 7H26V9H30V7ZM26 7V4H24V7H26ZM25 5H26V3H25V5ZM25 4V5H27V4H25ZM26 6H29V4H26V6ZM30 5V4H28V5H30ZM29 5H30V3H29V5ZM29 4V6H31V4H29ZM30 5H26V7H30V5ZM25 6V7H27V6H25ZM26 6H25V8H26V6ZM27 4V3H25V4H27ZM26 4H29V2H26V4ZM28 3V4H30V3H28ZM29 3H26V5H29V3ZM35 5H34V6H35V5ZM35 4V3H34V4H35ZM36 4H37V3H36V4ZM36 5V6H37V5H36ZM31 8H30V9H31V8ZM31 3V2H30V3H31ZM32 3H33V2H32V3ZM32 4H31V5H32V4ZM33 4H34V3H33V4ZM33 5V6H34V5H33ZM32 5V4H31V5H32ZM32 8V9H33V8H32ZM33 4H32V5H33V4ZM33 3V2H32V3H33ZM35 3H36V2H35V3ZM35 4V5H36V4H35ZM36 5V4H34V5H36ZM35 5H36V3H35V5ZM35 4V5H37V4H35ZM36 4H35V6H36V4ZM32 8V3H30V8H32ZM31 4H32V2H31V4ZM31 3V4H33V3H31ZM32 5H33V3H32V5ZM32 4V5H34V4H32ZM33 4H32V6H33V4ZM31 5V8H33V5H31ZM32 7H31V9H32V7ZM34 4V3H32V4H34ZM33 4H35V2H33V4ZM34 3V4H36V3H34ZM35 3H33V5H35V3Z" fill="black"/>
</g>
<defs>
<linearGradient id="paint0_linear_1_13" x1="19" y1="0" x2="19" y2="11" gradientUnits="userSpaceOnUse">
<stop stop-color="#00D1FF"/>
<stop offset="1" stop-color="#001AFF"/>
</linearGradient>
<clipPath id="clip0_1_13">
<rect width="37" height="9" fill="white"/>
</clipPath>
</defs>
</svg>
