<svg width="39" height="9" viewBox="0 0 39 9" fill="none" xmlns="http://www.w3.org/2000/svg">
<g clip-path="url(#clip0_1_13)">
<path d="M5.65244 1.4H6.94844V7H5.65244V1.4ZM3.10844 7H1.81244V1.4H3.10844V7ZM5.74844 4.704H3.01244V3.608H5.74844V4.704ZM10.8254 7V6.16L10.7454 5.976V4.472C10.7454 4.20533 10.6627 3.99733 10.4974 3.848C10.3374 3.69867 10.0894 3.624 9.75338 3.624C9.52404 3.624 9.29738 3.66133 9.07338 3.736C8.85471 3.80533 8.66804 3.90133 8.51338 4.024L8.06538 3.152C8.30004 2.98667 8.58271 2.85867 8.91338 2.768C9.24404 2.67733 9.58004 2.632 9.92138 2.632C10.5774 2.632 11.0867 2.78667 11.4494 3.096C11.812 3.40533 11.9934 3.888 11.9934 4.544V7H10.8254ZM9.51338 7.064C9.17738 7.064 8.88938 7.008 8.64938 6.896C8.40938 6.77867 8.22538 6.62133 8.09738 6.424C7.96938 6.22667 7.90538 6.00533 7.90538 5.76C7.90538 5.504 7.96671 5.28 8.08938 5.088C8.21738 4.896 8.41738 4.74667 8.68938 4.64C8.96138 4.528 9.31604 4.472 9.75338 4.472H10.8974V5.2H9.88938C9.59604 5.2 9.39338 5.248 9.28138 5.344C9.17471 5.44 9.12138 5.56 9.12138 5.704C9.12138 5.864 9.18271 5.992 9.30538 6.088C9.43338 6.17867 9.60671 6.224 9.82538 6.224C10.0334 6.224 10.22 6.176 10.3854 6.08C10.5507 5.97867 10.6707 5.832 10.7454 5.64L10.9374 6.216C10.8467 6.49333 10.6814 6.704 10.4414 6.848C10.2014 6.992 9.89204 7.064 9.51338 7.064ZM18.6349 2.632C18.9762 2.632 19.2775 2.70133 19.5389 2.84C19.8055 2.97333 20.0135 3.18133 20.1629 3.464C20.3175 3.74133 20.3949 4.09867 20.3949 4.536V7H19.1469V4.728C19.1469 4.38133 19.0749 4.12533 18.9309 3.96C18.7869 3.79467 18.5842 3.712 18.3229 3.712C18.1415 3.712 17.9789 3.75467 17.8349 3.84C17.6909 3.92 17.5789 4.04267 17.4989 4.208C17.4189 4.37333 17.3789 4.584 17.3789 4.84V7H16.1309V4.728C16.1309 4.38133 16.0589 4.12533 15.9149 3.96C15.7762 3.79467 15.5762 3.712 15.3149 3.712C15.1335 3.712 14.9709 3.75467 14.8269 3.84C14.6829 3.92 14.5709 4.04267 14.4909 4.208C14.4109 4.37333 14.3709 4.584 14.3709 4.84V7H13.1229V2.696H14.3149V3.872L14.0909 3.528C14.2402 3.23467 14.4509 3.01333 14.7229 2.864C15.0002 2.70933 15.3149 2.632 15.6669 2.632C16.0615 2.632 16.4055 2.73333 16.6989 2.936C16.9975 3.13333 17.1949 3.43733 17.2909 3.848L16.8509 3.728C16.9949 3.392 17.2242 3.12533 17.5389 2.928C17.8589 2.73067 18.2242 2.632 18.6349 2.632ZM27.0255 2.632C27.3668 2.632 27.6682 2.70133 27.9295 2.84C28.1962 2.97333 28.4042 3.18133 28.5535 3.464C28.7082 3.74133 28.7855 4.09867 28.7855 4.536V7H27.5375V4.728C27.5375 4.38133 27.4655 4.12533 27.3215 3.96C27.1775 3.79467 26.9748 3.712 26.7135 3.712C26.5322 3.712 26.3695 3.75467 26.2255 3.84C26.0815 3.92 25.9695 4.04267 25.8895 4.208C25.8095 4.37333 25.7695 4.584 25.7695 4.84V7H24.5215V4.728C24.5215 4.38133 24.4495 4.12533 24.3055 3.96C24.1668 3.79467 23.9668 3.712 23.7055 3.712C23.5242 3.712 23.3615 3.75467 23.2175 3.84C23.0735 3.92 22.9615 4.04267 22.8815 4.208C22.8015 4.37333 22.7615 4.584 22.7615 4.84V7H21.5135V2.696H22.7055V3.872L22.4815 3.528C22.6308 3.23467 22.8415 3.01333 23.1135 2.864C23.3908 2.70933 23.7055 2.632 24.0575 2.632C24.4522 2.632 24.7962 2.73333 25.0895 2.936C25.3882 3.13333 25.5855 3.43733 25.6815 3.848L25.2415 3.728C25.3855 3.392 25.6148 3.12533 25.9295 2.928C26.2495 2.73067 26.6148 2.632 27.0255 2.632ZM32.0714 7.064C31.5807 7.064 31.1487 6.968 30.7754 6.776C30.4074 6.584 30.122 6.32267 29.9194 5.992C29.7167 5.656 29.6154 5.27467 29.6154 4.848C29.6154 4.416 29.714 4.03467 29.9114 3.704C30.114 3.368 30.3887 3.10667 30.7354 2.92C31.082 2.728 31.474 2.632 31.9114 2.632C32.3327 2.632 32.7114 2.72267 33.0474 2.904C33.3887 3.08 33.658 3.336 33.8554 3.672C34.0527 4.00267 34.1514 4.4 34.1514 4.864C34.1514 4.912 34.1487 4.968 34.1434 5.032C34.138 5.09067 34.1327 5.14667 34.1274 5.2H30.6314V4.472H33.4714L32.9914 4.688C32.9914 4.464 32.946 4.26933 32.8554 4.104C32.7647 3.93867 32.6394 3.81067 32.4794 3.72C32.3194 3.624 32.1327 3.576 31.9194 3.576C31.706 3.576 31.5167 3.624 31.3514 3.72C31.1914 3.81067 31.066 3.94133 30.9754 4.112C30.8847 4.27733 30.8394 4.47467 30.8394 4.704V4.896C30.8394 5.13067 30.89 5.33867 30.9914 5.52C31.098 5.696 31.2447 5.832 31.4314 5.928C31.6234 6.01867 31.8474 6.064 32.1034 6.064C32.3327 6.064 32.5327 6.02933 32.7034 5.96C32.8794 5.89067 33.0394 5.78667 33.1834 5.648L33.8474 6.368C33.65 6.592 33.402 6.76533 33.1034 6.888C32.8047 7.00533 32.4607 7.064 32.0714 7.064ZM34.9823 7V2.696H36.1743V3.912L36.0063 3.56C36.1343 3.256 36.3396 3.02667 36.6223 2.872C36.9049 2.712 37.2489 2.632 37.6543 2.632V3.784C37.6009 3.77867 37.5529 3.776 37.5103 3.776C37.4676 3.77067 37.4223 3.768 37.3743 3.768C37.0329 3.768 36.7556 3.86667 36.5423 4.064C36.3343 4.256 36.2303 4.55733 36.2303 4.968V7H34.9823Z" fill="url(#paint0_linear_1_13)"/>
<path d="M5.65244 1.4V0.4C5.10015 0.4 4.65244 0.847715 4.65244 1.4H5.65244ZM6.94844 1.4H7.94844C7.94844 0.847715 7.50072 0.4 6.94844 0.4V1.4ZM6.94844 7V8C7.50072 8 7.94844 7.55228 7.94844 7H6.94844ZM5.65244 7H4.65244C4.65244 7.55228 5.10015 8 5.65244 8V7ZM3.10844 7V8C3.66072 8 4.10844 7.55228 4.10844 7H3.10844ZM1.81244 7H0.812438C0.812438 7.55228 1.26015 8 1.81244 8L1.81244 7ZM1.81244 1.4V0.4C1.26015 0.4 0.812438 0.847715 0.812438 1.4H1.81244ZM3.10844 1.4H4.10844C4.10844 0.847715 3.66072 0.4 3.10844 0.4V1.4ZM5.74844 4.704V5.704C6.30072 5.704 6.74844 5.25628 6.74844 4.704H5.74844ZM3.01244 4.704H2.01244C2.01244 5.25628 2.46015 5.704 3.01244 5.704V4.704ZM3.01244 3.608V2.608C2.46015 2.608 2.01244 3.05572 2.01244 3.608H3.01244ZM5.74844 3.608H6.74844C6.74844 3.05572 6.30072 2.608 5.74844 2.608V3.608ZM5.65244 2.4H6.94844V0.4H5.65244V2.4ZM5.94844 1.4V7H7.94844V1.4H5.94844ZM6.94844 6H5.65244V8H6.94844V6ZM6.65244 7V1.4H4.65244V7H6.65244ZM3.10844 6H1.81244V8H3.10844V6ZM2.81244 7V1.4H0.812438V7H2.81244ZM1.81244 2.4H3.10844V0.4H1.81244V2.4ZM2.10844 1.4V7H4.10844V1.4H2.10844ZM5.74844 3.704H3.01244V5.704H5.74844V3.704ZM4.01244 4.704V3.608H2.01244V4.704H4.01244ZM3.01244 4.608H5.74844V2.608H3.01244V4.608ZM4.74844 3.608V4.704H6.74844V3.608H4.74844ZM10.8254 7H9.82538C9.82538 7.55228 10.2731 8 10.8254 8V7ZM10.8254 6.16H11.8254C11.8254 6.02281 11.7971 5.88709 11.7424 5.76127L10.8254 6.16ZM10.7454 5.976H9.74538C9.74538 6.11319 9.7736 6.24891 9.8283 6.37473L10.7454 5.976ZM10.4974 3.848L9.81506 4.57906C9.81904 4.58277 9.82305 4.58645 9.82709 4.5901L10.4974 3.848ZM9.07338 3.736L9.37562 4.68923C9.38029 4.68775 9.38495 4.68623 9.3896 4.68468L9.07338 3.736ZM8.51338 4.024L7.6239 4.48098C7.76069 4.74723 8.00956 4.9382 8.30214 5.00144C8.59472 5.06467 8.90024 4.9935 9.13477 4.8075L8.51338 4.024ZM8.06538 3.152L7.48942 2.33452C7.08176 2.62174 6.94801 3.16541 7.1759 3.60898L8.06538 3.152ZM8.91338 2.768L8.64894 1.8036L8.64894 1.8036L8.91338 2.768ZM11.4494 3.096L12.0983 2.33517L12.0983 2.33517L11.4494 3.096ZM11.9934 7V8C12.5457 8 12.9934 7.55228 12.9934 7H11.9934ZM8.64938 6.896L8.21017 7.79438C8.21558 7.79703 8.22102 7.79963 8.22649 7.80218L8.64938 6.896ZM8.09738 6.424L8.93634 5.87981L8.93634 5.87981L8.09738 6.424ZM8.08938 5.088L7.25732 4.5333C7.25372 4.5387 7.25017 4.54414 7.24668 4.54961L8.08938 5.088ZM8.68938 4.64L9.05446 5.57097C9.0597 5.56892 9.06492 5.56682 9.07012 5.56468L8.68938 4.64ZM10.8974 4.472H11.8974C11.8974 3.91972 11.4497 3.472 10.8974 3.472V4.472ZM10.8974 5.2V6.2C11.4497 6.2 11.8974 5.75228 11.8974 5.2H10.8974ZM9.28138 5.344L8.63058 4.58474C8.62446 4.58999 8.6184 4.59531 8.61241 4.60071L9.28138 5.344ZM9.30538 6.088L8.68907 6.87551C8.7016 6.88531 8.71437 6.89482 8.72736 6.90402L9.30538 6.088ZM10.3854 6.08L10.8875 6.94479C10.8944 6.94081 10.9012 6.93674 10.9079 6.9326L10.3854 6.08ZM10.7454 5.64L11.6941 5.32377C11.5608 4.92399 11.1912 4.65065 10.7699 4.6403C10.3487 4.62995 9.96611 4.8848 9.81337 5.27755L10.7454 5.64ZM10.9374 6.216L11.8879 6.52674C11.9545 6.32296 11.9539 6.10316 11.8861 5.89977L10.9374 6.216ZM10.4414 6.848L9.92688 5.99051L9.92688 5.99051L10.4414 6.848ZM11.8254 7V6.16H9.82538V7H11.8254ZM11.7424 5.76127L11.6624 5.57727L9.8283 6.37473L9.9083 6.55873L11.7424 5.76127ZM11.7454 5.976V4.472H9.74538V5.976H11.7454ZM11.7454 4.472C11.7454 3.98313 11.5841 3.48201 11.1677 3.1059L9.82709 4.5901C9.81298 4.57736 9.79807 4.56094 9.78435 4.54117C9.77063 4.52141 9.76074 4.5021 9.75408 4.48534C9.74068 4.45163 9.74538 4.44145 9.74538 4.472H11.7454ZM11.1797 3.11694C10.7568 2.72224 10.2113 2.624 9.75338 2.624V4.624C9.80077 4.624 9.8365 4.62666 9.86205 4.62993C9.88763 4.6332 9.90043 4.63674 9.90308 4.63754C9.90687 4.63868 9.86606 4.62666 9.81506 4.57906L11.1797 3.11694ZM9.75338 2.624C9.41339 2.624 9.08006 2.67968 8.75715 2.78732L9.3896 4.68468C9.51469 4.64299 9.6347 4.624 9.75338 4.624V2.624ZM8.77113 2.78277C8.45512 2.88297 8.15592 3.03117 7.89198 3.2405L9.13477 4.8075C9.18017 4.77149 9.2543 4.7277 9.37562 4.68923L8.77113 2.78277ZM9.40285 3.56702L8.95485 2.69502L7.1759 3.60898L7.6239 4.48098L9.40285 3.56702ZM8.64133 3.96948C8.76506 3.88231 8.93759 3.79827 9.17781 3.7324L8.64894 1.8036C8.22783 1.91906 7.83503 2.09102 7.48942 2.33452L8.64133 3.96948ZM9.17781 3.7324C9.42271 3.66525 9.66979 3.632 9.92138 3.632V1.632C9.4903 1.632 9.06537 1.68941 8.64894 1.8036L9.17781 3.7324ZM9.92138 3.632C10.4288 3.632 10.6767 3.75134 10.8004 3.85683L12.0983 2.33517C11.4967 1.822 10.7259 1.632 9.92138 1.632V3.632ZM10.8004 3.85683C10.8654 3.91223 10.9934 4.06533 10.9934 4.544H12.9934C12.9934 3.71067 12.7587 2.89843 12.0983 2.33517L10.8004 3.85683ZM10.9934 4.544V7H12.9934V4.544H10.9934ZM11.9934 6H10.8254V8H11.9934V6ZM9.51338 6.064C9.28551 6.064 9.14927 6.02575 9.07226 5.98982L8.22649 7.80218C8.62948 7.99025 9.06924 8.064 9.51338 8.064V6.064ZM9.08859 5.99762C8.98889 5.94888 8.95282 5.90522 8.93634 5.87981L7.25841 6.96819C7.49793 7.33744 7.82986 7.60846 8.21017 7.79438L9.08859 5.99762ZM8.93634 5.87981C8.91811 5.85171 8.90538 5.82095 8.90538 5.76H6.90538C6.90538 6.18972 7.02064 6.60162 7.25841 6.96819L8.93634 5.87981ZM8.90538 5.76C8.90538 5.67049 8.92447 5.63828 8.93207 5.62639L7.24668 4.54961C7.00894 4.92172 6.90538 5.33751 6.90538 5.76H8.90538ZM8.92143 5.6427C8.91716 5.64909 8.9176 5.64527 8.93366 5.63328C8.95112 5.62025 8.98787 5.59709 9.05446 5.57097L8.32429 3.70903C7.91262 3.87047 7.52574 4.13068 7.25732 4.5333L8.92143 5.6427ZM9.07012 5.56468C9.17747 5.52048 9.38893 5.472 9.75338 5.472V3.472C9.24316 3.472 8.74528 3.53552 8.30863 3.71532L9.07012 5.56468ZM9.75338 5.472H10.8974V3.472H9.75338V5.472ZM9.89738 4.472V5.2H11.8974V4.472H9.89738ZM10.8974 4.2H9.88938V6.2H10.8974V4.2ZM9.88938 4.2C9.55845 4.2 9.03332 4.23954 8.63058 4.58474L9.93217 6.10326C9.87834 6.14939 9.82976 6.176 9.7985 6.19031C9.76759 6.20445 9.74857 6.20891 9.74784 6.20908C9.74678 6.20933 9.7574 6.2068 9.7827 6.20435C9.80767 6.20193 9.84275 6.2 9.88938 6.2V4.2ZM8.61241 4.60071C8.2942 4.8871 8.12138 5.27763 8.12138 5.704H10.1214C10.1214 5.75829 10.1106 5.83238 10.0752 5.91214C10.0397 5.99198 9.99161 6.05015 9.95034 6.08729L8.61241 4.60071ZM8.12138 5.704C8.12138 6.16178 8.31664 6.58404 8.68907 6.87551L9.92168 5.30049C9.96961 5.338 10.027 5.3999 10.0692 5.48788C10.1109 5.57502 10.1214 5.65357 10.1214 5.704H8.12138ZM8.72736 6.90402C9.07916 7.15322 9.47886 7.224 9.82538 7.224V5.224C9.78341 5.224 9.77268 5.21947 9.7844 5.22254C9.79792 5.22608 9.83614 5.2385 9.88339 5.27198L8.72736 6.90402ZM9.82538 7.224C10.1938 7.224 10.5564 7.13705 10.8875 6.94479L9.88324 5.21521C9.88044 5.21684 9.87768 5.21813 9.87233 5.21951C9.86651 5.221 9.85197 5.224 9.82538 5.224V7.224ZM10.9079 6.9326C11.2717 6.70965 11.5288 6.38463 11.6774 6.00245L9.81337 5.27755C9.81084 5.28405 9.81328 5.2756 9.82542 5.26076C9.838 5.24539 9.85225 5.23387 9.86281 5.2274L10.9079 6.9326ZM9.79669 5.95623L9.98869 6.53223L11.8861 5.89977L11.6941 5.32377L9.79669 5.95623ZM9.98688 5.90526C9.96754 5.96442 9.9511 5.97597 9.92688 5.99051L10.9559 7.70549C11.4116 7.43203 11.7259 7.02225 11.8879 6.52674L9.98688 5.90526ZM9.92688 5.99051C9.88785 6.01392 9.77254 6.064 9.51338 6.064V8.064C10.0115 8.064 10.5149 7.97008 10.9559 7.70549L9.92688 5.99051ZM19.5389 2.84L19.0702 3.72335C19.0773 3.72713 19.0844 3.73082 19.0917 3.73443L19.5389 2.84ZM20.1629 3.464L19.2787 3.93112C19.2822 3.93781 19.2858 3.94446 19.2895 3.95107L20.1629 3.464ZM20.3949 7V8C20.9472 8 21.3949 7.55228 21.3949 7H20.3949ZM19.1469 7H18.1469C18.1469 7.55228 18.5946 8 19.1469 8V7ZM18.9309 3.96L19.685 3.30322L19.685 3.30322L18.9309 3.96ZM17.8349 3.84L18.3205 4.71416C18.3286 4.70965 18.3367 4.70503 18.3447 4.70029L17.8349 3.84ZM17.4989 4.208L18.399 4.64356L18.399 4.64356L17.4989 4.208ZM17.3789 7V8C17.9312 8 18.3789 7.55228 18.3789 7H17.3789ZM16.1309 7H15.1309C15.1309 7.55228 15.5786 8 16.1309 8V7ZM15.9149 3.96L15.1487 4.60261C15.1527 4.60737 15.1567 4.6121 15.1608 4.61678L15.9149 3.96ZM14.8269 3.84L15.3125 4.71416C15.3206 4.70965 15.3287 4.70503 15.3367 4.70029L14.8269 3.84ZM14.4909 4.208L15.391 4.64356L15.391 4.64356L14.4909 4.208ZM14.3709 7V8C14.9232 8 15.3709 7.55228 15.3709 7H14.3709ZM13.1229 7H12.1229C12.1229 7.55228 12.5706 8 13.1229 8V7ZM13.1229 2.696V1.696C12.5706 1.696 12.1229 2.14371 12.1229 2.696H13.1229ZM14.3149 2.696H15.3149C15.3149 2.14371 14.8672 1.696 14.3149 1.696V2.696ZM14.3149 3.872L13.4769 4.41767C13.7184 4.78863 14.1751 4.95663 14.5995 4.83064C15.0238 4.70466 15.3149 4.31467 15.3149 3.872H14.3149ZM14.0909 3.528L13.1997 3.07432C13.0375 3.39298 13.0578 3.77402 13.2529 4.07367L14.0909 3.528ZM14.7229 2.864L15.2041 3.7406L15.2099 3.73736L14.7229 2.864ZM16.6989 2.936L16.1304 3.75873C16.1361 3.76266 16.1419 3.76653 16.1476 3.77034L16.6989 2.936ZM17.2909 3.848L17.0278 4.81276C17.3677 4.90547 17.7313 4.81246 17.9849 4.56793C18.2386 4.3234 18.3448 3.96344 18.2646 3.62037L17.2909 3.848ZM16.8509 3.728L15.9317 3.33408C15.8178 3.60001 15.8246 3.90227 15.9504 4.16281C16.0762 4.42335 16.3086 4.61664 16.5878 4.69276L16.8509 3.728ZM17.5389 2.928L17.014 2.0768L17.0076 2.08081L17.5389 2.928ZM18.6349 3.632C18.8381 3.632 18.974 3.67231 19.0702 3.72335L20.0076 1.95665C19.5811 1.73035 19.1144 1.632 18.6349 1.632V3.632ZM19.0917 3.73443C19.1579 3.76753 19.2194 3.8189 19.2787 3.93112L21.0471 2.99688C20.8077 2.54376 20.4532 2.17913 19.9861 1.94557L19.0917 3.73443ZM19.2895 3.95107C19.3357 4.03383 19.3949 4.20787 19.3949 4.536H21.3949C21.3949 3.98946 21.2994 3.44884 21.0362 2.97693L19.2895 3.95107ZM19.3949 4.536V7H21.3949V4.536H19.3949ZM20.3949 6H19.1469V8H20.3949V6ZM20.1469 7V4.728H18.1469V7H20.1469ZM20.1469 4.728C20.1469 4.27294 20.0573 3.73067 19.685 3.30322L18.1768 4.61678C18.1331 4.56658 18.1259 4.53145 18.1302 4.54675C18.1353 4.56463 18.1469 4.62012 18.1469 4.728H20.1469ZM19.685 3.30322C19.3144 2.87777 18.8125 2.712 18.3229 2.712V4.712C18.3486 4.712 18.3326 4.71601 18.2932 4.69993C18.2495 4.68211 18.2073 4.65182 18.1768 4.61678L19.685 3.30322ZM18.3229 2.712C17.9776 2.712 17.6362 2.79535 17.3251 2.97971L18.3447 4.70029C18.3409 4.70251 18.3365 4.70478 18.3316 4.70684C18.3266 4.70889 18.3222 4.71034 18.3186 4.71128C18.3109 4.7133 18.3112 4.712 18.3229 4.712V2.712ZM17.3492 2.96584C17.0047 3.15723 16.7577 3.44395 16.5987 3.77244L18.399 4.64356C18.4014 4.63876 18.397 4.64916 18.3814 4.66627C18.3651 4.68412 18.3439 4.70119 18.3205 4.71416L17.3492 2.96584ZM16.5987 3.77244C16.4324 4.11615 16.3789 4.48892 16.3789 4.84H18.3789C18.3789 4.67908 18.4053 4.63051 18.399 4.64356L16.5987 3.77244ZM16.3789 4.84V7H18.3789V4.84H16.3789ZM17.3789 6H16.1309V8H17.3789V6ZM17.1309 7V4.728H15.1309V7H17.1309ZM17.1309 4.728C17.1309 4.27294 17.0413 3.73067 16.669 3.30322L15.1608 4.61678C15.1171 4.56658 15.1099 4.53145 15.1142 4.54675C15.1193 4.56463 15.1309 4.62012 15.1309 4.728H17.1309ZM16.6811 3.31739C16.3123 2.87776 15.8033 2.712 15.3149 2.712V4.712C15.341 4.712 15.3224 4.71614 15.2789 4.69817C15.2305 4.67815 15.1832 4.64375 15.1487 4.60261L16.6811 3.31739ZM15.3149 2.712C14.9696 2.712 14.6282 2.79535 14.3171 2.97971L15.3367 4.70029C15.3329 4.70251 15.3285 4.70478 15.3236 4.70684C15.3186 4.70889 15.3142 4.71034 15.3106 4.71128C15.3029 4.7133 15.3032 4.712 15.3149 4.712V2.712ZM14.3412 2.96584C13.9967 3.15723 13.7497 3.44395 13.5907 3.77244L15.391 4.64356C15.3934 4.63876 15.389 4.64916 15.3734 4.66627C15.3571 4.68412 15.3359 4.70119 15.3125 4.71416L14.3412 2.96584ZM13.5907 3.77244C13.4244 4.11615 13.3709 4.48892 13.3709 4.84H15.3709C15.3709 4.67908 15.3973 4.63051 15.391 4.64356L13.5907 3.77244ZM13.3709 4.84V7H15.3709V4.84H13.3709ZM14.3709 6H13.1229V8H14.3709V6ZM14.1229 7V2.696H12.1229V7H14.1229ZM13.1229 3.696H14.3149V1.696H13.1229V3.696ZM13.3149 2.696V3.872H15.3149V2.696H13.3149ZM15.1529 3.32633L14.9289 2.98233L13.2529 4.07367L13.4769 4.41767L15.1529 3.32633ZM14.982 3.98168C15.0461 3.8558 15.1191 3.78728 15.2041 3.74058L14.2416 1.98742C13.7827 2.23939 13.4343 2.61353 13.1997 3.07432L14.982 3.98168ZM15.2099 3.73736C15.3227 3.67449 15.4665 3.632 15.6669 3.632V1.632C15.1633 1.632 14.6777 1.74418 14.2358 1.99064L15.2099 3.73736ZM15.6669 3.632C15.8811 3.632 16.0219 3.68375 16.1304 3.75873L17.2673 2.11327C16.7892 1.78292 16.242 1.632 15.6669 1.632V3.632ZM16.1476 3.77034C16.1958 3.80216 16.2682 3.86644 16.3171 4.07563L18.2646 3.62037C18.1215 3.00822 17.7993 2.46451 17.2501 2.10166L16.1476 3.77034ZM17.554 2.88324L17.114 2.76324L16.5878 4.69276L17.0278 4.81276L17.554 2.88324ZM17.77 4.12192C17.8325 3.97613 17.9249 3.86627 18.0702 3.77519L17.0076 2.08081C16.5235 2.3844 16.1573 2.80787 15.9317 3.33408L17.77 4.12192ZM18.0638 3.77917C18.2115 3.68804 18.3919 3.632 18.6349 3.632V1.632C18.0566 1.632 17.5062 1.77329 17.014 2.07683L18.0638 3.77917ZM27.9295 2.84L27.4608 3.72335C27.4679 3.72713 27.4751 3.73082 27.4823 3.73443L27.9295 2.84ZM28.5535 3.464L27.6693 3.93112C27.6728 3.93781 27.6765 3.94446 27.6801 3.95107L28.5535 3.464ZM28.7855 7V8C29.3378 8 29.7855 7.55228 29.7855 7H28.7855ZM27.5375 7H26.5375C26.5375 7.55228 26.9852 8 27.5375 8V7ZM27.3215 3.96L28.0756 3.30322L28.0756 3.30322L27.3215 3.96ZM26.2255 3.84L26.7111 4.71416C26.7193 4.70965 26.7273 4.70503 26.7353 4.70029L26.2255 3.84ZM25.8895 4.208L26.7897 4.64356L26.7897 4.64356L25.8895 4.208ZM25.7695 7V8C26.3218 8 26.7695 7.55228 26.7695 7H25.7695ZM24.5215 7H23.5215C23.5215 7.55228 23.9692 8 24.5215 8V7ZM24.3055 3.96L23.5393 4.60261C23.5433 4.60737 23.5473 4.6121 23.5514 4.61678L24.3055 3.96ZM23.2175 3.84L23.7031 4.71416C23.7113 4.70965 23.7193 4.70503 23.7273 4.70029L23.2175 3.84ZM22.8815 4.208L23.7817 4.64356L23.7817 4.64356L22.8815 4.208ZM22.7615 7V8C23.3138 8 23.7615 7.55228 23.7615 7H22.7615ZM21.5135 7H20.5135C20.5135 7.55228 20.9612 8 21.5135 8V7ZM21.5135 2.696V1.696C20.9612 1.696 20.5135 2.14371 20.5135 2.696H21.5135ZM22.7055 2.696H23.7055C23.7055 2.14371 23.2578 1.696 22.7055 1.696V2.696ZM22.7055 3.872L21.8675 4.41767C22.1091 4.78863 22.5657 4.95663 22.9901 4.83064C23.4145 4.70466 23.7055 4.31467 23.7055 3.872H22.7055ZM22.4815 3.528L21.5903 3.07432C21.4281 3.39298 21.4484 3.77402 21.6435 4.07367L22.4815 3.528ZM23.1135 2.864L23.5948 3.7406L23.6006 3.73736L23.1135 2.864ZM25.0895 2.936L24.5211 3.75873C24.5268 3.76266 24.5325 3.76653 24.5382 3.77034L25.0895 2.936ZM25.6815 3.848L25.4184 4.81276C25.7583 4.90547 26.1219 4.81246 26.3755 4.56793C26.6292 4.3234 26.7354 3.96344 26.6552 3.62037L25.6815 3.848ZM25.2415 3.728L24.3224 3.33408C24.2084 3.60001 24.2152 3.90227 24.341 4.16281C24.4668 4.42335 24.6993 4.61664 24.9784 4.69276L25.2415 3.728ZM25.9295 2.928L25.4046 2.0768L25.3982 2.08081L25.9295 2.928ZM27.0255 3.632C27.2287 3.632 27.3646 3.67231 27.4608 3.72335L28.3982 1.95665C27.9717 1.73035 27.505 1.632 27.0255 1.632V3.632ZM27.4823 3.73443C27.5485 3.76753 27.61 3.8189 27.6693 3.93112L29.4377 2.99688C29.1983 2.54376 28.8438 2.17913 28.3767 1.94557L27.4823 3.73443ZM27.6801 3.95107C27.7263 4.03383 27.7855 4.20787 27.7855 4.536H29.7855C29.7855 3.98946 29.69 3.44884 29.4269 2.97693L27.6801 3.95107ZM27.7855 4.536V7H29.7855V4.536H27.7855ZM28.7855 6H27.5375V8H28.7855V6ZM28.5375 7V4.728H26.5375V7H28.5375ZM28.5375 4.728C28.5375 4.27294 28.4479 3.73067 28.0756 3.30322L26.5674 4.61678C26.5237 4.56658 26.5165 4.53145 26.5208 4.54675C26.5259 4.56463 26.5375 4.62012 26.5375 4.728H28.5375ZM28.0756 3.30322C27.705 2.87777 27.2031 2.712 26.7135 2.712V4.712C26.7393 4.712 26.7232 4.71601 26.6838 4.69993C26.6401 4.68211 26.5979 4.65182 26.5674 4.61678L28.0756 3.30322ZM26.7135 2.712C26.3682 2.712 26.0268 2.79535 25.7157 2.97971L26.7353 4.70029C26.7316 4.70251 26.7271 4.70478 26.7222 4.70684C26.7173 4.70889 26.7128 4.71034 26.7092 4.71128C26.7015 4.7133 26.7018 4.712 26.7135 4.712V2.712ZM25.7399 2.96584C25.3954 3.15723 25.1483 3.44395 24.9893 3.77244L26.7897 4.64356C26.792 4.63876 26.7876 4.64916 26.772 4.66627C26.7557 4.68412 26.7345 4.70119 26.7111 4.71416L25.7399 2.96584ZM24.9893 3.77244C24.823 4.11615 24.7695 4.48892 24.7695 4.84H26.7695C26.7695 4.67908 26.796 4.63051 26.7897 4.64356L24.9893 3.77244ZM24.7695 4.84V7H26.7695V4.84H24.7695ZM25.7695 6H24.5215V8H25.7695V6ZM25.5215 7V4.728H23.5215V7H25.5215ZM25.5215 4.728C25.5215 4.27294 25.4319 3.73067 25.0596 3.30322L23.5514 4.61678C23.5077 4.56658 23.5005 4.53145 23.5048 4.54675C23.5099 4.56463 23.5215 4.62012 23.5215 4.728H25.5215ZM25.0717 3.31739C24.703 2.87776 24.1939 2.712 23.7055 2.712V4.712C23.7317 4.712 23.713 4.71614 23.6695 4.69817C23.6211 4.67815 23.5738 4.64375 23.5393 4.60261L25.0717 3.31739ZM23.7055 2.712C23.3602 2.712 23.0188 2.79535 22.7077 2.97971L23.7273 4.70029C23.7236 4.70251 23.7191 4.70478 23.7142 4.70684C23.7093 4.70889 23.7048 4.71034 23.7012 4.71128C23.6935 4.7133 23.6938 4.712 23.7055 4.712V2.712ZM22.7319 2.96584C22.3874 3.15723 22.1403 3.44395 21.9813 3.77244L23.7817 4.64356C23.784 4.63876 23.7796 4.64916 23.764 4.66627C23.7477 4.68412 23.7265 4.70119 23.7031 4.71416L22.7319 2.96584ZM21.9813 3.77244C21.815 4.11615 21.7615 4.48892 21.7615 4.84H23.7615C23.7615 4.67908 23.788 4.63051 23.7817 4.64356L21.9813 3.77244ZM21.7615 4.84V7H23.7615V4.84H21.7615ZM22.7615 6H21.5135V8H22.7615V6ZM22.5135 7V2.696H20.5135V7H22.5135ZM21.5135 3.696H22.7055V1.696H21.5135V3.696ZM21.7055 2.696V3.872H23.7055V2.696H21.7055ZM23.5435 3.32633L23.3195 2.98233L21.6435 4.07367L21.8675 4.41767L23.5435 3.32633ZM23.3727 3.98168C23.4367 3.8558 23.5097 3.78728 23.5948 3.74058L22.6322 1.98742C22.1733 2.23939 21.8249 2.61353 21.5903 3.07432L23.3727 3.98168ZM23.6006 3.73736C23.7133 3.67449 23.8571 3.632 24.0575 3.632V1.632C23.5539 1.632 23.0684 1.74418 22.6264 1.99064L23.6006 3.73736ZM24.0575 3.632C24.2718 3.632 24.4125 3.68375 24.5211 3.75873L25.6579 2.11327C25.1798 1.78292 24.6326 1.632 24.0575 1.632V3.632ZM24.5382 3.77034C24.5864 3.80216 24.6589 3.86644 24.7078 4.07563L26.6552 3.62037C26.5121 3.00822 26.1899 2.46451 25.6408 2.10166L24.5382 3.77034ZM25.9446 2.88324L25.5046 2.76324L24.9784 4.69276L25.4184 4.81276L25.9446 2.88324ZM26.1606 4.12192C26.2231 3.97613 26.3156 3.86627 26.4608 3.77519L25.3982 2.08081C24.9141 2.3844 24.5479 2.80787 24.3224 3.33408L26.1606 4.12192ZM26.4544 3.77917C26.6022 3.68804 26.7825 3.632 27.0255 3.632V1.632C26.4472 1.632 25.8968 1.77329 25.4046 2.07683L26.4544 3.77917ZM30.7754 6.776L30.3128 7.6626L30.318 7.66529L30.7754 6.776ZM29.9194 5.992L29.0631 6.50851L29.0668 6.51456L29.9194 5.992ZM29.9114 3.704L29.0551 3.1875L29.0527 3.19154L29.9114 3.704ZM30.7354 2.92L31.2095 3.80053L31.2199 3.79479L30.7354 2.92ZM33.0474 2.904L32.5724 3.78402C32.578 3.787 32.5835 3.78993 32.5891 3.7928L33.0474 2.904ZM33.8554 3.672L32.9931 4.17843L32.9967 4.18446L33.8554 3.672ZM34.1434 5.032L35.1393 5.12254L35.1399 5.11504L34.1434 5.032ZM34.1274 5.2V6.2C34.6411 6.2 35.0713 5.8107 35.1224 5.2995L34.1274 5.2ZM30.6314 5.2H29.6314C29.6314 5.75228 30.0791 6.2 30.6314 6.2V5.2ZM30.6314 4.472V3.472C30.0791 3.472 29.6314 3.91972 29.6314 4.472H30.6314ZM33.4714 4.472L33.8817 5.38392C34.3116 5.19047 34.548 4.72306 34.4491 4.26214C34.3502 3.80123 33.9428 3.472 33.4714 3.472V4.472ZM32.9914 4.688H31.9914C31.9914 5.02733 32.1635 5.34351 32.4484 5.52775C32.7334 5.712 33.0923 5.73917 33.4017 5.59992L32.9914 4.688ZM32.8554 4.104L31.9786 4.58483L31.9786 4.58483L32.8554 4.104ZM32.4794 3.72L31.9649 4.57749C31.972 4.58176 31.9791 4.58593 31.9864 4.59002L32.4794 3.72ZM31.3514 3.72L31.8444 4.59007L31.8535 4.58479L31.3514 3.72ZM30.9754 4.112L31.8523 4.59287L31.8585 4.58116L30.9754 4.112ZM30.9914 5.52L30.1184 6.00782C30.1242 6.01809 30.1301 6.02825 30.1362 6.0383L30.9914 5.52ZM31.4314 5.928L30.974 6.81729C30.9841 6.82245 30.9942 6.82743 31.0044 6.83225L31.4314 5.928ZM32.7034 5.96L32.3368 5.02954L32.327 5.03353L32.7034 5.96ZM33.1834 5.648L33.9185 4.97006C33.7362 4.77234 33.4819 4.65641 33.213 4.64844C32.9442 4.64047 32.6835 4.74112 32.4897 4.92768L33.1834 5.648ZM33.8474 6.368L34.5977 7.02903C34.9363 6.64467 34.9298 6.06661 34.5825 5.69006L33.8474 6.368ZM33.1034 6.888L33.469 7.81875C33.4738 7.81688 33.4786 7.81497 33.4833 7.81302L33.1034 6.888ZM32.0714 6.064C31.7129 6.064 31.4425 5.9946 31.2327 5.88671L30.318 7.66529C30.8549 7.9414 31.4485 8.064 32.0714 8.064V6.064ZM31.2379 5.88942C31.0188 5.77508 30.8733 5.63479 30.772 5.46944L29.0668 6.51456C29.3708 7.01054 29.7959 7.39292 30.3128 7.66258L31.2379 5.88942ZM30.7757 5.47551C30.6752 5.30889 30.6154 5.10908 30.6154 4.848H28.6154C28.6154 5.44025 28.7582 6.00311 29.0631 6.50849L30.7757 5.47551ZM30.6154 4.848C30.6154 4.57391 30.6761 4.37392 30.7701 4.21646L29.0527 3.19154C28.752 3.69542 28.6154 4.25809 28.6154 4.848H30.6154ZM30.7677 4.22049C30.8775 4.03841 31.0199 3.90253 31.2095 3.80047L30.2613 2.03953C29.7575 2.3108 29.3506 2.69759 29.0551 3.18751L30.7677 4.22049ZM31.2199 3.79479C31.4033 3.6932 31.6256 3.632 31.9114 3.632V1.632C31.3225 1.632 30.7608 1.7628 30.2509 2.04521L31.2199 3.79479ZM31.9114 3.632C32.1844 3.632 32.397 3.68936 32.5724 3.78402L33.5223 2.02398C33.0257 1.75598 32.481 1.632 31.9114 1.632V3.632ZM32.5891 3.7928C32.7597 3.88078 32.8901 4.003 32.9931 4.17842L34.7177 3.16558C34.426 2.669 34.0177 2.27922 33.5057 2.0152L32.5891 3.7928ZM32.9967 4.18446C33.0842 4.33117 33.1514 4.54336 33.1514 4.864H35.1514C35.1514 4.25664 35.0212 3.67417 34.7141 3.15954L32.9967 4.18446ZM33.1514 4.864C33.1514 4.87684 33.1506 4.904 33.1468 4.94896L35.1399 5.11504C35.1468 5.032 35.1514 4.94716 35.1514 4.864H33.1514ZM33.1475 4.94146C33.1424 4.99743 33.1373 5.05043 33.1323 5.1005L35.1224 5.2995C35.1281 5.24291 35.1337 5.18391 35.1393 5.12254L33.1475 4.94146ZM34.1274 4.2H30.6314V6.2H34.1274V4.2ZM31.6314 5.2V4.472H29.6314V5.2H31.6314ZM30.6314 5.472H33.4714V3.472H30.6314V5.472ZM33.061 3.56008L32.581 3.77608L33.4017 5.59992L33.8817 5.38392L33.061 3.56008ZM33.9914 4.688C33.9914 4.3275 33.9176 3.96129 33.7322 3.62317L31.9786 4.58483C31.9776 4.58299 31.9802 4.58686 31.9834 4.60081C31.9869 4.61548 31.9914 4.64332 31.9914 4.688H33.9914ZM33.7322 3.62317C33.5546 3.29932 33.2982 3.03463 32.9724 2.84998L31.9864 4.59002C31.9872 4.59047 31.9864 4.59009 31.9846 4.58873C31.9828 4.58734 31.9808 4.58558 31.9789 4.58362C31.977 4.58168 31.9759 4.58029 31.9756 4.57995C31.9754 4.57964 31.9765 4.58105 31.9786 4.58483L33.7322 3.62317ZM32.9939 2.86251C32.6572 2.66052 32.2875 2.576 31.9194 2.576V4.576C31.9509 4.576 31.9665 4.57951 31.9703 4.58049C31.9734 4.58128 31.9703 4.58072 31.9649 4.57749L32.9939 2.86251ZM31.9194 2.576C31.5506 2.576 31.1842 2.66071 30.8492 2.85521L31.8535 4.58479C31.8542 4.58436 31.8564 4.58304 31.8631 4.58133C31.8705 4.57947 31.888 4.576 31.9194 4.576V2.576ZM30.8584 2.84998C30.5242 3.03932 30.2674 3.31314 30.0923 3.64284L31.8585 4.58116C31.8598 4.57863 31.8609 4.57686 31.8616 4.57574C31.8623 4.57463 31.8626 4.57411 31.8626 4.5741C31.8626 4.57409 31.8623 4.5745 31.8617 4.57526C31.8611 4.57602 31.8602 4.57704 31.8591 4.57823C31.8567 4.58071 31.8538 4.58329 31.8508 4.58565C31.8478 4.58799 31.8455 4.58942 31.8444 4.59002L30.8584 2.84998ZM30.0986 3.63117C29.9113 3.97256 29.8394 4.34265 29.8394 4.704H31.8394C31.8394 4.60668 31.8581 4.5821 31.8522 4.59283L30.0986 3.63117ZM29.8394 4.704V4.896H31.8394V4.704H29.8394ZM29.8394 4.896C29.8394 5.27894 29.9234 5.65891 30.1184 6.00782L31.8643 5.03218C31.8566 5.01843 31.8394 4.98239 31.8394 4.896H29.8394ZM30.1362 6.0383C30.3406 6.37564 30.6265 6.63854 30.974 6.81729L31.8887 5.03871C31.8629 5.02546 31.8555 5.01636 31.8466 5.0017L30.1362 6.0383ZM31.0044 6.83225C31.3545 6.9976 31.7296 7.064 32.1034 7.064V5.064C31.9651 5.064 31.8922 5.03974 31.8584 5.02375L31.0044 6.83225ZM32.1034 7.064C32.4312 7.064 32.7642 7.01467 33.0798 6.88647L32.327 5.03353C32.3012 5.044 32.2342 5.064 32.1034 5.064V7.064ZM33.0699 6.89041C33.3745 6.77043 33.6442 6.59251 33.877 6.36832L32.4897 4.92768C32.4345 4.98082 32.3843 5.0109 32.3369 5.02959L33.0699 6.89041ZM32.4483 6.32594L33.1123 7.04594L34.5825 5.69006L33.9185 4.97006L32.4483 6.32594ZM33.097 5.70697C33.0094 5.80646 32.8918 5.89383 32.7235 5.96298L33.4833 7.81302C33.9123 7.63684 34.2907 7.37754 34.5977 7.02903L33.097 5.70697ZM32.7377 5.95725C32.5775 6.0202 32.3615 6.064 32.0714 6.064V8.064C32.5599 8.064 33.0319 7.99046 33.469 7.81875L32.7377 5.95725ZM34.9823 7H33.9823C33.9823 7.55228 34.43 8 34.9823 8V7ZM34.9823 2.696V1.696C34.43 1.696 33.9823 2.14371 33.9823 2.696H34.9823ZM36.1743 2.696H37.1743C37.1743 2.14371 36.7265 1.696 36.1743 1.696V2.696ZM36.1743 3.912L35.2718 4.34273C35.473 4.76438 35.9394 4.99048 36.3951 4.88732C36.8507 4.78415 37.1743 4.37921 37.1743 3.912H36.1743ZM36.0063 3.56L35.0846 3.17194C34.9738 3.43509 34.9808 3.73305 35.1038 3.99073L36.0063 3.56ZM36.6223 2.872L37.1023 3.74926C37.1065 3.74696 37.1107 3.74462 37.1148 3.74226L36.6223 2.872ZM37.6543 2.632H38.6543C38.6543 2.07972 38.2065 1.632 37.6543 1.632V2.632ZM37.6543 3.784L37.5547 4.77904C37.8359 4.80715 38.1158 4.71503 38.3253 4.52545C38.5347 4.33587 38.6543 4.06653 38.6543 3.784H37.6543ZM37.5103 3.776L37.3862 4.76828C37.4274 4.77342 37.4688 4.776 37.5103 4.776V3.776ZM36.5423 4.064L37.2205 4.7988L37.2213 4.7981L36.5423 4.064ZM36.2303 7V8C36.7825 8 37.2303 7.55228 37.2303 7H36.2303ZM35.9823 7V2.696H33.9823V7H35.9823ZM34.9823 3.696H36.1743V1.696H34.9823V3.696ZM35.1743 2.696V3.912H37.1743V2.696H35.1743ZM37.0767 3.48127L36.9087 3.12927L35.1038 3.99073L35.2718 4.34273L37.0767 3.48127ZM36.9279 3.94806C36.9704 3.84699 37.0229 3.79269 37.1023 3.74926L36.1422 1.99474C35.6563 2.26064 35.2981 2.66501 35.0846 3.17194L36.9279 3.94806ZM37.1148 3.74226C37.2143 3.68594 37.3793 3.632 37.6543 3.632V1.632C37.1185 1.632 36.5955 1.73806 36.1297 2.00174L37.1148 3.74226ZM36.6543 2.632V3.784H38.6543V2.632H36.6543ZM37.7538 2.78896C37.6753 2.78112 37.5933 2.776 37.5103 2.776V4.776C37.5126 4.776 37.5265 4.77621 37.5547 4.77904L37.7538 2.78896ZM37.6343 2.78372C37.5461 2.77269 37.459 2.768 37.3743 2.768V4.768C37.3855 4.768 37.3891 4.76864 37.3862 4.76828L37.6343 2.78372ZM37.3743 2.768C36.828 2.768 36.2931 2.9323 35.8632 3.3299L37.2213 4.7981C37.2273 4.79255 37.2326 4.78872 37.2454 4.78415C37.2608 4.77867 37.2999 4.768 37.3743 4.768V2.768ZM35.864 3.3292C35.3729 3.78247 35.2303 4.4058 35.2303 4.968H37.2303C37.2303 4.84334 37.2465 4.78066 37.2535 4.76025C37.2585 4.74575 37.2525 4.76925 37.2205 4.7988L35.864 3.3292ZM35.2303 4.968V7H37.2303V4.968H35.2303ZM36.2303 6H34.9823V8H36.2303V6Z" fill="black"/>
</g>
<defs>
<linearGradient id="paint0_linear_1_13" x1="19.5" y1="-1" x2="19.5" y2="9" gradientUnits="userSpaceOnUse">
<stop stop-color="#00D1FF"/>
<stop offset="1" stop-color="#001AFF"/>
</linearGradient>
<clipPath id="clip0_1_13">
<rect width="39" height="9" fill="white"/>
</clipPath>
</defs>
</svg>
