<svg width="40" height="15" viewBox="0 0 40 15" fill="none" xmlns="http://www.w3.org/2000/svg">
<g clip-path="url(#clip0_1_15)">
<path d="M1 14V7H2V9H5V7H6V14H5V10H2V14H1ZM7 13V12H8V13H7ZM8 14V13H11V12H8V11H11V10H12V14H8ZM8 10V9H11V10H8ZM15 12V10H16V12H15ZM17 14V10H18V14H17ZM13 14V9H15V10H14V14H13ZM16 10V9H17V10H16ZM21 12V10H22V12H21ZM23 14V10H24V14H23ZM19 14V9H21V10H20V14H19ZM22 10V9H23V10H22ZM26 14V13H30V14H26ZM25 13V10H26V11H29V10H30V12H26V13H25ZM26 10V9H29V10H26ZM35 11V10H36V11H35ZM31 14V9H32V10H33V11H32V14H31ZM33 10V9H35V10H33Z" fill="url(#paint0_linear_1_15)"/>
<path d="M1 14H0V15H1V14ZM1 7V6H0V7H1ZM2 7H3V6H2V7ZM2 9H1V10H2V9ZM5 9V10H6V9H5ZM5 7V6H4V7H5ZM6 7H7V6H6V7ZM6 14V15H7V14H6ZM5 14H4V15H5V14ZM5 10H6V9H5V10ZM2 10V9H1V10H2ZM2 14V15H3V14H2ZM2 14V7H0V14H2ZM1 8H2V6H1V8ZM1 7V9H3V7H1ZM2 10H5V8H2V10ZM6 9V7H4V9H6ZM5 8H6V6H5V8ZM5 7V14H7V7H5ZM6 13H5V15H6V13ZM6 14V10H4V14H6ZM5 9H2V11H5V9ZM1 10V14H3V10H1ZM2 13H1V15H2V13ZM7 13H6V14H7V13ZM7 12V11H6V12H7ZM8 12H9V11H8V12ZM8 13V14H9V13H8ZM8 14H7V15H8V14ZM8 13V12H7V13H8ZM11 13V14H12V13H11ZM11 12H12V11H11V12ZM8 12H7V13H8V12ZM8 11V10H7V11H8ZM11 11V12H12V11H11ZM11 10V9H10V10H11ZM12 10H13V9H12V10ZM12 14V15H13V14H12ZM8 10H7V11H8V10ZM8 9V8H7V9H8ZM11 9H12V8H11V9ZM11 10V11H12V10H11ZM8 13V12H6V13H8ZM7 13H8V11H7V13ZM7 12V13H9V12H7ZM8 12H7V14H8V12ZM9 14V13H7V14H9ZM8 14H11V12H8V14ZM12 13V12H10V13H12ZM11 11H8V13H11V11ZM9 12V11H7V12H9ZM8 12H11V10H8V12ZM12 11V10H10V11H12ZM11 11H12V9H11V11ZM11 10V14H13V10H11ZM12 13H8V15H12V13ZM9 10V9H7V10H9ZM8 10H11V8H8V10ZM10 9V10H12V9H10ZM11 9H8V11H11V9ZM15 12H14V13H15V12ZM15 10V9H14V10H15ZM16 10H17V9H16V10ZM16 12V13H17V12H16ZM17 14H16V15H17V14ZM17 10V9H16V10H17ZM18 10H19V9H18V10ZM18 14V15H19V14H18ZM13 14H12V15H13V14ZM13 9V8H12V9H13ZM15 9H16V8H15V9ZM15 10V11H16V10H15ZM14 10V9H13V10H14ZM14 14V15H15V14H14ZM16 10H15V11H16V10ZM16 9V8H15V9H16ZM17 9H18V8H17V9ZM17 10V11H18V10H17ZM16 12V10H14V12H16ZM15 11H16V9H15V11ZM15 10V12H17V10H15ZM16 11H15V13H16V11ZM18 14V10H16V14H18ZM17 11H18V9H17V11ZM17 10V14H19V10H17ZM18 13H17V15H18V13ZM14 14V9H12V14H14ZM13 10H15V8H13V10ZM14 9V10H16V9H14ZM15 9H14V11H15V9ZM13 10V14H15V10H13ZM14 13H13V15H14V13ZM17 10V9H15V10H17ZM16 10H17V8H16V10ZM16 9V10H18V9H16ZM17 9H16V11H17V9ZM21 12H20V13H21V12ZM21 10V9H20V10H21ZM22 10H23V9H22V10ZM22 12V13H23V12H22ZM23 14H22V15H23V14ZM23 10V9H22V10H23ZM24 10H25V9H24V10ZM24 14V15H25V14H24ZM19 14H18V15H19V14ZM19 9V8H18V9H19ZM21 9H22V8H21V9ZM21 10V11H22V10H21ZM20 10V9H19V10H20ZM20 14V15H21V14H20ZM22 10H21V11H22V10ZM22 9V8H21V9H22ZM23 9H24V8H23V9ZM23 10V11H24V10H23ZM22 12V10H20V12H22ZM21 11H22V9H21V11ZM21 10V12H23V10H21ZM22 11H21V13H22V11ZM24 14V10H22V14H24ZM23 11H24V9H23V11ZM23 10V14H25V10H23ZM24 13H23V15H24V13ZM20 14V9H18V14H20ZM19 10H21V8H19V10ZM20 9V10H22V9H20ZM21 9H20V11H21V9ZM19 10V14H21V10H19ZM20 13H19V15H20V13ZM23 10V9H21V10H23ZM22 10H23V8H22V10ZM22 9V10H24V9H22ZM23 9H22V11H23V9ZM26 14H25V15H26V14ZM26 13V12H25V13H26ZM30 13H31V12H30V13ZM30 14V15H31V14H30ZM25 13H24V14H25V13ZM25 10V9H24V10H25ZM26 10H27V9H26V10ZM26 11H25V12H26V11ZM29 11V12H30V11H29ZM29 10V9H28V10H29ZM30 10H31V9H30V10ZM30 12V13H31V12H30ZM26 12V11H25V12H26ZM26 13V14H27V13H26ZM26 10H25V11H26V10ZM26 9V8H25V9H26ZM29 9H30V8H29V9ZM29 10V11H30V10H29ZM27 14V13H25V14H27ZM26 14H30V12H26V14ZM29 13V14H31V13H29ZM30 13H26V15H30V13ZM26 13V10H24V13H26ZM25 11H26V9H25V11ZM25 10V11H27V10H25ZM26 12H29V10H26V12ZM30 11V10H28V11H30ZM29 11H30V9H29V11ZM29 10V12H31V10H29ZM30 11H26V13H30V11ZM25 12V13H27V12H25ZM26 12H25V14H26V12ZM27 10V9H25V10H27ZM26 10H29V8H26V10ZM28 9V10H30V9H28ZM29 9H26V11H29V9ZM35 11H34V12H35V11ZM35 10V9H34V10H35ZM36 10H37V9H36V10ZM36 11V12H37V11H36ZM31 14H30V15H31V14ZM31 9V8H30V9H31ZM32 9H33V8H32V9ZM32 10H31V11H32V10ZM33 10H34V9H33V10ZM33 11V12H34V11H33ZM32 11V10H31V11H32ZM32 14V15H33V14H32ZM33 10H32V11H33V10ZM33 9V8H32V9H33ZM35 9H36V8H35V9ZM35 10V11H36V10H35ZM36 11V10H34V11H36ZM35 11H36V9H35V11ZM35 10V11H37V10H35ZM36 10H35V12H36V10ZM32 14V9H30V14H32ZM31 10H32V8H31V10ZM31 9V10H33V9H31ZM32 11H33V9H32V11ZM32 10V11H34V10H32ZM33 10H32V12H33V10ZM31 11V14H33V11H31ZM32 13H31V15H32V13ZM34 10V9H32V10H34ZM33 10H35V8H33V10ZM34 9V10H36V9H34ZM35 9H33V11H35V9Z" fill="black"/>
<rect x="27.6376" y="8.06965" width="7" height="3" rx="0.75" transform="rotate(-75.884 27.6376 8.06965)" fill="url(#paint1_linear_1_15)" stroke="black"/>
<mask id="path-4-outside-1_1_15" maskUnits="userSpaceOnUse" x="30.5498" y="3.83034" width="9.45989" height="5.10438" fill="black">
<rect fill="white" x="30.5498" y="3.83034" width="9.45989" height="5.10438"/>
<path d="M30.7937 5.76995L31.0376 4.80015L38.3113 6.62933C38.579 6.69665 38.7415 6.96825 38.6742 7.23595C38.6068 7.50386 38.335 7.66642 38.0671 7.59905L30.7937 5.76995Z"/>
</mask>
<path d="M30.7937 5.76995L31.0376 4.80015L38.3113 6.62933C38.579 6.69665 38.7415 6.96825 38.6742 7.23595C38.6068 7.50386 38.335 7.66642 38.0671 7.59905L30.7937 5.76995Z" fill="url(#paint2_linear_1_15)"/>
<path d="M30.7937 5.76995L31.0376 4.80015L30.7937 5.76995ZM38.5552 5.65953C39.3585 5.86154 39.846 6.67653 39.644 7.47984C39.4419 8.28335 38.6267 8.77092 37.8232 8.56885L37.8262 6.50734L37.5824 7.47715L38.5552 5.65953ZM39.644 7.47984C39.4419 8.28335 38.6267 8.77092 37.8232 8.56885L30.5498 6.73975L31.0376 4.80015L38.3113 6.62933C38.4399 6.66166 38.5503 6.74374 38.6184 6.8575C38.6864 6.97126 38.7065 7.1074 38.6742 7.23595L39.644 7.47984ZM31.2815 3.83034L38.5552 5.65953C39.3585 5.86154 39.846 6.67653 39.644 7.47984L38.6742 7.23595C38.6418 7.36461 38.5597 7.47514 38.4458 7.54323C38.332 7.61132 38.1957 7.6314 38.0671 7.59905L31.2788 5.89194L30.7937 5.76995L31.2815 3.83034Z" fill="black" mask="url(#path-4-outside-1_1_15)"/>
</g>
<defs>
<linearGradient id="paint0_linear_1_15" x1="19" y1="6" x2="19" y2="17" gradientUnits="userSpaceOnUse">
<stop stop-color="#00D1FF"/>
<stop offset="1" stop-color="#001AFF"/>
</linearGradient>
<linearGradient id="paint1_linear_1_15" x1="31.2444" y1="7.70669" x2="31.2444" y2="9.70669" gradientUnits="userSpaceOnUse">
<stop stop-color="#C9C9C9"/>
<stop offset="1" stop-color="#9A9A9A"/>
</linearGradient>
<linearGradient id="paint2_linear_1_15" x1="30.9157" y1="5.28505" x2="38.6741" y2="7.23613" gradientUnits="userSpaceOnUse">
<stop stop-color="#A45F20"/>
<stop offset="1" stop-color="#7B4717"/>
</linearGradient>
<clipPath id="clip0_1_15">
<rect width="40" height="15" fill="white"/>
</clipPath>
</defs>
</svg>
