<svg width="61" height="31" viewBox="0 0 61 31" fill="none" xmlns="http://www.w3.org/2000/svg">
<g clip-path="url(#clip0_1_2)">
<rect width="61" height="31" fill="white"/>
<rect width="61" height="31" fill="#D8CBFF"/>
<rect x="11.0486" y="6.81876" width="11.5596" height="11.5596" transform="rotate(10.2079 11.0486 6.81876)" fill="#85CCFF"/>
<rect x="35.6441" y="2.79801" width="13.6719" height="13.6704" transform="rotate(-13.9589 35.6441 2.79801)" fill="#6D55FF"/>
<rect x="37.5742" y="20.6045" width="9.43249" height="9.42372" transform="rotate(9.82854 37.5742 20.6045)" fill="#A772FF"/>
<path d="M16.6524 15.4H17.9484V21H16.6524V15.4ZM14.1084 21H12.8124V15.4H14.1084V21ZM16.7484 18.704H14.0124V17.608H16.7484V18.704ZM21.8254 21V20.16L21.7454 19.976V18.472C21.7454 18.2053 21.6627 17.9973 21.4974 17.848C21.3374 17.6987 21.0894 17.624 20.7534 17.624C20.524 17.624 20.2974 17.6613 20.0734 17.736C19.8547 17.8053 19.668 17.9013 19.5134 18.024L19.0654 17.152C19.3 16.9867 19.5827 16.8587 19.9134 16.768C20.244 16.6773 20.58 16.632 20.9214 16.632C21.5774 16.632 22.0867 16.7867 22.4494 17.096C22.812 17.4053 22.9934 17.888 22.9934 18.544V21H21.8254ZM20.5134 21.064C20.1774 21.064 19.8894 21.008 19.6494 20.896C19.4094 20.7787 19.2254 20.6213 19.0974 20.424C18.9694 20.2267 18.9054 20.0053 18.9054 19.76C18.9054 19.504 18.9667 19.28 19.0894 19.088C19.2174 18.896 19.4174 18.7467 19.6894 18.64C19.9614 18.528 20.316 18.472 20.7534 18.472H21.8974V19.2H20.8894C20.596 19.2 20.3934 19.248 20.2814 19.344C20.1747 19.44 20.1214 19.56 20.1214 19.704C20.1214 19.864 20.1827 19.992 20.3054 20.088C20.4334 20.1787 20.6067 20.224 20.8254 20.224C21.0334 20.224 21.22 20.176 21.3854 20.08C21.5507 19.9787 21.6707 19.832 21.7454 19.64L21.9374 20.216C21.8467 20.4933 21.6814 20.704 21.4414 20.848C21.2014 20.992 20.892 21.064 20.5134 21.064ZM29.6349 16.632C29.9762 16.632 30.2775 16.7013 30.5389 16.84C30.8055 16.9733 31.0135 17.1813 31.1629 17.464C31.3175 17.7413 31.3949 18.0987 31.3949 18.536V21H30.1469V18.728C30.1469 18.3813 30.0749 18.1253 29.9309 17.96C29.7869 17.7947 29.5842 17.712 29.3229 17.712C29.1415 17.712 28.9789 17.7547 28.8349 17.84C28.6909 17.92 28.5789 18.0427 28.4989 18.208C28.4189 18.3733 28.3789 18.584 28.3789 18.84V21H27.1309V18.728C27.1309 18.3813 27.0589 18.1253 26.9149 17.96C26.7762 17.7947 26.5762 17.712 26.3149 17.712C26.1335 17.712 25.9709 17.7547 25.8269 17.84C25.6829 17.92 25.5709 18.0427 25.4909 18.208C25.4109 18.3733 25.3709 18.584 25.3709 18.84V21H24.1229V16.696H25.3149V17.872L25.0909 17.528C25.2402 17.2347 25.4509 17.0133 25.7229 16.864C26.0002 16.7093 26.3149 16.632 26.6669 16.632C27.0615 16.632 27.4055 16.7333 27.6989 16.936C27.9975 17.1333 28.1949 17.4373 28.2909 17.848L27.8509 17.728C27.9949 17.392 28.2242 17.1253 28.5389 16.928C28.8589 16.7307 29.2242 16.632 29.6349 16.632ZM38.0255 16.632C38.3668 16.632 38.6682 16.7013 38.9295 16.84C39.1962 16.9733 39.4042 17.1813 39.5535 17.464C39.7082 17.7413 39.7855 18.0987 39.7855 18.536V21H38.5375V18.728C38.5375 18.3813 38.4655 18.1253 38.3215 17.96C38.1775 17.7947 37.9748 17.712 37.7135 17.712C37.5322 17.712 37.3695 17.7547 37.2255 17.84C37.0815 17.92 36.9695 18.0427 36.8895 18.208C36.8095 18.3733 36.7695 18.584 36.7695 18.84V21H35.5215V18.728C35.5215 18.3813 35.4495 18.1253 35.3055 17.96C35.1668 17.7947 34.9668 17.712 34.7055 17.712C34.5242 17.712 34.3615 17.7547 34.2175 17.84C34.0735 17.92 33.9615 18.0427 33.8815 18.208C33.8015 18.3733 33.7615 18.584 33.7615 18.84V21H32.5135V16.696H33.7055V17.872L33.4815 17.528C33.6308 17.2347 33.8415 17.0133 34.1135 16.864C34.3908 16.7093 34.7055 16.632 35.0575 16.632C35.4522 16.632 35.7962 16.7333 36.0895 16.936C36.3882 17.1333 36.5855 17.4373 36.6815 17.848L36.2415 17.728C36.3855 17.392 36.6148 17.1253 36.9295 16.928C37.2495 16.7307 37.6148 16.632 38.0255 16.632ZM43.0714 21.064C42.5807 21.064 42.1487 20.968 41.7754 20.776C41.4074 20.584 41.122 20.3227 40.9194 19.992C40.7167 19.656 40.6154 19.2747 40.6154 18.848C40.6154 18.416 40.714 18.0347 40.9114 17.704C41.114 17.368 41.3887 17.1067 41.7354 16.92C42.082 16.728 42.474 16.632 42.9114 16.632C43.3327 16.632 43.7114 16.7227 44.0474 16.904C44.3887 17.08 44.658 17.336 44.8554 17.672C45.0527 18.0027 45.1514 18.4 45.1514 18.864C45.1514 18.912 45.1487 18.968 45.1434 19.032C45.138 19.0907 45.1327 19.1467 45.1274 19.2H41.6314V18.472H44.4714L43.9914 18.688C43.9914 18.464 43.946 18.2693 43.8554 18.104C43.7647 17.9387 43.6394 17.8107 43.4794 17.72C43.3194 17.624 43.1327 17.576 42.9194 17.576C42.706 17.576 42.5167 17.624 42.3514 17.72C42.1914 17.8107 42.066 17.9413 41.9754 18.112C41.8847 18.2773 41.8394 18.4747 41.8394 18.704V18.896C41.8394 19.1307 41.89 19.3387 41.9914 19.52C42.098 19.696 42.2447 19.832 42.4314 19.928C42.6234 20.0187 42.8474 20.064 43.1034 20.064C43.3327 20.064 43.5327 20.0293 43.7034 19.96C43.8794 19.8907 44.0394 19.7867 44.1834 19.648L44.8474 20.368C44.65 20.592 44.402 20.7653 44.1034 20.888C43.8047 21.0053 43.4607 21.064 43.0714 21.064ZM45.9823 21V16.696H47.1743V17.912L47.0063 17.56C47.1343 17.256 47.3396 17.0267 47.6223 16.872C47.9049 16.712 48.2489 16.632 48.6543 16.632V17.784C48.6009 17.7787 48.5529 17.776 48.5103 17.776C48.4676 17.7707 48.4223 17.768 48.3743 17.768C48.0329 17.768 47.7556 17.8667 47.5423 18.064C47.3343 18.256 47.2303 18.5573 47.2303 18.968V21H45.9823Z" fill="url(#paint0_linear_1_2)"/>
<path d="M16.6524 15.4V14.4C16.1002 14.4 15.6524 14.8477 15.6524 15.4H16.6524ZM17.9484 15.4H18.9484C18.9484 14.8477 18.5007 14.4 17.9484 14.4V15.4ZM17.9484 21V22C18.5007 22 18.9484 21.5523 18.9484 21H17.9484ZM16.6524 21H15.6524C15.6524 21.5523 16.1002 22 16.6524 22V21ZM14.1084 21V22C14.6607 22 15.1084 21.5523 15.1084 21H14.1084ZM12.8124 21H11.8124C11.8124 21.5523 12.2602 22 12.8124 22V21ZM12.8124 15.4V14.4C12.2602 14.4 11.8124 14.8477 11.8124 15.4H12.8124ZM14.1084 15.4H15.1084C15.1084 14.8477 14.6607 14.4 14.1084 14.4V15.4ZM16.7484 18.704V19.704C17.3007 19.704 17.7484 19.2563 17.7484 18.704H16.7484ZM14.0124 18.704H13.0124C13.0124 19.2563 13.4602 19.704 14.0124 19.704V18.704ZM14.0124 17.608V16.608C13.4602 16.608 13.0124 17.0557 13.0124 17.608H14.0124ZM16.7484 17.608H17.7484C17.7484 17.0557 17.3007 16.608 16.7484 16.608V17.608ZM16.6524 16.4H17.9484V14.4H16.6524V16.4ZM16.9484 15.4V21H18.9484V15.4H16.9484ZM17.9484 20H16.6524V22H17.9484V20ZM17.6524 21V15.4H15.6524V21H17.6524ZM14.1084 20H12.8124V22H14.1084V20ZM13.8124 21V15.4H11.8124V21H13.8124ZM12.8124 16.4H14.1084V14.4H12.8124V16.4ZM13.1084 15.4V21H15.1084V15.4H13.1084ZM16.7484 17.704H14.0124V19.704H16.7484V17.704ZM15.0124 18.704V17.608H13.0124V18.704H15.0124ZM14.0124 18.608H16.7484V16.608H14.0124V18.608ZM15.7484 17.608V18.704H17.7484V17.608H15.7484ZM21.8254 21H20.8254C20.8254 21.5523 21.2731 22 21.8254 22V21ZM21.8254 20.16H22.8254C22.8254 20.0228 22.7971 19.8871 22.7424 19.7613L21.8254 20.16ZM21.7454 19.976H20.7454C20.7454 20.1132 20.7736 20.2489 20.8283 20.3747L21.7454 19.976ZM21.4974 17.848L20.8151 18.5791C20.819 18.5828 20.823 18.5865 20.8271 18.5901L21.4974 17.848ZM20.0734 17.736L20.3756 18.6892C20.3803 18.6877 20.385 18.6862 20.3896 18.6847L20.0734 17.736ZM19.5134 18.024L18.6239 18.481C18.7607 18.7472 19.0096 18.9382 19.3021 19.0014C19.5947 19.0647 19.9002 18.9935 20.1348 18.8075L19.5134 18.024ZM19.0654 17.152L18.4894 16.3345C18.0818 16.6217 17.948 17.1654 18.1759 17.609L19.0654 17.152ZM19.9134 16.768L19.6489 15.8036L19.6489 15.8036L19.9134 16.768ZM22.4494 17.096L23.0983 16.3352L23.0983 16.3352L22.4494 17.096ZM22.9934 21V22C23.5457 22 23.9934 21.5523 23.9934 21H22.9934ZM19.6494 20.896L19.2102 21.7944C19.2156 21.797 19.221 21.7996 19.2265 21.8022L19.6494 20.896ZM19.0974 20.424L19.9363 19.8798L19.9363 19.8798L19.0974 20.424ZM19.0894 19.088L18.2573 18.5333C18.2537 18.5387 18.2502 18.5441 18.2467 18.5496L19.0894 19.088ZM19.6894 18.64L20.0545 19.571C20.0597 19.5689 20.0649 19.5668 20.0701 19.5647L19.6894 18.64ZM21.8974 18.472H22.8974C22.8974 17.9197 22.4497 17.472 21.8974 17.472V18.472ZM21.8974 19.2V20.2C22.4497 20.2 22.8974 19.7523 22.8974 19.2H21.8974ZM20.2814 19.344L19.6306 18.5847C19.6245 18.59 19.6184 18.5953 19.6124 18.6007L20.2814 19.344ZM20.3054 20.088L19.6891 20.8755C19.7016 20.8853 19.7144 20.8948 19.7274 20.904L20.3054 20.088ZM21.3854 20.08L21.8875 20.9448C21.8944 20.9408 21.9012 20.9367 21.9079 20.9326L21.3854 20.08ZM21.7454 19.64L22.6941 19.3238C22.5608 18.924 22.1912 18.6507 21.7699 18.6403C21.3487 18.6299 20.9661 18.8848 20.8134 19.2776L21.7454 19.64ZM21.9374 20.216L22.8879 20.5267C22.9545 20.323 22.9539 20.1032 22.8861 19.8998L21.9374 20.216ZM21.4414 20.848L20.9269 19.9905L20.9269 19.9905L21.4414 20.848ZM22.8254 21V20.16H20.8254V21H22.8254ZM22.7424 19.7613L22.6624 19.5773L20.8283 20.3747L20.9083 20.5587L22.7424 19.7613ZM22.7454 19.976V18.472H20.7454V19.976H22.7454ZM22.7454 18.472C22.7454 17.9831 22.5841 17.482 22.1677 17.1059L20.8271 18.5901C20.813 18.5774 20.7981 18.5609 20.7843 18.5412C20.7706 18.5214 20.7607 18.5021 20.7541 18.4853C20.7407 18.4516 20.7454 18.4415 20.7454 18.472H22.7454ZM22.1797 17.1169C21.7568 16.7222 21.2113 16.624 20.7534 16.624V18.624C20.8008 18.624 20.8365 18.6267 20.8621 18.6299C20.8876 18.6332 20.9004 18.6367 20.9031 18.6375C20.9069 18.6387 20.8661 18.6267 20.8151 18.5791L22.1797 17.1169ZM20.7534 16.624C20.4134 16.624 20.0801 16.6797 19.7571 16.7873L20.3896 18.6847C20.5147 18.643 20.6347 18.624 20.7534 18.624V16.624ZM19.7711 16.7828C19.4551 16.883 19.1559 17.0312 18.892 17.2405L20.1348 18.8075C20.1802 18.7715 20.2543 18.7277 20.3756 18.6892L19.7711 16.7828ZM20.4029 17.567L19.9549 16.695L18.1759 17.609L18.6239 18.481L20.4029 17.567ZM19.6413 17.9695C19.7651 17.8823 19.9376 17.7983 20.1778 17.7324L19.6489 15.8036C19.2278 15.9191 18.835 16.091 18.4894 16.3345L19.6413 17.9695ZM20.1778 17.7324C20.4227 17.6653 20.6698 17.632 20.9214 17.632V15.632C20.4903 15.632 20.0654 15.6894 19.6489 15.8036L20.1778 17.7324ZM20.9214 17.632C21.4288 17.632 21.6767 17.7513 21.8004 17.8568L23.0983 16.3352C22.4967 15.822 21.7259 15.632 20.9214 15.632V17.632ZM21.8004 17.8568C21.8654 17.9122 21.9934 18.0653 21.9934 18.544H23.9934C23.9934 17.7107 23.7587 16.8984 23.0983 16.3352L21.8004 17.8568ZM21.9934 18.544V21H23.9934V18.544H21.9934ZM22.9934 20H21.8254V22H22.9934V20ZM20.5134 20.064C20.2855 20.064 20.1493 20.0258 20.0723 19.9898L19.2265 21.8022C19.6295 21.9902 20.0692 22.064 20.5134 22.064V20.064ZM20.0886 19.9976C19.9889 19.9489 19.9528 19.9052 19.9363 19.8798L18.2584 20.9682C18.4979 21.3374 18.8299 21.6085 19.2102 21.7944L20.0886 19.9976ZM19.9363 19.8798C19.9181 19.8517 19.9054 19.8209 19.9054 19.76H17.9054C17.9054 20.1897 18.0206 20.6016 18.2584 20.9682L19.9363 19.8798ZM19.9054 19.76C19.9054 19.6705 19.9245 19.6383 19.9321 19.6264L18.2467 18.5496C18.0089 18.9217 17.9054 19.3375 17.9054 19.76H19.9054ZM19.9214 19.6427C19.9172 19.6491 19.9176 19.6453 19.9337 19.6333C19.9511 19.6202 19.9879 19.5971 20.0545 19.571L19.3243 17.709C18.9126 17.8705 18.5257 18.1307 18.2573 18.5333L19.9214 19.6427ZM20.0701 19.5647C20.1775 19.5205 20.3889 19.472 20.7534 19.472V17.472C20.2432 17.472 19.7453 17.5355 19.3086 17.7153L20.0701 19.5647ZM20.7534 19.472H21.8974V17.472H20.7534V19.472ZM20.8974 18.472V19.2H22.8974V18.472H20.8974ZM21.8974 18.2H20.8894V20.2H21.8974V18.2ZM20.8894 18.2C20.5584 18.2 20.0333 18.2395 19.6306 18.5847L20.9322 20.1033C20.8783 20.1494 20.8298 20.176 20.7985 20.1903C20.7676 20.2045 20.7486 20.2089 20.7478 20.2091C20.7468 20.2093 20.7574 20.2068 20.7827 20.2043C20.8077 20.2019 20.8427 20.2 20.8894 20.2V18.2ZM19.6124 18.6007C19.2942 18.8871 19.1214 19.2776 19.1214 19.704H21.1214C21.1214 19.7583 21.1106 19.8324 21.0752 19.9121C21.0397 19.992 20.9916 20.0502 20.9503 20.0873L19.6124 18.6007ZM19.1214 19.704C19.1214 20.1618 19.3166 20.584 19.6891 20.8755L20.9217 19.3005C20.9696 19.338 21.027 19.3999 21.0692 19.4879C21.1109 19.575 21.1214 19.6536 21.1214 19.704H19.1214ZM19.7274 20.904C20.0792 21.1532 20.4789 21.224 20.8254 21.224V19.224C20.7834 19.224 20.7727 19.2195 20.7844 19.2225C20.7979 19.2261 20.8361 19.2385 20.8834 19.272L19.7274 20.904ZM20.8254 21.224C21.1938 21.224 21.5564 21.1371 21.8875 20.9448L20.8832 19.2152C20.8804 19.2168 20.8777 19.2181 20.8723 19.2195C20.8665 19.221 20.852 19.224 20.8254 19.224V21.224ZM21.9079 20.9326C22.2717 20.7097 22.5288 20.3846 22.6774 20.0024L20.8134 19.2776C20.8108 19.284 20.8133 19.2756 20.8254 19.2608C20.838 19.2454 20.8522 19.2339 20.8628 19.2274L21.9079 20.9326ZM20.7967 19.9562L20.9887 20.5322L22.8861 19.8998L22.6941 19.3238L20.7967 19.9562ZM20.9869 19.9053C20.9675 19.9644 20.9511 19.976 20.9269 19.9905L21.9559 21.7055C22.4116 21.432 22.7259 21.0222 22.8879 20.5267L20.9869 19.9053ZM20.9269 19.9905C20.8879 20.0139 20.7725 20.064 20.5134 20.064V22.064C21.0115 22.064 21.5149 21.9701 21.9559 21.7055L20.9269 19.9905ZM30.5389 16.84L30.0702 17.7233C30.0773 17.7271 30.0844 17.7308 30.0917 17.7344L30.5389 16.84ZM31.1629 17.464L30.2787 17.9311C30.2822 17.9378 30.2858 17.9445 30.2895 17.9511L31.1629 17.464ZM31.3949 21V22C31.9472 22 32.3949 21.5523 32.3949 21H31.3949ZM30.1469 21H29.1469C29.1469 21.5523 29.5946 22 30.1469 22V21ZM29.9309 17.96L30.685 17.3032L30.685 17.3032L29.9309 17.96ZM28.8349 17.84L29.3205 18.7142C29.3286 18.7096 29.3367 18.705 29.3447 18.7003L28.8349 17.84ZM28.4989 18.208L29.399 18.6436L29.399 18.6436L28.4989 18.208ZM28.3789 21V22C28.9312 22 29.3789 21.5523 29.3789 21H28.3789ZM27.1309 21H26.1309C26.1309 21.5523 26.5786 22 27.1309 22V21ZM26.9149 17.96L26.1487 18.6026C26.1527 18.6074 26.1567 18.6121 26.1608 18.6168L26.9149 17.96ZM25.8269 17.84L26.3125 18.7142C26.3206 18.7096 26.3287 18.705 26.3367 18.7003L25.8269 17.84ZM25.4909 18.208L26.391 18.6436L26.391 18.6436L25.4909 18.208ZM25.3709 21V22C25.9232 22 26.3709 21.5523 26.3709 21H25.3709ZM24.1229 21H23.1229C23.1229 21.5523 23.5706 22 24.1229 22V21ZM24.1229 16.696V15.696C23.5706 15.696 23.1229 16.1437 23.1229 16.696H24.1229ZM25.3149 16.696H26.3149C26.3149 16.1437 25.8672 15.696 25.3149 15.696V16.696ZM25.3149 17.872L24.4769 18.4177C24.7184 18.7886 25.1751 18.9566 25.5995 18.8306C26.0238 18.7047 26.3149 18.3147 26.3149 17.872H25.3149ZM25.0909 17.528L24.1997 17.0743C24.0375 17.393 24.0578 17.774 24.2529 18.0737L25.0909 17.528ZM25.7229 16.864L26.2041 17.7406L26.2099 17.7374L25.7229 16.864ZM27.6989 16.936L27.1304 17.7587C27.1361 17.7627 27.1419 17.7665 27.1476 17.7703L27.6989 16.936ZM28.2909 17.848L28.0278 18.8128C28.3677 18.9055 28.7313 18.8125 28.9849 18.5679C29.2386 18.3234 29.3448 17.9634 29.2646 17.6204L28.2909 17.848ZM27.8509 17.728L26.9317 17.3341C26.8178 17.6 26.8246 17.9023 26.9504 18.1628C27.0762 18.4234 27.3086 18.6166 27.5878 18.6928L27.8509 17.728ZM28.5389 16.928L28.014 16.0768L28.0076 16.0808L28.5389 16.928ZM29.6349 17.632C29.8381 17.632 29.974 17.6723 30.0702 17.7233L31.0076 15.9567C30.5811 15.7304 30.1144 15.632 29.6349 15.632V17.632ZM30.0917 17.7344C30.1579 17.7675 30.2194 17.8189 30.2787 17.9311L32.0471 16.9969C31.8077 16.5438 31.4532 16.1791 30.9861 15.9456L30.0917 17.7344ZM30.2895 17.9511C30.3357 18.0338 30.3949 18.2079 30.3949 18.536H32.3949C32.3949 17.9895 32.2994 17.4488 32.0362 16.9769L30.2895 17.9511ZM30.3949 18.536V21H32.3949V18.536H30.3949ZM31.3949 20H30.1469V22H31.3949V20ZM31.1469 21V18.728H29.1469V21H31.1469ZM31.1469 18.728C31.1469 18.2729 31.0573 17.7307 30.685 17.3032L29.1768 18.6168C29.1331 18.5666 29.1259 18.5315 29.1302 18.5467C29.1353 18.5646 29.1469 18.6201 29.1469 18.728H31.1469ZM30.685 17.3032C30.3144 16.8778 29.8125 16.712 29.3229 16.712V18.712C29.3486 18.712 29.3326 18.716 29.2932 18.6999C29.2495 18.6821 29.2073 18.6518 29.1768 18.6168L30.685 17.3032ZM29.3229 16.712C28.9776 16.712 28.6362 16.7954 28.3251 16.9797L29.3447 18.7003C29.3409 18.7025 29.3365 18.7048 29.3316 18.7068C29.3266 18.7089 29.3222 18.7103 29.3186 18.7113C29.3109 18.7133 29.3112 18.712 29.3229 18.712V16.712ZM28.3492 16.9658C28.0047 17.1572 27.7577 17.444 27.5987 17.7724L29.399 18.6436C29.4014 18.6388 29.397 18.6492 29.3814 18.6663C29.3651 18.6841 29.3439 18.7012 29.3205 18.7142L28.3492 16.9658ZM27.5987 17.7724C27.4324 18.1162 27.3789 18.4889 27.3789 18.84H29.3789C29.3789 18.6791 29.4053 18.6305 29.399 18.6436L27.5987 17.7724ZM27.3789 18.84V21H29.3789V18.84H27.3789ZM28.3789 20H27.1309V22H28.3789V20ZM28.1309 21V18.728H26.1309V21H28.1309ZM28.1309 18.728C28.1309 18.2729 28.0413 17.7307 27.669 17.3032L26.1608 18.6168C26.1171 18.5666 26.1099 18.5315 26.1142 18.5467C26.1193 18.5646 26.1309 18.6201 26.1309 18.728H28.1309ZM27.6811 17.3174C27.3123 16.8778 26.8033 16.712 26.3149 16.712V18.712C26.341 18.712 26.3224 18.7161 26.2789 18.6982C26.2305 18.6782 26.1832 18.6437 26.1487 18.6026L27.6811 17.3174ZM26.3149 16.712C25.9696 16.712 25.6282 16.7954 25.3171 16.9797L26.3367 18.7003C26.3329 18.7025 26.3285 18.7048 26.3236 18.7068C26.3186 18.7089 26.3142 18.7103 26.3106 18.7113C26.3029 18.7133 26.3032 18.712 26.3149 18.712V16.712ZM25.3412 16.9658C24.9967 17.1572 24.7497 17.444 24.5907 17.7724L26.391 18.6436C26.3934 18.6388 26.389 18.6492 26.3734 18.6663C26.3571 18.6841 26.3359 18.7012 26.3125 18.7142L25.3412 16.9658ZM24.5907 17.7724C24.4244 18.1162 24.3709 18.4889 24.3709 18.84H26.3709C26.3709 18.6791 26.3973 18.6305 26.391 18.6436L24.5907 17.7724ZM24.3709 18.84V21H26.3709V18.84H24.3709ZM25.3709 20H24.1229V22H25.3709V20ZM25.1229 21V16.696H23.1229V21H25.1229ZM24.1229 17.696H25.3149V15.696H24.1229V17.696ZM24.3149 16.696V17.872H26.3149V16.696H24.3149ZM26.1529 17.3263L25.9289 16.9823L24.2529 18.0737L24.4769 18.4177L26.1529 17.3263ZM25.982 17.9817C26.0461 17.8558 26.1191 17.7873 26.2041 17.7406L25.2416 15.9874C24.7827 16.2394 24.4343 16.6135 24.1997 17.0743L25.982 17.9817ZM26.2099 17.7374C26.3227 17.6745 26.4665 17.632 26.6669 17.632V15.632C26.1633 15.632 25.6777 15.7442 25.2358 15.9906L26.2099 17.7374ZM26.6669 17.632C26.8811 17.632 27.0219 17.6837 27.1304 17.7587L28.2673 16.1133C27.7892 15.7829 27.242 15.632 26.6669 15.632V17.632ZM27.1476 17.7703C27.1958 17.8022 27.2682 17.8664 27.3171 18.0756L29.2646 17.6204C29.1215 17.0082 28.7993 16.4645 28.2501 16.1017L27.1476 17.7703ZM28.554 16.8832L28.114 16.7632L27.5878 18.6928L28.0278 18.8128L28.554 16.8832ZM28.77 18.1219C28.8325 17.9761 28.9249 17.8663 29.0702 17.7752L28.0076 16.0808C27.5235 16.3844 27.1573 16.8079 26.9317 17.3341L28.77 18.1219ZM29.0638 17.7792C29.2115 17.688 29.3919 17.632 29.6349 17.632V15.632C29.0566 15.632 28.5062 15.7733 28.014 16.0768L29.0638 17.7792ZM38.9295 16.84L38.4608 17.7233C38.4679 17.7271 38.4751 17.7308 38.4823 17.7344L38.9295 16.84ZM39.5535 17.464L38.6693 17.9311C38.6728 17.9378 38.6765 17.9445 38.6801 17.9511L39.5535 17.464ZM39.7855 21V22C40.3378 22 40.7855 21.5523 40.7855 21H39.7855ZM38.5375 21H37.5375C37.5375 21.5523 37.9852 22 38.5375 22V21ZM38.3215 17.96L39.0756 17.3032L39.0756 17.3032L38.3215 17.96ZM37.2255 17.84L37.7111 18.7142C37.7193 18.7096 37.7273 18.705 37.7353 18.7003L37.2255 17.84ZM36.8895 18.208L37.7897 18.6436L37.7897 18.6436L36.8895 18.208ZM36.7695 21V22C37.3218 22 37.7695 21.5523 37.7695 21H36.7695ZM35.5215 21H34.5215C34.5215 21.5523 34.9692 22 35.5215 22V21ZM35.3055 17.96L34.5393 18.6026C34.5433 18.6074 34.5473 18.6121 34.5514 18.6168L35.3055 17.96ZM34.2175 17.84L34.7031 18.7142C34.7113 18.7096 34.7193 18.705 34.7273 18.7003L34.2175 17.84ZM33.8815 18.208L34.7817 18.6436L34.7817 18.6436L33.8815 18.208ZM33.7615 21V22C34.3138 22 34.7615 21.5523 34.7615 21H33.7615ZM32.5135 21H31.5135C31.5135 21.5523 31.9612 22 32.5135 22V21ZM32.5135 16.696V15.696C31.9612 15.696 31.5135 16.1437 31.5135 16.696H32.5135ZM33.7055 16.696H34.7055C34.7055 16.1437 34.2578 15.696 33.7055 15.696V16.696ZM33.7055 17.872L32.8675 18.4177C33.1091 18.7886 33.5657 18.9566 33.9901 18.8306C34.4145 18.7047 34.7055 18.3147 34.7055 17.872H33.7055ZM33.4815 17.528L32.5903 17.0743C32.4281 17.393 32.4484 17.774 32.6435 18.0737L33.4815 17.528ZM34.1135 16.864L34.5948 17.7406L34.6006 17.7374L34.1135 16.864ZM36.0895 16.936L35.5211 17.7587C35.5268 17.7627 35.5325 17.7665 35.5382 17.7703L36.0895 16.936ZM36.6815 17.848L36.4184 18.8128C36.7583 18.9055 37.1219 18.8125 37.3755 18.5679C37.6292 18.3234 37.7354 17.9634 37.6552 17.6204L36.6815 17.848ZM36.2415 17.728L35.3224 17.3341C35.2084 17.6 35.2152 17.9023 35.341 18.1628C35.4668 18.4234 35.6993 18.6166 35.9784 18.6928L36.2415 17.728ZM36.9295 16.928L36.4046 16.0768L36.3982 16.0808L36.9295 16.928ZM38.0255 17.632C38.2287 17.632 38.3646 17.6723 38.4608 17.7233L39.3982 15.9567C38.9717 15.7304 38.505 15.632 38.0255 15.632V17.632ZM38.4823 17.7344C38.5485 17.7675 38.61 17.8189 38.6693 17.9311L40.4377 16.9969C40.1983 16.5438 39.8438 16.1791 39.3767 15.9456L38.4823 17.7344ZM38.6801 17.9511C38.7263 18.0338 38.7855 18.2079 38.7855 18.536H40.7855C40.7855 17.9895 40.69 17.4488 40.4269 16.9769L38.6801 17.9511ZM38.7855 18.536V21H40.7855V18.536H38.7855ZM39.7855 20H38.5375V22H39.7855V20ZM39.5375 21V18.728H37.5375V21H39.5375ZM39.5375 18.728C39.5375 18.2729 39.4479 17.7307 39.0756 17.3032L37.5674 18.6168C37.5237 18.5666 37.5165 18.5315 37.5208 18.5467C37.5259 18.5646 37.5375 18.6201 37.5375 18.728H39.5375ZM39.0756 17.3032C38.705 16.8778 38.2031 16.712 37.7135 16.712V18.712C37.7393 18.712 37.7232 18.716 37.6838 18.6999C37.6401 18.6821 37.5979 18.6518 37.5674 18.6168L39.0756 17.3032ZM37.7135 16.712C37.3682 16.712 37.0268 16.7954 36.7157 16.9797L37.7353 18.7003C37.7316 18.7025 37.7271 18.7048 37.7222 18.7068C37.7173 18.7089 37.7128 18.7103 37.7092 18.7113C37.7015 18.7133 37.7018 18.712 37.7135 18.712V16.712ZM36.7399 16.9658C36.3954 17.1572 36.1483 17.444 35.9893 17.7724L37.7897 18.6436C37.792 18.6388 37.7876 18.6492 37.772 18.6663C37.7557 18.6841 37.7345 18.7012 37.7111 18.7142L36.7399 16.9658ZM35.9893 17.7724C35.823 18.1162 35.7695 18.4889 35.7695 18.84H37.7695C37.7695 18.6791 37.796 18.6305 37.7897 18.6436L35.9893 17.7724ZM35.7695 18.84V21H37.7695V18.84H35.7695ZM36.7695 20H35.5215V22H36.7695V20ZM36.5215 21V18.728H34.5215V21H36.5215ZM36.5215 18.728C36.5215 18.2729 36.4319 17.7307 36.0596 17.3032L34.5514 18.6168C34.5077 18.5666 34.5005 18.5315 34.5048 18.5467C34.5099 18.5646 34.5215 18.6201 34.5215 18.728H36.5215ZM36.0717 17.3174C35.703 16.8778 35.1939 16.712 34.7055 16.712V18.712C34.7317 18.712 34.713 18.7161 34.6695 18.6982C34.6211 18.6782 34.5738 18.6437 34.5393 18.6026L36.0717 17.3174ZM34.7055 16.712C34.3602 16.712 34.0188 16.7954 33.7077 16.9797L34.7273 18.7003C34.7236 18.7025 34.7191 18.7048 34.7142 18.7068C34.7093 18.7089 34.7048 18.7103 34.7012 18.7113C34.6935 18.7133 34.6938 18.712 34.7055 18.712V16.712ZM33.7319 16.9658C33.3874 17.1572 33.1403 17.444 32.9813 17.7724L34.7817 18.6436C34.784 18.6388 34.7796 18.6492 34.764 18.6663C34.7477 18.6841 34.7265 18.7012 34.7031 18.7142L33.7319 16.9658ZM32.9813 17.7724C32.815 18.1162 32.7615 18.4889 32.7615 18.84H34.7615C34.7615 18.6791 34.788 18.6305 34.7817 18.6436L32.9813 17.7724ZM32.7615 18.84V21H34.7615V18.84H32.7615ZM33.7615 20H32.5135V22H33.7615V20ZM33.5135 21V16.696H31.5135V21H33.5135ZM32.5135 17.696H33.7055V15.696H32.5135V17.696ZM32.7055 16.696V17.872H34.7055V16.696H32.7055ZM34.5435 17.3263L34.3195 16.9823L32.6435 18.0737L32.8675 18.4177L34.5435 17.3263ZM34.3727 17.9817C34.4367 17.8558 34.5097 17.7873 34.5948 17.7406L33.6322 15.9874C33.1733 16.2394 32.8249 16.6135 32.5903 17.0743L34.3727 17.9817ZM34.6006 17.7374C34.7133 17.6745 34.8571 17.632 35.0575 17.632V15.632C34.5539 15.632 34.0684 15.7442 33.6264 15.9906L34.6006 17.7374ZM35.0575 17.632C35.2718 17.632 35.4125 17.6837 35.5211 17.7587L36.6579 16.1133C36.1798 15.7829 35.6326 15.632 35.0575 15.632V17.632ZM35.5382 17.7703C35.5864 17.8022 35.6589 17.8664 35.7078 18.0756L37.6552 17.6204C37.5121 17.0082 37.1899 16.4645 36.6408 16.1017L35.5382 17.7703ZM36.9446 16.8832L36.5046 16.7632L35.9784 18.6928L36.4184 18.8128L36.9446 16.8832ZM37.1606 18.1219C37.2231 17.9761 37.3156 17.8663 37.4608 17.7752L36.3982 16.0808C35.9141 16.3844 35.5479 16.8079 35.3224 17.3341L37.1606 18.1219ZM37.4544 17.7792C37.6022 17.688 37.7825 17.632 38.0255 17.632V15.632C37.4472 15.632 36.8968 15.7733 36.4046 16.0768L37.4544 17.7792ZM41.7754 20.776L41.3128 21.6626L41.318 21.6653L41.7754 20.776ZM40.9194 19.992L40.0631 20.5085L40.0668 20.5146L40.9194 19.992ZM40.9114 17.704L40.0551 17.1875L40.0527 17.1915L40.9114 17.704ZM41.7354 16.92L42.2095 17.8005L42.2199 17.7948L41.7354 16.92ZM44.0474 16.904L43.5724 17.784C43.578 17.787 43.5835 17.7899 43.5891 17.7928L44.0474 16.904ZM44.8554 17.672L43.9931 18.1784L43.9967 18.1845L44.8554 17.672ZM45.1434 19.032L46.1393 19.1225L46.1399 19.115L45.1434 19.032ZM45.1274 19.2V20.2C45.6411 20.2 46.0713 19.8107 46.1224 19.2995L45.1274 19.2ZM41.6314 19.2H40.6314C40.6314 19.7523 41.0791 20.2 41.6314 20.2V19.2ZM41.6314 18.472V17.472C41.0791 17.472 40.6314 17.9197 40.6314 18.472H41.6314ZM44.4714 18.472L44.8817 19.3839C45.3116 19.1905 45.548 18.7231 45.4491 18.2621C45.3502 17.8012 44.9428 17.472 44.4714 17.472V18.472ZM43.9914 18.688H42.9914C42.9914 19.0273 43.1635 19.3435 43.4484 19.5278C43.7334 19.712 44.0923 19.7392 44.4017 19.5999L43.9914 18.688ZM43.8554 18.104L42.9786 18.5848L42.9786 18.5848L43.8554 18.104ZM43.4794 17.72L42.9649 18.5775C42.972 18.5818 42.9791 18.5859 42.9864 18.59L43.4794 17.72ZM42.3514 17.72L42.8444 18.5901L42.8535 18.5848L42.3514 17.72ZM41.9754 18.112L42.8523 18.5929L42.8585 18.5812L41.9754 18.112ZM41.9914 19.52L41.1184 20.0078C41.1242 20.0181 41.1301 20.0282 41.1362 20.0383L41.9914 19.52ZM42.4314 19.928L41.974 20.8173C41.9841 20.8224 41.9942 20.8274 42.0044 20.8322L42.4314 19.928ZM43.7034 19.96L43.3368 19.0295L43.327 19.0335L43.7034 19.96ZM44.1834 19.648L44.9185 18.9701C44.7362 18.7723 44.4819 18.6564 44.213 18.6484C43.9442 18.6405 43.6835 18.7411 43.4897 18.9277L44.1834 19.648ZM44.8474 20.368L45.5977 21.029C45.9363 20.6447 45.9298 20.0666 45.5825 19.6901L44.8474 20.368ZM44.1034 20.888L44.469 21.8188C44.4738 21.8169 44.4786 21.815 44.4833 21.813L44.1034 20.888ZM43.0714 20.064C42.7129 20.064 42.4425 19.9946 42.2327 19.8867L41.318 21.6653C41.8549 21.9414 42.4485 22.064 43.0714 22.064V20.064ZM42.2379 19.8894C42.0188 19.7751 41.8733 19.6348 41.772 19.4694L40.0668 20.5146C40.3708 21.0105 40.7959 21.3929 41.3128 21.6626L42.2379 19.8894ZM41.7757 19.4755C41.6752 19.3089 41.6154 19.1091 41.6154 18.848H39.6154C39.6154 19.4403 39.7582 20.0031 40.0631 20.5085L41.7757 19.4755ZM41.6154 18.848C41.6154 18.5739 41.6761 18.3739 41.7701 18.2165L40.0527 17.1915C39.752 17.6954 39.6154 18.2581 39.6154 18.848H41.6154ZM41.7677 18.2205C41.8775 18.0384 42.0199 17.9025 42.2095 17.8005L41.2613 16.0395C40.7575 16.3108 40.3506 16.6976 40.0551 17.1875L41.7677 18.2205ZM42.2199 17.7948C42.4033 17.6932 42.6256 17.632 42.9114 17.632V15.632C42.3225 15.632 41.7608 15.7628 41.2509 16.0452L42.2199 17.7948ZM42.9114 17.632C43.1844 17.632 43.397 17.6894 43.5724 17.784L44.5223 16.024C44.0257 15.756 43.481 15.632 42.9114 15.632V17.632ZM43.5891 17.7928C43.7597 17.8808 43.8901 18.003 43.9931 18.1784L45.7177 17.1656C45.426 16.669 45.0177 16.2792 44.5057 16.0152L43.5891 17.7928ZM43.9967 18.1845C44.0842 18.3312 44.1514 18.5434 44.1514 18.864H46.1514C46.1514 18.2566 46.0212 17.6742 45.7141 17.1595L43.9967 18.1845ZM44.1514 18.864C44.1514 18.8768 44.1506 18.904 44.1468 18.949L46.1399 19.115C46.1468 19.032 46.1514 18.9472 46.1514 18.864H44.1514ZM44.1475 18.9415C44.1424 18.9974 44.1373 19.0504 44.1323 19.1005L46.1224 19.2995C46.1281 19.2429 46.1337 19.1839 46.1393 19.1225L44.1475 18.9415ZM45.1274 18.2H41.6314V20.2H45.1274V18.2ZM42.6314 19.2V18.472H40.6314V19.2H42.6314ZM41.6314 19.472H44.4714V17.472H41.6314V19.472ZM44.061 17.5601L43.581 17.7761L44.4017 19.5999L44.8817 19.3839L44.061 17.5601ZM44.9914 18.688C44.9914 18.3275 44.9176 17.9613 44.7322 17.6232L42.9786 18.5848C42.9776 18.583 42.9802 18.5869 42.9834 18.6008C42.9869 18.6155 42.9914 18.6433 42.9914 18.688H44.9914ZM44.7322 17.6232C44.5546 17.2993 44.2982 17.0346 43.9724 16.85L42.9864 18.59C42.9872 18.5905 42.9864 18.5901 42.9846 18.5887C42.9828 18.5873 42.9808 18.5856 42.9789 18.5836C42.977 18.5817 42.9759 18.5803 42.9756 18.5799C42.9754 18.5796 42.9765 18.5811 42.9786 18.5848L44.7322 17.6232ZM43.9939 16.8625C43.6572 16.6605 43.2875 16.576 42.9194 16.576V18.576C42.9509 18.576 42.9665 18.5795 42.9703 18.5805C42.9734 18.5813 42.9703 18.5807 42.9649 18.5775L43.9939 16.8625ZM42.9194 16.576C42.5506 16.576 42.1842 16.6607 41.8492 16.8552L42.8535 18.5848C42.8542 18.5844 42.8564 18.583 42.8631 18.5813C42.8705 18.5795 42.888 18.576 42.9194 18.576V16.576ZM41.8584 16.85C41.5242 17.0393 41.2674 17.3131 41.0923 17.6428L42.8585 18.5812C42.8598 18.5786 42.8609 18.5769 42.8616 18.5757C42.8623 18.5746 42.8626 18.5741 42.8626 18.5741C42.8626 18.5741 42.8623 18.5745 42.8617 18.5753C42.8611 18.576 42.8602 18.577 42.8591 18.5782C42.8567 18.5807 42.8538 18.5833 42.8508 18.5856C42.8478 18.588 42.8455 18.5894 42.8444 18.59L41.8584 16.85ZM41.0986 17.6312C40.9113 17.9726 40.8394 18.3427 40.8394 18.704H42.8394C42.8394 18.6067 42.8581 18.5821 42.8522 18.5928L41.0986 17.6312ZM40.8394 18.704V18.896H42.8394V18.704H40.8394ZM40.8394 18.896C40.8394 19.2789 40.9234 19.6589 41.1184 20.0078L42.8643 19.0322C42.8566 19.0184 42.8394 18.9824 42.8394 18.896H40.8394ZM41.1362 20.0383C41.3406 20.3756 41.6265 20.6385 41.974 20.8173L42.8887 19.0387C42.8629 19.0255 42.8555 19.0164 42.8466 19.0017L41.1362 20.0383ZM42.0044 20.8322C42.3545 20.9976 42.7296 21.064 43.1034 21.064V19.064C42.9651 19.064 42.8922 19.0397 42.8584 19.0238L42.0044 20.8322ZM43.1034 21.064C43.4312 21.064 43.7642 21.0147 44.0798 20.8865L43.327 19.0335C43.3012 19.044 43.2342 19.064 43.1034 19.064V21.064ZM44.0699 20.8904C44.3745 20.7704 44.6442 20.5925 44.877 20.3683L43.4897 18.9277C43.4345 18.9808 43.3843 19.0109 43.3369 19.0296L44.0699 20.8904ZM43.4483 20.3259L44.1123 21.0459L45.5825 19.6901L44.9185 18.9701L43.4483 20.3259ZM44.097 19.707C44.0094 19.8065 43.8918 19.8938 43.7235 19.963L44.4833 21.813C44.9123 21.6368 45.2907 21.3775 45.5977 21.029L44.097 19.707ZM43.7377 19.9572C43.5775 20.0202 43.3615 20.064 43.0714 20.064V22.064C43.5599 22.064 44.0319 21.9905 44.469 21.8188L43.7377 19.9572ZM45.9823 21H44.9823C44.9823 21.5523 45.43 22 45.9823 22V21ZM45.9823 16.696V15.696C45.43 15.696 44.9823 16.1437 44.9823 16.696H45.9823ZM47.1743 16.696H48.1743C48.1743 16.1437 47.7265 15.696 47.1743 15.696V16.696ZM47.1743 17.912L46.2718 18.3427C46.473 18.7644 46.9394 18.9905 47.3951 18.8873C47.8507 18.7841 48.1743 18.3792 48.1743 17.912H47.1743ZM47.0063 17.56L46.0846 17.1719C45.9738 17.4351 45.9808 17.7331 46.1038 17.9907L47.0063 17.56ZM47.6223 16.872L48.1023 17.7493C48.1065 17.747 48.1107 17.7446 48.1148 17.7423L47.6223 16.872ZM48.6543 16.632H49.6543C49.6543 16.0797 49.2065 15.632 48.6543 15.632V16.632ZM48.6543 17.784L48.5547 18.779C48.8359 18.8072 49.1158 18.715 49.3253 18.5255C49.5347 18.3359 49.6543 18.0665 49.6543 17.784H48.6543ZM48.5103 17.776L48.3862 18.7683C48.4274 18.7734 48.4688 18.776 48.5103 18.776V17.776ZM47.5423 18.064L48.2205 18.7988L48.2213 18.7981L47.5423 18.064ZM47.2303 21V22C47.7825 22 48.2303 21.5523 48.2303 21H47.2303ZM46.9823 21V16.696H44.9823V21H46.9823ZM45.9823 17.696H47.1743V15.696H45.9823V17.696ZM46.1743 16.696V17.912H48.1743V16.696H46.1743ZM48.0767 17.4813L47.9087 17.1293L46.1038 17.9907L46.2718 18.3427L48.0767 17.4813ZM47.9279 17.9481C47.9704 17.847 48.0229 17.7927 48.1023 17.7493L47.1422 15.9947C46.6563 16.2606 46.2981 16.665 46.0846 17.1719L47.9279 17.9481ZM48.1148 17.7423C48.2143 17.6859 48.3793 17.632 48.6543 17.632V15.632C48.1185 15.632 47.5955 15.7381 47.1297 16.0017L48.1148 17.7423ZM47.6543 16.632V17.784H49.6543V16.632H47.6543ZM48.7538 16.789C48.6753 16.7811 48.5933 16.776 48.5103 16.776V18.776C48.5126 18.776 48.5265 18.7762 48.5547 18.779L48.7538 16.789ZM48.6343 16.7837C48.5461 16.7727 48.459 16.768 48.3743 16.768V18.768C48.3855 18.768 48.3891 18.7686 48.3862 18.7683L48.6343 16.7837ZM48.3743 16.768C47.828 16.768 47.2931 16.9323 46.8632 17.3299L48.2213 18.7981C48.2273 18.7926 48.2326 18.7887 48.2454 18.7842C48.2608 18.7787 48.2999 18.768 48.3743 18.768V16.768ZM46.864 17.3292C46.3729 17.7825 46.2303 18.4058 46.2303 18.968H48.2303C48.2303 18.8433 48.2465 18.7807 48.2535 18.7602C48.2585 18.7458 48.2525 18.7693 48.2205 18.7988L46.864 17.3292ZM46.2303 18.968V21H48.2303V18.968H46.2303ZM47.2303 20H45.9823V22H47.2303V20Z" fill="black"/>
<rect x="36.5617" y="15.115" width="7.125" height="3.125" rx="0.8125" transform="rotate(-75.884 36.5617 15.115)" fill="url(#paint1_linear_1_2)" stroke="black" stroke-width="1.125"/>
<mask id="path-8-outside-1_1_2" maskUnits="userSpaceOnUse" x="39.306" y="9.86054" width="10.9175" height="7.28788" fill="black">
<rect fill="white" x="39.306" y="9.86054" width="10.9175" height="7.28788"/>
<path d="M39.7937 12.7699L40.0376 11.8001L47.3113 13.6293C47.579 13.6967 47.7415 13.9682 47.6742 14.236V14.236C47.6068 14.5039 47.335 14.6664 47.0671 14.599L39.7937 12.7699Z"/>
</mask>
<path d="M39.7937 12.7699L40.0376 11.8001L47.3113 13.6293C47.579 13.6967 47.7415 13.9682 47.6742 14.236V14.236C47.6068 14.5039 47.335 14.6664 47.0671 14.599L39.7937 12.7699Z" fill="url(#paint2_linear_1_2)"/>
<path d="M39.7937 12.7699L40.0376 11.8001L39.7937 12.7699ZM47.5857 12.5383C48.456 12.7572 48.984 13.6401 48.7652 14.5103C48.5463 15.3808 47.6632 15.909 46.7927 15.6901L46.705 13.4769L46.4611 14.4467L47.5857 12.5383ZM48.7652 14.5103C48.5463 15.3808 47.6632 15.909 46.7927 15.6901L39.5194 13.861L40.0376 11.8001L47.3113 13.6293C47.4399 13.6617 47.5503 13.7437 47.6184 13.8575C47.6864 13.9713 47.7065 14.1074 47.6742 14.236L48.7652 14.5103ZM40.312 10.7091L47.5857 12.5383C48.456 12.7572 48.984 13.6401 48.7652 14.5103L47.6742 14.236C47.6418 14.3646 47.5597 14.4751 47.4458 14.5432C47.332 14.6113 47.1957 14.6314 47.0671 14.599L40.2788 12.8919L39.7937 12.7699L40.312 10.7091Z" fill="black" mask="url(#path-8-outside-1_1_2)"/>
</g>
<defs>
<linearGradient id="paint0_linear_1_2" x1="30.5" y1="13" x2="30.5" y2="23" gradientUnits="userSpaceOnUse">
<stop stop-color="#00D1FF"/>
<stop offset="1" stop-color="#001AFF"/>
</linearGradient>
<linearGradient id="paint1_linear_1_2" x1="40.2444" y1="14.7067" x2="40.2444" y2="16.7067" gradientUnits="userSpaceOnUse">
<stop stop-color="#C9C9C9"/>
<stop offset="1" stop-color="#9A9A9A"/>
</linearGradient>
<linearGradient id="paint2_linear_1_2" x1="39.9157" y1="12.285" x2="47.6741" y2="14.2361" gradientUnits="userSpaceOnUse">
<stop stop-color="#A45F20"/>
<stop offset="1" stop-color="#7B4717"/>
</linearGradient>
<clipPath id="clip0_1_2">
<rect width="61" height="31" fill="white"/>
</clipPath>
</defs>
</svg>
