<svg width="20" height="8" viewBox="0 0 20 8" fill="none" xmlns="http://www.w3.org/2000/svg">
<g clip-path="url(#clip0_7_31)">
<path d="M9.072 0.52C9.88 0.52 10.52 0.756 10.992 1.228C11.464 1.692 11.7 2.392 11.7 3.328V7H10.2V3.52C10.2 2.96 10.076 2.54 9.828 2.26C9.58 1.972 9.224 1.828 8.76 1.828C8.256 1.828 7.852 1.996 7.548 2.332C7.244 2.66 7.092 3.132 7.092 3.748V7H5.592V3.52C5.592 2.96 5.468 2.54 5.22 2.26C4.972 1.972 4.616 1.828 4.152 1.828C3.64 1.828 3.232 1.992 2.928 2.32C2.632 2.648 2.484 3.124 2.484 3.748V7H0.984V0.592H2.412V1.408C2.652 1.12 2.952 0.9 3.312 0.748C3.672 0.596 4.072 0.52 4.512 0.52C4.992 0.52 5.416 0.612 5.784 0.796C6.16 0.972 6.456 1.236 6.672 1.588C6.936 1.252 7.276 0.992 7.692 0.808C8.108 0.616 8.568 0.52 9.072 0.52Z" fill="#ECF9FB"/>
<path d="M16.6288 7.084C15.9168 7.084 15.2928 6.944 14.7568 6.664C14.2288 6.376 13.8168 5.984 13.5208 5.488C13.2328 4.992 13.0888 4.428 13.0888 3.796C13.0888 3.156 13.2288 2.592 13.5088 2.104C13.7968 1.608 14.1888 1.22 14.6848 0.94C15.1888 0.66 15.7608 0.52 16.4008 0.52C17.0248 0.52 17.5808 0.656 18.0688 0.927999C18.5568 1.2 18.9408 1.584 19.2208 2.08C19.5008 2.576 19.6408 3.16 19.6408 3.832C19.6408 3.896 19.6368 3.968 19.6288 4.048C19.6288 4.128 19.6248 4.204 19.6168 4.276H14.2768V3.28H18.8248L18.2368 3.592C18.2448 3.224 18.1688 2.9 18.0088 2.62C17.8488 2.34 17.6288 2.12 17.3488 1.96C17.0768 1.8 16.7608 1.72 16.4008 1.72C16.0328 1.72 15.7088 1.8 15.4288 1.96C15.1568 2.12 14.9408 2.344 14.7808 2.632C14.6288 2.912 14.5528 3.244 14.5528 3.628V3.868C14.5528 4.252 14.6408 4.592 14.8168 4.888C14.9928 5.184 15.2408 5.412 15.5608 5.572C15.8808 5.732 16.2488 5.812 16.6648 5.812C17.0248 5.812 17.3488 5.756 17.6368 5.644C17.9248 5.532 18.1808 5.356 18.4048 5.116L19.2088 6.04C18.9208 6.376 18.5568 6.636 18.1168 6.82C17.6848 6.996 17.1888 7.084 16.6288 7.084Z" fill="#D9821B"/>
</g>
<defs>
<clipPath id="clip0_7_31">
<rect width="20" height="8" fill="white"/>
</clipPath>
</defs>
</svg>
