<svg width="382" height="48" viewBox="0 0 382 48" fill="none" xmlns="http://www.w3.org/2000/svg">
<g clip-path="url(#clip0_13_21)">
<path d="M87.752 16.32C90.58 16.32 92.82 17.146 94.472 18.798C96.124 20.422 96.95 22.872 96.95 26.148V39H91.7V26.82C91.7 24.86 91.266 23.39 90.398 22.41C89.53 21.402 88.284 20.898 86.66 20.898C84.896 20.898 83.482 21.486 82.418 22.662C81.354 23.81 80.822 25.462 80.822 27.618V39H75.572V26.82C75.572 24.86 75.138 23.39 74.27 22.41C73.402 21.402 72.156 20.898 70.532 20.898C68.74 20.898 67.312 21.472 66.248 22.62C65.212 23.768 64.694 25.434 64.694 27.618V39H59.444V16.572H64.442V19.428C65.282 18.42 66.332 17.65 67.592 17.118C68.852 16.586 70.252 16.32 71.792 16.32C73.472 16.32 74.956 16.642 76.244 17.286C77.56 17.902 78.596 18.826 79.352 20.058C80.276 18.882 81.466 17.972 82.922 17.328C84.378 16.656 85.988 16.32 87.752 16.32ZM113.944 39.294C111.676 39.294 109.632 38.804 107.812 37.824C105.992 36.844 104.564 35.486 103.528 33.75C102.52 31.986 102.016 29.998 102.016 27.786C102.016 25.574 102.52 23.6 103.528 21.864C104.564 20.128 105.992 18.77 107.812 17.79C109.632 16.81 111.676 16.32 113.944 16.32C116.24 16.32 118.298 16.81 120.118 17.79C121.938 18.77 123.352 20.128 124.36 21.864C125.396 23.6 125.914 25.574 125.914 27.786C125.914 29.998 125.396 31.986 124.36 33.75C123.352 35.486 121.938 36.844 120.118 37.824C118.298 38.804 116.24 39.294 113.944 39.294ZM113.944 34.8C115.876 34.8 117.472 34.156 118.732 32.868C119.992 31.58 120.622 29.886 120.622 27.786C120.622 25.686 119.992 23.992 118.732 22.704C117.472 21.416 115.876 20.772 113.944 20.772C112.012 20.772 110.416 21.416 109.156 22.704C107.924 23.992 107.308 25.686 107.308 27.786C107.308 29.886 107.924 31.58 109.156 32.868C110.416 34.156 112.012 34.8 113.944 34.8ZM152.9 7.836V39H147.86V36.102C146.992 37.166 145.914 37.964 144.626 38.496C143.366 39.028 141.966 39.294 140.426 39.294C138.27 39.294 136.324 38.818 134.588 37.866C132.88 36.914 131.536 35.57 130.556 33.834C129.576 32.07 129.086 30.054 129.086 27.786C129.086 25.518 129.576 23.516 130.556 21.78C131.536 20.044 132.88 18.7 134.588 17.748C136.324 16.796 138.27 16.32 140.426 16.32C141.91 16.32 143.268 16.572 144.5 17.076C145.732 17.58 146.782 18.336 147.65 19.344V7.836H152.9ZM141.056 34.8C142.316 34.8 143.45 34.52 144.458 33.96C145.466 33.372 146.264 32.546 146.852 31.482C147.44 30.418 147.734 29.186 147.734 27.786C147.734 26.386 147.44 25.154 146.852 24.09C146.264 23.026 145.466 22.214 144.458 21.654C143.45 21.066 142.316 20.772 141.056 20.772C139.796 20.772 138.662 21.066 137.654 21.654C136.646 22.214 135.848 23.026 135.26 24.09C134.672 25.154 134.378 26.386 134.378 27.786C134.378 29.186 134.672 30.418 135.26 31.482C135.848 32.546 136.646 33.372 137.654 33.96C138.662 34.52 139.796 34.8 141.056 34.8ZM164.766 19.848C166.278 17.496 168.938 16.32 172.746 16.32V21.318C172.298 21.234 171.892 21.192 171.528 21.192C169.484 21.192 167.888 21.794 166.74 22.998C165.592 24.174 165.018 25.882 165.018 28.122V39H159.768V16.572H164.766V19.848ZM177.2 16.572H182.45V39H177.2V16.572ZM179.846 12.876C178.894 12.876 178.096 12.582 177.452 11.994C176.808 11.378 176.486 10.622 176.486 9.726C176.486 8.83 176.808 8.088 177.452 7.5C178.096 6.884 178.894 6.576 179.846 6.576C180.798 6.576 181.596 6.87 182.24 7.458C182.884 8.018 183.206 8.732 183.206 9.6C183.206 10.524 182.884 11.308 182.24 11.952C181.624 12.568 180.826 12.876 179.846 12.876ZM202.066 16.32C204.894 16.32 207.162 17.146 208.87 18.798C210.578 20.45 211.432 22.9 211.432 26.148V39H206.182V26.82C206.182 24.86 205.72 23.39 204.796 22.41C203.872 21.402 202.556 20.898 200.848 20.898C198.916 20.898 197.39 21.486 196.27 22.662C195.15 23.81 194.59 25.476 194.59 27.66V39H189.34V16.572H194.338V19.47C195.206 18.434 196.298 17.65 197.614 17.118C198.93 16.586 200.414 16.32 202.066 16.32ZM230.692 37.782C230.076 38.286 229.32 38.664 228.424 38.916C227.556 39.168 226.632 39.294 225.652 39.294C223.188 39.294 221.284 38.65 219.94 37.362C218.596 36.074 217.924 34.198 217.924 31.734V11.616H223.174V16.74H229.18V20.94H223.174V31.608C223.174 32.7 223.44 33.54 223.972 34.128C224.532 34.688 225.302 34.968 226.282 34.968C227.458 34.968 228.438 34.66 229.222 34.044L230.692 37.782ZM247.758 16.32C250.586 16.32 252.854 17.146 254.562 18.798C256.27 20.45 257.124 22.9 257.124 26.148V39H251.874V26.82C251.874 24.86 251.412 23.39 250.488 22.41C249.564 21.402 248.248 20.898 246.54 20.898C244.608 20.898 243.082 21.486 241.962 22.662C240.842 23.81 240.282 25.476 240.282 27.66V39H235.032V7.836H240.282V19.176C241.15 18.252 242.214 17.552 243.474 17.076C244.762 16.572 246.19 16.32 247.758 16.32Z" fill="#B0BAC4"/>
<path d="M285.933 39.294C283.441 39.294 281.257 38.804 279.381 37.824C277.533 36.816 276.091 35.444 275.055 33.708C274.047 31.972 273.543 29.998 273.543 27.786C273.543 25.546 274.033 23.572 275.013 21.864C276.021 20.128 277.393 18.77 279.129 17.79C280.893 16.81 282.895 16.32 285.135 16.32C287.319 16.32 289.265 16.796 290.973 17.748C292.681 18.7 294.025 20.044 295.005 21.78C295.985 23.516 296.475 25.56 296.475 27.912C296.475 28.136 296.461 28.388 296.433 28.668C296.433 28.948 296.419 29.214 296.391 29.466H277.701V25.98H293.619L291.561 27.072C291.589 25.784 291.323 24.65 290.763 23.67C290.203 22.69 289.433 21.92 288.453 21.36C287.501 20.8 286.395 20.52 285.135 20.52C283.847 20.52 282.713 20.8 281.733 21.36C280.781 21.92 280.025 22.704 279.465 23.712C278.933 24.692 278.667 25.854 278.667 27.198V28.038C278.667 29.382 278.975 30.572 279.591 31.608C280.207 32.644 281.075 33.442 282.195 34.002C283.315 34.562 284.603 34.842 286.059 34.842C287.319 34.842 288.453 34.646 289.461 34.254C290.469 33.862 291.365 33.246 292.149 32.406L294.963 35.64C293.955 36.816 292.681 37.726 291.141 38.37C289.629 38.986 287.893 39.294 285.933 39.294ZM315.798 39L310.044 31.23L304.248 39H298.452L307.188 27.618L298.83 16.572H304.668L310.17 23.922L315.672 16.572H321.342L312.942 27.534L321.72 39H315.798ZM338.194 37.782C337.578 38.286 336.822 38.664 335.926 38.916C335.058 39.168 334.134 39.294 333.154 39.294C330.69 39.294 328.786 38.65 327.442 37.362C326.098 36.074 325.426 34.198 325.426 31.734V11.616H330.676V16.74H336.682V20.94H330.676V31.608C330.676 32.7 330.942 33.54 331.474 34.128C332.034 34.688 332.804 34.968 333.784 34.968C334.96 34.968 335.94 34.66 336.724 34.044L338.194 37.782ZM347.532 19.848C349.044 17.496 351.704 16.32 355.512 16.32V21.318C355.064 21.234 354.658 21.192 354.294 21.192C352.25 21.192 350.654 21.794 349.506 22.998C348.358 24.174 347.784 25.882 347.784 28.122V39H342.534V16.572H347.532V19.848ZM381.684 16.572V39H376.686V36.102C375.818 37.166 374.74 37.964 373.452 38.496C372.192 39.028 370.792 39.294 369.252 39.294C367.068 39.294 365.108 38.818 363.372 37.866C361.664 36.914 360.32 35.57 359.34 33.834C358.388 32.098 357.912 30.082 357.912 27.786C357.912 25.49 358.388 23.488 359.34 21.78C360.32 20.044 361.664 18.7 363.372 17.748C365.108 16.796 367.068 16.32 369.252 16.32C370.708 16.32 372.038 16.572 373.242 17.076C374.474 17.58 375.538 18.322 376.434 19.302V16.572H381.684ZM369.84 34.8C371.772 34.8 373.368 34.156 374.628 32.868C375.888 31.58 376.518 29.886 376.518 27.786C376.518 25.686 375.888 23.992 374.628 22.704C373.368 21.416 371.772 20.772 369.84 20.772C367.908 20.772 366.312 21.416 365.052 22.704C363.82 23.992 363.204 25.686 363.204 27.786C363.204 29.886 363.82 31.58 365.052 32.868C366.312 34.156 367.908 34.8 369.84 34.8Z" fill="#D9821B"/>
<g clip-path="url(#clip1_13_21)">
<path fill-rule="evenodd" clip-rule="evenodd" d="M40 24C40 15.1695 32.8308 8 24 8C15.1692 8 8 15.1695 8 24C8 32.8305 15.1692 40 24 40C32.8308 40 40 32.8305 40 24ZM14 23C14 22.4477 14.4477 22 15 22H22V15C22 14.4477 22.4477 14 23 14H25C25.5523 14 26 14.4477 26 15V22H33C33.5523 22 34 22.4477 34 23V25C34 25.5523 33.5523 26 33 26H26V33C26 33.5523 25.5523 34 25 34H23C22.4477 34 22 33.5523 22 33V26H15C14.4477 26 14 25.5523 14 25V23Z" fill="#D9821B"/>
<path fill-rule="evenodd" clip-rule="evenodd" d="M24 0C37.2461 0 48 10.7539 48 24C48 37.2461 37.2461 48 24 48C10.7539 48 0 37.2461 0 24C0 10.7539 10.7539 0 24 0ZM24 4.32C34.8619 4.32 43.68 13.1381 43.68 24C43.68 34.8619 34.8619 43.68 24 43.68C13.1381 43.68 4.32 34.8619 4.32 24C4.32 13.1381 13.1381 4.32 24 4.32Z" fill="#D9821B"/>
</g>
</g>
<defs>
<clipPath id="clip0_13_21">
<rect width="382" height="48" fill="white"/>
</clipPath>
<clipPath id="clip1_13_21">
<rect width="48" height="48" fill="white"/>
</clipPath>
</defs>
</svg>
