<svg width="39" height="16" viewBox="0 0 39 16" fill="none" xmlns="http://www.w3.org/2000/svg">
<g clip-path="url(#clip0_7_33)">
<g clip-path="url(#clip1_7_33)">
<path fill-rule="evenodd" clip-rule="evenodd" d="M8 0C12.4154 0 16 3.58473 16 8C16 12.4153 12.4154 16 8 16C3.58458 16 0 12.4153 0 8C0 3.58473 3.58458 0 8 0ZM8 2.18182C11.2109 2.18182 13.8174 4.78909 13.8174 8C13.8174 11.2109 11.2109 13.8182 8 13.8182C4.78914 13.8182 2.18261 11.2109 2.18261 8C2.18261 4.78909 4.78914 2.18182 8 2.18182Z" fill="#D9821B"/>
<rect x="3" y="7" width="10" height="2" rx="0.5" fill="#D9821B"/>
<rect x="9" y="3" width="10" height="2" rx="0.5" transform="rotate(90 9 3)" fill="#D9821B"/>
</g>
<path d="M28.072 5.52C28.88 5.52 29.52 5.756 29.992 6.228C30.464 6.692 30.7 7.392 30.7 8.328V12H29.2V8.52C29.2 7.96 29.076 7.54 28.828 7.26C28.58 6.972 28.224 6.828 27.76 6.828C27.256 6.828 26.852 6.996 26.548 7.332C26.244 7.66 26.092 8.132 26.092 8.748V12H24.592V8.52C24.592 7.96 24.468 7.54 24.22 7.26C23.972 6.972 23.616 6.828 23.152 6.828C22.64 6.828 22.232 6.992 21.928 7.32C21.632 7.648 21.484 8.124 21.484 8.748V12H19.984V5.592H21.412V6.408C21.652 6.12 21.952 5.9 22.312 5.748C22.672 5.596 23.072 5.52 23.512 5.52C23.992 5.52 24.416 5.612 24.784 5.796C25.16 5.972 25.456 6.236 25.672 6.588C25.936 6.252 26.276 5.992 26.692 5.808C27.108 5.616 27.568 5.52 28.072 5.52Z" fill="#ECF9FB"/>
<path d="M35.6288 12.084C34.9168 12.084 34.2928 11.944 33.7568 11.664C33.2288 11.376 32.8168 10.984 32.5208 10.488C32.2328 9.992 32.0888 9.428 32.0888 8.796C32.0888 8.156 32.2288 7.592 32.5088 7.104C32.7968 6.608 33.1888 6.22 33.6848 5.94C34.1888 5.66 34.7608 5.52 35.4008 5.52C36.0248 5.52 36.5808 5.656 37.0688 5.928C37.5568 6.2 37.9408 6.584 38.2208 7.08C38.5008 7.576 38.6408 8.16 38.6408 8.832C38.6408 8.896 38.6368 8.968 38.6288 9.048C38.6288 9.128 38.6248 9.204 38.6168 9.276H33.2768V8.28H37.8248L37.2368 8.592C37.2448 8.224 37.1688 7.9 37.0088 7.62C36.8488 7.34 36.6288 7.12 36.3488 6.96C36.0768 6.8 35.7608 6.72 35.4008 6.72C35.0328 6.72 34.7088 6.8 34.4288 6.96C34.1568 7.12 33.9408 7.344 33.7808 7.632C33.6288 7.912 33.5528 8.244 33.5528 8.628V8.868C33.5528 9.252 33.6408 9.592 33.8168 9.888C33.9928 10.184 34.2408 10.412 34.5608 10.572C34.8808 10.732 35.2488 10.812 35.6648 10.812C36.0248 10.812 36.3488 10.756 36.6368 10.644C36.9248 10.532 37.1808 10.356 37.4048 10.116L38.2088 11.04C37.9208 11.376 37.5568 11.636 37.1168 11.82C36.6848 11.996 36.1888 12.084 35.6288 12.084Z" fill="#D9821B"/>
</g>
<defs>
<clipPath id="clip0_7_33">
<rect width="39" height="16" fill="white"/>
</clipPath>
<clipPath id="clip1_7_33">
<rect width="16" height="16" fill="white"/>
</clipPath>
</defs>
</svg>
