<svg width="48" height="48" viewBox="0 0 48 48" fill="none" xmlns="http://www.w3.org/2000/svg">
<g clip-path="url(#clip0_13_5)">
<path fill-rule="evenodd" clip-rule="evenodd" d="M40 24C40 15.1695 32.8308 8 24 8C15.1692 8 8 15.1695 8 24C8 32.8305 15.1692 40 24 40C32.8308 40 40 32.8305 40 24ZM14 23C14 22.4477 14.4477 22 15 22H22V15C22 14.4477 22.4477 14 23 14H25C25.5523 14 26 14.4477 26 15V22H33C33.5523 22 34 22.4477 34 23V25C34 25.5523 33.5523 26 33 26H26V33C26 33.5523 25.5523 34 25 34H23C22.4477 34 22 33.5523 22 33V26H15C14.4477 26 14 25.5523 14 25V23Z" fill="#D9821B"/>
<path fill-rule="evenodd" clip-rule="evenodd" d="M24 0C37.2461 0 48 10.7539 48 24C48 37.2461 37.2461 48 24 48C10.7539 48 0 37.2461 0 24C0 10.7539 10.7539 0 24 0ZM24 4.32C34.8619 4.32 43.68 13.1381 43.68 24C43.68 34.8619 34.8619 43.68 24 43.68C13.1381 43.68 4.32 34.8619 4.32 24C4.32 13.1381 13.1381 4.32 24 4.32Z" fill="#D9821B"/>
</g>
<defs>
<clipPath id="clip0_13_5">
<rect width="48" height="48" fill="white"/>
</clipPath>
</defs>
</svg>
