<svg width="323" height="34" viewBox="0 0 323 34" fill="none" xmlns="http://www.w3.org/2000/svg">
<g clip-path="url(#clip0_13_57)">
<path d="M28.752 10.32C31.58 10.32 33.82 11.146 35.472 12.798C37.124 14.422 37.95 16.872 37.95 20.148V33H32.7V20.82C32.7 18.86 32.266 17.39 31.398 16.41C30.53 15.402 29.284 14.898 27.66 14.898C25.896 14.898 24.482 15.486 23.418 16.662C22.354 17.81 21.822 19.462 21.822 21.618V33H16.572V20.82C16.572 18.86 16.138 17.39 15.27 16.41C14.402 15.402 13.156 14.898 11.532 14.898C9.74 14.898 8.312 15.472 7.248 16.62C6.212 17.768 5.694 19.434 5.694 21.618V33H0.444V10.572H5.442V13.428C6.282 12.42 7.332 11.65 8.592 11.118C9.852 10.586 11.252 10.32 12.792 10.32C14.472 10.32 15.956 10.642 17.244 11.286C18.56 11.902 19.596 12.826 20.352 14.058C21.276 12.882 22.466 11.972 23.922 11.328C25.378 10.656 26.988 10.32 28.752 10.32ZM54.9439 33.294C52.6759 33.294 50.6319 32.804 48.8119 31.824C46.9919 30.844 45.5639 29.486 44.5279 27.75C43.5199 25.986 43.0159 23.998 43.0159 21.786C43.0159 19.574 43.5199 17.6 44.5279 15.864C45.5639 14.128 46.9919 12.77 48.8119 11.79C50.6319 10.81 52.6759 10.32 54.9439 10.32C57.2399 10.32 59.2979 10.81 61.1179 11.79C62.9379 12.77 64.3519 14.128 65.3599 15.864C66.3959 17.6 66.9139 19.574 66.9139 21.786C66.9139 23.998 66.3959 25.986 65.3599 27.75C64.3519 29.486 62.9379 30.844 61.1179 31.824C59.2979 32.804 57.2399 33.294 54.9439 33.294ZM54.9439 28.8C56.8759 28.8 58.4719 28.156 59.7319 26.868C60.9919 25.58 61.6219 23.886 61.6219 21.786C61.6219 19.686 60.9919 17.992 59.7319 16.704C58.4719 15.416 56.8759 14.772 54.9439 14.772C53.0119 14.772 51.4159 15.416 50.1559 16.704C48.9239 17.992 48.3079 19.686 48.3079 21.786C48.3079 23.886 48.9239 25.58 50.1559 26.868C51.4159 28.156 53.0119 28.8 54.9439 28.8ZM93.9002 1.836V33H88.8602V30.102C87.9922 31.166 86.9142 31.964 85.6262 32.496C84.3662 33.028 82.9662 33.294 81.4262 33.294C79.2702 33.294 77.3242 32.818 75.5882 31.866C73.8802 30.914 72.5362 29.57 71.5562 27.834C70.5762 26.07 70.0862 24.054 70.0862 21.786C70.0862 19.518 70.5762 17.516 71.5562 15.78C72.5362 14.044 73.8802 12.7 75.5882 11.748C77.3242 10.796 79.2702 10.32 81.4262 10.32C82.9102 10.32 84.2682 10.572 85.5002 11.076C86.7322 11.58 87.7822 12.336 88.6502 13.344V1.836H93.9002ZM82.0562 28.8C83.3162 28.8 84.4502 28.52 85.4582 27.96C86.4662 27.372 87.2642 26.546 87.8522 25.482C88.4402 24.418 88.7342 23.186 88.7342 21.786C88.7342 20.386 88.4402 19.154 87.8522 18.09C87.2642 17.026 86.4662 16.214 85.4582 15.654C84.4502 15.066 83.3162 14.772 82.0562 14.772C80.7962 14.772 79.6622 15.066 78.6542 15.654C77.6462 16.214 76.8482 17.026 76.2602 18.09C75.6722 19.154 75.3782 20.386 75.3782 21.786C75.3782 23.186 75.6722 24.418 76.2602 25.482C76.8482 26.546 77.6462 27.372 78.6542 27.96C79.6622 28.52 80.7962 28.8 82.0562 28.8ZM105.766 13.848C107.278 11.496 109.938 10.32 113.746 10.32V15.318C113.298 15.234 112.892 15.192 112.528 15.192C110.484 15.192 108.888 15.794 107.74 16.998C106.592 18.174 106.018 19.882 106.018 22.122V33H100.768V10.572H105.766V13.848ZM118.2 10.572H123.45V33H118.2V10.572ZM120.846 6.876C119.894 6.876 119.096 6.582 118.452 5.994C117.808 5.378 117.486 4.622 117.486 3.726C117.486 2.83 117.808 2.088 118.452 1.5C119.096 0.883999 119.894 0.575999 120.846 0.575999C121.798 0.575999 122.596 0.869999 123.24 1.458C123.884 2.018 124.206 2.732 124.206 3.6C124.206 4.524 123.884 5.308 123.24 5.952C122.624 6.568 121.826 6.876 120.846 6.876ZM143.066 10.32C145.894 10.32 148.162 11.146 149.87 12.798C151.578 14.45 152.432 16.9 152.432 20.148V33H147.182V20.82C147.182 18.86 146.72 17.39 145.796 16.41C144.872 15.402 143.556 14.898 141.848 14.898C139.916 14.898 138.39 15.486 137.27 16.662C136.15 17.81 135.59 19.476 135.59 21.66V33H130.34V10.572H135.338V13.47C136.206 12.434 137.298 11.65 138.614 11.118C139.93 10.586 141.414 10.32 143.066 10.32ZM171.692 31.782C171.076 32.286 170.32 32.664 169.424 32.916C168.556 33.168 167.632 33.294 166.652 33.294C164.188 33.294 162.284 32.65 160.94 31.362C159.596 30.074 158.924 28.198 158.924 25.734V5.616H164.174V10.74H170.18V14.94H164.174V25.608C164.174 26.7 164.44 27.54 164.972 28.128C165.532 28.688 166.302 28.968 167.282 28.968C168.458 28.968 169.438 28.66 170.222 28.044L171.692 31.782ZM188.758 10.32C191.586 10.32 193.854 11.146 195.562 12.798C197.27 14.45 198.124 16.9 198.124 20.148V33H192.874V20.82C192.874 18.86 192.412 17.39 191.488 16.41C190.564 15.402 189.248 14.898 187.54 14.898C185.608 14.898 184.082 15.486 182.962 16.662C181.842 17.81 181.282 19.476 181.282 21.66V33H176.032V1.836H181.282V13.176C182.15 12.252 183.214 11.552 184.474 11.076C185.762 10.572 187.19 10.32 188.758 10.32Z" fill="#1A202C"/>
<path d="M226.933 33.294C224.441 33.294 222.257 32.804 220.381 31.824C218.533 30.816 217.091 29.444 216.055 27.708C215.047 25.972 214.543 23.998 214.543 21.786C214.543 19.546 215.033 17.572 216.013 15.864C217.021 14.128 218.393 12.77 220.129 11.79C221.893 10.81 223.895 10.32 226.135 10.32C228.319 10.32 230.265 10.796 231.973 11.748C233.681 12.7 235.025 14.044 236.005 15.78C236.985 17.516 237.475 19.56 237.475 21.912C237.475 22.136 237.461 22.388 237.433 22.668C237.433 22.948 237.419 23.214 237.391 23.466H218.701V19.98H234.619L232.561 21.072C232.589 19.784 232.323 18.65 231.763 17.67C231.203 16.69 230.433 15.92 229.453 15.36C228.501 14.8 227.395 14.52 226.135 14.52C224.847 14.52 223.713 14.8 222.733 15.36C221.781 15.92 221.025 16.704 220.465 17.712C219.933 18.692 219.667 19.854 219.667 21.198V22.038C219.667 23.382 219.975 24.572 220.591 25.608C221.207 26.644 222.075 27.442 223.195 28.002C224.315 28.562 225.603 28.842 227.059 28.842C228.319 28.842 229.453 28.646 230.461 28.254C231.469 27.862 232.365 27.246 233.149 26.406L235.963 29.64C234.955 30.816 233.681 31.726 232.141 32.37C230.629 32.986 228.893 33.294 226.933 33.294ZM256.798 33L251.044 25.23L245.248 33H239.452L248.188 21.618L239.83 10.572H245.668L251.17 17.922L256.672 10.572H262.342L253.942 21.534L262.72 33H256.798ZM279.194 31.782C278.578 32.286 277.822 32.664 276.926 32.916C276.058 33.168 275.134 33.294 274.154 33.294C271.69 33.294 269.786 32.65 268.442 31.362C267.098 30.074 266.426 28.198 266.426 25.734V5.616H271.676V10.74H277.682V14.94H271.676V25.608C271.676 26.7 271.942 27.54 272.474 28.128C273.034 28.688 273.804 28.968 274.784 28.968C275.96 28.968 276.94 28.66 277.724 28.044L279.194 31.782ZM288.532 13.848C290.044 11.496 292.704 10.32 296.512 10.32V15.318C296.064 15.234 295.658 15.192 295.294 15.192C293.25 15.192 291.654 15.794 290.506 16.998C289.358 18.174 288.784 19.882 288.784 22.122V33H283.534V10.572H288.532V13.848ZM322.684 10.572V33H317.686V30.102C316.818 31.166 315.74 31.964 314.452 32.496C313.192 33.028 311.792 33.294 310.252 33.294C308.068 33.294 306.108 32.818 304.372 31.866C302.664 30.914 301.32 29.57 300.34 27.834C299.388 26.098 298.912 24.082 298.912 21.786C298.912 19.49 299.388 17.488 300.34 15.78C301.32 14.044 302.664 12.7 304.372 11.748C306.108 10.796 308.068 10.32 310.252 10.32C311.708 10.32 313.038 10.572 314.242 11.076C315.474 11.58 316.538 12.322 317.434 13.302V10.572H322.684ZM310.84 28.8C312.772 28.8 314.368 28.156 315.628 26.868C316.888 25.58 317.518 23.886 317.518 21.786C317.518 19.686 316.888 17.992 315.628 16.704C314.368 15.416 312.772 14.772 310.84 14.772C308.908 14.772 307.312 15.416 306.052 16.704C304.82 17.992 304.204 19.686 304.204 21.786C304.204 23.886 304.82 25.58 306.052 26.868C307.312 28.156 308.908 28.8 310.84 28.8Z" fill="#B26E30"/>
</g>
<defs>
<clipPath id="clip0_13_57">
<rect width="323" height="34" fill="white"/>
</clipPath>
</defs>
</svg>
