<svg width="53" height="8" viewBox="0 0 53 8" fill="none" xmlns="http://www.w3.org/2000/svg">
<path d="M0.987227 7.5V0.5H4.16723C4.92723 0.5 5.59723 0.646666 6.17723 0.94C6.75723 1.22667 7.21056 1.63 7.53723 2.15C7.86389 2.67 8.02723 3.28667 8.02723 4C8.02723 4.70667 7.86389 5.32333 7.53723 5.85C7.21056 6.37 6.75723 6.77667 6.17723 7.07C5.59723 7.35667 4.92723 7.5 4.16723 7.5H0.987227ZM2.60723 6.17H4.08723C4.55389 6.17 4.95723 6.08333 5.29723 5.91C5.64389 5.73 5.91056 5.47667 6.09723 5.15C6.29056 4.82333 6.38723 4.44 6.38723 4C6.38723 3.55333 6.29056 3.17 6.09723 2.85C5.91056 2.52333 5.64389 2.27333 5.29723 2.1C4.95723 1.92 4.55389 1.83 4.08723 1.83H2.60723V6.17ZM11.8089 7.58C11.1956 7.58 10.6556 7.46 10.1889 7.22C9.72895 6.98 9.37228 6.65333 9.11895 6.24C8.86561 5.82 8.73895 5.34333 8.73895 4.81C8.73895 4.27 8.86228 3.79333 9.10895 3.38C9.36228 2.96 9.70561 2.63333 10.1389 2.4C10.5723 2.16 11.0623 2.04 11.6089 2.04C12.1356 2.04 12.6089 2.15333 13.0289 2.38C13.4556 2.6 13.7923 2.92 14.0389 3.34C14.2856 3.75333 14.4089 4.25 14.4089 4.83C14.4089 4.89 14.4056 4.96 14.3989 5.04C14.3923 5.11333 14.3856 5.18333 14.3789 5.25H10.0089V4.34H13.5589L12.9589 4.61C12.9589 4.33 12.9023 4.08667 12.7889 3.88C12.6756 3.67333 12.5189 3.51333 12.3189 3.4C12.1189 3.28 11.8856 3.22 11.6189 3.22C11.3523 3.22 11.1156 3.28 10.9089 3.4C10.7089 3.51333 10.5523 3.67667 10.4389 3.89C10.3256 4.09667 10.2689 4.34333 10.2689 4.63V4.87C10.2689 5.16333 10.3323 5.42333 10.4589 5.65C10.5923 5.87 10.7756 6.04 11.0089 6.16C11.2489 6.27333 11.5289 6.33 11.8489 6.33C12.1356 6.33 12.3856 6.28667 12.5989 6.2C12.8189 6.11333 13.0189 5.98333 13.1989 5.81L14.0289 6.71C13.7823 6.99 13.4723 7.20667 13.0989 7.36C12.7256 7.50667 12.2956 7.58 11.8089 7.58ZM18.0475 7.58C17.4675 7.58 16.9509 7.46333 16.4975 7.23C16.0442 6.99 15.6875 6.66 15.4275 6.24C15.1742 5.82 15.0475 5.34333 15.0475 4.81C15.0475 4.27 15.1742 3.79333 15.4275 3.38C15.6875 2.96 16.0442 2.63333 16.4975 2.4C16.9509 2.16 17.4675 2.04 18.0475 2.04C18.6142 2.04 19.1075 2.16 19.5275 2.4C19.9475 2.63333 20.2575 2.97 20.4575 3.41L19.2475 4.06C19.1075 3.80667 18.9309 3.62 18.7175 3.5C18.5109 3.38 18.2842 3.32 18.0375 3.32C17.7709 3.32 17.5309 3.38 17.3175 3.5C17.1042 3.62 16.9342 3.79 16.8075 4.01C16.6875 4.23 16.6275 4.49667 16.6275 4.81C16.6275 5.12333 16.6875 5.39 16.8075 5.61C16.9342 5.83 17.1042 6 17.3175 6.12C17.5309 6.24 17.7709 6.3 18.0375 6.3C18.2842 6.3 18.5109 6.24333 18.7175 6.13C18.9309 6.01 19.1075 5.82 19.2475 5.56L20.4575 6.22C20.2575 6.65333 19.9475 6.99 19.5275 7.23C19.1075 7.46333 18.6142 7.58 18.0475 7.58ZM22.6164 6.4L22.6564 4.5L25.1664 2.12H27.0264L24.6164 4.57L23.8064 5.23L22.6164 6.4ZM21.3264 7.5V0.0799996H22.8864V7.5H21.3264ZM25.3364 7.5L23.5164 5.24L24.4964 4.03L27.2264 7.5H25.3364ZM31.388 7.62C30.848 7.62 30.3447 7.53333 29.878 7.36C29.418 7.18 29.018 6.92667 28.678 6.6C28.338 6.27333 28.0713 5.89 27.878 5.45C27.6913 5.01 27.598 4.52667 27.598 4C27.598 3.47333 27.6913 2.99 27.878 2.55C28.0713 2.11 28.338 1.72667 28.678 1.4C29.0247 1.07333 29.428 0.823333 29.888 0.649999C30.348 0.47 30.8513 0.38 31.398 0.38C32.0047 0.38 32.5513 0.486667 33.038 0.7C33.5313 0.906666 33.9447 1.21333 34.278 1.62L33.238 2.58C32.998 2.30667 32.7313 2.10333 32.438 1.97C32.1447 1.83 31.8247 1.76 31.478 1.76C31.1513 1.76 30.8513 1.81333 30.578 1.92C30.3047 2.02667 30.068 2.18 29.868 2.38C29.668 2.58 29.5113 2.81667 29.398 3.09C29.2913 3.36333 29.238 3.66667 29.238 4C29.238 4.33333 29.2913 4.63667 29.398 4.91C29.5113 5.18333 29.668 5.42 29.868 5.62C30.068 5.82 30.3047 5.97333 30.578 6.08C30.8513 6.18667 31.1513 6.24 31.478 6.24C31.8247 6.24 32.1447 6.17333 32.438 6.04C32.7313 5.9 32.998 5.69 33.238 5.41L34.278 6.37C33.9447 6.77667 33.5313 7.08667 33.038 7.3C32.5513 7.51333 32.0013 7.62 31.388 7.62ZM35.262 7.5V2.12H36.752V3.64L36.542 3.2C36.702 2.82 36.9587 2.53333 37.312 2.34C37.6653 2.14 38.0953 2.04 38.602 2.04V3.48C38.5353 3.47333 38.4753 3.47 38.422 3.47C38.3687 3.46333 38.312 3.46 38.252 3.46C37.8253 3.46 37.4787 3.58333 37.212 3.83C36.952 4.07 36.822 4.44667 36.822 4.96V7.5H35.262ZM42.478 7.5V6.45L42.378 6.22V4.34C42.378 4.00667 42.2747 3.74667 42.068 3.56C41.868 3.37333 41.558 3.28 41.138 3.28C40.8513 3.28 40.568 3.32667 40.288 3.42C40.0147 3.50667 39.7813 3.62667 39.588 3.78L39.028 2.69C39.3213 2.48333 39.6747 2.32333 40.088 2.21C40.5013 2.09667 40.9213 2.04 41.348 2.04C42.168 2.04 42.8047 2.23333 43.258 2.62C43.7113 3.00667 43.938 3.61 43.938 4.43V7.5H42.478ZM40.838 7.58C40.418 7.58 40.058 7.51 39.758 7.37C39.458 7.22333 39.228 7.02667 39.068 6.78C38.908 6.53333 38.828 6.25667 38.828 5.95C38.828 5.63 38.9047 5.35 39.058 5.11C39.218 4.87 39.468 4.68333 39.808 4.55C40.148 4.41 40.5913 4.34 41.138 4.34H42.568V5.25H41.308C40.9413 5.25 40.688 5.31 40.548 5.43C40.4147 5.55 40.348 5.7 40.348 5.88C40.348 6.08 40.4247 6.24 40.578 6.36C40.738 6.47333 40.9547 6.53 41.228 6.53C41.488 6.53 41.7213 6.47 41.928 6.35C42.1347 6.22333 42.2847 6.04 42.378 5.8L42.618 6.52C42.5047 6.86667 42.298 7.13 41.998 7.31C41.698 7.49 41.3113 7.58 40.838 7.58ZM45.5399 7.5V2C45.5399 1.39333 45.7199 0.91 46.0799 0.549999C46.4399 0.183333 46.9532 -5.96046e-07 47.6199 -5.96046e-07C47.8465 -5.96046e-07 48.0632 0.0233328 48.2699 0.0699997C48.4832 0.116666 48.6632 0.19 48.8099 0.29L48.3999 1.42C48.3132 1.36 48.2165 1.31333 48.1099 1.28C48.0032 1.24667 47.8899 1.23 47.7699 1.23C47.5432 1.23 47.3665 1.29667 47.2399 1.43C47.1199 1.55667 47.0599 1.75 47.0599 2.01V2.51L47.0999 3.18V7.5H45.5399ZM44.7099 3.44V2.24H48.4399V3.44H44.7099ZM51.4171 7.58C50.7837 7.58 50.2904 7.42 49.9371 7.1C49.5837 6.77333 49.4071 6.29 49.4071 5.65V0.93H50.9671V5.63C50.9671 5.85667 51.0271 6.03333 51.1471 6.16C51.2671 6.28 51.4304 6.34 51.6371 6.34C51.8837 6.34 52.0937 6.27333 52.2671 6.14L52.6871 7.24C52.5271 7.35333 52.3337 7.44 52.1071 7.5C51.8871 7.55333 51.6571 7.58 51.4171 7.58ZM48.5771 3.44V2.24H52.3071V3.44H48.5771Z" fill="white"/>
<path d="M0.987227 7.5H0.487227C0.487227 7.77614 0.711084 8 0.987227 8L0.987227 7.5ZM0.987227 0.5V-4.76837e-07C0.711084 -4.76837e-07 0.487227 0.223857 0.487227 0.5H0.987227ZM6.17723 0.94L5.95156 1.3862L5.95568 1.38824L6.17723 0.94ZM7.53723 2.15L7.11384 2.41597L7.53723 2.15ZM7.53723 5.85L7.96062 6.11598L7.96213 6.11355L7.53723 5.85ZM6.17723 7.07L6.39878 7.51826L6.40288 7.51618L6.17723 7.07ZM2.60723 6.17H2.10723C2.10723 6.44614 2.33108 6.67 2.60723 6.67V6.17ZM5.29723 5.91L5.52433 6.35547L5.52763 6.35375L5.29723 5.91ZM6.09723 5.15L5.66689 4.89531L5.66311 4.90193L6.09723 5.15ZM6.09723 2.85L5.66298 3.09814L5.66927 3.10856L6.09723 2.85ZM5.29723 2.1L5.06322 2.54201L5.07362 2.54721L5.29723 2.1ZM2.60723 1.83V1.33C2.33108 1.33 2.10723 1.55386 2.10723 1.83H2.60723ZM1.48723 7.5V0.5H0.487227V7.5H1.48723ZM0.987227 1H4.16723V-4.76837e-07H0.987227V1ZM4.16723 1C4.86208 1 5.45247 1.13376 5.95157 1.38618L6.40288 0.493817C5.74199 0.15957 4.99237 -4.76837e-07 4.16723 -4.76837e-07V1ZM5.95568 1.38824C6.45749 1.63626 6.839 1.97848 7.11384 2.41597L7.96062 1.88403C7.58212 1.28152 7.05696 0.817074 6.39877 0.491761L5.95568 1.38824ZM7.11384 2.41597C7.3828 2.84412 7.52723 3.36527 7.52723 4H8.52723C8.52723 3.20806 8.34499 2.49588 7.96062 1.88403L7.11384 2.41597ZM7.52723 4C7.52723 4.6269 7.38331 5.14956 7.11232 5.58645L7.96213 6.11355C8.34448 5.4971 8.52723 4.78643 8.52723 4H7.52723ZM7.11384 5.58403C6.83835 6.02256 6.45545 6.36898 5.95157 6.62382L6.40288 7.51618C7.05901 7.18435 7.58277 6.71744 7.96061 6.11597L7.11384 5.58403ZM5.95568 6.62176C5.45563 6.86892 4.86375 7 4.16723 7V8C4.99071 8 5.73883 7.84442 6.39877 7.51824L5.95568 6.62176ZM4.16723 7H0.987227V8H4.16723V7ZM2.60723 6.67H4.08723V5.67H2.60723V6.67ZM4.08723 6.67C4.61551 6.67 5.10002 6.57176 5.52432 6.35545L5.07013 5.46455C4.81443 5.59491 4.49228 5.67 4.08723 5.67V6.67ZM5.52763 6.35375C5.95617 6.13124 6.29511 5.81149 6.53135 5.39807L5.66311 4.90193C5.52601 5.14185 5.33162 5.32876 5.06682 5.46625L5.52763 6.35375ZM6.52752 5.40466C6.77332 4.98933 6.88723 4.51514 6.88723 4H5.88723C5.88723 4.36486 5.8078 4.65734 5.66694 4.89534L6.52752 5.40466ZM6.88723 4C6.88723 3.48005 6.7741 3.00344 6.52518 2.59144L5.66927 3.10856C5.80702 3.33656 5.88723 3.62661 5.88723 4H6.88723ZM6.53135 2.60193C6.29416 2.18686 5.95297 1.86885 5.52083 1.65279L5.07362 2.54721C5.33482 2.67781 5.52696 2.85981 5.66311 3.09807L6.53135 2.60193ZM5.53117 1.65811C5.10528 1.43264 4.61824 1.33 4.08723 1.33V2.33C4.48955 2.33 4.80917 2.40736 5.06328 2.54189L5.53117 1.65811ZM4.08723 1.33H2.60723V2.33H4.08723V1.33ZM2.10723 1.83V6.17H3.10723V1.83H2.10723ZM10.1889 7.22L9.95766 7.6633L9.96027 7.66464L10.1889 7.22ZM9.11895 6.24L8.69079 6.49825L8.69264 6.50128L9.11895 6.24ZM9.10895 3.38L8.68079 3.12175L8.67959 3.12377L9.10895 3.38ZM10.1389 2.4L10.376 2.84027L10.3812 2.8374L10.1389 2.4ZM13.0289 2.38L12.7914 2.82009L12.7998 2.8244L13.0289 2.38ZM14.0389 3.34L13.6078 3.59322L13.6096 3.59623L14.0389 3.34ZM14.3989 5.04L14.8969 5.08527L14.8972 5.08152L14.3989 5.04ZM14.3789 5.25V5.75C14.6358 5.75 14.8509 5.55535 14.8765 5.29975L14.3789 5.25ZM10.0089 5.25H9.50895C9.50895 5.52614 9.7328 5.75 10.0089 5.75V5.25ZM10.0089 4.34V3.84C9.7328 3.84 9.50895 4.06386 9.50895 4.34H10.0089ZM13.5589 4.34L13.7641 4.79596C13.9791 4.69923 14.0973 4.46553 14.0478 4.23507C13.9983 4.00461 13.7947 3.84 13.5589 3.84V4.34ZM12.9589 4.61H12.4589C12.4589 4.77966 12.545 4.93775 12.6875 5.02988C12.8299 5.122 13.0094 5.13558 13.1641 5.06596L12.9589 4.61ZM12.7889 3.88L12.3505 4.12042L12.3505 4.12042L12.7889 3.88ZM12.3189 3.4L12.0616 3.82888L12.0724 3.83501L12.3189 3.4ZM10.9089 3.4L11.1555 3.83503L11.16 3.83239L10.9089 3.4ZM10.4389 3.89L10.8774 4.13044L10.8805 4.12458L10.4389 3.89ZM10.4589 5.65L10.0225 5.89391C10.0253 5.89904 10.0283 5.90412 10.0313 5.90915L10.4589 5.65ZM11.0089 6.16L10.7803 6.60464C10.7853 6.60722 10.7903 6.60972 10.7954 6.61212L11.0089 6.16ZM12.5989 6.2L12.4157 5.73477L12.4108 5.73677L12.5989 6.2ZM13.1989 5.81L13.5665 5.47103C13.4753 5.37217 13.3482 5.31421 13.2138 5.31022C13.0794 5.30623 12.949 5.35656 12.8521 5.44984L13.1989 5.81ZM14.0289 6.71L14.4041 7.04052C14.5734 6.84834 14.5701 6.5593 14.3965 6.37103L14.0289 6.71ZM13.0989 7.36L13.2818 7.82543L13.2889 7.82251L13.0989 7.36ZM11.8089 7.08C11.2617 7.08 10.8025 6.9733 10.4176 6.77536L9.96027 7.66464C10.5087 7.9467 11.1295 8.08 11.8089 8.08V7.08ZM10.4202 6.77671C10.0347 6.57554 9.74792 6.3094 9.54525 5.97872L8.69264 6.50128C8.99664 6.99727 9.42323 7.38446 9.95766 7.66329L10.4202 6.77671ZM9.54709 5.98175C9.34484 5.64645 9.23895 5.26054 9.23895 4.81H8.23895C8.23895 5.42613 8.38638 5.99355 8.6908 6.49825L9.54709 5.98175ZM9.23895 4.81C9.23895 4.34896 9.34332 3.96296 9.5383 3.63623L8.67959 3.12377C8.38124 3.62371 8.23895 4.19104 8.23895 4.81H9.23895ZM9.53709 3.63825C9.74401 3.2952 10.0212 3.03127 10.376 2.84023L9.9019 1.95976C9.39 2.2354 8.98055 2.6248 8.6808 3.12175L9.53709 3.63825ZM10.3812 2.8374C10.7329 2.6426 11.1381 2.54 11.6089 2.54V1.54C10.9865 1.54 10.4116 1.6774 9.8967 1.9626L10.3812 2.8374ZM11.6089 2.54C12.0615 2.54 12.4518 2.63668 12.7915 2.82001L13.2664 1.93999C12.7661 1.66999 12.2098 1.54 11.6089 1.54V2.54ZM12.7998 2.8244C13.1411 3.00039 13.4083 3.2535 13.6078 3.59321L14.4701 3.08679C14.1763 2.5865 13.7701 2.19961 13.2581 1.9356L12.7998 2.8244ZM13.6096 3.59623C13.8014 3.91758 13.9089 4.32168 13.9089 4.83H14.9089C14.9089 4.17832 14.7699 3.58908 14.4683 3.08377L13.6096 3.59623ZM13.9089 4.83C13.9089 4.87242 13.9065 4.928 13.9007 4.99848L14.8972 5.08152C14.9047 4.992 14.9089 4.90758 14.9089 4.83H13.9089ZM13.901 4.99473C13.8945 5.06671 13.8879 5.13521 13.8814 5.20025L14.8765 5.29975C14.8833 5.23145 14.8901 5.15995 14.8969 5.08527L13.901 4.99473ZM14.3789 4.75H10.0089V5.75H14.3789V4.75ZM10.5089 5.25V4.34H9.50895V5.25H10.5089ZM10.0089 4.84H13.5589V3.84H10.0089V4.84ZM13.3538 3.88404L12.7538 4.15404L13.1641 5.06596L13.7641 4.79596L13.3538 3.88404ZM13.4589 4.61C13.4589 4.26175 13.3881 3.93264 13.2274 3.63958L12.3505 4.12042C12.4165 4.24069 12.4589 4.39825 12.4589 4.61H13.4589ZM13.2274 3.63958C13.0706 3.35366 12.8484 3.12531 12.5655 2.96499L12.0724 3.83501C12.1895 3.90135 12.2807 3.993 12.3505 4.12042L13.2274 3.63958ZM12.5762 2.97125C12.2879 2.79826 11.963 2.72 11.6189 2.72V3.72C11.8082 3.72 11.95 3.76174 12.0617 3.82875L12.5762 2.97125ZM11.6189 2.72C11.2745 2.72 10.9494 2.79835 10.6579 2.96761L11.16 3.83239C11.2819 3.76165 11.43 3.72 11.6189 3.72V2.72ZM10.6624 2.96499C10.3754 3.12766 10.153 3.36257 9.99739 3.65542L10.8805 4.12458C10.9516 3.99077 11.0425 3.89901 11.1555 3.83501L10.6624 2.96499ZM10.0005 3.64958C9.83893 3.94428 9.76895 4.27733 9.76895 4.63H10.7689C10.7689 4.40934 10.8123 4.24905 10.8774 4.13042L10.0005 3.64958ZM9.76895 4.63V4.87H10.7689V4.63H9.76895ZM9.76895 4.87C9.76895 5.23747 9.84898 5.58345 10.0225 5.89391L10.8954 5.40609C10.8156 5.26321 10.7689 5.0892 10.7689 4.87H9.76895ZM10.0313 5.90915C10.2136 6.20982 10.4665 6.44327 10.7803 6.60464L11.2376 5.71536C11.0847 5.63673 10.971 5.53018 10.8865 5.39085L10.0313 5.90915ZM10.7954 6.61212C11.1145 6.7628 11.4701 6.83 11.8489 6.83V5.83C11.5878 5.83 11.3834 5.78387 11.2224 5.70788L10.7954 6.61212ZM11.8489 6.83C12.1849 6.83 12.5014 6.77933 12.7871 6.66323L12.4108 5.73677C12.2699 5.794 12.0864 5.83 11.8489 5.83V6.83ZM12.7822 6.6652C13.0665 6.55322 13.3214 6.38625 13.5458 6.17016L12.8521 5.44984C12.7165 5.58041 12.5714 5.67345 12.4157 5.7348L12.7822 6.6652ZM12.8314 6.14897L13.6614 7.04897L14.3965 6.37103L13.5665 5.47103L12.8314 6.14897ZM13.6538 6.37948C13.4619 6.59723 13.2172 6.77091 12.909 6.89749L13.2889 7.82251C13.7274 7.64242 14.1026 7.38277 14.4041 7.04052L13.6538 6.37948ZM12.9161 6.89462C12.612 7.0141 12.246 7.08 11.8089 7.08V8.08C12.3452 8.08 12.8392 7.99923 13.2818 7.82538L12.9161 6.89462ZM16.4975 7.23L16.2636 7.67192L16.2687 7.67457L16.4975 7.23ZM15.4275 6.24L14.9994 6.49826L15.0024 6.50318L15.4275 6.24ZM15.4275 3.38L15.0024 3.11682L15.0012 3.11872L15.4275 3.38ZM16.4975 2.4L16.7264 2.8446L16.7315 2.84189L16.4975 2.4ZM19.5275 2.4L19.2795 2.83415L19.2847 2.83708L19.5275 2.4ZM20.4575 3.41L20.6942 3.85047C20.9261 3.72588 21.0217 3.44278 20.9127 3.2031L20.4575 3.41ZM19.2475 4.06L18.8099 4.30184C18.9424 4.5415 19.2429 4.63005 19.4842 4.50047L19.2475 4.06ZM18.7175 3.5L18.4664 3.93243L18.4724 3.93579L18.7175 3.5ZM17.3175 3.5L17.5627 3.93579L17.5627 3.93579L17.3175 3.5ZM16.8075 4.01L16.3741 3.76045L16.3686 3.77057L16.8075 4.01ZM16.8075 5.61L16.3685 5.84949L16.3742 5.85948L16.8075 5.61ZM17.3175 6.12L17.5627 5.68421L17.5627 5.68421L17.3175 6.12ZM18.7175 6.13L18.958 6.56843L18.9627 6.56579L18.7175 6.13ZM19.2475 5.56L19.487 5.12105C19.3701 5.05733 19.2327 5.04281 19.1052 5.0807C18.9776 5.11859 18.8704 5.20578 18.8073 5.32295L19.2475 5.56ZM20.4575 6.22L20.9115 6.42953C21.0218 6.19059 20.928 5.90707 20.697 5.78105L20.4575 6.22ZM19.5275 7.23L19.7704 7.66711L19.7756 7.66412L19.5275 7.23ZM18.0475 7.08C17.5361 7.08 17.0997 6.9776 16.7264 6.78543L16.2687 7.67457C16.802 7.94907 17.399 8.08 18.0475 8.08V7.08ZM16.7315 6.78811C16.3535 6.58798 16.0641 6.31836 15.8527 5.97682L15.0024 6.50318C15.311 7.00164 15.7349 7.39202 16.2636 7.67189L16.7315 6.78811ZM15.8557 5.98175C15.6534 5.64645 15.5475 5.26054 15.5475 4.81H14.5475C14.5475 5.42613 14.695 5.99355 14.9994 6.49825L15.8557 5.98175ZM15.5475 4.81C15.5475 4.35142 15.6541 3.96725 15.8538 3.64128L15.0012 3.11872C14.6944 3.61941 14.5475 4.18858 14.5475 4.81H15.5475ZM15.8527 3.64318C16.0633 3.3029 16.351 3.03777 16.7264 2.84457L16.2687 1.95543C15.7374 2.22889 15.3118 2.6171 15.0024 3.11682L15.8527 3.64318ZM16.7315 2.84189C17.1038 2.6448 17.5383 2.54 18.0475 2.54V1.54C17.3968 1.54 16.798 1.6752 16.2636 1.95811L16.7315 2.84189ZM18.0475 2.54C18.5422 2.54 18.9471 2.64418 19.2795 2.83412L19.7756 1.96588C19.268 1.67582 18.6862 1.54 18.0475 1.54V2.54ZM19.2847 2.83708C19.6105 3.01807 19.8464 3.27376 20.0024 3.6169L20.9127 3.2031C20.6687 2.66624 20.2846 2.24859 19.7704 1.96292L19.2847 2.83708ZM20.2209 2.96953L19.0109 3.61953L19.4842 4.50047L20.6942 3.85047L20.2209 2.96953ZM19.6852 3.81816C19.5085 3.49856 19.2707 3.23747 18.9627 3.06421L18.4724 3.93579C18.5911 4.00253 18.7065 4.11477 18.8099 4.30184L19.6852 3.81816ZM18.9686 3.06761C18.6832 2.90186 18.3694 2.82 18.0375 2.82V3.82C18.199 3.82 18.3386 3.85814 18.4665 3.93239L18.9686 3.06761ZM18.0375 2.82C17.6929 2.82 17.3672 2.89841 17.0724 3.06421L17.5627 3.93579C17.6946 3.86159 17.8488 3.82 18.0375 3.82V2.82ZM17.0724 3.06421C16.7778 3.22995 16.544 3.46566 16.3742 3.76052L17.2409 4.25948C17.3244 4.11434 17.4307 4.01005 17.5627 3.93579L17.0724 3.06421ZM16.3686 3.77057C16.1997 4.08019 16.1275 4.4336 16.1275 4.81H17.1275C17.1275 4.55973 17.1754 4.37981 17.2465 4.24943L16.3686 3.77057ZM16.1275 4.81C16.1275 5.1864 16.1997 5.53981 16.3686 5.84943L17.2465 5.37057C17.1754 5.24019 17.1275 5.06027 17.1275 4.81H16.1275ZM16.3742 5.85948C16.544 6.15434 16.7778 6.39005 17.0724 6.55579L17.5627 5.68421C17.4307 5.60995 17.3244 5.50566 17.2409 5.36052L16.3742 5.85948ZM17.0724 6.55579C17.3672 6.72159 17.6929 6.8 18.0375 6.8V5.8C17.8488 5.8 17.6946 5.75841 17.5627 5.68421L17.0724 6.55579ZM18.0375 6.8C18.3642 6.8 18.6741 6.72405 18.958 6.56841L18.4771 5.69159C18.3476 5.76261 18.2042 5.8 18.0375 5.8V6.8ZM18.9627 6.56579C19.2742 6.39056 19.5122 6.12309 19.6878 5.79705L18.8073 5.32295C18.7029 5.51691 18.5876 5.62944 18.4724 5.69421L18.9627 6.56579ZM19.0081 5.99895L20.2181 6.65895L20.697 5.78105L19.487 5.12105L19.0081 5.99895ZM20.0036 6.01047C19.8478 6.34798 19.6105 6.60675 19.2795 6.79588L19.7756 7.66412C20.2846 7.37325 20.6673 6.95869 20.9115 6.42953L20.0036 6.01047ZM19.2847 6.79292C18.9513 6.97815 18.5445 7.08 18.0475 7.08V8.08C18.6839 8.08 19.2638 7.94852 19.7704 7.66708L19.2847 6.79292ZM22.6164 6.4L22.1166 6.38948C22.1123 6.59281 22.2316 6.77847 22.4183 6.85906C22.605 6.93966 22.822 6.89912 22.967 6.75654L22.6164 6.4ZM22.6564 4.5L22.3124 4.13718C22.2155 4.22908 22.1594 4.35594 22.1566 4.48948L22.6564 4.5ZM25.1664 2.12V1.62C25.0384 1.62 24.9153 1.6691 24.8224 1.75718L25.1664 2.12ZM27.0264 2.12L27.3829 2.47063C27.5242 2.32699 27.5655 2.11259 27.4876 1.92676C27.4097 1.74093 27.2279 1.62 27.0264 1.62V2.12ZM24.6164 4.57L24.9323 4.95762C24.9465 4.94604 24.96 4.9337 24.9729 4.92063L24.6164 4.57ZM23.8064 5.23L23.4906 4.84238C23.4786 4.8522 23.467 4.86257 23.4559 4.87346L23.8064 5.23ZM21.3264 7.5H20.8264C20.8264 7.77614 21.0503 8 21.3264 8V7.5ZM21.3264 0.0799996V-0.42C21.0503 -0.42 20.8264 -0.196143 20.8264 0.0799996H21.3264ZM22.8864 0.0799996H23.3864C23.3864 -0.196143 23.1626 -0.42 22.8864 -0.42V0.0799996ZM22.8864 7.5V8C23.1626 8 23.3864 7.77614 23.3864 7.5H22.8864ZM25.3364 7.5L24.947 7.81361C25.0419 7.93147 25.1851 8 25.3364 8V7.5ZM23.5164 5.24L23.1279 4.92531C22.9796 5.10838 22.9793 5.37012 23.127 5.55361L23.5164 5.24ZM24.4964 4.03L24.8894 3.72084C24.7954 3.60132 24.6521 3.53109 24.5 3.53001C24.3479 3.52894 24.2036 3.59713 24.1079 3.71531L24.4964 4.03ZM27.2264 7.5V8C27.4179 8 27.5926 7.89066 27.6762 7.71843C27.7599 7.54619 27.7378 7.34132 27.6194 7.19084L27.2264 7.5ZM23.1163 6.41052L23.1563 4.51052L22.1566 4.48948L22.1166 6.38948L23.1163 6.41052ZM23.0005 4.86282L25.5105 2.48282L24.8224 1.75718L22.3124 4.13718L23.0005 4.86282ZM25.1664 2.62H27.0264V1.62H25.1664V2.62ZM26.67 1.76937L24.26 4.21937L24.9729 4.92063L27.3829 2.47063L26.67 1.76937ZM24.3006 4.18238L23.4906 4.84238L24.1223 5.61762L24.9323 4.95762L24.3006 4.18238ZM23.4559 4.87346L22.2659 6.04346L22.967 6.75654L24.157 5.58654L23.4559 4.87346ZM21.8264 7.5V0.0799996H20.8264V7.5H21.8264ZM21.3264 0.58H22.8864V-0.42H21.3264V0.58ZM22.3864 0.0799996V7.5H23.3864V0.0799996H22.3864ZM22.8864 7H21.3264V8H22.8864V7ZM25.7259 7.18639L23.9059 4.92639L23.127 5.55361L24.947 7.81361L25.7259 7.18639ZM23.905 5.55469L24.885 4.34469L24.1079 3.71531L23.1279 4.92531L23.905 5.55469ZM24.1035 4.33916L26.8335 7.80916L27.6194 7.19084L24.8894 3.72084L24.1035 4.33916ZM27.2264 7H25.3364V8H27.2264V7ZM29.878 7.36L29.6958 7.82569L29.7039 7.82871L29.878 7.36ZM28.678 6.6L28.3316 6.96055L28.3316 6.96055L28.678 6.6ZM27.878 5.45L27.4177 5.64529L27.4202 5.65114L27.878 5.45ZM27.878 2.55L27.4202 2.34885L27.4177 2.35472L27.878 2.55ZM28.678 1.4L28.3351 1.03609L28.3316 1.03945L28.678 1.4ZM29.888 0.649999L30.0643 1.11792L30.0702 1.11562L29.888 0.649999ZM33.038 0.7L32.8372 1.158L32.8448 1.16117L33.038 0.7ZM34.278 1.62L34.6171 1.9874C34.8117 1.80784 34.8325 1.50778 34.6647 1.30304L34.278 1.62ZM33.238 2.58L32.8623 2.9099C32.9512 3.01117 33.0772 3.07225 33.2118 3.07931C33.3464 3.08637 33.4781 3.03881 33.5771 2.9474L33.238 2.58ZM32.438 1.97L32.2226 2.42132L32.2311 2.42518L32.438 1.97ZM29.868 2.38L30.2216 2.73355L30.2216 2.73355L29.868 2.38ZM29.398 3.09L28.936 2.89845L28.9322 2.90823L29.398 3.09ZM29.398 4.91L28.9321 5.09181L28.9361 5.10151L29.398 4.91ZM29.868 5.62L29.5145 5.97355L29.5145 5.97355L29.868 5.62ZM32.438 6.04L32.6449 6.49526L32.6534 6.49124L32.438 6.04ZM33.238 5.41L33.5771 5.0426C33.4774 4.95049 33.3444 4.90293 33.2088 4.91085C33.0733 4.91877 32.9468 4.9815 32.8584 5.0846L33.238 5.41ZM34.278 6.37L34.6647 6.68696C34.8325 6.48222 34.8117 6.18216 34.6171 6.0026L34.278 6.37ZM33.038 7.3L32.8395 6.84107L32.8373 6.84207L33.038 7.3ZM31.388 7.12C30.9024 7.12 30.4585 7.04224 30.0521 6.89129L29.7039 7.82871C30.2308 8.02443 30.7936 8.12 31.388 8.12V7.12ZM30.0602 6.89438C29.6583 6.73713 29.3149 6.5185 29.0244 6.23945L28.3316 6.96055C28.7211 7.33483 29.1777 7.62287 29.6958 7.82562L30.0602 6.89438ZM29.0244 6.23945C28.7325 5.95901 28.5033 5.63013 28.3358 5.24886L27.4202 5.65114C27.6394 6.14986 27.9435 6.58766 28.3316 6.96055L29.0244 6.23945ZM28.3383 5.25472C28.1804 4.88252 28.098 4.46644 28.098 4H27.098C27.098 4.58689 27.2023 5.13748 27.4177 5.64527L28.3383 5.25472ZM28.098 4C28.098 3.53356 28.1804 3.11748 28.3383 2.74527L27.4177 2.35472C27.2023 2.86252 27.098 3.41311 27.098 4H28.098ZM28.3358 2.75114C28.5033 2.36986 28.7325 2.04099 29.0244 1.76055L28.3316 1.03945C27.9435 1.41234 27.6394 1.85013 27.4202 2.34886L28.3358 2.75114ZM29.0209 1.76389C29.3179 1.48402 29.6642 1.26867 30.0643 1.11788L29.7117 0.182114C29.1919 0.377995 28.7314 0.662643 28.3351 1.03611L29.0209 1.76389ZM30.0702 1.11562C30.4663 0.960642 30.907 0.88 31.398 0.88V-0.12C30.7956 -0.12 30.2298 -0.0206429 29.7058 0.184378L30.0702 1.11562ZM31.398 0.88C31.9453 0.88 32.4223 0.976009 32.8373 1.15793L33.2387 0.242065C32.6804 -0.00267604 32.064 -0.12 31.398 -0.12V0.88ZM32.8448 1.16117C33.2642 1.33685 33.6107 1.59457 33.8913 1.93696L34.6647 1.30304C34.2787 0.8321 33.7985 0.47648 33.2312 0.238831L32.8448 1.16117ZM33.9389 1.2526L32.8989 2.2126L33.5771 2.9474L34.6171 1.9874L33.9389 1.2526ZM33.6137 2.2501C33.333 1.93039 33.0106 1.68104 32.6449 1.51482L32.2311 2.42518C32.4521 2.52563 32.663 2.68295 32.8623 2.9099L33.6137 2.2501ZM32.6534 1.51876C32.2884 1.34455 31.8941 1.26 31.478 1.26V2.26C31.7552 2.26 32.001 2.31545 32.2226 2.42124L32.6534 1.51876ZM31.478 1.26C31.0962 1.26 30.7337 1.32251 30.3962 1.45421L30.7598 2.38579C30.969 2.30415 31.2065 2.26 31.478 2.26V1.26ZM30.3962 1.45421C30.061 1.58505 29.7652 1.77573 29.5145 2.02645L30.2216 2.73355C30.3708 2.58427 30.5484 2.46828 30.7598 2.38579L30.3962 1.45421ZM29.5145 2.02645C29.2659 2.27496 29.0734 2.56741 28.9361 2.89849L29.8599 3.28151C29.9493 3.06593 30.0701 2.88504 30.2216 2.73355L29.5145 2.02645ZM28.9322 2.90823C28.8001 3.24683 28.738 3.61287 28.738 4H29.738C29.738 3.72047 29.7826 3.47983 29.8638 3.27177L28.9322 2.90823ZM28.738 4C28.738 4.38713 28.8001 4.75317 28.9322 5.09177L29.8638 4.72823C29.7826 4.52017 29.738 4.27953 29.738 4H28.738ZM28.9361 5.10151C29.0734 5.43259 29.2659 5.72504 29.5145 5.97355L30.2216 5.26645C30.0701 5.11496 29.9493 4.93407 29.8599 4.71849L28.9361 5.10151ZM29.5145 5.97355C29.7652 6.22427 30.061 6.41495 30.3962 6.54579L30.7598 5.61421C30.5484 5.53172 30.3708 5.41573 30.2216 5.26645L29.5145 5.97355ZM30.3962 6.54579C30.7337 6.67749 31.0962 6.74 31.478 6.74V5.74C31.2065 5.74 30.969 5.69585 30.7598 5.61421L30.3962 6.54579ZM31.478 6.74C31.8906 6.74 32.2818 6.66025 32.6449 6.49518L32.2311 5.58482C32.0076 5.68642 31.7588 5.74 31.478 5.74V6.74ZM32.6534 6.49124C33.0176 6.31741 33.3384 6.06122 33.6176 5.7354L32.8584 5.0846C32.6577 5.31878 32.4451 5.48259 32.2226 5.58876L32.6534 6.49124ZM32.8989 5.7774L33.9389 6.7374L34.6171 6.0026L33.5771 5.0426L32.8989 5.7774ZM33.8913 6.05304C33.6097 6.39665 33.2614 6.65865 32.8396 6.84107L33.2365 7.75893C33.8013 7.51468 34.2797 7.15668 34.6647 6.68696L33.8913 6.05304ZM32.8373 6.84207C32.4229 7.0237 31.9428 7.12 31.388 7.12V8.12C32.0599 8.12 32.6798 8.00297 33.2387 7.75793L32.8373 6.84207ZM35.262 7.5H34.762C34.762 7.77614 34.9858 8 35.262 8V7.5ZM35.262 2.12V1.62C34.9858 1.62 34.762 1.84386 34.762 2.12H35.262ZM36.752 2.12H37.252C37.252 1.84386 37.0281 1.62 36.752 1.62V2.12ZM36.752 3.64L36.3008 3.85536C36.4014 4.06619 36.6346 4.17924 36.8624 4.12766C37.0902 4.07607 37.252 3.8736 37.252 3.64H36.752ZM36.542 3.2L36.0812 3.00597C36.0258 3.13755 36.0293 3.28653 36.0908 3.41536L36.542 3.2ZM37.312 2.34L37.552 2.77868L37.5583 2.77513L37.312 2.34ZM38.602 2.04H39.102C39.102 1.76386 38.8781 1.54 38.602 1.54V2.04ZM38.602 3.48L38.5522 3.97752C38.6928 3.99158 38.8328 3.94552 38.9375 3.85073C39.0422 3.75594 39.102 3.62126 39.102 3.48H38.602ZM38.422 3.47L38.36 3.96614C38.3805 3.96871 38.4013 3.97 38.422 3.97V3.47ZM37.212 3.83L37.5511 4.1974L37.5515 4.19705L37.212 3.83ZM36.822 7.5V8C37.0981 8 37.322 7.77614 37.322 7.5H36.822ZM35.762 7.5V2.12H34.762V7.5H35.762ZM35.262 2.62H36.752V1.62H35.262V2.62ZM36.252 2.12V3.64H37.252V2.12H36.252ZM37.2032 3.42464L36.9932 2.98464L36.0908 3.41536L36.3008 3.85536L37.2032 3.42464ZM37.0028 3.39403C37.1201 3.1155 37.3003 2.91635 37.552 2.77863L37.072 1.90137C36.617 2.15032 36.2839 2.5245 36.0812 3.00597L37.0028 3.39403ZM37.5583 2.77513C37.82 2.62697 38.1605 2.54 38.602 2.54V1.54C38.0301 1.54 37.5106 1.65303 37.0657 1.90487L37.5583 2.77513ZM38.102 2.04V3.48H39.102V2.04H38.102ZM38.6517 2.98248C38.5725 2.97456 38.4955 2.97 38.422 2.97V3.97C38.4551 3.97 38.4981 3.97211 38.5522 3.97752L38.6517 2.98248ZM38.484 2.97386C38.4079 2.96435 38.3304 2.96 38.252 2.96V3.96C38.2936 3.96 38.3294 3.96232 38.36 3.96614L38.484 2.97386ZM38.252 2.96C37.7228 2.96 37.2474 3.11615 36.8725 3.46295L37.5515 4.19705C37.7099 4.05052 37.9278 3.96 38.252 3.96V2.96ZM36.8729 3.4626C36.4713 3.83324 36.322 4.3709 36.322 4.96H37.322C37.322 4.52243 37.4327 4.30676 37.5511 4.1974L36.8729 3.4626ZM36.322 4.96V7.5H37.322V4.96H36.322ZM36.822 7H35.262V8H36.822V7ZM42.478 7.5H41.978C41.978 7.77614 42.2019 8 42.478 8V7.5ZM42.478 6.45H42.978C42.978 6.3814 42.9639 6.31354 42.9365 6.25064L42.478 6.45ZM42.378 6.22H41.878C41.878 6.28859 41.8921 6.35646 41.9195 6.41936L42.378 6.22ZM42.068 3.56L41.7268 3.92558L41.7329 3.93105L42.068 3.56ZM40.288 3.42L40.4391 3.89667L40.4461 3.89434L40.288 3.42ZM39.588 3.78L39.1433 4.00849C39.2117 4.14162 39.3361 4.2371 39.4824 4.26872C39.6287 4.30033 39.7814 4.26475 39.8987 4.17175L39.588 3.78ZM39.028 2.69L38.74 2.28126C38.5362 2.42487 38.4693 2.6967 38.5833 2.91849L39.028 2.69ZM40.088 2.21L39.9558 1.7278L39.9558 1.7278L40.088 2.21ZM43.258 2.62L43.5825 2.23958L43.5825 2.23958L43.258 2.62ZM43.938 7.5V8C44.2142 8 44.438 7.77614 44.438 7.5H43.938ZM39.758 7.37L39.5384 7.81927L39.5466 7.82309L39.758 7.37ZM39.068 6.78L39.4875 6.5079L39.4875 6.5079L39.068 6.78ZM39.058 5.11L38.6419 4.8326L38.6367 4.84081L39.058 5.11ZM39.808 4.55L39.9906 5.01555L39.9984 5.01234L39.808 4.55ZM42.568 4.34H43.068C43.068 4.06386 42.8442 3.84 42.568 3.84V4.34ZM42.568 5.25V5.75C42.8442 5.75 43.068 5.52614 43.068 5.25H42.568ZM40.548 5.43L40.2225 5.05026L40.2135 5.05835L40.548 5.43ZM40.578 6.36L40.2699 6.75375C40.2761 6.75866 40.2825 6.76341 40.289 6.76801L40.578 6.36ZM41.928 6.35L42.1791 6.78252L42.1893 6.7763L41.928 6.35ZM42.378 5.8L42.8523 5.64189C42.7857 5.442 42.6009 5.30533 42.3903 5.30015C42.1797 5.29497 41.9884 5.4224 41.912 5.61878L42.378 5.8ZM42.618 6.52L43.0933 6.67537C43.1266 6.57348 43.1262 6.46358 43.0923 6.36189L42.618 6.52ZM41.998 7.31L41.7408 6.88125L41.7408 6.88125L41.998 7.31ZM42.978 7.5V6.45H41.978V7.5H42.978ZM42.9365 6.25064L42.8365 6.02064L41.9195 6.41936L42.0195 6.64936L42.9365 6.25064ZM42.878 6.22V4.34H41.878V6.22H42.878ZM42.878 4.34C42.878 3.89557 42.7354 3.489 42.4032 3.18895L41.7329 3.93105C41.814 4.00433 41.878 4.11777 41.878 4.34H42.878ZM42.4092 3.19447C42.0777 2.88512 41.619 2.78 41.138 2.78V3.78C41.497 3.78 41.6583 3.86155 41.7268 3.92553L42.4092 3.19447ZM41.138 2.78C40.796 2.78 40.4594 2.83584 40.1299 2.94566L40.4461 3.89434C40.6767 3.81749 40.9067 3.78 41.138 3.78V2.78ZM40.1369 2.94338C39.8149 3.04548 39.5253 3.19159 39.2773 3.38825L39.8987 4.17175C40.0374 4.06175 40.2145 3.96785 40.4391 3.89662L40.1369 2.94338ZM40.0327 3.55151L39.4727 2.46151L38.5833 2.91849L39.1433 4.00849L40.0327 3.55151ZM39.316 3.09874C39.5538 2.93116 39.8521 2.79314 40.2202 2.6922L39.9558 1.7278C39.4972 1.85353 39.0888 2.03551 38.74 2.28126L39.316 3.09874ZM40.2202 2.6922C40.5907 2.59063 40.9662 2.54 41.348 2.54V1.54C40.8765 1.54 40.412 1.60271 39.9558 1.7278L40.2202 2.6922ZM41.348 2.54C42.0937 2.54 42.5997 2.71567 42.9335 3.00042L43.5825 2.23958C43.0097 1.751 42.2423 1.54 41.348 1.54V2.54ZM42.9335 3.00042C43.238 3.26012 43.438 3.69866 43.438 4.43H44.438C44.438 3.52134 44.1847 2.75322 43.5825 2.23958L42.9335 3.00042ZM43.438 4.43V7.5H44.438V4.43H43.438ZM43.938 7H42.478V8H43.938V7ZM40.838 7.08C40.4721 7.08 40.188 7.01888 39.9695 6.91691L39.5466 7.82309C39.9281 8.00112 40.3639 8.08 40.838 8.08V7.08ZM39.9776 6.92081C39.7478 6.80844 39.5917 6.66861 39.4875 6.5079L38.6485 7.0521C38.8643 7.38472 39.1682 7.63823 39.5384 7.81919L39.9776 6.92081ZM39.4875 6.5079C39.3824 6.34585 39.328 6.16447 39.328 5.95H38.328C38.328 6.34886 38.4336 6.72081 38.6485 7.0521L39.4875 6.5079ZM39.328 5.95C39.328 5.71324 39.3836 5.52914 39.4794 5.37919L38.6367 4.84081C38.4258 5.17086 38.328 5.54676 38.328 5.95H39.328ZM39.474 5.38735C39.5638 5.25266 39.7204 5.12143 39.9906 5.01549L39.6255 4.08451C39.2156 4.24523 38.8722 4.48734 38.642 4.83265L39.474 5.38735ZM39.9984 5.01234C40.2561 4.90624 40.6278 4.84 41.138 4.84V3.84C40.5549 3.84 40.04 3.91376 39.6176 4.08766L39.9984 5.01234ZM41.138 4.84H42.568V3.84H41.138V4.84ZM42.068 4.34V5.25H43.068V4.34H42.068ZM42.568 4.75H41.308V5.75H42.568V4.75ZM41.308 4.75C40.9225 4.75 40.508 4.80577 40.2226 5.05037L40.8734 5.80963C40.8632 5.81842 40.8792 5.80027 40.9582 5.78154C41.0353 5.76329 41.1491 5.75 41.308 5.75V4.75ZM40.2135 5.05835C39.9744 5.27355 39.848 5.55882 39.848 5.88H40.848C40.848 5.85314 40.8526 5.84069 40.8549 5.83557C40.8572 5.83049 40.8631 5.81908 40.8825 5.80165L40.2135 5.05835ZM39.848 5.88C39.848 6.22889 39.9916 6.53602 40.2699 6.75375L40.8862 5.96625C40.8641 5.949 40.8583 5.93795 40.8564 5.93394C40.8543 5.92951 40.848 5.91479 40.848 5.88H39.848ZM40.289 6.76801C40.5609 6.96061 40.8907 7.03 41.228 7.03V6.03C41.0186 6.03 40.9151 5.98606 40.867 5.95199L40.289 6.76801ZM41.228 7.03C41.5682 7.03 41.8895 6.95053 42.1791 6.78239L41.6769 5.91761C41.5532 5.98947 41.4078 6.03 41.228 6.03V7.03ZM42.1893 6.7763C42.4952 6.58883 42.7137 6.31632 42.844 5.98122L41.912 5.61878C41.8557 5.76368 41.7742 5.85784 41.6667 5.9237L42.1893 6.7763ZM41.9037 5.95811L42.1437 6.67811L43.0923 6.36189L42.8523 5.64189L41.9037 5.95811ZM42.1428 6.36463C42.0651 6.60221 41.9329 6.76599 41.7408 6.88125L42.2553 7.73875C42.6631 7.49401 42.9443 7.13112 43.0933 6.67537L42.1428 6.36463ZM41.7408 6.88125C41.5412 7.00096 41.2516 7.08 40.838 7.08V8.08C41.3711 8.08 41.8548 7.97904 42.2553 7.73875L41.7408 6.88125ZM45.5399 7.5H45.0399C45.0399 7.77614 45.2637 8 45.5399 8V7.5ZM46.0799 0.549999L46.4335 0.903568L46.4367 0.900295L46.0799 0.549999ZM48.2699 0.0699997L48.1597 0.557731L48.163 0.55845L48.2699 0.0699997ZM48.8099 0.29L49.2799 0.460537C49.3578 0.245804 49.2803 0.00557065 49.0916 -0.123113L48.8099 0.29ZM48.3999 1.42L48.1153 1.8311C48.2428 1.91936 48.404 1.94348 48.5517 1.89638C48.6995 1.84928 48.817 1.7363 48.8699 1.59054L48.3999 1.42ZM47.2399 1.43L46.8774 1.08562L46.8769 1.08613L47.2399 1.43ZM47.0599 2.51H46.5599C46.5599 2.51994 46.5602 2.52988 46.5608 2.5398L47.0599 2.51ZM47.0999 3.18H47.5999C47.5999 3.17006 47.5996 3.16012 47.599 3.1502L47.0999 3.18ZM47.0999 7.5V8C47.376 8 47.5999 7.77614 47.5999 7.5H47.0999ZM44.7099 3.44H44.2099C44.2099 3.71614 44.4337 3.94 44.7099 3.94V3.44ZM44.7099 2.24V1.74C44.4337 1.74 44.2099 1.96386 44.2099 2.24H44.7099ZM48.4399 2.24H48.9399C48.9399 1.96386 48.716 1.74 48.4399 1.74V2.24ZM48.4399 3.44V3.94C48.716 3.94 48.9399 3.71614 48.9399 3.44H48.4399ZM46.0399 7.5V2H45.0399V7.5H46.0399ZM46.0399 2C46.0399 1.49869 46.1849 1.15213 46.4334 0.903553L45.7263 0.196446C45.2549 0.667873 45.0399 1.28798 45.0399 2H46.0399ZM46.4367 0.900295C46.677 0.655557 47.0457 0.499999 47.6199 0.499999V-0.500001C46.8608 -0.500001 46.2028 -0.288891 45.7231 0.199704L46.4367 0.900295ZM47.6199 0.499999C47.8121 0.499999 47.9916 0.519761 48.1598 0.55772L48.38 -0.417721C48.1348 -0.473095 47.881 -0.500001 47.6199 -0.500001V0.499999ZM48.163 0.55845C48.3278 0.594485 48.4451 0.646449 48.5282 0.703113L49.0916 -0.123113C48.8813 -0.26645 48.6387 -0.361153 48.3767 -0.41845L48.163 0.55845ZM48.3399 0.119462L47.9299 1.24946L48.8699 1.59054L49.2799 0.460537L48.3399 0.119462ZM48.6845 1.0089C48.5538 0.918451 48.411 0.850258 48.259 0.80276L47.9607 1.75724C48.0221 1.77641 48.0726 1.80155 48.1153 1.8311L48.6845 1.0089ZM48.259 0.80276C48.1006 0.753267 47.9367 0.73 47.7699 0.73V1.73C47.843 1.73 47.9058 1.74007 47.9607 1.75724L48.259 0.80276ZM47.7699 0.73C47.4403 0.73 47.1196 0.830655 46.8774 1.08562L47.6024 1.77437C47.6135 1.76268 47.6462 1.73 47.7699 1.73V0.73ZM46.8769 1.08613C46.6341 1.3424 46.5599 1.68369 46.5599 2.01H47.5599C47.5599 1.91673 47.5708 1.85548 47.5824 1.8182C47.588 1.80016 47.5934 1.78893 47.5969 1.78263C47.6003 1.77655 47.6025 1.77423 47.6029 1.77387L46.8769 1.08613ZM46.5599 2.01V2.51H47.5599V2.01H46.5599ZM46.5608 2.5398L46.6008 3.2098L47.599 3.1502L47.559 2.4802L46.5608 2.5398ZM46.5999 3.18V7.5H47.5999V3.18H46.5999ZM47.0999 7H45.5399V8H47.0999V7ZM45.2099 3.44V2.24H44.2099V3.44H45.2099ZM44.7099 2.74H48.4399V1.74H44.7099V2.74ZM47.9399 2.24V3.44H48.9399V2.24H47.9399ZM48.4399 2.94H44.7099V3.94H48.4399V2.94ZM49.9371 7.1L49.5976 7.46716L49.6014 7.4706L49.9371 7.1ZM49.4071 0.93V0.43C49.1309 0.43 48.9071 0.653858 48.9071 0.93H49.4071ZM50.9671 0.93H51.4671C51.4671 0.653858 51.2432 0.43 50.9671 0.43V0.93ZM51.1471 6.16L50.784 6.504L50.7935 6.51355L51.1471 6.16ZM52.2671 6.14L52.7342 5.96165C52.6778 5.81403 52.555 5.70175 52.4029 5.65881C52.2509 5.61588 52.0875 5.64735 51.9622 5.74369L52.2671 6.14ZM52.6871 7.24L52.9761 7.64801C53.1623 7.5161 53.2356 7.27484 53.1542 7.06165L52.6871 7.24ZM52.1071 7.5L52.2249 7.98603L52.235 7.98335L52.1071 7.5ZM48.5771 3.44H48.0771C48.0771 3.71614 48.3009 3.94 48.5771 3.94V3.44ZM48.5771 2.24V1.74C48.3009 1.74 48.0771 1.96386 48.0771 2.24H48.5771ZM52.3071 2.24H52.8071C52.8071 1.96386 52.5832 1.74 52.3071 1.74V2.24ZM52.3071 3.44V3.94C52.5832 3.94 52.8071 3.71614 52.8071 3.44H52.3071ZM51.4171 7.08C50.8662 7.08 50.5074 6.9419 50.2727 6.7294L49.6014 7.4706C50.0735 7.8981 50.7012 8.08 51.4171 8.08V7.08ZM50.2765 6.73286C50.0562 6.52922 49.9071 6.19876 49.9071 5.65H48.9071C48.9071 6.38124 49.1112 7.01745 49.5976 7.46714L50.2765 6.73286ZM49.9071 5.65V0.93H48.9071V5.65H49.9071ZM49.4071 1.43H50.9671V0.43H49.4071V1.43ZM50.4671 0.93V5.63H51.4671V0.93H50.4671ZM50.4671 5.63C50.4671 5.94504 50.5522 6.25912 50.7841 6.50387L51.51 5.81613C51.5019 5.80755 51.4671 5.7683 51.4671 5.63H50.4671ZM50.7935 6.51355C51.027 6.74704 51.3286 6.84 51.6371 6.84V5.84C51.5322 5.84 51.5071 5.81296 51.5006 5.80645L50.7935 6.51355ZM51.6371 6.84C51.9792 6.84 52.3001 6.74539 52.5719 6.53631L51.9622 5.74369C51.8874 5.80127 51.7883 5.84 51.6371 5.84V6.84ZM51.8 6.31835L52.22 7.41835L53.1542 7.06165L52.7342 5.96165L51.8 6.31835ZM52.3981 6.83199C52.2953 6.90476 52.1591 6.96902 51.9791 7.01665L52.235 7.98335C52.5084 7.91098 52.7588 7.80191 52.9761 7.64801L52.3981 6.83199ZM51.9893 7.01407C51.8101 7.05751 51.6198 7.08 51.4171 7.08V8.08C51.6944 8.08 51.9641 8.04915 52.2249 7.98593L51.9893 7.01407ZM49.0771 3.44V2.24H48.0771V3.44H49.0771ZM48.5771 2.74H52.3071V1.74H48.5771V2.74ZM51.8071 2.24V3.44H52.8071V2.24H51.8071ZM52.3071 2.94H48.5771V3.94H52.3071V2.94Z" fill="#242424"/>
</svg>
