<svg width="53" height="8" viewBox="0 0 53 8" fill="none" xmlns="http://www.w3.org/2000/svg">
<path d="M0.987227 7.5V0.5H4.16723C4.92723 0.5 5.59723 0.646666 6.17723 0.94C6.75723 1.22667 7.21056 1.63 7.53723 2.15C7.86389 2.67 8.02723 3.28667 8.02723 4C8.02723 4.70667 7.86389 5.32333 7.53723 5.85C7.21056 6.37 6.75723 6.77667 6.17723 7.07C5.59723 7.35667 4.92723 7.5 4.16723 7.5H0.987227ZM2.60723 6.17H4.08723C4.55389 6.17 4.95723 6.08333 5.29723 5.91C5.64389 5.73 5.91056 5.47667 6.09723 5.15C6.29056 4.82333 6.38723 4.44 6.38723 4C6.38723 3.55333 6.29056 3.17 6.09723 2.85C5.91056 2.52333 5.64389 2.27333 5.29723 2.1C4.95723 1.92 4.55389 1.83 4.08723 1.83H2.60723V6.17ZM11.8089 7.58C11.1956 7.58 10.6556 7.46 10.1889 7.22C9.72895 6.98 9.37228 6.65333 9.11895 6.24C8.86561 5.82 8.73895 5.34333 8.73895 4.81C8.73895 4.27 8.86228 3.79333 9.10895 3.38C9.36228 2.96 9.70561 2.63333 10.1389 2.4C10.5723 2.16 11.0623 2.04 11.6089 2.04C12.1356 2.04 12.6089 2.15333 13.0289 2.38C13.4556 2.6 13.7923 2.92 14.0389 3.34C14.2856 3.75333 14.4089 4.25 14.4089 4.83C14.4089 4.89 14.4056 4.96 14.3989 5.04C14.3923 5.11333 14.3856 5.18333 14.3789 5.25H10.0089V4.34H13.5589L12.9589 4.61C12.9589 4.33 12.9023 4.08667 12.7889 3.88C12.6756 3.67333 12.5189 3.51333 12.3189 3.4C12.1189 3.28 11.8856 3.22 11.6189 3.22C11.3523 3.22 11.1156 3.28 10.9089 3.4C10.7089 3.51333 10.5523 3.67667 10.4389 3.89C10.3256 4.09667 10.2689 4.34333 10.2689 4.63V4.87C10.2689 5.16333 10.3323 5.42333 10.4589 5.65C10.5923 5.87 10.7756 6.04 11.0089 6.16C11.2489 6.27333 11.5289 6.33 11.8489 6.33C12.1356 6.33 12.3856 6.28667 12.5989 6.2C12.8189 6.11333 13.0189 5.98333 13.1989 5.81L14.0289 6.71C13.7823 6.99 13.4723 7.20667 13.0989 7.36C12.7256 7.50667 12.2956 7.58 11.8089 7.58ZM18.0475 7.58C17.4675 7.58 16.9509 7.46333 16.4975 7.23C16.0442 6.99 15.6875 6.66 15.4275 6.24C15.1742 5.82 15.0475 5.34333 15.0475 4.81C15.0475 4.27 15.1742 3.79333 15.4275 3.38C15.6875 2.96 16.0442 2.63333 16.4975 2.4C16.9509 2.16 17.4675 2.04 18.0475 2.04C18.6142 2.04 19.1075 2.16 19.5275 2.4C19.9475 2.63333 20.2575 2.97 20.4575 3.41L19.2475 4.06C19.1075 3.80667 18.9309 3.62 18.7175 3.5C18.5109 3.38 18.2842 3.32 18.0375 3.32C17.7709 3.32 17.5309 3.38 17.3175 3.5C17.1042 3.62 16.9342 3.79 16.8075 4.01C16.6875 4.23 16.6275 4.49667 16.6275 4.81C16.6275 5.12333 16.6875 5.39 16.8075 5.61C16.9342 5.83 17.1042 6 17.3175 6.12C17.5309 6.24 17.7709 6.3 18.0375 6.3C18.2842 6.3 18.5109 6.24333 18.7175 6.13C18.9309 6.01 19.1075 5.82 19.2475 5.56L20.4575 6.22C20.2575 6.65333 19.9475 6.99 19.5275 7.23C19.1075 7.46333 18.6142 7.58 18.0475 7.58ZM22.6164 6.4L22.6564 4.5L25.1664 2.12H27.0264L24.6164 4.57L23.8064 5.23L22.6164 6.4ZM21.3264 7.5V0.0799996H22.8864V7.5H21.3264ZM25.3364 7.5L23.5164 5.24L24.4964 4.03L27.2264 7.5H25.3364ZM31.388 7.62C30.848 7.62 30.3447 7.53333 29.878 7.36C29.418 7.18 29.018 6.92667 28.678 6.6C28.338 6.27333 28.0713 5.89 27.878 5.45C27.6913 5.01 27.598 4.52667 27.598 4C27.598 3.47333 27.6913 2.99 27.878 2.55C28.0713 2.11 28.338 1.72667 28.678 1.4C29.0247 1.07333 29.428 0.823333 29.888 0.649999C30.348 0.47 30.8513 0.38 31.398 0.38C32.0047 0.38 32.5513 0.486667 33.038 0.7C33.5313 0.906666 33.9447 1.21333 34.278 1.62L33.238 2.58C32.998 2.30667 32.7313 2.10333 32.438 1.97C32.1447 1.83 31.8247 1.76 31.478 1.76C31.1513 1.76 30.8513 1.81333 30.578 1.92C30.3047 2.02667 30.068 2.18 29.868 2.38C29.668 2.58 29.5113 2.81667 29.398 3.09C29.2913 3.36333 29.238 3.66667 29.238 4C29.238 4.33333 29.2913 4.63667 29.398 4.91C29.5113 5.18333 29.668 5.42 29.868 5.62C30.068 5.82 30.3047 5.97333 30.578 6.08C30.8513 6.18667 31.1513 6.24 31.478 6.24C31.8247 6.24 32.1447 6.17333 32.438 6.04C32.7313 5.9 32.998 5.69 33.238 5.41L34.278 6.37C33.9447 6.77667 33.5313 7.08667 33.038 7.3C32.5513 7.51333 32.0013 7.62 31.388 7.62ZM35.262 7.5V2.12H36.752V3.64L36.542 3.2C36.702 2.82 36.9587 2.53333 37.312 2.34C37.6653 2.14 38.0953 2.04 38.602 2.04V3.48C38.5353 3.47333 38.4753 3.47 38.422 3.47C38.3687 3.46333 38.312 3.46 38.252 3.46C37.8253 3.46 37.4787 3.58333 37.212 3.83C36.952 4.07 36.822 4.44667 36.822 4.96V7.5H35.262ZM42.478 7.5V6.45L42.378 6.22V4.34C42.378 4.00667 42.2747 3.74667 42.068 3.56C41.868 3.37333 41.558 3.28 41.138 3.28C40.8513 3.28 40.568 3.32667 40.288 3.42C40.0147 3.50667 39.7813 3.62667 39.588 3.78L39.028 2.69C39.3213 2.48333 39.6747 2.32333 40.088 2.21C40.5013 2.09667 40.9213 2.04 41.348 2.04C42.168 2.04 42.8047 2.23333 43.258 2.62C43.7113 3.00667 43.938 3.61 43.938 4.43V7.5H42.478ZM40.838 7.58C40.418 7.58 40.058 7.51 39.758 7.37C39.458 7.22333 39.228 7.02667 39.068 6.78C38.908 6.53333 38.828 6.25667 38.828 5.95C38.828 5.63 38.9047 5.35 39.058 5.11C39.218 4.87 39.468 4.68333 39.808 4.55C40.148 4.41 40.5913 4.34 41.138 4.34H42.568V5.25H41.308C40.9413 5.25 40.688 5.31 40.548 5.43C40.4147 5.55 40.348 5.7 40.348 5.88C40.348 6.08 40.4247 6.24 40.578 6.36C40.738 6.47333 40.9547 6.53 41.228 6.53C41.488 6.53 41.7213 6.47 41.928 6.35C42.1347 6.22333 42.2847 6.04 42.378 5.8L42.618 6.52C42.5047 6.86667 42.298 7.13 41.998 7.31C41.698 7.49 41.3113 7.58 40.838 7.58ZM45.5399 7.5V2C45.5399 1.39333 45.7199 0.91 46.0799 0.549999C46.4399 0.183333 46.9532 -5.96046e-07 47.6199 -5.96046e-07C47.8465 -5.96046e-07 48.0632 0.0233328 48.2699 0.0699997C48.4832 0.116666 48.6632 0.19 48.8099 0.29L48.3999 1.42C48.3132 1.36 48.2165 1.31333 48.1099 1.28C48.0032 1.24667 47.8899 1.23 47.7699 1.23C47.5432 1.23 47.3665 1.29667 47.2399 1.43C47.1199 1.55667 47.0599 1.75 47.0599 2.01V2.51L47.0999 3.18V7.5H45.5399ZM44.7099 3.44V2.24H48.4399V3.44H44.7099ZM51.4171 7.58C50.7837 7.58 50.2904 7.42 49.9371 7.1C49.5837 6.77333 49.4071 6.29 49.4071 5.65V0.93H50.9671V5.63C50.9671 5.85667 51.0271 6.03333 51.1471 6.16C51.2671 6.28 51.4304 6.34 51.6371 6.34C51.8837 6.34 52.0937 6.27333 52.2671 6.14L52.6871 7.24C52.5271 7.35333 52.3337 7.44 52.1071 7.5C51.8871 7.55333 51.6571 7.58 51.4171 7.58ZM48.5771 3.44V2.24H52.3071V3.44H48.5771Z" fill="white"/>
</svg>
