<svg width="54" height="9" viewBox="0 0 54 9" fill="none" xmlns="http://www.w3.org/2000/svg">
<g clip-path="url(#clip0_1_2)">
<path d="M1 8V2H2V3H5V2H6V8H5V4H2V8H1ZM2 2V1H5V2H2ZM7 7V4H8V7H7ZM8 4V3H10V4H8ZM8 8V7H11V5H10V4H11V1H12V8H8ZM17 5V4H18V5H17ZM13 8V3H14V4H15V5H14V8H13ZM15 4V3H17V4H15ZM20 8V7H24V8H20ZM19 7V4H20V5H23V4H24V6H20V7H19ZM20 4V3H23V4H20ZM29 8V4H30V8H29ZM25 8V3H29V4H26V8H25ZM31 7V6H32V7H31ZM32 8V7H35V6H32V5H35V4H36V8H32ZM32 4V3H35V4H32ZM38 8V7H39V8H38ZM37 7V1H38V7H37ZM40 8V3H41V8H40ZM40 2V1H41V2H40ZM46 8V4H47V8H46ZM42 8V3H46V4H43V8H42ZM49 8V7H53V8H49ZM48 7V4H49V5H52V4H53V6H49V7H48ZM49 4V3H52V4H49Z" fill="url(#paint0_linear_1_2)"/>
<path d="M1 8H0V9H1V8ZM1 2V1H0V2H1ZM2 2H3V1H2V2ZM2 3H1V4H2V3ZM5 3V4H6V3H5ZM5 2V1H4V2H5ZM6 2H7V1H6V2ZM6 8V9H7V8H6ZM5 8H4V9H5V8ZM5 4H6V3H5V4ZM2 4V3H1V4H2ZM2 8V9H3V8H2ZM2 2H1V3H2V2ZM2 1V0H1V1H2ZM5 1H6V0H5V1ZM5 2V3H6V2H5ZM2 8V2H0V8H2ZM1 3H2V1H1V3ZM1 2V3H3V2H1ZM2 4H5V2H2V4ZM6 3V2H4V3H6ZM5 3H6V1H5V3ZM5 2V8H7V2H5ZM6 7H5V9H6V7ZM6 8V4H4V8H6ZM5 3H2V5H5V3ZM1 4V8H3V4H1ZM2 7H1V9H2V7ZM3 2V1H1V2H3ZM2 2H5V0H2V2ZM4 1V2H6V1H4ZM5 1H2V3H5V1ZM7 7H6V8H7V7ZM7 4V3H6V4H7ZM8 4H9V3H8V4ZM8 7V8H9V7H8ZM8 4H7V5H8V4ZM8 3V2H7V3H8ZM10 3H11V2H10V3ZM10 4V5H11V4H10ZM8 8H7V9H8V8ZM8 7V6H7V7H8ZM11 7V8H12V7H11ZM11 5H12V4H11V5ZM10 5H9V6H10V5ZM10 4V3H9V4H10ZM11 4V5H12V4H11ZM11 1V0H10V1H11ZM12 1H13V0H12V1ZM12 8V9H13V8H12ZM8 7V4H6V7H8ZM7 5H8V3H7V5ZM7 4V7H9V4H7ZM8 6H7V8H8V6ZM9 4V3H7V4H9ZM8 4H10V2H8V4ZM9 3V4H11V3H9ZM10 3H8V5H10V3ZM9 8V7H7V8H9ZM8 8H11V6H8V8ZM12 7V5H10V7H12ZM11 4H10V6H11V4ZM11 5V4H9V5H11ZM10 5H11V3H10V5ZM12 4V1H10V4H12ZM11 2H12V0H11V2ZM11 1V8H13V1H11ZM12 7H8V9H12V7ZM17 5H16V6H17V5ZM17 4V3H16V4H17ZM18 4H19V3H18V4ZM18 5V6H19V5H18ZM13 8H12V9H13V8ZM13 3V2H12V3H13ZM14 3H15V2H14V3ZM14 4H13V5H14V4ZM15 4H16V3H15V4ZM15 5V6H16V5H15ZM14 5V4H13V5H14ZM14 8V9H15V8H14ZM15 4H14V5H15V4ZM15 3V2H14V3H15ZM17 3H18V2H17V3ZM17 4V5H18V4H17ZM18 5V4H16V5H18ZM17 5H18V3H17V5ZM17 4V5H19V4H17ZM18 4H17V6H18V4ZM14 8V3H12V8H14ZM13 4H14V2H13V4ZM13 3V4H15V3H13ZM14 5H15V3H14V5ZM14 4V5H16V4H14ZM15 4H14V6H15V4ZM13 5V8H15V5H13ZM14 7H13V9H14V7ZM16 4V3H14V4H16ZM15 4H17V2H15V4ZM16 3V4H18V3H16ZM17 3H15V5H17V3ZM20 8H19V9H20V8ZM20 7V6H19V7H20ZM24 7H25V6H24V7ZM24 8V9H25V8H24ZM19 7H18V8H19V7ZM19 4V3H18V4H19ZM20 4H21V3H20V4ZM20 5H19V6H20V5ZM23 5V6H24V5H23ZM23 4V3H22V4H23ZM24 4H25V3H24V4ZM24 6V7H25V6H24ZM20 6V5H19V6H20ZM20 7V8H21V7H20ZM20 4H19V5H20V4ZM20 3V2H19V3H20ZM23 3H24V2H23V3ZM23 4V5H24V4H23ZM21 8V7H19V8H21ZM20 8H24V6H20V8ZM23 7V8H25V7H23ZM24 7H20V9H24V7ZM20 7V4H18V7H20ZM19 5H20V3H19V5ZM19 4V5H21V4H19ZM20 6H23V4H20V6ZM24 5V4H22V5H24ZM23 5H24V3H23V5ZM23 4V6H25V4H23ZM24 5H20V7H24V5ZM19 6V7H21V6H19ZM20 6H19V8H20V6ZM21 4V3H19V4H21ZM20 4H23V2H20V4ZM22 3V4H24V3H22ZM23 3H20V5H23V3ZM29 8H28V9H29V8ZM29 4V3H28V4H29ZM30 4H31V3H30V4ZM30 8V9H31V8H30ZM25 8H24V9H25V8ZM25 3V2H24V3H25ZM29 3H30V2H29V3ZM29 4V5H30V4H29ZM26 4V3H25V4H26ZM26 8V9H27V8H26ZM30 8V4H28V8H30ZM29 5H30V3H29V5ZM29 4V8H31V4H29ZM30 7H29V9H30V7ZM26 8V3H24V8H26ZM25 4H29V2H25V4ZM28 3V4H30V3H28ZM29 3H26V5H29V3ZM25 4V8H27V4H25ZM26 7H25V9H26V7ZM31 7H30V8H31V7ZM31 6V5H30V6H31ZM32 6H33V5H32V6ZM32 7V8H33V7H32ZM32 8H31V9H32V8ZM32 7V6H31V7H32ZM35 7V8H36V7H35ZM35 6H36V5H35V6ZM32 6H31V7H32V6ZM32 5V4H31V5H32ZM35 5V6H36V5H35ZM35 4V3H34V4H35ZM36 4H37V3H36V4ZM36 8V9H37V8H36ZM32 4H31V5H32V4ZM32 3V2H31V3H32ZM35 3H36V2H35V3ZM35 4V5H36V4H35ZM32 7V6H30V7H32ZM31 7H32V5H31V7ZM31 6V7H33V6H31ZM32 6H31V8H32V6ZM33 8V7H31V8H33ZM32 8H35V6H32V8ZM36 7V6H34V7H36ZM35 5H32V7H35V5ZM33 6V5H31V6H33ZM32 6H35V4H32V6ZM36 5V4H34V5H36ZM35 5H36V3H35V5ZM35 4V8H37V4H35ZM36 7H32V9H36V7ZM33 4V3H31V4H33ZM32 4H35V2H32V4ZM34 3V4H36V3H34ZM35 3H32V5H35V3ZM38 8H37V9H38V8ZM38 7V6H37V7H38ZM39 7H40V6H39V7ZM39 8V9H40V8H39ZM37 7H36V8H37V7ZM37 1V0H36V1H37ZM38 1H39V0H38V1ZM38 7V8H39V7H38ZM39 8V7H37V8H39ZM38 8H39V6H38V8ZM38 7V8H40V7H38ZM39 7H38V9H39V7ZM38 7V1H36V7H38ZM37 2H38V0H37V2ZM37 1V7H39V1H37ZM38 6H37V8H38V6ZM40 8H39V9H40V8ZM40 3V2H39V3H40ZM41 3H42V2H41V3ZM41 8V9H42V8H41ZM40 2H39V3H40V2ZM40 1V0H39V1H40ZM41 1H42V0H41V1ZM41 2V3H42V2H41ZM41 8V3H39V8H41ZM40 4H41V2H40V4ZM40 3V8H42V3H40ZM41 7H40V9H41V7ZM41 2V1H39V2H41ZM40 2H41V0H40V2ZM40 1V2H42V1H40ZM41 1H40V3H41V1ZM46 8H45V9H46V8ZM46 4V3H45V4H46ZM47 4H48V3H47V4ZM47 8V9H48V8H47ZM42 8H41V9H42V8ZM42 3V2H41V3H42ZM46 3H47V2H46V3ZM46 4V5H47V4H46ZM43 4V3H42V4H43ZM43 8V9H44V8H43ZM47 8V4H45V8H47ZM46 5H47V3H46V5ZM46 4V8H48V4H46ZM47 7H46V9H47V7ZM43 8V3H41V8H43ZM42 4H46V2H42V4ZM45 3V4H47V3H45ZM46 3H43V5H46V3ZM42 4V8H44V4H42ZM43 7H42V9H43V7ZM49 8H48V9H49V8ZM49 7V6H48V7H49ZM53 7H54V6H53V7ZM53 8V9H54V8H53ZM48 7H47V8H48V7ZM48 4V3H47V4H48ZM49 4H50V3H49V4ZM49 5H48V6H49V5ZM52 5V6H53V5H52ZM52 4V3H51V4H52ZM53 4H54V3H53V4ZM53 6V7H54V6H53ZM49 6V5H48V6H49ZM49 7V8H50V7H49ZM49 4H48V5H49V4ZM49 3V2H48V3H49ZM52 3H53V2H52V3ZM52 4V5H53V4H52ZM50 8V7H48V8H50ZM49 8H53V6H49V8ZM52 7V8H54V7H52ZM53 7H49V9H53V7ZM49 7V4H47V7H49ZM48 5H49V3H48V5ZM48 4V5H50V4H48ZM49 6H52V4H49V6ZM53 5V4H51V5H53ZM52 5H53V3H52V5ZM52 4V6H54V4H52ZM53 5H49V7H53V5ZM48 6V7H50V6H48ZM49 6H48V8H49V6ZM50 4V3H48V4H50ZM49 4H52V2H49V4ZM51 3V4H53V3H51ZM52 3H49V5H52V3Z" fill="black"/>
</g>
<defs>
<linearGradient id="paint0_linear_1_2" x1="27.5" y1="0" x2="27.5" y2="11" gradientUnits="userSpaceOnUse">
<stop stop-color="#00FF19"/>
<stop offset="1" stop-color="#CCFF00"/>
</linearGradient>
<clipPath id="clip0_1_2">
<rect width="54" height="9" fill="white"/>
</clipPath>
</defs>
</svg>
