<svg width="61" height="31" viewBox="0 0 61 31" fill="none" xmlns="http://www.w3.org/2000/svg">
<rect width="61" height="31" fill="#CBFFF6"/>
<circle cx="42" cy="24.6316" r="5" fill="#E5FF45"/>
<circle cx="44" cy="8.63158" r="7" fill="#45FF79"/>
<circle cx="17" cy="13.6316" r="6" fill="#FFD18B"/>
<rect x="47.5505" y="8.50175" width="3.125" height="7.125" rx="1.5625" transform="rotate(15 47.5505 8.50175)" fill="white" fill-opacity="0.3" stroke="black" stroke-width="1.125"/>
<path d="M47.6458 16.3566L47.7914 15.8132L46.7047 15.5221L46.5591 16.0654L47.6458 16.3566ZM46.0415 17.9972C45.9611 18.2973 46.1392 18.6058 46.4393 18.6862C46.7393 18.7666 47.0478 18.5885 47.1282 18.2884L46.0415 17.9972ZM46.5591 16.0654L46.0415 17.9972L47.1282 18.2884L47.6458 16.3566L46.5591 16.0654Z" fill="black"/>
<path d="M49.4319 7.51764L49.173 8.48356" stroke="black" stroke-width="1.125" stroke-linecap="square"/>
<path d="M51.3637 8.03528L47.5 7" stroke="black" stroke-width="1.125" stroke-linecap="round"/>
<mask id="mask0_1_25" style="mask-type:alpha" maskUnits="userSpaceOnUse" x="46" y="9" width="4" height="7">
<rect x="47.9483" y="9.19067" width="2" height="6" rx="1" transform="rotate(15 47.9483 9.19067)" fill="white"/>
</mask>
<g mask="url(#mask0_1_25)">
<rect x="43.0084" y="11.3302" width="10" height="4" fill="url(#paint0_linear_1_25)"/>
</g>
<path d="M7.45534 22L9.95134 16.4H11.2313L13.7353 22H12.3753L10.3273 17.056H10.8393L8.78334 22H7.45534ZM8.70334 20.8L9.04734 19.816H11.9273L12.2793 20.8H8.70334ZM16.0373 22.064C15.6319 22.064 15.2666 21.9733 14.9413 21.792C14.6159 21.6053 14.3573 21.3467 14.1653 21.016C13.9786 20.6853 13.8853 20.296 13.8853 19.848C13.8853 19.3947 13.9786 19.0027 14.1653 18.672C14.3573 18.3413 14.6159 18.0853 14.9413 17.904C15.2666 17.7227 15.6319 17.632 16.0373 17.632C16.3999 17.632 16.7173 17.712 16.9893 17.872C17.2613 18.032 17.4719 18.2747 17.6213 18.6C17.7706 18.9253 17.8453 19.3413 17.8453 19.848C17.8453 20.3493 17.7733 20.7653 17.6293 21.096C17.4853 21.4213 17.2773 21.664 17.0053 21.824C16.7386 21.984 16.4159 22.064 16.0373 22.064ZM16.2533 21.04C16.4559 21.04 16.6399 20.992 16.8053 20.896C16.9706 20.8 17.1013 20.664 17.1973 20.488C17.2986 20.3067 17.3493 20.0933 17.3493 19.848C17.3493 19.5973 17.2986 19.384 17.1973 19.208C17.1013 19.032 16.9706 18.896 16.8053 18.8C16.6399 18.704 16.4559 18.656 16.2533 18.656C16.0453 18.656 15.8586 18.704 15.6933 18.8C15.5279 18.896 15.3946 19.032 15.2933 19.208C15.1973 19.384 15.1493 19.5973 15.1493 19.848C15.1493 20.0933 15.1973 20.3067 15.2933 20.488C15.3946 20.664 15.5279 20.8 15.6933 20.896C15.8586 20.992 16.0453 21.04 16.2533 21.04ZM17.3813 22V21.12L17.4053 19.84L17.3253 18.568V16.064H18.5733V22H17.3813ZM19.7283 22V17.696H20.9203V18.912L20.7523 18.56C20.8803 18.256 21.0857 18.0267 21.3683 17.872C21.651 17.712 21.995 17.632 22.4003 17.632V18.784C22.347 18.7787 22.299 18.776 22.2563 18.776C22.2137 18.7707 22.1683 18.768 22.1203 18.768C21.779 18.768 21.5017 18.8667 21.2883 19.064C21.0803 19.256 20.9763 19.5573 20.9763 19.968V22H19.7283ZM25.2472 22.064C24.7565 22.064 24.3245 21.968 23.9512 21.776C23.5832 21.584 23.2978 21.3227 23.0952 20.992C22.8925 20.656 22.7912 20.2747 22.7912 19.848C22.7912 19.416 22.8898 19.0347 23.0872 18.704C23.2898 18.368 23.5645 18.1067 23.9112 17.92C24.2578 17.728 24.6498 17.632 25.0872 17.632C25.5085 17.632 25.8872 17.7227 26.2232 17.904C26.5645 18.08 26.8338 18.336 27.0312 18.672C27.2285 19.0027 27.3272 19.4 27.3272 19.864C27.3272 19.912 27.3245 19.968 27.3192 20.032C27.3138 20.0907 27.3085 20.1467 27.3032 20.2H23.8072V19.472H26.6472L26.1672 19.688C26.1672 19.464 26.1218 19.2693 26.0312 19.104C25.9405 18.9387 25.8152 18.8107 25.6552 18.72C25.4952 18.624 25.3085 18.576 25.0952 18.576C24.8818 18.576 24.6925 18.624 24.5272 18.72C24.3672 18.8107 24.2418 18.9413 24.1512 19.112C24.0605 19.2773 24.0152 19.4747 24.0152 19.704V19.896C24.0152 20.1307 24.0658 20.3387 24.1672 20.52C24.2738 20.696 24.4205 20.832 24.6072 20.928C24.7992 21.0187 25.0232 21.064 25.2792 21.064C25.5085 21.064 25.7085 21.0293 25.8792 20.96C26.0552 20.8907 26.2152 20.7867 26.3592 20.648L27.0232 21.368C26.8258 21.592 26.5778 21.7653 26.2792 21.888C25.9805 22.0053 25.6365 22.064 25.2472 22.064ZM30.774 17.632C31.1154 17.632 31.4194 17.7013 31.686 17.84C31.958 17.9733 32.1714 18.1813 32.326 18.464C32.4807 18.7413 32.558 19.0987 32.558 19.536V22H31.31V19.728C31.31 19.3813 31.2327 19.1253 31.078 18.96C30.9287 18.7947 30.7154 18.712 30.438 18.712C30.2407 18.712 30.062 18.7547 29.902 18.84C29.7474 18.92 29.6247 19.0453 29.534 19.216C29.4487 19.3867 29.406 19.6053 29.406 19.872V22H28.158V17.696H29.35V18.888L29.126 18.528C29.2807 18.24 29.502 18.0187 29.79 17.864C30.078 17.7093 30.406 17.632 30.774 17.632ZM36.3293 22V21.16L36.2493 20.976V19.472C36.2493 19.2053 36.1666 18.9973 36.0013 18.848C35.8413 18.6987 35.5933 18.624 35.2573 18.624C35.0279 18.624 34.8013 18.6613 34.5773 18.736C34.3586 18.8053 34.1719 18.9013 34.0173 19.024L33.5693 18.152C33.8039 17.9867 34.0866 17.8587 34.4173 17.768C34.7479 17.6773 35.0839 17.632 35.4253 17.632C36.0813 17.632 36.5906 17.7867 36.9533 18.096C37.3159 18.4053 37.4973 18.888 37.4973 19.544V22H36.3293ZM35.0173 22.064C34.6813 22.064 34.3933 22.008 34.1533 21.896C33.9133 21.7787 33.7293 21.6213 33.6013 21.424C33.4733 21.2267 33.4093 21.0053 33.4093 20.76C33.4093 20.504 33.4706 20.28 33.5933 20.088C33.7213 19.896 33.9213 19.7467 34.1933 19.64C34.4653 19.528 34.8199 19.472 35.2573 19.472H36.4013V20.2H35.3933C35.0999 20.2 34.8973 20.248 34.7853 20.344C34.6786 20.44 34.6253 20.56 34.6253 20.704C34.6253 20.864 34.6866 20.992 34.8093 21.088C34.9373 21.1787 35.1106 21.224 35.3293 21.224C35.5373 21.224 35.7239 21.176 35.8893 21.08C36.0546 20.9787 36.1746 20.832 36.2493 20.64L36.4413 21.216C36.3506 21.4933 36.1853 21.704 35.9453 21.848C35.7053 21.992 35.3959 22.064 35.0173 22.064ZM38.6268 22V16.064H39.8748V22H38.6268ZM41.033 22V17.696H42.281V22H41.033ZM41.657 17.096C41.4277 17.096 41.241 17.0293 41.097 16.896C40.953 16.7627 40.881 16.5973 40.881 16.4C40.881 16.2027 40.953 16.0373 41.097 15.904C41.241 15.7707 41.4277 15.704 41.657 15.704C41.8864 15.704 42.073 15.768 42.217 15.896C42.361 16.0187 42.433 16.1787 42.433 16.376C42.433 16.584 42.361 16.7573 42.217 16.896C42.0784 17.0293 41.8917 17.096 41.657 17.096ZM46.0553 17.632C46.3966 17.632 46.7006 17.7013 46.9673 17.84C47.2393 17.9733 47.4526 18.1813 47.6073 18.464C47.7619 18.7413 47.8393 19.0987 47.8393 19.536V22H46.5913V19.728C46.5913 19.3813 46.5139 19.1253 46.3593 18.96C46.2099 18.7947 45.9966 18.712 45.7193 18.712C45.5219 18.712 45.3433 18.7547 45.1833 18.84C45.0286 18.92 44.9059 19.0453 44.8153 19.216C44.7299 19.3867 44.6873 19.6053 44.6873 19.872V22H43.4393V17.696H44.6313V18.888L44.4073 18.528C44.5619 18.24 44.7833 18.0187 45.0713 17.864C45.3593 17.7093 45.6873 17.632 46.0553 17.632ZM51.1378 22.064C50.6471 22.064 50.2151 21.968 49.8418 21.776C49.4738 21.584 49.1884 21.3227 48.9858 20.992C48.7831 20.656 48.6818 20.2747 48.6818 19.848C48.6818 19.416 48.7804 19.0347 48.9778 18.704C49.1804 18.368 49.4551 18.1067 49.8018 17.92C50.1484 17.728 50.5404 17.632 50.9778 17.632C51.3991 17.632 51.7778 17.7227 52.1138 17.904C52.4551 18.08 52.7244 18.336 52.9218 18.672C53.1191 19.0027 53.2178 19.4 53.2178 19.864C53.2178 19.912 53.2151 19.968 53.2098 20.032C53.2044 20.0907 53.1991 20.1467 53.1938 20.2H49.6978V19.472H52.5378L52.0578 19.688C52.0578 19.464 52.0124 19.2693 51.9218 19.104C51.8311 18.9387 51.7058 18.8107 51.5458 18.72C51.3858 18.624 51.1991 18.576 50.9858 18.576C50.7724 18.576 50.5831 18.624 50.4178 18.72C50.2578 18.8107 50.1324 18.9413 50.0418 19.112C49.9511 19.2773 49.9058 19.4747 49.9058 19.704V19.896C49.9058 20.1307 49.9564 20.3387 50.0578 20.52C50.1644 20.696 50.3111 20.832 50.4978 20.928C50.6898 21.0187 50.9138 21.064 51.1698 21.064C51.3991 21.064 51.5991 21.0293 51.7698 20.96C51.9458 20.8907 52.1058 20.7867 52.2498 20.648L52.9138 21.368C52.7164 21.592 52.4684 21.7653 52.1698 21.888C51.8711 22.0053 51.5271 22.064 51.1378 22.064Z" fill="url(#paint1_linear_1_25)"/>
<path d="M7.45534 22L6.54196 21.5929C6.40408 21.9023 6.43215 22.2604 6.61656 22.5445C6.80097 22.8286 7.11665 23 7.45534 23V22ZM9.95134 16.4V15.4C9.55654 15.4 9.19869 15.6323 9.03796 15.9929L9.95134 16.4ZM11.2313 16.4L12.1442 15.9918C11.9833 15.6318 11.6257 15.4 11.2313 15.4V16.4ZM13.7353 22V23C14.0743 23 14.3901 22.8283 14.5744 22.544C14.7588 22.2596 14.7866 21.9012 14.6482 21.5918L13.7353 22ZM12.3753 22L11.4515 22.3827C11.6063 22.7564 11.9709 23 12.3753 23V22ZM10.3273 17.056V16.056C9.99336 16.056 9.68142 16.2227 9.49587 16.5004C9.31032 16.7781 9.27565 17.1301 9.40347 17.4387L10.3273 17.056ZM10.8393 17.056L11.7627 17.44C11.891 17.1314 11.8567 16.779 11.6712 16.501C11.4857 16.223 11.1736 16.056 10.8393 16.056V17.056ZM8.78334 22V23C9.1873 23 9.55158 22.757 9.70669 22.384L8.78334 22ZM8.70334 20.8L7.75937 20.47C7.65244 20.7759 7.70033 21.1146 7.88787 21.3788C8.0754 21.643 8.37933 21.8 8.70334 21.8V20.8ZM9.04734 19.816V18.816C8.62227 18.816 8.24364 19.0847 8.10337 19.486L9.04734 19.816ZM11.9273 19.816L12.8689 19.4792C12.7266 19.0814 12.3498 18.816 11.9273 18.816V19.816ZM12.2793 20.8V21.8C12.6046 21.8 12.9096 21.6418 13.0969 21.3758C13.2842 21.1099 13.3305 20.7695 13.2209 20.4632L12.2793 20.8ZM8.36872 22.4071L10.8647 16.8071L9.03796 15.9929L6.54196 21.5929L8.36872 22.4071ZM9.95134 17.4H11.2313V15.4H9.95134V17.4ZM10.3184 16.8082L12.8224 22.4082L14.6482 21.5918L12.1442 15.9918L10.3184 16.8082ZM13.7353 21H12.3753V23H13.7353V21ZM13.2992 21.6173L11.2512 16.6733L9.40347 17.4387L11.4515 22.3827L13.2992 21.6173ZM10.3273 18.056H10.8393V16.056H10.3273V18.056ZM9.916 16.672L7.86 21.616L9.70669 22.384L11.7627 17.44L9.916 16.672ZM8.78334 21H7.45534V23H8.78334V21ZM9.64732 21.13L9.99132 20.146L8.10337 19.486L7.75937 20.47L9.64732 21.13ZM9.04734 20.816H11.9273V18.816H9.04734V20.816ZM10.9858 20.1528L11.3378 21.1368L13.2209 20.4632L12.8689 19.4792L10.9858 20.1528ZM12.2793 19.8H8.70334V21.8H12.2793V19.8ZM14.9413 21.792L14.4436 22.6594L14.4544 22.6655L14.9413 21.792ZM14.1653 21.016L13.2944 21.5076L13.3005 21.5181L14.1653 21.016ZM14.1653 18.672L13.3004 18.1698L13.2945 18.1804L14.1653 18.672ZM14.9413 17.904L14.4544 17.0305L14.4544 17.0305L14.9413 17.904ZM16.9893 17.872L17.4963 17.0101L17.4963 17.0101L16.9893 17.872ZM17.6213 18.6L18.5301 18.1828L18.5301 18.1828L17.6213 18.6ZM17.6293 21.096L18.5437 21.5008L18.5461 21.4953L17.6293 21.096ZM17.0053 21.824L16.4982 20.962L16.4908 20.9665L17.0053 21.824ZM16.8053 20.896L16.3031 20.0312L16.3031 20.0312L16.8053 20.896ZM17.1973 20.488L16.3243 20.0002L16.3194 20.0091L17.1973 20.488ZM17.1973 19.208L16.3194 19.6869C16.3231 19.6936 16.3268 19.7003 16.3307 19.707L17.1973 19.208ZM16.8053 18.8L16.3031 19.6648L16.3031 19.6648L16.8053 18.8ZM15.6933 18.8L16.1954 19.6648L16.1954 19.6648L15.6933 18.8ZM15.2933 19.208L14.4267 18.709C14.4228 18.7157 14.4191 18.7224 14.4154 18.7291L15.2933 19.208ZM15.2933 20.488L14.4095 20.9559C14.415 20.9663 14.4208 20.9767 14.4267 20.987L15.2933 20.488ZM15.6933 20.896L16.1954 20.0312L16.1954 20.0312L15.6933 20.896ZM17.3813 22H16.3813C16.3813 22.5523 16.829 23 17.3813 23V22ZM17.3813 21.12L16.3815 21.1013C16.3813 21.1075 16.3813 21.1138 16.3813 21.12L17.3813 21.12ZM17.4053 19.84L18.4051 19.8587C18.4056 19.8316 18.405 19.8044 18.4033 19.7772L17.4053 19.84ZM17.3253 18.568H16.3253C16.3253 18.5889 16.3259 18.6099 16.3273 18.6308L17.3253 18.568ZM17.3253 16.064V15.064C16.773 15.064 16.3253 15.5117 16.3253 16.064H17.3253ZM18.5733 16.064H19.5733C19.5733 15.5117 19.1256 15.064 18.5733 15.064V16.064ZM18.5733 22V23C19.1256 23 19.5733 22.5523 19.5733 22H18.5733ZM16.0373 21.064C15.7869 21.064 15.5917 21.0097 15.4281 20.9185L14.4544 22.6655C14.9415 22.937 15.477 23.064 16.0373 23.064V21.064ZM15.439 20.9246C15.269 20.8271 15.1357 20.6958 15.0301 20.5139L13.3005 21.5181C13.5789 21.9976 13.9629 22.3835 14.4436 22.6594L15.439 20.9246ZM15.0361 20.5244C14.9482 20.3687 14.8853 20.1549 14.8853 19.848H12.8853C12.8853 20.4371 13.009 21.002 13.2945 21.5076L15.0361 20.5244ZM14.8853 19.848C14.8853 19.5335 14.9492 19.3176 15.0361 19.1636L13.2945 18.1804C13.0081 18.6877 12.8853 19.2558 12.8853 19.848H14.8853ZM15.0301 19.1741C15.1343 18.9946 15.2642 18.8689 15.4281 18.7775L14.4544 17.0305C13.9677 17.3018 13.5803 17.688 13.3005 18.1699L15.0301 19.1741ZM15.4281 18.7775C15.5917 18.6863 15.7869 18.632 16.0373 18.632V16.632C15.477 16.632 14.9415 16.759 14.4544 17.0305L15.4281 18.7775ZM16.0373 18.632C16.2487 18.632 16.3857 18.6771 16.4823 18.7339L17.4963 17.0101C17.0489 16.7469 16.5512 16.632 16.0373 16.632V18.632ZM16.4823 18.7339C16.5549 18.7767 16.6365 18.8518 16.7125 19.0172L18.5301 18.1828C18.3074 17.6975 17.9676 17.2873 17.4963 17.0101L16.4823 18.7339ZM16.7125 19.0172C16.7822 19.169 16.8453 19.4297 16.8453 19.848H18.8453C18.8453 19.253 18.7591 18.6816 18.5301 18.1828L16.7125 19.0172ZM16.8453 19.848C16.8453 20.262 16.7846 20.531 16.7124 20.6967L18.5461 21.4953C18.7619 20.9997 18.8453 20.4367 18.8453 19.848H16.8453ZM16.7149 20.6913C16.6443 20.8507 16.5674 20.9214 16.4983 20.9621L17.5123 22.6859C17.9871 22.4066 18.3263 21.9919 18.5437 21.5007L16.7149 20.6913ZM16.4908 20.9665C16.4102 21.0149 16.2741 21.064 16.0373 21.064V23.064C16.5578 23.064 17.067 22.9531 17.5198 22.6815L16.4908 20.9665ZM16.2533 22.04C16.6213 22.04 16.9803 21.9507 17.3074 21.7608L16.3031 20.0312C16.2996 20.0333 16.2906 20.04 16.2533 20.04V22.04ZM17.3074 21.7608C17.6388 21.5684 17.896 21.2953 18.0752 20.9669L16.3194 20.0091C16.3112 20.0241 16.3062 20.0291 16.3062 20.0292C16.3061 20.0293 16.306 20.0293 16.306 20.0294C16.3059 20.0294 16.3059 20.0294 16.3059 20.0294C16.3059 20.0294 16.3059 20.0294 16.3059 20.0294C16.3059 20.0294 16.3059 20.0294 16.3059 20.0294C16.3059 20.0295 16.3057 20.0296 16.3053 20.0299C16.3049 20.0302 16.3042 20.0306 16.3031 20.0312L17.3074 21.7608ZM18.0702 20.9758C18.2688 20.6205 18.3493 20.2331 18.3493 19.848H16.3493C16.3493 19.9536 16.3284 19.9929 16.3243 20.0002L18.0702 20.9758ZM18.3493 19.848C18.3493 19.4629 18.2709 19.0686 18.0639 18.709L16.3307 19.707C16.3263 19.6994 16.3493 19.7318 16.3493 19.848H18.3493ZM18.0752 18.7291C17.896 18.4007 17.6388 18.1276 17.3074 17.9352L16.3031 19.6648C16.3042 19.6654 16.3049 19.6658 16.3053 19.6661C16.3057 19.6664 16.3059 19.6665 16.3059 19.6666C16.3059 19.6666 16.3059 19.6666 16.3059 19.6666C16.3059 19.6666 16.3059 19.6666 16.3059 19.6666C16.3059 19.6666 16.3059 19.6666 16.306 19.6666C16.306 19.6667 16.3061 19.6667 16.3062 19.6668C16.3062 19.6669 16.3112 19.6719 16.3194 19.6869L18.0752 18.7291ZM17.3074 17.9352C16.9803 17.7453 16.6213 17.656 16.2533 17.656V19.656C16.2906 19.656 16.2996 19.6627 16.3031 19.6648L17.3074 17.9352ZM16.2533 17.656C15.8849 17.656 15.5223 17.7429 15.1911 17.9352L16.1954 19.6648C16.1982 19.6632 16.201 19.6619 16.2063 19.6605C16.2121 19.659 16.2267 19.656 16.2533 19.656V17.656ZM15.1911 17.9352C14.8649 18.1246 14.6097 18.3911 14.4267 18.709L16.1599 19.707C16.1795 19.6729 16.191 19.6674 16.1954 19.6648L15.1911 17.9352ZM14.4154 18.7291C14.2216 19.0844 14.1493 19.4712 14.1493 19.848H16.1493C16.1493 19.786 16.1553 19.7446 16.1609 19.7195C16.1637 19.7071 16.1664 19.6988 16.1682 19.6939C16.17 19.689 16.1711 19.6869 16.1712 19.6869L14.4154 18.7291ZM14.1493 19.848C14.1493 20.2247 14.2236 20.6047 14.4095 20.9559L16.1771 20.0201C16.171 20.0086 16.1493 19.962 16.1493 19.848H14.1493ZM14.4267 20.987C14.6097 21.3049 14.8649 21.5714 15.1911 21.7608L16.1954 20.0312C16.191 20.0286 16.1795 20.0231 16.1599 19.989L14.4267 20.987ZM15.1911 21.7608C15.5223 21.9531 15.8849 22.04 16.2533 22.04V20.04C16.2267 20.04 16.2121 20.037 16.2063 20.0355C16.201 20.0341 16.1982 20.0328 16.1954 20.0312L15.1911 21.7608ZM18.3813 22V21.12H16.3813V22H18.3813ZM18.3811 21.1387L18.4051 19.8587L16.4055 19.8213L16.3815 21.1013L18.3811 21.1387ZM18.4033 19.7772L18.3233 18.5052L16.3273 18.6308L16.4073 19.9028L18.4033 19.7772ZM18.3253 18.568V16.064H16.3253V18.568H18.3253ZM17.3253 17.064H18.5733V15.064H17.3253V17.064ZM17.5733 16.064V22H19.5733V16.064H17.5733ZM18.5733 21H17.3813V23H18.5733V21ZM19.7283 22H18.7283C18.7283 22.5523 19.1761 23 19.7283 23V22ZM19.7283 17.696V16.696C19.1761 16.696 18.7283 17.1437 18.7283 17.696H19.7283ZM20.9203 17.696H21.9203C21.9203 17.1437 21.4726 16.696 20.9203 16.696V17.696ZM20.9203 18.912L20.0179 19.3427C20.2191 19.7644 20.6855 19.9905 21.1412 19.8873C21.5968 19.7841 21.9203 19.3792 21.9203 18.912H20.9203ZM20.7523 18.56L19.8307 18.1719C19.7199 18.4351 19.7269 18.7331 19.8499 18.9907L20.7523 18.56ZM21.3683 17.872L21.8484 18.7493C21.8526 18.747 21.8568 18.7446 21.8609 18.7423L21.3683 17.872ZM22.4003 17.632H23.4003C23.4003 17.0797 22.9526 16.632 22.4003 16.632V17.632ZM22.4003 18.784L22.3008 19.779C22.582 19.8072 22.8619 19.715 23.0713 19.5255C23.2808 19.3359 23.4003 19.0665 23.4003 18.784H22.4003ZM22.2563 18.776L22.1323 19.7683C22.1735 19.7734 22.2149 19.776 22.2563 19.776V18.776ZM21.2883 19.064L21.9666 19.7988L21.9674 19.7981L21.2883 19.064ZM20.9763 22V23C21.5286 23 21.9763 22.5523 21.9763 22H20.9763ZM20.7283 22V17.696H18.7283V22H20.7283ZM19.7283 18.696H20.9203V16.696H19.7283V18.696ZM19.9203 17.696V18.912H21.9203V17.696H19.9203ZM21.8228 18.4813L21.6548 18.1293L19.8499 18.9907L20.0179 19.3427L21.8228 18.4813ZM21.674 18.9481C21.7165 18.847 21.769 18.7927 21.8484 18.7493L20.8883 16.9947C20.4024 17.2606 20.0442 17.665 19.8307 18.1719L21.674 18.9481ZM21.8609 18.7423C21.9604 18.6859 22.1254 18.632 22.4003 18.632V16.632C21.8646 16.632 21.3416 16.7381 20.8757 17.0017L21.8609 18.7423ZM21.4003 17.632V18.784H23.4003V17.632H21.4003ZM22.4998 17.789C22.4214 17.7811 22.3394 17.776 22.2563 17.776V19.776C22.2586 19.776 22.2726 19.7762 22.3008 19.779L22.4998 17.789ZM22.3804 17.7837C22.2922 17.7727 22.2051 17.768 22.1203 17.768V19.768C22.1316 19.768 22.1352 19.7686 22.1323 19.7683L22.3804 17.7837ZM22.1203 17.768C21.5741 17.768 21.0391 17.9323 20.6093 18.3299L21.9674 19.7981C21.9734 19.7926 21.9787 19.7887 21.9915 19.7842C22.0069 19.7787 22.046 19.768 22.1203 19.768V17.768ZM20.6101 18.3292C20.119 18.7825 19.9763 19.4058 19.9763 19.968H21.9763C21.9763 19.8433 21.9926 19.7807 21.9996 19.7602C22.0046 19.7458 21.9986 19.7693 21.9666 19.7988L20.6101 18.3292ZM19.9763 19.968V22H21.9763V19.968H19.9763ZM20.9763 21H19.7283V23H20.9763V21ZM23.9512 21.776L23.4886 22.6626L23.4938 22.6653L23.9512 21.776ZM23.0952 20.992L22.2388 21.5085L22.2426 21.5146L23.0952 20.992ZM23.0872 18.704L22.2309 18.1875L22.2284 18.1915L23.0872 18.704ZM23.9112 17.92L24.3853 18.8005L24.3957 18.7948L23.9112 17.92ZM26.2232 17.904L25.7482 18.784C25.7537 18.787 25.7593 18.7899 25.7649 18.7928L26.2232 17.904ZM27.0312 18.672L26.1688 19.1784L26.1724 19.1845L27.0312 18.672ZM27.3192 20.032L28.3151 20.1225L28.3157 20.115L27.3192 20.032ZM27.3032 20.2V21.2C27.8169 21.2 28.2471 20.8107 28.2982 20.2995L27.3032 20.2ZM23.8072 20.2H22.8072C22.8072 20.7523 23.2549 21.2 23.8072 21.2V20.2ZM23.8072 19.472V18.472C23.2549 18.472 22.8072 18.9197 22.8072 19.472H23.8072ZM26.6472 19.472L27.0575 20.3839C27.4874 20.1905 27.7238 19.7231 27.6249 19.2621C27.526 18.8012 27.1186 18.472 26.6472 18.472V19.472ZM26.1672 19.688H25.1672C25.1672 20.0273 25.3392 20.3435 25.6242 20.5278C25.9091 20.712 26.2681 20.7392 26.5775 20.5999L26.1672 19.688ZM26.0312 19.104L25.1543 19.5848L25.1543 19.5848L26.0312 19.104ZM25.6552 18.72L25.1407 19.5775C25.1478 19.5818 25.1549 19.5859 25.1621 19.59L25.6552 18.72ZM24.5272 18.72L25.0202 19.5901L25.0293 19.5848L24.5272 18.72ZM24.1512 19.112L25.028 19.5929L25.0343 19.5812L24.1512 19.112ZM24.1672 20.52L23.2942 21.0078C23.2999 21.0181 23.3059 21.0282 23.312 21.0383L24.1672 20.52ZM24.6072 20.928L24.1498 21.8173C24.1598 21.8224 24.17 21.8274 24.1802 21.8322L24.6072 20.928ZM25.8792 20.96L25.5126 20.0295L25.5028 20.0335L25.8792 20.96ZM26.3592 20.648L27.0943 19.9701C26.9119 19.7723 26.6576 19.6564 26.3888 19.6484C26.12 19.6405 25.8592 19.7411 25.6655 19.9277L26.3592 20.648ZM27.0232 21.368L27.7735 22.029C28.1121 21.6447 28.1055 21.0666 27.7583 20.6901L27.0232 21.368ZM26.2792 21.888L26.6448 22.8188C26.6496 22.8169 26.6543 22.815 26.6591 22.813L26.2792 21.888ZM25.2472 21.064C24.8887 21.064 24.6183 20.9946 24.4085 20.8867L23.4938 22.6653C24.0307 22.9414 24.6242 23.064 25.2472 23.064V21.064ZM24.4137 20.8894C24.1946 20.7751 24.0491 20.6348 23.9478 20.4694L22.2426 21.5146C22.5465 22.0105 22.9717 22.3929 23.4886 22.6626L24.4137 20.8894ZM23.9514 20.4755C23.8509 20.3089 23.7912 20.1091 23.7912 19.848H21.7912C21.7912 20.4403 21.934 21.0031 22.2389 21.5085L23.9514 20.4755ZM23.7912 19.848C23.7912 19.5739 23.8519 19.3739 23.9459 19.2165L22.2284 18.1915C21.9277 18.6954 21.7912 19.2581 21.7912 19.848H23.7912ZM23.9434 19.2205C24.0533 19.0384 24.1957 18.9025 24.3853 18.8005L23.4371 17.0395C22.9333 17.3108 22.5264 17.6976 22.2309 18.1875L23.9434 19.2205ZM24.3957 18.7948C24.5791 18.6932 24.8014 18.632 25.0872 18.632V16.632C24.4983 16.632 23.9366 16.7628 23.4267 17.0452L24.3957 18.7948ZM25.0872 18.632C25.3602 18.632 25.5728 18.6894 25.7482 18.784L26.6981 17.024C26.2015 16.756 25.6568 16.632 25.0872 16.632V18.632ZM25.7649 18.7928C25.9355 18.8808 26.0658 19.003 26.1689 19.1784L27.8934 18.1656C27.6018 17.669 27.1935 17.2792 26.6814 17.0152L25.7649 18.7928ZM26.1724 19.1845C26.26 19.3312 26.3272 19.5434 26.3272 19.864H28.3272C28.3272 19.2566 28.197 18.6742 27.8899 18.1595L26.1724 19.1845ZM26.3272 19.864C26.3272 19.8768 26.3264 19.904 26.3226 19.949L28.3157 20.115C28.3226 20.032 28.3272 19.9472 28.3272 19.864H26.3272ZM26.3233 19.9415C26.3182 19.9974 26.3131 20.0504 26.3081 20.1005L28.2982 20.2995C28.3039 20.2429 28.3095 20.1839 28.315 20.1225L26.3233 19.9415ZM27.3032 19.2H23.8072V21.2H27.3032V19.2ZM24.8072 20.2V19.472H22.8072V20.2H24.8072ZM23.8072 20.472H26.6472V18.472H23.8072V20.472ZM26.2368 18.5601L25.7568 18.7761L26.5775 20.5999L27.0575 20.3839L26.2368 18.5601ZM27.1672 19.688C27.1672 19.3275 27.0934 18.9613 26.908 18.6232L25.1543 19.5848C25.1533 19.583 25.156 19.5869 25.1592 19.6008C25.1626 19.6155 25.1672 19.6433 25.1672 19.688H27.1672ZM26.908 18.6232C26.7304 18.2993 26.474 18.0346 26.1482 17.85L25.1621 19.59C25.1629 19.5905 25.1622 19.5901 25.1604 19.5887C25.1586 19.5873 25.1566 19.5856 25.1546 19.5836C25.1527 19.5817 25.1517 19.5803 25.1514 19.5799C25.1512 19.5796 25.1523 19.5811 25.1543 19.5848L26.908 18.6232ZM26.1697 17.8625C25.833 17.6605 25.4633 17.576 25.0952 17.576V19.576C25.1267 19.576 25.1423 19.5795 25.1461 19.5805C25.1492 19.5813 25.146 19.5807 25.1407 19.5775L26.1697 17.8625ZM25.0952 17.576C24.7264 17.576 24.36 17.6607 24.025 17.8552L25.0293 19.5848C25.03 19.5844 25.0322 19.583 25.0389 19.5813C25.0462 19.5795 25.0638 19.576 25.0952 19.576V17.576ZM24.0341 17.85C23.7 18.0393 23.4432 18.3131 23.268 18.6428L25.0343 19.5812C25.0356 19.5786 25.0367 19.5769 25.0373 19.5757C25.038 19.5746 25.0384 19.5741 25.0384 19.5741C25.0384 19.5741 25.0381 19.5745 25.0375 19.5753C25.0369 19.576 25.036 19.577 25.0348 19.5782C25.0325 19.5807 25.0296 19.5833 25.0266 19.5856C25.0235 19.588 25.0212 19.5894 25.0202 19.59L24.0341 17.85ZM23.2743 18.6312C23.0871 18.9726 23.0152 19.3427 23.0152 19.704H25.0152C25.0152 19.6067 25.0339 19.5821 25.028 19.5928L23.2743 18.6312ZM23.0152 19.704V19.896H25.0152V19.704H23.0152ZM23.0152 19.896C23.0152 20.2789 23.0992 20.6589 23.2942 21.0078L25.0401 20.0322C25.0324 20.0184 25.0152 19.9824 25.0152 19.896H23.0152ZM23.312 21.0383C23.5164 21.3756 23.8022 21.6385 24.1498 21.8173L25.0645 20.0387C25.0387 20.0255 25.0312 20.0164 25.0224 20.0017L23.312 21.0383ZM24.1802 21.8322C24.5303 21.9976 24.9054 22.064 25.2792 22.064V20.064C25.1409 20.064 25.068 20.0397 25.0342 20.0238L24.1802 21.8322ZM25.2792 22.064C25.607 22.064 25.94 22.0147 26.2555 21.8865L25.5028 20.0335C25.477 20.044 25.41 20.064 25.2792 20.064V22.064ZM26.2457 21.8904C26.5502 21.7704 26.82 21.5925 27.0528 21.3683L25.6655 19.9277C25.6103 19.9808 25.5601 20.0109 25.5126 20.0296L26.2457 21.8904ZM25.624 21.3259L26.288 22.0459L27.7583 20.6901L27.0943 19.9701L25.624 21.3259ZM26.2728 20.707C26.1851 20.8065 26.0676 20.8938 25.8992 20.963L26.6591 22.813C27.088 22.6368 27.4665 22.3775 27.7735 22.029L26.2728 20.707ZM25.9135 20.9572C25.7533 21.0202 25.5373 21.064 25.2472 21.064V23.064C25.7357 23.064 26.2077 22.9905 26.6448 22.8188L25.9135 20.9572ZM31.686 17.84L31.2247 18.7272C31.2317 18.7309 31.2388 18.7344 31.2459 18.7379L31.686 17.84ZM32.326 18.464L31.4487 18.944L31.4527 18.9511L32.326 18.464ZM32.558 22V23C33.1103 23 33.558 22.5523 33.558 22H32.558ZM31.31 22H30.31C30.31 22.5523 30.7577 23 31.31 23V22ZM31.078 18.96L30.3359 19.6303C30.3398 19.6346 30.3438 19.6389 30.3478 19.6432L31.078 18.96ZM29.902 18.84L30.3615 19.7283L30.3726 19.7224L29.902 18.84ZM29.534 19.216L28.6509 18.7468C28.6471 18.7541 28.6433 18.7614 28.6396 18.7688L29.534 19.216ZM29.406 22V23C29.9583 23 30.406 22.5523 30.406 22H29.406ZM28.158 22H27.158C27.158 22.5523 27.6057 23 28.158 23V22ZM28.158 17.696V16.696C27.6057 16.696 27.158 17.1437 27.158 17.696H28.158ZM29.35 17.696H30.35C30.35 17.1437 29.9023 16.696 29.35 16.696V17.696ZM29.35 18.888L28.501 19.4163C28.7369 19.7954 29.1955 19.9722 29.6248 19.8495C30.0541 19.7269 30.35 19.3345 30.35 18.888H29.35ZM29.126 18.528L28.245 18.0549C28.0756 18.3703 28.0878 18.7523 28.277 19.0563L29.126 18.528ZM29.79 17.864L30.2632 18.745L30.2632 18.745L29.79 17.864ZM30.774 18.632C30.9767 18.632 31.1188 18.6722 31.2247 18.7272L32.1474 16.9528C31.7199 16.7305 31.254 16.632 30.774 16.632V18.632ZM31.2459 18.7379C31.3204 18.7745 31.3865 18.8302 31.4488 18.944L33.2033 17.984C32.9562 17.5324 32.5956 17.1722 32.1262 16.9421L31.2459 18.7379ZM31.4527 18.9511C31.4988 19.0338 31.558 19.2079 31.558 19.536H33.558C33.558 18.9895 33.4626 18.4488 33.1994 17.9769L31.4527 18.9511ZM31.558 19.536V22H33.558V19.536H31.558ZM32.558 21H31.31V23H32.558V21ZM32.31 22V19.728H30.31V22H32.31ZM32.31 19.728C32.31 19.2584 32.2087 18.7048 31.8083 18.2768L30.3478 19.6432C30.3028 19.5951 30.2925 19.5577 30.2948 19.5652C30.2981 19.5764 30.31 19.6253 30.31 19.728H32.31ZM31.8201 18.2897C31.4364 17.8649 30.9238 17.712 30.438 17.712V19.712C30.4786 19.712 30.4749 19.7181 30.4447 19.7064C30.4294 19.7005 30.4102 19.6911 30.3896 19.677C30.3688 19.6628 30.3507 19.6467 30.3359 19.6303L31.8201 18.2897ZM30.438 17.712C30.0914 17.712 29.7488 17.7884 29.4314 17.9576L30.3726 19.7224C30.3753 19.7209 30.39 19.712 30.438 19.712V17.712ZM29.4426 17.9518C29.0878 18.1353 28.826 18.4172 28.6509 18.7468L30.4171 19.6852C30.4222 19.6757 30.4207 19.6812 30.4087 19.6935C30.3961 19.7064 30.3794 19.7189 30.3615 19.7282L29.4426 17.9518ZM28.6396 18.7688C28.4629 19.1223 28.406 19.5081 28.406 19.872H30.406C30.406 19.7026 30.4345 19.6511 30.4285 19.6632L28.6396 18.7688ZM28.406 19.872V22H30.406V19.872H28.406ZM29.406 21H28.158V23H29.406V21ZM29.158 22V17.696H27.158V22H29.158ZM28.158 18.696H29.35V16.696H28.158V18.696ZM28.35 17.696V18.888H30.35V17.696H28.35ZM30.1991 18.3597L29.9751 17.9997L28.277 19.0563L28.501 19.4163L30.1991 18.3597ZM30.007 19.0011C30.0687 18.8862 30.1482 18.8067 30.2632 18.745L29.3169 16.983C28.8558 17.2306 28.4926 17.5938 28.245 18.0549L30.007 19.0011ZM30.2632 18.745C30.3882 18.6778 30.5501 18.632 30.774 18.632V16.632C30.262 16.632 29.7679 16.7408 29.3169 16.983L30.2632 18.745ZM36.3293 22H35.3293C35.3293 22.5523 35.777 23 36.3293 23V22ZM36.3293 21.16H37.3293C37.3293 21.0228 37.3011 20.8871 37.2464 20.7613L36.3293 21.16ZM36.2493 20.976H35.2493C35.2493 21.1132 35.2775 21.2489 35.3322 21.3747L36.2493 20.976ZM36.0013 18.848L35.319 19.5791C35.3229 19.5828 35.327 19.5865 35.331 19.5901L36.0013 18.848ZM34.5773 18.736L34.8795 19.6892C34.8842 19.6877 34.8889 19.6862 34.8935 19.6847L34.5773 18.736ZM34.0173 19.024L33.1278 19.481C33.2646 19.7472 33.5135 19.9382 33.806 20.0014C34.0986 20.0647 34.4041 19.9935 34.6387 19.8075L34.0173 19.024ZM33.5693 18.152L32.9933 17.3345C32.5857 17.6217 32.4519 18.1654 32.6798 18.609L33.5693 18.152ZM34.4173 17.768L34.1528 16.8036L34.1528 16.8036L34.4173 17.768ZM36.9533 18.096L37.6022 17.3352L37.6022 17.3352L36.9533 18.096ZM37.4973 22V23C38.0496 23 38.4973 22.5523 38.4973 22H37.4973ZM34.1533 21.896L33.7141 22.7944C33.7195 22.797 33.7249 22.7996 33.7304 22.8022L34.1533 21.896ZM33.6013 21.424L34.4402 20.8798L34.4402 20.8798L33.6013 21.424ZM33.5933 20.088L32.7612 19.5333C32.7576 19.5387 32.7541 19.5441 32.7506 19.5496L33.5933 20.088ZM34.1933 19.64L34.5584 20.571C34.5636 20.5689 34.5688 20.5668 34.574 20.5647L34.1933 19.64ZM36.4013 19.472H37.4013C37.4013 18.9197 36.9536 18.472 36.4013 18.472V19.472ZM36.4013 20.2V21.2C36.9536 21.2 37.4013 20.7523 37.4013 20.2H36.4013ZM34.7853 20.344L34.1345 19.5847C34.1284 19.59 34.1223 19.5953 34.1163 19.6007L34.7853 20.344ZM34.8093 21.088L34.193 21.8755C34.2055 21.8853 34.2183 21.8948 34.2313 21.904L34.8093 21.088ZM35.8893 21.08L36.3914 21.9448C36.3983 21.9408 36.4051 21.9367 36.4118 21.9326L35.8893 21.08ZM36.2493 20.64L37.198 20.3238C37.0647 19.924 36.6951 19.6507 36.2738 19.6403C35.8526 19.6299 35.47 19.8848 35.3173 20.2776L36.2493 20.64ZM36.4413 21.216L37.3918 21.5267C37.4584 21.323 37.4578 21.1032 37.39 20.8998L36.4413 21.216ZM35.9453 21.848L35.4308 20.9905L35.4308 20.9905L35.9453 21.848ZM37.3293 22V21.16H35.3293V22H37.3293ZM37.2464 20.7613L37.1664 20.5773L35.3322 21.3747L35.4122 21.5587L37.2464 20.7613ZM37.2493 20.976V19.472H35.2493V20.976H37.2493ZM37.2493 19.472C37.2493 18.9831 37.088 18.482 36.6716 18.1059L35.331 19.5901C35.3169 19.5774 35.302 19.5609 35.2883 19.5412C35.2745 19.5214 35.2646 19.5021 35.258 19.4853C35.2446 19.4516 35.2493 19.4415 35.2493 19.472H37.2493ZM36.6836 18.1169C36.2607 17.7222 35.7152 17.624 35.2573 17.624V19.624C35.3047 19.624 35.3404 19.6267 35.366 19.6299C35.3915 19.6332 35.4043 19.6367 35.407 19.6375C35.4108 19.6387 35.37 19.6267 35.319 19.5791L36.6836 18.1169ZM35.2573 17.624C34.9173 17.624 34.584 17.6797 34.2611 17.7873L34.8935 19.6847C35.0186 19.643 35.1386 19.624 35.2573 19.624V17.624ZM34.275 17.7828C33.959 17.883 33.6598 18.0312 33.3959 18.2405L34.6387 19.8075C34.6841 19.7715 34.7582 19.7277 34.8795 19.6892L34.275 17.7828ZM34.9068 18.567L34.4588 17.695L32.6798 18.609L33.1278 19.481L34.9068 18.567ZM34.1452 18.9695C34.269 18.8823 34.4415 18.7983 34.6817 18.7324L34.1528 16.8036C33.7317 16.9191 33.3389 17.091 32.9933 17.3345L34.1452 18.9695ZM34.6817 18.7324C34.9266 18.6653 35.1737 18.632 35.4253 18.632V16.632C34.9942 16.632 34.5693 16.6894 34.1528 16.8036L34.6817 18.7324ZM35.4253 18.632C35.9327 18.632 36.1806 18.7513 36.3043 18.8568L37.6022 17.3352C37.0006 16.822 36.2298 16.632 35.4253 16.632V18.632ZM36.3043 18.8568C36.3693 18.9122 36.4973 19.0653 36.4973 19.544H38.4973C38.4973 18.7107 38.2626 17.8984 37.6022 17.3352L36.3043 18.8568ZM36.4973 19.544V22H38.4973V19.544H36.4973ZM37.4973 21H36.3293V23H37.4973V21ZM35.0173 21.064C34.7894 21.064 34.6532 21.0258 34.5762 20.9898L33.7304 22.8022C34.1334 22.9902 34.5731 23.064 35.0173 23.064V21.064ZM34.5925 20.9976C34.4928 20.9489 34.4567 20.9052 34.4402 20.8798L32.7623 21.9682C33.0018 22.3374 33.3338 22.6085 33.7141 22.7944L34.5925 20.9976ZM34.4402 20.8798C34.422 20.8517 34.4093 20.8209 34.4093 20.76H32.4093C32.4093 21.1897 32.5245 21.6016 32.7623 21.9682L34.4402 20.8798ZM34.4093 20.76C34.4093 20.6705 34.4284 20.6383 34.436 20.6264L32.7506 19.5496C32.5129 19.9217 32.4093 20.3375 32.4093 20.76H34.4093ZM34.4253 20.6427C34.4211 20.6491 34.4215 20.6453 34.4376 20.6333C34.455 20.6202 34.4918 20.5971 34.5584 20.571L33.8282 18.709C33.4165 18.8705 33.0296 19.1307 32.7612 19.5333L34.4253 20.6427ZM34.574 20.5647C34.6814 20.5205 34.8928 20.472 35.2573 20.472V18.472C34.7471 18.472 34.2492 18.5355 33.8125 18.7153L34.574 20.5647ZM35.2573 20.472H36.4013V18.472H35.2573V20.472ZM35.4013 19.472V20.2H37.4013V19.472H35.4013ZM36.4013 19.2H35.3933V21.2H36.4013V19.2ZM35.3933 19.2C35.0624 19.2 34.5372 19.2395 34.1345 19.5847L35.4361 21.1033C35.3822 21.1494 35.3337 21.176 35.3024 21.1903C35.2715 21.2045 35.2525 21.2089 35.2517 21.2091C35.2507 21.2093 35.2613 21.2068 35.2866 21.2043C35.3116 21.2019 35.3467 21.2 35.3933 21.2V19.2ZM34.1163 19.6007C33.7981 19.8871 33.6253 20.2776 33.6253 20.704H35.6253C35.6253 20.7583 35.6145 20.8324 35.5791 20.9121C35.5436 20.992 35.4955 21.0502 35.4542 21.0873L34.1163 19.6007ZM33.6253 20.704C33.6253 21.1618 33.8205 21.584 34.193 21.8755L35.4256 20.3005C35.4735 20.338 35.5309 20.3999 35.5731 20.4879C35.6149 20.575 35.6253 20.6536 35.6253 20.704H33.6253ZM34.2313 21.904C34.5831 22.1532 34.9828 22.224 35.3293 22.224V20.224C35.2873 20.224 35.2766 20.2195 35.2883 20.2225C35.3018 20.2261 35.34 20.2385 35.3873 20.272L34.2313 21.904ZM35.3293 22.224C35.6977 22.224 36.0603 22.1371 36.3914 21.9448L35.3871 20.2152C35.3843 20.2168 35.3816 20.2181 35.3762 20.2195C35.3704 20.221 35.3559 20.224 35.3293 20.224V22.224ZM36.4118 21.9326C36.7756 21.7097 37.0327 21.3846 37.1813 21.0024L35.3173 20.2776C35.3148 20.284 35.3172 20.2756 35.3293 20.2608C35.3419 20.2454 35.3562 20.2339 35.3667 20.2274L36.4118 21.9326ZM35.3006 20.9562L35.4926 21.5322L37.39 20.8998L37.198 20.3238L35.3006 20.9562ZM35.4908 20.9053C35.4714 20.9644 35.455 20.976 35.4308 20.9905L36.4598 22.7055C36.9156 22.432 37.2298 22.0222 37.3918 21.5267L35.4908 20.9053ZM35.4308 20.9905C35.3918 21.0139 35.2764 21.064 35.0173 21.064V23.064C35.5155 23.064 36.0188 22.9701 36.4598 22.7055L35.4308 20.9905ZM38.6268 22H37.6268C37.6268 22.5523 38.0745 23 38.6268 23V22ZM38.6268 16.064V15.064C38.0745 15.064 37.6268 15.5117 37.6268 16.064H38.6268ZM39.8748 16.064H40.8748C40.8748 15.5117 40.4271 15.064 39.8748 15.064V16.064ZM39.8748 22V23C40.4271 23 40.8748 22.5523 40.8748 22H39.8748ZM39.6268 22V16.064H37.6268V22H39.6268ZM38.6268 17.064H39.8748V15.064H38.6268V17.064ZM38.8748 16.064V22H40.8748V16.064H38.8748ZM39.8748 21H38.6268V23H39.8748V21ZM41.033 22H40.033C40.033 22.5523 40.4807 23 41.033 23V22ZM41.033 17.696V16.696C40.4807 16.696 40.033 17.1437 40.033 17.696H41.033ZM42.281 17.696H43.281C43.281 17.1437 42.8333 16.696 42.281 16.696V17.696ZM42.281 22V23C42.8333 23 43.281 22.5523 43.281 22H42.281ZM41.097 16.896L40.4176 17.6298L40.4176 17.6298L41.097 16.896ZM41.097 15.904L41.7764 16.6378L41.7764 16.6378L41.097 15.904ZM42.217 15.896L41.5527 16.6434C41.5579 16.6481 41.5632 16.6527 41.5686 16.6572L42.217 15.896ZM42.217 16.896L42.9101 17.6168L42.9107 17.6163L42.217 16.896ZM42.033 22V17.696H40.033V22H42.033ZM41.033 18.696H42.281V16.696H41.033V18.696ZM41.281 17.696V22H43.281V17.696H41.281ZM42.281 21H41.033V23H42.281V21ZM41.657 16.096C41.6393 16.096 41.6513 16.0935 41.6814 16.1043C41.714 16.1159 41.7483 16.1362 41.7764 16.1622L40.4176 17.6298C40.7772 17.9627 41.2211 18.096 41.657 18.096V16.096ZM41.7764 16.1622C41.7968 16.1811 41.828 16.2179 41.8519 16.2727C41.8757 16.3275 41.881 16.3743 41.881 16.4H39.881C39.881 16.8741 40.0679 17.306 40.4176 17.6298L41.7764 16.1622ZM41.881 16.4C41.881 16.4257 41.8757 16.4725 41.8519 16.5273C41.828 16.5821 41.7968 16.6189 41.7764 16.6378L40.4176 15.1702C40.0679 15.494 39.881 15.9259 39.881 16.4H41.881ZM41.7764 16.6378C41.7483 16.6638 41.714 16.6841 41.6814 16.6957C41.6513 16.7065 41.6393 16.704 41.657 16.704V14.704C41.2211 14.704 40.7772 14.8373 40.4176 15.1702L41.7764 16.6378ZM41.657 16.704C41.6789 16.704 41.6711 16.707 41.6447 16.6979C41.6158 16.688 41.5822 16.6696 41.5527 16.6434L42.8814 15.1486C42.5207 14.8279 42.0821 14.704 41.657 14.704V16.704ZM41.5686 16.6572C41.5368 16.6302 41.4965 16.5837 41.4671 16.5184C41.4382 16.4541 41.433 16.4011 41.433 16.376H43.433C43.433 15.9002 43.2433 15.4566 42.8655 15.1348L41.5686 16.6572ZM41.433 16.376C41.433 16.3626 41.4358 16.3258 41.4555 16.2784C41.4756 16.2301 41.503 16.1953 41.5234 16.1757L42.9107 17.6163C43.2591 17.2808 43.433 16.8434 43.433 16.376H41.433ZM41.5239 16.1752C41.5597 16.1408 41.601 16.117 41.6367 16.1043C41.6691 16.0927 41.6803 16.096 41.657 16.096V18.096C42.09 18.096 42.5459 17.967 42.9101 17.6168L41.5239 16.1752ZM46.9673 17.84L46.5059 18.7272C46.513 18.7309 46.52 18.7344 46.5271 18.7379L46.9673 17.84ZM47.6073 18.464L46.73 18.944L46.7339 18.9511L47.6073 18.464ZM47.8393 22V23C48.3916 23 48.8393 22.5523 48.8393 22H47.8393ZM46.5913 22H45.5913C45.5913 22.5523 46.039 23 46.5913 23V22ZM46.3593 18.96L45.6172 19.6303C45.6211 19.6346 45.625 19.6389 45.629 19.6432L46.3593 18.96ZM45.1833 18.84L45.6427 19.7283L45.6539 19.7224L45.1833 18.84ZM44.8153 19.216L43.9322 18.7468C43.9283 18.7541 43.9245 18.7614 43.9209 18.7688L44.8153 19.216ZM44.6873 22V23C45.2396 23 45.6873 22.5523 45.6873 22H44.6873ZM43.4393 22H42.4393C42.4393 22.5523 42.887 23 43.4393 23V22ZM43.4393 17.696V16.696C42.887 16.696 42.4393 17.1437 42.4393 17.696H43.4393ZM44.6313 17.696H45.6313C45.6313 17.1437 45.1836 16.696 44.6313 16.696V17.696ZM44.6313 18.888L43.7822 19.4163C44.0181 19.7954 44.4767 19.9722 44.906 19.8495C45.3353 19.7269 45.6313 19.3345 45.6313 18.888H44.6313ZM44.4073 18.528L43.5263 18.0549C43.3569 18.3703 43.3691 18.7523 43.5582 19.0563L44.4073 18.528ZM45.0713 17.864L45.5444 18.745L45.5444 18.745L45.0713 17.864ZM46.0553 18.632C46.258 18.632 46.4001 18.6722 46.5059 18.7272L47.4286 16.9528C47.0012 16.7305 46.5352 16.632 46.0553 16.632V18.632ZM46.5271 18.7379C46.6017 18.7745 46.6678 18.8302 46.73 18.944L48.4845 17.984C48.2375 17.5324 47.8769 17.1722 47.4074 16.9421L46.5271 18.7379ZM46.7339 18.9511C46.7801 19.0338 46.8393 19.2079 46.8393 19.536H48.8393C48.8393 18.9895 48.7438 18.4488 48.4806 17.9769L46.7339 18.9511ZM46.8393 19.536V22H48.8393V19.536H46.8393ZM47.8393 21H46.5913V23H47.8393V21ZM47.5913 22V19.728H45.5913V22H47.5913ZM47.5913 19.728C47.5913 19.2584 47.4899 18.7048 47.0896 18.2768L45.629 19.6432C45.584 19.5951 45.5738 19.5577 45.576 19.5652C45.5794 19.5764 45.5913 19.6253 45.5913 19.728H47.5913ZM47.1014 18.2897C46.7177 17.8649 46.205 17.712 45.7193 17.712V19.712C45.7599 19.712 45.7561 19.7181 45.726 19.7064C45.7107 19.7005 45.6914 19.6911 45.6708 19.677C45.6501 19.6628 45.632 19.6467 45.6172 19.6303L47.1014 18.2897ZM45.7193 17.712C45.3726 17.712 45.0301 17.7884 44.7127 17.9576L45.6539 19.7224C45.6565 19.7209 45.6713 19.712 45.7193 19.712V17.712ZM44.7239 17.9518C44.369 18.1353 44.1073 18.4172 43.9322 18.7468L45.6984 19.6852C45.7034 19.6757 45.7019 19.6812 45.69 19.6935C45.6773 19.7064 45.6606 19.7189 45.6427 19.7282L44.7239 17.9518ZM43.9209 18.7688C43.7441 19.1223 43.6873 19.5081 43.6873 19.872H45.6873C45.6873 19.7026 45.7158 19.6511 45.7097 19.6632L43.9209 18.7688ZM43.6873 19.872V22H45.6873V19.872H43.6873ZM44.6873 21H43.4393V23H44.6873V21ZM44.4393 22V17.696H42.4393V22H44.4393ZM43.4393 18.696H44.6313V16.696H43.4393V18.696ZM43.6313 17.696V18.888H45.6313V17.696H43.6313ZM45.4803 18.3597L45.2563 17.9997L43.5582 19.0563L43.7822 19.4163L45.4803 18.3597ZM45.2883 19.0011C45.35 18.8862 45.4295 18.8067 45.5444 18.745L44.5982 16.983C44.1371 17.2306 43.7739 17.5938 43.5263 18.0549L45.2883 19.0011ZM45.5444 18.745C45.6695 18.6778 45.8313 18.632 46.0553 18.632V16.632C45.5432 16.632 45.0491 16.7408 44.5982 16.983L45.5444 18.745ZM49.8418 21.776L49.3792 22.6626L49.3844 22.6653L49.8418 21.776ZM48.9858 20.992L48.1295 21.5085L48.1332 21.5146L48.9858 20.992ZM48.9778 18.704L48.1215 18.1875L48.1191 18.1915L48.9778 18.704ZM49.8018 17.92L50.2759 18.8005L50.2863 18.7948L49.8018 17.92ZM52.1138 17.904L51.6388 18.784C51.6444 18.787 51.6499 18.7899 51.6555 18.7928L52.1138 17.904ZM52.9218 18.672L52.0595 19.1784L52.0631 19.1845L52.9218 18.672ZM53.2098 20.032L54.2057 20.1225L54.2063 20.115L53.2098 20.032ZM53.1938 20.2V21.2C53.7075 21.2 54.1377 20.8107 54.1888 20.2995L53.1938 20.2ZM49.6978 20.2H48.6978C48.6978 20.7523 49.1455 21.2 49.6978 21.2V20.2ZM49.6978 19.472V18.472C49.1455 18.472 48.6978 18.9197 48.6978 19.472H49.6978ZM52.5378 19.472L52.9481 20.3839C53.378 20.1905 53.6144 19.7231 53.5155 19.2621C53.4166 18.8012 53.0092 18.472 52.5378 18.472V19.472ZM52.0578 19.688H51.0578C51.0578 20.0273 51.2299 20.3435 51.5148 20.5278C51.7998 20.712 52.1587 20.7392 52.4681 20.5999L52.0578 19.688ZM51.9218 19.104L51.045 19.5848L51.045 19.5848L51.9218 19.104ZM51.5458 18.72L51.0313 19.5775C51.0384 19.5818 51.0456 19.5859 51.0528 19.59L51.5458 18.72ZM50.4178 18.72L50.9108 19.5901L50.9199 19.5848L50.4178 18.72ZM50.0418 19.112L50.9187 19.5929L50.9249 19.5812L50.0418 19.112ZM50.0578 20.52L49.1848 21.0078C49.1906 21.0181 49.1965 21.0282 49.2026 21.0383L50.0578 20.52ZM50.4978 20.928L50.0404 21.8173C50.0505 21.8224 50.0606 21.8274 50.0708 21.8322L50.4978 20.928ZM51.7698 20.96L51.4032 20.0295L51.3934 20.0335L51.7698 20.96ZM52.2498 20.648L52.9849 19.9701C52.8026 19.7723 52.5483 19.6564 52.2794 19.6484C52.0106 19.6405 51.7499 19.7411 51.5561 19.9277L52.2498 20.648ZM52.9138 21.368L53.6641 22.029C54.0027 21.6447 53.9962 21.0666 53.6489 20.6901L52.9138 21.368ZM52.1698 21.888L52.5354 22.8188C52.5402 22.8169 52.545 22.815 52.5497 22.813L52.1698 21.888ZM51.1378 21.064C50.7794 21.064 50.5089 20.9946 50.2991 20.8867L49.3844 22.6653C49.9213 22.9414 50.5149 23.064 51.1378 23.064V21.064ZM50.3043 20.8894C50.0852 20.7751 49.9397 20.6348 49.8384 20.4694L48.1332 21.5146C48.4372 22.0105 48.8624 22.3929 49.3792 22.6626L50.3043 20.8894ZM49.8421 20.4755C49.7416 20.3089 49.6818 20.1091 49.6818 19.848H47.6818C47.6818 20.4403 47.8247 21.0031 48.1295 21.5085L49.8421 20.4755ZM49.6818 19.848C49.6818 19.5739 49.7425 19.3739 49.8365 19.2165L48.1191 18.1915C47.8184 18.6954 47.6818 19.2581 47.6818 19.848H49.6818ZM49.8341 19.2205C49.9439 19.0384 50.0863 18.9025 50.2759 18.8005L49.3277 17.0395C48.8239 17.3108 48.417 17.6976 48.1215 18.1875L49.8341 19.2205ZM50.2863 18.7948C50.4697 18.6932 50.692 18.632 50.9778 18.632V16.632C50.3889 16.632 49.8272 16.7628 49.3173 17.0452L50.2863 18.7948ZM50.9778 18.632C51.2508 18.632 51.4634 18.6894 51.6388 18.784L52.5887 17.024C52.0921 16.756 51.5474 16.632 50.9778 16.632V18.632ZM51.6555 18.7928C51.8261 18.8808 51.9565 19.003 52.0595 19.1784L53.7841 18.1656C53.4924 17.669 53.0841 17.2792 52.5721 17.0152L51.6555 18.7928ZM52.0631 19.1845C52.1506 19.3312 52.2178 19.5434 52.2178 19.864H54.2178C54.2178 19.2566 54.0876 18.6742 53.7805 18.1595L52.0631 19.1845ZM52.2178 19.864C52.2178 19.8768 52.217 19.904 52.2132 19.949L54.2063 20.115C54.2132 20.032 54.2178 19.9472 54.2178 19.864H52.2178ZM52.2139 19.9415C52.2088 19.9974 52.2038 20.0504 52.1987 20.1005L54.1888 20.2995C54.1945 20.2429 54.2001 20.1839 54.2057 20.1225L52.2139 19.9415ZM53.1938 19.2H49.6978V21.2H53.1938V19.2ZM50.6978 20.2V19.472H48.6978V20.2H50.6978ZM49.6978 20.472H52.5378V18.472H49.6978V20.472ZM52.1274 18.5601L51.6474 18.7761L52.4681 20.5999L52.9481 20.3839L52.1274 18.5601ZM53.0578 19.688C53.0578 19.3275 52.984 18.9613 52.7986 18.6232L51.045 19.5848C51.044 19.583 51.0466 19.5869 51.0498 19.6008C51.0533 19.6155 51.0578 19.6433 51.0578 19.688H53.0578ZM52.7986 18.6232C52.621 18.2993 52.3646 18.0346 52.0388 17.85L51.0528 19.59C51.0536 19.5905 51.0528 19.5901 51.051 19.5887C51.0492 19.5873 51.0472 19.5856 51.0453 19.5836C51.0434 19.5817 51.0423 19.5803 51.042 19.5799C51.0418 19.5796 51.0429 19.5811 51.045 19.5848L52.7986 18.6232ZM52.0603 17.8625C51.7236 17.6605 51.3539 17.576 50.9858 17.576V19.576C51.0173 19.576 51.0329 19.5795 51.0367 19.5805C51.0398 19.5813 51.0367 19.5807 51.0313 19.5775L52.0603 17.8625ZM50.9858 17.576C50.617 17.576 50.2506 17.6607 49.9156 17.8552L50.9199 19.5848C50.9206 19.5844 50.9228 19.583 50.9295 19.5813C50.9369 19.5795 50.9544 19.576 50.9858 19.576V17.576ZM49.9248 17.85C49.5906 18.0393 49.3338 18.3131 49.1587 18.6428L50.9249 19.5812C50.9262 19.5786 50.9273 19.5769 50.928 19.5757C50.9287 19.5746 50.929 19.5741 50.929 19.5741C50.929 19.5741 50.9288 19.5745 50.9281 19.5753C50.9275 19.576 50.9266 19.577 50.9255 19.5782C50.9231 19.5807 50.9202 19.5833 50.9172 19.5856C50.9142 19.588 50.9119 19.5894 50.9108 19.59L49.9248 17.85ZM49.165 18.6312C48.9778 18.9726 48.9058 19.3427 48.9058 19.704H50.9058C50.9058 19.6067 50.9245 19.5821 50.9186 19.5928L49.165 18.6312ZM48.9058 19.704V19.896H50.9058V19.704H48.9058ZM48.9058 19.896C48.9058 20.2789 48.9899 20.6589 49.1848 21.0078L50.9307 20.0322C50.923 20.0184 50.9058 19.9824 50.9058 19.896H48.9058ZM49.2026 21.0383C49.407 21.3756 49.6929 21.6385 50.0404 21.8173L50.9551 20.0387C50.9294 20.0255 50.9219 20.0164 50.913 20.0017L49.2026 21.0383ZM50.0708 21.8322C50.4209 21.9976 50.796 22.064 51.1698 22.064V20.064C51.0315 20.064 50.9586 20.0397 50.9248 20.0238L50.0708 21.8322ZM51.1698 22.064C51.4976 22.064 51.8306 22.0147 52.1462 21.8865L51.3934 20.0335C51.3676 20.044 51.3006 20.064 51.1698 20.064V22.064ZM52.1363 21.8904C52.4409 21.7704 52.7106 21.5925 52.9434 21.3683L51.5561 19.9277C51.501 19.9808 51.4507 20.0109 51.4033 20.0296L52.1363 21.8904ZM51.5147 21.3259L52.1787 22.0459L53.6489 20.6901L52.9849 19.9701L51.5147 21.3259ZM52.1634 20.707C52.0758 20.8065 51.9582 20.8938 51.7899 20.963L52.5497 22.813C52.9787 22.6368 53.3571 22.3775 53.6641 22.029L52.1634 20.707ZM51.8041 20.9572C51.6439 21.0202 51.4279 21.064 51.1378 21.064V23.064C51.6263 23.064 52.0984 22.9905 52.5354 22.8188L51.8041 20.9572Z" fill="black"/>
<defs>
<linearGradient id="paint0_linear_1_25" x1="48.0084" y1="11.3302" x2="48.0084" y2="15.3302" gradientUnits="userSpaceOnUse">
<stop stop-color="#00FF19"/>
<stop offset="0.0001" stop-color="#42FF00"/>
<stop offset="1" stop-color="#CCFF00"/>
</linearGradient>
<linearGradient id="paint1_linear_1_25" x1="30.5" y1="16" x2="30.5" y2="22" gradientUnits="userSpaceOnUse">
<stop stop-color="#00FF19"/>
<stop offset="1" stop-color="#CCFF00"/>
</linearGradient>
</defs>
</svg>
