<svg width="49" height="10" viewBox="0 0 49 10" fill="none" xmlns="http://www.w3.org/2000/svg">
<path d="M1.95534 8L4.45134 2.4H5.73134L8.23534 8H6.87534L4.82734 3.056H5.33934L3.28334 8H1.95534ZM3.20334 6.8L3.54734 5.816H6.42734L6.77934 6.8H3.20334ZM10.5373 8.064C10.1319 8.064 9.76661 7.97333 9.44128 7.792C9.11595 7.60533 8.85728 7.34667 8.66528 7.016C8.47861 6.68533 8.38528 6.296 8.38528 5.848C8.38528 5.39467 8.47861 5.00267 8.66528 4.672C8.85728 4.34133 9.11595 4.08533 9.44128 3.904C9.76661 3.72267 10.1319 3.632 10.5373 3.632C10.8999 3.632 11.2173 3.712 11.4893 3.872C11.7613 4.032 11.9719 4.27467 12.1213 4.6C12.2706 4.92533 12.3453 5.34133 12.3453 5.848C12.3453 6.34933 12.2733 6.76533 12.1293 7.096C11.9853 7.42133 11.7773 7.664 11.5053 7.824C11.2386 7.984 10.9159 8.064 10.5373 8.064ZM10.7533 7.04C10.9559 7.04 11.1399 6.992 11.3053 6.896C11.4706 6.8 11.6013 6.664 11.6973 6.488C11.7986 6.30667 11.8493 6.09333 11.8493 5.848C11.8493 5.59733 11.7986 5.384 11.6973 5.208C11.6013 5.032 11.4706 4.896 11.3053 4.8C11.1399 4.704 10.9559 4.656 10.7533 4.656C10.5453 4.656 10.3586 4.704 10.1933 4.8C10.0279 4.896 9.89461 5.032 9.79328 5.208C9.69728 5.384 9.64928 5.59733 9.64928 5.848C9.64928 6.09333 9.69728 6.30667 9.79328 6.488C9.89461 6.664 10.0279 6.8 10.1933 6.896C10.3586 6.992 10.5453 7.04 10.7533 7.04ZM11.8813 8V7.12L11.9053 5.84L11.8253 4.568V2.064H13.0733V8H11.8813ZM14.2283 8V3.696H15.4203V4.912L15.2523 4.56C15.3803 4.256 15.5857 4.02667 15.8683 3.872C16.151 3.712 16.495 3.632 16.9003 3.632V4.784C16.847 4.77867 16.799 4.776 16.7563 4.776C16.7137 4.77067 16.6683 4.768 16.6203 4.768C16.279 4.768 16.0017 4.86667 15.7883 5.064C15.5803 5.256 15.4763 5.55733 15.4763 5.968V8H14.2283ZM19.7472 8.064C19.2565 8.064 18.8245 7.968 18.4512 7.776C18.0832 7.584 17.7978 7.32267 17.5952 6.992C17.3925 6.656 17.2912 6.27467 17.2912 5.848C17.2912 5.416 17.3898 5.03467 17.5872 4.704C17.7898 4.368 18.0645 4.10667 18.4112 3.92C18.7578 3.728 19.1498 3.632 19.5872 3.632C20.0085 3.632 20.3872 3.72267 20.7232 3.904C21.0645 4.08 21.3338 4.336 21.5312 4.672C21.7285 5.00267 21.8272 5.4 21.8272 5.864C21.8272 5.912 21.8245 5.968 21.8192 6.032C21.8138 6.09067 21.8085 6.14667 21.8032 6.2H18.3072V5.472H21.1472L20.6672 5.688C20.6672 5.464 20.6218 5.26933 20.5312 5.104C20.4405 4.93867 20.3152 4.81067 20.1552 4.72C19.9952 4.624 19.8085 4.576 19.5952 4.576C19.3818 4.576 19.1925 4.624 19.0272 4.72C18.8672 4.81067 18.7418 4.94133 18.6512 5.112C18.5605 5.27733 18.5152 5.47467 18.5152 5.704V5.896C18.5152 6.13067 18.5658 6.33867 18.6672 6.52C18.7738 6.696 18.9205 6.832 19.1072 6.928C19.2992 7.01867 19.5232 7.064 19.7792 7.064C20.0085 7.064 20.2085 7.02933 20.3792 6.96C20.5552 6.89067 20.7152 6.78667 20.8592 6.648L21.5232 7.368C21.3258 7.592 21.0778 7.76533 20.7792 7.888C20.4805 8.00533 20.1365 8.064 19.7472 8.064ZM25.274 3.632C25.6154 3.632 25.9194 3.70133 26.186 3.84C26.458 3.97333 26.6714 4.18133 26.826 4.464C26.9807 4.74133 27.058 5.09867 27.058 5.536V8H25.81V5.728C25.81 5.38133 25.7327 5.12533 25.578 4.96C25.4287 4.79467 25.2154 4.712 24.938 4.712C24.7407 4.712 24.562 4.75467 24.402 4.84C24.2474 4.92 24.1247 5.04533 24.034 5.216C23.9487 5.38667 23.906 5.60533 23.906 5.872V8H22.658V3.696H23.85V4.888L23.626 4.528C23.7807 4.24 24.002 4.01867 24.29 3.864C24.578 3.70933 24.906 3.632 25.274 3.632ZM30.8293 8V7.16L30.7493 6.976V5.472C30.7493 5.20533 30.6666 4.99733 30.5013 4.848C30.3413 4.69867 30.0933 4.624 29.7573 4.624C29.5279 4.624 29.3013 4.66133 29.0773 4.736C28.8586 4.80533 28.6719 4.90133 28.5173 5.024L28.0693 4.152C28.3039 3.98667 28.5866 3.85867 28.9173 3.768C29.2479 3.67733 29.5839 3.632 29.9253 3.632C30.5813 3.632 31.0906 3.78667 31.4533 4.096C31.8159 4.40533 31.9973 4.888 31.9973 5.544V8H30.8293ZM29.5173 8.064C29.1813 8.064 28.8933 8.008 28.6533 7.896C28.4133 7.77867 28.2293 7.62133 28.1013 7.424C27.9733 7.22667 27.9093 7.00533 27.9093 6.76C27.9093 6.504 27.9706 6.28 28.0933 6.088C28.2213 5.896 28.4213 5.74667 28.6933 5.64C28.9653 5.528 29.3199 5.472 29.7573 5.472H30.9013V6.2H29.8933C29.5999 6.2 29.3973 6.248 29.2853 6.344C29.1786 6.44 29.1253 6.56 29.1253 6.704C29.1253 6.864 29.1866 6.992 29.3093 7.088C29.4373 7.17867 29.6106 7.224 29.8293 7.224C30.0373 7.224 30.2239 7.176 30.3893 7.08C30.5546 6.97867 30.6746 6.832 30.7493 6.64L30.9413 7.216C30.8506 7.49333 30.6853 7.704 30.4453 7.848C30.2053 7.992 29.8959 8.064 29.5173 8.064ZM33.1268 8V2.064H34.3748V8H33.1268ZM35.533 8V3.696H36.781V8H35.533ZM36.157 3.096C35.9277 3.096 35.741 3.02933 35.597 2.896C35.453 2.76267 35.381 2.59733 35.381 2.4C35.381 2.20267 35.453 2.03733 35.597 1.904C35.741 1.77067 35.9277 1.704 36.157 1.704C36.3864 1.704 36.573 1.768 36.717 1.896C36.861 2.01867 36.933 2.17867 36.933 2.376C36.933 2.584 36.861 2.75733 36.717 2.896C36.5784 3.02933 36.3917 3.096 36.157 3.096ZM40.5553 3.632C40.8966 3.632 41.2006 3.70133 41.4673 3.84C41.7393 3.97333 41.9526 4.18133 42.1073 4.464C42.2619 4.74133 42.3393 5.09867 42.3393 5.536V8H41.0913V5.728C41.0913 5.38133 41.0139 5.12533 40.8593 4.96C40.7099 4.79467 40.4966 4.712 40.2193 4.712C40.0219 4.712 39.8433 4.75467 39.6833 4.84C39.5286 4.92 39.4059 5.04533 39.3153 5.216C39.2299 5.38667 39.1873 5.60533 39.1873 5.872V8H37.9393V3.696H39.1313V4.888L38.9073 4.528C39.0619 4.24 39.2833 4.01867 39.5713 3.864C39.8593 3.70933 40.1873 3.632 40.5553 3.632ZM45.6378 8.064C45.1471 8.064 44.7151 7.968 44.3418 7.776C43.9738 7.584 43.6884 7.32267 43.4858 6.992C43.2831 6.656 43.1818 6.27467 43.1818 5.848C43.1818 5.416 43.2804 5.03467 43.4778 4.704C43.6804 4.368 43.9551 4.10667 44.3018 3.92C44.6484 3.728 45.0404 3.632 45.4778 3.632C45.8991 3.632 46.2778 3.72267 46.6138 3.904C46.9551 4.08 47.2244 4.336 47.4218 4.672C47.6191 5.00267 47.7178 5.4 47.7178 5.864C47.7178 5.912 47.7151 5.968 47.7098 6.032C47.7044 6.09067 47.6991 6.14667 47.6938 6.2H44.1978V5.472H47.0378L46.5578 5.688C46.5578 5.464 46.5124 5.26933 46.4218 5.104C46.3311 4.93867 46.2058 4.81067 46.0458 4.72C45.8858 4.624 45.6991 4.576 45.4858 4.576C45.2724 4.576 45.0831 4.624 44.9178 4.72C44.7578 4.81067 44.6324 4.94133 44.5418 5.112C44.4511 5.27733 44.4058 5.47467 44.4058 5.704V5.896C44.4058 6.13067 44.4564 6.33867 44.5578 6.52C44.6644 6.696 44.8111 6.832 44.9978 6.928C45.1898 7.01867 45.4138 7.064 45.6698 7.064C45.8991 7.064 46.0991 7.02933 46.2698 6.96C46.4458 6.89067 46.6058 6.78667 46.7498 6.648L47.4138 7.368C47.2164 7.592 46.9684 7.76533 46.6698 7.888C46.3711 8.00533 46.0271 8.064 45.6378 8.064Z" fill="url(#paint0_linear_1_2)"/>
<path d="M1.95534 8L1.04196 7.59289C0.904078 7.90225 0.932154 8.26038 1.11656 8.54447C1.30097 8.82856 1.61665 9 1.95534 9V8ZM4.45134 2.4V1.4C4.05654 1.4 3.69869 1.63229 3.53796 1.99289L4.45134 2.4ZM5.73134 2.4L6.64424 1.99181C6.48326 1.63178 6.12572 1.4 5.73134 1.4V2.4ZM8.23534 8V9C8.57425 9 8.89009 8.82835 9.07445 8.54397C9.2588 8.25959 9.28658 7.90119 9.14824 7.59181L8.23534 8ZM6.87534 8L5.95147 8.3827C6.10626 8.75637 6.47089 9 6.87534 9V8ZM4.82734 3.056V2.056C4.49336 2.056 4.18142 2.22274 3.99587 2.50044C3.81032 2.77814 3.77565 3.13014 3.90347 3.4387L4.82734 3.056ZM5.33934 3.056L6.26269 3.43998C6.39102 3.13137 6.3567 2.77905 6.1712 2.50101C5.98571 2.22298 5.67358 2.056 5.33934 2.056V3.056ZM3.28334 8V9C3.6873 9 4.05158 8.75696 4.20669 8.38398L3.28334 8ZM3.20334 6.8L2.25937 6.46999C2.15244 6.77585 2.20033 7.11456 2.38787 7.37879C2.5754 7.64301 2.87933 7.8 3.20334 7.8V6.8ZM3.54734 5.816V4.816C3.12227 4.816 2.74364 5.08473 2.60337 5.48599L3.54734 5.816ZM6.42734 5.816L7.36891 5.47918C7.22663 5.08144 6.84977 4.816 6.42734 4.816V5.816ZM6.77934 6.8V7.8C7.10463 7.8 7.40959 7.64178 7.59691 7.37584C7.78422 7.10989 7.83048 6.76946 7.72091 6.46318L6.77934 6.8ZM2.86872 8.40711L5.36472 2.80711L3.53796 1.99289L1.04196 7.59289L2.86872 8.40711ZM4.45134 3.4H5.73134V1.4H4.45134V3.4ZM4.81845 2.80819L7.32245 8.40819L9.14824 7.59181L6.64424 1.99181L4.81845 2.80819ZM8.23534 7H6.87534V9H8.23534V7ZM7.79921 7.6173L5.75122 2.6733L3.90347 3.4387L5.95147 8.3827L7.79921 7.6173ZM4.82734 4.056H5.33934V2.056H4.82734V4.056ZM4.416 2.67202L2.36 7.61602L4.20669 8.38398L6.26269 3.43998L4.416 2.67202ZM3.28334 7H1.95534V9H3.28334V7ZM4.14732 7.13001L4.49132 6.14601L2.60337 5.48599L2.25937 6.46999L4.14732 7.13001ZM3.54734 6.816H6.42734V4.816H3.54734V6.816ZM5.48578 6.15282L5.83778 7.13682L7.72091 6.46318L7.36891 5.47918L5.48578 6.15282ZM6.77934 5.8H3.20334V7.8H6.77934V5.8ZM9.44128 7.792L8.94357 8.65943L8.95442 8.66548L9.44128 7.792ZM8.66528 7.016L7.79439 7.50763L7.80049 7.51814L8.66528 7.016ZM8.66528 4.672L7.80043 4.16983L7.79446 4.18041L8.66528 4.672ZM9.44128 3.904L8.95442 3.03052L8.95442 3.03052L9.44128 3.904ZM11.4893 3.872L11.9963 3.01007L11.9963 3.01007L11.4893 3.872ZM12.1213 4.6L13.0301 4.18283L13.0301 4.18283L12.1213 4.6ZM12.1293 7.096L13.0437 7.50075L13.0461 7.49527L12.1293 7.096ZM11.5053 7.824L10.9982 6.96203L10.9908 6.96651L11.5053 7.824ZM11.3053 6.896L10.8031 6.03121L10.8031 6.03121L11.3053 6.896ZM11.6973 6.488L10.8243 6.00015L10.8194 6.00915L11.6973 6.488ZM11.6973 5.208L10.8194 5.68685C10.8231 5.6936 10.8268 5.7003 10.8307 5.70696L11.6973 5.208ZM11.3053 4.8L10.8031 5.66479L10.8031 5.66479L11.3053 4.8ZM10.1933 4.8L10.6954 5.66479L10.6954 5.66479L10.1933 4.8ZM9.79328 5.208L8.92666 4.70904C8.92282 4.7157 8.91907 4.7224 8.91539 4.72915L9.79328 5.208ZM9.79328 6.488L8.90949 6.95589C8.91503 6.96635 8.92075 6.97671 8.92666 6.98696L9.79328 6.488ZM10.1933 6.896L10.6954 6.03121L10.6954 6.03121L10.1933 6.896ZM11.8813 8H10.8813C10.8813 8.55228 11.329 9 11.8813 9V8ZM11.8813 7.12L10.8815 7.10125C10.8813 7.1075 10.8813 7.11375 10.8813 7.12L11.8813 7.12ZM11.9053 5.84L12.9051 5.85875C12.9056 5.83156 12.905 5.80437 12.9033 5.77723L11.9053 5.84ZM11.8253 4.568H10.8253C10.8253 4.58894 10.8259 4.60987 10.8273 4.63077L11.8253 4.568ZM11.8253 2.064V1.064C11.273 1.064 10.8253 1.51171 10.8253 2.064H11.8253ZM13.0733 2.064H14.0733C14.0733 1.51171 13.6256 1.064 13.0733 1.064V2.064ZM13.0733 8V9C13.6256 9 14.0733 8.55228 14.0733 8H13.0733ZM10.5373 7.064C10.2869 7.064 10.0917 7.00967 9.92814 6.91852L8.95442 8.66548C9.44155 8.93699 9.97698 9.064 10.5373 9.064V7.064ZM9.93895 6.92463C9.76901 6.82713 9.63569 6.69576 9.53007 6.51386L7.80049 7.51814C8.07888 7.99758 8.46289 8.38354 8.94361 8.65937L9.93895 6.92463ZM9.53611 6.52441C9.4482 6.36869 9.38528 6.15485 9.38528 5.848H7.38528C7.38528 6.43715 7.50903 7.00198 7.79446 7.50759L9.53611 6.52441ZM9.38528 5.848C9.38528 5.5335 9.44916 5.31762 9.53611 5.16359L7.79446 4.18041C7.50807 4.68771 7.38528 5.25583 7.38528 5.848H9.38528ZM9.53007 5.17414C9.63429 4.99464 9.76421 4.86885 9.92814 4.77748L8.95442 3.03052C8.46769 3.30181 8.08027 3.68803 7.80049 4.16986L9.53007 5.17414ZM9.92814 4.77748C10.0917 4.68633 10.2869 4.632 10.5373 4.632V2.632C9.97698 2.632 9.44155 2.75901 8.95442 3.03052L9.92814 4.77748ZM10.5373 4.632C10.7487 4.632 10.8857 4.67712 10.9823 4.73393L11.9963 3.01007C11.5489 2.74688 11.0512 2.632 10.5373 2.632V4.632ZM10.9823 4.73393C11.0549 4.77668 11.1365 4.85178 11.2125 5.01717L13.0301 4.18283C12.8074 3.69755 12.4676 3.28732 11.9963 3.01007L10.9823 4.73393ZM11.2125 5.01717C11.2822 5.16905 11.3453 5.42967 11.3453 5.848H13.3453C13.3453 5.253 13.2591 4.68162 13.0301 4.18283L11.2125 5.01717ZM11.3453 5.848C11.3453 6.26199 11.2846 6.53099 11.2124 6.69673L13.0461 7.49527C13.2619 6.99968 13.3453 6.43668 13.3453 5.848H11.3453ZM11.2149 6.69125C11.1443 6.85074 11.0674 6.92138 10.9983 6.96207L12.0123 8.68593C12.4871 8.40662 12.8263 7.99192 13.0437 7.50075L11.2149 6.69125ZM10.9908 6.96651C10.9102 7.01486 10.7741 7.064 10.5373 7.064V9.064C11.0578 9.064 11.567 8.95314 12.0198 8.68149L10.9908 6.96651ZM10.7533 8.04C11.1213 8.04 11.4803 7.95072 11.8074 7.76079L10.8031 6.03121C10.7996 6.03328 10.7906 6.04 10.7533 6.04V8.04ZM11.8074 7.76079C12.1388 7.56837 12.396 7.29528 12.5752 6.96685L10.8194 6.00915C10.8112 6.02408 10.8062 6.02912 10.8062 6.02917C10.8061 6.02927 10.806 6.02934 10.806 6.02937C10.8059 6.02941 10.8059 6.02942 10.8059 6.02942C10.8059 6.02942 10.8059 6.02942 10.8059 6.02942C10.8059 6.02941 10.8059 6.02942 10.8059 6.02944C10.8059 6.02948 10.8057 6.02963 10.8053 6.02989C10.8049 6.03015 10.8042 6.0306 10.8031 6.03121L11.8074 7.76079ZM12.5702 6.97582C12.7688 6.62048 12.8493 6.23311 12.8493 5.848H10.8493C10.8493 5.95356 10.8284 5.99285 10.8243 6.00018L12.5702 6.97582ZM12.8493 5.848C12.8493 5.4629 12.7709 5.06856 12.5639 4.70904L10.8307 5.70696C10.8263 5.69944 10.8493 5.73177 10.8493 5.848H12.8493ZM12.5752 4.72915C12.396 4.40072 12.1388 4.12763 11.8074 3.93521L10.8031 5.66479C10.8042 5.6654 10.8049 5.66585 10.8053 5.66611C10.8057 5.66637 10.8059 5.66652 10.8059 5.66656C10.8059 5.66658 10.8059 5.66659 10.8059 5.66658C10.8059 5.66658 10.8059 5.66658 10.8059 5.66658C10.8059 5.66658 10.8059 5.66659 10.806 5.66663C10.806 5.66666 10.8061 5.66673 10.8062 5.66683C10.8062 5.66688 10.8112 5.67192 10.8194 5.68685L12.5752 4.72915ZM11.8074 3.93521C11.4803 3.74528 11.1213 3.656 10.7533 3.656V5.656C10.7906 5.656 10.7996 5.66272 10.8031 5.66479L11.8074 3.93521ZM10.7533 3.656C10.3849 3.656 10.0223 3.74295 9.69115 3.93521L10.6954 5.66479C10.6982 5.66316 10.701 5.66187 10.7063 5.66049C10.7121 5.659 10.7267 5.656 10.7533 5.656V3.656ZM9.69115 3.93521C9.3649 4.12464 9.10972 4.39108 8.92666 4.70904L10.6599 5.70696C10.6795 5.67292 10.691 5.66735 10.6954 5.66479L9.69115 3.93521ZM8.91539 4.72915C8.72162 5.08438 8.64928 5.4712 8.64928 5.848H10.6493C10.6493 5.786 10.6553 5.74456 10.6609 5.71951C10.6637 5.70714 10.6664 5.69884 10.6682 5.6939C10.67 5.68901 10.6711 5.68691 10.6712 5.68685L8.91539 4.72915ZM8.64928 5.848C8.64928 6.22468 8.72358 6.60473 8.90949 6.95589L10.6771 6.02011C10.671 6.00861 10.6493 5.96199 10.6493 5.848H8.64928ZM8.92666 6.98696C9.10972 7.30492 9.3649 7.57135 9.69115 7.76079L10.6954 6.03121C10.691 6.02865 10.6795 6.02308 10.6599 5.98904L8.92666 6.98696ZM9.69115 7.76079C10.0223 7.95305 10.3849 8.04 10.7533 8.04V6.04C10.7267 6.04 10.7121 6.037 10.7063 6.03551C10.701 6.03413 10.6982 6.03284 10.6954 6.03121L9.69115 7.76079ZM12.8813 8V7.12H10.8813V8H12.8813ZM12.8811 7.13875L12.9051 5.85875L10.9055 5.82125L10.8815 7.10125L12.8811 7.13875ZM12.9033 5.77723L12.8233 4.50523L10.8273 4.63077L10.9073 5.90277L12.9033 5.77723ZM12.8253 4.568V2.064H10.8253V4.568H12.8253ZM11.8253 3.064H13.0733V1.064H11.8253V3.064ZM12.0733 2.064V8H14.0733V2.064H12.0733ZM13.0733 7H11.8813V9H13.0733V7ZM14.2283 8H13.2283C13.2283 8.55228 13.6761 9 14.2283 9V8ZM14.2283 3.696V2.696C13.6761 2.696 13.2283 3.14371 13.2283 3.696H14.2283ZM15.4203 3.696H16.4203C16.4203 3.14371 15.9726 2.696 15.4203 2.696V3.696ZM15.4203 4.912L14.5179 5.34273C14.7191 5.76438 15.1855 5.99048 15.6412 5.88732C16.0968 5.78415 16.4203 5.37921 16.4203 4.912H15.4203ZM15.2523 4.56L14.3307 4.17194C14.2199 4.43509 14.2269 4.73305 14.3499 4.99073L15.2523 4.56ZM15.8683 3.872L16.3484 4.74926C16.3526 4.74696 16.3568 4.74462 16.3609 4.74226L15.8683 3.872ZM16.9003 3.632H17.9003C17.9003 3.07972 17.4526 2.632 16.9003 2.632V3.632ZM16.9003 4.784L16.8008 5.77904C17.082 5.80715 17.3619 5.71503 17.5713 5.52545C17.7808 5.33587 17.9003 5.06653 17.9003 4.784H16.9003ZM16.7563 4.776L16.6323 5.76828C16.6735 5.77342 16.7149 5.776 16.7563 5.776V4.776ZM15.7883 5.064L16.4666 5.7988L16.4674 5.7981L15.7883 5.064ZM15.4763 8V9C16.0286 9 16.4763 8.55228 16.4763 8H15.4763ZM15.2283 8V3.696H13.2283V8H15.2283ZM14.2283 4.696H15.4203V2.696H14.2283V4.696ZM14.4203 3.696V4.912H16.4203V3.696H14.4203ZM16.3228 4.48127L16.1548 4.12927L14.3499 4.99073L14.5179 5.34273L16.3228 4.48127ZM16.174 4.94806C16.2165 4.84699 16.269 4.79269 16.3484 4.74926L15.3883 2.99474C14.9024 3.26064 14.5442 3.66501 14.3307 4.17194L16.174 4.94806ZM16.3609 4.74226C16.4604 4.68594 16.6254 4.632 16.9003 4.632V2.632C16.3646 2.632 15.8416 2.73806 15.3757 3.00174L16.3609 4.74226ZM15.9003 3.632V4.784H17.9003V3.632H15.9003ZM16.9998 3.78896C16.9214 3.78112 16.8394 3.776 16.7563 3.776V5.776C16.7586 5.776 16.7726 5.77621 16.8008 5.77904L16.9998 3.78896ZM16.8804 3.78372C16.7922 3.77269 16.7051 3.768 16.6203 3.768V5.768C16.6316 5.768 16.6352 5.76864 16.6323 5.76828L16.8804 3.78372ZM16.6203 3.768C16.0741 3.768 15.5391 3.9323 15.1093 4.3299L16.4674 5.7981C16.4734 5.79255 16.4787 5.78872 16.4915 5.78415C16.5069 5.77867 16.546 5.768 16.6203 5.768V3.768ZM15.1101 4.3292C14.619 4.78247 14.4763 5.4058 14.4763 5.968H16.4763C16.4763 5.84334 16.4926 5.78066 16.4996 5.76025C16.5046 5.74575 16.4986 5.76925 16.4666 5.7988L15.1101 4.3292ZM14.4763 5.968V8H16.4763V5.968H14.4763ZM15.4763 7H14.2283V9H15.4763V7ZM18.4512 7.776L17.9886 8.6626L17.9938 8.66529L18.4512 7.776ZM17.5952 6.992L16.7388 7.50851L16.7426 7.51456L17.5952 6.992ZM17.5872 4.704L16.7309 4.1875L16.7284 4.19154L17.5872 4.704ZM18.4112 3.92L18.8853 4.80053L18.8957 4.79479L18.4112 3.92ZM20.7232 3.904L20.2482 4.78402C20.2537 4.787 20.2593 4.78993 20.2649 4.7928L20.7232 3.904ZM21.5312 4.672L20.6688 5.17843L20.6724 5.18446L21.5312 4.672ZM21.8192 6.032L22.8151 6.12254L22.8157 6.11504L21.8192 6.032ZM21.8032 6.2V7.2C22.3169 7.2 22.7471 6.8107 22.7982 6.2995L21.8032 6.2ZM18.3072 6.2H17.3072C17.3072 6.75228 17.7549 7.2 18.3072 7.2V6.2ZM18.3072 5.472V4.472C17.7549 4.472 17.3072 4.91972 17.3072 5.472H18.3072ZM21.1472 5.472L21.5575 6.38392C21.9874 6.19047 22.2238 5.72306 22.1249 5.26214C22.026 4.80123 21.6186 4.472 21.1472 4.472V5.472ZM20.6672 5.688H19.6672C19.6672 6.02733 19.8392 6.34351 20.1242 6.52775C20.4091 6.712 20.7681 6.73917 21.0775 6.59992L20.6672 5.688ZM20.5312 5.104L19.6543 5.58483L19.6543 5.58483L20.5312 5.104ZM20.1552 4.72L19.6407 5.57749C19.6478 5.58176 19.6549 5.58593 19.6621 5.59002L20.1552 4.72ZM19.0272 4.72L19.5202 5.59007L19.5293 5.58479L19.0272 4.72ZM18.6512 5.112L19.528 5.59287L19.5343 5.58116L18.6512 5.112ZM18.6672 6.52L17.7942 7.00782C17.7999 7.01809 17.8059 7.02825 17.812 7.0383L18.6672 6.52ZM19.1072 6.928L18.6498 7.81729C18.6598 7.82245 18.67 7.82743 18.6802 7.83225L19.1072 6.928ZM20.3792 6.96L20.0126 6.02954L20.0028 6.03353L20.3792 6.96ZM20.8592 6.648L21.5943 5.97006C21.4119 5.77234 21.1576 5.65641 20.8888 5.64844C20.62 5.64047 20.3592 5.74112 20.1655 5.92768L20.8592 6.648ZM21.5232 7.368L22.2735 8.02903C22.6121 7.64467 22.6055 7.06661 22.2583 6.69006L21.5232 7.368ZM20.7792 7.888L21.1448 8.81875C21.1496 8.81688 21.1543 8.81497 21.1591 8.81302L20.7792 7.888ZM19.7472 7.064C19.3887 7.064 19.1183 6.9946 18.9085 6.88671L17.9938 8.66529C18.5307 8.9414 19.1242 9.064 19.7472 9.064V7.064ZM18.9137 6.88942C18.6946 6.77508 18.5491 6.63479 18.4478 6.46944L16.7426 7.51456C17.0465 8.01054 17.4717 8.39292 17.9886 8.66258L18.9137 6.88942ZM18.4514 6.47551C18.3509 6.30889 18.2912 6.10908 18.2912 5.848H16.2912C16.2912 6.44025 16.434 7.00311 16.7389 7.50849L18.4514 6.47551ZM18.2912 5.848C18.2912 5.57391 18.3519 5.37392 18.4459 5.21646L16.7284 4.19154C16.4277 4.69542 16.2912 5.25809 16.2912 5.848H18.2912ZM18.4434 5.22049C18.5533 5.03841 18.6957 4.90253 18.8853 4.80047L17.9371 3.03953C17.4333 3.3108 17.0264 3.69759 16.7309 4.18751L18.4434 5.22049ZM18.8957 4.79479C19.0791 4.6932 19.3014 4.632 19.5872 4.632V2.632C18.9983 2.632 18.4366 2.7628 17.9267 3.04521L18.8957 4.79479ZM19.5872 4.632C19.8602 4.632 20.0728 4.68936 20.2482 4.78402L21.1981 3.02398C20.7015 2.75598 20.1568 2.632 19.5872 2.632V4.632ZM20.2649 4.7928C20.4355 4.88078 20.5658 5.003 20.6689 5.17842L22.3934 4.16558C22.1018 3.669 21.6935 3.27922 21.1814 3.0152L20.2649 4.7928ZM20.6724 5.18446C20.76 5.33117 20.8272 5.54336 20.8272 5.864H22.8272C22.8272 5.25664 22.697 4.67417 22.3899 4.15954L20.6724 5.18446ZM20.8272 5.864C20.8272 5.87684 20.8264 5.904 20.8226 5.94896L22.8157 6.11504C22.8226 6.032 22.8272 5.94716 22.8272 5.864H20.8272ZM20.8233 5.94146C20.8182 5.99743 20.8131 6.05043 20.8081 6.1005L22.7982 6.2995C22.8039 6.24291 22.8095 6.18391 22.815 6.12254L20.8233 5.94146ZM21.8032 5.2H18.3072V7.2H21.8032V5.2ZM19.3072 6.2V5.472H17.3072V6.2H19.3072ZM18.3072 6.472H21.1472V4.472H18.3072V6.472ZM20.7368 4.56008L20.2568 4.77608L21.0775 6.59992L21.5575 6.38392L20.7368 4.56008ZM21.6672 5.688C21.6672 5.3275 21.5934 4.96129 21.408 4.62317L19.6543 5.58483C19.6533 5.58299 19.656 5.58686 19.6592 5.60081C19.6626 5.61548 19.6672 5.64332 19.6672 5.688H21.6672ZM21.408 4.62317C21.2304 4.29932 20.974 4.03463 20.6482 3.84998L19.6621 5.59002C19.6629 5.59047 19.6622 5.59009 19.6604 5.58873C19.6586 5.58734 19.6566 5.58558 19.6546 5.58362C19.6527 5.58168 19.6517 5.58029 19.6514 5.57995C19.6512 5.57964 19.6523 5.58105 19.6543 5.58483L21.408 4.62317ZM20.6697 3.86251C20.333 3.66052 19.9633 3.576 19.5952 3.576V5.576C19.6267 5.576 19.6423 5.57951 19.6461 5.58049C19.6492 5.58128 19.646 5.58072 19.6407 5.57749L20.6697 3.86251ZM19.5952 3.576C19.2264 3.576 18.86 3.66071 18.525 3.85521L19.5293 5.58479C19.53 5.58436 19.5322 5.58304 19.5389 5.58133C19.5462 5.57947 19.5638 5.576 19.5952 5.576V3.576ZM18.5341 3.84998C18.2 4.03932 17.9432 4.31314 17.768 4.64284L19.5343 5.58116C19.5356 5.57863 19.5367 5.57686 19.5373 5.57574C19.538 5.57463 19.5384 5.57411 19.5384 5.5741C19.5384 5.57409 19.5381 5.5745 19.5375 5.57526C19.5369 5.57602 19.536 5.57704 19.5348 5.57823C19.5325 5.58071 19.5296 5.58329 19.5266 5.58565C19.5235 5.58799 19.5212 5.58942 19.5202 5.59002L18.5341 3.84998ZM17.7743 4.63117C17.5871 4.97256 17.5152 5.34265 17.5152 5.704H19.5152C19.5152 5.60668 19.5339 5.5821 19.528 5.59283L17.7743 4.63117ZM17.5152 5.704V5.896H19.5152V5.704H17.5152ZM17.5152 5.896C17.5152 6.27894 17.5992 6.65891 17.7942 7.00782L19.5401 6.03218C19.5324 6.01843 19.5152 5.98239 19.5152 5.896H17.5152ZM17.812 7.0383C18.0164 7.37564 18.3022 7.63854 18.6498 7.81729L19.5645 6.03871C19.5387 6.02546 19.5312 6.01636 19.5224 6.0017L17.812 7.0383ZM18.6802 7.83225C19.0303 7.9976 19.4054 8.064 19.7792 8.064V6.064C19.6409 6.064 19.568 6.03974 19.5342 6.02375L18.6802 7.83225ZM19.7792 8.064C20.107 8.064 20.44 8.01467 20.7555 7.88647L20.0028 6.03353C19.977 6.044 19.91 6.064 19.7792 6.064V8.064ZM20.7457 7.89041C21.0502 7.77043 21.32 7.59251 21.5528 7.36832L20.1655 5.92768C20.1103 5.98082 20.0601 6.0109 20.0126 6.02959L20.7457 7.89041ZM20.124 7.32594L20.788 8.04594L22.2583 6.69006L21.5943 5.97006L20.124 7.32594ZM20.7728 6.70697C20.6851 6.80646 20.5676 6.89383 20.3992 6.96298L21.1591 8.81302C21.588 8.63684 21.9665 8.37754 22.2735 8.02903L20.7728 6.70697ZM20.4135 6.95725C20.2533 7.0202 20.0373 7.064 19.7472 7.064V9.064C20.2357 9.064 20.7077 8.99046 21.1448 8.81875L20.4135 6.95725ZM26.186 3.84L25.7247 4.72722C25.7317 4.73087 25.7388 4.73444 25.7459 4.73792L26.186 3.84ZM26.826 4.464L25.9487 4.94403L25.9527 4.95107L26.826 4.464ZM27.058 8V9C27.6103 9 28.058 8.55228 28.058 8H27.058ZM25.81 8H24.81C24.81 8.55228 25.2577 9 25.81 9V8ZM25.578 4.96L24.8359 5.63029C24.8398 5.63461 24.8438 5.6389 24.8478 5.64316L25.578 4.96ZM24.402 4.84L24.8615 5.72829L24.8726 5.72235L24.402 4.84ZM24.034 5.216L23.1509 4.74684C23.1471 4.75411 23.1433 4.76143 23.1396 4.76879L24.034 5.216ZM23.906 8V9C24.4583 9 24.906 8.55228 24.906 8H23.906ZM22.658 8H21.658C21.658 8.55228 22.1057 9 22.658 9V8ZM22.658 3.696V2.696C22.1057 2.696 21.658 3.14371 21.658 3.696H22.658ZM23.85 3.696H24.85C24.85 3.14371 24.4023 2.696 23.85 2.696V3.696ZM23.85 4.888L23.001 5.4163C23.2369 5.79539 23.6955 5.97218 24.1248 5.84952C24.5541 5.72687 24.85 5.33448 24.85 4.888H23.85ZM23.626 4.528L22.745 4.05487C22.5756 4.37033 22.5878 4.75228 22.777 5.0563L23.626 4.528ZM24.29 3.864L24.7632 4.74499L24.7632 4.74499L24.29 3.864ZM25.274 4.632C25.4767 4.632 25.6188 4.67217 25.7247 4.72722L26.6474 2.95278C26.2199 2.7305 25.754 2.632 25.274 2.632V4.632ZM25.7459 4.73792C25.8204 4.77447 25.8865 4.83022 25.9488 4.94401L27.7033 3.98399C27.4562 3.53244 27.0956 3.1722 26.6262 2.94208L25.7459 4.73792ZM25.9527 4.95107C25.9988 5.03383 26.058 5.20787 26.058 5.536H28.058C28.058 4.98946 27.9626 4.44884 27.6994 3.97693L25.9527 4.95107ZM26.058 5.536V8H28.058V5.536H26.058ZM27.058 7H25.81V9H27.058V7ZM26.81 8V5.728H24.81V8H26.81ZM26.81 5.728C26.81 5.25842 26.7087 4.70483 26.3083 4.27684L24.8478 5.64316C24.8028 5.59509 24.7925 5.55772 24.7948 5.56518C24.7981 5.57639 24.81 5.62528 24.81 5.728H26.81ZM26.3201 4.28971C25.9364 3.86492 25.4238 3.712 24.938 3.712V5.712C24.9786 5.712 24.9749 5.71813 24.9447 5.70644C24.9294 5.70051 24.9102 5.69106 24.8896 5.67696C24.8688 5.66279 24.8507 5.64667 24.8359 5.63029L26.3201 4.28971ZM24.938 3.712C24.5914 3.712 24.2488 3.78838 23.9314 3.95765L24.8726 5.72235C24.8753 5.72095 24.89 5.712 24.938 5.712V3.712ZM23.9426 3.95178C23.5878 4.13532 23.326 4.41724 23.1509 4.74684L24.9171 5.68515C24.9222 5.67573 24.9207 5.68124 24.9087 5.69346C24.8961 5.70635 24.8794 5.71894 24.8615 5.72822L23.9426 3.95178ZM23.1396 4.76879C22.9629 5.12226 22.906 5.50811 22.906 5.872H24.906C24.906 5.70255 24.9345 5.65107 24.9285 5.66321L23.1396 4.76879ZM22.906 5.872V8H24.906V5.872H22.906ZM23.906 7H22.658V9H23.906V7ZM23.658 8V3.696H21.658V8H23.658ZM22.658 4.696H23.85V2.696H22.658V4.696ZM22.85 3.696V4.888H24.85V3.696H22.85ZM24.6991 4.3597L24.4751 3.9997L22.777 5.0563L23.001 5.4163L24.6991 4.3597ZM24.507 5.00113C24.5687 4.88619 24.6482 4.80672 24.7632 4.74499L23.8169 2.98301C23.3558 3.23061 22.9926 3.59381 22.745 4.05487L24.507 5.00113ZM24.7632 4.74499C24.8882 4.67784 25.0501 4.632 25.274 4.632V2.632C24.762 2.632 24.2679 2.74083 23.8169 2.98301L24.7632 4.74499ZM30.8293 8H29.8293C29.8293 8.55228 30.277 9 30.8293 9V8ZM30.8293 7.16H31.8293C31.8293 7.02281 31.8011 6.88709 31.7464 6.76127L30.8293 7.16ZM30.7493 6.976H29.7493C29.7493 7.11319 29.7775 7.24891 29.8322 7.37473L30.7493 6.976ZM30.5013 4.848L29.819 5.57906C29.8229 5.58277 29.827 5.58645 29.831 5.5901L30.5013 4.848ZM29.0773 4.736L29.3795 5.68923C29.3842 5.68775 29.3889 5.68623 29.3935 5.68468L29.0773 4.736ZM28.5173 5.024L27.6278 5.48098C27.7646 5.74723 28.0135 5.9382 28.306 6.00144C28.5986 6.06467 28.9041 5.9935 29.1387 5.8075L28.5173 5.024ZM28.0693 4.152L27.4933 3.33452C27.0857 3.62174 26.9519 4.16541 27.1798 4.60898L28.0693 4.152ZM28.9173 3.768L28.6528 2.8036L28.6528 2.8036L28.9173 3.768ZM31.4533 4.096L32.1022 3.33517L32.1022 3.33517L31.4533 4.096ZM31.9973 8V9C32.5496 9 32.9973 8.55228 32.9973 8H31.9973ZM28.6533 7.896L28.2141 8.79438C28.2195 8.79703 28.2249 8.79963 28.2304 8.80218L28.6533 7.896ZM28.1013 7.424L28.9402 6.87981L28.9402 6.87981L28.1013 7.424ZM28.0933 6.088L27.2612 5.5333C27.2576 5.5387 27.2541 5.54414 27.2506 5.54961L28.0933 6.088ZM28.6933 5.64L29.0584 6.57097C29.0636 6.56892 29.0688 6.56682 29.074 6.56468L28.6933 5.64ZM30.9013 5.472H31.9013C31.9013 4.91972 31.4536 4.472 30.9013 4.472V5.472ZM30.9013 6.2V7.2C31.4536 7.2 31.9013 6.75228 31.9013 6.2H30.9013ZM29.2853 6.344L28.6345 5.58474C28.6284 5.58999 28.6223 5.59531 28.6163 5.60071L29.2853 6.344ZM29.3093 7.088L28.693 7.87551C28.7055 7.88531 28.7183 7.89482 28.7313 7.90402L29.3093 7.088ZM30.3893 7.08L30.8914 7.94479C30.8983 7.94081 30.9051 7.93674 30.9118 7.9326L30.3893 7.08ZM30.7493 6.64L31.698 6.32377C31.5647 5.92399 31.1951 5.65065 30.7738 5.6403C30.3526 5.62995 29.97 5.8848 29.8173 6.27755L30.7493 6.64ZM30.9413 7.216L31.8918 7.52674C31.9584 7.32296 31.9578 7.10316 31.89 6.89977L30.9413 7.216ZM30.4453 7.848L29.9308 6.99051L29.9308 6.99051L30.4453 7.848ZM31.8293 8V7.16H29.8293V8H31.8293ZM31.7464 6.76127L31.6664 6.57727L29.8322 7.37473L29.9122 7.55873L31.7464 6.76127ZM31.7493 6.976V5.472H29.7493V6.976H31.7493ZM31.7493 5.472C31.7493 4.98313 31.588 4.48201 31.1716 4.1059L29.831 5.5901C29.8169 5.57736 29.802 5.56094 29.7883 5.54117C29.7745 5.52141 29.7646 5.5021 29.758 5.48534C29.7446 5.45163 29.7493 5.44145 29.7493 5.472H31.7493ZM31.1836 4.11694C30.7607 3.72224 30.2152 3.624 29.7573 3.624V5.624C29.8047 5.624 29.8404 5.62666 29.866 5.62993C29.8915 5.6332 29.9043 5.63674 29.907 5.63754C29.9108 5.63868 29.87 5.62666 29.819 5.57906L31.1836 4.11694ZM29.7573 3.624C29.4173 3.624 29.084 3.67968 28.7611 3.78732L29.3935 5.68468C29.5186 5.64299 29.6386 5.624 29.7573 5.624V3.624ZM28.775 3.78277C28.459 3.88297 28.1598 4.03117 27.8959 4.2405L29.1387 5.8075C29.1841 5.77149 29.2582 5.7277 29.3795 5.68923L28.775 3.78277ZM29.4068 4.56702L28.9588 3.69502L27.1798 4.60898L27.6278 5.48098L29.4068 4.56702ZM28.6452 4.96948C28.769 4.88231 28.9415 4.79827 29.1817 4.7324L28.6528 2.8036C28.2317 2.91906 27.8389 3.09102 27.4933 3.33452L28.6452 4.96948ZM29.1817 4.7324C29.4266 4.66525 29.6737 4.632 29.9253 4.632V2.632C29.4942 2.632 29.0693 2.68941 28.6528 2.8036L29.1817 4.7324ZM29.9253 4.632C30.4327 4.632 30.6806 4.75134 30.8043 4.85683L32.1022 3.33517C31.5006 2.822 30.7298 2.632 29.9253 2.632V4.632ZM30.8043 4.85683C30.8693 4.91223 30.9973 5.06533 30.9973 5.544H32.9973C32.9973 4.71067 32.7626 3.89843 32.1022 3.33517L30.8043 4.85683ZM30.9973 5.544V8H32.9973V5.544H30.9973ZM31.9973 7H30.8293V9H31.9973V7ZM29.5173 7.064C29.2894 7.064 29.1532 7.02575 29.0762 6.98982L28.2304 8.80218C28.6334 8.99025 29.0731 9.064 29.5173 9.064V7.064ZM29.0925 6.99762C28.9928 6.94888 28.9567 6.90522 28.9402 6.87981L27.2623 7.96819C27.5018 8.33744 27.8338 8.60846 28.2141 8.79438L29.0925 6.99762ZM28.9402 6.87981C28.922 6.85171 28.9093 6.82095 28.9093 6.76H26.9093C26.9093 7.18972 27.0245 7.60162 27.2623 7.96819L28.9402 6.87981ZM28.9093 6.76C28.9093 6.67049 28.9284 6.63828 28.936 6.62639L27.2506 5.54961C27.0129 5.92172 26.9093 6.33751 26.9093 6.76H28.9093ZM28.9253 6.6427C28.9211 6.64909 28.9215 6.64527 28.9376 6.63328C28.955 6.62025 28.9918 6.59709 29.0584 6.57097L28.3282 4.70903C27.9165 4.87047 27.5296 5.13068 27.2612 5.5333L28.9253 6.6427ZM29.074 6.56468C29.1814 6.52048 29.3928 6.472 29.7573 6.472V4.472C29.2471 4.472 28.7492 4.53552 28.3125 4.71532L29.074 6.56468ZM29.7573 6.472H30.9013V4.472H29.7573V6.472ZM29.9013 5.472V6.2H31.9013V5.472H29.9013ZM30.9013 5.2H29.8933V7.2H30.9013V5.2ZM29.8933 5.2C29.5624 5.2 29.0372 5.23954 28.6345 5.58474L29.9361 7.10326C29.8822 7.14939 29.8337 7.176 29.8024 7.19031C29.7715 7.20445 29.7525 7.20891 29.7517 7.20908C29.7507 7.20933 29.7613 7.2068 29.7866 7.20435C29.8116 7.20193 29.8467 7.2 29.8933 7.2V5.2ZM28.6163 5.60071C28.2981 5.8871 28.1253 6.27763 28.1253 6.704H30.1253C30.1253 6.75829 30.1145 6.83238 30.0791 6.91214C30.0436 6.99198 29.9955 7.05015 29.9542 7.08729L28.6163 5.60071ZM28.1253 6.704C28.1253 7.16178 28.3205 7.58404 28.693 7.87551L29.9256 6.30049C29.9735 6.338 30.0309 6.3999 30.0731 6.48788C30.1149 6.57502 30.1253 6.65357 30.1253 6.704H28.1253ZM28.7313 7.90402C29.0831 8.15322 29.4828 8.224 29.8293 8.224V6.224C29.7873 6.224 29.7766 6.21947 29.7883 6.22254C29.8018 6.22608 29.84 6.2385 29.8873 6.27198L28.7313 7.90402ZM29.8293 8.224C30.1977 8.224 30.5603 8.13705 30.8914 7.94479L29.8871 6.21521C29.8843 6.21684 29.8816 6.21813 29.8762 6.21951C29.8704 6.221 29.8559 6.224 29.8293 6.224V8.224ZM30.9118 7.9326C31.2756 7.70965 31.5327 7.38463 31.6813 7.00245L29.8173 6.27755C29.8148 6.28405 29.8172 6.2756 29.8293 6.26076C29.8419 6.24539 29.8562 6.23387 29.8667 6.2274L30.9118 7.9326ZM29.8006 6.95623L29.9926 7.53223L31.89 6.89977L31.698 6.32377L29.8006 6.95623ZM29.9908 6.90526C29.9714 6.96442 29.955 6.97597 29.9308 6.99051L30.9598 8.70549C31.4156 8.43203 31.7298 8.02225 31.8918 7.52674L29.9908 6.90526ZM29.9308 6.99051C29.8918 7.01392 29.7764 7.064 29.5173 7.064V9.064C30.0155 9.064 30.5188 8.97008 30.9598 8.70549L29.9308 6.99051ZM33.1268 8H32.1268C32.1268 8.55228 32.5745 9 33.1268 9V8ZM33.1268 2.064V1.064C32.5745 1.064 32.1268 1.51171 32.1268 2.064H33.1268ZM34.3748 2.064H35.3748C35.3748 1.51171 34.9271 1.064 34.3748 1.064V2.064ZM34.3748 8V9C34.9271 9 35.3748 8.55228 35.3748 8H34.3748ZM34.1268 8V2.064H32.1268V8H34.1268ZM33.1268 3.064H34.3748V1.064H33.1268V3.064ZM33.3748 2.064V8H35.3748V2.064H33.3748ZM34.3748 7H33.1268V9H34.3748V7ZM35.533 8H34.533C34.533 8.55228 34.9807 9 35.533 9V8ZM35.533 3.696V2.696C34.9807 2.696 34.533 3.14371 34.533 3.696H35.533ZM36.781 3.696H37.781C37.781 3.14371 37.3333 2.696 36.781 2.696V3.696ZM36.781 8V9C37.3333 9 37.781 8.55228 37.781 8H36.781ZM35.597 2.896L34.9176 3.62976L34.9176 3.62976L35.597 2.896ZM35.597 1.904L36.2764 2.63776L36.2764 2.63776L35.597 1.904ZM36.717 1.896L36.0527 2.64341C36.0579 2.64808 36.0632 2.65269 36.0686 2.65724L36.717 1.896ZM36.717 2.896L37.4101 3.61683L37.4107 3.61632L36.717 2.896ZM36.533 8V3.696H34.533V8H36.533ZM35.533 4.696H36.781V2.696H35.533V4.696ZM35.781 3.696V8H37.781V3.696H35.781ZM36.781 7H35.533V9H36.781V7ZM36.157 2.096C36.1393 2.096 36.1513 2.09351 36.1814 2.10426C36.214 2.1159 36.2483 2.13617 36.2764 2.16224L34.9176 3.62976C35.2772 3.96272 35.7211 4.096 36.157 4.096V2.096ZM36.2764 2.16224C36.2968 2.1811 36.328 2.21786 36.3519 2.27273C36.3757 2.32747 36.381 2.37434 36.381 2.4H34.381C34.381 2.87414 34.5679 3.30598 34.9176 3.62976L36.2764 2.16224ZM36.381 2.4C36.381 2.42566 36.3757 2.47252 36.3519 2.52727C36.328 2.58214 36.2968 2.61891 36.2764 2.63776L34.9176 1.17024C34.5679 1.49402 34.381 1.92586 34.381 2.4H36.381ZM36.2764 2.63776C36.2483 2.66382 36.214 2.6841 36.1814 2.69574C36.1513 2.70649 36.1393 2.704 36.157 2.704V0.704C35.7211 0.704 35.2772 0.837275 34.9176 1.17024L36.2764 2.63776ZM36.157 2.704C36.1789 2.704 36.1711 2.70701 36.1447 2.69795C36.1158 2.68802 36.0822 2.66963 36.0527 2.64341L37.3814 1.14859C37.0207 0.827947 36.5821 0.704 36.157 0.704V2.704ZM36.0686 2.65724C36.0368 2.6302 35.9965 2.58372 35.9671 2.51836C35.9382 2.45414 35.933 2.40113 35.933 2.376H37.933C37.933 1.90016 37.7433 1.45662 37.3655 1.13476L36.0686 2.65724ZM35.933 2.376C35.933 2.36261 35.9358 2.32583 35.9555 2.27839C35.9756 2.2301 36.003 2.19531 36.0234 2.17568L37.4107 3.61632C37.7591 3.28076 37.933 2.84342 37.933 2.376H35.933ZM36.0239 2.17517C36.0597 2.14078 36.101 2.11702 36.1367 2.10426C36.1691 2.09268 36.1803 2.096 36.157 2.096V4.096C36.59 4.096 37.0459 3.96703 37.4101 3.61683L36.0239 2.17517ZM41.4673 3.84L41.0059 4.72722C41.013 4.73087 41.02 4.73444 41.0271 4.73792L41.4673 3.84ZM42.1073 4.464L41.23 4.94403L41.2339 4.95107L42.1073 4.464ZM42.3393 8V9C42.8916 9 43.3393 8.55228 43.3393 8H42.3393ZM41.0913 8H40.0913C40.0913 8.55228 40.539 9 41.0913 9V8ZM40.8593 4.96L40.1172 5.63029C40.1211 5.63461 40.125 5.6389 40.129 5.64316L40.8593 4.96ZM39.6833 4.84L40.1427 5.72829L40.1539 5.72235L39.6833 4.84ZM39.3153 5.216L38.4322 4.74684C38.4283 4.75411 38.4245 4.76143 38.4209 4.76879L39.3153 5.216ZM39.1873 8V9C39.7396 9 40.1873 8.55228 40.1873 8H39.1873ZM37.9393 8H36.9393C36.9393 8.55228 37.387 9 37.9393 9V8ZM37.9393 3.696V2.696C37.387 2.696 36.9393 3.14371 36.9393 3.696H37.9393ZM39.1313 3.696H40.1313C40.1313 3.14371 39.6836 2.696 39.1313 2.696V3.696ZM39.1313 4.888L38.2822 5.4163C38.5181 5.79539 38.9767 5.97218 39.406 5.84952C39.8353 5.72687 40.1313 5.33448 40.1313 4.888H39.1313ZM38.9073 4.528L38.0263 4.05487C37.8569 4.37033 37.8691 4.75228 38.0582 5.0563L38.9073 4.528ZM39.5713 3.864L40.0444 4.74499L40.0444 4.74499L39.5713 3.864ZM40.5553 4.632C40.758 4.632 40.9001 4.67217 41.0059 4.72722L41.9286 2.95278C41.5012 2.7305 41.0352 2.632 40.5553 2.632V4.632ZM41.0271 4.73792C41.1017 4.77447 41.1678 4.83022 41.23 4.94401L42.9845 3.98399C42.7375 3.53244 42.3769 3.1722 41.9074 2.94208L41.0271 4.73792ZM41.2339 4.95107C41.2801 5.03383 41.3393 5.20787 41.3393 5.536H43.3393C43.3393 4.98946 43.2438 4.44884 42.9806 3.97693L41.2339 4.95107ZM41.3393 5.536V8H43.3393V5.536H41.3393ZM42.3393 7H41.0913V9H42.3393V7ZM42.0913 8V5.728H40.0913V8H42.0913ZM42.0913 5.728C42.0913 5.25842 41.9899 4.70483 41.5896 4.27684L40.129 5.64316C40.084 5.59509 40.0738 5.55772 40.076 5.56518C40.0794 5.57639 40.0913 5.62528 40.0913 5.728H42.0913ZM41.6014 4.28971C41.2177 3.86492 40.705 3.712 40.2193 3.712V5.712C40.2599 5.712 40.2561 5.71813 40.226 5.70644C40.2107 5.70051 40.1914 5.69106 40.1708 5.67696C40.1501 5.66279 40.132 5.64667 40.1172 5.63029L41.6014 4.28971ZM40.2193 3.712C39.8726 3.712 39.5301 3.78838 39.2127 3.95765L40.1539 5.72235C40.1565 5.72095 40.1713 5.712 40.2193 5.712V3.712ZM39.2239 3.95178C38.869 4.13532 38.6073 4.41724 38.4322 4.74684L40.1984 5.68515C40.2034 5.67573 40.2019 5.68124 40.19 5.69346C40.1773 5.70635 40.1606 5.71894 40.1427 5.72822L39.2239 3.95178ZM38.4209 4.76879C38.2441 5.12226 38.1873 5.50811 38.1873 5.872H40.1873C40.1873 5.70255 40.2158 5.65107 40.2097 5.66321L38.4209 4.76879ZM38.1873 5.872V8H40.1873V5.872H38.1873ZM39.1873 7H37.9393V9H39.1873V7ZM38.9393 8V3.696H36.9393V8H38.9393ZM37.9393 4.696H39.1313V2.696H37.9393V4.696ZM38.1313 3.696V4.888H40.1313V3.696H38.1313ZM39.9803 4.3597L39.7563 3.9997L38.0582 5.0563L38.2822 5.4163L39.9803 4.3597ZM39.7883 5.00113C39.85 4.88619 39.9295 4.80672 40.0444 4.74499L39.0982 2.98301C38.6371 3.23061 38.2739 3.59381 38.0263 4.05487L39.7883 5.00113ZM40.0444 4.74499C40.1695 4.67784 40.3313 4.632 40.5553 4.632V2.632C40.0432 2.632 39.5491 2.74083 39.0982 2.98301L40.0444 4.74499ZM44.3418 7.776L43.8792 8.6626L43.8844 8.66529L44.3418 7.776ZM43.4858 6.992L42.6295 7.50851L42.6332 7.51456L43.4858 6.992ZM43.4778 4.704L42.6215 4.1875L42.6191 4.19154L43.4778 4.704ZM44.3018 3.92L44.7759 4.80053L44.7863 4.79479L44.3018 3.92ZM46.6138 3.904L46.1388 4.78402C46.1444 4.787 46.1499 4.78993 46.1555 4.7928L46.6138 3.904ZM47.4218 4.672L46.5595 5.17843L46.5631 5.18446L47.4218 4.672ZM47.7098 6.032L48.7057 6.12254L48.7063 6.11504L47.7098 6.032ZM47.6938 6.2V7.2C48.2075 7.2 48.6377 6.8107 48.6888 6.2995L47.6938 6.2ZM44.1978 6.2H43.1978C43.1978 6.75228 43.6455 7.2 44.1978 7.2V6.2ZM44.1978 5.472V4.472C43.6455 4.472 43.1978 4.91972 43.1978 5.472H44.1978ZM47.0378 5.472L47.4481 6.38392C47.878 6.19047 48.1144 5.72306 48.0155 5.26214C47.9166 4.80123 47.5092 4.472 47.0378 4.472V5.472ZM46.5578 5.688H45.5578C45.5578 6.02733 45.7299 6.34351 46.0148 6.52775C46.2998 6.712 46.6587 6.73917 46.9681 6.59992L46.5578 5.688ZM46.4218 5.104L45.545 5.58483L45.545 5.58483L46.4218 5.104ZM46.0458 4.72L45.5313 5.57749C45.5384 5.58176 45.5456 5.58593 45.5528 5.59002L46.0458 4.72ZM44.9178 4.72L45.4108 5.59007L45.4199 5.58479L44.9178 4.72ZM44.5418 5.112L45.4187 5.59287L45.4249 5.58116L44.5418 5.112ZM44.5578 6.52L43.6848 7.00782C43.6906 7.01809 43.6965 7.02825 43.7026 7.0383L44.5578 6.52ZM44.9978 6.928L44.5404 7.81729C44.5505 7.82245 44.5606 7.82743 44.5708 7.83225L44.9978 6.928ZM46.2698 6.96L45.9032 6.02954L45.8934 6.03353L46.2698 6.96ZM46.7498 6.648L47.4849 5.97006C47.3026 5.77234 47.0483 5.65641 46.7794 5.64844C46.5106 5.64047 46.2499 5.74112 46.0561 5.92768L46.7498 6.648ZM47.4138 7.368L48.1641 8.02903C48.5027 7.64467 48.4962 7.06661 48.1489 6.69006L47.4138 7.368ZM46.6698 7.888L47.0354 8.81875C47.0402 8.81688 47.045 8.81497 47.0497 8.81302L46.6698 7.888ZM45.6378 7.064C45.2794 7.064 45.0089 6.9946 44.7991 6.88671L43.8844 8.66529C44.4213 8.9414 45.0149 9.064 45.6378 9.064V7.064ZM44.8043 6.88942C44.5852 6.77508 44.4397 6.63479 44.3384 6.46944L42.6332 7.51456C42.9372 8.01054 43.3624 8.39292 43.8792 8.66258L44.8043 6.88942ZM44.3421 6.47551C44.2416 6.30889 44.1818 6.10908 44.1818 5.848H42.1818C42.1818 6.44025 42.3247 7.00311 42.6295 7.50849L44.3421 6.47551ZM44.1818 5.848C44.1818 5.57391 44.2425 5.37392 44.3365 5.21646L42.6191 4.19154C42.3184 4.69542 42.1818 5.25809 42.1818 5.848H44.1818ZM44.3341 5.22049C44.4439 5.03841 44.5863 4.90253 44.7759 4.80047L43.8277 3.03953C43.3239 3.3108 42.917 3.69759 42.6215 4.18751L44.3341 5.22049ZM44.7863 4.79479C44.9697 4.6932 45.192 4.632 45.4778 4.632V2.632C44.8889 2.632 44.3272 2.7628 43.8173 3.04521L44.7863 4.79479ZM45.4778 4.632C45.7508 4.632 45.9634 4.68936 46.1388 4.78402L47.0887 3.02398C46.5921 2.75598 46.0474 2.632 45.4778 2.632V4.632ZM46.1555 4.7928C46.3261 4.88078 46.4565 5.003 46.5595 5.17842L48.2841 4.16558C47.9924 3.669 47.5841 3.27922 47.0721 3.0152L46.1555 4.7928ZM46.5631 5.18446C46.6506 5.33117 46.7178 5.54336 46.7178 5.864H48.7178C48.7178 5.25664 48.5876 4.67417 48.2805 4.15954L46.5631 5.18446ZM46.7178 5.864C46.7178 5.87684 46.717 5.904 46.7132 5.94896L48.7063 6.11504C48.7132 6.032 48.7178 5.94716 48.7178 5.864H46.7178ZM46.7139 5.94146C46.7088 5.99743 46.7038 6.05043 46.6987 6.1005L48.6888 6.2995C48.6945 6.24291 48.7001 6.18391 48.7057 6.12254L46.7139 5.94146ZM47.6938 5.2H44.1978V7.2H47.6938V5.2ZM45.1978 6.2V5.472H43.1978V6.2H45.1978ZM44.1978 6.472H47.0378V4.472H44.1978V6.472ZM46.6274 4.56008L46.1474 4.77608L46.9681 6.59992L47.4481 6.38392L46.6274 4.56008ZM47.5578 5.688C47.5578 5.3275 47.484 4.96129 47.2986 4.62317L45.545 5.58483C45.544 5.58299 45.5466 5.58686 45.5498 5.60081C45.5533 5.61548 45.5578 5.64332 45.5578 5.688H47.5578ZM47.2986 4.62317C47.121 4.29932 46.8646 4.03463 46.5388 3.84998L45.5528 5.59002C45.5536 5.59047 45.5528 5.59009 45.551 5.58873C45.5492 5.58734 45.5472 5.58558 45.5453 5.58362C45.5434 5.58168 45.5423 5.58029 45.542 5.57995C45.5418 5.57964 45.5429 5.58105 45.545 5.58483L47.2986 4.62317ZM46.5603 3.86251C46.2236 3.66052 45.8539 3.576 45.4858 3.576V5.576C45.5173 5.576 45.5329 5.57951 45.5367 5.58049C45.5398 5.58128 45.5367 5.58072 45.5313 5.57749L46.5603 3.86251ZM45.4858 3.576C45.117 3.576 44.7506 3.66071 44.4156 3.85521L45.4199 5.58479C45.4206 5.58436 45.4228 5.58304 45.4295 5.58133C45.4369 5.57947 45.4544 5.576 45.4858 5.576V3.576ZM44.4248 3.84998C44.0906 4.03932 43.8338 4.31314 43.6587 4.64284L45.4249 5.58116C45.4262 5.57863 45.4273 5.57686 45.428 5.57574C45.4287 5.57463 45.429 5.57411 45.429 5.5741C45.429 5.57409 45.4288 5.5745 45.4281 5.57526C45.4275 5.57602 45.4266 5.57704 45.4255 5.57823C45.4231 5.58071 45.4202 5.58329 45.4172 5.58565C45.4142 5.58799 45.4119 5.58942 45.4108 5.59002L44.4248 3.84998ZM43.665 4.63117C43.4778 4.97256 43.4058 5.34265 43.4058 5.704H45.4058C45.4058 5.60668 45.4245 5.5821 45.4186 5.59283L43.665 4.63117ZM43.4058 5.704V5.896H45.4058V5.704H43.4058ZM43.4058 5.896C43.4058 6.27894 43.4899 6.65891 43.6848 7.00782L45.4307 6.03218C45.423 6.01843 45.4058 5.98239 45.4058 5.896H43.4058ZM43.7026 7.0383C43.907 7.37564 44.1929 7.63854 44.5404 7.81729L45.4551 6.03871C45.4294 6.02546 45.4219 6.01636 45.413 6.0017L43.7026 7.0383ZM44.5708 7.83225C44.9209 7.9976 45.296 8.064 45.6698 8.064V6.064C45.5315 6.064 45.4586 6.03974 45.4248 6.02375L44.5708 7.83225ZM45.6698 8.064C45.9976 8.064 46.3306 8.01467 46.6462 7.88647L45.8934 6.03353C45.8676 6.044 45.8006 6.064 45.6698 6.064V8.064ZM46.6363 7.89041C46.9409 7.77043 47.2106 7.59251 47.4434 7.36832L46.0561 5.92768C46.001 5.98082 45.9507 6.0109 45.9033 6.02959L46.6363 7.89041ZM46.0147 7.32594L46.6787 8.04594L48.1489 6.69006L47.4849 5.97006L46.0147 7.32594ZM46.6634 6.70697C46.5758 6.80646 46.4582 6.89383 46.2899 6.96298L47.0497 8.81302C47.4787 8.63684 47.8571 8.37754 48.1641 8.02903L46.6634 6.70697ZM46.3041 6.95725C46.1439 7.0202 45.9279 7.064 45.6378 7.064V9.064C46.1263 9.064 46.5984 8.99046 47.0354 8.81875L46.3041 6.95725Z" fill="black"/>
<defs>
<linearGradient id="paint0_linear_1_2" x1="25" y1="2" x2="25" y2="8" gradientUnits="userSpaceOnUse">
<stop stop-color="#00FF19"/>
<stop offset="1" stop-color="#CCFF00"/>
</linearGradient>
</defs>
</svg>
