<svg width="49" height="18" viewBox="0 0 49 18" fill="none" xmlns="http://www.w3.org/2000/svg">
<rect x="42.0505" y="2.50175" width="3.125" height="7.125" rx="1.5625" transform="rotate(15 42.0505 2.50175)" fill="white" fill-opacity="0.3" stroke="black" stroke-width="1.125"/>
<path d="M42.1458 10.3566L42.2914 9.81322L41.2047 9.52205L41.0591 10.0654L42.1458 10.3566ZM40.5415 11.9972C40.4611 12.2973 40.6392 12.6058 40.9393 12.6862C41.2393 12.7666 41.5478 12.5885 41.6282 12.2884L40.5415 11.9972ZM41.0591 10.0654L40.5415 11.9972L41.6282 12.2884L42.1458 10.3566L41.0591 10.0654Z" fill="black"/>
<path d="M43.9319 1.51764L43.673 2.48356" stroke="black" stroke-width="1.125" stroke-linecap="square"/>
<path d="M45.8637 2.03528L42 1" stroke="black" stroke-width="1.125" stroke-linecap="round"/>
<mask id="mask0_1_4" style="mask-type:alpha" maskUnits="userSpaceOnUse" x="41" y="3" width="4" height="7">
<rect x="42.4483" y="3.19067" width="2" height="6" rx="1" transform="rotate(15 42.4483 3.19067)" fill="white"/>
</mask>
<g mask="url(#mask0_1_4)">
<rect x="37.5083" y="5.33023" width="10" height="4" fill="url(#paint0_linear_1_4)"/>
</g>
<path d="M1.95534 16L4.45134 10.4H5.73134L8.23534 16H6.87534L4.82734 11.056H5.33934L3.28334 16H1.95534ZM3.20334 14.8L3.54734 13.816H6.42734L6.77934 14.8H3.20334ZM10.5373 16.064C10.1319 16.064 9.76661 15.9733 9.44128 15.792C9.11595 15.6053 8.85728 15.3467 8.66528 15.016C8.47861 14.6853 8.38528 14.296 8.38528 13.848C8.38528 13.3947 8.47861 13.0027 8.66528 12.672C8.85728 12.3413 9.11595 12.0853 9.44128 11.904C9.76661 11.7227 10.1319 11.632 10.5373 11.632C10.8999 11.632 11.2173 11.712 11.4893 11.872C11.7613 12.032 11.9719 12.2747 12.1213 12.6C12.2706 12.9253 12.3453 13.3413 12.3453 13.848C12.3453 14.3493 12.2733 14.7653 12.1293 15.096C11.9853 15.4213 11.7773 15.664 11.5053 15.824C11.2386 15.984 10.9159 16.064 10.5373 16.064ZM10.7533 15.04C10.9559 15.04 11.1399 14.992 11.3053 14.896C11.4706 14.8 11.6013 14.664 11.6973 14.488C11.7986 14.3067 11.8493 14.0933 11.8493 13.848C11.8493 13.5973 11.7986 13.384 11.6973 13.208C11.6013 13.032 11.4706 12.896 11.3053 12.8C11.1399 12.704 10.9559 12.656 10.7533 12.656C10.5453 12.656 10.3586 12.704 10.1933 12.8C10.0279 12.896 9.89461 13.032 9.79328 13.208C9.69728 13.384 9.64928 13.5973 9.64928 13.848C9.64928 14.0933 9.69728 14.3067 9.79328 14.488C9.89461 14.664 10.0279 14.8 10.1933 14.896C10.3586 14.992 10.5453 15.04 10.7533 15.04ZM11.8813 16V15.12L11.9053 13.84L11.8253 12.568V10.064H13.0733V16H11.8813ZM14.2283 16V11.696H15.4203V12.912L15.2523 12.56C15.3803 12.256 15.5857 12.0267 15.8683 11.872C16.151 11.712 16.495 11.632 16.9003 11.632V12.784C16.847 12.7787 16.799 12.776 16.7563 12.776C16.7137 12.7707 16.6683 12.768 16.6203 12.768C16.279 12.768 16.0017 12.8667 15.7883 13.064C15.5803 13.256 15.4763 13.5573 15.4763 13.968V16H14.2283ZM19.7472 16.064C19.2565 16.064 18.8245 15.968 18.4512 15.776C18.0832 15.584 17.7978 15.3227 17.5952 14.992C17.3925 14.656 17.2912 14.2747 17.2912 13.848C17.2912 13.416 17.3898 13.0347 17.5872 12.704C17.7898 12.368 18.0645 12.1067 18.4112 11.92C18.7578 11.728 19.1498 11.632 19.5872 11.632C20.0085 11.632 20.3872 11.7227 20.7232 11.904C21.0645 12.08 21.3338 12.336 21.5312 12.672C21.7285 13.0027 21.8272 13.4 21.8272 13.864C21.8272 13.912 21.8245 13.968 21.8192 14.032C21.8138 14.0907 21.8085 14.1467 21.8032 14.2H18.3072V13.472H21.1472L20.6672 13.688C20.6672 13.464 20.6218 13.2693 20.5312 13.104C20.4405 12.9387 20.3152 12.8107 20.1552 12.72C19.9952 12.624 19.8085 12.576 19.5952 12.576C19.3818 12.576 19.1925 12.624 19.0272 12.72C18.8672 12.8107 18.7418 12.9413 18.6512 13.112C18.5605 13.2773 18.5152 13.4747 18.5152 13.704V13.896C18.5152 14.1307 18.5658 14.3387 18.6672 14.52C18.7738 14.696 18.9205 14.832 19.1072 14.928C19.2992 15.0187 19.5232 15.064 19.7792 15.064C20.0085 15.064 20.2085 15.0293 20.3792 14.96C20.5552 14.8907 20.7152 14.7867 20.8592 14.648L21.5232 15.368C21.3258 15.592 21.0778 15.7653 20.7792 15.888C20.4805 16.0053 20.1365 16.064 19.7472 16.064ZM25.274 11.632C25.6154 11.632 25.9194 11.7013 26.186 11.84C26.458 11.9733 26.6714 12.1813 26.826 12.464C26.9807 12.7413 27.058 13.0987 27.058 13.536V16H25.81V13.728C25.81 13.3813 25.7327 13.1253 25.578 12.96C25.4287 12.7947 25.2154 12.712 24.938 12.712C24.7407 12.712 24.562 12.7547 24.402 12.84C24.2474 12.92 24.1247 13.0453 24.034 13.216C23.9487 13.3867 23.906 13.6053 23.906 13.872V16H22.658V11.696H23.85V12.888L23.626 12.528C23.7807 12.24 24.002 12.0187 24.29 11.864C24.578 11.7093 24.906 11.632 25.274 11.632ZM30.8293 16V15.16L30.7493 14.976V13.472C30.7493 13.2053 30.6666 12.9973 30.5013 12.848C30.3413 12.6987 30.0933 12.624 29.7573 12.624C29.5279 12.624 29.3013 12.6613 29.0773 12.736C28.8586 12.8053 28.6719 12.9013 28.5173 13.024L28.0693 12.152C28.3039 11.9867 28.5866 11.8587 28.9173 11.768C29.2479 11.6773 29.5839 11.632 29.9253 11.632C30.5813 11.632 31.0906 11.7867 31.4533 12.096C31.8159 12.4053 31.9973 12.888 31.9973 13.544V16H30.8293ZM29.5173 16.064C29.1813 16.064 28.8933 16.008 28.6533 15.896C28.4133 15.7787 28.2293 15.6213 28.1013 15.424C27.9733 15.2267 27.9093 15.0053 27.9093 14.76C27.9093 14.504 27.9706 14.28 28.0933 14.088C28.2213 13.896 28.4213 13.7467 28.6933 13.64C28.9653 13.528 29.3199 13.472 29.7573 13.472H30.9013V14.2H29.8933C29.5999 14.2 29.3973 14.248 29.2853 14.344C29.1786 14.44 29.1253 14.56 29.1253 14.704C29.1253 14.864 29.1866 14.992 29.3093 15.088C29.4373 15.1787 29.6106 15.224 29.8293 15.224C30.0373 15.224 30.2239 15.176 30.3893 15.08C30.5546 14.9787 30.6746 14.832 30.7493 14.64L30.9413 15.216C30.8506 15.4933 30.6853 15.704 30.4453 15.848C30.2053 15.992 29.8959 16.064 29.5173 16.064ZM33.1268 16V10.064H34.3748V16H33.1268ZM35.533 16V11.696H36.781V16H35.533ZM36.157 11.096C35.9277 11.096 35.741 11.0293 35.597 10.896C35.453 10.7627 35.381 10.5973 35.381 10.4C35.381 10.2027 35.453 10.0373 35.597 9.904C35.741 9.77067 35.9277 9.704 36.157 9.704C36.3864 9.704 36.573 9.768 36.717 9.896C36.861 10.0187 36.933 10.1787 36.933 10.376C36.933 10.584 36.861 10.7573 36.717 10.896C36.5784 11.0293 36.3917 11.096 36.157 11.096ZM40.5553 11.632C40.8966 11.632 41.2006 11.7013 41.4673 11.84C41.7393 11.9733 41.9526 12.1813 42.1073 12.464C42.2619 12.7413 42.3393 13.0987 42.3393 13.536V16H41.0913V13.728C41.0913 13.3813 41.0139 13.1253 40.8593 12.96C40.7099 12.7947 40.4966 12.712 40.2193 12.712C40.0219 12.712 39.8433 12.7547 39.6833 12.84C39.5286 12.92 39.4059 13.0453 39.3153 13.216C39.2299 13.3867 39.1873 13.6053 39.1873 13.872V16H37.9393V11.696H39.1313V12.888L38.9073 12.528C39.0619 12.24 39.2833 12.0187 39.5713 11.864C39.8593 11.7093 40.1873 11.632 40.5553 11.632ZM45.6378 16.064C45.1471 16.064 44.7151 15.968 44.3418 15.776C43.9738 15.584 43.6884 15.3227 43.4858 14.992C43.2831 14.656 43.1818 14.2747 43.1818 13.848C43.1818 13.416 43.2804 13.0347 43.4778 12.704C43.6804 12.368 43.9551 12.1067 44.3018 11.92C44.6484 11.728 45.0404 11.632 45.4778 11.632C45.8991 11.632 46.2778 11.7227 46.6138 11.904C46.9551 12.08 47.2244 12.336 47.4218 12.672C47.6191 13.0027 47.7178 13.4 47.7178 13.864C47.7178 13.912 47.7151 13.968 47.7098 14.032C47.7044 14.0907 47.6991 14.1467 47.6938 14.2H44.1978V13.472H47.0378L46.5578 13.688C46.5578 13.464 46.5124 13.2693 46.4218 13.104C46.3311 12.9387 46.2058 12.8107 46.0458 12.72C45.8858 12.624 45.6991 12.576 45.4858 12.576C45.2724 12.576 45.0831 12.624 44.9178 12.72C44.7578 12.8107 44.6324 12.9413 44.5418 13.112C44.4511 13.2773 44.4058 13.4747 44.4058 13.704V13.896C44.4058 14.1307 44.4564 14.3387 44.5578 14.52C44.6644 14.696 44.8111 14.832 44.9978 14.928C45.1898 15.0187 45.4138 15.064 45.6698 15.064C45.8991 15.064 46.0991 15.0293 46.2698 14.96C46.4458 14.8907 46.6058 14.7867 46.7498 14.648L47.4138 15.368C47.2164 15.592 46.9684 15.7653 46.6698 15.888C46.3711 16.0053 46.0271 16.064 45.6378 16.064Z" fill="url(#paint1_linear_1_4)"/>
<path d="M1.95534 16L1.04196 15.5929C0.904078 15.9023 0.932154 16.2604 1.11656 16.5445C1.30097 16.8286 1.61665 17 1.95534 17V16ZM4.45134 10.4V9.4C4.05654 9.4 3.69869 9.63229 3.53796 9.99289L4.45134 10.4ZM5.73134 10.4L6.64424 9.99181C6.48326 9.63178 6.12572 9.4 5.73134 9.4V10.4ZM8.23534 16V17C8.57425 17 8.89009 16.8283 9.07445 16.544C9.2588 16.2596 9.28658 15.9012 9.14824 15.5918L8.23534 16ZM6.87534 16L5.95147 16.3827C6.10626 16.7564 6.47089 17 6.87534 17V16ZM4.82734 11.056V10.056C4.49336 10.056 4.18142 10.2227 3.99587 10.5004C3.81032 10.7781 3.77565 11.1301 3.90347 11.4387L4.82734 11.056ZM5.33934 11.056L6.26269 11.44C6.39102 11.1314 6.3567 10.779 6.1712 10.501C5.98571 10.223 5.67358 10.056 5.33934 10.056V11.056ZM3.28334 16V17C3.6873 17 4.05158 16.757 4.20669 16.384L3.28334 16ZM3.20334 14.8L2.25937 14.47C2.15244 14.7759 2.20033 15.1146 2.38787 15.3788C2.5754 15.643 2.87933 15.8 3.20334 15.8V14.8ZM3.54734 13.816V12.816C3.12227 12.816 2.74364 13.0847 2.60337 13.486L3.54734 13.816ZM6.42734 13.816L7.36891 13.4792C7.22663 13.0814 6.84977 12.816 6.42734 12.816V13.816ZM6.77934 14.8V15.8C7.10463 15.8 7.40959 15.6418 7.59691 15.3758C7.78422 15.1099 7.83048 14.7695 7.72091 14.4632L6.77934 14.8ZM2.86872 16.4071L5.36472 10.8071L3.53796 9.99289L1.04196 15.5929L2.86872 16.4071ZM4.45134 11.4H5.73134V9.4H4.45134V11.4ZM4.81845 10.8082L7.32245 16.4082L9.14824 15.5918L6.64424 9.99181L4.81845 10.8082ZM8.23534 15H6.87534V17H8.23534V15ZM7.79921 15.6173L5.75122 10.6733L3.90347 11.4387L5.95147 16.3827L7.79921 15.6173ZM4.82734 12.056H5.33934V10.056H4.82734V12.056ZM4.416 10.672L2.36 15.616L4.20669 16.384L6.26269 11.44L4.416 10.672ZM3.28334 15H1.95534V17H3.28334V15ZM4.14732 15.13L4.49132 14.146L2.60337 13.486L2.25937 14.47L4.14732 15.13ZM3.54734 14.816H6.42734V12.816H3.54734V14.816ZM5.48578 14.1528L5.83778 15.1368L7.72091 14.4632L7.36891 13.4792L5.48578 14.1528ZM6.77934 13.8H3.20334V15.8H6.77934V13.8ZM9.44128 15.792L8.94357 16.6594L8.95442 16.6655L9.44128 15.792ZM8.66528 15.016L7.79439 15.5076L7.80049 15.5181L8.66528 15.016ZM8.66528 12.672L7.80043 12.1698L7.79446 12.1804L8.66528 12.672ZM9.44128 11.904L8.95442 11.0305L8.95442 11.0305L9.44128 11.904ZM11.4893 11.872L11.9963 11.0101L11.9963 11.0101L11.4893 11.872ZM12.1213 12.6L13.0301 12.1828L13.0301 12.1828L12.1213 12.6ZM12.1293 15.096L13.0437 15.5008L13.0461 15.4953L12.1293 15.096ZM11.5053 15.824L10.9982 14.962L10.9908 14.9665L11.5053 15.824ZM11.3053 14.896L10.8031 14.0312L10.8031 14.0312L11.3053 14.896ZM11.6973 14.488L10.8243 14.0002L10.8194 14.0091L11.6973 14.488ZM11.6973 13.208L10.8194 13.6869C10.8231 13.6936 10.8268 13.7003 10.8307 13.707L11.6973 13.208ZM11.3053 12.8L10.8031 13.6648L10.8031 13.6648L11.3053 12.8ZM10.1933 12.8L10.6954 13.6648L10.6954 13.6648L10.1933 12.8ZM9.79328 13.208L8.92666 12.709C8.92282 12.7157 8.91907 12.7224 8.91539 12.7291L9.79328 13.208ZM9.79328 14.488L8.90949 14.9559C8.91503 14.9663 8.92075 14.9767 8.92666 14.987L9.79328 14.488ZM10.1933 14.896L10.6954 14.0312L10.6954 14.0312L10.1933 14.896ZM11.8813 16H10.8813C10.8813 16.5523 11.329 17 11.8813 17V16ZM11.8813 15.12L10.8815 15.1013C10.8813 15.1075 10.8813 15.1138 10.8813 15.12L11.8813 15.12ZM11.9053 13.84L12.9051 13.8587C12.9056 13.8316 12.905 13.8044 12.9033 13.7772L11.9053 13.84ZM11.8253 12.568H10.8253C10.8253 12.5889 10.8259 12.6099 10.8273 12.6308L11.8253 12.568ZM11.8253 10.064V9.064C11.273 9.064 10.8253 9.51171 10.8253 10.064H11.8253ZM13.0733 10.064H14.0733C14.0733 9.51171 13.6256 9.064 13.0733 9.064V10.064ZM13.0733 16V17C13.6256 17 14.0733 16.5523 14.0733 16H13.0733ZM10.5373 15.064C10.2869 15.064 10.0917 15.0097 9.92814 14.9185L8.95442 16.6655C9.44155 16.937 9.97698 17.064 10.5373 17.064V15.064ZM9.93895 14.9246C9.76901 14.8271 9.63569 14.6958 9.53007 14.5139L7.80049 15.5181C8.07888 15.9976 8.46289 16.3835 8.94361 16.6594L9.93895 14.9246ZM9.53611 14.5244C9.4482 14.3687 9.38528 14.1549 9.38528 13.848H7.38528C7.38528 14.4371 7.50903 15.002 7.79446 15.5076L9.53611 14.5244ZM9.38528 13.848C9.38528 13.5335 9.44916 13.3176 9.53611 13.1636L7.79446 12.1804C7.50807 12.6877 7.38528 13.2558 7.38528 13.848H9.38528ZM9.53007 13.1741C9.63429 12.9946 9.76421 12.8689 9.92814 12.7775L8.95442 11.0305C8.46769 11.3018 8.08027 11.688 7.80049 12.1699L9.53007 13.1741ZM9.92814 12.7775C10.0917 12.6863 10.2869 12.632 10.5373 12.632V10.632C9.97698 10.632 9.44155 10.759 8.95442 11.0305L9.92814 12.7775ZM10.5373 12.632C10.7487 12.632 10.8857 12.6771 10.9823 12.7339L11.9963 11.0101C11.5489 10.7469 11.0512 10.632 10.5373 10.632V12.632ZM10.9823 12.7339C11.0549 12.7767 11.1365 12.8518 11.2125 13.0172L13.0301 12.1828C12.8074 11.6975 12.4676 11.2873 11.9963 11.0101L10.9823 12.7339ZM11.2125 13.0172C11.2822 13.169 11.3453 13.4297 11.3453 13.848H13.3453C13.3453 13.253 13.2591 12.6816 13.0301 12.1828L11.2125 13.0172ZM11.3453 13.848C11.3453 14.262 11.2846 14.531 11.2124 14.6967L13.0461 15.4953C13.2619 14.9997 13.3453 14.4367 13.3453 13.848H11.3453ZM11.2149 14.6913C11.1443 14.8507 11.0674 14.9214 10.9983 14.9621L12.0123 16.6859C12.4871 16.4066 12.8263 15.9919 13.0437 15.5007L11.2149 14.6913ZM10.9908 14.9665C10.9102 15.0149 10.7741 15.064 10.5373 15.064V17.064C11.0578 17.064 11.567 16.9531 12.0198 16.6815L10.9908 14.9665ZM10.7533 16.04C11.1213 16.04 11.4803 15.9507 11.8074 15.7608L10.8031 14.0312C10.7996 14.0333 10.7906 14.04 10.7533 14.04V16.04ZM11.8074 15.7608C12.1388 15.5684 12.396 15.2953 12.5752 14.9669L10.8194 14.0091C10.8112 14.0241 10.8062 14.0291 10.8062 14.0292C10.8061 14.0293 10.806 14.0293 10.806 14.0294C10.8059 14.0294 10.8059 14.0294 10.8059 14.0294C10.8059 14.0294 10.8059 14.0294 10.8059 14.0294C10.8059 14.0294 10.8059 14.0294 10.8059 14.0294C10.8059 14.0295 10.8057 14.0296 10.8053 14.0299C10.8049 14.0302 10.8042 14.0306 10.8031 14.0312L11.8074 15.7608ZM12.5702 14.9758C12.7688 14.6205 12.8493 14.2331 12.8493 13.848H10.8493C10.8493 13.9536 10.8284 13.9929 10.8243 14.0002L12.5702 14.9758ZM12.8493 13.848C12.8493 13.4629 12.7709 13.0686 12.5639 12.709L10.8307 13.707C10.8263 13.6994 10.8493 13.7318 10.8493 13.848H12.8493ZM12.5752 12.7291C12.396 12.4007 12.1388 12.1276 11.8074 11.9352L10.8031 13.6648C10.8042 13.6654 10.8049 13.6658 10.8053 13.6661C10.8057 13.6664 10.8059 13.6665 10.8059 13.6666C10.8059 13.6666 10.8059 13.6666 10.8059 13.6666C10.8059 13.6666 10.8059 13.6666 10.8059 13.6666C10.8059 13.6666 10.8059 13.6666 10.806 13.6666C10.806 13.6667 10.8061 13.6667 10.8062 13.6668C10.8062 13.6669 10.8112 13.6719 10.8194 13.6869L12.5752 12.7291ZM11.8074 11.9352C11.4803 11.7453 11.1213 11.656 10.7533 11.656V13.656C10.7906 13.656 10.7996 13.6627 10.8031 13.6648L11.8074 11.9352ZM10.7533 11.656C10.3849 11.656 10.0223 11.7429 9.69115 11.9352L10.6954 13.6648C10.6982 13.6632 10.701 13.6619 10.7063 13.6605C10.7121 13.659 10.7267 13.656 10.7533 13.656V11.656ZM9.69115 11.9352C9.3649 12.1246 9.10972 12.3911 8.92666 12.709L10.6599 13.707C10.6795 13.6729 10.691 13.6674 10.6954 13.6648L9.69115 11.9352ZM8.91539 12.7291C8.72162 13.0844 8.64928 13.4712 8.64928 13.848H10.6493C10.6493 13.786 10.6553 13.7446 10.6609 13.7195C10.6637 13.7071 10.6664 13.6988 10.6682 13.6939C10.67 13.689 10.6711 13.6869 10.6712 13.6869L8.91539 12.7291ZM8.64928 13.848C8.64928 14.2247 8.72358 14.6047 8.90949 14.9559L10.6771 14.0201C10.671 14.0086 10.6493 13.962 10.6493 13.848H8.64928ZM8.92666 14.987C9.10972 15.3049 9.3649 15.5714 9.69115 15.7608L10.6954 14.0312C10.691 14.0286 10.6795 14.0231 10.6599 13.989L8.92666 14.987ZM9.69115 15.7608C10.0223 15.9531 10.3849 16.04 10.7533 16.04V14.04C10.7267 14.04 10.7121 14.037 10.7063 14.0355C10.701 14.0341 10.6982 14.0328 10.6954 14.0312L9.69115 15.7608ZM12.8813 16V15.12H10.8813V16H12.8813ZM12.8811 15.1387L12.9051 13.8587L10.9055 13.8213L10.8815 15.1013L12.8811 15.1387ZM12.9033 13.7772L12.8233 12.5052L10.8273 12.6308L10.9073 13.9028L12.9033 13.7772ZM12.8253 12.568V10.064H10.8253V12.568H12.8253ZM11.8253 11.064H13.0733V9.064H11.8253V11.064ZM12.0733 10.064V16H14.0733V10.064H12.0733ZM13.0733 15H11.8813V17H13.0733V15ZM14.2283 16H13.2283C13.2283 16.5523 13.6761 17 14.2283 17V16ZM14.2283 11.696V10.696C13.6761 10.696 13.2283 11.1437 13.2283 11.696H14.2283ZM15.4203 11.696H16.4203C16.4203 11.1437 15.9726 10.696 15.4203 10.696V11.696ZM15.4203 12.912L14.5179 13.3427C14.7191 13.7644 15.1855 13.9905 15.6412 13.8873C16.0968 13.7841 16.4203 13.3792 16.4203 12.912H15.4203ZM15.2523 12.56L14.3307 12.1719C14.2199 12.4351 14.2269 12.7331 14.3499 12.9907L15.2523 12.56ZM15.8683 11.872L16.3484 12.7493C16.3526 12.747 16.3568 12.7446 16.3609 12.7423L15.8683 11.872ZM16.9003 11.632H17.9003C17.9003 11.0797 17.4526 10.632 16.9003 10.632V11.632ZM16.9003 12.784L16.8008 13.779C17.082 13.8072 17.3619 13.715 17.5713 13.5255C17.7808 13.3359 17.9003 13.0665 17.9003 12.784H16.9003ZM16.7563 12.776L16.6323 13.7683C16.6735 13.7734 16.7149 13.776 16.7563 13.776V12.776ZM15.7883 13.064L16.4666 13.7988L16.4674 13.7981L15.7883 13.064ZM15.4763 16V17C16.0286 17 16.4763 16.5523 16.4763 16H15.4763ZM15.2283 16V11.696H13.2283V16H15.2283ZM14.2283 12.696H15.4203V10.696H14.2283V12.696ZM14.4203 11.696V12.912H16.4203V11.696H14.4203ZM16.3228 12.4813L16.1548 12.1293L14.3499 12.9907L14.5179 13.3427L16.3228 12.4813ZM16.174 12.9481C16.2165 12.847 16.269 12.7927 16.3484 12.7493L15.3883 10.9947C14.9024 11.2606 14.5442 11.665 14.3307 12.1719L16.174 12.9481ZM16.3609 12.7423C16.4604 12.6859 16.6254 12.632 16.9003 12.632V10.632C16.3646 10.632 15.8416 10.7381 15.3757 11.0017L16.3609 12.7423ZM15.9003 11.632V12.784H17.9003V11.632H15.9003ZM16.9998 11.789C16.9214 11.7811 16.8394 11.776 16.7563 11.776V13.776C16.7586 13.776 16.7726 13.7762 16.8008 13.779L16.9998 11.789ZM16.8804 11.7837C16.7922 11.7727 16.7051 11.768 16.6203 11.768V13.768C16.6316 13.768 16.6352 13.7686 16.6323 13.7683L16.8804 11.7837ZM16.6203 11.768C16.0741 11.768 15.5391 11.9323 15.1093 12.3299L16.4674 13.7981C16.4734 13.7926 16.4787 13.7887 16.4915 13.7842C16.5069 13.7787 16.546 13.768 16.6203 13.768V11.768ZM15.1101 12.3292C14.619 12.7825 14.4763 13.4058 14.4763 13.968H16.4763C16.4763 13.8433 16.4926 13.7807 16.4996 13.7602C16.5046 13.7458 16.4986 13.7693 16.4666 13.7988L15.1101 12.3292ZM14.4763 13.968V16H16.4763V13.968H14.4763ZM15.4763 15H14.2283V17H15.4763V15ZM18.4512 15.776L17.9886 16.6626L17.9938 16.6653L18.4512 15.776ZM17.5952 14.992L16.7388 15.5085L16.7426 15.5146L17.5952 14.992ZM17.5872 12.704L16.7309 12.1875L16.7284 12.1915L17.5872 12.704ZM18.4112 11.92L18.8853 12.8005L18.8957 12.7948L18.4112 11.92ZM20.7232 11.904L20.2482 12.784C20.2537 12.787 20.2593 12.7899 20.2649 12.7928L20.7232 11.904ZM21.5312 12.672L20.6688 13.1784L20.6724 13.1845L21.5312 12.672ZM21.8192 14.032L22.8151 14.1225L22.8157 14.115L21.8192 14.032ZM21.8032 14.2V15.2C22.3169 15.2 22.7471 14.8107 22.7982 14.2995L21.8032 14.2ZM18.3072 14.2H17.3072C17.3072 14.7523 17.7549 15.2 18.3072 15.2V14.2ZM18.3072 13.472V12.472C17.7549 12.472 17.3072 12.9197 17.3072 13.472H18.3072ZM21.1472 13.472L21.5575 14.3839C21.9874 14.1905 22.2238 13.7231 22.1249 13.2621C22.026 12.8012 21.6186 12.472 21.1472 12.472V13.472ZM20.6672 13.688H19.6672C19.6672 14.0273 19.8392 14.3435 20.1242 14.5278C20.4091 14.712 20.7681 14.7392 21.0775 14.5999L20.6672 13.688ZM20.5312 13.104L19.6543 13.5848L19.6543 13.5848L20.5312 13.104ZM20.1552 12.72L19.6407 13.5775C19.6478 13.5818 19.6549 13.5859 19.6621 13.59L20.1552 12.72ZM19.0272 12.72L19.5202 13.5901L19.5293 13.5848L19.0272 12.72ZM18.6512 13.112L19.528 13.5929L19.5343 13.5812L18.6512 13.112ZM18.6672 14.52L17.7942 15.0078C17.7999 15.0181 17.8059 15.0282 17.812 15.0383L18.6672 14.52ZM19.1072 14.928L18.6498 15.8173C18.6598 15.8224 18.67 15.8274 18.6802 15.8322L19.1072 14.928ZM20.3792 14.96L20.0126 14.0295L20.0028 14.0335L20.3792 14.96ZM20.8592 14.648L21.5943 13.9701C21.4119 13.7723 21.1576 13.6564 20.8888 13.6484C20.62 13.6405 20.3592 13.7411 20.1655 13.9277L20.8592 14.648ZM21.5232 15.368L22.2735 16.029C22.6121 15.6447 22.6055 15.0666 22.2583 14.6901L21.5232 15.368ZM20.7792 15.888L21.1448 16.8188C21.1496 16.8169 21.1543 16.815 21.1591 16.813L20.7792 15.888ZM19.7472 15.064C19.3887 15.064 19.1183 14.9946 18.9085 14.8867L17.9938 16.6653C18.5307 16.9414 19.1242 17.064 19.7472 17.064V15.064ZM18.9137 14.8894C18.6946 14.7751 18.5491 14.6348 18.4478 14.4694L16.7426 15.5146C17.0465 16.0105 17.4717 16.3929 17.9886 16.6626L18.9137 14.8894ZM18.4514 14.4755C18.3509 14.3089 18.2912 14.1091 18.2912 13.848H16.2912C16.2912 14.4403 16.434 15.0031 16.7389 15.5085L18.4514 14.4755ZM18.2912 13.848C18.2912 13.5739 18.3519 13.3739 18.4459 13.2165L16.7284 12.1915C16.4277 12.6954 16.2912 13.2581 16.2912 13.848H18.2912ZM18.4434 13.2205C18.5533 13.0384 18.6957 12.9025 18.8853 12.8005L17.9371 11.0395C17.4333 11.3108 17.0264 11.6976 16.7309 12.1875L18.4434 13.2205ZM18.8957 12.7948C19.0791 12.6932 19.3014 12.632 19.5872 12.632V10.632C18.9983 10.632 18.4366 10.7628 17.9267 11.0452L18.8957 12.7948ZM19.5872 12.632C19.8602 12.632 20.0728 12.6894 20.2482 12.784L21.1981 11.024C20.7015 10.756 20.1568 10.632 19.5872 10.632V12.632ZM20.2649 12.7928C20.4355 12.8808 20.5658 13.003 20.6689 13.1784L22.3934 12.1656C22.1018 11.669 21.6935 11.2792 21.1814 11.0152L20.2649 12.7928ZM20.6724 13.1845C20.76 13.3312 20.8272 13.5434 20.8272 13.864H22.8272C22.8272 13.2566 22.697 12.6742 22.3899 12.1595L20.6724 13.1845ZM20.8272 13.864C20.8272 13.8768 20.8264 13.904 20.8226 13.949L22.8157 14.115C22.8226 14.032 22.8272 13.9472 22.8272 13.864H20.8272ZM20.8233 13.9415C20.8182 13.9974 20.8131 14.0504 20.8081 14.1005L22.7982 14.2995C22.8039 14.2429 22.8095 14.1839 22.815 14.1225L20.8233 13.9415ZM21.8032 13.2H18.3072V15.2H21.8032V13.2ZM19.3072 14.2V13.472H17.3072V14.2H19.3072ZM18.3072 14.472H21.1472V12.472H18.3072V14.472ZM20.7368 12.5601L20.2568 12.7761L21.0775 14.5999L21.5575 14.3839L20.7368 12.5601ZM21.6672 13.688C21.6672 13.3275 21.5934 12.9613 21.408 12.6232L19.6543 13.5848C19.6533 13.583 19.656 13.5869 19.6592 13.6008C19.6626 13.6155 19.6672 13.6433 19.6672 13.688H21.6672ZM21.408 12.6232C21.2304 12.2993 20.974 12.0346 20.6482 11.85L19.6621 13.59C19.6629 13.5905 19.6622 13.5901 19.6604 13.5887C19.6586 13.5873 19.6566 13.5856 19.6546 13.5836C19.6527 13.5817 19.6517 13.5803 19.6514 13.5799C19.6512 13.5796 19.6523 13.5811 19.6543 13.5848L21.408 12.6232ZM20.6697 11.8625C20.333 11.6605 19.9633 11.576 19.5952 11.576V13.576C19.6267 13.576 19.6423 13.5795 19.6461 13.5805C19.6492 13.5813 19.646 13.5807 19.6407 13.5775L20.6697 11.8625ZM19.5952 11.576C19.2264 11.576 18.86 11.6607 18.525 11.8552L19.5293 13.5848C19.53 13.5844 19.5322 13.583 19.5389 13.5813C19.5462 13.5795 19.5638 13.576 19.5952 13.576V11.576ZM18.5341 11.85C18.2 12.0393 17.9432 12.3131 17.768 12.6428L19.5343 13.5812C19.5356 13.5786 19.5367 13.5769 19.5373 13.5757C19.538 13.5746 19.5384 13.5741 19.5384 13.5741C19.5384 13.5741 19.5381 13.5745 19.5375 13.5753C19.5369 13.576 19.536 13.577 19.5348 13.5782C19.5325 13.5807 19.5296 13.5833 19.5266 13.5856C19.5235 13.588 19.5212 13.5894 19.5202 13.59L18.5341 11.85ZM17.7743 12.6312C17.5871 12.9726 17.5152 13.3427 17.5152 13.704H19.5152C19.5152 13.6067 19.5339 13.5821 19.528 13.5928L17.7743 12.6312ZM17.5152 13.704V13.896H19.5152V13.704H17.5152ZM17.5152 13.896C17.5152 14.2789 17.5992 14.6589 17.7942 15.0078L19.5401 14.0322C19.5324 14.0184 19.5152 13.9824 19.5152 13.896H17.5152ZM17.812 15.0383C18.0164 15.3756 18.3022 15.6385 18.6498 15.8173L19.5645 14.0387C19.5387 14.0255 19.5312 14.0164 19.5224 14.0017L17.812 15.0383ZM18.6802 15.8322C19.0303 15.9976 19.4054 16.064 19.7792 16.064V14.064C19.6409 14.064 19.568 14.0397 19.5342 14.0238L18.6802 15.8322ZM19.7792 16.064C20.107 16.064 20.44 16.0147 20.7555 15.8865L20.0028 14.0335C19.977 14.044 19.91 14.064 19.7792 14.064V16.064ZM20.7457 15.8904C21.0502 15.7704 21.32 15.5925 21.5528 15.3683L20.1655 13.9277C20.1103 13.9808 20.0601 14.0109 20.0126 14.0296L20.7457 15.8904ZM20.124 15.3259L20.788 16.0459L22.2583 14.6901L21.5943 13.9701L20.124 15.3259ZM20.7728 14.707C20.6851 14.8065 20.5676 14.8938 20.3992 14.963L21.1591 16.813C21.588 16.6368 21.9665 16.3775 22.2735 16.029L20.7728 14.707ZM20.4135 14.9572C20.2533 15.0202 20.0373 15.064 19.7472 15.064V17.064C20.2357 17.064 20.7077 16.9905 21.1448 16.8188L20.4135 14.9572ZM26.186 11.84L25.7247 12.7272C25.7317 12.7309 25.7388 12.7344 25.7459 12.7379L26.186 11.84ZM26.826 12.464L25.9487 12.944L25.9527 12.9511L26.826 12.464ZM27.058 16V17C27.6103 17 28.058 16.5523 28.058 16H27.058ZM25.81 16H24.81C24.81 16.5523 25.2577 17 25.81 17V16ZM25.578 12.96L24.8359 13.6303C24.8398 13.6346 24.8438 13.6389 24.8478 13.6432L25.578 12.96ZM24.402 12.84L24.8615 13.7283L24.8726 13.7224L24.402 12.84ZM24.034 13.216L23.1509 12.7468C23.1471 12.7541 23.1433 12.7614 23.1396 12.7688L24.034 13.216ZM23.906 16V17C24.4583 17 24.906 16.5523 24.906 16H23.906ZM22.658 16H21.658C21.658 16.5523 22.1057 17 22.658 17V16ZM22.658 11.696V10.696C22.1057 10.696 21.658 11.1437 21.658 11.696H22.658ZM23.85 11.696H24.85C24.85 11.1437 24.4023 10.696 23.85 10.696V11.696ZM23.85 12.888L23.001 13.4163C23.2369 13.7954 23.6955 13.9722 24.1248 13.8495C24.5541 13.7269 24.85 13.3345 24.85 12.888H23.85ZM23.626 12.528L22.745 12.0549C22.5756 12.3703 22.5878 12.7523 22.777 13.0563L23.626 12.528ZM24.29 11.864L24.7632 12.745L24.7632 12.745L24.29 11.864ZM25.274 12.632C25.4767 12.632 25.6188 12.6722 25.7247 12.7272L26.6474 10.9528C26.2199 10.7305 25.754 10.632 25.274 10.632V12.632ZM25.7459 12.7379C25.8204 12.7745 25.8865 12.8302 25.9488 12.944L27.7033 11.984C27.4562 11.5324 27.0956 11.1722 26.6262 10.9421L25.7459 12.7379ZM25.9527 12.9511C25.9988 13.0338 26.058 13.2079 26.058 13.536H28.058C28.058 12.9895 27.9626 12.4488 27.6994 11.9769L25.9527 12.9511ZM26.058 13.536V16H28.058V13.536H26.058ZM27.058 15H25.81V17H27.058V15ZM26.81 16V13.728H24.81V16H26.81ZM26.81 13.728C26.81 13.2584 26.7087 12.7048 26.3083 12.2768L24.8478 13.6432C24.8028 13.5951 24.7925 13.5577 24.7948 13.5652C24.7981 13.5764 24.81 13.6253 24.81 13.728H26.81ZM26.3201 12.2897C25.9364 11.8649 25.4238 11.712 24.938 11.712V13.712C24.9786 13.712 24.9749 13.7181 24.9447 13.7064C24.9294 13.7005 24.9102 13.6911 24.8896 13.677C24.8688 13.6628 24.8507 13.6467 24.8359 13.6303L26.3201 12.2897ZM24.938 11.712C24.5914 11.712 24.2488 11.7884 23.9314 11.9576L24.8726 13.7224C24.8753 13.7209 24.89 13.712 24.938 13.712V11.712ZM23.9426 11.9518C23.5878 12.1353 23.326 12.4172 23.1509 12.7468L24.9171 13.6852C24.9222 13.6757 24.9207 13.6812 24.9087 13.6935C24.8961 13.7064 24.8794 13.7189 24.8615 13.7282L23.9426 11.9518ZM23.1396 12.7688C22.9629 13.1223 22.906 13.5081 22.906 13.872H24.906C24.906 13.7026 24.9345 13.6511 24.9285 13.6632L23.1396 12.7688ZM22.906 13.872V16H24.906V13.872H22.906ZM23.906 15H22.658V17H23.906V15ZM23.658 16V11.696H21.658V16H23.658ZM22.658 12.696H23.85V10.696H22.658V12.696ZM22.85 11.696V12.888H24.85V11.696H22.85ZM24.6991 12.3597L24.4751 11.9997L22.777 13.0563L23.001 13.4163L24.6991 12.3597ZM24.507 13.0011C24.5687 12.8862 24.6482 12.8067 24.7632 12.745L23.8169 10.983C23.3558 11.2306 22.9926 11.5938 22.745 12.0549L24.507 13.0011ZM24.7632 12.745C24.8882 12.6778 25.0501 12.632 25.274 12.632V10.632C24.762 10.632 24.2679 10.7408 23.8169 10.983L24.7632 12.745ZM30.8293 16H29.8293C29.8293 16.5523 30.277 17 30.8293 17V16ZM30.8293 15.16H31.8293C31.8293 15.0228 31.8011 14.8871 31.7464 14.7613L30.8293 15.16ZM30.7493 14.976H29.7493C29.7493 15.1132 29.7775 15.2489 29.8322 15.3747L30.7493 14.976ZM30.5013 12.848L29.819 13.5791C29.8229 13.5828 29.827 13.5865 29.831 13.5901L30.5013 12.848ZM29.0773 12.736L29.3795 13.6892C29.3842 13.6877 29.3889 13.6862 29.3935 13.6847L29.0773 12.736ZM28.5173 13.024L27.6278 13.481C27.7646 13.7472 28.0135 13.9382 28.306 14.0014C28.5986 14.0647 28.9041 13.9935 29.1387 13.8075L28.5173 13.024ZM28.0693 12.152L27.4933 11.3345C27.0857 11.6217 26.9519 12.1654 27.1798 12.609L28.0693 12.152ZM28.9173 11.768L28.6528 10.8036L28.6528 10.8036L28.9173 11.768ZM31.4533 12.096L32.1022 11.3352L32.1022 11.3352L31.4533 12.096ZM31.9973 16V17C32.5496 17 32.9973 16.5523 32.9973 16H31.9973ZM28.6533 15.896L28.2141 16.7944C28.2195 16.797 28.2249 16.7996 28.2304 16.8022L28.6533 15.896ZM28.1013 15.424L28.9402 14.8798L28.9402 14.8798L28.1013 15.424ZM28.0933 14.088L27.2612 13.5333C27.2576 13.5387 27.2541 13.5441 27.2506 13.5496L28.0933 14.088ZM28.6933 13.64L29.0584 14.571C29.0636 14.5689 29.0688 14.5668 29.074 14.5647L28.6933 13.64ZM30.9013 13.472H31.9013C31.9013 12.9197 31.4536 12.472 30.9013 12.472V13.472ZM30.9013 14.2V15.2C31.4536 15.2 31.9013 14.7523 31.9013 14.2H30.9013ZM29.2853 14.344L28.6345 13.5847C28.6284 13.59 28.6223 13.5953 28.6163 13.6007L29.2853 14.344ZM29.3093 15.088L28.693 15.8755C28.7055 15.8853 28.7183 15.8948 28.7313 15.904L29.3093 15.088ZM30.3893 15.08L30.8914 15.9448C30.8983 15.9408 30.9051 15.9367 30.9118 15.9326L30.3893 15.08ZM30.7493 14.64L31.698 14.3238C31.5647 13.924 31.1951 13.6507 30.7738 13.6403C30.3526 13.6299 29.97 13.8848 29.8173 14.2776L30.7493 14.64ZM30.9413 15.216L31.8918 15.5267C31.9584 15.323 31.9578 15.1032 31.89 14.8998L30.9413 15.216ZM30.4453 15.848L29.9308 14.9905L29.9308 14.9905L30.4453 15.848ZM31.8293 16V15.16H29.8293V16H31.8293ZM31.7464 14.7613L31.6664 14.5773L29.8322 15.3747L29.9122 15.5587L31.7464 14.7613ZM31.7493 14.976V13.472H29.7493V14.976H31.7493ZM31.7493 13.472C31.7493 12.9831 31.588 12.482 31.1716 12.1059L29.831 13.5901C29.8169 13.5774 29.802 13.5609 29.7883 13.5412C29.7745 13.5214 29.7646 13.5021 29.758 13.4853C29.7446 13.4516 29.7493 13.4415 29.7493 13.472H31.7493ZM31.1836 12.1169C30.7607 11.7222 30.2152 11.624 29.7573 11.624V13.624C29.8047 13.624 29.8404 13.6267 29.866 13.6299C29.8915 13.6332 29.9043 13.6367 29.907 13.6375C29.9108 13.6387 29.87 13.6267 29.819 13.5791L31.1836 12.1169ZM29.7573 11.624C29.4173 11.624 29.084 11.6797 28.7611 11.7873L29.3935 13.6847C29.5186 13.643 29.6386 13.624 29.7573 13.624V11.624ZM28.775 11.7828C28.459 11.883 28.1598 12.0312 27.8959 12.2405L29.1387 13.8075C29.1841 13.7715 29.2582 13.7277 29.3795 13.6892L28.775 11.7828ZM29.4068 12.567L28.9588 11.695L27.1798 12.609L27.6278 13.481L29.4068 12.567ZM28.6452 12.9695C28.769 12.8823 28.9415 12.7983 29.1817 12.7324L28.6528 10.8036C28.2317 10.9191 27.8389 11.091 27.4933 11.3345L28.6452 12.9695ZM29.1817 12.7324C29.4266 12.6653 29.6737 12.632 29.9253 12.632V10.632C29.4942 10.632 29.0693 10.6894 28.6528 10.8036L29.1817 12.7324ZM29.9253 12.632C30.4327 12.632 30.6806 12.7513 30.8043 12.8568L32.1022 11.3352C31.5006 10.822 30.7298 10.632 29.9253 10.632V12.632ZM30.8043 12.8568C30.8693 12.9122 30.9973 13.0653 30.9973 13.544H32.9973C32.9973 12.7107 32.7626 11.8984 32.1022 11.3352L30.8043 12.8568ZM30.9973 13.544V16H32.9973V13.544H30.9973ZM31.9973 15H30.8293V17H31.9973V15ZM29.5173 15.064C29.2894 15.064 29.1532 15.0258 29.0762 14.9898L28.2304 16.8022C28.6334 16.9902 29.0731 17.064 29.5173 17.064V15.064ZM29.0925 14.9976C28.9928 14.9489 28.9567 14.9052 28.9402 14.8798L27.2623 15.9682C27.5018 16.3374 27.8338 16.6085 28.2141 16.7944L29.0925 14.9976ZM28.9402 14.8798C28.922 14.8517 28.9093 14.8209 28.9093 14.76H26.9093C26.9093 15.1897 27.0245 15.6016 27.2623 15.9682L28.9402 14.8798ZM28.9093 14.76C28.9093 14.6705 28.9284 14.6383 28.936 14.6264L27.2506 13.5496C27.0129 13.9217 26.9093 14.3375 26.9093 14.76H28.9093ZM28.9253 14.6427C28.9211 14.6491 28.9215 14.6453 28.9376 14.6333C28.955 14.6202 28.9918 14.5971 29.0584 14.571L28.3282 12.709C27.9165 12.8705 27.5296 13.1307 27.2612 13.5333L28.9253 14.6427ZM29.074 14.5647C29.1814 14.5205 29.3928 14.472 29.7573 14.472V12.472C29.2471 12.472 28.7492 12.5355 28.3125 12.7153L29.074 14.5647ZM29.7573 14.472H30.9013V12.472H29.7573V14.472ZM29.9013 13.472V14.2H31.9013V13.472H29.9013ZM30.9013 13.2H29.8933V15.2H30.9013V13.2ZM29.8933 13.2C29.5624 13.2 29.0372 13.2395 28.6345 13.5847L29.9361 15.1033C29.8822 15.1494 29.8337 15.176 29.8024 15.1903C29.7715 15.2045 29.7525 15.2089 29.7517 15.2091C29.7507 15.2093 29.7613 15.2068 29.7866 15.2043C29.8116 15.2019 29.8467 15.2 29.8933 15.2V13.2ZM28.6163 13.6007C28.2981 13.8871 28.1253 14.2776 28.1253 14.704H30.1253C30.1253 14.7583 30.1145 14.8324 30.0791 14.9121C30.0436 14.992 29.9955 15.0502 29.9542 15.0873L28.6163 13.6007ZM28.1253 14.704C28.1253 15.1618 28.3205 15.584 28.693 15.8755L29.9256 14.3005C29.9735 14.338 30.0309 14.3999 30.0731 14.4879C30.1149 14.575 30.1253 14.6536 30.1253 14.704H28.1253ZM28.7313 15.904C29.0831 16.1532 29.4828 16.224 29.8293 16.224V14.224C29.7873 14.224 29.7766 14.2195 29.7883 14.2225C29.8018 14.2261 29.84 14.2385 29.8873 14.272L28.7313 15.904ZM29.8293 16.224C30.1977 16.224 30.5603 16.1371 30.8914 15.9448L29.8871 14.2152C29.8843 14.2168 29.8816 14.2181 29.8762 14.2195C29.8704 14.221 29.8559 14.224 29.8293 14.224V16.224ZM30.9118 15.9326C31.2756 15.7097 31.5327 15.3846 31.6813 15.0024L29.8173 14.2776C29.8148 14.284 29.8172 14.2756 29.8293 14.2608C29.8419 14.2454 29.8562 14.2339 29.8667 14.2274L30.9118 15.9326ZM29.8006 14.9562L29.9926 15.5322L31.89 14.8998L31.698 14.3238L29.8006 14.9562ZM29.9908 14.9053C29.9714 14.9644 29.955 14.976 29.9308 14.9905L30.9598 16.7055C31.4156 16.432 31.7298 16.0222 31.8918 15.5267L29.9908 14.9053ZM29.9308 14.9905C29.8918 15.0139 29.7764 15.064 29.5173 15.064V17.064C30.0155 17.064 30.5188 16.9701 30.9598 16.7055L29.9308 14.9905ZM33.1268 16H32.1268C32.1268 16.5523 32.5745 17 33.1268 17V16ZM33.1268 10.064V9.064C32.5745 9.064 32.1268 9.51171 32.1268 10.064H33.1268ZM34.3748 10.064H35.3748C35.3748 9.51171 34.9271 9.064 34.3748 9.064V10.064ZM34.3748 16V17C34.9271 17 35.3748 16.5523 35.3748 16H34.3748ZM34.1268 16V10.064H32.1268V16H34.1268ZM33.1268 11.064H34.3748V9.064H33.1268V11.064ZM33.3748 10.064V16H35.3748V10.064H33.3748ZM34.3748 15H33.1268V17H34.3748V15ZM35.533 16H34.533C34.533 16.5523 34.9807 17 35.533 17V16ZM35.533 11.696V10.696C34.9807 10.696 34.533 11.1437 34.533 11.696H35.533ZM36.781 11.696H37.781C37.781 11.1437 37.3333 10.696 36.781 10.696V11.696ZM36.781 16V17C37.3333 17 37.781 16.5523 37.781 16H36.781ZM35.597 10.896L34.9176 11.6298L34.9176 11.6298L35.597 10.896ZM35.597 9.904L36.2764 10.6378L36.2764 10.6378L35.597 9.904ZM36.717 9.896L36.0527 10.6434C36.0579 10.6481 36.0632 10.6527 36.0686 10.6572L36.717 9.896ZM36.717 10.896L37.4101 11.6168L37.4107 11.6163L36.717 10.896ZM36.533 16V11.696H34.533V16H36.533ZM35.533 12.696H36.781V10.696H35.533V12.696ZM35.781 11.696V16H37.781V11.696H35.781ZM36.781 15H35.533V17H36.781V15ZM36.157 10.096C36.1393 10.096 36.1513 10.0935 36.1814 10.1043C36.214 10.1159 36.2483 10.1362 36.2764 10.1622L34.9176 11.6298C35.2772 11.9627 35.7211 12.096 36.157 12.096V10.096ZM36.2764 10.1622C36.2968 10.1811 36.328 10.2179 36.3519 10.2727C36.3757 10.3275 36.381 10.3743 36.381 10.4H34.381C34.381 10.8741 34.5679 11.306 34.9176 11.6298L36.2764 10.1622ZM36.381 10.4C36.381 10.4257 36.3757 10.4725 36.3519 10.5273C36.328 10.5821 36.2968 10.6189 36.2764 10.6378L34.9176 9.17024C34.5679 9.49402 34.381 9.92586 34.381 10.4H36.381ZM36.2764 10.6378C36.2483 10.6638 36.214 10.6841 36.1814 10.6957C36.1513 10.7065 36.1393 10.704 36.157 10.704V8.704C35.7211 8.704 35.2772 8.83727 34.9176 9.17024L36.2764 10.6378ZM36.157 10.704C36.1789 10.704 36.1711 10.707 36.1447 10.6979C36.1158 10.688 36.0822 10.6696 36.0527 10.6434L37.3814 9.14859C37.0207 8.82795 36.5821 8.704 36.157 8.704V10.704ZM36.0686 10.6572C36.0368 10.6302 35.9965 10.5837 35.9671 10.5184C35.9382 10.4541 35.933 10.4011 35.933 10.376H37.933C37.933 9.90016 37.7433 9.45662 37.3655 9.13476L36.0686 10.6572ZM35.933 10.376C35.933 10.3626 35.9358 10.3258 35.9555 10.2784C35.9756 10.2301 36.003 10.1953 36.0234 10.1757L37.4107 11.6163C37.7591 11.2808 37.933 10.8434 37.933 10.376H35.933ZM36.0239 10.1752C36.0597 10.1408 36.101 10.117 36.1367 10.1043C36.1691 10.0927 36.1803 10.096 36.157 10.096V12.096C36.59 12.096 37.0459 11.967 37.4101 11.6168L36.0239 10.1752ZM41.4673 11.84L41.0059 12.7272C41.013 12.7309 41.02 12.7344 41.0271 12.7379L41.4673 11.84ZM42.1073 12.464L41.23 12.944L41.2339 12.9511L42.1073 12.464ZM42.3393 16V17C42.8916 17 43.3393 16.5523 43.3393 16H42.3393ZM41.0913 16H40.0913C40.0913 16.5523 40.539 17 41.0913 17V16ZM40.8593 12.96L40.1172 13.6303C40.1211 13.6346 40.125 13.6389 40.129 13.6432L40.8593 12.96ZM39.6833 12.84L40.1427 13.7283L40.1539 13.7224L39.6833 12.84ZM39.3153 13.216L38.4322 12.7468C38.4283 12.7541 38.4245 12.7614 38.4209 12.7688L39.3153 13.216ZM39.1873 16V17C39.7396 17 40.1873 16.5523 40.1873 16H39.1873ZM37.9393 16H36.9393C36.9393 16.5523 37.387 17 37.9393 17V16ZM37.9393 11.696V10.696C37.387 10.696 36.9393 11.1437 36.9393 11.696H37.9393ZM39.1313 11.696H40.1313C40.1313 11.1437 39.6836 10.696 39.1313 10.696V11.696ZM39.1313 12.888L38.2822 13.4163C38.5181 13.7954 38.9767 13.9722 39.406 13.8495C39.8353 13.7269 40.1313 13.3345 40.1313 12.888H39.1313ZM38.9073 12.528L38.0263 12.0549C37.8569 12.3703 37.8691 12.7523 38.0582 13.0563L38.9073 12.528ZM39.5713 11.864L40.0444 12.745L40.0444 12.745L39.5713 11.864ZM40.5553 12.632C40.758 12.632 40.9001 12.6722 41.0059 12.7272L41.9286 10.9528C41.5012 10.7305 41.0352 10.632 40.5553 10.632V12.632ZM41.0271 12.7379C41.1017 12.7745 41.1678 12.8302 41.23 12.944L42.9845 11.984C42.7375 11.5324 42.3769 11.1722 41.9074 10.9421L41.0271 12.7379ZM41.2339 12.9511C41.2801 13.0338 41.3393 13.2079 41.3393 13.536H43.3393C43.3393 12.9895 43.2438 12.4488 42.9806 11.9769L41.2339 12.9511ZM41.3393 13.536V16H43.3393V13.536H41.3393ZM42.3393 15H41.0913V17H42.3393V15ZM42.0913 16V13.728H40.0913V16H42.0913ZM42.0913 13.728C42.0913 13.2584 41.9899 12.7048 41.5896 12.2768L40.129 13.6432C40.084 13.5951 40.0738 13.5577 40.076 13.5652C40.0794 13.5764 40.0913 13.6253 40.0913 13.728H42.0913ZM41.6014 12.2897C41.2177 11.8649 40.705 11.712 40.2193 11.712V13.712C40.2599 13.712 40.2561 13.7181 40.226 13.7064C40.2107 13.7005 40.1914 13.6911 40.1708 13.677C40.1501 13.6628 40.132 13.6467 40.1172 13.6303L41.6014 12.2897ZM40.2193 11.712C39.8726 11.712 39.5301 11.7884 39.2127 11.9576L40.1539 13.7224C40.1565 13.7209 40.1713 13.712 40.2193 13.712V11.712ZM39.2239 11.9518C38.869 12.1353 38.6073 12.4172 38.4322 12.7468L40.1984 13.6852C40.2034 13.6757 40.2019 13.6812 40.19 13.6935C40.1773 13.7064 40.1606 13.7189 40.1427 13.7282L39.2239 11.9518ZM38.4209 12.7688C38.2441 13.1223 38.1873 13.5081 38.1873 13.872H40.1873C40.1873 13.7026 40.2158 13.6511 40.2097 13.6632L38.4209 12.7688ZM38.1873 13.872V16H40.1873V13.872H38.1873ZM39.1873 15H37.9393V17H39.1873V15ZM38.9393 16V11.696H36.9393V16H38.9393ZM37.9393 12.696H39.1313V10.696H37.9393V12.696ZM38.1313 11.696V12.888H40.1313V11.696H38.1313ZM39.9803 12.3597L39.7563 11.9997L38.0582 13.0563L38.2822 13.4163L39.9803 12.3597ZM39.7883 13.0011C39.85 12.8862 39.9295 12.8067 40.0444 12.745L39.0982 10.983C38.6371 11.2306 38.2739 11.5938 38.0263 12.0549L39.7883 13.0011ZM40.0444 12.745C40.1695 12.6778 40.3313 12.632 40.5553 12.632V10.632C40.0432 10.632 39.5491 10.7408 39.0982 10.983L40.0444 12.745ZM44.3418 15.776L43.8792 16.6626L43.8844 16.6653L44.3418 15.776ZM43.4858 14.992L42.6295 15.5085L42.6332 15.5146L43.4858 14.992ZM43.4778 12.704L42.6215 12.1875L42.6191 12.1915L43.4778 12.704ZM44.3018 11.92L44.7759 12.8005L44.7863 12.7948L44.3018 11.92ZM46.6138 11.904L46.1388 12.784C46.1444 12.787 46.1499 12.7899 46.1555 12.7928L46.6138 11.904ZM47.4218 12.672L46.5595 13.1784L46.5631 13.1845L47.4218 12.672ZM47.7098 14.032L48.7057 14.1225L48.7063 14.115L47.7098 14.032ZM47.6938 14.2V15.2C48.2075 15.2 48.6377 14.8107 48.6888 14.2995L47.6938 14.2ZM44.1978 14.2H43.1978C43.1978 14.7523 43.6455 15.2 44.1978 15.2V14.2ZM44.1978 13.472V12.472C43.6455 12.472 43.1978 12.9197 43.1978 13.472H44.1978ZM47.0378 13.472L47.4481 14.3839C47.878 14.1905 48.1144 13.7231 48.0155 13.2621C47.9166 12.8012 47.5092 12.472 47.0378 12.472V13.472ZM46.5578 13.688H45.5578C45.5578 14.0273 45.7299 14.3435 46.0148 14.5278C46.2998 14.712 46.6587 14.7392 46.9681 14.5999L46.5578 13.688ZM46.4218 13.104L45.545 13.5848L45.545 13.5848L46.4218 13.104ZM46.0458 12.72L45.5313 13.5775C45.5384 13.5818 45.5456 13.5859 45.5528 13.59L46.0458 12.72ZM44.9178 12.72L45.4108 13.5901L45.4199 13.5848L44.9178 12.72ZM44.5418 13.112L45.4187 13.5929L45.4249 13.5812L44.5418 13.112ZM44.5578 14.52L43.6848 15.0078C43.6906 15.0181 43.6965 15.0282 43.7026 15.0383L44.5578 14.52ZM44.9978 14.928L44.5404 15.8173C44.5505 15.8224 44.5606 15.8274 44.5708 15.8322L44.9978 14.928ZM46.2698 14.96L45.9032 14.0295L45.8934 14.0335L46.2698 14.96ZM46.7498 14.648L47.4849 13.9701C47.3026 13.7723 47.0483 13.6564 46.7794 13.6484C46.5106 13.6405 46.2499 13.7411 46.0561 13.9277L46.7498 14.648ZM47.4138 15.368L48.1641 16.029C48.5027 15.6447 48.4962 15.0666 48.1489 14.6901L47.4138 15.368ZM46.6698 15.888L47.0354 16.8188C47.0402 16.8169 47.045 16.815 47.0497 16.813L46.6698 15.888ZM45.6378 15.064C45.2794 15.064 45.0089 14.9946 44.7991 14.8867L43.8844 16.6653C44.4213 16.9414 45.0149 17.064 45.6378 17.064V15.064ZM44.8043 14.8894C44.5852 14.7751 44.4397 14.6348 44.3384 14.4694L42.6332 15.5146C42.9372 16.0105 43.3624 16.3929 43.8792 16.6626L44.8043 14.8894ZM44.3421 14.4755C44.2416 14.3089 44.1818 14.1091 44.1818 13.848H42.1818C42.1818 14.4403 42.3247 15.0031 42.6295 15.5085L44.3421 14.4755ZM44.1818 13.848C44.1818 13.5739 44.2425 13.3739 44.3365 13.2165L42.6191 12.1915C42.3184 12.6954 42.1818 13.2581 42.1818 13.848H44.1818ZM44.3341 13.2205C44.4439 13.0384 44.5863 12.9025 44.7759 12.8005L43.8277 11.0395C43.3239 11.3108 42.917 11.6976 42.6215 12.1875L44.3341 13.2205ZM44.7863 12.7948C44.9697 12.6932 45.192 12.632 45.4778 12.632V10.632C44.8889 10.632 44.3272 10.7628 43.8173 11.0452L44.7863 12.7948ZM45.4778 12.632C45.7508 12.632 45.9634 12.6894 46.1388 12.784L47.0887 11.024C46.5921 10.756 46.0474 10.632 45.4778 10.632V12.632ZM46.1555 12.7928C46.3261 12.8808 46.4565 13.003 46.5595 13.1784L48.2841 12.1656C47.9924 11.669 47.5841 11.2792 47.0721 11.0152L46.1555 12.7928ZM46.5631 13.1845C46.6506 13.3312 46.7178 13.5434 46.7178 13.864H48.7178C48.7178 13.2566 48.5876 12.6742 48.2805 12.1595L46.5631 13.1845ZM46.7178 13.864C46.7178 13.8768 46.717 13.904 46.7132 13.949L48.7063 14.115C48.7132 14.032 48.7178 13.9472 48.7178 13.864H46.7178ZM46.7139 13.9415C46.7088 13.9974 46.7038 14.0504 46.6987 14.1005L48.6888 14.2995C48.6945 14.2429 48.7001 14.1839 48.7057 14.1225L46.7139 13.9415ZM47.6938 13.2H44.1978V15.2H47.6938V13.2ZM45.1978 14.2V13.472H43.1978V14.2H45.1978ZM44.1978 14.472H47.0378V12.472H44.1978V14.472ZM46.6274 12.5601L46.1474 12.7761L46.9681 14.5999L47.4481 14.3839L46.6274 12.5601ZM47.5578 13.688C47.5578 13.3275 47.484 12.9613 47.2986 12.6232L45.545 13.5848C45.544 13.583 45.5466 13.5869 45.5498 13.6008C45.5533 13.6155 45.5578 13.6433 45.5578 13.688H47.5578ZM47.2986 12.6232C47.121 12.2993 46.8646 12.0346 46.5388 11.85L45.5528 13.59C45.5536 13.5905 45.5528 13.5901 45.551 13.5887C45.5492 13.5873 45.5472 13.5856 45.5453 13.5836C45.5434 13.5817 45.5423 13.5803 45.542 13.5799C45.5418 13.5796 45.5429 13.5811 45.545 13.5848L47.2986 12.6232ZM46.5603 11.8625C46.2236 11.6605 45.8539 11.576 45.4858 11.576V13.576C45.5173 13.576 45.5329 13.5795 45.5367 13.5805C45.5398 13.5813 45.5367 13.5807 45.5313 13.5775L46.5603 11.8625ZM45.4858 11.576C45.117 11.576 44.7506 11.6607 44.4156 11.8552L45.4199 13.5848C45.4206 13.5844 45.4228 13.583 45.4295 13.5813C45.4369 13.5795 45.4544 13.576 45.4858 13.576V11.576ZM44.4248 11.85C44.0906 12.0393 43.8338 12.3131 43.6587 12.6428L45.4249 13.5812C45.4262 13.5786 45.4273 13.5769 45.428 13.5757C45.4287 13.5746 45.429 13.5741 45.429 13.5741C45.429 13.5741 45.4288 13.5745 45.4281 13.5753C45.4275 13.576 45.4266 13.577 45.4255 13.5782C45.4231 13.5807 45.4202 13.5833 45.4172 13.5856C45.4142 13.588 45.4119 13.5894 45.4108 13.59L44.4248 11.85ZM43.665 12.6312C43.4778 12.9726 43.4058 13.3427 43.4058 13.704H45.4058C45.4058 13.6067 45.4245 13.5821 45.4186 13.5928L43.665 12.6312ZM43.4058 13.704V13.896H45.4058V13.704H43.4058ZM43.4058 13.896C43.4058 14.2789 43.4899 14.6589 43.6848 15.0078L45.4307 14.0322C45.423 14.0184 45.4058 13.9824 45.4058 13.896H43.4058ZM43.7026 15.0383C43.907 15.3756 44.1929 15.6385 44.5404 15.8173L45.4551 14.0387C45.4294 14.0255 45.4219 14.0164 45.413 14.0017L43.7026 15.0383ZM44.5708 15.8322C44.9209 15.9976 45.296 16.064 45.6698 16.064V14.064C45.5315 14.064 45.4586 14.0397 45.4248 14.0238L44.5708 15.8322ZM45.6698 16.064C45.9976 16.064 46.3306 16.0147 46.6462 15.8865L45.8934 14.0335C45.8676 14.044 45.8006 14.064 45.6698 14.064V16.064ZM46.6363 15.8904C46.9409 15.7704 47.2106 15.5925 47.4434 15.3683L46.0561 13.9277C46.001 13.9808 45.9507 14.0109 45.9033 14.0296L46.6363 15.8904ZM46.0147 15.3259L46.6787 16.0459L48.1489 14.6901L47.4849 13.9701L46.0147 15.3259ZM46.6634 14.707C46.5758 14.8065 46.4582 14.8938 46.2899 14.963L47.0497 16.813C47.4787 16.6368 47.8571 16.3775 48.1641 16.029L46.6634 14.707ZM46.3041 14.9572C46.1439 15.0202 45.9279 15.064 45.6378 15.064V17.064C46.1263 17.064 46.5984 16.9905 47.0354 16.8188L46.3041 14.9572Z" fill="black"/>
<defs>
<linearGradient id="paint0_linear_1_4" x1="42.5083" y1="5.33023" x2="42.5083" y2="9.33023" gradientUnits="userSpaceOnUse">
<stop stop-color="#00FF19"/>
<stop offset="0.0001" stop-color="#42FF00"/>
<stop offset="1" stop-color="#CCFF00"/>
</linearGradient>
<linearGradient id="paint1_linear_1_4" x1="25" y1="10" x2="25" y2="16" gradientUnits="userSpaceOnUse">
<stop stop-color="#00FF19"/>
<stop offset="1" stop-color="#CCFF00"/>
</linearGradient>
</defs>
</svg>
