<svg width="54" height="18" viewBox="0 0 54 18" fill="none" xmlns="http://www.w3.org/2000/svg">
<g clip-path="url(#clip0_1_4)">
<rect x="45.0505" y="2.50175" width="3.125" height="7.125" rx="1.5625" transform="rotate(15 45.0505 2.50175)" fill="white" fill-opacity="0.3" stroke="black" stroke-width="1.125"/>
<path d="M45.1458 10.3566L45.2914 9.81322L44.2047 9.52205L44.0591 10.0654L45.1458 10.3566ZM43.5415 11.9972C43.4611 12.2973 43.6392 12.6058 43.9393 12.6862C44.2393 12.7666 44.5478 12.5885 44.6282 12.2884L43.5415 11.9972ZM44.0591 10.0654L43.5415 11.9972L44.6282 12.2884L45.1458 10.3566L44.0591 10.0654Z" fill="black"/>
<path d="M46.9319 1.51764L46.673 2.48356" stroke="black" stroke-width="1.125" stroke-linecap="square"/>
<path d="M48.8637 2.03528L45 1" stroke="black" stroke-width="1.125" stroke-linecap="round"/>
<mask id="mask0_1_4" style="mask-type:alpha" maskUnits="userSpaceOnUse" x="44" y="3" width="4" height="7">
<rect x="45.4483" y="3.19067" width="2" height="6" rx="1" transform="rotate(15 45.4483 3.19067)" fill="white"/>
</mask>
<g mask="url(#mask0_1_4)">
<rect x="40.5084" y="5.33023" width="10" height="4" fill="url(#paint0_linear_1_4)"/>
</g>
<path d="M1 17V11H2V12H5V11H6V17H5V13H2V17H1ZM2 11V10H5V11H2ZM7 16V13H8V16H7ZM8 13V12H10V13H8ZM8 17V16H11V14H10V13H11V10H12V17H8ZM17 14V13H18V14H17ZM13 17V12H14V13H15V14H14V17H13ZM15 13V12H17V13H15ZM20 17V16H24V17H20ZM19 16V13H20V14H23V13H24V15H20V16H19ZM20 13V12H23V13H20ZM29 17V13H30V17H29ZM25 17V12H29V13H26V17H25ZM31 16V15H32V16H31ZM32 17V16H35V15H32V14H35V13H36V17H32ZM32 13V12H35V13H32ZM38 17V16H39V17H38ZM37 16V10H38V16H37ZM40 17V12H41V17H40ZM40 11V10H41V11H40ZM46 17V13H47V17H46ZM42 17V12H46V13H43V17H42ZM49 17V16H53V17H49ZM48 16V13H49V14H52V13H53V15H49V16H48ZM49 13V12H52V13H49Z" fill="url(#paint1_linear_1_4)"/>
<path d="M1 17H0V18H1V17ZM1 11V10H0V11H1ZM2 11H3V10H2V11ZM2 12H1V13H2V12ZM5 12V13H6V12H5ZM5 11V10H4V11H5ZM6 11H7V10H6V11ZM6 17V18H7V17H6ZM5 17H4V18H5V17ZM5 13H6V12H5V13ZM2 13V12H1V13H2ZM2 17V18H3V17H2ZM2 11H1V12H2V11ZM2 10V9H1V10H2ZM5 10H6V9H5V10ZM5 11V12H6V11H5ZM2 17V11H0V17H2ZM1 12H2V10H1V12ZM1 11V12H3V11H1ZM2 13H5V11H2V13ZM6 12V11H4V12H6ZM5 12H6V10H5V12ZM5 11V17H7V11H5ZM6 16H5V18H6V16ZM6 17V13H4V17H6ZM5 12H2V14H5V12ZM1 13V17H3V13H1ZM2 16H1V18H2V16ZM3 11V10H1V11H3ZM2 11H5V9H2V11ZM4 10V11H6V10H4ZM5 10H2V12H5V10ZM7 16H6V17H7V16ZM7 13V12H6V13H7ZM8 13H9V12H8V13ZM8 16V17H9V16H8ZM8 13H7V14H8V13ZM8 12V11H7V12H8ZM10 12H11V11H10V12ZM10 13V14H11V13H10ZM8 17H7V18H8V17ZM8 16V15H7V16H8ZM11 16V17H12V16H11ZM11 14H12V13H11V14ZM10 14H9V15H10V14ZM10 13V12H9V13H10ZM11 13V14H12V13H11ZM11 10V9H10V10H11ZM12 10H13V9H12V10ZM12 17V18H13V17H12ZM8 16V13H6V16H8ZM7 14H8V12H7V14ZM7 13V16H9V13H7ZM8 15H7V17H8V15ZM9 13V12H7V13H9ZM8 13H10V11H8V13ZM9 12V13H11V12H9ZM10 12H8V14H10V12ZM9 17V16H7V17H9ZM8 17H11V15H8V17ZM12 16V14H10V16H12ZM11 13H10V15H11V13ZM11 14V13H9V14H11ZM10 14H11V12H10V14ZM12 13V10H10V13H12ZM11 11H12V9H11V11ZM11 10V17H13V10H11ZM12 16H8V18H12V16ZM17 14H16V15H17V14ZM17 13V12H16V13H17ZM18 13H19V12H18V13ZM18 14V15H19V14H18ZM13 17H12V18H13V17ZM13 12V11H12V12H13ZM14 12H15V11H14V12ZM14 13H13V14H14V13ZM15 13H16V12H15V13ZM15 14V15H16V14H15ZM14 14V13H13V14H14ZM14 17V18H15V17H14ZM15 13H14V14H15V13ZM15 12V11H14V12H15ZM17 12H18V11H17V12ZM17 13V14H18V13H17ZM18 14V13H16V14H18ZM17 14H18V12H17V14ZM17 13V14H19V13H17ZM18 13H17V15H18V13ZM14 17V12H12V17H14ZM13 13H14V11H13V13ZM13 12V13H15V12H13ZM14 14H15V12H14V14ZM14 13V14H16V13H14ZM15 13H14V15H15V13ZM13 14V17H15V14H13ZM14 16H13V18H14V16ZM16 13V12H14V13H16ZM15 13H17V11H15V13ZM16 12V13H18V12H16ZM17 12H15V14H17V12ZM20 17H19V18H20V17ZM20 16V15H19V16H20ZM24 16H25V15H24V16ZM24 17V18H25V17H24ZM19 16H18V17H19V16ZM19 13V12H18V13H19ZM20 13H21V12H20V13ZM20 14H19V15H20V14ZM23 14V15H24V14H23ZM23 13V12H22V13H23ZM24 13H25V12H24V13ZM24 15V16H25V15H24ZM20 15V14H19V15H20ZM20 16V17H21V16H20ZM20 13H19V14H20V13ZM20 12V11H19V12H20ZM23 12H24V11H23V12ZM23 13V14H24V13H23ZM21 17V16H19V17H21ZM20 17H24V15H20V17ZM23 16V17H25V16H23ZM24 16H20V18H24V16ZM20 16V13H18V16H20ZM19 14H20V12H19V14ZM19 13V14H21V13H19ZM20 15H23V13H20V15ZM24 14V13H22V14H24ZM23 14H24V12H23V14ZM23 13V15H25V13H23ZM24 14H20V16H24V14ZM19 15V16H21V15H19ZM20 15H19V17H20V15ZM21 13V12H19V13H21ZM20 13H23V11H20V13ZM22 12V13H24V12H22ZM23 12H20V14H23V12ZM29 17H28V18H29V17ZM29 13V12H28V13H29ZM30 13H31V12H30V13ZM30 17V18H31V17H30ZM25 17H24V18H25V17ZM25 12V11H24V12H25ZM29 12H30V11H29V12ZM29 13V14H30V13H29ZM26 13V12H25V13H26ZM26 17V18H27V17H26ZM30 17V13H28V17H30ZM29 14H30V12H29V14ZM29 13V17H31V13H29ZM30 16H29V18H30V16ZM26 17V12H24V17H26ZM25 13H29V11H25V13ZM28 12V13H30V12H28ZM29 12H26V14H29V12ZM25 13V17H27V13H25ZM26 16H25V18H26V16ZM31 16H30V17H31V16ZM31 15V14H30V15H31ZM32 15H33V14H32V15ZM32 16V17H33V16H32ZM32 17H31V18H32V17ZM32 16V15H31V16H32ZM35 16V17H36V16H35ZM35 15H36V14H35V15ZM32 15H31V16H32V15ZM32 14V13H31V14H32ZM35 14V15H36V14H35ZM35 13V12H34V13H35ZM36 13H37V12H36V13ZM36 17V18H37V17H36ZM32 13H31V14H32V13ZM32 12V11H31V12H32ZM35 12H36V11H35V12ZM35 13V14H36V13H35ZM32 16V15H30V16H32ZM31 16H32V14H31V16ZM31 15V16H33V15H31ZM32 15H31V17H32V15ZM33 17V16H31V17H33ZM32 17H35V15H32V17ZM36 16V15H34V16H36ZM35 14H32V16H35V14ZM33 15V14H31V15H33ZM32 15H35V13H32V15ZM36 14V13H34V14H36ZM35 14H36V12H35V14ZM35 13V17H37V13H35ZM36 16H32V18H36V16ZM33 13V12H31V13H33ZM32 13H35V11H32V13ZM34 12V13H36V12H34ZM35 12H32V14H35V12ZM38 17H37V18H38V17ZM38 16V15H37V16H38ZM39 16H40V15H39V16ZM39 17V18H40V17H39ZM37 16H36V17H37V16ZM37 10V9H36V10H37ZM38 10H39V9H38V10ZM38 16V17H39V16H38ZM39 17V16H37V17H39ZM38 17H39V15H38V17ZM38 16V17H40V16H38ZM39 16H38V18H39V16ZM38 16V10H36V16H38ZM37 11H38V9H37V11ZM37 10V16H39V10H37ZM38 15H37V17H38V15ZM40 17H39V18H40V17ZM40 12V11H39V12H40ZM41 12H42V11H41V12ZM41 17V18H42V17H41ZM40 11H39V12H40V11ZM40 10V9H39V10H40ZM41 10H42V9H41V10ZM41 11V12H42V11H41ZM41 17V12H39V17H41ZM40 13H41V11H40V13ZM40 12V17H42V12H40ZM41 16H40V18H41V16ZM41 11V10H39V11H41ZM40 11H41V9H40V11ZM40 10V11H42V10H40ZM41 10H40V12H41V10ZM46 17H45V18H46V17ZM46 13V12H45V13H46ZM47 13H48V12H47V13ZM47 17V18H48V17H47ZM42 17H41V18H42V17ZM42 12V11H41V12H42ZM46 12H47V11H46V12ZM46 13V14H47V13H46ZM43 13V12H42V13H43ZM43 17V18H44V17H43ZM47 17V13H45V17H47ZM46 14H47V12H46V14ZM46 13V17H48V13H46ZM47 16H46V18H47V16ZM43 17V12H41V17H43ZM42 13H46V11H42V13ZM45 12V13H47V12H45ZM46 12H43V14H46V12ZM42 13V17H44V13H42ZM43 16H42V18H43V16ZM49 17H48V18H49V17ZM49 16V15H48V16H49ZM53 16H54V15H53V16ZM53 17V18H54V17H53ZM48 16H47V17H48V16ZM48 13V12H47V13H48ZM49 13H50V12H49V13ZM49 14H48V15H49V14ZM52 14V15H53V14H52ZM52 13V12H51V13H52ZM53 13H54V12H53V13ZM53 15V16H54V15H53ZM49 15V14H48V15H49ZM49 16V17H50V16H49ZM49 13H48V14H49V13ZM49 12V11H48V12H49ZM52 12H53V11H52V12ZM52 13V14H53V13H52ZM50 17V16H48V17H50ZM49 17H53V15H49V17ZM52 16V17H54V16H52ZM53 16H49V18H53V16ZM49 16V13H47V16H49ZM48 14H49V12H48V14ZM48 13V14H50V13H48ZM49 15H52V13H49V15ZM53 14V13H51V14H53ZM52 14H53V12H52V14ZM52 13V15H54V13H52ZM53 14H49V16H53V14ZM48 15V16H50V15H48ZM49 15H48V17H49V15ZM50 13V12H48V13H50ZM49 13H52V11H49V13ZM51 12V13H53V12H51ZM52 12H49V14H52V12Z" fill="black"/>
</g>
<defs>
<linearGradient id="paint0_linear_1_4" x1="45.5084" y1="5.33023" x2="45.5084" y2="9.33023" gradientUnits="userSpaceOnUse">
<stop stop-color="#00FF19"/>
<stop offset="0.0001" stop-color="#42FF00"/>
<stop offset="1" stop-color="#CCFF00"/>
</linearGradient>
<linearGradient id="paint1_linear_1_4" x1="27.5" y1="9" x2="27.5" y2="20" gradientUnits="userSpaceOnUse">
<stop stop-color="#00FF19"/>
<stop offset="1" stop-color="#CCFF00"/>
</linearGradient>
<clipPath id="clip0_1_4">
<rect width="54" height="18" fill="white"/>
</clipPath>
</defs>
</svg>
