<svg width="61" height="31" viewBox="0 0 61 31" fill="none" xmlns="http://www.w3.org/2000/svg">
<rect width="61" height="31" fill="#CBFFF6"/>
<circle cx="42" cy="24.6316" r="5" fill="#E5FF45"/>
<circle cx="44" cy="8.63158" r="7" fill="#45FF79"/>
<circle cx="17" cy="13.6316" r="6" fill="#FFD18B"/>
<g clip-path="url(#clip0_1_25)">
<rect x="48.5947" y="8.5783" width="3" height="7" rx="1.5" transform="rotate(15 48.5947 8.5783)" fill="white" fill-opacity="0.3" stroke="black"/>
<path d="M48.5854 16.3404L48.7149 15.8574L47.7489 15.5986L47.6195 16.0816L48.5854 16.3404ZM47.1019 18.0134C47.0304 18.2801 47.1887 18.5543 47.4554 18.6258C47.7222 18.6973 47.9963 18.539 48.0678 18.2722L47.1019 18.0134ZM47.6195 16.0816L47.1019 18.0134L48.0678 18.2722L48.5854 16.3404L47.6195 16.0816Z" fill="black"/>
<path d="M50.4319 7.51764L50.173 8.48356" stroke="black" stroke-linecap="square"/>
<path d="M52.3637 8.03528L48.5 7" stroke="black" stroke-linecap="round"/>
<mask id="mask0_1_25" style="mask-type:alpha" maskUnits="userSpaceOnUse" x="47" y="9" width="4" height="7">
<rect x="48.9483" y="9.19067" width="2" height="6" rx="1" transform="rotate(15 48.9483 9.19067)" fill="white"/>
</mask>
<g mask="url(#mask0_1_25)">
<rect x="44.0084" y="11.3302" width="10" height="4" fill="url(#paint0_linear_1_25)"/>
</g>
<path d="M4.5 23V17H5.5V18H8.5V17H9.5V23H8.5V19H5.5V23H4.5ZM5.5 17V16H8.5V17H5.5ZM10.5 22V19H11.5V22H10.5ZM11.5 19V18H13.5V19H11.5ZM11.5 23V22H14.5V20H13.5V19H14.5V16H15.5V23H11.5ZM20.5 20V19H21.5V20H20.5ZM16.5 23V18H17.5V19H18.5V20H17.5V23H16.5ZM18.5 19V18H20.5V19H18.5ZM23.5 23V22H27.5V23H23.5ZM22.5 22V19H23.5V20H26.5V19H27.5V21H23.5V22H22.5ZM23.5 19V18H26.5V19H23.5ZM32.5 23V19H33.5V23H32.5ZM28.5 23V18H32.5V19H29.5V23H28.5ZM34.5 22V21H35.5V22H34.5ZM35.5 23V22H38.5V21H35.5V20H38.5V19H39.5V23H35.5ZM35.5 19V18H38.5V19H35.5ZM41.5 23V22H42.5V23H41.5ZM40.5 22V16H41.5V22H40.5ZM43.5 23V18H44.5V23H43.5ZM43.5 17V16H44.5V17H43.5ZM49.5 23V19H50.5V23H49.5ZM45.5 23V18H49.5V19H46.5V23H45.5ZM52.5 23V22H56.5V23H52.5ZM51.5 22V19H52.5V20H55.5V19H56.5V21H52.5V22H51.5ZM52.5 19V18H55.5V19H52.5Z" fill="url(#paint1_linear_1_25)"/>
<path d="M4.5 23H3.5V24H4.5V23ZM4.5 17V16H3.5V17H4.5ZM5.5 17H6.5V16H5.5V17ZM5.5 18H4.5V19H5.5V18ZM8.5 18V19H9.5V18H8.5ZM8.5 17V16H7.5V17H8.5ZM9.5 17H10.5V16H9.5V17ZM9.5 23V24H10.5V23H9.5ZM8.5 23H7.5V24H8.5V23ZM8.5 19H9.5V18H8.5V19ZM5.5 19V18H4.5V19H5.5ZM5.5 23V24H6.5V23H5.5ZM5.5 17H4.5V18H5.5V17ZM5.5 16V15H4.5V16H5.5ZM8.5 16H9.5V15H8.5V16ZM8.5 17V18H9.5V17H8.5ZM5.5 23V17H3.5V23H5.5ZM4.5 18H5.5V16H4.5V18ZM4.5 17V18H6.5V17H4.5ZM5.5 19H8.5V17H5.5V19ZM9.5 18V17H7.5V18H9.5ZM8.5 18H9.5V16H8.5V18ZM8.5 17V23H10.5V17H8.5ZM9.5 22H8.5V24H9.5V22ZM9.5 23V19H7.5V23H9.5ZM8.5 18H5.5V20H8.5V18ZM4.5 19V23H6.5V19H4.5ZM5.5 22H4.5V24H5.5V22ZM6.5 17V16H4.5V17H6.5ZM5.5 17H8.5V15H5.5V17ZM7.5 16V17H9.5V16H7.5ZM8.5 16H5.5V18H8.5V16ZM10.5 22H9.5V23H10.5V22ZM10.5 19V18H9.5V19H10.5ZM11.5 19H12.5V18H11.5V19ZM11.5 22V23H12.5V22H11.5ZM11.5 19H10.5V20H11.5V19ZM11.5 18V17H10.5V18H11.5ZM13.5 18H14.5V17H13.5V18ZM13.5 19V20H14.5V19H13.5ZM11.5 23H10.5V24H11.5V23ZM11.5 22V21H10.5V22H11.5ZM14.5 22V23H15.5V22H14.5ZM14.5 20H15.5V19H14.5V20ZM13.5 20H12.5V21H13.5V20ZM13.5 19V18H12.5V19H13.5ZM14.5 19V20H15.5V19H14.5ZM14.5 16V15H13.5V16H14.5ZM15.5 16H16.5V15H15.5V16ZM15.5 23V24H16.5V23H15.5ZM11.5 22V19H9.5V22H11.5ZM10.5 20H11.5V18H10.5V20ZM10.5 19V22H12.5V19H10.5ZM11.5 21H10.5V23H11.5V21ZM12.5 19V18H10.5V19H12.5ZM11.5 19H13.5V17H11.5V19ZM12.5 18V19H14.5V18H12.5ZM13.5 18H11.5V20H13.5V18ZM12.5 23V22H10.5V23H12.5ZM11.5 23H14.5V21H11.5V23ZM15.5 22V20H13.5V22H15.5ZM14.5 19H13.5V21H14.5V19ZM14.5 20V19H12.5V20H14.5ZM13.5 20H14.5V18H13.5V20ZM15.5 19V16H13.5V19H15.5ZM14.5 17H15.5V15H14.5V17ZM14.5 16V23H16.5V16H14.5ZM15.5 22H11.5V24H15.5V22ZM20.5 20H19.5V21H20.5V20ZM20.5 19V18H19.5V19H20.5ZM21.5 19H22.5V18H21.5V19ZM21.5 20V21H22.5V20H21.5ZM16.5 23H15.5V24H16.5V23ZM16.5 18V17H15.5V18H16.5ZM17.5 18H18.5V17H17.5V18ZM17.5 19H16.5V20H17.5V19ZM18.5 19H19.5V18H18.5V19ZM18.5 20V21H19.5V20H18.5ZM17.5 20V19H16.5V20H17.5ZM17.5 23V24H18.5V23H17.5ZM18.5 19H17.5V20H18.5V19ZM18.5 18V17H17.5V18H18.5ZM20.5 18H21.5V17H20.5V18ZM20.5 19V20H21.5V19H20.5ZM21.5 20V19H19.5V20H21.5ZM20.5 20H21.5V18H20.5V20ZM20.5 19V20H22.5V19H20.5ZM21.5 19H20.5V21H21.5V19ZM17.5 23V18H15.5V23H17.5ZM16.5 19H17.5V17H16.5V19ZM16.5 18V19H18.5V18H16.5ZM17.5 20H18.5V18H17.5V20ZM17.5 19V20H19.5V19H17.5ZM18.5 19H17.5V21H18.5V19ZM16.5 20V23H18.5V20H16.5ZM17.5 22H16.5V24H17.5V22ZM19.5 19V18H17.5V19H19.5ZM18.5 19H20.5V17H18.5V19ZM19.5 18V19H21.5V18H19.5ZM20.5 18H18.5V20H20.5V18ZM23.5 23H22.5V24H23.5V23ZM23.5 22V21H22.5V22H23.5ZM27.5 22H28.5V21H27.5V22ZM27.5 23V24H28.5V23H27.5ZM22.5 22H21.5V23H22.5V22ZM22.5 19V18H21.5V19H22.5ZM23.5 19H24.5V18H23.5V19ZM23.5 20H22.5V21H23.5V20ZM26.5 20V21H27.5V20H26.5ZM26.5 19V18H25.5V19H26.5ZM27.5 19H28.5V18H27.5V19ZM27.5 21V22H28.5V21H27.5ZM23.5 21V20H22.5V21H23.5ZM23.5 22V23H24.5V22H23.5ZM23.5 19H22.5V20H23.5V19ZM23.5 18V17H22.5V18H23.5ZM26.5 18H27.5V17H26.5V18ZM26.5 19V20H27.5V19H26.5ZM24.5 23V22H22.5V23H24.5ZM23.5 23H27.5V21H23.5V23ZM26.5 22V23H28.5V22H26.5ZM27.5 22H23.5V24H27.5V22ZM23.5 22V19H21.5V22H23.5ZM22.5 20H23.5V18H22.5V20ZM22.5 19V20H24.5V19H22.5ZM23.5 21H26.5V19H23.5V21ZM27.5 20V19H25.5V20H27.5ZM26.5 20H27.5V18H26.5V20ZM26.5 19V21H28.5V19H26.5ZM27.5 20H23.5V22H27.5V20ZM22.5 21V22H24.5V21H22.5ZM23.5 21H22.5V23H23.5V21ZM24.5 19V18H22.5V19H24.5ZM23.5 19H26.5V17H23.5V19ZM25.5 18V19H27.5V18H25.5ZM26.5 18H23.5V20H26.5V18ZM32.5 23H31.5V24H32.5V23ZM32.5 19V18H31.5V19H32.5ZM33.5 19H34.5V18H33.5V19ZM33.5 23V24H34.5V23H33.5ZM28.5 23H27.5V24H28.5V23ZM28.5 18V17H27.5V18H28.5ZM32.5 18H33.5V17H32.5V18ZM32.5 19V20H33.5V19H32.5ZM29.5 19V18H28.5V19H29.5ZM29.5 23V24H30.5V23H29.5ZM33.5 23V19H31.5V23H33.5ZM32.5 20H33.5V18H32.5V20ZM32.5 19V23H34.5V19H32.5ZM33.5 22H32.5V24H33.5V22ZM29.5 23V18H27.5V23H29.5ZM28.5 19H32.5V17H28.5V19ZM31.5 18V19H33.5V18H31.5ZM32.5 18H29.5V20H32.5V18ZM28.5 19V23H30.5V19H28.5ZM29.5 22H28.5V24H29.5V22ZM34.5 22H33.5V23H34.5V22ZM34.5 21V20H33.5V21H34.5ZM35.5 21H36.5V20H35.5V21ZM35.5 22V23H36.5V22H35.5ZM35.5 23H34.5V24H35.5V23ZM35.5 22V21H34.5V22H35.5ZM38.5 22V23H39.5V22H38.5ZM38.5 21H39.5V20H38.5V21ZM35.5 21H34.5V22H35.5V21ZM35.5 20V19H34.5V20H35.5ZM38.5 20V21H39.5V20H38.5ZM38.5 19V18H37.5V19H38.5ZM39.5 19H40.5V18H39.5V19ZM39.5 23V24H40.5V23H39.5ZM35.5 19H34.5V20H35.5V19ZM35.5 18V17H34.5V18H35.5ZM38.5 18H39.5V17H38.5V18ZM38.5 19V20H39.5V19H38.5ZM35.5 22V21H33.5V22H35.5ZM34.5 22H35.5V20H34.5V22ZM34.5 21V22H36.5V21H34.5ZM35.5 21H34.5V23H35.5V21ZM36.5 23V22H34.5V23H36.5ZM35.5 23H38.5V21H35.5V23ZM39.5 22V21H37.5V22H39.5ZM38.5 20H35.5V22H38.5V20ZM36.5 21V20H34.5V21H36.5ZM35.5 21H38.5V19H35.5V21ZM39.5 20V19H37.5V20H39.5ZM38.5 20H39.5V18H38.5V20ZM38.5 19V23H40.5V19H38.5ZM39.5 22H35.5V24H39.5V22ZM36.5 19V18H34.5V19H36.5ZM35.5 19H38.5V17H35.5V19ZM37.5 18V19H39.5V18H37.5ZM38.5 18H35.5V20H38.5V18ZM41.5 23H40.5V24H41.5V23ZM41.5 22V21H40.5V22H41.5ZM42.5 22H43.5V21H42.5V22ZM42.5 23V24H43.5V23H42.5ZM40.5 22H39.5V23H40.5V22ZM40.5 16V15H39.5V16H40.5ZM41.5 16H42.5V15H41.5V16ZM41.5 22V23H42.5V22H41.5ZM42.5 23V22H40.5V23H42.5ZM41.5 23H42.5V21H41.5V23ZM41.5 22V23H43.5V22H41.5ZM42.5 22H41.5V24H42.5V22ZM41.5 22V16H39.5V22H41.5ZM40.5 17H41.5V15H40.5V17ZM40.5 16V22H42.5V16H40.5ZM41.5 21H40.5V23H41.5V21ZM43.5 23H42.5V24H43.5V23ZM43.5 18V17H42.5V18H43.5ZM44.5 18H45.5V17H44.5V18ZM44.5 23V24H45.5V23H44.5ZM43.5 17H42.5V18H43.5V17ZM43.5 16V15H42.5V16H43.5ZM44.5 16H45.5V15H44.5V16ZM44.5 17V18H45.5V17H44.5ZM44.5 23V18H42.5V23H44.5ZM43.5 19H44.5V17H43.5V19ZM43.5 18V23H45.5V18H43.5ZM44.5 22H43.5V24H44.5V22ZM44.5 17V16H42.5V17H44.5ZM43.5 17H44.5V15H43.5V17ZM43.5 16V17H45.5V16H43.5ZM44.5 16H43.5V18H44.5V16ZM49.5 23H48.5V24H49.5V23ZM49.5 19V18H48.5V19H49.5ZM50.5 19H51.5V18H50.5V19ZM50.5 23V24H51.5V23H50.5ZM45.5 23H44.5V24H45.5V23ZM45.5 18V17H44.5V18H45.5ZM49.5 18H50.5V17H49.5V18ZM49.5 19V20H50.5V19H49.5ZM46.5 19V18H45.5V19H46.5ZM46.5 23V24H47.5V23H46.5ZM50.5 23V19H48.5V23H50.5ZM49.5 20H50.5V18H49.5V20ZM49.5 19V23H51.5V19H49.5ZM50.5 22H49.5V24H50.5V22ZM46.5 23V18H44.5V23H46.5ZM45.5 19H49.5V17H45.5V19ZM48.5 18V19H50.5V18H48.5ZM49.5 18H46.5V20H49.5V18ZM45.5 19V23H47.5V19H45.5ZM46.5 22H45.5V24H46.5V22ZM52.5 23H51.5V24H52.5V23ZM52.5 22V21H51.5V22H52.5ZM56.5 22H57.5V21H56.5V22ZM56.5 23V24H57.5V23H56.5ZM51.5 22H50.5V23H51.5V22ZM51.5 19V18H50.5V19H51.5ZM52.5 19H53.5V18H52.5V19ZM52.5 20H51.5V21H52.5V20ZM55.5 20V21H56.5V20H55.5ZM55.5 19V18H54.5V19H55.5ZM56.5 19H57.5V18H56.5V19ZM56.5 21V22H57.5V21H56.5ZM52.5 21V20H51.5V21H52.5ZM52.5 22V23H53.5V22H52.5ZM52.5 19H51.5V20H52.5V19ZM52.5 18V17H51.5V18H52.5ZM55.5 18H56.5V17H55.5V18ZM55.5 19V20H56.5V19H55.5ZM53.5 23V22H51.5V23H53.5ZM52.5 23H56.5V21H52.5V23ZM55.5 22V23H57.5V22H55.5ZM56.5 22H52.5V24H56.5V22ZM52.5 22V19H50.5V22H52.5ZM51.5 20H52.5V18H51.5V20ZM51.5 19V20H53.5V19H51.5ZM52.5 21H55.5V19H52.5V21ZM56.5 20V19H54.5V20H56.5ZM55.5 20H56.5V18H55.5V20ZM55.5 19V21H57.5V19H55.5ZM56.5 20H52.5V22H56.5V20ZM51.5 21V22H53.5V21H51.5ZM52.5 21H51.5V23H52.5V21ZM53.5 19V18H51.5V19H53.5ZM52.5 19H55.5V17H52.5V19ZM54.5 18V19H56.5V18H54.5ZM55.5 18H52.5V20H55.5V18Z" fill="black"/>
</g>
<defs>
<linearGradient id="paint0_linear_1_25" x1="49.0084" y1="11.3302" x2="49.0084" y2="15.3302" gradientUnits="userSpaceOnUse">
<stop stop-color="#00FF19"/>
<stop offset="0.0001" stop-color="#42FF00"/>
<stop offset="1" stop-color="#CCFF00"/>
</linearGradient>
<linearGradient id="paint1_linear_1_25" x1="31" y1="15" x2="31" y2="26" gradientUnits="userSpaceOnUse">
<stop stop-color="#00FF19"/>
<stop offset="1" stop-color="#CCFF00"/>
</linearGradient>
<clipPath id="clip0_1_25">
<rect width="54" height="18" fill="white" transform="translate(3.5 6)"/>
</clipPath>
</defs>
</svg>
