<svg width="39" height="21" viewBox="0 0 39 21" fill="none" xmlns="http://www.w3.org/2000/svg">
<g clip-path="url(#clip0_1_2)">
<path d="M5 7V2H6V7H5ZM1 8V1H5V2H2V7H5V8H1ZM8 8V7H12V8H8ZM7 7V4H8V5H11V4H12V6H8V7H7ZM8 4V3H11V4H8ZM15 8V7H16V8H15ZM14 7V6H15V7H14ZM16 7V6H17V7H16ZM13 6V3H14V6H13ZM17 6V3H18V6H17ZM19 8V3H20V8H19ZM19 2V1H20V2H19ZM25 8V4H26V8H25ZM21 8V3H25V4H22V8H21ZM27 4V3H28V4H27ZM28 3V1H29V3H28ZM30 8V7H34V8H30ZM34 7V6H35V7H34ZM31 6V5H34V6H31ZM30 5V4H31V5H30ZM31 4V3H35V4H31Z" fill="url(#paint0_linear_1_2)"/>
<path d="M5 7H4V8H5V7ZM5 2V1H4V2H5ZM6 2H7V1H6V2ZM6 7V8H7V7H6ZM1 8H0V9H1V8ZM1 1V0H0V1H1ZM5 1H6V0H5V1ZM5 2V3H6V2H5ZM2 2V1H1V2H2ZM2 7H1V8H2V7ZM5 7H6V6H5V7ZM5 8V9H6V8H5ZM6 7V2H4V7H6ZM5 3H6V1H5V3ZM5 2V7H7V2H5ZM6 6H5V8H6V6ZM2 8V1H0V8H2ZM1 2H5V0H1V2ZM4 1V2H6V1H4ZM5 1H2V3H5V1ZM1 2V7H3V2H1ZM2 8H5V6H2V8ZM4 7V8H6V7H4ZM5 7H1V9H5V7ZM8 8H7V9H8V8ZM8 7V6H7V7H8ZM12 7H13V6H12V7ZM12 8V9H13V8H12ZM7 7H6V8H7V7ZM7 4V3H6V4H7ZM8 4H9V3H8V4ZM8 5H7V6H8V5ZM11 5V6H12V5H11ZM11 4V3H10V4H11ZM12 4H13V3H12V4ZM12 6V7H13V6H12ZM8 6V5H7V6H8ZM8 7V8H9V7H8ZM8 4H7V5H8V4ZM8 3V2H7V3H8ZM11 3H12V2H11V3ZM11 4V5H12V4H11ZM9 8V7H7V8H9ZM8 8H12V6H8V8ZM11 7V8H13V7H11ZM12 7H8V9H12V7ZM8 7V4H6V7H8ZM7 5H8V3H7V5ZM7 4V5H9V4H7ZM8 6H11V4H8V6ZM12 5V4H10V5H12ZM11 5H12V3H11V5ZM11 4V6H13V4H11ZM12 5H8V7H12V5ZM7 6V7H9V6H7ZM8 6H7V8H8V6ZM9 4V3H7V4H9ZM8 4H11V2H8V4ZM10 3V4H12V3H10ZM11 3H8V5H11V3ZM15 8H14V9H15V8ZM15 7V6H14V7H15ZM16 7H17V6H16V7ZM16 8V9H17V8H16ZM14 7H13V8H14V7ZM14 6V5H13V6H14ZM15 6H16V5H15V6ZM15 7V8H16V7H15ZM16 7H15V8H16V7ZM16 6V5H15V6H16ZM17 6H18V5H17V6ZM17 7V8H18V7H17ZM13 6H12V7H13V6ZM13 3V2H12V3H13ZM14 3H15V2H14V3ZM14 6V7H15V6H14ZM17 6H16V7H17V6ZM17 3V2H16V3H17ZM18 3H19V2H18V3ZM18 6V7H19V6H18ZM16 8V7H14V8H16ZM15 8H16V6H15V8ZM15 7V8H17V7H15ZM16 7H15V9H16V7ZM15 7V6H13V7H15ZM14 7H15V5H14V7ZM14 6V7H16V6H14ZM15 6H14V8H15V6ZM17 7V6H15V7H17ZM16 7H17V5H16V7ZM16 6V7H18V6H16ZM17 6H16V8H17V6ZM14 6V3H12V6H14ZM13 4H14V2H13V4ZM13 3V6H15V3H13ZM14 5H13V7H14V5ZM18 6V3H16V6H18ZM17 4H18V2H17V4ZM17 3V6H19V3H17ZM18 5H17V7H18V5ZM19 8H18V9H19V8ZM19 3V2H18V3H19ZM20 3H21V2H20V3ZM20 8V9H21V8H20ZM19 2H18V3H19V2ZM19 1V0H18V1H19ZM20 1H21V0H20V1ZM20 2V3H21V2H20ZM20 8V3H18V8H20ZM19 4H20V2H19V4ZM19 3V8H21V3H19ZM20 7H19V9H20V7ZM20 2V1H18V2H20ZM19 2H20V0H19V2ZM19 1V2H21V1H19ZM20 1H19V3H20V1ZM25 8H24V9H25V8ZM25 4V3H24V4H25ZM26 4H27V3H26V4ZM26 8V9H27V8H26ZM21 8H20V9H21V8ZM21 3V2H20V3H21ZM25 3H26V2H25V3ZM25 4V5H26V4H25ZM22 4V3H21V4H22ZM22 8V9H23V8H22ZM26 8V4H24V8H26ZM25 5H26V3H25V5ZM25 4V8H27V4H25ZM26 7H25V9H26V7ZM22 8V3H20V8H22ZM21 4H25V2H21V4ZM24 3V4H26V3H24ZM25 3H22V5H25V3ZM21 4V8H23V4H21ZM22 7H21V9H22V7ZM27 4H26V5H27V4ZM27 3V2H26V3H27ZM28 3H29V2H28V3ZM28 4V5H29V4H28ZM28 3H27V4H28V3ZM28 1V0H27V1H28ZM29 1H30V0H29V1ZM29 3V4H30V3H29ZM28 4V3H26V4H28ZM27 4H28V2H27V4ZM27 3V4H29V3H27ZM28 3H27V5H28V3ZM29 3V1H27V3H29ZM28 2H29V0H28V2ZM28 1V3H30V1H28ZM29 2H28V4H29V2ZM30 8H29V9H30V8ZM30 7V6H29V7H30ZM34 7H35V6H34V7ZM34 8V9H35V8H34ZM34 7H33V8H34V7ZM34 6V5H33V6H34ZM35 6H36V5H35V6ZM35 7V8H36V7H35ZM31 6H30V7H31V6ZM31 5V4H30V5H31ZM34 5H35V4H34V5ZM34 6V7H35V6H34ZM30 5H29V6H30V5ZM30 4V3H29V4H30ZM31 4H32V3H31V4ZM31 5V6H32V5H31ZM31 4H30V5H31V4ZM31 3V2H30V3H31ZM35 3H36V2H35V3ZM35 4V5H36V4H35ZM31 8V7H29V8H31ZM30 8H34V6H30V8ZM33 7V8H35V7H33ZM34 7H30V9H34V7ZM35 7V6H33V7H35ZM34 7H35V5H34V7ZM34 6V7H36V6H34ZM35 6H34V8H35V6ZM32 6V5H30V6H32ZM31 6H34V4H31V6ZM33 5V6H35V5H33ZM34 5H31V7H34V5ZM31 5V4H29V5H31ZM30 5H31V3H30V5ZM30 4V5H32V4H30ZM31 4H30V6H31V4ZM32 4V3H30V4H32ZM31 4H35V2H31V4ZM34 3V4H36V3H34ZM35 3H31V5H35V3Z" fill="black"/>
<path d="M3 15V14H4V15H3ZM1 19V12H2V13H3V14H2V19H1ZM5 19V14H4V13H5V12H6V19H5ZM8 19V18H11V19H8ZM7 18V15H8V18H7ZM11 18V15H12V18H11ZM8 15V14H11V15H8ZM13 18V15H14V18H13ZM14 15V14H16V15H14ZM14 19V18H17V16H16V15H17V12H18V19H14ZM19 18V15H20V18H19ZM20 15V14H22V15H20ZM20 19V18H23V16H22V15H23V12H24V19H20ZM25 19V14H26V19H25ZM25 13V12H26V13H25ZM31 19V15H32V19H31ZM27 19V14H31V15H28V19H27ZM33 20V19H37V20H33ZM33 17V15H34V17H33ZM37 19V18H34V17H37V15H34V14H38V19H37Z" fill="url(#paint1_linear_1_2)"/>
<path d="M3 15H2V16H3V15ZM3 14V13H2V14H3ZM4 14H5V13H4V14ZM4 15V16H5V15H4ZM1 19H0V20H1V19ZM1 12V11H0V12H1ZM2 12H3V11H2V12ZM2 13H1V14H2V13ZM3 13H4V12H3V13ZM3 14V15H4V14H3ZM2 14V13H1V14H2ZM2 19V20H3V19H2ZM5 19H4V20H5V19ZM5 14H6V13H5V14ZM4 14H3V15H4V14ZM4 13V12H3V13H4ZM5 13V14H6V13H5ZM5 12V11H4V12H5ZM6 12H7V11H6V12ZM6 19V20H7V19H6ZM4 15V14H2V15H4ZM3 15H4V13H3V15ZM3 14V15H5V14H3ZM4 14H3V16H4V14ZM2 19V12H0V19H2ZM1 13H2V11H1V13ZM1 12V13H3V12H1ZM2 14H3V12H2V14ZM2 13V14H4V13H2ZM3 13H2V15H3V13ZM1 14V19H3V14H1ZM2 18H1V20H2V18ZM6 19V14H4V19H6ZM5 13H4V15H5V13ZM5 14V13H3V14H5ZM4 14H5V12H4V14ZM6 13V12H4V13H6ZM5 13H6V11H5V13ZM5 12V19H7V12H5ZM6 18H5V20H6V18ZM8 19H7V20H8V19ZM8 18V17H7V18H8ZM11 18H12V17H11V18ZM11 19V20H12V19H11ZM7 18H6V19H7V18ZM7 15V14H6V15H7ZM8 15H9V14H8V15ZM8 18V19H9V18H8ZM11 18H10V19H11V18ZM11 15V14H10V15H11ZM12 15H13V14H12V15ZM12 18V19H13V18H12ZM8 15H7V16H8V15ZM8 14V13H7V14H8ZM11 14H12V13H11V14ZM11 15V16H12V15H11ZM9 19V18H7V19H9ZM8 19H11V17H8V19ZM10 18V19H12V18H10ZM11 18H8V20H11V18ZM8 18V15H6V18H8ZM7 16H8V14H7V16ZM7 15V18H9V15H7ZM8 17H7V19H8V17ZM12 18V15H10V18H12ZM11 16H12V14H11V16ZM11 15V18H13V15H11ZM12 17H11V19H12V17ZM9 15V14H7V15H9ZM8 15H11V13H8V15ZM10 14V15H12V14H10ZM11 14H8V16H11V14ZM13 18H12V19H13V18ZM13 15V14H12V15H13ZM14 15H15V14H14V15ZM14 18V19H15V18H14ZM14 15H13V16H14V15ZM14 14V13H13V14H14ZM16 14H17V13H16V14ZM16 15V16H17V15H16ZM14 19H13V20H14V19ZM14 18V17H13V18H14ZM17 18V19H18V18H17ZM17 16H18V15H17V16ZM16 16H15V17H16V16ZM16 15V14H15V15H16ZM17 15V16H18V15H17ZM17 12V11H16V12H17ZM18 12H19V11H18V12ZM18 19V20H19V19H18ZM14 18V15H12V18H14ZM13 16H14V14H13V16ZM13 15V18H15V15H13ZM14 17H13V19H14V17ZM15 15V14H13V15H15ZM14 15H16V13H14V15ZM15 14V15H17V14H15ZM16 14H14V16H16V14ZM15 19V18H13V19H15ZM14 19H17V17H14V19ZM18 18V16H16V18H18ZM17 15H16V17H17V15ZM17 16V15H15V16H17ZM16 16H17V14H16V16ZM18 15V12H16V15H18ZM17 13H18V11H17V13ZM17 12V19H19V12H17ZM18 18H14V20H18V18ZM19 18H18V19H19V18ZM19 15V14H18V15H19ZM20 15H21V14H20V15ZM20 18V19H21V18H20ZM20 15H19V16H20V15ZM20 14V13H19V14H20ZM22 14H23V13H22V14ZM22 15V16H23V15H22ZM20 19H19V20H20V19ZM20 18V17H19V18H20ZM23 18V19H24V18H23ZM23 16H24V15H23V16ZM22 16H21V17H22V16ZM22 15V14H21V15H22ZM23 15V16H24V15H23ZM23 12V11H22V12H23ZM24 12H25V11H24V12ZM24 19V20H25V19H24ZM20 18V15H18V18H20ZM19 16H20V14H19V16ZM19 15V18H21V15H19ZM20 17H19V19H20V17ZM21 15V14H19V15H21ZM20 15H22V13H20V15ZM21 14V15H23V14H21ZM22 14H20V16H22V14ZM21 19V18H19V19H21ZM20 19H23V17H20V19ZM24 18V16H22V18H24ZM23 15H22V17H23V15ZM23 16V15H21V16H23ZM22 16H23V14H22V16ZM24 15V12H22V15H24ZM23 13H24V11H23V13ZM23 12V19H25V12H23ZM24 18H20V20H24V18ZM25 19H24V20H25V19ZM25 14V13H24V14H25ZM26 14H27V13H26V14ZM26 19V20H27V19H26ZM25 13H24V14H25V13ZM25 12V11H24V12H25ZM26 12H27V11H26V12ZM26 13V14H27V13H26ZM26 19V14H24V19H26ZM25 15H26V13H25V15ZM25 14V19H27V14H25ZM26 18H25V20H26V18ZM26 13V12H24V13H26ZM25 13H26V11H25V13ZM25 12V13H27V12H25ZM26 12H25V14H26V12ZM31 19H30V20H31V19ZM31 15V14H30V15H31ZM32 15H33V14H32V15ZM32 19V20H33V19H32ZM27 19H26V20H27V19ZM27 14V13H26V14H27ZM31 14H32V13H31V14ZM31 15V16H32V15H31ZM28 15V14H27V15H28ZM28 19V20H29V19H28ZM32 19V15H30V19H32ZM31 16H32V14H31V16ZM31 15V19H33V15H31ZM32 18H31V20H32V18ZM28 19V14H26V19H28ZM27 15H31V13H27V15ZM30 14V15H32V14H30ZM31 14H28V16H31V14ZM27 15V19H29V15H27ZM28 18H27V20H28V18ZM33 20H32V21H33V20ZM33 19V18H32V19H33ZM37 19H38V18H37V19ZM37 20V21H38V20H37ZM33 17H32V18H33V17ZM33 15V14H32V15H33ZM34 15H35V14H34V15ZM34 17V18H35V17H34ZM37 19H36V20H37V19ZM37 18H38V17H37V18ZM34 18H33V19H34V18ZM34 17V16H33V17H34ZM37 17V18H38V17H37ZM37 15H38V14H37V15ZM34 15H33V16H34V15ZM34 14V13H33V14H34ZM38 14H39V13H38V14ZM38 19V20H39V19H38ZM34 20V19H32V20H34ZM33 20H37V18H33V20ZM36 19V20H38V19H36ZM37 19H33V21H37V19ZM34 17V15H32V17H34ZM33 16H34V14H33V16ZM33 15V17H35V15H33ZM34 16H33V18H34V16ZM38 19V18H36V19H38ZM37 17H34V19H37V17ZM35 18V17H33V18H35ZM34 18H37V16H34V18ZM38 17V15H36V17H38ZM37 14H34V16H37V14ZM35 15V14H33V15H35ZM34 15H38V13H34V15ZM37 14V19H39V14H37ZM38 18H37V20H38V18Z" fill="black"/>
</g>
<defs>
<linearGradient id="paint0_linear_1_2" x1="18.5" y1="0" x2="18.5" y2="11" gradientUnits="userSpaceOnUse">
<stop stop-color="white"/>
<stop offset="1" stop-color="#7E7E7E"/>
</linearGradient>
<linearGradient id="paint1_linear_1_2" x1="20" y1="11" x2="20" y2="22" gradientUnits="userSpaceOnUse">
<stop stop-color="white"/>
<stop offset="1" stop-color="#7E7E7E"/>
</linearGradient>
<clipPath id="clip0_1_2">
<rect width="39" height="21" fill="white"/>
</clipPath>
</defs>
</svg>
