<svg width="61" height="31" viewBox="0 0 61 31" fill="none" xmlns="http://www.w3.org/2000/svg">
<g clip-path="url(#clip0_1_18)">
<rect width="61" height="31" fill="white"/>
<rect y="14.75" width="61" height="0.5" fill="#F0F0F0"/>
<rect y="16.75" width="61" height="0.5" fill="#F0F0F0"/>
<rect y="18.75" width="61" height="0.5" fill="#F0F0F0"/>
<rect y="20.75" width="61" height="0.5" fill="#F0F0F0"/>
<rect y="22.75" width="61" height="0.5" fill="#F0F0F0"/>
<rect y="24.75" width="61" height="0.5" fill="#F0F0F0"/>
<rect y="26.75" width="61" height="0.5" fill="#F0F0F0"/>
<rect y="28.75" width="61" height="0.5" fill="#F0F0F0"/>
<rect y="30.75" width="61" height="0.5" fill="#F0F0F0"/>
<rect y="0.75" width="61" height="0.5" fill="#F0F0F0"/>
<rect y="2.75" width="61" height="0.5" fill="#F0F0F0"/>
<rect y="4.75" width="61" height="0.5" fill="#F0F0F0"/>
<rect y="6.75" width="61" height="0.5" fill="#F0F0F0"/>
<rect y="8.75" width="61" height="0.5" fill="#F0F0F0"/>
<rect y="10.75" width="61" height="0.5" fill="#F0F0F0"/>
<rect y="12.75" width="61" height="0.5" fill="#F0F0F0"/>
<rect x="16.2499" width="31" height="0.5" transform="rotate(90 16.2499 0)" fill="#F0F0F0"/>
<rect x="14.2499" width="31" height="0.5" transform="rotate(90 14.2499 0)" fill="#F0F0F0"/>
<rect x="12.2499" width="31" height="0.5" transform="rotate(90 12.2499 0)" fill="#F0F0F0"/>
<rect x="10.2499" width="31" height="0.5" transform="rotate(90 10.2499 0)" fill="#F0F0F0"/>
<rect x="8.24995" width="31" height="0.5" transform="rotate(90 8.24995 0)" fill="#F0F0F0"/>
<rect x="6.24995" width="31" height="0.5" transform="rotate(90 6.24995 0)" fill="#F0F0F0"/>
<rect x="4.24995" width="31" height="0.5" transform="rotate(90 4.24995 0)" fill="#F0F0F0"/>
<rect x="2.24995" width="31" height="0.5" transform="rotate(90 2.24995 0)" fill="#F0F0F0"/>
<rect x="0.249947" width="31" height="0.5" transform="rotate(90 0.249947 0)" fill="#F0F0F0"/>
<rect x="34.2499" width="31" height="0.5" transform="rotate(90 34.2499 0)" fill="#F0F0F0"/>
<rect x="32.2499" width="31" height="0.5" transform="rotate(90 32.2499 0)" fill="#F0F0F0"/>
<rect x="30.2499" width="31" height="0.5" transform="rotate(90 30.2499 0)" fill="#F0F0F0"/>
<rect x="28.2499" width="31" height="0.5" transform="rotate(90 28.2499 0)" fill="#F0F0F0"/>
<rect x="26.2499" width="31" height="0.5" transform="rotate(90 26.2499 0)" fill="#F0F0F0"/>
<rect x="24.2499" width="31" height="0.5" transform="rotate(90 24.2499 0)" fill="#F0F0F0"/>
<rect x="22.2499" width="31" height="0.5" transform="rotate(90 22.2499 0)" fill="#F0F0F0"/>
<rect x="20.2499" width="31" height="0.5" transform="rotate(90 20.2499 0)" fill="#F0F0F0"/>
<rect x="18.2499" width="31" height="0.5" transform="rotate(90 18.2499 0)" fill="#F0F0F0"/>
<rect x="52.2499" width="31" height="0.5" transform="rotate(90 52.2499 0)" fill="#F0F0F0"/>
<rect x="50.2499" width="31" height="0.5" transform="rotate(90 50.2499 0)" fill="#F0F0F0"/>
<rect x="48.2499" width="31" height="0.5" transform="rotate(90 48.2499 0)" fill="#F0F0F0"/>
<rect x="46.2499" width="31" height="0.5" transform="rotate(90 46.2499 0)" fill="#F0F0F0"/>
<rect x="44.2499" width="31" height="0.5" transform="rotate(90 44.2499 0)" fill="#F0F0F0"/>
<rect x="42.2499" width="31" height="0.5" transform="rotate(90 42.2499 0)" fill="#F0F0F0"/>
<rect x="40.2499" width="31" height="0.5" transform="rotate(90 40.2499 0)" fill="#F0F0F0"/>
<rect x="38.2499" width="31" height="0.5" transform="rotate(90 38.2499 0)" fill="#F0F0F0"/>
<rect x="36.2499" width="31" height="0.5" transform="rotate(90 36.2499 0)" fill="#F0F0F0"/>
<rect x="56.2499" width="31" height="0.5" transform="rotate(90 56.2499 0)" fill="#F0F0F0"/>
<rect x="54.2499" width="31" height="0.5" transform="rotate(90 54.2499 0)" fill="#F0F0F0"/>
<rect x="60.2499" width="31" height="0.5" transform="rotate(90 60.2499 0)" fill="#F0F0F0"/>
<rect x="58.2499" width="31" height="0.5" transform="rotate(90 58.2499 0)" fill="#F0F0F0"/>
<rect x="12.6244" y="5.40269" width="2.21475" height="4.42951" rx="0.25" transform="rotate(8.87536 12.6244 5.40269)" fill="#C2C2C2"/>
<rect x="10.9158" y="16.344" width="2.21475" height="4.42951" rx="0.25" transform="rotate(8.87536 10.9158 16.344)" fill="#C2C2C2"/>
<rect x="5.03458" y="10.9423" width="4.42951" height="2.21475" rx="0.25" transform="rotate(8.87536 5.03458 10.9423)" fill="#C2C2C2"/>
<rect x="15.9758" y="12.6509" width="4.42951" height="2.21475" rx="0.25" transform="rotate(8.87536 15.9758 12.6509)" fill="#C2C2C2"/>
<rect x="18.131" y="7.76808" width="2.21475" height="4.42951" rx="0.25" transform="rotate(53.8754 18.131 7.76808)" fill="#C2C2C2"/>
<rect x="9.1863" y="14.2965" width="2.21475" height="4.42951" rx="0.25" transform="rotate(53.8754 9.1863 14.2965)" fill="#C2C2C2"/>
<rect x="8.84708" y="6.31842" width="4.42951" height="2.21475" rx="0.25" transform="rotate(53.8754 8.84708 6.31842)" fill="#C2C2C2"/>
<rect x="15.3756" y="15.263" width="4.42951" height="2.21475" rx="0.25" transform="rotate(53.8754 15.3756 15.263)" fill="#C2C2C2"/>
<path fill-rule="evenodd" clip-rule="evenodd" d="M11.6683 18.703C14.6896 19.1748 17.5214 17.108 17.9931 14.0867C18.4649 11.0654 16.3981 8.23367 13.3768 7.76188C10.3555 7.29008 7.52377 9.35688 7.05197 12.3782C6.58018 15.3995 8.64698 18.2313 11.6683 18.703ZM12.01 16.5149C13.8228 16.798 15.5218 15.5579 15.8049 13.7451C16.088 11.9323 14.8479 10.2333 13.0351 9.95018C11.2223 9.6671 9.52329 10.9072 9.24022 12.72C8.95714 14.5328 10.1972 16.2318 12.01 16.5149Z" fill="#C2C2C2"/>
<rect x="42.4962" y="19.5542" width="1.99328" height="3.98656" rx="0.25" transform="rotate(8.22765 42.4962 19.5542)" fill="#C2C2C2"/>
<rect x="41.07" y="29.4182" width="1.99328" height="3.98656" rx="0.25" transform="rotate(8.22765 41.07 29.4182)" fill="#C2C2C2"/>
<rect x="35.7222" y="24.6169" width="3.98656" height="1.99328" rx="0.25" transform="rotate(8.22765 35.7222 24.6169)" fill="#C2C2C2"/>
<rect x="45.586" y="26.0431" width="3.98656" height="1.99328" rx="0.25" transform="rotate(8.22765 45.586 26.0431)" fill="#C2C2C2"/>
<rect x="47.4759" y="21.6269" width="1.99328" height="3.98656" rx="0.25" transform="rotate(53.2277 47.4759 21.6269)" fill="#C2C2C2"/>
<rect x="39.4926" y="27.593" width="1.99328" height="3.98656" rx="0.25" transform="rotate(53.2277 39.4926 27.593)" fill="#C2C2C2"/>
<rect x="39.1062" y="20.4167" width="3.98656" height="1.99328" rx="0.25" transform="rotate(53.2277 39.1062 20.4167)" fill="#C2C2C2"/>
<rect x="45.0725" y="28.3998" width="3.98656" height="1.99328" rx="0.25" transform="rotate(53.2277 45.0725 28.3998)" fill="#C2C2C2"/>
<path fill-rule="evenodd" clip-rule="evenodd" d="M41.7711 31.5334C44.4949 31.9273 47.0223 30.0385 47.4161 27.3147C47.81 24.5908 45.9212 22.0635 43.1974 21.6696C40.4735 21.2758 37.9462 23.1646 37.5523 25.8884C37.1585 28.6122 39.0473 31.1396 41.7711 31.5334ZM42.0564 29.5607C43.6906 29.797 45.2071 28.6637 45.4434 27.0295C45.6797 25.3952 44.5464 23.8788 42.9121 23.6424C41.2778 23.4061 39.7614 24.5394 39.5251 26.1737C39.2888 27.808 40.4221 29.3244 42.0564 29.5607Z" fill="#C2C2C2"/>
<rect x="43.6401" y="-0.053812" width="2.6577" height="5.31541" rx="0.25" transform="rotate(-10.5772 43.6401 -0.053812)" fill="#C2C2C2"/>
<rect x="46.0794" y="13.0091" width="2.6577" height="5.31541" rx="0.25" transform="rotate(-10.5772 46.0794 13.0091)" fill="#C2C2C2"/>
<rect x="37.266" y="9.24743" width="5.31541" height="2.6577" rx="0.25" transform="rotate(-10.5772 37.266 9.24743)" fill="#C2C2C2"/>
<rect x="50.3287" y="6.80817" width="5.31541" height="2.6577" rx="0.25" transform="rotate(-10.5772 50.3287 6.80817)" fill="#C2C2C2"/>
<rect x="50.8161" y="0.421953" width="2.6577" height="5.31541" rx="0.25" transform="rotate(34.4228 50.8161 0.421953)" fill="#C2C2C2"/>
<rect x="43.3041" y="11.3832" width="2.6577" height="5.31541" rx="0.25" transform="rotate(34.4228 43.3041 11.3832)" fill="#C2C2C2"/>
<rect x="39.7319" y="2.49174" width="5.31541" height="2.6577" rx="0.25" transform="rotate(34.4228 39.7319 2.49174)" fill="#C2C2C2"/>
<rect x="50.6935" y="10.0034" width="5.31541" height="2.6577" rx="0.25" transform="rotate(34.4228 50.6935 10.0034)" fill="#C2C2C2"/>
<path fill-rule="evenodd" clip-rule="evenodd" d="M47.8734 15.3774C51.4806 14.7038 53.8587 11.2336 53.1852 7.62641C52.5116 4.01924 49.0413 1.64109 45.4342 2.31467C41.827 2.98825 39.4488 6.45849 40.1224 10.0657C40.796 13.6728 44.2662 16.051 47.8734 15.3774ZM47.3856 12.7649C49.5499 12.3608 50.9768 10.2787 50.5727 8.11435C50.1685 5.95004 48.0864 4.52316 45.9221 4.9273C43.7578 5.33145 42.3309 7.41359 42.735 9.5779C43.1392 11.7422 45.2213 13.1691 47.3856 12.7649Z" fill="#C2C2C2"/>
<rect x="51.8589" y="10.9436" width="1.86105" height="9.30526" transform="rotate(7.94064 51.8589 10.9436)" fill="black"/>
<path d="M50.2728 8.84324C50.1308 9.86122 50.8409 10.8016 51.8589 10.9436L53.7021 11.2006C54.7201 11.3426 55.6604 10.6325 55.8024 9.61454L50.2728 8.84324Z" fill="black"/>
<path d="M50.4608 7.49521C50.499 7.22171 50.7516 7.03093 51.0251 7.06907L52.3731 7.2571L52.116 9.10031L50.2728 8.84321L50.4608 7.49521Z" fill="black"/>
<path d="M54.2163 7.51424L55.5643 7.70226C55.8378 7.74041 56.0286 7.99305 55.9905 8.26654L55.8024 9.61454L53.9592 9.35744L54.2163 7.51424Z" fill="black"/>
<path d="M54.0027 22.517C54.1447 21.499 53.4346 20.5587 52.4166 20.4167L50.5734 20.1596C49.5554 20.0176 48.6151 20.7277 48.4731 21.7457L54.0027 22.517Z" fill="black"/>
<path d="M53.8147 23.8649C53.7766 24.1384 53.5239 24.3292 53.2504 24.2911L51.9024 24.103L52.1595 22.2598L54.0027 22.5169L53.8147 23.8649Z" fill="black"/>
<path d="M50.0592 23.846L48.7112 23.658C48.4377 23.6198 48.2469 23.3672 48.2851 23.0937L48.4731 21.7457L50.3163 22.0028L50.0592 23.846Z" fill="black"/>
<path d="M10 12.5V7.5H11V12.5H10ZM6 13.5V6.5H10V7.5H7V12.5H10V13.5H6ZM13 13.5V12.5H17V13.5H13ZM12 12.5V9.5H13V10.5H16V9.5H17V11.5H13V12.5H12ZM13 9.5V8.5H16V9.5H13ZM20 13.5V12.5H21V13.5H20ZM19 12.5V11.5H20V12.5H19ZM21 12.5V11.5H22V12.5H21ZM18 11.5V8.5H19V11.5H18ZM22 11.5V8.5H23V11.5H22ZM24 13.5V8.5H25V13.5H24ZM24 7.5V6.5H25V7.5H24ZM30 13.5V9.5H31V13.5H30ZM26 13.5V8.5H30V9.5H27V13.5H26ZM32 9.5V8.5H33V9.5H32ZM33 8.5V6.5H34V8.5H33ZM35 13.5V12.5H39V13.5H35ZM39 12.5V11.5H40V12.5H39ZM36 11.5V10.5H39V11.5H36ZM35 10.5V9.5H36V10.5H35ZM36 9.5V8.5H40V9.5H36Z" fill="url(#paint0_linear_1_18)"/>
<path d="M10 12.5H9V13.5H10V12.5ZM10 7.5V6.5H9V7.5H10ZM11 7.5H12V6.5H11V7.5ZM11 12.5V13.5H12V12.5H11ZM6 13.5H5V14.5H6V13.5ZM6 6.5V5.5H5V6.5H6ZM10 6.5H11V5.5H10V6.5ZM10 7.5V8.5H11V7.5H10ZM7 7.5V6.5H6V7.5H7ZM7 12.5H6V13.5H7V12.5ZM10 12.5H11V11.5H10V12.5ZM10 13.5V14.5H11V13.5H10ZM11 12.5V7.5H9V12.5H11ZM10 8.5H11V6.5H10V8.5ZM10 7.5V12.5H12V7.5H10ZM11 11.5H10V13.5H11V11.5ZM7 13.5V6.5H5V13.5H7ZM6 7.5H10V5.5H6V7.5ZM9 6.5V7.5H11V6.5H9ZM10 6.5H7V8.5H10V6.5ZM6 7.5V12.5H8V7.5H6ZM7 13.5H10V11.5H7V13.5ZM9 12.5V13.5H11V12.5H9ZM10 12.5H6V14.5H10V12.5ZM13 13.5H12V14.5H13V13.5ZM13 12.5V11.5H12V12.5H13ZM17 12.5H18V11.5H17V12.5ZM17 13.5V14.5H18V13.5H17ZM12 12.5H11V13.5H12V12.5ZM12 9.5V8.5H11V9.5H12ZM13 9.5H14V8.5H13V9.5ZM13 10.5H12V11.5H13V10.5ZM16 10.5V11.5H17V10.5H16ZM16 9.5V8.5H15V9.5H16ZM17 9.5H18V8.5H17V9.5ZM17 11.5V12.5H18V11.5H17ZM13 11.5V10.5H12V11.5H13ZM13 12.5V13.5H14V12.5H13ZM13 9.5H12V10.5H13V9.5ZM13 8.5V7.5H12V8.5H13ZM16 8.5H17V7.5H16V8.5ZM16 9.5V10.5H17V9.5H16ZM14 13.5V12.5H12V13.5H14ZM13 13.5H17V11.5H13V13.5ZM16 12.5V13.5H18V12.5H16ZM17 12.5H13V14.5H17V12.5ZM13 12.5V9.5H11V12.5H13ZM12 10.5H13V8.5H12V10.5ZM12 9.5V10.5H14V9.5H12ZM13 11.5H16V9.5H13V11.5ZM17 10.5V9.5H15V10.5H17ZM16 10.5H17V8.5H16V10.5ZM16 9.5V11.5H18V9.5H16ZM17 10.5H13V12.5H17V10.5ZM12 11.5V12.5H14V11.5H12ZM13 11.5H12V13.5H13V11.5ZM14 9.5V8.5H12V9.5H14ZM13 9.5H16V7.5H13V9.5ZM15 8.5V9.5H17V8.5H15ZM16 8.5H13V10.5H16V8.5ZM20 13.5H19V14.5H20V13.5ZM20 12.5V11.5H19V12.5H20ZM21 12.5H22V11.5H21V12.5ZM21 13.5V14.5H22V13.5H21ZM19 12.5H18V13.5H19V12.5ZM19 11.5V10.5H18V11.5H19ZM20 11.5H21V10.5H20V11.5ZM20 12.5V13.5H21V12.5H20ZM21 12.5H20V13.5H21V12.5ZM21 11.5V10.5H20V11.5H21ZM22 11.5H23V10.5H22V11.5ZM22 12.5V13.5H23V12.5H22ZM18 11.5H17V12.5H18V11.5ZM18 8.5V7.5H17V8.5H18ZM19 8.5H20V7.5H19V8.5ZM19 11.5V12.5H20V11.5H19ZM22 11.5H21V12.5H22V11.5ZM22 8.5V7.5H21V8.5H22ZM23 8.5H24V7.5H23V8.5ZM23 11.5V12.5H24V11.5H23ZM21 13.5V12.5H19V13.5H21ZM20 13.5H21V11.5H20V13.5ZM20 12.5V13.5H22V12.5H20ZM21 12.5H20V14.5H21V12.5ZM20 12.5V11.5H18V12.5H20ZM19 12.5H20V10.5H19V12.5ZM19 11.5V12.5H21V11.5H19ZM20 11.5H19V13.5H20V11.5ZM22 12.5V11.5H20V12.5H22ZM21 12.5H22V10.5H21V12.5ZM21 11.5V12.5H23V11.5H21ZM22 11.5H21V13.5H22V11.5ZM19 11.5V8.5H17V11.5H19ZM18 9.5H19V7.5H18V9.5ZM18 8.5V11.5H20V8.5H18ZM19 10.5H18V12.5H19V10.5ZM23 11.5V8.5H21V11.5H23ZM22 9.5H23V7.5H22V9.5ZM22 8.5V11.5H24V8.5H22ZM23 10.5H22V12.5H23V10.5ZM24 13.5H23V14.5H24V13.5ZM24 8.5V7.5H23V8.5H24ZM25 8.5H26V7.5H25V8.5ZM25 13.5V14.5H26V13.5H25ZM24 7.5H23V8.5H24V7.5ZM24 6.5V5.5H23V6.5H24ZM25 6.5H26V5.5H25V6.5ZM25 7.5V8.5H26V7.5H25ZM25 13.5V8.5H23V13.5H25ZM24 9.5H25V7.5H24V9.5ZM24 8.5V13.5H26V8.5H24ZM25 12.5H24V14.5H25V12.5ZM25 7.5V6.5H23V7.5H25ZM24 7.5H25V5.5H24V7.5ZM24 6.5V7.5H26V6.5H24ZM25 6.5H24V8.5H25V6.5ZM30 13.5H29V14.5H30V13.5ZM30 9.5V8.5H29V9.5H30ZM31 9.5H32V8.5H31V9.5ZM31 13.5V14.5H32V13.5H31ZM26 13.5H25V14.5H26V13.5ZM26 8.5V7.5H25V8.5H26ZM30 8.5H31V7.5H30V8.5ZM30 9.5V10.5H31V9.5H30ZM27 9.5V8.5H26V9.5H27ZM27 13.5V14.5H28V13.5H27ZM31 13.5V9.5H29V13.5H31ZM30 10.5H31V8.5H30V10.5ZM30 9.5V13.5H32V9.5H30ZM31 12.5H30V14.5H31V12.5ZM27 13.5V8.5H25V13.5H27ZM26 9.5H30V7.5H26V9.5ZM29 8.5V9.5H31V8.5H29ZM30 8.5H27V10.5H30V8.5ZM26 9.5V13.5H28V9.5H26ZM27 12.5H26V14.5H27V12.5ZM32 9.5H31V10.5H32V9.5ZM32 8.5V7.5H31V8.5H32ZM33 8.5H34V7.5H33V8.5ZM33 9.5V10.5H34V9.5H33ZM33 8.5H32V9.5H33V8.5ZM33 6.5V5.5H32V6.5H33ZM34 6.5H35V5.5H34V6.5ZM34 8.5V9.5H35V8.5H34ZM33 9.5V8.5H31V9.5H33ZM32 9.5H33V7.5H32V9.5ZM32 8.5V9.5H34V8.5H32ZM33 8.5H32V10.5H33V8.5ZM34 8.5V6.5H32V8.5H34ZM33 7.5H34V5.5H33V7.5ZM33 6.5V8.5H35V6.5H33ZM34 7.5H33V9.5H34V7.5ZM35 13.5H34V14.5H35V13.5ZM35 12.5V11.5H34V12.5H35ZM39 12.5H40V11.5H39V12.5ZM39 13.5V14.5H40V13.5H39ZM39 12.5H38V13.5H39V12.5ZM39 11.5V10.5H38V11.5H39ZM40 11.5H41V10.5H40V11.5ZM40 12.5V13.5H41V12.5H40ZM36 11.5H35V12.5H36V11.5ZM36 10.5V9.5H35V10.5H36ZM39 10.5H40V9.5H39V10.5ZM39 11.5V12.5H40V11.5H39ZM35 10.5H34V11.5H35V10.5ZM35 9.5V8.5H34V9.5H35ZM36 9.5H37V8.5H36V9.5ZM36 10.5V11.5H37V10.5H36ZM36 9.5H35V10.5H36V9.5ZM36 8.5V7.5H35V8.5H36ZM40 8.5H41V7.5H40V8.5ZM40 9.5V10.5H41V9.5H40ZM36 13.5V12.5H34V13.5H36ZM35 13.5H39V11.5H35V13.5ZM38 12.5V13.5H40V12.5H38ZM39 12.5H35V14.5H39V12.5ZM40 12.5V11.5H38V12.5H40ZM39 12.5H40V10.5H39V12.5ZM39 11.5V12.5H41V11.5H39ZM40 11.5H39V13.5H40V11.5ZM37 11.5V10.5H35V11.5H37ZM36 11.5H39V9.5H36V11.5ZM38 10.5V11.5H40V10.5H38ZM39 10.5H36V12.5H39V10.5ZM36 10.5V9.5H34V10.5H36ZM35 10.5H36V8.5H35V10.5ZM35 9.5V10.5H37V9.5H35ZM36 9.5H35V11.5H36V9.5ZM37 9.5V8.5H35V9.5H37ZM36 9.5H40V7.5H36V9.5ZM39 8.5V9.5H41V8.5H39ZM40 8.5H36V10.5H40V8.5Z" fill="black"/>
<path d="M8 20.5V19.5H9V20.5H8ZM6 24.5V17.5H7V18.5H8V19.5H7V24.5H6ZM10 24.5V19.5H9V18.5H10V17.5H11V24.5H10ZM13 24.5V23.5H16V24.5H13ZM12 23.5V20.5H13V23.5H12ZM16 23.5V20.5H17V23.5H16ZM13 20.5V19.5H16V20.5H13ZM18 23.5V20.5H19V23.5H18ZM19 20.5V19.5H21V20.5H19ZM19 24.5V23.5H22V21.5H21V20.5H22V17.5H23V24.5H19ZM24 23.5V20.5H25V23.5H24ZM25 20.5V19.5H27V20.5H25ZM25 24.5V23.5H28V21.5H27V20.5H28V17.5H29V24.5H25ZM30 24.5V19.5H31V24.5H30ZM30 18.5V17.5H31V18.5H30ZM36 24.5V20.5H37V24.5H36ZM32 24.5V19.5H36V20.5H33V24.5H32ZM38 25.5V24.5H42V25.5H38ZM38 22.5V20.5H39V22.5H38ZM42 24.5V23.5H39V22.5H42V20.5H39V19.5H43V24.5H42Z" fill="url(#paint1_linear_1_18)"/>
<path d="M8 20.5H7V21.5H8V20.5ZM8 19.5V18.5H7V19.5H8ZM9 19.5H10V18.5H9V19.5ZM9 20.5V21.5H10V20.5H9ZM6 24.5H5V25.5H6V24.5ZM6 17.5V16.5H5V17.5H6ZM7 17.5H8V16.5H7V17.5ZM7 18.5H6V19.5H7V18.5ZM8 18.5H9V17.5H8V18.5ZM8 19.5V20.5H9V19.5H8ZM7 19.5V18.5H6V19.5H7ZM7 24.5V25.5H8V24.5H7ZM10 24.5H9V25.5H10V24.5ZM10 19.5H11V18.5H10V19.5ZM9 19.5H8V20.5H9V19.5ZM9 18.5V17.5H8V18.5H9ZM10 18.5V19.5H11V18.5H10ZM10 17.5V16.5H9V17.5H10ZM11 17.5H12V16.5H11V17.5ZM11 24.5V25.5H12V24.5H11ZM9 20.5V19.5H7V20.5H9ZM8 20.5H9V18.5H8V20.5ZM8 19.5V20.5H10V19.5H8ZM9 19.5H8V21.5H9V19.5ZM7 24.5V17.5H5V24.5H7ZM6 18.5H7V16.5H6V18.5ZM6 17.5V18.5H8V17.5H6ZM7 19.5H8V17.5H7V19.5ZM7 18.5V19.5H9V18.5H7ZM8 18.5H7V20.5H8V18.5ZM6 19.5V24.5H8V19.5H6ZM7 23.5H6V25.5H7V23.5ZM11 24.5V19.5H9V24.5H11ZM10 18.5H9V20.5H10V18.5ZM10 19.5V18.5H8V19.5H10ZM9 19.5H10V17.5H9V19.5ZM11 18.5V17.5H9V18.5H11ZM10 18.5H11V16.5H10V18.5ZM10 17.5V24.5H12V17.5H10ZM11 23.5H10V25.5H11V23.5ZM13 24.5H12V25.5H13V24.5ZM13 23.5V22.5H12V23.5H13ZM16 23.5H17V22.5H16V23.5ZM16 24.5V25.5H17V24.5H16ZM12 23.5H11V24.5H12V23.5ZM12 20.5V19.5H11V20.5H12ZM13 20.5H14V19.5H13V20.5ZM13 23.5V24.5H14V23.5H13ZM16 23.5H15V24.5H16V23.5ZM16 20.5V19.5H15V20.5H16ZM17 20.5H18V19.5H17V20.5ZM17 23.5V24.5H18V23.5H17ZM13 20.5H12V21.5H13V20.5ZM13 19.5V18.5H12V19.5H13ZM16 19.5H17V18.5H16V19.5ZM16 20.5V21.5H17V20.5H16ZM14 24.5V23.5H12V24.5H14ZM13 24.5H16V22.5H13V24.5ZM15 23.5V24.5H17V23.5H15ZM16 23.5H13V25.5H16V23.5ZM13 23.5V20.5H11V23.5H13ZM12 21.5H13V19.5H12V21.5ZM12 20.5V23.5H14V20.5H12ZM13 22.5H12V24.5H13V22.5ZM17 23.5V20.5H15V23.5H17ZM16 21.5H17V19.5H16V21.5ZM16 20.5V23.5H18V20.5H16ZM17 22.5H16V24.5H17V22.5ZM14 20.5V19.5H12V20.5H14ZM13 20.5H16V18.5H13V20.5ZM15 19.5V20.5H17V19.5H15ZM16 19.5H13V21.5H16V19.5ZM18 23.5H17V24.5H18V23.5ZM18 20.5V19.5H17V20.5H18ZM19 20.5H20V19.5H19V20.5ZM19 23.5V24.5H20V23.5H19ZM19 20.5H18V21.5H19V20.5ZM19 19.5V18.5H18V19.5H19ZM21 19.5H22V18.5H21V19.5ZM21 20.5V21.5H22V20.5H21ZM19 24.5H18V25.5H19V24.5ZM19 23.5V22.5H18V23.5H19ZM22 23.5V24.5H23V23.5H22ZM22 21.5H23V20.5H22V21.5ZM21 21.5H20V22.5H21V21.5ZM21 20.5V19.5H20V20.5H21ZM22 20.5V21.5H23V20.5H22ZM22 17.5V16.5H21V17.5H22ZM23 17.5H24V16.5H23V17.5ZM23 24.5V25.5H24V24.5H23ZM19 23.5V20.5H17V23.5H19ZM18 21.5H19V19.5H18V21.5ZM18 20.5V23.5H20V20.5H18ZM19 22.5H18V24.5H19V22.5ZM20 20.5V19.5H18V20.5H20ZM19 20.5H21V18.5H19V20.5ZM20 19.5V20.5H22V19.5H20ZM21 19.5H19V21.5H21V19.5ZM20 24.5V23.5H18V24.5H20ZM19 24.5H22V22.5H19V24.5ZM23 23.5V21.5H21V23.5H23ZM22 20.5H21V22.5H22V20.5ZM22 21.5V20.5H20V21.5H22ZM21 21.5H22V19.5H21V21.5ZM23 20.5V17.5H21V20.5H23ZM22 18.5H23V16.5H22V18.5ZM22 17.5V24.5H24V17.5H22ZM23 23.5H19V25.5H23V23.5ZM24 23.5H23V24.5H24V23.5ZM24 20.5V19.5H23V20.5H24ZM25 20.5H26V19.5H25V20.5ZM25 23.5V24.5H26V23.5H25ZM25 20.5H24V21.5H25V20.5ZM25 19.5V18.5H24V19.5H25ZM27 19.5H28V18.5H27V19.5ZM27 20.5V21.5H28V20.5H27ZM25 24.5H24V25.5H25V24.5ZM25 23.5V22.5H24V23.5H25ZM28 23.5V24.5H29V23.5H28ZM28 21.5H29V20.5H28V21.5ZM27 21.5H26V22.5H27V21.5ZM27 20.5V19.5H26V20.5H27ZM28 20.5V21.5H29V20.5H28ZM28 17.5V16.5H27V17.5H28ZM29 17.5H30V16.5H29V17.5ZM29 24.5V25.5H30V24.5H29ZM25 23.5V20.5H23V23.5H25ZM24 21.5H25V19.5H24V21.5ZM24 20.5V23.5H26V20.5H24ZM25 22.5H24V24.5H25V22.5ZM26 20.5V19.5H24V20.5H26ZM25 20.5H27V18.5H25V20.5ZM26 19.5V20.5H28V19.5H26ZM27 19.5H25V21.5H27V19.5ZM26 24.5V23.5H24V24.5H26ZM25 24.5H28V22.5H25V24.5ZM29 23.5V21.5H27V23.5H29ZM28 20.5H27V22.5H28V20.5ZM28 21.5V20.5H26V21.5H28ZM27 21.5H28V19.5H27V21.5ZM29 20.5V17.5H27V20.5H29ZM28 18.5H29V16.5H28V18.5ZM28 17.5V24.5H30V17.5H28ZM29 23.5H25V25.5H29V23.5ZM30 24.5H29V25.5H30V24.5ZM30 19.5V18.5H29V19.5H30ZM31 19.5H32V18.5H31V19.5ZM31 24.5V25.5H32V24.5H31ZM30 18.5H29V19.5H30V18.5ZM30 17.5V16.5H29V17.5H30ZM31 17.5H32V16.5H31V17.5ZM31 18.5V19.5H32V18.5H31ZM31 24.5V19.5H29V24.5H31ZM30 20.5H31V18.5H30V20.5ZM30 19.5V24.5H32V19.5H30ZM31 23.5H30V25.5H31V23.5ZM31 18.5V17.5H29V18.5H31ZM30 18.5H31V16.5H30V18.5ZM30 17.5V18.5H32V17.5H30ZM31 17.5H30V19.5H31V17.5ZM36 24.5H35V25.5H36V24.5ZM36 20.5V19.5H35V20.5H36ZM37 20.5H38V19.5H37V20.5ZM37 24.5V25.5H38V24.5H37ZM32 24.5H31V25.5H32V24.5ZM32 19.5V18.5H31V19.5H32ZM36 19.5H37V18.5H36V19.5ZM36 20.5V21.5H37V20.5H36ZM33 20.5V19.5H32V20.5H33ZM33 24.5V25.5H34V24.5H33ZM37 24.5V20.5H35V24.5H37ZM36 21.5H37V19.5H36V21.5ZM36 20.5V24.5H38V20.5H36ZM37 23.5H36V25.5H37V23.5ZM33 24.5V19.5H31V24.5H33ZM32 20.5H36V18.5H32V20.5ZM35 19.5V20.5H37V19.5H35ZM36 19.5H33V21.5H36V19.5ZM32 20.5V24.5H34V20.5H32ZM33 23.5H32V25.5H33V23.5ZM38 25.5H37V26.5H38V25.5ZM38 24.5V23.5H37V24.5H38ZM42 24.5H43V23.5H42V24.5ZM42 25.5V26.5H43V25.5H42ZM38 22.5H37V23.5H38V22.5ZM38 20.5V19.5H37V20.5H38ZM39 20.5H40V19.5H39V20.5ZM39 22.5V23.5H40V22.5H39ZM42 24.5H41V25.5H42V24.5ZM42 23.5H43V22.5H42V23.5ZM39 23.5H38V24.5H39V23.5ZM39 22.5V21.5H38V22.5H39ZM42 22.5V23.5H43V22.5H42ZM42 20.5H43V19.5H42V20.5ZM39 20.5H38V21.5H39V20.5ZM39 19.5V18.5H38V19.5H39ZM43 19.5H44V18.5H43V19.5ZM43 24.5V25.5H44V24.5H43ZM39 25.5V24.5H37V25.5H39ZM38 25.5H42V23.5H38V25.5ZM41 24.5V25.5H43V24.5H41ZM42 24.5H38V26.5H42V24.5ZM39 22.5V20.5H37V22.5H39ZM38 21.5H39V19.5H38V21.5ZM38 20.5V22.5H40V20.5H38ZM39 21.5H38V23.5H39V21.5ZM43 24.5V23.5H41V24.5H43ZM42 22.5H39V24.5H42V22.5ZM40 23.5V22.5H38V23.5H40ZM39 23.5H42V21.5H39V23.5ZM43 22.5V20.5H41V22.5H43ZM42 19.5H39V21.5H42V19.5ZM40 20.5V19.5H38V20.5H40ZM39 20.5H43V18.5H39V20.5ZM42 19.5V24.5H44V19.5H42ZM43 23.5H42V25.5H43V23.5Z" fill="black"/>
</g>
<defs>
<linearGradient id="paint0_linear_1_18" x1="23.5" y1="5.5" x2="23.5" y2="16.5" gradientUnits="userSpaceOnUse">
<stop stop-color="white"/>
<stop offset="1" stop-color="#7E7E7E"/>
</linearGradient>
<linearGradient id="paint1_linear_1_18" x1="25" y1="16.5" x2="25" y2="27.5" gradientUnits="userSpaceOnUse">
<stop stop-color="white"/>
<stop offset="1" stop-color="#7E7E7E"/>
</linearGradient>
<clipPath id="clip0_1_18">
<rect width="61" height="31" fill="white"/>
</clipPath>
</defs>
</svg>
