<svg width="16" height="16" viewBox="0 0 16 16" fill="none" xmlns="http://www.w3.org/2000/svg">
<g clip-path="url(#clip0_1_122)">
<rect width="16" height="16" fill="white"/>
<rect y="-0.25" width="16" height="0.5" fill="#F0F0F0"/>
<rect y="1.75" width="16" height="0.5" fill="#F0F0F0"/>
<rect y="3.75" width="16" height="0.5" fill="#F0F0F0"/>
<rect y="5.75" width="16" height="0.5" fill="#F0F0F0"/>
<rect y="7.75" width="16" height="0.5" fill="#F0F0F0"/>
<rect y="9.75" width="16" height="0.5" fill="#F0F0F0"/>
<rect y="11.75" width="16" height="0.5" fill="#F0F0F0"/>
<rect y="13.75" width="16" height="0.5" fill="#F0F0F0"/>
<rect y="15.75" width="16" height="0.5" fill="#F0F0F0"/>
<rect x="16.25" y="1.33514e-05" width="16" height="0.5" transform="rotate(90 16.25 1.33514e-05)" fill="#F0F0F0"/>
<rect x="14.25" y="1.28746e-05" width="16" height="0.5" transform="rotate(90 14.25 1.28746e-05)" fill="#F0F0F0"/>
<rect x="12.25" y="1.28746e-05" width="16" height="0.5" transform="rotate(90 12.25 1.28746e-05)" fill="#F0F0F0"/>
<rect x="10.25" y="1.28746e-05" width="16" height="0.5" transform="rotate(90 10.25 1.28746e-05)" fill="#F0F0F0"/>
<rect x="8.25" y="1.28746e-05" width="16" height="0.5" transform="rotate(90 8.25 1.28746e-05)" fill="#F0F0F0"/>
<rect x="6.25" y="1.23978e-05" width="16" height="0.5" transform="rotate(90 6.25 1.23978e-05)" fill="#F0F0F0"/>
<rect x="4.25" y="1.23978e-05" width="16" height="0.5" transform="rotate(90 4.25 1.23978e-05)" fill="#F0F0F0"/>
<rect x="2.25" y="1.23978e-05" width="16" height="0.5" transform="rotate(90 2.25 1.23978e-05)" fill="#F0F0F0"/>
<rect x="0.25" y="1.23978e-05" width="16" height="0.5" transform="rotate(90 0.25 1.23978e-05)" fill="#F0F0F0"/>
<rect x="2.21515" y="3.42883" width="1.01015" height="2.02031" rx="0.25" transform="rotate(8.87536 2.21515 3.42883)" fill="#C2C2C2"/>
<rect x="1.43588" y="8.41917" width="1.01015" height="2.02031" rx="0.25" transform="rotate(8.87536 1.43588 8.41917)" fill="#C2C2C2"/>
<rect x="-1.24657" y="5.95547" width="2.02031" height="1.01015" rx="0.25" transform="rotate(8.87536 -1.24657 5.95547)" fill="#C2C2C2"/>
<rect x="3.74371" y="6.73473" width="2.02031" height="1.01015" rx="0.25" transform="rotate(8.87536 3.74371 6.73473)" fill="#C2C2C2"/>
<rect x="4.72672" y="4.50767" width="1.01015" height="2.0203" rx="0.25" transform="rotate(53.8754 4.72672 4.50767)" fill="#C2C2C2"/>
<rect x="0.647026" y="7.48528" width="1.01015" height="2.0203" rx="0.25" transform="rotate(53.8754 0.647026 7.48528)" fill="#C2C2C2"/>
<rect x="0.49231" y="3.84645" width="2.0203" height="1.01015" rx="0.25" transform="rotate(53.8754 0.49231 3.84645)" fill="#C2C2C2"/>
<rect x="3.46996" y="7.9261" width="2.0203" height="1.01015" rx="0.25" transform="rotate(53.8754 3.46996 7.9261)" fill="#C2C2C2"/>
<path fill-rule="evenodd" clip-rule="evenodd" d="M1.77906 9.4951C3.15709 9.71029 4.44865 8.76762 4.66384 7.38959C4.87902 6.01156 3.93635 4.72 2.55832 4.50481C1.18029 4.28963 -0.111264 5.2323 -0.326451 6.61033C-0.541637 7.98836 0.401033 9.27991 1.77906 9.4951ZM1.93492 8.49708C2.76174 8.6262 3.53667 8.06059 3.66578 7.23378C3.7949 6.40696 3.22929 5.63202 2.40248 5.50291C1.57566 5.3738 0.800724 5.9394 0.671612 6.76622C0.5425 7.59304 1.1081 8.36797 1.93492 8.49708Z" fill="#C2C2C2"/>
<rect x="13.1031" y="9.88334" width="0.909137" height="1.81827" rx="0.25" transform="rotate(8.22765 13.1031 9.88334)" fill="#C2C2C2"/>
<rect x="12.4526" y="14.3823" width="0.909137" height="1.81827" rx="0.25" transform="rotate(8.22765 12.4526 14.3823)" fill="#C2C2C2"/>
<rect x="10.0135" y="12.1924" width="1.81827" height="0.909137" rx="0.25" transform="rotate(8.22765 10.0135 12.1924)" fill="#C2C2C2"/>
<rect x="14.5124" y="12.8429" width="1.81827" height="0.909137" rx="0.25" transform="rotate(8.22765 14.5124 12.8429)" fill="#C2C2C2"/>
<rect x="15.3744" y="10.8287" width="0.909137" height="1.81827" rx="0.25" transform="rotate(53.2277 15.3744 10.8287)" fill="#C2C2C2"/>
<rect x="11.7332" y="13.5498" width="0.909137" height="1.81827" rx="0.25" transform="rotate(53.2277 11.7332 13.5498)" fill="#C2C2C2"/>
<rect x="11.5569" y="10.2767" width="1.81827" height="0.909137" rx="0.25" transform="rotate(53.2277 11.5569 10.2767)" fill="#C2C2C2"/>
<rect x="14.2781" y="13.9178" width="1.81827" height="0.909137" rx="0.25" transform="rotate(53.2277 14.2781 13.9178)" fill="#C2C2C2"/>
<path fill-rule="evenodd" clip-rule="evenodd" d="M12.7724 15.3471C14.0147 15.5267 15.1675 14.6652 15.3471 13.4229C15.5267 12.1805 14.6652 11.0278 13.4229 10.8482C12.1806 10.6685 11.0278 11.53 10.8482 12.7724C10.6686 14.0147 11.53 15.1674 12.7724 15.3471ZM12.9025 14.4473C13.6479 14.5551 14.3395 14.0382 14.4473 13.2928C14.5551 12.5474 14.0382 11.8557 13.2928 11.748C12.5474 11.6402 11.8558 12.1571 11.748 12.9025C11.6402 13.6479 12.1571 14.3395 12.9025 14.4473Z" fill="#C2C2C2"/>
<rect x="13.6248" y="0.940068" width="1.21218" height="2.42437" rx="0.25" transform="rotate(-10.5772 13.6248 0.940068)" fill="#C2C2C2"/>
<rect x="14.7374" y="6.89807" width="1.21218" height="2.42437" rx="0.25" transform="rotate(-10.5772 14.7374 6.89807)" fill="#C2C2C2"/>
<rect x="10.7176" y="5.18241" width="2.42437" height="1.21218" rx="0.25" transform="rotate(-10.5772 10.7176 5.18241)" fill="#C2C2C2"/>
<rect x="16.8978" y="1.15706" width="1.21218" height="2.42437" rx="0.25" transform="rotate(34.4228 16.8978 1.15706)" fill="#C2C2C2"/>
<rect x="13.4716" y="6.15654" width="1.21218" height="2.42437" rx="0.25" transform="rotate(34.4228 13.4716 6.15654)" fill="#C2C2C2"/>
<rect x="11.8423" y="2.10109" width="2.42437" height="1.21218" rx="0.25" transform="rotate(34.4228 11.8423 2.10109)" fill="#C2C2C2"/>
<path fill-rule="evenodd" clip-rule="evenodd" d="M15.5557 7.97829C17.2009 7.67107 18.2856 6.08828 17.9784 4.44305C17.6711 2.79781 16.0884 1.71313 14.4431 2.02035C12.7979 2.32758 11.7132 3.91036 12.0204 5.55559C12.3277 7.20083 13.9104 8.28551 15.5557 7.97829ZM15.3332 6.78676C16.3203 6.60243 16.9711 5.65276 16.7868 4.66562C16.6025 3.67847 15.6528 3.02767 14.6657 3.212C13.6785 3.39633 13.0277 4.346 13.212 5.33314C13.3964 6.32029 14.346 6.97109 15.3332 6.78676Z" fill="#C2C2C2"/>
<rect x="7.80022" y="4.60652" width="1.33333" height="6.66667" transform="rotate(7.94064 7.80022 4.60652)" fill="black"/>
<path d="M6.66386 3.10177C6.56214 3.83109 7.0709 4.50479 7.80022 4.60652L9.12077 4.79072C9.85008 4.89244 10.5238 4.38368 10.6255 3.65436L6.66386 3.10177Z" fill="black"/>
<path d="M6.77899 2.27643C6.81714 2.00294 7.06977 1.81215 7.34327 1.8503L8.16861 1.96542L7.98441 3.28597L6.66386 3.10177L6.77899 2.27643Z" fill="black"/>
<path d="M9.48916 2.14962L10.3145 2.26474C10.588 2.30289 10.7788 2.55553 10.7406 2.82902L10.6255 3.65436L9.30496 3.47017L9.48916 2.14962Z" fill="black"/>
<path d="M9.33614 12.8982C9.43786 12.1689 8.9291 11.4952 8.19978 11.3935L6.87923 11.2093C6.14992 11.1075 5.47622 11.6163 5.37449 12.3456L9.33614 12.8982Z" fill="black"/>
<path d="M9.22101 13.7235C9.18286 13.997 8.93023 14.1878 8.65673 14.1497L7.83139 14.0346L8.01559 12.714L9.33614 12.8982L9.22101 13.7235Z" fill="black"/>
<path d="M6.51084 13.8504L5.6855 13.7352C5.412 13.6971 5.22122 13.4445 5.25937 13.171L5.37449 12.3456L6.69504 12.5298L6.51084 13.8504Z" fill="black"/>
</g>
<defs>
<clipPath id="clip0_1_122">
<rect width="16" height="16" fill="white"/>
</clipPath>
</defs>
</svg>
