<svg width="72" height="36" viewBox="0 0 72 36" fill="none" xmlns="http://www.w3.org/2000/svg">
<rect width="72" height="36" fill="#121321"/>
<path d="M6.52759 21L4.11159 15.4H5.51159L7.62359 20.36H6.79959L8.94359 15.4H10.2316L7.80759 21H6.52759ZM12.2787 21.064C11.9214 21.064 11.6014 20.9947 11.3187 20.856C11.0414 20.7173 10.8254 20.5067 10.6707 20.224C10.5161 19.936 10.4387 19.5707 10.4387 19.128V16.696H11.6867V18.944C11.6867 19.3013 11.7614 19.5653 11.9107 19.736C12.0654 19.9013 12.2814 19.984 12.5587 19.984C12.7507 19.984 12.9214 19.944 13.0707 19.864C13.2201 19.7787 13.3374 19.6507 13.4227 19.48C13.5081 19.304 13.5507 19.0853 13.5507 18.824V16.696H14.7987V21H13.6147V19.816L13.8307 20.16C13.6867 20.4587 13.4734 20.6853 13.1907 20.84C12.9134 20.9893 12.6094 21.064 12.2787 21.064ZM15.9549 21V15.064H17.2029V21H15.9549ZM19.3932 20.12L19.4252 18.6L21.4332 16.696H22.9212L20.9932 18.656L20.3452 19.184L19.3932 20.12ZM18.3612 21V15.064H19.6092V21H18.3612ZM21.5692 21L20.1132 19.192L20.8972 18.224L23.0812 21H21.5692ZM26.2043 21V20.16L26.1243 19.976V18.472C26.1243 18.2053 26.0416 17.9973 25.8763 17.848C25.7163 17.6987 25.4683 17.624 25.1323 17.624C24.9029 17.624 24.6763 17.6613 24.4523 17.736C24.2336 17.8053 24.0469 17.9013 23.8923 18.024L23.4443 17.152C23.6789 16.9867 23.9616 16.8587 24.2923 16.768C24.6229 16.6773 24.9589 16.632 25.3003 16.632C25.9563 16.632 26.4656 16.7867 26.8283 17.096C27.1909 17.4053 27.3723 17.888 27.3723 18.544V21H26.2043ZM24.8923 21.064C24.5563 21.064 24.2683 21.008 24.0283 20.896C23.7883 20.7787 23.6043 20.6213 23.4763 20.424C23.3483 20.2267 23.2843 20.0053 23.2843 19.76C23.2843 19.504 23.3456 19.28 23.4683 19.088C23.5963 18.896 23.7963 18.7467 24.0683 18.64C24.3403 18.528 24.6949 18.472 25.1323 18.472H26.2763V19.2H25.2683C24.9749 19.2 24.7723 19.248 24.6603 19.344C24.5536 19.44 24.5003 19.56 24.5003 19.704C24.5003 19.864 24.5616 19.992 24.6843 20.088C24.8123 20.1787 24.9856 20.224 25.2043 20.224C25.4123 20.224 25.5989 20.176 25.7643 20.08C25.9296 19.9787 26.0496 19.832 26.1243 19.64L26.3163 20.216C26.2256 20.4933 26.0603 20.704 25.8203 20.848C25.5803 20.992 25.2709 21.064 24.8923 21.064ZM30.381 21.064C29.9757 21.064 29.6104 20.9733 29.285 20.792C28.9597 20.6053 28.701 20.3467 28.509 20.016C28.3224 19.6853 28.229 19.296 28.229 18.848C28.229 18.3947 28.3224 18.0027 28.509 17.672C28.701 17.3413 28.9597 17.0853 29.285 16.904C29.6104 16.7227 29.9757 16.632 30.381 16.632C30.7437 16.632 31.061 16.712 31.333 16.872C31.605 17.032 31.8157 17.2747 31.965 17.6C32.1144 17.9253 32.189 18.3413 32.189 18.848C32.189 19.3493 32.117 19.7653 31.973 20.096C31.829 20.4213 31.621 20.664 31.349 20.824C31.0824 20.984 30.7597 21.064 30.381 21.064ZM30.597 20.04C30.7997 20.04 30.9837 19.992 31.149 19.896C31.3144 19.8 31.445 19.664 31.541 19.488C31.6424 19.3067 31.693 19.0933 31.693 18.848C31.693 18.5973 31.6424 18.384 31.541 18.208C31.445 18.032 31.3144 17.896 31.149 17.8C30.9837 17.704 30.7997 17.656 30.597 17.656C30.389 17.656 30.2024 17.704 30.037 17.8C29.8717 17.896 29.7384 18.032 29.637 18.208C29.541 18.384 29.493 18.5973 29.493 18.848C29.493 19.0933 29.541 19.3067 29.637 19.488C29.7384 19.664 29.8717 19.8 30.037 19.896C30.2024 19.992 30.389 20.04 30.597 20.04ZM31.725 21V20.12L31.749 18.84L31.669 17.568V15.064H32.917V21H31.725ZM34.0721 21V16.696H35.2641V17.912L35.0961 17.56C35.2241 17.256 35.4294 17.0267 35.7121 16.872C35.9948 16.712 36.3388 16.632 36.7441 16.632V17.784C36.6908 17.7787 36.6428 17.776 36.6001 17.776C36.5574 17.7707 36.5121 17.768 36.4641 17.768C36.1228 17.768 35.8454 17.8667 35.6321 18.064C35.4241 18.256 35.3201 18.5573 35.3201 18.968V21H34.0721ZM39.5909 21.064C39.1002 21.064 38.6682 20.968 38.2949 20.776C37.9269 20.584 37.6416 20.3227 37.4389 19.992C37.2362 19.656 37.1349 19.2747 37.1349 18.848C37.1349 18.416 37.2336 18.0347 37.4309 17.704C37.6336 17.368 37.9082 17.1067 38.2549 16.92C38.6016 16.728 38.9936 16.632 39.4309 16.632C39.8522 16.632 40.2309 16.7227 40.5669 16.904C40.9082 17.08 41.1776 17.336 41.3749 17.672C41.5722 18.0027 41.6709 18.4 41.6709 18.864C41.6709 18.912 41.6682 18.968 41.6629 19.032C41.6576 19.0907 41.6522 19.1467 41.6469 19.2H38.1509V18.472H40.9909L40.5109 18.688C40.5109 18.464 40.4656 18.2693 40.3749 18.104C40.2842 17.9387 40.1589 17.8107 39.9989 17.72C39.8389 17.624 39.6522 17.576 39.4389 17.576C39.2256 17.576 39.0362 17.624 38.8709 17.72C38.7109 17.8107 38.5856 17.9413 38.4949 18.112C38.4042 18.2773 38.3589 18.4747 38.3589 18.704V18.896C38.3589 19.1307 38.4096 19.3387 38.5109 19.52C38.6176 19.696 38.7642 19.832 38.9509 19.928C39.1429 20.0187 39.3669 20.064 39.6229 20.064C39.8522 20.064 40.0522 20.0293 40.2229 19.96C40.3989 19.8907 40.5589 19.7867 40.7029 19.648L41.3669 20.368C41.1696 20.592 40.9216 20.7653 40.6229 20.888C40.3242 21.0053 39.9802 21.064 39.5909 21.064ZM45.1178 16.632C45.4591 16.632 45.7631 16.7013 46.0298 16.84C46.3018 16.9733 46.5151 17.1813 46.6698 17.464C46.8244 17.7413 46.9018 18.0987 46.9018 18.536V21H45.6538V18.728C45.6538 18.3813 45.5764 18.1253 45.4218 17.96C45.2724 17.7947 45.0591 17.712 44.7818 17.712C44.5844 17.712 44.4058 17.7547 44.2458 17.84C44.0911 17.92 43.9684 18.0453 43.8778 18.216C43.7924 18.3867 43.7498 18.6053 43.7498 18.872V21H42.5018V16.696H43.6938V17.888L43.4698 17.528C43.6244 17.24 43.8458 17.0187 44.1338 16.864C44.4218 16.7093 44.7498 16.632 45.1178 16.632ZM50.673 21V20.16L50.593 19.976V18.472C50.593 18.2053 50.5104 17.9973 50.345 17.848C50.185 17.6987 49.937 17.624 49.601 17.624C49.3717 17.624 49.145 17.6613 48.921 17.736C48.7024 17.8053 48.5157 17.9013 48.361 18.024L47.913 17.152C48.1477 16.9867 48.4304 16.8587 48.761 16.768C49.0917 16.6773 49.4277 16.632 49.769 16.632C50.425 16.632 50.9344 16.7867 51.297 17.096C51.6597 17.4053 51.841 17.888 51.841 18.544V21H50.673ZM49.361 21.064C49.025 21.064 48.737 21.008 48.497 20.896C48.257 20.7787 48.073 20.6213 47.945 20.424C47.817 20.2267 47.753 20.0053 47.753 19.76C47.753 19.504 47.8144 19.28 47.937 19.088C48.065 18.896 48.265 18.7467 48.537 18.64C48.809 18.528 49.1637 18.472 49.601 18.472H50.745V19.2H49.737C49.4437 19.2 49.241 19.248 49.129 19.344C49.0224 19.44 48.969 19.56 48.969 19.704C48.969 19.864 49.0304 19.992 49.153 20.088C49.281 20.1787 49.4544 20.224 49.673 20.224C49.881 20.224 50.0677 20.176 50.233 20.08C50.3984 19.9787 50.5184 19.832 50.593 19.64L50.785 20.216C50.6944 20.4933 50.529 20.704 50.289 20.848C50.049 20.992 49.7397 21.064 49.361 21.064ZM52.9705 21V15.064H54.2185V21H52.9705ZM55.3768 21V16.696H56.6248V21H55.3768ZM56.0008 16.096C55.7714 16.096 55.5848 16.0293 55.4408 15.896C55.2968 15.7627 55.2248 15.5973 55.2248 15.4C55.2248 15.2027 55.2968 15.0373 55.4408 14.904C55.5848 14.7707 55.7714 14.704 56.0008 14.704C56.2301 14.704 56.4168 14.768 56.5608 14.896C56.7048 15.0187 56.7768 15.1787 56.7768 15.376C56.7768 15.584 56.7048 15.7573 56.5608 15.896C56.4221 16.0293 56.2354 16.096 56.0008 16.096ZM60.399 16.632C60.7404 16.632 61.0444 16.7013 61.311 16.84C61.583 16.9733 61.7964 17.1813 61.951 17.464C62.1057 17.7413 62.183 18.0987 62.183 18.536V21H60.935V18.728C60.935 18.3813 60.8577 18.1253 60.703 17.96C60.5537 17.7947 60.3404 17.712 60.063 17.712C59.8657 17.712 59.687 17.7547 59.527 17.84C59.3724 17.92 59.2497 18.0453 59.159 18.216C59.0737 18.3867 59.031 18.6053 59.031 18.872V21H57.783V16.696H58.975V17.888L58.751 17.528C58.9057 17.24 59.127 17.0187 59.415 16.864C59.703 16.7093 60.031 16.632 60.399 16.632ZM65.4815 21.064C64.9909 21.064 64.5589 20.968 64.1855 20.776C63.8175 20.584 63.5322 20.3227 63.3295 19.992C63.1269 19.656 63.0255 19.2747 63.0255 18.848C63.0255 18.416 63.1242 18.0347 63.3215 17.704C63.5242 17.368 63.7989 17.1067 64.1455 16.92C64.4922 16.728 64.8842 16.632 65.3215 16.632C65.7429 16.632 66.1215 16.7227 66.4575 16.904C66.7989 17.08 67.0682 17.336 67.2655 17.672C67.4629 18.0027 67.5615 18.4 67.5615 18.864C67.5615 18.912 67.5589 18.968 67.5535 19.032C67.5482 19.0907 67.5429 19.1467 67.5375 19.2H64.0415V18.472H66.8815L66.4015 18.688C66.4015 18.464 66.3562 18.2693 66.2655 18.104C66.1749 17.9387 66.0495 17.8107 65.8895 17.72C65.7295 17.624 65.5429 17.576 65.3295 17.576C65.1162 17.576 64.9269 17.624 64.7615 17.72C64.6015 17.8107 64.4762 17.9413 64.3855 18.112C64.2949 18.2773 64.2495 18.4747 64.2495 18.704V18.896C64.2495 19.1307 64.3002 19.3387 64.4015 19.52C64.5082 19.696 64.6549 19.832 64.8415 19.928C65.0335 20.0187 65.2575 20.064 65.5135 20.064C65.7429 20.064 65.9429 20.0293 66.1135 19.96C66.2895 19.8907 66.4495 19.7867 66.5935 19.648L67.2575 20.368C67.0602 20.592 66.8122 20.7653 66.5135 20.888C66.2149 21.0053 65.8709 21.064 65.4815 21.064Z" fill="#A74141"/>
<path d="M6.52759 21L5.6094 21.3961C5.76752 21.7626 6.12844 22 6.52759 22V21ZM4.11159 15.4V14.4C3.77502 14.4 3.46103 14.5693 3.27609 14.8505C3.09115 15.1317 3.06007 15.4871 3.1934 15.7961L4.11159 15.4ZM5.51159 15.4L6.43166 15.0082C6.27461 14.6394 5.91247 14.4 5.51159 14.4V15.4ZM7.62359 20.36V21.36C7.95932 21.36 8.27265 21.1915 8.45779 20.9115C8.64293 20.6314 8.67519 20.2771 8.54366 19.9682L7.62359 20.36ZM6.79959 20.36L5.88168 19.9632C5.74809 20.2723 5.77899 20.6278 5.9639 20.9092C6.14881 21.1906 6.4629 21.36 6.79959 21.36V20.36ZM8.94359 15.4V14.4C8.5447 14.4 8.18395 14.6371 8.02568 15.0032L8.94359 15.4ZM10.2316 15.4L11.1493 15.7972C11.2831 15.4882 11.2523 15.1325 11.0674 14.851C10.8825 14.5695 10.5684 14.4 10.2316 14.4V15.4ZM7.80759 21V22C8.20631 22 8.56692 21.7631 8.72531 21.3972L7.80759 21ZM7.44579 20.6039L5.02979 15.0039L3.1934 15.7961L5.6094 21.3961L7.44579 20.6039ZM4.11159 16.4H5.51159V14.4H4.11159V16.4ZM4.59153 15.7918L6.70353 20.7518L8.54366 19.9682L6.43166 15.0082L4.59153 15.7918ZM7.62359 19.36H6.79959V21.36H7.62359V19.36ZM7.71751 20.7568L9.86151 15.7968L8.02568 15.0032L5.88168 19.9632L7.71751 20.7568ZM8.94359 16.4H10.2316V14.4H8.94359V16.4ZM9.31388 15.0028L6.88988 20.6028L8.72531 21.3972L11.1493 15.7972L9.31388 15.0028ZM7.80759 20H6.52759V22H7.80759V20ZM11.3187 20.856L10.8715 21.7505L10.8783 21.7538L11.3187 20.856ZM10.6707 20.224L9.7897 20.6971L9.79346 20.704L10.6707 20.224ZM10.4387 16.696V15.696C9.88643 15.696 9.43872 16.1437 9.43872 16.696H10.4387ZM11.6867 16.696H12.6867C12.6867 16.1437 12.239 15.696 11.6867 15.696V16.696ZM11.9107 19.736L11.1581 20.3945C11.1654 20.4028 11.1729 20.4111 11.1804 20.4192L11.9107 19.736ZM13.0707 19.864L13.5429 20.7455C13.551 20.7412 13.5589 20.7368 13.5669 20.7322L13.0707 19.864ZM13.4227 19.48L14.3172 19.9272L14.3225 19.9163L13.4227 19.48ZM13.5507 16.696V15.696C12.9984 15.696 12.5507 16.1437 12.5507 16.696H13.5507ZM14.7987 16.696H15.7987C15.7987 16.1437 15.351 15.696 14.7987 15.696V16.696ZM14.7987 21V22C15.351 22 15.7987 21.5523 15.7987 21H14.7987ZM13.6147 21H12.6147C12.6147 21.5523 13.0624 22 13.6147 22V21ZM13.6147 19.816L14.4616 19.2842C14.2246 18.9068 13.7664 18.7317 13.338 18.855C12.9097 18.9784 12.6147 19.3703 12.6147 19.816H13.6147ZM13.8307 20.16L14.7315 20.5943C14.8809 20.2844 14.8605 19.9196 14.6776 19.6282L13.8307 20.16ZM13.1907 20.84L13.6648 21.7205L13.6707 21.7173L13.1907 20.84ZM12.2787 20.064C12.0534 20.064 11.8873 20.0211 11.7591 19.9582L10.8783 21.7538C11.3155 21.9683 11.7894 22.064 12.2787 22.064V20.064ZM11.7659 19.9616C11.6783 19.9177 11.6089 19.8554 11.548 19.744L9.79346 20.704C10.0418 21.158 10.4045 21.5169 10.8715 21.7504L11.7659 19.9616ZM11.5517 19.7509C11.4979 19.6507 11.4387 19.4614 11.4387 19.128H9.43872C9.43872 19.6799 9.53419 20.2213 9.78972 20.6971L11.5517 19.7509ZM11.4387 19.128V16.696H9.43872V19.128H11.4387ZM10.4387 17.696H11.6867V15.696H10.4387V17.696ZM10.6867 16.696V18.944H12.6867V16.696H10.6867ZM10.6867 18.944C10.6867 19.4111 10.7796 19.9618 11.1581 20.3945L12.6633 19.0775C12.7046 19.1248 12.7103 19.1566 12.705 19.1378C12.6989 19.1164 12.6867 19.0568 12.6867 18.944H10.6867ZM11.1804 20.4192C11.5655 20.8308 12.0715 20.984 12.5587 20.984V18.984C12.5185 18.984 12.5198 18.978 12.5462 18.9881C12.5594 18.9931 12.5762 19.0013 12.5943 19.0134C12.6125 19.0255 12.6282 19.0392 12.641 19.0528L11.1804 20.4192ZM12.5587 20.984C12.8933 20.984 13.23 20.9132 13.5429 20.7455L12.5985 18.9825C12.6034 18.9799 12.6058 18.9796 12.6025 18.9804C12.5987 18.9813 12.5851 18.984 12.5587 18.984V20.984ZM13.5669 20.7322C13.9061 20.5384 14.1536 20.2544 14.3171 19.9272L12.5283 19.0328C12.5231 19.0431 12.5236 19.0392 12.5336 19.0283C12.5441 19.0168 12.5586 19.0049 12.5746 18.9958L13.5669 20.7322ZM14.3225 19.9163C14.4921 19.5666 14.5507 19.188 14.5507 18.824H12.5507C12.5507 18.9826 12.524 19.0414 12.5229 19.0437L14.3225 19.9163ZM14.5507 18.824V16.696H12.5507V18.824H14.5507ZM13.5507 17.696H14.7987V15.696H13.5507V17.696ZM13.7987 16.696V21H15.7987V16.696H13.7987ZM14.7987 20H13.6147V22H14.7987V20ZM14.6147 21V19.816H12.6147V21H14.6147ZM12.7678 20.3478L12.9838 20.6918L14.6776 19.6282L14.4616 19.2842L12.7678 20.3478ZM12.93 19.7257C12.8737 19.8423 12.8047 19.9113 12.7107 19.9627L13.6707 21.7173C14.142 21.4594 14.4997 21.0751 14.7315 20.5943L12.93 19.7257ZM12.7166 19.9595C12.5923 20.0265 12.4524 20.064 12.2787 20.064V22.064C12.7664 22.064 13.2345 21.9522 13.6648 21.7205L12.7166 19.9595ZM15.9549 21H14.9549C14.9549 21.5523 15.4026 22 15.9549 22V21ZM15.9549 15.064V14.064C15.4026 14.064 14.9549 14.5117 14.9549 15.064H15.9549ZM17.2029 15.064H18.2029C18.2029 14.5117 17.7552 14.064 17.2029 14.064V15.064ZM17.2029 21V22C17.7552 22 18.2029 21.5523 18.2029 21H17.2029ZM16.9549 21V15.064H14.9549V21H16.9549ZM15.9549 16.064H17.2029V14.064H15.9549V16.064ZM16.2029 15.064V21H18.2029V15.064H16.2029ZM17.2029 20H15.9549V22H17.2029V20ZM19.3932 20.12L18.3934 20.099C18.3848 20.5056 18.6234 20.8769 18.9969 21.0381C19.3703 21.1993 19.8042 21.1182 20.0942 20.8331L19.3932 20.12ZM19.4252 18.6L18.7371 17.8744C18.5432 18.0582 18.431 18.3119 18.4254 18.579L19.4252 18.6ZM21.4332 16.696V15.696C21.1771 15.696 20.9309 15.7942 20.7451 15.9704L21.4332 16.696ZM22.9212 16.696L23.6341 17.3973C23.9166 17.11 23.9992 16.6812 23.8435 16.3095C23.6877 15.9379 23.3241 15.696 22.9212 15.696V16.696ZM20.9932 18.656L21.6248 19.4312C21.6532 19.4081 21.6804 19.3834 21.7061 19.3573L20.9932 18.656ZM20.3452 19.184L19.7135 18.4088C19.6894 18.4284 19.6662 18.4491 19.6441 18.4709L20.3452 19.184ZM18.3612 21H17.3612C17.3612 21.5523 17.8089 22 18.3612 22V21ZM18.3612 15.064V14.064C17.8089 14.064 17.3612 14.5117 17.3612 15.064H18.3612ZM19.6092 15.064H20.6092C20.6092 14.5117 20.1614 14.064 19.6092 14.064V15.064ZM19.6092 21V22C20.1614 22 20.6092 21.5523 20.6092 21H19.6092ZM21.5692 21L20.7903 21.6272C20.9801 21.8629 21.2665 22 21.5692 22V21ZM20.1132 19.192L19.3361 18.5626C19.0395 18.9288 19.0388 19.4522 19.3343 19.8192L20.1132 19.192ZM20.8972 18.224L21.6831 17.6057C21.495 17.3666 21.2084 17.2262 20.9042 17.224C20.6001 17.2219 20.3115 17.3583 20.1201 17.5946L20.8972 18.224ZM23.0812 21V22C23.4641 22 23.8134 21.7813 23.9807 21.4369C24.148 21.0924 24.1039 20.6826 23.8671 20.3817L23.0812 21ZM20.3929 20.141L20.4249 18.621L18.4254 18.579L18.3934 20.099L20.3929 20.141ZM20.1132 19.3256L22.1212 17.4216L20.7451 15.9704L18.7371 17.8744L20.1132 19.3256ZM21.4332 17.696H22.9212V15.696H21.4332V17.696ZM22.2083 15.9947L20.2803 17.9547L21.7061 19.3573L23.6341 17.3973L22.2083 15.9947ZM20.3615 17.8808L19.7135 18.4088L20.9768 19.9592L21.6248 19.4312L20.3615 17.8808ZM19.6441 18.4709L18.6921 19.4069L20.0942 20.8331L21.0462 19.8971L19.6441 18.4709ZM19.3612 21V15.064H17.3612V21H19.3612ZM18.3612 16.064H19.6092V14.064H18.3612V16.064ZM18.6092 15.064V21H20.6092V15.064H18.6092ZM19.6092 20H18.3612V22H19.6092V20ZM22.348 20.3728L20.892 18.5648L19.3343 19.8192L20.7903 21.6272L22.348 20.3728ZM20.8903 19.8214L21.6743 18.8534L20.1201 17.5946L19.3361 18.5626L20.8903 19.8214ZM20.1112 18.8423L22.2952 21.6183L23.8671 20.3817L21.6831 17.6057L20.1112 18.8423ZM23.0812 20H21.5692V22H23.0812V20ZM26.2043 21H25.2043C25.2043 21.5523 25.652 22 26.2043 22V21ZM26.2043 20.16H27.2043C27.2043 20.0228 27.1761 19.8871 27.1214 19.7613L26.2043 20.16ZM26.1243 19.976H25.1243C25.1243 20.1132 25.1525 20.2489 25.2072 20.3747L26.1243 19.976ZM25.8763 17.848L25.194 18.5791C25.1979 18.5828 25.202 18.5865 25.206 18.5901L25.8763 17.848ZM24.4523 17.736L24.7545 18.6892C24.7592 18.6877 24.7639 18.6862 24.7685 18.6847L24.4523 17.736ZM23.8923 18.024L23.0028 18.481C23.1396 18.7472 23.3885 18.9382 23.681 19.0014C23.9736 19.0647 24.2791 18.9935 24.5137 18.8075L23.8923 18.024ZM23.4443 17.152L22.8683 16.3345C22.4607 16.6217 22.3269 17.1654 22.5548 17.609L23.4443 17.152ZM24.2923 16.768L24.0278 15.8036L24.0278 15.8036L24.2923 16.768ZM26.8283 17.096L27.4772 16.3352L27.4772 16.3352L26.8283 17.096ZM27.3723 21V22C27.9246 22 28.3723 21.5523 28.3723 21H27.3723ZM24.0283 20.896L23.5891 21.7944C23.5945 21.797 23.5999 21.7996 23.6054 21.8022L24.0283 20.896ZM23.4763 20.424L24.3152 19.8798L24.3152 19.8798L23.4763 20.424ZM23.4683 19.088L22.6362 18.5333C22.6326 18.5387 22.6291 18.5441 22.6256 18.5496L23.4683 19.088ZM24.0683 18.64L24.4334 19.571C24.4386 19.5689 24.4438 19.5668 24.449 19.5647L24.0683 18.64ZM26.2763 18.472H27.2763C27.2763 17.9197 26.8286 17.472 26.2763 17.472V18.472ZM26.2763 19.2V20.2C26.8286 20.2 27.2763 19.7523 27.2763 19.2H26.2763ZM24.6603 19.344L24.0095 18.5847C24.0034 18.59 23.9973 18.5953 23.9913 18.6007L24.6603 19.344ZM24.6843 20.088L24.068 20.8755C24.0805 20.8853 24.0933 20.8948 24.1063 20.904L24.6843 20.088ZM25.7643 20.08L26.2664 20.9448C26.2733 20.9408 26.2801 20.9367 26.2868 20.9326L25.7643 20.08ZM26.1243 19.64L27.073 19.3238C26.9397 18.924 26.5701 18.6507 26.1488 18.6403C25.7276 18.6299 25.345 18.8848 25.1923 19.2776L26.1243 19.64ZM26.3163 20.216L27.2668 20.5267C27.3334 20.323 27.3328 20.1032 27.265 19.8998L26.3163 20.216ZM25.8203 20.848L25.3058 19.9905L25.3058 19.9905L25.8203 20.848ZM27.2043 21V20.16H25.2043V21H27.2043ZM27.1214 19.7613L27.0414 19.5773L25.2072 20.3747L25.2872 20.5587L27.1214 19.7613ZM27.1243 19.976V18.472H25.1243V19.976H27.1243ZM27.1243 18.472C27.1243 17.9831 26.963 17.482 26.5466 17.1059L25.206 18.5901C25.1919 18.5774 25.177 18.5609 25.1633 18.5412C25.1495 18.5214 25.1396 18.5021 25.133 18.4853C25.1196 18.4516 25.1243 18.4415 25.1243 18.472H27.1243ZM26.5586 17.1169C26.1357 16.7222 25.5902 16.624 25.1323 16.624V18.624C25.1797 18.624 25.2154 18.6267 25.241 18.6299C25.2665 18.6332 25.2793 18.6367 25.282 18.6375C25.2858 18.6387 25.245 18.6267 25.194 18.5791L26.5586 17.1169ZM25.1323 16.624C24.7923 16.624 24.459 16.6797 24.1361 16.7873L24.7685 18.6847C24.8936 18.643 25.0136 18.624 25.1323 18.624V16.624ZM24.15 16.7828C23.834 16.883 23.5348 17.0312 23.2709 17.2405L24.5137 18.8075C24.5591 18.7715 24.6332 18.7277 24.7545 18.6892L24.15 16.7828ZM24.7818 17.567L24.3338 16.695L22.5548 17.609L23.0028 18.481L24.7818 17.567ZM24.0202 17.9695C24.144 17.8823 24.3165 17.7983 24.5567 17.7324L24.0278 15.8036C23.6067 15.9191 23.2139 16.091 22.8683 16.3345L24.0202 17.9695ZM24.5567 17.7324C24.8016 17.6653 25.0487 17.632 25.3003 17.632V15.632C24.8692 15.632 24.4443 15.6894 24.0278 15.8036L24.5567 17.7324ZM25.3003 17.632C25.8077 17.632 26.0556 17.7513 26.1793 17.8568L27.4772 16.3352C26.8756 15.822 26.1048 15.632 25.3003 15.632V17.632ZM26.1793 17.8568C26.2443 17.9122 26.3723 18.0653 26.3723 18.544H28.3723C28.3723 17.7107 28.1376 16.8984 27.4772 16.3352L26.1793 17.8568ZM26.3723 18.544V21H28.3723V18.544H26.3723ZM27.3723 20H26.2043V22H27.3723V20ZM24.8923 20.064C24.6644 20.064 24.5282 20.0258 24.4512 19.9898L23.6054 21.8022C24.0084 21.9902 24.4481 22.064 24.8923 22.064V20.064ZM24.4675 19.9976C24.3678 19.9489 24.3317 19.9052 24.3152 19.8798L22.6373 20.9682C22.8768 21.3374 23.2088 21.6085 23.5891 21.7944L24.4675 19.9976ZM24.3152 19.8798C24.297 19.8517 24.2843 19.8209 24.2843 19.76H22.2843C22.2843 20.1897 22.3995 20.6016 22.6373 20.9682L24.3152 19.8798ZM24.2843 19.76C24.2843 19.6705 24.3034 19.6383 24.311 19.6264L22.6256 18.5496C22.3879 18.9217 22.2843 19.3375 22.2843 19.76H24.2843ZM24.3003 19.6427C24.2961 19.6491 24.2965 19.6453 24.3126 19.6333C24.33 19.6202 24.3668 19.5971 24.4334 19.571L23.7032 17.709C23.2915 17.8705 22.9046 18.1307 22.6362 18.5333L24.3003 19.6427ZM24.449 19.5647C24.5564 19.5205 24.7678 19.472 25.1323 19.472V17.472C24.6221 17.472 24.1242 17.5355 23.6875 17.7153L24.449 19.5647ZM25.1323 19.472H26.2763V17.472H25.1323V19.472ZM25.2763 18.472V19.2H27.2763V18.472H25.2763ZM26.2763 18.2H25.2683V20.2H26.2763V18.2ZM25.2683 18.2C24.9374 18.2 24.4122 18.2395 24.0095 18.5847L25.3111 20.1033C25.2572 20.1494 25.2087 20.176 25.1774 20.1903C25.1465 20.2045 25.1275 20.2089 25.1267 20.2091C25.1257 20.2093 25.1363 20.2068 25.1616 20.2043C25.1866 20.2019 25.2217 20.2 25.2683 20.2V18.2ZM23.9913 18.6007C23.6731 18.8871 23.5003 19.2776 23.5003 19.704H25.5003C25.5003 19.7583 25.4895 19.8324 25.4541 19.9121C25.4186 19.992 25.3705 20.0502 25.3292 20.0873L23.9913 18.6007ZM23.5003 19.704C23.5003 20.1618 23.6955 20.584 24.068 20.8755L25.3006 19.3005C25.3485 19.338 25.4059 19.3999 25.4481 19.4879C25.4899 19.575 25.5003 19.6536 25.5003 19.704H23.5003ZM24.1063 20.904C24.4581 21.1532 24.8578 21.224 25.2043 21.224V19.224C25.1623 19.224 25.1516 19.2195 25.1633 19.2225C25.1768 19.2261 25.215 19.2385 25.2623 19.272L24.1063 20.904ZM25.2043 21.224C25.5727 21.224 25.9353 21.1371 26.2664 20.9448L25.2621 19.2152C25.2593 19.2168 25.2566 19.2181 25.2512 19.2195C25.2454 19.221 25.2309 19.224 25.2043 19.224V21.224ZM26.2868 20.9326C26.6506 20.7097 26.9077 20.3846 27.0563 20.0024L25.1923 19.2776C25.1898 19.284 25.1922 19.2756 25.2043 19.2608C25.2169 19.2454 25.2312 19.2339 25.2417 19.2274L26.2868 20.9326ZM25.1756 19.9562L25.3676 20.5322L27.265 19.8998L27.073 19.3238L25.1756 19.9562ZM25.3658 19.9053C25.3464 19.9644 25.33 19.976 25.3058 19.9905L26.3348 21.7055C26.7906 21.432 27.1048 21.0222 27.2668 20.5267L25.3658 19.9053ZM25.3058 19.9905C25.2668 20.0139 25.1514 20.064 24.8923 20.064V22.064C25.3905 22.064 25.8938 21.9701 26.3348 21.7055L25.3058 19.9905ZM29.285 20.792L28.7873 21.6594L28.7982 21.6655L29.285 20.792ZM28.509 20.016L27.6381 20.5076L27.6442 20.5181L28.509 20.016ZM28.509 17.672L27.6442 17.1698L27.6382 17.1804L28.509 17.672ZM29.285 16.904L28.7982 16.0305L28.7982 16.0305L29.285 16.904ZM31.333 16.872L31.8401 16.0101L31.8401 16.0101L31.333 16.872ZM31.965 17.6L32.8739 17.1828L32.8739 17.1828L31.965 17.6ZM31.973 20.096L32.8875 20.5008L32.8899 20.4953L31.973 20.096ZM31.349 20.824L30.842 19.962L30.8345 19.9665L31.349 20.824ZM31.149 19.896L30.6469 19.0312L30.6469 19.0312L31.149 19.896ZM31.541 19.488L30.668 19.0002L30.6631 19.0091L31.541 19.488ZM31.541 18.208L30.6631 18.6869C30.6668 18.6936 30.6706 18.7003 30.6744 18.707L31.541 18.208ZM31.149 17.8L30.6469 18.6648L30.6469 18.6648L31.149 17.8ZM30.037 17.8L30.5392 18.6648L30.5392 18.6648L30.037 17.8ZM29.637 18.208L28.7704 17.709C28.7666 17.7157 28.7628 17.7224 28.7591 17.7291L29.637 18.208ZM29.637 19.488L28.7532 19.9559C28.7588 19.9663 28.7645 19.9767 28.7704 19.987L29.637 19.488ZM30.037 19.896L30.5392 19.0312L30.5392 19.0312L30.037 19.896ZM31.725 21H30.725C30.725 21.5523 31.1727 22 31.725 22V21ZM31.725 20.12L30.7252 20.1013C30.7251 20.1075 30.725 20.1138 30.725 20.12L31.725 20.12ZM31.749 18.84L32.7489 18.8587C32.7494 18.8316 32.7488 18.8044 32.7471 18.7772L31.749 18.84ZM31.669 17.568H30.669C30.669 17.5889 30.6697 17.6099 30.671 17.6308L31.669 17.568ZM31.669 15.064V14.064C31.1167 14.064 30.669 14.5117 30.669 15.064H31.669ZM32.917 15.064H33.917C33.917 14.5117 33.4693 14.064 32.917 14.064V15.064ZM32.917 21V22C33.4693 22 33.917 21.5523 33.917 21H32.917ZM30.381 20.064C30.1307 20.064 29.9354 20.0097 29.7719 19.9185L28.7982 21.6655C29.2853 21.937 29.8207 22.064 30.381 22.064V20.064ZM29.7827 19.9246C29.6128 19.8271 29.4794 19.6958 29.3738 19.5139L27.6442 20.5181C27.9226 20.9976 28.3066 21.3835 28.7874 21.6594L29.7827 19.9246ZM29.3799 19.5244C29.292 19.3687 29.229 19.1549 29.229 18.848H27.229C27.229 19.4371 27.3528 20.002 27.6382 20.5076L29.3799 19.5244ZM29.229 18.848C29.229 18.5335 29.2929 18.3176 29.3799 18.1636L27.6382 17.1804C27.3518 17.6877 27.229 18.2558 27.229 18.848H29.229ZM29.3738 18.1741C29.478 17.9946 29.608 17.8689 29.7719 17.7775L28.7982 16.0305C28.3114 16.3018 27.924 16.688 27.6442 17.1699L29.3738 18.1741ZM29.7719 17.7775C29.9354 17.6863 30.1307 17.632 30.381 17.632V15.632C29.8207 15.632 29.2853 15.759 28.7982 16.0305L29.7719 17.7775ZM30.381 17.632C30.5924 17.632 30.7294 17.6771 30.826 17.7339L31.8401 16.0101C31.3926 15.7469 30.895 15.632 30.381 15.632V17.632ZM30.826 17.7339C30.8987 17.7767 30.9803 17.8518 31.0562 18.0172L32.8739 17.1828C32.6511 16.6975 32.3114 16.2873 31.8401 16.0101L30.826 17.7339ZM31.0562 18.0172C31.1259 18.169 31.189 18.4297 31.189 18.848H33.189C33.189 18.253 33.1028 17.6816 32.8739 17.1828L31.0562 18.0172ZM31.189 18.848C31.189 19.262 31.1284 19.531 31.0562 19.6967L32.8899 20.4953C33.1057 19.9997 33.189 19.4367 33.189 18.848H31.189ZM31.0586 19.6913C30.988 19.8507 30.9112 19.9214 30.842 19.9621L31.8561 21.6859C32.3309 21.4066 32.6701 20.9919 32.8875 20.5007L31.0586 19.6913ZM30.8345 19.9665C30.7539 20.0149 30.6179 20.064 30.381 20.064V22.064C30.9015 22.064 31.4108 21.9531 31.8635 21.6815L30.8345 19.9665ZM30.597 21.04C30.9651 21.04 31.3241 20.9507 31.6512 20.7608L30.6469 19.0312C30.6433 19.0333 30.6343 19.04 30.597 19.04V21.04ZM31.6512 20.7608C31.9825 20.5684 32.2398 20.2953 32.4189 19.9669L30.6631 19.0091C30.655 19.0241 30.65 19.0291 30.6499 19.0292C30.6498 19.0293 30.6498 19.0293 30.6497 19.0294C30.6497 19.0294 30.6497 19.0294 30.6497 19.0294C30.6497 19.0294 30.6497 19.0294 30.6497 19.0294C30.6497 19.0294 30.6497 19.0294 30.6496 19.0294C30.6496 19.0295 30.6494 19.0296 30.649 19.0299C30.6486 19.0302 30.6479 19.0306 30.6469 19.0312L31.6512 20.7608ZM32.414 19.9758C32.6125 19.6205 32.693 19.2331 32.693 18.848H30.693C30.693 18.9536 30.6722 18.9929 30.6681 19.0002L32.414 19.9758ZM32.693 18.848C32.693 18.4629 32.6147 18.0686 32.4077 17.709L30.6744 18.707C30.6701 18.6994 30.693 18.7318 30.693 18.848H32.693ZM32.4189 17.7291C32.2398 17.4007 31.9825 17.1276 31.6512 16.9352L30.6469 18.6648C30.6479 18.6654 30.6486 18.6658 30.649 18.6661C30.6494 18.6664 30.6496 18.6665 30.6496 18.6666C30.6497 18.6666 30.6497 18.6666 30.6497 18.6666C30.6497 18.6666 30.6497 18.6666 30.6497 18.6666C30.6497 18.6666 30.6497 18.6666 30.6497 18.6666C30.6498 18.6667 30.6498 18.6667 30.6499 18.6668C30.65 18.6669 30.655 18.6719 30.6631 18.6869L32.4189 17.7291ZM31.6512 16.9352C31.3241 16.7453 30.9651 16.656 30.597 16.656V18.656C30.6343 18.656 30.6433 18.6627 30.6469 18.6648L31.6512 16.9352ZM30.597 16.656C30.2287 16.656 29.866 16.7429 29.5349 16.9352L30.5392 18.6648C30.542 18.6632 30.5447 18.6619 30.5501 18.6605C30.5559 18.659 30.5704 18.656 30.597 18.656V16.656ZM29.5349 16.9352C29.2086 17.1246 28.9535 17.3911 28.7704 17.709L30.5037 18.707C30.5233 18.6729 30.5347 18.6674 30.5392 18.6648L29.5349 16.9352ZM28.7591 17.7291C28.5654 18.0844 28.493 18.4712 28.493 18.848H30.493C30.493 18.786 30.499 18.7446 30.5046 18.7195C30.5074 18.7071 30.5101 18.6988 30.5119 18.6939C30.5137 18.689 30.5149 18.6869 30.5149 18.6869L28.7591 17.7291ZM28.493 18.848C28.493 19.2247 28.5673 19.6047 28.7532 19.9559L30.5208 19.0201C30.5147 19.0086 30.493 18.962 30.493 18.848H28.493ZM28.7704 19.987C28.9535 20.3049 29.2086 20.5714 29.5349 20.7608L30.5392 19.0312C30.5347 19.0286 30.5233 19.0231 30.5037 18.989L28.7704 19.987ZM29.5349 20.7608C29.866 20.9531 30.2287 21.04 30.597 21.04V19.04C30.5704 19.04 30.5559 19.037 30.5501 19.0355C30.5447 19.0341 30.542 19.0328 30.5392 19.0312L29.5349 20.7608ZM32.725 21V20.12H30.725V21H32.725ZM32.7249 20.1387L32.7489 18.8587L30.7492 18.8213L30.7252 20.1013L32.7249 20.1387ZM32.7471 18.7772L32.6671 17.5052L30.671 17.6308L30.751 18.9028L32.7471 18.7772ZM32.669 17.568V15.064H30.669V17.568H32.669ZM31.669 16.064H32.917V14.064H31.669V16.064ZM31.917 15.064V21H33.917V15.064H31.917ZM32.917 20H31.725V22H32.917V20ZM34.0721 21H33.0721C33.0721 21.5523 33.5198 22 34.0721 22V21ZM34.0721 16.696V15.696C33.5198 15.696 33.0721 16.1437 33.0721 16.696H34.0721ZM35.2641 16.696H36.2641C36.2641 16.1437 35.8164 15.696 35.2641 15.696V16.696ZM35.2641 17.912L34.3616 18.3427C34.5629 18.7644 35.0292 18.9905 35.4849 18.8873C35.9406 18.7841 36.2641 18.3792 36.2641 17.912H35.2641ZM35.0961 17.56L34.1745 17.1719C34.0637 17.4351 34.0706 17.7331 34.1936 17.9907L35.0961 17.56ZM35.7121 16.872L36.1921 17.7493C36.1963 17.747 36.2005 17.7446 36.2047 17.7423L35.7121 16.872ZM36.7441 16.632H37.7441C37.7441 16.0797 37.2964 15.632 36.7441 15.632V16.632ZM36.7441 17.784L36.6446 18.779C36.9257 18.8072 37.2056 18.715 37.4151 18.5255C37.6246 18.3359 37.7441 18.0665 37.7441 17.784H36.7441ZM36.6001 17.776L36.4761 18.7683C36.5172 18.7734 36.5586 18.776 36.6001 18.776V17.776ZM35.6321 18.064L36.3104 18.7988L36.3111 18.7981L35.6321 18.064ZM35.3201 21V22C35.8724 22 36.3201 21.5523 36.3201 21H35.3201ZM35.0721 21V16.696H33.0721V21H35.0721ZM34.0721 17.696H35.2641V15.696H34.0721V17.696ZM34.2641 16.696V17.912H36.2641V16.696H34.2641ZM36.1666 17.4813L35.9986 17.1293L34.1936 17.9907L34.3616 18.3427L36.1666 17.4813ZM36.0177 17.9481C36.0603 17.847 36.1127 17.7927 36.1921 17.7493L35.2321 15.9947C34.7461 16.2606 34.3879 16.665 34.1745 17.1719L36.0177 17.9481ZM36.2047 17.7423C36.3042 17.6859 36.4692 17.632 36.7441 17.632V15.632C36.2084 15.632 35.6853 15.7381 35.2195 16.0017L36.2047 17.7423ZM35.7441 16.632V17.784H37.7441V16.632H35.7441ZM36.8436 16.789C36.7652 16.7811 36.6831 16.776 36.6001 16.776V18.776C36.6024 18.776 36.6164 18.7762 36.6446 18.779L36.8436 16.789ZM36.7241 16.7837C36.6359 16.7727 36.5489 16.768 36.4641 16.768V18.768C36.4753 18.768 36.4789 18.7686 36.4761 18.7683L36.7241 16.7837ZM36.4641 16.768C35.9178 16.768 35.3829 16.9323 34.9531 17.3299L36.3111 18.7981C36.3171 18.7926 36.3224 18.7887 36.3353 18.7842C36.3507 18.7787 36.3897 18.768 36.4641 18.768V16.768ZM34.9538 17.3292C34.4628 17.7825 34.3201 18.4058 34.3201 18.968H36.3201C36.3201 18.8433 36.3363 18.7807 36.3434 18.7602C36.3484 18.7458 36.3424 18.7693 36.3104 18.7988L34.9538 17.3292ZM34.3201 18.968V21H36.3201V18.968H34.3201ZM35.3201 20H34.0721V22H35.3201V20ZM38.2949 20.776L37.8323 21.6626L37.8376 21.6653L38.2949 20.776ZM37.4389 19.992L36.5826 20.5085L36.5863 20.5146L37.4389 19.992ZM37.4309 17.704L36.5746 17.1875L36.5722 17.1915L37.4309 17.704ZM38.2549 16.92L38.729 17.8005L38.7394 17.7948L38.2549 16.92ZM40.5669 16.904L40.092 17.784C40.0975 17.787 40.103 17.7899 40.1086 17.7928L40.5669 16.904ZM41.3749 17.672L40.5126 18.1784L40.5162 18.1845L41.3749 17.672ZM41.6629 19.032L42.6588 19.1225L42.6595 19.115L41.6629 19.032ZM41.6469 19.2V20.2C42.1607 20.2 42.5908 19.8107 42.6419 19.2995L41.6469 19.2ZM38.1509 19.2H37.1509C37.1509 19.7523 37.5986 20.2 38.1509 20.2V19.2ZM38.1509 18.472V17.472C37.5986 17.472 37.1509 17.9197 37.1509 18.472H38.1509ZM40.9909 18.472L41.4013 19.3839C41.8312 19.1905 42.0676 18.7231 41.9686 18.2621C41.8697 17.8012 41.4623 17.472 40.9909 17.472V18.472ZM40.5109 18.688H39.5109C39.5109 19.0273 39.683 19.3435 39.9679 19.5278C40.2529 19.712 40.6118 19.7392 40.9213 19.5999L40.5109 18.688ZM40.3749 18.104L39.4981 18.5848L39.4981 18.5848L40.3749 18.104ZM39.9989 17.72L39.4844 18.5775C39.4915 18.5818 39.4987 18.5859 39.5059 18.59L39.9989 17.72ZM38.8709 17.72L39.3639 18.5901L39.373 18.5848L38.8709 17.72ZM38.4949 18.112L39.3718 18.5929L39.378 18.5812L38.4949 18.112ZM38.5109 19.52L37.638 20.0078C37.6437 20.0181 37.6496 20.0282 37.6557 20.0383L38.5109 19.52ZM38.9509 19.928L38.4936 20.8173C38.5036 20.8224 38.5137 20.8274 38.5239 20.8322L38.9509 19.928ZM40.2229 19.96L39.8564 19.0295L39.8465 19.0335L40.2229 19.96ZM40.7029 19.648L41.438 18.9701C41.2557 18.7723 41.0014 18.6564 40.7326 18.6484C40.4637 18.6405 40.203 18.7411 40.0093 18.9277L40.7029 19.648ZM41.3669 20.368L42.1173 21.029C42.4559 20.6447 42.4493 20.0666 42.102 19.6901L41.3669 20.368ZM40.6229 20.888L40.9886 21.8188C40.9933 21.8169 40.9981 21.815 41.0028 21.813L40.6229 20.888ZM39.5909 20.064C39.2325 20.064 38.962 19.9946 38.7523 19.8867L37.8376 21.6653C38.3744 21.9414 38.968 22.064 39.5909 22.064V20.064ZM38.7575 19.8894C38.5383 19.7751 38.3929 19.6348 38.2915 19.4694L36.5863 20.5146C36.8903 21.0105 37.3155 21.3929 37.8323 21.6626L38.7575 19.8894ZM38.2952 19.4755C38.1947 19.3089 38.1349 19.1091 38.1349 18.848H36.1349C36.1349 19.4403 36.2778 20.0031 36.5826 20.5085L38.2952 19.4755ZM38.1349 18.848C38.1349 18.5739 38.1957 18.3739 38.2896 18.2165L36.5722 17.1915C36.2715 17.6954 36.1349 18.2581 36.1349 18.848H38.1349ZM38.2872 18.2205C38.397 18.0384 38.5395 17.9025 38.729 17.8005L37.7808 16.0395C37.277 16.3108 36.8701 16.6976 36.5746 17.1875L38.2872 18.2205ZM38.7394 17.7948C38.9228 17.6932 39.1451 17.632 39.4309 17.632V15.632C38.842 15.632 38.2803 15.7628 37.7704 16.0452L38.7394 17.7948ZM39.4309 17.632C39.7039 17.632 39.9166 17.6894 40.092 17.784L41.0418 16.024C40.5452 15.756 40.0005 15.632 39.4309 15.632V17.632ZM40.1086 17.7928C40.2792 17.8808 40.4096 18.003 40.5126 18.1784L42.2372 17.1656C41.9456 16.669 41.5372 16.2792 41.0252 16.0152L40.1086 17.7928ZM40.5162 18.1845C40.6037 18.3312 40.6709 18.5434 40.6709 18.864H42.6709C42.6709 18.2566 42.5407 17.6742 42.2336 17.1595L40.5162 18.1845ZM40.6709 18.864C40.6709 18.8768 40.6701 18.904 40.6664 18.949L42.6595 19.115C42.6664 19.032 42.6709 18.9472 42.6709 18.864H40.6709ZM40.667 18.9415C40.6619 18.9974 40.6569 19.0504 40.6519 19.1005L42.6419 19.2995C42.6476 19.2429 42.6532 19.1839 42.6588 19.1225L40.667 18.9415ZM41.6469 18.2H38.1509V20.2H41.6469V18.2ZM39.1509 19.2V18.472H37.1509V19.2H39.1509ZM38.1509 19.472H40.9909V17.472H38.1509V19.472ZM40.5805 17.5601L40.1005 17.7761L40.9213 19.5999L41.4013 19.3839L40.5805 17.5601ZM41.5109 18.688C41.5109 18.3275 41.4371 17.9613 41.2517 17.6232L39.4981 18.5848C39.4971 18.583 39.4997 18.5869 39.503 18.6008C39.5064 18.6155 39.5109 18.6433 39.5109 18.688H41.5109ZM41.2517 17.6232C41.0741 17.2993 40.8178 17.0346 40.4919 16.85L39.5059 18.59C39.5067 18.5905 39.5059 18.5901 39.5041 18.5887C39.5023 18.5873 39.5003 18.5856 39.4984 18.5836C39.4965 18.5817 39.4954 18.5803 39.4952 18.5799C39.4949 18.5796 39.496 18.5811 39.4981 18.5848L41.2517 17.6232ZM40.5134 16.8625C40.1768 16.6605 39.807 16.576 39.4389 16.576V18.576C39.4704 18.576 39.486 18.5795 39.4899 18.5805C39.4929 18.5813 39.4898 18.5807 39.4844 18.5775L40.5134 16.8625ZM39.4389 16.576C39.0701 16.576 38.7038 16.6607 38.3688 16.8552L39.373 18.5848C39.3738 18.5844 39.3759 18.583 39.3827 18.5813C39.39 18.5795 39.4076 18.576 39.4389 18.576V16.576ZM38.3779 16.85C38.0438 17.0393 37.7869 17.3131 37.6118 17.6428L39.378 18.5812C39.3794 18.5786 39.3804 18.5769 39.3811 18.5757C39.3818 18.5746 39.3822 18.5741 39.3822 18.5741C39.3822 18.5741 39.3819 18.5745 39.3812 18.5753C39.3806 18.576 39.3797 18.577 39.3786 18.5782C39.3762 18.5807 39.3734 18.5833 39.3703 18.5856C39.3673 18.588 39.365 18.5894 39.3639 18.59L38.3779 16.85ZM37.6181 17.6312C37.4309 17.9726 37.3589 18.3427 37.3589 18.704H39.3589C39.3589 18.6067 39.3776 18.5821 39.3717 18.5928L37.6181 17.6312ZM37.3589 18.704V18.896H39.3589V18.704H37.3589ZM37.3589 18.896C37.3589 19.2789 37.443 19.6589 37.638 20.0078L39.3838 19.0322C39.3762 19.0184 39.3589 18.9824 39.3589 18.896H37.3589ZM37.6557 20.0383C37.8602 20.3756 38.146 20.6385 38.4936 20.8173L39.4083 19.0387C39.3825 19.0255 39.375 19.0164 39.3661 19.0017L37.6557 20.0383ZM38.5239 20.8322C38.874 20.9976 39.2491 21.064 39.6229 21.064V19.064C39.4847 19.064 39.4118 19.0397 39.3779 19.0238L38.5239 20.8322ZM39.6229 21.064C39.9507 21.064 40.2837 21.0147 40.5993 20.8865L39.8465 19.0335C39.8208 19.044 39.7537 19.064 39.6229 19.064V21.064ZM40.5894 20.8904C40.894 20.7704 41.1637 20.5925 41.3965 20.3683L40.0093 18.9277C39.9541 18.9808 39.9038 19.0109 39.8564 19.0296L40.5894 20.8904ZM39.9678 20.3259L40.6318 21.0459L42.102 19.6901L41.438 18.9701L39.9678 20.3259ZM40.6165 19.707C40.5289 19.8065 40.4114 19.8938 40.243 19.963L41.0028 21.813C41.4318 21.6368 41.8102 21.3775 42.1173 21.029L40.6165 19.707ZM40.2573 19.9572C40.097 20.0202 39.8811 20.064 39.5909 20.064V22.064C40.0794 22.064 40.5515 21.9905 40.9886 21.8188L40.2573 19.9572ZM46.0298 16.84L45.5684 17.7272C45.5755 17.7309 45.5825 17.7344 45.5896 17.7379L46.0298 16.84ZM46.6698 17.464L45.7925 17.944L45.7964 17.9511L46.6698 17.464ZM46.9018 21V22C47.4541 22 47.9018 21.5523 47.9018 21H46.9018ZM45.6538 21H44.6538C44.6538 21.5523 45.1015 22 45.6538 22V21ZM45.4218 17.96L44.6797 18.6303C44.6836 18.6346 44.6875 18.6389 44.6915 18.6432L45.4218 17.96ZM44.2458 17.84L44.7052 18.7283L44.7164 18.7224L44.2458 17.84ZM43.8778 18.216L42.9947 17.7468C42.9908 17.7541 42.987 17.7614 42.9834 17.7688L43.8778 18.216ZM43.7498 21V22C44.3021 22 44.7498 21.5523 44.7498 21H43.7498ZM42.5018 21H41.5018C41.5018 21.5523 41.9495 22 42.5018 22V21ZM42.5018 16.696V15.696C41.9495 15.696 41.5018 16.1437 41.5018 16.696H42.5018ZM43.6938 16.696H44.6938C44.6938 16.1437 44.2461 15.696 43.6938 15.696V16.696ZM43.6938 17.888L42.8447 18.4163C43.0806 18.7954 43.5392 18.9722 43.9685 18.8495C44.3978 18.7269 44.6938 18.3345 44.6938 17.888H43.6938ZM43.4698 17.528L42.5888 17.0549C42.4194 17.3703 42.4316 17.7523 42.6207 18.0563L43.4698 17.528ZM44.1338 16.864L44.6069 17.745L44.6069 17.745L44.1338 16.864ZM45.1178 17.632C45.3205 17.632 45.4626 17.6722 45.5684 17.7272L46.4911 15.9528C46.0637 15.7305 45.5977 15.632 45.1178 15.632V17.632ZM45.5896 17.7379C45.6642 17.7745 45.7303 17.8302 45.7925 17.944L47.547 16.984C47.3 16.5324 46.9394 16.1722 46.4699 15.9421L45.5896 17.7379ZM45.7964 17.9511C45.8426 18.0338 45.9018 18.2079 45.9018 18.536H47.9018C47.9018 17.9895 47.8063 17.4488 47.5431 16.9769L45.7964 17.9511ZM45.9018 18.536V21H47.9018V18.536H45.9018ZM46.9018 20H45.6538V22H46.9018V20ZM46.6538 21V18.728H44.6538V21H46.6538ZM46.6538 18.728C46.6538 18.2584 46.5524 17.7048 46.1521 17.2768L44.6915 18.6432C44.6465 18.5951 44.6363 18.5577 44.6385 18.5652C44.6419 18.5764 44.6538 18.6253 44.6538 18.728H46.6538ZM46.1639 17.2897C45.7802 16.8649 45.2675 16.712 44.7818 16.712V18.712C44.8224 18.712 44.8186 18.7181 44.7885 18.7064C44.7732 18.7005 44.7539 18.6911 44.7333 18.677C44.7126 18.6628 44.6945 18.6467 44.6797 18.6303L46.1639 17.2897ZM44.7818 16.712C44.4351 16.712 44.0926 16.7884 43.7752 16.9576L44.7164 18.7224C44.719 18.7209 44.7338 18.712 44.7818 18.712V16.712ZM43.7864 16.9518C43.4315 17.1353 43.1698 17.4172 42.9947 17.7468L44.7609 18.6852C44.7659 18.6757 44.7644 18.6812 44.7525 18.6935C44.7398 18.7064 44.7231 18.7189 44.7052 18.7282L43.7864 16.9518ZM42.9834 17.7688C42.8066 18.1223 42.7498 18.5081 42.7498 18.872H44.7498C44.7498 18.7026 44.7783 18.6511 44.7722 18.6632L42.9834 17.7688ZM42.7498 18.872V21H44.7498V18.872H42.7498ZM43.7498 20H42.5018V22H43.7498V20ZM43.5018 21V16.696H41.5018V21H43.5018ZM42.5018 17.696H43.6938V15.696H42.5018V17.696ZM42.6938 16.696V17.888H44.6938V16.696H42.6938ZM44.5428 17.3597L44.3188 16.9997L42.6207 18.0563L42.8447 18.4163L44.5428 17.3597ZM44.3508 18.0011C44.4125 17.8862 44.492 17.8067 44.6069 17.745L43.6607 15.983C43.1996 16.2306 42.8364 16.5938 42.5888 17.0549L44.3508 18.0011ZM44.6069 17.745C44.732 17.6778 44.8938 17.632 45.1178 17.632V15.632C44.6057 15.632 44.1116 15.7408 43.6607 15.983L44.6069 17.745ZM50.673 21H49.673C49.673 21.5523 50.1207 22 50.673 22V21ZM50.673 20.16H51.673C51.673 20.0228 51.6448 19.8871 51.5901 19.7613L50.673 20.16ZM50.593 19.976H49.593C49.593 20.1132 49.6213 20.2489 49.676 20.3747L50.593 19.976ZM50.345 17.848L49.6627 18.5791C49.6667 18.5828 49.6707 18.5865 49.6747 18.5901L50.345 17.848ZM48.921 17.736L49.2233 18.6892C49.2279 18.6877 49.2326 18.6862 49.2373 18.6847L48.921 17.736ZM48.361 18.024L47.4716 18.481C47.6083 18.7472 47.8572 18.9382 48.1498 19.0014C48.4424 19.0647 48.7479 18.9935 48.9824 18.8075L48.361 18.024ZM47.913 17.152L47.3371 16.3345C46.9294 16.6217 46.7957 17.1654 47.0236 17.609L47.913 17.152ZM48.761 16.768L48.4966 15.8036L48.4966 15.8036L48.761 16.768ZM51.297 17.096L51.946 16.3352L51.946 16.3352L51.297 17.096ZM51.841 21V22C52.3933 22 52.841 21.5523 52.841 21H51.841ZM48.497 20.896L48.0578 21.7944C48.0632 21.797 48.0687 21.7996 48.0741 21.8022L48.497 20.896ZM47.945 20.424L48.784 19.8798L48.784 19.8798L47.945 20.424ZM47.937 19.088L47.105 18.5333C47.1014 18.5387 47.0978 18.5441 47.0943 18.5496L47.937 19.088ZM48.537 18.64L48.9021 19.571C48.9074 19.5689 48.9126 19.5668 48.9178 19.5647L48.537 18.64ZM50.745 18.472H51.745C51.745 17.9197 51.2973 17.472 50.745 17.472V18.472ZM50.745 19.2V20.2C51.2973 20.2 51.745 19.7523 51.745 19.2H50.745ZM49.129 19.344L48.4782 18.5847C48.4721 18.59 48.4661 18.5953 48.4601 18.6007L49.129 19.344ZM49.153 20.088L48.5367 20.8755C48.5493 20.8853 48.562 20.8948 48.575 20.904L49.153 20.088ZM50.233 20.08L50.7352 20.9448C50.742 20.9408 50.7488 20.9367 50.7556 20.9326L50.233 20.08ZM50.593 19.64L51.5417 19.3238C51.4085 18.924 51.0389 18.6507 50.6176 18.6403C50.1963 18.6299 49.8138 18.8848 49.661 19.2776L50.593 19.64ZM50.785 20.216L51.7355 20.5267C51.8021 20.323 51.8015 20.1032 51.7337 19.8998L50.785 20.216ZM50.289 20.848L49.7745 19.9905L49.7745 19.9905L50.289 20.848ZM51.673 21V20.16H49.673V21H51.673ZM51.5901 19.7613L51.5101 19.5773L49.676 20.3747L49.756 20.5587L51.5901 19.7613ZM51.593 19.976V18.472H49.593V19.976H51.593ZM51.593 18.472C51.593 17.9831 51.4317 17.482 51.0153 17.1059L49.6747 18.5901C49.6606 18.5774 49.6457 18.5609 49.632 18.5412C49.6183 18.5214 49.6084 18.5021 49.6017 18.4853C49.5883 18.4516 49.593 18.4415 49.593 18.472H51.593ZM51.0273 17.1169C50.6045 16.7222 50.059 16.624 49.601 16.624V18.624C49.6484 18.624 49.6842 18.6267 49.7097 18.6299C49.7353 18.6332 49.7481 18.6367 49.7507 18.6375C49.7545 18.6387 49.7137 18.6267 49.6627 18.5791L51.0273 17.1169ZM49.601 16.624C49.261 16.624 48.9277 16.6797 48.6048 16.7873L49.2373 18.6847C49.3623 18.643 49.4824 18.624 49.601 18.624V16.624ZM48.6188 16.7828C48.3028 16.883 48.0036 17.0312 47.7396 17.2405L48.9824 18.8075C49.0278 18.7715 49.102 18.7277 49.2233 18.6892L48.6188 16.7828ZM49.2505 17.567L48.8025 16.695L47.0236 17.609L47.4716 18.481L49.2505 17.567ZM48.489 17.9695C48.6127 17.8823 48.7852 17.7983 49.0255 17.7324L48.4966 15.8036C48.0755 15.9191 47.6827 16.091 47.3371 16.3345L48.489 17.9695ZM49.0255 17.7324C49.2704 17.6653 49.5174 17.632 49.769 17.632V15.632C49.338 15.632 48.913 15.6894 48.4966 15.8036L49.0255 17.7324ZM49.769 17.632C50.2765 17.632 50.5244 17.7513 50.6481 17.8568L51.946 16.3352C51.3443 15.822 50.5736 15.632 49.769 15.632V17.632ZM50.6481 17.8568C50.713 17.9122 50.841 18.0653 50.841 18.544H52.841C52.841 17.7107 52.6064 16.8984 51.946 16.3352L50.6481 17.8568ZM50.841 18.544V21H52.841V18.544H50.841ZM51.841 20H50.673V22H51.841V20ZM49.361 20.064C49.1332 20.064 48.9969 20.0258 48.9199 19.9898L48.0741 21.8022C48.4771 21.9902 48.9169 22.064 49.361 22.064V20.064ZM48.9362 19.9976C48.8366 19.9489 48.8005 19.9052 48.784 19.8798L47.1061 20.9682C47.3456 21.3374 47.6775 21.6085 48.0578 21.7944L48.9362 19.9976ZM48.784 19.8798C48.7658 19.8517 48.753 19.8209 48.753 19.76H46.753C46.753 20.1897 46.8683 20.6016 47.1061 20.9682L48.784 19.8798ZM48.753 19.76C48.753 19.6705 48.7721 19.6383 48.7797 19.6264L47.0943 18.5496C46.8566 18.9217 46.753 19.3375 46.753 19.76H48.753ZM48.7691 19.6427C48.7648 19.6491 48.7653 19.6453 48.7813 19.6333C48.7988 19.6202 48.8355 19.5971 48.9021 19.571L48.1719 17.709C47.7603 17.8705 47.3734 18.1307 47.105 18.5333L48.7691 19.6427ZM48.9178 19.5647C49.0251 19.5205 49.2366 19.472 49.601 19.472V17.472C49.0908 17.472 48.5929 17.5355 48.1563 17.7153L48.9178 19.5647ZM49.601 19.472H50.745V17.472H49.601V19.472ZM49.745 18.472V19.2H51.745V18.472H49.745ZM50.745 18.2H49.737V20.2H50.745V18.2ZM49.737 18.2C49.4061 18.2 48.881 18.2395 48.4782 18.5847L49.7798 20.1033C49.726 20.1494 49.6774 20.176 49.6462 20.1903C49.6152 20.2045 49.5962 20.2089 49.5955 20.2091C49.5944 20.2093 49.6051 20.2068 49.6304 20.2043C49.6553 20.2019 49.6904 20.2 49.737 20.2V18.2ZM48.4601 18.6007C48.1419 18.8871 47.969 19.2776 47.969 19.704H49.969C49.969 19.7583 49.9583 19.8324 49.9228 19.9121C49.8874 19.992 49.8393 20.0502 49.798 20.0873L48.4601 18.6007ZM47.969 19.704C47.969 20.1618 48.1643 20.584 48.5367 20.8755L49.7693 19.3005C49.8173 19.338 49.8747 19.3999 49.9168 19.4879C49.9586 19.575 49.969 19.6536 49.969 19.704H47.969ZM48.575 20.904C48.9268 21.1532 49.3265 21.224 49.673 21.224V19.224C49.6311 19.224 49.6203 19.2195 49.6321 19.2225C49.6456 19.2261 49.6838 19.2385 49.731 19.272L48.575 20.904ZM49.673 21.224C50.0414 21.224 50.404 21.1371 50.7352 20.9448L49.7309 19.2152C49.7281 19.2168 49.7253 19.2181 49.72 19.2195C49.7142 19.221 49.6996 19.224 49.673 19.224V21.224ZM50.7556 20.9326C51.1194 20.7097 51.3764 20.3846 51.525 20.0024L49.661 19.2776C49.6585 19.284 49.6609 19.2756 49.6731 19.2608C49.6857 19.2454 49.6999 19.2339 49.7105 19.2274L50.7556 20.9326ZM49.6443 19.9562L49.8363 20.5322L51.7337 19.8998L51.5417 19.3238L49.6443 19.9562ZM49.8345 19.9053C49.8152 19.9644 49.7988 19.976 49.7745 19.9905L50.8035 21.7055C51.2593 21.432 51.5735 21.0222 51.7355 20.5267L49.8345 19.9053ZM49.7745 19.9905C49.7355 20.0139 49.6202 20.064 49.361 20.064V22.064C49.8592 22.064 50.3626 21.9701 50.8035 21.7055L49.7745 19.9905ZM52.9705 21H51.9705C51.9705 21.5523 52.4182 22 52.9705 22V21ZM52.9705 15.064V14.064C52.4182 14.064 51.9705 14.5117 51.9705 15.064H52.9705ZM54.2185 15.064H55.2185C55.2185 14.5117 54.7708 14.064 54.2185 14.064V15.064ZM54.2185 21V22C54.7708 22 55.2185 21.5523 55.2185 21H54.2185ZM53.9705 21V15.064H51.9705V21H53.9705ZM52.9705 16.064H54.2185V14.064H52.9705V16.064ZM53.2185 15.064V21H55.2185V15.064H53.2185ZM54.2185 20H52.9705V22H54.2185V20ZM55.3768 21H54.3768C54.3768 21.5523 54.8245 22 55.3768 22V21ZM55.3768 16.696V15.696C54.8245 15.696 54.3768 16.1437 54.3768 16.696H55.3768ZM56.6248 16.696H57.6248C57.6248 16.1437 57.1771 15.696 56.6248 15.696V16.696ZM56.6248 21V22C57.1771 22 57.6248 21.5523 57.6248 21H56.6248ZM55.4408 15.896L54.7614 16.6298L54.7614 16.6298L55.4408 15.896ZM55.4408 14.904L56.1202 15.6378L56.1202 15.6378L55.4408 14.904ZM56.5608 14.896L55.8964 15.6434C55.9017 15.6481 55.907 15.6527 55.9123 15.6572L56.5608 14.896ZM56.5608 15.896L57.2539 16.6168L57.2544 16.6163L56.5608 15.896ZM56.3768 21V16.696H54.3768V21H56.3768ZM55.3768 17.696H56.6248V15.696H55.3768V17.696ZM55.6248 16.696V21H57.6248V16.696H55.6248ZM56.6248 20H55.3768V22H56.6248V20ZM56.0008 15.096C55.9831 15.096 55.995 15.0935 56.0251 15.1043C56.0577 15.1159 56.092 15.1362 56.1202 15.1622L54.7614 16.6298C55.121 16.9627 55.5648 17.096 56.0008 17.096V15.096ZM56.1202 15.1622C56.1406 15.1811 56.1717 15.2179 56.1956 15.2727C56.2195 15.3275 56.2248 15.3743 56.2248 15.4H54.2248C54.2248 15.8741 54.4117 16.306 54.7614 16.6298L56.1202 15.1622ZM56.2248 15.4C56.2248 15.4257 56.2195 15.4725 56.1956 15.5273C56.1717 15.5821 56.1406 15.6189 56.1202 15.6378L54.7614 14.1702C54.4117 14.494 54.2248 14.9259 54.2248 15.4H56.2248ZM56.1202 15.6378C56.092 15.6638 56.0577 15.6841 56.0251 15.6957C55.995 15.7065 55.9831 15.704 56.0008 15.704V13.704C55.5648 13.704 55.121 13.8373 54.7614 14.1702L56.1202 15.6378ZM56.0008 15.704C56.0226 15.704 56.0149 15.707 55.9885 15.6979C55.9595 15.688 55.9259 15.6696 55.8964 15.6434L57.2251 14.1486C56.8644 13.8279 56.4259 13.704 56.0008 13.704V15.704ZM55.9123 15.6572C55.8806 15.6302 55.8403 15.5837 55.8109 15.5184C55.782 15.4541 55.7768 15.4011 55.7768 15.376H57.7768C57.7768 14.9002 57.5871 14.4566 57.2092 14.1348L55.9123 15.6572ZM55.7768 15.376C55.7768 15.3626 55.7796 15.3258 55.7993 15.2784C55.8193 15.2301 55.8468 15.1953 55.8671 15.1757L57.2544 16.6163C57.6029 16.2808 57.7768 15.8434 57.7768 15.376H55.7768ZM55.8677 15.1752C55.9034 15.1408 55.9447 15.117 55.9804 15.1043C56.0129 15.0927 56.0241 15.096 56.0008 15.096V17.096C56.4337 17.096 56.8897 16.967 57.2539 16.6168L55.8677 15.1752ZM61.311 16.84L60.8497 17.7272C60.8567 17.7309 60.8638 17.7344 60.8709 17.7379L61.311 16.84ZM61.951 17.464L61.0737 17.944L61.0777 17.9511L61.951 17.464ZM62.183 21V22C62.7353 22 63.183 21.5523 63.183 21H62.183ZM60.935 21H59.935C59.935 21.5523 60.3827 22 60.935 22V21ZM60.703 17.96L59.9609 18.6303C59.9648 18.6346 59.9688 18.6389 59.9728 18.6432L60.703 17.96ZM59.527 17.84L59.9865 18.7283L59.9976 18.7224L59.527 17.84ZM59.159 18.216L58.2759 17.7468C58.2721 17.7541 58.2683 17.7614 58.2646 17.7688L59.159 18.216ZM59.031 21V22C59.5833 22 60.031 21.5523 60.031 21H59.031ZM57.783 21H56.783C56.783 21.5523 57.2307 22 57.783 22V21ZM57.783 16.696V15.696C57.2307 15.696 56.783 16.1437 56.783 16.696H57.783ZM58.975 16.696H59.975C59.975 16.1437 59.5273 15.696 58.975 15.696V16.696ZM58.975 17.888L58.126 18.4163C58.3619 18.7954 58.8205 18.9722 59.2498 18.8495C59.6791 18.7269 59.975 18.3345 59.975 17.888H58.975ZM58.751 17.528L57.87 17.0549C57.7006 17.3703 57.7128 17.7523 57.902 18.0563L58.751 17.528ZM59.415 16.864L59.8882 17.745L59.8882 17.745L59.415 16.864ZM60.399 17.632C60.6017 17.632 60.7438 17.6722 60.8497 17.7272L61.7724 15.9528C61.3449 15.7305 60.879 15.632 60.399 15.632V17.632ZM60.8709 17.7379C60.9454 17.7745 61.0115 17.8302 61.0738 17.944L62.8283 16.984C62.5812 16.5324 62.2206 16.1722 61.7512 15.9421L60.8709 17.7379ZM61.0777 17.9511C61.1238 18.0338 61.183 18.2079 61.183 18.536H63.183C63.183 17.9895 63.0876 17.4488 62.8244 16.9769L61.0777 17.9511ZM61.183 18.536V21H63.183V18.536H61.183ZM62.183 20H60.935V22H62.183V20ZM61.935 21V18.728H59.935V21H61.935ZM61.935 18.728C61.935 18.2584 61.8337 17.7048 61.4333 17.2768L59.9728 18.6432C59.9278 18.5951 59.9175 18.5577 59.9198 18.5652C59.9231 18.5764 59.935 18.6253 59.935 18.728H61.935ZM61.4451 17.2897C61.0614 16.8649 60.5488 16.712 60.063 16.712V18.712C60.1036 18.712 60.0999 18.7181 60.0697 18.7064C60.0544 18.7005 60.0352 18.6911 60.0146 18.677C59.9938 18.6628 59.9757 18.6467 59.9609 18.6303L61.4451 17.2897ZM60.063 16.712C59.7164 16.712 59.3738 16.7884 59.0564 16.9576L59.9976 18.7224C60.0003 18.7209 60.015 18.712 60.063 18.712V16.712ZM59.0676 16.9518C58.7128 17.1353 58.451 17.4172 58.2759 17.7468L60.0421 18.6852C60.0472 18.6757 60.0457 18.6812 60.0337 18.6935C60.0211 18.7064 60.0044 18.7189 59.9865 18.7282L59.0676 16.9518ZM58.2646 17.7688C58.0879 18.1223 58.031 18.5081 58.031 18.872H60.031C60.031 18.7026 60.0595 18.6511 60.0535 18.6632L58.2646 17.7688ZM58.031 18.872V21H60.031V18.872H58.031ZM59.031 20H57.783V22H59.031V20ZM58.783 21V16.696H56.783V21H58.783ZM57.783 17.696H58.975V15.696H57.783V17.696ZM57.975 16.696V17.888H59.975V16.696H57.975ZM59.8241 17.3597L59.6001 16.9997L57.902 18.0563L58.126 18.4163L59.8241 17.3597ZM59.632 18.0011C59.6937 17.8862 59.7732 17.8067 59.8882 17.745L58.9419 15.983C58.4808 16.2306 58.1176 16.5938 57.87 17.0549L59.632 18.0011ZM59.8882 17.745C60.0132 17.6778 60.1751 17.632 60.399 17.632V15.632C59.887 15.632 59.3929 15.7408 58.9419 15.983L59.8882 17.745ZM64.1855 20.776L63.723 21.6626L63.7282 21.6653L64.1855 20.776ZM63.3295 19.992L62.4732 20.5085L62.4769 20.5146L63.3295 19.992ZM63.3215 17.704L62.4652 17.1875L62.4628 17.1915L63.3215 17.704ZM64.1455 16.92L64.6197 17.8005L64.63 17.7948L64.1455 16.92ZM66.4575 16.904L65.9826 17.784C65.9881 17.787 65.9937 17.7899 65.9992 17.7928L66.4575 16.904ZM67.2655 17.672L66.4032 18.1784L66.4068 18.1845L67.2655 17.672ZM67.5535 19.032L68.5495 19.1225L68.5501 19.115L67.5535 19.032ZM67.5375 19.2V20.2C68.0513 20.2 68.4814 19.8107 68.5326 19.2995L67.5375 19.2ZM64.0415 19.2H63.0415C63.0415 19.7523 63.4892 20.2 64.0415 20.2V19.2ZM64.0415 18.472V17.472C63.4892 17.472 63.0415 17.9197 63.0415 18.472H64.0415ZM66.8815 18.472L67.2919 19.3839C67.7218 19.1905 67.9582 18.7231 67.8593 18.2621C67.7603 17.8012 67.3529 17.472 66.8815 17.472V18.472ZM66.4015 18.688H65.4015C65.4015 19.0273 65.5736 19.3435 65.8586 19.5278C66.1435 19.712 66.5025 19.7392 66.8119 19.5999L66.4015 18.688ZM66.2655 18.104L65.3887 18.5848L65.3887 18.5848L66.2655 18.104ZM65.8895 17.72L65.375 18.5775C65.3821 18.5818 65.3893 18.5859 65.3965 18.59L65.8895 17.72ZM64.7615 17.72L65.2546 18.5901L65.2637 18.5848L64.7615 17.72ZM64.3855 18.112L65.2624 18.5929L65.2686 18.5812L64.3855 18.112ZM64.4015 19.52L63.5286 20.0078C63.5343 20.0181 63.5402 20.0282 63.5463 20.0383L64.4015 19.52ZM64.8415 19.928L64.3842 20.8173C64.3942 20.8224 64.4043 20.8274 64.4145 20.8322L64.8415 19.928ZM66.1135 19.96L65.747 19.0295L65.7372 19.0335L66.1135 19.96ZM66.5935 19.648L67.3286 18.9701C67.1463 18.7723 66.892 18.6564 66.6232 18.6484C66.3543 18.6405 66.0936 18.7411 65.8999 18.9277L66.5935 19.648ZM67.2575 20.368L68.0079 21.029C68.3465 20.6447 68.3399 20.0666 67.9926 19.6901L67.2575 20.368ZM66.5135 20.888L66.8792 21.8188C66.884 21.8169 66.8887 21.815 66.8935 21.813L66.5135 20.888ZM65.4815 20.064C65.1231 20.064 64.8527 19.9946 64.6429 19.8867L63.7282 21.6653C64.2651 21.9414 64.8586 22.064 65.4815 22.064V20.064ZM64.6481 19.8894C64.429 19.7751 64.2835 19.6348 64.1821 19.4694L62.4769 20.5146C62.7809 21.0105 63.2061 21.3929 63.723 21.6626L64.6481 19.8894ZM64.1858 19.4755C64.0853 19.3089 64.0255 19.1091 64.0255 18.848H62.0255C62.0255 19.4403 62.1684 20.0031 62.4732 20.5085L64.1858 19.4755ZM64.0255 18.848C64.0255 18.5739 64.0863 18.3739 64.1802 18.2165L62.4628 17.1915C62.1621 17.6954 62.0255 18.2581 62.0255 18.848H64.0255ZM64.1778 18.2205C64.2877 18.0384 64.4301 17.9025 64.6196 17.8005L63.6714 16.0395C63.1676 16.3108 62.7607 16.6976 62.4652 17.1875L64.1778 18.2205ZM64.63 17.7948C64.8135 17.6932 65.0357 17.632 65.3215 17.632V15.632C64.7327 15.632 64.1709 15.7628 63.661 16.0452L64.63 17.7948ZM65.3215 17.632C65.5946 17.632 65.8072 17.6894 65.9826 17.784L66.9325 16.024C66.4359 15.756 65.8912 15.632 65.3215 15.632V17.632ZM65.9992 17.7928C66.1699 17.8808 66.3002 18.003 66.4032 18.1784L68.1278 17.1656C67.8362 16.669 67.4279 16.2792 66.9158 16.0152L65.9992 17.7928ZM66.4068 18.1845C66.4944 18.3312 66.5615 18.5434 66.5615 18.864H68.5615C68.5615 18.2566 68.4314 17.6742 68.1242 17.1595L66.4068 18.1845ZM66.5615 18.864C66.5615 18.8768 66.5607 18.904 66.557 18.949L68.5501 19.115C68.557 19.032 68.5615 18.9472 68.5615 18.864H66.5615ZM66.5576 18.9415C66.5526 18.9974 66.5475 19.0504 66.5425 19.1005L68.5326 19.2995C68.5382 19.2429 68.5438 19.1839 68.5494 19.1225L66.5576 18.9415ZM67.5375 18.2H64.0415V20.2H67.5375V18.2ZM65.0415 19.2V18.472H63.0415V19.2H65.0415ZM64.0415 19.472H66.8815V17.472H64.0415V19.472ZM66.4712 17.5601L65.9912 17.7761L66.8119 19.5999L67.2919 19.3839L66.4712 17.5601ZM67.4015 18.688C67.4015 18.3275 67.3278 17.9613 67.1423 17.6232L65.3887 18.5848C65.3877 18.583 65.3903 18.5869 65.3936 18.6008C65.397 18.6155 65.4015 18.6433 65.4015 18.688H67.4015ZM67.1423 17.6232C66.9648 17.2993 66.7084 17.0346 66.3825 16.85L65.3965 18.59C65.3973 18.5905 65.3965 18.5901 65.3948 18.5887C65.393 18.5873 65.3909 18.5856 65.389 18.5836C65.3871 18.5817 65.386 18.5803 65.3858 18.5799C65.3856 18.5796 65.3866 18.5811 65.3887 18.5848L67.1423 17.6232ZM66.404 16.8625C66.0674 16.6605 65.6976 16.576 65.3295 16.576V18.576C65.361 18.576 65.3767 18.5795 65.3805 18.5805C65.3836 18.5813 65.3804 18.5807 65.375 18.5775L66.404 16.8625ZM65.3295 16.576C64.9607 16.576 64.5944 16.6607 64.2594 16.8552L65.2637 18.5848C65.2644 18.5844 65.2665 18.583 65.2733 18.5813C65.2806 18.5795 65.2982 18.576 65.3295 18.576V16.576ZM64.2685 16.85C63.9344 17.0393 63.6776 17.3131 63.5024 17.6428L65.2686 18.5812C65.27 18.5786 65.271 18.5769 65.2717 18.5757C65.2724 18.5746 65.2728 18.5741 65.2728 18.5741C65.2728 18.5741 65.2725 18.5745 65.2719 18.5753C65.2712 18.576 65.2704 18.577 65.2692 18.5782C65.2668 18.5807 65.264 18.5833 65.2609 18.5856C65.2579 18.588 65.2556 18.5894 65.2545 18.59L64.2685 16.85ZM63.5087 17.6312C63.3215 17.9726 63.2495 18.3427 63.2495 18.704H65.2495C65.2495 18.6067 65.2682 18.5821 65.2623 18.5928L63.5087 17.6312ZM63.2495 18.704V18.896H65.2495V18.704H63.2495ZM63.2495 18.896C63.2495 19.2789 63.3336 19.6589 63.5286 20.0078L65.2745 19.0322C65.2668 19.0184 65.2495 18.9824 65.2495 18.896H63.2495ZM63.5463 20.0383C63.7508 20.3756 64.0366 20.6385 64.3842 20.8173L65.2989 19.0387C65.2731 19.0255 65.2656 19.0164 65.2567 19.0017L63.5463 20.0383ZM64.4145 20.8322C64.7647 20.9976 65.1398 21.064 65.5135 21.064V19.064C65.3753 19.064 65.3024 19.0397 65.2685 19.0238L64.4145 20.8322ZM65.5135 21.064C65.8414 21.064 66.1743 21.0147 66.4899 20.8865L65.7372 19.0335C65.7114 19.044 65.6444 19.064 65.5135 19.064V21.064ZM66.4801 20.8904C66.7846 20.7704 67.0544 20.5925 67.2872 20.3683L65.8999 18.9277C65.8447 18.9808 65.7944 19.0109 65.747 19.0296L66.4801 20.8904ZM65.8584 20.3259L66.5224 21.0459L67.9926 19.6901L67.3286 18.9701L65.8584 20.3259ZM66.5072 19.707C66.4195 19.8065 66.302 19.8938 66.1336 19.963L66.8935 21.813C67.3224 21.6368 67.7009 21.3775 68.0079 21.029L66.5072 19.707ZM66.1479 19.9572C65.9876 20.0202 65.7717 20.064 65.4815 20.064V22.064C65.9701 22.064 66.4421 21.9905 66.8792 21.8188L66.1479 19.9572Z" fill="black"/>
</svg>
