<svg width="66" height="10" viewBox="0 0 66 10" fill="none" xmlns="http://www.w3.org/2000/svg">
<path d="M3.52759 8L1.11159 2.4H2.51159L4.62359 7.36H3.79959L5.94359 2.4H7.23159L4.80759 8H3.52759ZM9.27872 8.064C8.92139 8.064 8.60139 7.99467 8.31872 7.856C8.04139 7.71733 7.82539 7.50667 7.67072 7.224C7.51605 6.936 7.43872 6.57067 7.43872 6.128V3.696H8.68672V5.944C8.68672 6.30133 8.76139 6.56533 8.91072 6.736C9.06539 6.90133 9.28139 6.984 9.55872 6.984C9.75072 6.984 9.92139 6.944 10.0707 6.864C10.2201 6.77867 10.3374 6.65067 10.4227 6.48C10.5081 6.304 10.5507 6.08533 10.5507 5.824V3.696H11.7987V8H10.6147V6.816L10.8307 7.16C10.6867 7.45867 10.4734 7.68533 10.1907 7.84C9.91339 7.98933 9.60939 8.064 9.27872 8.064ZM12.9549 8V2.064H14.2029V8H12.9549ZM16.3932 7.12L16.4252 5.6L18.4332 3.696H19.9212L17.9932 5.656L17.3452 6.184L16.3932 7.12ZM15.3612 8V2.064H16.6092V8H15.3612ZM18.5692 8L17.1132 6.192L17.8972 5.224L20.0812 8H18.5692ZM23.2043 8V7.16L23.1243 6.976V5.472C23.1243 5.20533 23.0416 4.99733 22.8763 4.848C22.7163 4.69867 22.4683 4.624 22.1323 4.624C21.9029 4.624 21.6763 4.66133 21.4523 4.736C21.2336 4.80533 21.0469 4.90133 20.8923 5.024L20.4443 4.152C20.6789 3.98667 20.9616 3.85867 21.2923 3.768C21.6229 3.67733 21.9589 3.632 22.3003 3.632C22.9563 3.632 23.4656 3.78667 23.8283 4.096C24.1909 4.40533 24.3723 4.888 24.3723 5.544V8H23.2043ZM21.8923 8.064C21.5563 8.064 21.2683 8.008 21.0283 7.896C20.7883 7.77867 20.6043 7.62133 20.4763 7.424C20.3483 7.22667 20.2843 7.00533 20.2843 6.76C20.2843 6.504 20.3456 6.28 20.4683 6.088C20.5963 5.896 20.7963 5.74667 21.0683 5.64C21.3403 5.528 21.6949 5.472 22.1323 5.472H23.2763V6.2H22.2683C21.9749 6.2 21.7723 6.248 21.6603 6.344C21.5536 6.44 21.5003 6.56 21.5003 6.704C21.5003 6.864 21.5616 6.992 21.6843 7.088C21.8123 7.17867 21.9856 7.224 22.2043 7.224C22.4123 7.224 22.5989 7.176 22.7643 7.08C22.9296 6.97867 23.0496 6.832 23.1243 6.64L23.3163 7.216C23.2256 7.49333 23.0603 7.704 22.8203 7.848C22.5803 7.992 22.2709 8.064 21.8923 8.064ZM27.381 8.064C26.9757 8.064 26.6104 7.97333 26.285 7.792C25.9597 7.60533 25.701 7.34667 25.509 7.016C25.3224 6.68533 25.229 6.296 25.229 5.848C25.229 5.39467 25.3224 5.00267 25.509 4.672C25.701 4.34133 25.9597 4.08533 26.285 3.904C26.6104 3.72267 26.9757 3.632 27.381 3.632C27.7437 3.632 28.061 3.712 28.333 3.872C28.605 4.032 28.8157 4.27467 28.965 4.6C29.1144 4.92533 29.189 5.34133 29.189 5.848C29.189 6.34933 29.117 6.76533 28.973 7.096C28.829 7.42133 28.621 7.664 28.349 7.824C28.0824 7.984 27.7597 8.064 27.381 8.064ZM27.597 7.04C27.7997 7.04 27.9837 6.992 28.149 6.896C28.3144 6.8 28.445 6.664 28.541 6.488C28.6424 6.30667 28.693 6.09333 28.693 5.848C28.693 5.59733 28.6424 5.384 28.541 5.208C28.445 5.032 28.3144 4.896 28.149 4.8C27.9837 4.704 27.7997 4.656 27.597 4.656C27.389 4.656 27.2024 4.704 27.037 4.8C26.8717 4.896 26.7384 5.032 26.637 5.208C26.541 5.384 26.493 5.59733 26.493 5.848C26.493 6.09333 26.541 6.30667 26.637 6.488C26.7384 6.664 26.8717 6.8 27.037 6.896C27.2024 6.992 27.389 7.04 27.597 7.04ZM28.725 8V7.12L28.749 5.84L28.669 4.568V2.064H29.917V8H28.725ZM31.0721 8V3.696H32.2641V4.912L32.0961 4.56C32.2241 4.256 32.4294 4.02667 32.7121 3.872C32.9948 3.712 33.3388 3.632 33.7441 3.632V4.784C33.6908 4.77867 33.6428 4.776 33.6001 4.776C33.5574 4.77067 33.5121 4.768 33.4641 4.768C33.1228 4.768 32.8454 4.86667 32.6321 5.064C32.4241 5.256 32.3201 5.55733 32.3201 5.968V8H31.0721ZM36.5909 8.064C36.1002 8.064 35.6682 7.968 35.2949 7.776C34.9269 7.584 34.6416 7.32267 34.4389 6.992C34.2362 6.656 34.1349 6.27467 34.1349 5.848C34.1349 5.416 34.2336 5.03467 34.4309 4.704C34.6336 4.368 34.9082 4.10667 35.2549 3.92C35.6016 3.728 35.9936 3.632 36.4309 3.632C36.8522 3.632 37.2309 3.72267 37.5669 3.904C37.9082 4.08 38.1776 4.336 38.3749 4.672C38.5722 5.00267 38.6709 5.4 38.6709 5.864C38.6709 5.912 38.6682 5.968 38.6629 6.032C38.6576 6.09067 38.6522 6.14667 38.6469 6.2H35.1509V5.472H37.9909L37.5109 5.688C37.5109 5.464 37.4656 5.26933 37.3749 5.104C37.2842 4.93867 37.1589 4.81067 36.9989 4.72C36.8389 4.624 36.6522 4.576 36.4389 4.576C36.2256 4.576 36.0362 4.624 35.8709 4.72C35.7109 4.81067 35.5856 4.94133 35.4949 5.112C35.4042 5.27733 35.3589 5.47467 35.3589 5.704V5.896C35.3589 6.13067 35.4096 6.33867 35.5109 6.52C35.6176 6.696 35.7642 6.832 35.9509 6.928C36.1429 7.01867 36.3669 7.064 36.6229 7.064C36.8522 7.064 37.0522 7.02933 37.2229 6.96C37.3989 6.89067 37.5589 6.78667 37.7029 6.648L38.3669 7.368C38.1696 7.592 37.9216 7.76533 37.6229 7.888C37.3242 8.00533 36.9802 8.064 36.5909 8.064ZM42.1178 3.632C42.4591 3.632 42.7631 3.70133 43.0298 3.84C43.3018 3.97333 43.5151 4.18133 43.6698 4.464C43.8244 4.74133 43.9018 5.09867 43.9018 5.536V8H42.6538V5.728C42.6538 5.38133 42.5764 5.12533 42.4218 4.96C42.2724 4.79467 42.0591 4.712 41.7818 4.712C41.5844 4.712 41.4058 4.75467 41.2458 4.84C41.0911 4.92 40.9684 5.04533 40.8778 5.216C40.7924 5.38667 40.7498 5.60533 40.7498 5.872V8H39.5018V3.696H40.6938V4.888L40.4698 4.528C40.6244 4.24 40.8458 4.01867 41.1338 3.864C41.4218 3.70933 41.7498 3.632 42.1178 3.632ZM47.673 8V7.16L47.593 6.976V5.472C47.593 5.20533 47.5104 4.99733 47.345 4.848C47.185 4.69867 46.937 4.624 46.601 4.624C46.3717 4.624 46.145 4.66133 45.921 4.736C45.7024 4.80533 45.5157 4.90133 45.361 5.024L44.913 4.152C45.1477 3.98667 45.4304 3.85867 45.761 3.768C46.0917 3.67733 46.4277 3.632 46.769 3.632C47.425 3.632 47.9344 3.78667 48.297 4.096C48.6597 4.40533 48.841 4.888 48.841 5.544V8H47.673ZM46.361 8.064C46.025 8.064 45.737 8.008 45.497 7.896C45.257 7.77867 45.073 7.62133 44.945 7.424C44.817 7.22667 44.753 7.00533 44.753 6.76C44.753 6.504 44.8144 6.28 44.937 6.088C45.065 5.896 45.265 5.74667 45.537 5.64C45.809 5.528 46.1637 5.472 46.601 5.472H47.745V6.2H46.737C46.4437 6.2 46.241 6.248 46.129 6.344C46.0224 6.44 45.969 6.56 45.969 6.704C45.969 6.864 46.0304 6.992 46.153 7.088C46.281 7.17867 46.4544 7.224 46.673 7.224C46.881 7.224 47.0677 7.176 47.233 7.08C47.3984 6.97867 47.5184 6.832 47.593 6.64L47.785 7.216C47.6944 7.49333 47.529 7.704 47.289 7.848C47.049 7.992 46.7397 8.064 46.361 8.064ZM49.9705 8V2.064H51.2185V8H49.9705ZM52.3768 8V3.696H53.6248V8H52.3768ZM53.0008 3.096C52.7714 3.096 52.5848 3.02933 52.4408 2.896C52.2968 2.76267 52.2248 2.59733 52.2248 2.4C52.2248 2.20267 52.2968 2.03733 52.4408 1.904C52.5848 1.77067 52.7714 1.704 53.0008 1.704C53.2301 1.704 53.4168 1.768 53.5608 1.896C53.7048 2.01867 53.7768 2.17867 53.7768 2.376C53.7768 2.584 53.7048 2.75733 53.5608 2.896C53.4221 3.02933 53.2354 3.096 53.0008 3.096ZM57.399 3.632C57.7404 3.632 58.0444 3.70133 58.311 3.84C58.583 3.97333 58.7964 4.18133 58.951 4.464C59.1057 4.74133 59.183 5.09867 59.183 5.536V8H57.935V5.728C57.935 5.38133 57.8577 5.12533 57.703 4.96C57.5537 4.79467 57.3404 4.712 57.063 4.712C56.8657 4.712 56.687 4.75467 56.527 4.84C56.3724 4.92 56.2497 5.04533 56.159 5.216C56.0737 5.38667 56.031 5.60533 56.031 5.872V8H54.783V3.696H55.975V4.888L55.751 4.528C55.9057 4.24 56.127 4.01867 56.415 3.864C56.703 3.70933 57.031 3.632 57.399 3.632ZM62.4815 8.064C61.9909 8.064 61.5589 7.968 61.1855 7.776C60.8175 7.584 60.5322 7.32267 60.3295 6.992C60.1269 6.656 60.0255 6.27467 60.0255 5.848C60.0255 5.416 60.1242 5.03467 60.3215 4.704C60.5242 4.368 60.7989 4.10667 61.1455 3.92C61.4922 3.728 61.8842 3.632 62.3215 3.632C62.7429 3.632 63.1215 3.72267 63.4575 3.904C63.7989 4.08 64.0682 4.336 64.2655 4.672C64.4629 5.00267 64.5615 5.4 64.5615 5.864C64.5615 5.912 64.5589 5.968 64.5535 6.032C64.5482 6.09067 64.5429 6.14667 64.5375 6.2H61.0415V5.472H63.8815L63.4015 5.688C63.4015 5.464 63.3562 5.26933 63.2655 5.104C63.1749 4.93867 63.0495 4.81067 62.8895 4.72C62.7295 4.624 62.5429 4.576 62.3295 4.576C62.1162 4.576 61.9269 4.624 61.7615 4.72C61.6015 4.81067 61.4762 4.94133 61.3855 5.112C61.2949 5.27733 61.2495 5.47467 61.2495 5.704V5.896C61.2495 6.13067 61.3002 6.33867 61.4015 6.52C61.5082 6.696 61.6549 6.832 61.8415 6.928C62.0335 7.01867 62.2575 7.064 62.5135 7.064C62.7429 7.064 62.9429 7.02933 63.1135 6.96C63.2895 6.89067 63.4495 6.78667 63.5935 6.648L64.2575 7.368C64.0602 7.592 63.8122 7.76533 63.5135 7.888C63.2149 8.00533 62.8709 8.064 62.4815 8.064Z" fill="#A74141"/>
<path d="M3.52759 8L2.6094 8.39613C2.76752 8.76263 3.12844 9 3.52759 9V8ZM1.11159 2.4V1.4C0.775023 1.4 0.46103 1.56931 0.27609 1.85052C0.0911494 2.13172 0.0600741 2.4871 0.193401 2.79613L1.11159 2.4ZM2.51159 2.4L3.43166 2.00823C3.27461 1.6394 2.91247 1.4 2.51159 1.4V2.4ZM4.62359 7.36V8.36C4.95932 8.36 5.27265 8.19153 5.45779 7.91147C5.64293 7.6314 5.67519 7.27712 5.54366 6.96823L4.62359 7.36ZM3.79959 7.36L2.88168 6.96322C2.74809 7.27228 2.77899 7.62782 2.9639 7.90919C3.14881 8.19057 3.4629 8.36 3.79959 8.36V7.36ZM5.94359 2.4V1.4C5.5447 1.4 5.18395 1.63707 5.02568 2.00322L5.94359 2.4ZM7.23159 2.4L8.14931 2.79724C8.28309 2.48817 8.25232 2.13251 8.06743 1.85102C7.88254 1.56952 7.56838 1.4 7.23159 1.4V2.4ZM4.80759 8V9C5.20631 9 5.56692 8.76315 5.72531 8.39724L4.80759 8ZM4.44579 7.60387L2.02979 2.00387L0.193401 2.79613L2.6094 8.39613L4.44579 7.60387ZM1.11159 3.4H2.51159V1.4H1.11159V3.4ZM1.59153 2.79177L3.70353 7.75177L5.54366 6.96823L3.43166 2.00823L1.59153 2.79177ZM4.62359 6.36H3.79959V8.36H4.62359V6.36ZM4.71751 7.75678L6.86151 2.79678L5.02568 2.00322L2.88168 6.96322L4.71751 7.75678ZM5.94359 3.4H7.23159V1.4H5.94359V3.4ZM6.31388 2.00276L3.88988 7.60276L5.72531 8.39724L8.14931 2.79724L6.31388 2.00276ZM4.80759 7H3.52759V9H4.80759V7ZM8.31872 7.856L7.87149 8.75045L7.87829 8.75379L8.31872 7.856ZM7.67072 7.224L6.7897 7.69714L6.79346 7.70401L7.67072 7.224ZM7.43872 3.696V2.696C6.88643 2.696 6.43872 3.14371 6.43872 3.696H7.43872ZM8.68672 3.696H9.68672C9.68672 3.14371 9.239 2.696 8.68672 2.696V3.696ZM8.91072 6.736L8.15814 7.3945C8.16544 7.40285 8.17288 7.41106 8.18045 7.41916L8.91072 6.736ZM10.0707 6.864L10.5429 7.74548C10.551 7.74118 10.5589 7.73676 10.5669 7.73224L10.0707 6.864ZM10.4227 6.48L11.3172 6.92725L11.3225 6.91627L10.4227 6.48ZM10.5507 3.696V2.696C9.99843 2.696 9.55072 3.14371 9.55072 3.696H10.5507ZM11.7987 3.696H12.7987C12.7987 3.14371 12.351 2.696 11.7987 2.696V3.696ZM11.7987 8V9C12.351 9 12.7987 8.55228 12.7987 8H11.7987ZM10.6147 8H9.61472C9.61472 8.55228 10.0624 9 10.6147 9V8ZM10.6147 6.816L11.4616 6.28423C11.2246 5.90675 10.7664 5.73171 10.338 5.85504C9.90971 5.97836 9.61472 6.37028 9.61472 6.816H10.6147ZM10.8307 7.16L11.7315 7.5943C11.8809 7.28444 11.8605 6.91955 11.6776 6.62823L10.8307 7.16ZM10.1907 7.84L10.6648 8.72049L10.6707 8.71726L10.1907 7.84ZM9.27872 7.064C9.05336 7.064 8.88728 7.02107 8.75914 6.95821L7.87829 8.75379C8.31549 8.96827 8.78941 9.064 9.27872 9.064V7.064ZM8.76593 6.96157C8.67825 6.91773 8.60893 6.85537 8.54798 6.74399L6.79346 7.70401C7.04184 8.15796 7.40452 8.51693 7.87151 8.75043L8.76593 6.96157ZM8.55171 6.75087C8.49791 6.65069 8.43872 6.46144 8.43872 6.128H6.43872C6.43872 6.67989 6.53419 7.22131 6.78972 7.69713L8.55171 6.75087ZM8.43872 6.128V3.696H6.43872V6.128H8.43872ZM7.43872 4.696H8.68672V2.696H7.43872V4.696ZM7.68672 3.696V5.944H9.68672V3.696H7.68672ZM7.68672 5.944C7.68672 6.41106 7.77957 6.96185 8.15814 7.3945L9.6633 6.0775C9.70465 6.12475 9.71027 6.15657 9.70497 6.13785C9.69892 6.11644 9.68672 6.05677 9.68672 5.944H7.68672ZM8.18045 7.41916C8.56552 7.83078 9.07152 7.984 9.55872 7.984V5.984C9.51852 5.984 9.51981 5.97798 9.54615 5.98806C9.55941 5.99313 9.5762 6.00126 9.5943 6.01337C9.61246 6.02552 9.62824 6.03922 9.64099 6.05284L8.18045 7.41916ZM9.55872 7.984C9.89325 7.984 10.23 7.91315 10.5429 7.74548L9.5985 5.98252C9.60344 5.97987 9.60581 5.97962 9.60253 5.98038C9.59871 5.98128 9.58511 5.984 9.55872 5.984V7.984ZM10.5669 7.73224C10.9061 7.53839 11.1536 7.25439 11.3171 6.92721L9.52829 6.03279C9.52311 6.04315 9.52358 6.03916 9.53356 6.02828C9.54412 6.01676 9.55857 6.00491 9.57458 5.99576L10.5669 7.73224ZM11.3225 6.91627C11.4921 6.56656 11.5507 6.18804 11.5507 5.824H9.55072C9.55072 5.98263 9.52402 6.04144 9.5229 6.04373L11.3225 6.91627ZM11.5507 5.824V3.696H9.55072V5.824H11.5507ZM10.5507 4.696H11.7987V2.696H10.5507V4.696ZM10.7987 3.696V8H12.7987V3.696H10.7987ZM11.7987 7H10.6147V9H11.7987V7ZM11.6147 8V6.816H9.61472V8H11.6147ZM9.76783 7.34777L9.98383 7.69177L11.6776 6.62823L11.4616 6.28423L9.76783 7.34777ZM9.92995 6.7257C9.87375 6.84227 9.80475 6.91128 9.71071 6.96274L10.6707 8.71726C11.142 8.45939 11.4997 8.07507 11.7315 7.5943L9.92995 6.7257ZM9.71662 6.95953C9.59232 7.02646 9.45242 7.064 9.27872 7.064V9.064C9.76635 9.064 10.2345 8.95221 10.6648 8.72047L9.71662 6.95953ZM12.9549 8H11.9549C11.9549 8.55228 12.4026 9 12.9549 9V8ZM12.9549 2.064V1.064C12.4026 1.064 11.9549 1.51171 11.9549 2.064H12.9549ZM14.2029 2.064H15.2029C15.2029 1.51171 14.7552 1.064 14.2029 1.064V2.064ZM14.2029 8V9C14.7552 9 15.2029 8.55228 15.2029 8H14.2029ZM13.9549 8V2.064H11.9549V8H13.9549ZM12.9549 3.064H14.2029V1.064H12.9549V3.064ZM13.2029 2.064V8H15.2029V2.064H13.2029ZM14.2029 7H12.9549V9H14.2029V7ZM16.3932 7.12L15.3934 7.09895C15.3848 7.50561 15.6234 7.87694 15.9969 8.03813C16.3703 8.19932 16.8042 8.11824 17.0942 7.83307L16.3932 7.12ZM16.4252 5.6L15.7371 4.87435C15.5432 5.05816 15.431 5.31188 15.4254 5.57895L16.4252 5.6ZM18.4332 3.696V2.696C18.1771 2.696 17.9309 2.79419 17.7451 2.97035L18.4332 3.696ZM19.9212 3.696L20.6341 4.39726C20.9166 4.10999 20.9992 3.68117 20.8435 3.30952C20.6877 2.93786 20.3241 2.696 19.9212 2.696V3.696ZM17.9932 5.656L18.6248 6.43123C18.6532 6.40808 18.6804 6.38339 18.7061 6.35726L17.9932 5.656ZM17.3452 6.184L16.7135 5.40876C16.6894 5.4284 16.6662 5.44914 16.6441 5.47093L17.3452 6.184ZM15.3612 8H14.3612C14.3612 8.55228 14.8089 9 15.3612 9V8ZM15.3612 2.064V1.064C14.8089 1.064 14.3612 1.51171 14.3612 2.064H15.3612ZM16.6092 2.064H17.6092C17.6092 1.51171 17.1614 1.064 16.6092 1.064V2.064ZM16.6092 8V9C17.1614 9 17.6092 8.55228 17.6092 8H16.6092ZM18.5692 8L17.7903 8.62721C17.9801 8.86293 18.2665 9 18.5692 9V8ZM17.1132 6.192L16.3361 5.56262C16.0395 5.92876 16.0388 6.45224 16.3343 6.81921L17.1132 6.192ZM17.8972 5.224L18.6831 4.60568C18.495 4.36664 18.2084 4.22618 17.9042 4.22403C17.6001 4.22187 17.3115 4.35826 17.1201 4.59462L17.8972 5.224ZM20.0812 8V9C20.4641 9 20.8134 8.78132 20.9807 8.43685C21.148 8.09239 21.1039 7.68264 20.8671 7.38168L20.0812 8ZM17.3929 7.14105L17.4249 5.62105L15.4254 5.57895L15.3934 7.09895L17.3929 7.14105ZM17.1132 6.32565L19.1212 4.42165L17.7451 2.97035L15.7371 4.87435L17.1132 6.32565ZM18.4332 4.696H19.9212V2.696H18.4332V4.696ZM19.2083 2.99474L17.2803 4.95474L18.7061 6.35726L20.6341 4.39726L19.2083 2.99474ZM17.3615 4.88076L16.7135 5.40876L17.9768 6.95923L18.6248 6.43123L17.3615 4.88076ZM16.6441 5.47093L15.6921 6.40693L17.0942 7.83307L18.0462 6.89707L16.6441 5.47093ZM16.3612 8V2.064H14.3612V8H16.3612ZM15.3612 3.064H16.6092V1.064H15.3612V3.064ZM15.6092 2.064V8H17.6092V2.064H15.6092ZM16.6092 7H15.3612V9H16.6092V7ZM19.348 7.37279L17.892 5.56479L16.3343 6.81921L17.7903 8.62721L19.348 7.37279ZM17.8903 6.82138L18.6743 5.85338L17.1201 4.59462L16.3361 5.56262L17.8903 6.82138ZM17.1112 5.84232L19.2952 8.61832L20.8671 7.38168L18.6831 4.60568L17.1112 5.84232ZM20.0812 7H18.5692V9H20.0812V7ZM23.2043 8H22.2043C22.2043 8.55228 22.652 9 23.2043 9V8ZM23.2043 7.16H24.2043C24.2043 7.02281 24.1761 6.88709 24.1214 6.76127L23.2043 7.16ZM23.1243 6.976H22.1243C22.1243 7.11319 22.1525 7.24891 22.2072 7.37473L23.1243 6.976ZM22.8763 4.848L22.194 5.57906C22.1979 5.58277 22.202 5.58645 22.206 5.5901L22.8763 4.848ZM21.4523 4.736L21.7545 5.68923C21.7592 5.68775 21.7639 5.68623 21.7685 5.68468L21.4523 4.736ZM20.8923 5.024L20.0028 5.48098C20.1396 5.74723 20.3885 5.9382 20.681 6.00144C20.9736 6.06467 21.2791 5.9935 21.5137 5.8075L20.8923 5.024ZM20.4443 4.152L19.8683 3.33452C19.4607 3.62174 19.3269 4.16541 19.5548 4.60898L20.4443 4.152ZM21.2923 3.768L21.0278 2.8036L21.0278 2.8036L21.2923 3.768ZM23.8283 4.096L24.4772 3.33517L24.4772 3.33517L23.8283 4.096ZM24.3723 8V9C24.9246 9 25.3723 8.55228 25.3723 8H24.3723ZM21.0283 7.896L20.5891 8.79438C20.5945 8.79703 20.5999 8.79963 20.6054 8.80218L21.0283 7.896ZM20.4763 7.424L21.3152 6.87981L21.3152 6.87981L20.4763 7.424ZM20.4683 6.088L19.6362 5.5333C19.6326 5.5387 19.6291 5.54414 19.6256 5.54961L20.4683 6.088ZM21.0683 5.64L21.4334 6.57097C21.4386 6.56892 21.4438 6.56682 21.449 6.56468L21.0683 5.64ZM23.2763 5.472H24.2763C24.2763 4.91972 23.8286 4.472 23.2763 4.472V5.472ZM23.2763 6.2V7.2C23.8286 7.2 24.2763 6.75228 24.2763 6.2H23.2763ZM21.6603 6.344L21.0095 5.58474C21.0034 5.58999 20.9973 5.59531 20.9913 5.60071L21.6603 6.344ZM21.6843 7.088L21.068 7.87551C21.0805 7.88531 21.0933 7.89482 21.1063 7.90402L21.6843 7.088ZM22.7643 7.08L23.2664 7.94479C23.2733 7.94081 23.2801 7.93674 23.2868 7.9326L22.7643 7.08ZM23.1243 6.64L24.073 6.32377C23.9397 5.92399 23.5701 5.65065 23.1488 5.6403C22.7276 5.62995 22.345 5.8848 22.1923 6.27755L23.1243 6.64ZM23.3163 7.216L24.2668 7.52674C24.3334 7.32296 24.3328 7.10316 24.265 6.89977L23.3163 7.216ZM22.8203 7.848L22.3058 6.99051L22.3058 6.99051L22.8203 7.848ZM24.2043 8V7.16H22.2043V8H24.2043ZM24.1214 6.76127L24.0414 6.57727L22.2072 7.37473L22.2872 7.55873L24.1214 6.76127ZM24.1243 6.976V5.472H22.1243V6.976H24.1243ZM24.1243 5.472C24.1243 4.98313 23.963 4.48201 23.5466 4.1059L22.206 5.5901C22.1919 5.57736 22.177 5.56094 22.1633 5.54117C22.1495 5.52141 22.1396 5.5021 22.133 5.48534C22.1196 5.45163 22.1243 5.44145 22.1243 5.472H24.1243ZM23.5586 4.11694C23.1357 3.72224 22.5902 3.624 22.1323 3.624V5.624C22.1797 5.624 22.2154 5.62666 22.241 5.62993C22.2665 5.6332 22.2793 5.63674 22.282 5.63754C22.2858 5.63868 22.245 5.62666 22.194 5.57906L23.5586 4.11694ZM22.1323 3.624C21.7923 3.624 21.459 3.67968 21.1361 3.78732L21.7685 5.68468C21.8936 5.64299 22.0136 5.624 22.1323 5.624V3.624ZM21.15 3.78277C20.834 3.88297 20.5348 4.03117 20.2709 4.2405L21.5137 5.8075C21.5591 5.77149 21.6332 5.7277 21.7545 5.68923L21.15 3.78277ZM21.7818 4.56702L21.3338 3.69502L19.5548 4.60898L20.0028 5.48098L21.7818 4.56702ZM21.0202 4.96948C21.144 4.88231 21.3165 4.79827 21.5567 4.7324L21.0278 2.8036C20.6067 2.91906 20.2139 3.09102 19.8683 3.33452L21.0202 4.96948ZM21.5567 4.7324C21.8016 4.66525 22.0487 4.632 22.3003 4.632V2.632C21.8692 2.632 21.4443 2.68941 21.0278 2.8036L21.5567 4.7324ZM22.3003 4.632C22.8077 4.632 23.0556 4.75134 23.1793 4.85683L24.4772 3.33517C23.8756 2.822 23.1048 2.632 22.3003 2.632V4.632ZM23.1793 4.85683C23.2443 4.91223 23.3723 5.06533 23.3723 5.544H25.3723C25.3723 4.71067 25.1376 3.89843 24.4772 3.33517L23.1793 4.85683ZM23.3723 5.544V8H25.3723V5.544H23.3723ZM24.3723 7H23.2043V9H24.3723V7ZM21.8923 7.064C21.6644 7.064 21.5282 7.02575 21.4512 6.98982L20.6054 8.80218C21.0084 8.99025 21.4481 9.064 21.8923 9.064V7.064ZM21.4675 6.99762C21.3678 6.94888 21.3317 6.90522 21.3152 6.87981L19.6373 7.96819C19.8768 8.33744 20.2088 8.60846 20.5891 8.79438L21.4675 6.99762ZM21.3152 6.87981C21.297 6.85171 21.2843 6.82095 21.2843 6.76H19.2843C19.2843 7.18972 19.3995 7.60162 19.6373 7.96819L21.3152 6.87981ZM21.2843 6.76C21.2843 6.67049 21.3034 6.63828 21.311 6.62639L19.6256 5.54961C19.3879 5.92172 19.2843 6.33751 19.2843 6.76H21.2843ZM21.3003 6.6427C21.2961 6.64909 21.2965 6.64527 21.3126 6.63328C21.33 6.62025 21.3668 6.59709 21.4334 6.57097L20.7032 4.70903C20.2915 4.87047 19.9046 5.13068 19.6362 5.5333L21.3003 6.6427ZM21.449 6.56468C21.5564 6.52048 21.7678 6.472 22.1323 6.472V4.472C21.6221 4.472 21.1242 4.53552 20.6875 4.71532L21.449 6.56468ZM22.1323 6.472H23.2763V4.472H22.1323V6.472ZM22.2763 5.472V6.2H24.2763V5.472H22.2763ZM23.2763 5.2H22.2683V7.2H23.2763V5.2ZM22.2683 5.2C21.9374 5.2 21.4122 5.23954 21.0095 5.58474L22.3111 7.10326C22.2572 7.14939 22.2087 7.176 22.1774 7.19031C22.1465 7.20445 22.1275 7.20891 22.1267 7.20908C22.1257 7.20933 22.1363 7.2068 22.1616 7.20435C22.1866 7.20193 22.2217 7.2 22.2683 7.2V5.2ZM20.9913 5.60071C20.6731 5.8871 20.5003 6.27763 20.5003 6.704H22.5003C22.5003 6.75829 22.4895 6.83238 22.4541 6.91214C22.4186 6.99198 22.3705 7.05015 22.3292 7.08729L20.9913 5.60071ZM20.5003 6.704C20.5003 7.16178 20.6955 7.58404 21.068 7.87551L22.3006 6.30049C22.3485 6.338 22.4059 6.3999 22.4481 6.48788C22.4899 6.57502 22.5003 6.65357 22.5003 6.704H20.5003ZM21.1063 7.90402C21.4581 8.15322 21.8578 8.224 22.2043 8.224V6.224C22.1623 6.224 22.1516 6.21947 22.1633 6.22254C22.1768 6.22608 22.215 6.2385 22.2623 6.27198L21.1063 7.90402ZM22.2043 8.224C22.5727 8.224 22.9353 8.13705 23.2664 7.94479L22.2621 6.21521C22.2593 6.21684 22.2566 6.21813 22.2512 6.21951C22.2454 6.221 22.2309 6.224 22.2043 6.224V8.224ZM23.2868 7.9326C23.6506 7.70965 23.9077 7.38463 24.0563 7.00245L22.1923 6.27755C22.1898 6.28405 22.1922 6.2756 22.2043 6.26076C22.2169 6.24539 22.2312 6.23387 22.2417 6.2274L23.2868 7.9326ZM22.1756 6.95623L22.3676 7.53223L24.265 6.89977L24.073 6.32377L22.1756 6.95623ZM22.3658 6.90526C22.3464 6.96442 22.33 6.97597 22.3058 6.99051L23.3348 8.70549C23.7906 8.43203 24.1048 8.02225 24.2668 7.52674L22.3658 6.90526ZM22.3058 6.99051C22.2668 7.01392 22.1514 7.064 21.8923 7.064V9.064C22.3905 9.064 22.8938 8.97008 23.3348 8.70549L22.3058 6.99051ZM26.285 7.792L25.7873 8.65943L25.7982 8.66548L26.285 7.792ZM25.509 7.016L24.6381 7.50763L24.6442 7.51814L25.509 7.016ZM25.509 4.672L24.6442 4.16983L24.6382 4.18041L25.509 4.672ZM26.285 3.904L25.7982 3.03052L25.7982 3.03052L26.285 3.904ZM28.333 3.872L28.8401 3.01007L28.8401 3.01007L28.333 3.872ZM28.965 4.6L29.8739 4.18283L29.8739 4.18283L28.965 4.6ZM28.973 7.096L29.8875 7.50075L29.8899 7.49527L28.973 7.096ZM28.349 7.824L27.842 6.96203L27.8345 6.96651L28.349 7.824ZM28.149 6.896L27.6469 6.03121L27.6469 6.03121L28.149 6.896ZM28.541 6.488L27.668 6.00015L27.6631 6.00915L28.541 6.488ZM28.541 5.208L27.6631 5.68685C27.6668 5.6936 27.6706 5.7003 27.6744 5.70696L28.541 5.208ZM28.149 4.8L27.6469 5.66479L27.6469 5.66479L28.149 4.8ZM27.037 4.8L27.5392 5.66479L27.5392 5.66479L27.037 4.8ZM26.637 5.208L25.7704 4.70904C25.7666 4.7157 25.7628 4.7224 25.7591 4.72915L26.637 5.208ZM26.637 6.488L25.7532 6.95589C25.7588 6.96635 25.7645 6.97671 25.7704 6.98696L26.637 6.488ZM27.037 6.896L27.5392 6.03121L27.5392 6.03121L27.037 6.896ZM28.725 8H27.725C27.725 8.55228 28.1727 9 28.725 9V8ZM28.725 7.12L27.7252 7.10125C27.7251 7.1075 27.725 7.11375 27.725 7.12L28.725 7.12ZM28.749 5.84L29.7489 5.85875C29.7494 5.83156 29.7488 5.80437 29.7471 5.77723L28.749 5.84ZM28.669 4.568H27.669C27.669 4.58894 27.6697 4.60987 27.671 4.63077L28.669 4.568ZM28.669 2.064V1.064C28.1167 1.064 27.669 1.51171 27.669 2.064H28.669ZM29.917 2.064H30.917C30.917 1.51171 30.4693 1.064 29.917 1.064V2.064ZM29.917 8V9C30.4693 9 30.917 8.55228 30.917 8H29.917ZM27.381 7.064C27.1307 7.064 26.9354 7.00967 26.7719 6.91852L25.7982 8.66548C26.2853 8.93699 26.8207 9.064 27.381 9.064V7.064ZM26.7827 6.92463C26.6128 6.82713 26.4794 6.69576 26.3738 6.51386L24.6442 7.51814C24.9226 7.99758 25.3066 8.38354 25.7874 8.65937L26.7827 6.92463ZM26.3799 6.52441C26.292 6.36869 26.229 6.15485 26.229 5.848H24.229C24.229 6.43715 24.3528 7.00198 24.6382 7.50759L26.3799 6.52441ZM26.229 5.848C26.229 5.5335 26.2929 5.31762 26.3799 5.16359L24.6382 4.18041C24.3518 4.68771 24.229 5.25583 24.229 5.848H26.229ZM26.3738 5.17414C26.478 4.99464 26.608 4.86885 26.7719 4.77748L25.7982 3.03052C25.3114 3.30181 24.924 3.68803 24.6442 4.16986L26.3738 5.17414ZM26.7719 4.77748C26.9354 4.68633 27.1307 4.632 27.381 4.632V2.632C26.8207 2.632 26.2853 2.75901 25.7982 3.03052L26.7719 4.77748ZM27.381 4.632C27.5924 4.632 27.7294 4.67712 27.826 4.73393L28.8401 3.01007C28.3926 2.74688 27.895 2.632 27.381 2.632V4.632ZM27.826 4.73393C27.8987 4.77668 27.9803 4.85178 28.0562 5.01717L29.8739 4.18283C29.6511 3.69755 29.3114 3.28732 28.8401 3.01007L27.826 4.73393ZM28.0562 5.01717C28.1259 5.16905 28.189 5.42967 28.189 5.848H30.189C30.189 5.253 30.1028 4.68162 29.8739 4.18283L28.0562 5.01717ZM28.189 5.848C28.189 6.26199 28.1284 6.53099 28.0562 6.69673L29.8899 7.49527C30.1057 6.99968 30.189 6.43668 30.189 5.848H28.189ZM28.0586 6.69125C27.988 6.85074 27.9112 6.92138 27.842 6.96207L28.8561 8.68593C29.3309 8.40662 29.6701 7.99192 29.8875 7.50075L28.0586 6.69125ZM27.8345 6.96651C27.7539 7.01486 27.6179 7.064 27.381 7.064V9.064C27.9015 9.064 28.4108 8.95314 28.8635 8.68149L27.8345 6.96651ZM27.597 8.04C27.9651 8.04 28.3241 7.95072 28.6512 7.76079L27.6469 6.03121C27.6433 6.03328 27.6343 6.04 27.597 6.04V8.04ZM28.6512 7.76079C28.9825 7.56837 29.2398 7.29528 29.4189 6.96685L27.6631 6.00915C27.655 6.02408 27.65 6.02912 27.6499 6.02917C27.6498 6.02927 27.6498 6.02934 27.6497 6.02937C27.6497 6.02941 27.6497 6.02942 27.6497 6.02942C27.6497 6.02942 27.6497 6.02942 27.6497 6.02942C27.6497 6.02941 27.6497 6.02942 27.6496 6.02944C27.6496 6.02948 27.6494 6.02963 27.649 6.02989C27.6486 6.03015 27.6479 6.0306 27.6469 6.03121L28.6512 7.76079ZM29.414 6.97582C29.6125 6.62048 29.693 6.23311 29.693 5.848H27.693C27.693 5.95356 27.6722 5.99285 27.6681 6.00018L29.414 6.97582ZM29.693 5.848C29.693 5.4629 29.6147 5.06856 29.4077 4.70904L27.6744 5.70696C27.6701 5.69944 27.693 5.73177 27.693 5.848H29.693ZM29.4189 4.72915C29.2398 4.40072 28.9825 4.12763 28.6512 3.93521L27.6469 5.66479C27.6479 5.6654 27.6486 5.66585 27.649 5.66611C27.6494 5.66637 27.6496 5.66652 27.6496 5.66656C27.6497 5.66658 27.6497 5.66659 27.6497 5.66658C27.6497 5.66658 27.6497 5.66658 27.6497 5.66658C27.6497 5.66658 27.6497 5.66659 27.6497 5.66663C27.6498 5.66666 27.6498 5.66673 27.6499 5.66683C27.65 5.66688 27.655 5.67192 27.6631 5.68685L29.4189 4.72915ZM28.6512 3.93521C28.3241 3.74528 27.9651 3.656 27.597 3.656V5.656C27.6343 5.656 27.6433 5.66272 27.6469 5.66479L28.6512 3.93521ZM27.597 3.656C27.2287 3.656 26.866 3.74295 26.5349 3.93521L27.5392 5.66479C27.542 5.66316 27.5447 5.66187 27.5501 5.66049C27.5559 5.659 27.5704 5.656 27.597 5.656V3.656ZM26.5349 3.93521C26.2086 4.12464 25.9535 4.39108 25.7704 4.70904L27.5037 5.70696C27.5233 5.67292 27.5347 5.66735 27.5392 5.66479L26.5349 3.93521ZM25.7591 4.72915C25.5654 5.08438 25.493 5.4712 25.493 5.848H27.493C27.493 5.786 27.499 5.74456 27.5046 5.71951C27.5074 5.70714 27.5101 5.69884 27.5119 5.6939C27.5137 5.68901 27.5149 5.68691 27.5149 5.68685L25.7591 4.72915ZM25.493 5.848C25.493 6.22468 25.5673 6.60473 25.7532 6.95589L27.5208 6.02011C27.5147 6.00861 27.493 5.96199 27.493 5.848H25.493ZM25.7704 6.98696C25.9535 7.30492 26.2086 7.57135 26.5349 7.76079L27.5392 6.03121C27.5347 6.02865 27.5233 6.02308 27.5037 5.98904L25.7704 6.98696ZM26.5349 7.76079C26.866 7.95305 27.2287 8.04 27.597 8.04V6.04C27.5704 6.04 27.5559 6.037 27.5501 6.03551C27.5447 6.03413 27.542 6.03284 27.5392 6.03121L26.5349 7.76079ZM29.725 8V7.12H27.725V8H29.725ZM29.7249 7.13875L29.7489 5.85875L27.7492 5.82125L27.7252 7.10125L29.7249 7.13875ZM29.7471 5.77723L29.6671 4.50523L27.671 4.63077L27.751 5.90277L29.7471 5.77723ZM29.669 4.568V2.064H27.669V4.568H29.669ZM28.669 3.064H29.917V1.064H28.669V3.064ZM28.917 2.064V8H30.917V2.064H28.917ZM29.917 7H28.725V9H29.917V7ZM31.0721 8H30.0721C30.0721 8.55228 30.5198 9 31.0721 9V8ZM31.0721 3.696V2.696C30.5198 2.696 30.0721 3.14371 30.0721 3.696H31.0721ZM32.2641 3.696H33.2641C33.2641 3.14371 32.8164 2.696 32.2641 2.696V3.696ZM32.2641 4.912L31.3616 5.34273C31.5629 5.76438 32.0292 5.99048 32.4849 5.88732C32.9406 5.78415 33.2641 5.37921 33.2641 4.912H32.2641ZM32.0961 4.56L31.1745 4.17194C31.0637 4.43509 31.0706 4.73305 31.1936 4.99073L32.0961 4.56ZM32.7121 3.872L33.1921 4.74926C33.1963 4.74696 33.2005 4.74462 33.2047 4.74226L32.7121 3.872ZM33.7441 3.632H34.7441C34.7441 3.07972 34.2964 2.632 33.7441 2.632V3.632ZM33.7441 4.784L33.6446 5.77904C33.9257 5.80715 34.2056 5.71503 34.4151 5.52545C34.6246 5.33587 34.7441 5.06653 34.7441 4.784H33.7441ZM33.6001 4.776L33.4761 5.76828C33.5172 5.77342 33.5586 5.776 33.6001 5.776V4.776ZM32.6321 5.064L33.3104 5.7988L33.3111 5.7981L32.6321 5.064ZM32.3201 8V9C32.8724 9 33.3201 8.55228 33.3201 8H32.3201ZM32.0721 8V3.696H30.0721V8H32.0721ZM31.0721 4.696H32.2641V2.696H31.0721V4.696ZM31.2641 3.696V4.912H33.2641V3.696H31.2641ZM33.1666 4.48127L32.9986 4.12927L31.1936 4.99073L31.3616 5.34273L33.1666 4.48127ZM33.0177 4.94806C33.0603 4.84699 33.1127 4.79269 33.1921 4.74926L32.2321 2.99474C31.7461 3.26064 31.3879 3.66501 31.1745 4.17194L33.0177 4.94806ZM33.2047 4.74226C33.3042 4.68594 33.4692 4.632 33.7441 4.632V2.632C33.2084 2.632 32.6853 2.73806 32.2195 3.00174L33.2047 4.74226ZM32.7441 3.632V4.784H34.7441V3.632H32.7441ZM33.8436 3.78896C33.7652 3.78112 33.6831 3.776 33.6001 3.776V5.776C33.6024 5.776 33.6164 5.77621 33.6446 5.77904L33.8436 3.78896ZM33.7241 3.78372C33.6359 3.77269 33.5489 3.768 33.4641 3.768V5.768C33.4753 5.768 33.4789 5.76864 33.4761 5.76828L33.7241 3.78372ZM33.4641 3.768C32.9178 3.768 32.3829 3.9323 31.9531 4.3299L33.3111 5.7981C33.3171 5.79255 33.3224 5.78872 33.3353 5.78415C33.3507 5.77867 33.3897 5.768 33.4641 5.768V3.768ZM31.9538 4.3292C31.4628 4.78247 31.3201 5.4058 31.3201 5.968H33.3201C33.3201 5.84334 33.3363 5.78066 33.3434 5.76025C33.3484 5.74575 33.3424 5.76925 33.3104 5.7988L31.9538 4.3292ZM31.3201 5.968V8H33.3201V5.968H31.3201ZM32.3201 7H31.0721V9H32.3201V7ZM35.2949 7.776L34.8323 8.6626L34.8376 8.66529L35.2949 7.776ZM34.4389 6.992L33.5826 7.50851L33.5863 7.51456L34.4389 6.992ZM34.4309 4.704L33.5746 4.1875L33.5722 4.19154L34.4309 4.704ZM35.2549 3.92L35.729 4.80053L35.7394 4.79479L35.2549 3.92ZM37.5669 3.904L37.092 4.78402C37.0975 4.787 37.103 4.78993 37.1086 4.7928L37.5669 3.904ZM38.3749 4.672L37.5126 5.17843L37.5162 5.18446L38.3749 4.672ZM38.6629 6.032L39.6588 6.12254L39.6595 6.11504L38.6629 6.032ZM38.6469 6.2V7.2C39.1607 7.2 39.5908 6.8107 39.6419 6.2995L38.6469 6.2ZM35.1509 6.2H34.1509C34.1509 6.75228 34.5986 7.2 35.1509 7.2V6.2ZM35.1509 5.472V4.472C34.5986 4.472 34.1509 4.91972 34.1509 5.472H35.1509ZM37.9909 5.472L38.4013 6.38392C38.8312 6.19047 39.0676 5.72306 38.9686 5.26214C38.8697 4.80123 38.4623 4.472 37.9909 4.472V5.472ZM37.5109 5.688H36.5109C36.5109 6.02733 36.683 6.34351 36.9679 6.52775C37.2529 6.712 37.6118 6.73917 37.9213 6.59992L37.5109 5.688ZM37.3749 5.104L36.4981 5.58483L36.4981 5.58483L37.3749 5.104ZM36.9989 4.72L36.4844 5.57749C36.4915 5.58176 36.4987 5.58593 36.5059 5.59002L36.9989 4.72ZM35.8709 4.72L36.3639 5.59007L36.373 5.58479L35.8709 4.72ZM35.4949 5.112L36.3718 5.59287L36.378 5.58116L35.4949 5.112ZM35.5109 6.52L34.638 7.00782C34.6437 7.01809 34.6496 7.02825 34.6557 7.0383L35.5109 6.52ZM35.9509 6.928L35.4936 7.81729C35.5036 7.82245 35.5137 7.82743 35.5239 7.83225L35.9509 6.928ZM37.2229 6.96L36.8564 6.02954L36.8465 6.03353L37.2229 6.96ZM37.7029 6.648L38.438 5.97006C38.2557 5.77234 38.0014 5.65641 37.7326 5.64844C37.4637 5.64047 37.203 5.74112 37.0093 5.92768L37.7029 6.648ZM38.3669 7.368L39.1173 8.02903C39.4559 7.64467 39.4493 7.06661 39.102 6.69006L38.3669 7.368ZM37.6229 7.888L37.9886 8.81875C37.9933 8.81688 37.9981 8.81497 38.0028 8.81302L37.6229 7.888ZM36.5909 7.064C36.2325 7.064 35.962 6.9946 35.7523 6.88671L34.8376 8.66529C35.3744 8.9414 35.968 9.064 36.5909 9.064V7.064ZM35.7575 6.88942C35.5383 6.77508 35.3929 6.63479 35.2915 6.46944L33.5863 7.51456C33.8903 8.01054 34.3155 8.39292 34.8323 8.66258L35.7575 6.88942ZM35.2952 6.47551C35.1947 6.30889 35.1349 6.10908 35.1349 5.848H33.1349C33.1349 6.44025 33.2778 7.00311 33.5826 7.50849L35.2952 6.47551ZM35.1349 5.848C35.1349 5.57391 35.1957 5.37392 35.2896 5.21646L33.5722 4.19154C33.2715 4.69542 33.1349 5.25809 33.1349 5.848H35.1349ZM35.2872 5.22049C35.397 5.03841 35.5395 4.90253 35.729 4.80047L34.7808 3.03953C34.277 3.3108 33.8701 3.69759 33.5746 4.18751L35.2872 5.22049ZM35.7394 4.79479C35.9228 4.6932 36.1451 4.632 36.4309 4.632V2.632C35.842 2.632 35.2803 2.7628 34.7704 3.04521L35.7394 4.79479ZM36.4309 4.632C36.7039 4.632 36.9166 4.68936 37.092 4.78402L38.0418 3.02398C37.5452 2.75598 37.0005 2.632 36.4309 2.632V4.632ZM37.1086 4.7928C37.2792 4.88078 37.4096 5.003 37.5126 5.17842L39.2372 4.16558C38.9456 3.669 38.5372 3.27922 38.0252 3.0152L37.1086 4.7928ZM37.5162 5.18446C37.6037 5.33117 37.6709 5.54336 37.6709 5.864H39.6709C39.6709 5.25664 39.5407 4.67417 39.2336 4.15954L37.5162 5.18446ZM37.6709 5.864C37.6709 5.87684 37.6701 5.904 37.6664 5.94896L39.6595 6.11504C39.6664 6.032 39.6709 5.94716 39.6709 5.864H37.6709ZM37.667 5.94146C37.6619 5.99743 37.6569 6.05043 37.6519 6.1005L39.6419 6.2995C39.6476 6.24291 39.6532 6.18391 39.6588 6.12254L37.667 5.94146ZM38.6469 5.2H35.1509V7.2H38.6469V5.2ZM36.1509 6.2V5.472H34.1509V6.2H36.1509ZM35.1509 6.472H37.9909V4.472H35.1509V6.472ZM37.5805 4.56008L37.1005 4.77608L37.9213 6.59992L38.4013 6.38392L37.5805 4.56008ZM38.5109 5.688C38.5109 5.3275 38.4371 4.96129 38.2517 4.62317L36.4981 5.58483C36.4971 5.58299 36.4997 5.58686 36.503 5.60081C36.5064 5.61548 36.5109 5.64332 36.5109 5.688H38.5109ZM38.2517 4.62317C38.0741 4.29932 37.8178 4.03463 37.4919 3.84998L36.5059 5.59002C36.5067 5.59047 36.5059 5.59009 36.5041 5.58873C36.5023 5.58734 36.5003 5.58558 36.4984 5.58362C36.4965 5.58168 36.4954 5.58029 36.4952 5.57995C36.4949 5.57964 36.496 5.58105 36.4981 5.58483L38.2517 4.62317ZM37.5134 3.86251C37.1768 3.66052 36.807 3.576 36.4389 3.576V5.576C36.4704 5.576 36.486 5.57951 36.4899 5.58049C36.4929 5.58128 36.4898 5.58072 36.4844 5.57749L37.5134 3.86251ZM36.4389 3.576C36.0701 3.576 35.7038 3.66071 35.3688 3.85521L36.373 5.58479C36.3738 5.58436 36.3759 5.58304 36.3827 5.58133C36.39 5.57947 36.4076 5.576 36.4389 5.576V3.576ZM35.3779 3.84998C35.0438 4.03932 34.7869 4.31314 34.6118 4.64284L36.378 5.58116C36.3794 5.57863 36.3804 5.57686 36.3811 5.57574C36.3818 5.57463 36.3822 5.57411 36.3822 5.5741C36.3822 5.57409 36.3819 5.5745 36.3812 5.57526C36.3806 5.57602 36.3797 5.57704 36.3786 5.57823C36.3762 5.58071 36.3734 5.58329 36.3703 5.58565C36.3673 5.58799 36.365 5.58942 36.3639 5.59002L35.3779 3.84998ZM34.6181 4.63117C34.4309 4.97256 34.3589 5.34265 34.3589 5.704H36.3589C36.3589 5.60668 36.3776 5.5821 36.3717 5.59283L34.6181 4.63117ZM34.3589 5.704V5.896H36.3589V5.704H34.3589ZM34.3589 5.896C34.3589 6.27894 34.443 6.65891 34.638 7.00782L36.3838 6.03218C36.3762 6.01843 36.3589 5.98239 36.3589 5.896H34.3589ZM34.6557 7.0383C34.8602 7.37564 35.146 7.63854 35.4936 7.81729L36.4083 6.03871C36.3825 6.02546 36.375 6.01636 36.3661 6.0017L34.6557 7.0383ZM35.5239 7.83225C35.874 7.9976 36.2491 8.064 36.6229 8.064V6.064C36.4847 6.064 36.4118 6.03974 36.3779 6.02375L35.5239 7.83225ZM36.6229 8.064C36.9507 8.064 37.2837 8.01467 37.5993 7.88647L36.8465 6.03353C36.8208 6.044 36.7537 6.064 36.6229 6.064V8.064ZM37.5894 7.89041C37.894 7.77043 38.1637 7.59251 38.3965 7.36832L37.0093 5.92768C36.9541 5.98082 36.9038 6.0109 36.8564 6.02959L37.5894 7.89041ZM36.9678 7.32594L37.6318 8.04594L39.102 6.69006L38.438 5.97006L36.9678 7.32594ZM37.6165 6.70697C37.5289 6.80646 37.4114 6.89383 37.243 6.96298L38.0028 8.81302C38.4318 8.63684 38.8102 8.37754 39.1173 8.02903L37.6165 6.70697ZM37.2573 6.95725C37.097 7.0202 36.8811 7.064 36.5909 7.064V9.064C37.0794 9.064 37.5515 8.99046 37.9886 8.81875L37.2573 6.95725ZM43.0298 3.84L42.5684 4.72722C42.5755 4.73087 42.5825 4.73444 42.5896 4.73792L43.0298 3.84ZM43.6698 4.464L42.7925 4.94403L42.7964 4.95107L43.6698 4.464ZM43.9018 8V9C44.4541 9 44.9018 8.55228 44.9018 8H43.9018ZM42.6538 8H41.6538C41.6538 8.55228 42.1015 9 42.6538 9V8ZM42.4218 4.96L41.6797 5.63029C41.6836 5.63461 41.6875 5.6389 41.6915 5.64316L42.4218 4.96ZM41.2458 4.84L41.7052 5.72829L41.7164 5.72235L41.2458 4.84ZM40.8778 5.216L39.9947 4.74684C39.9908 4.75411 39.987 4.76143 39.9834 4.76879L40.8778 5.216ZM40.7498 8V9C41.3021 9 41.7498 8.55228 41.7498 8H40.7498ZM39.5018 8H38.5018C38.5018 8.55228 38.9495 9 39.5018 9V8ZM39.5018 3.696V2.696C38.9495 2.696 38.5018 3.14371 38.5018 3.696H39.5018ZM40.6938 3.696H41.6938C41.6938 3.14371 41.2461 2.696 40.6938 2.696V3.696ZM40.6938 4.888L39.8447 5.4163C40.0806 5.79539 40.5392 5.97218 40.9685 5.84952C41.3978 5.72687 41.6938 5.33448 41.6938 4.888H40.6938ZM40.4698 4.528L39.5888 4.05487C39.4194 4.37033 39.4316 4.75228 39.6207 5.0563L40.4698 4.528ZM41.1338 3.864L41.6069 4.74499L41.6069 4.74499L41.1338 3.864ZM42.1178 4.632C42.3205 4.632 42.4626 4.67217 42.5684 4.72722L43.4911 2.95278C43.0637 2.7305 42.5977 2.632 42.1178 2.632V4.632ZM42.5896 4.73792C42.6642 4.77447 42.7303 4.83022 42.7925 4.94401L44.547 3.98399C44.3 3.53244 43.9394 3.1722 43.4699 2.94208L42.5896 4.73792ZM42.7964 4.95107C42.8426 5.03383 42.9018 5.20787 42.9018 5.536H44.9018C44.9018 4.98946 44.8063 4.44884 44.5431 3.97693L42.7964 4.95107ZM42.9018 5.536V8H44.9018V5.536H42.9018ZM43.9018 7H42.6538V9H43.9018V7ZM43.6538 8V5.728H41.6538V8H43.6538ZM43.6538 5.728C43.6538 5.25842 43.5524 4.70483 43.1521 4.27684L41.6915 5.64316C41.6465 5.59509 41.6363 5.55772 41.6385 5.56518C41.6419 5.57639 41.6538 5.62528 41.6538 5.728H43.6538ZM43.1639 4.28971C42.7802 3.86492 42.2675 3.712 41.7818 3.712V5.712C41.8224 5.712 41.8186 5.71813 41.7885 5.70644C41.7732 5.70051 41.7539 5.69106 41.7333 5.67696C41.7126 5.66279 41.6945 5.64667 41.6797 5.63029L43.1639 4.28971ZM41.7818 3.712C41.4351 3.712 41.0926 3.78838 40.7752 3.95765L41.7164 5.72235C41.719 5.72095 41.7338 5.712 41.7818 5.712V3.712ZM40.7864 3.95178C40.4315 4.13532 40.1698 4.41724 39.9947 4.74684L41.7609 5.68515C41.7659 5.67573 41.7644 5.68124 41.7525 5.69346C41.7398 5.70635 41.7231 5.71894 41.7052 5.72822L40.7864 3.95178ZM39.9834 4.76879C39.8066 5.12226 39.7498 5.50811 39.7498 5.872H41.7498C41.7498 5.70255 41.7783 5.65107 41.7722 5.66321L39.9834 4.76879ZM39.7498 5.872V8H41.7498V5.872H39.7498ZM40.7498 7H39.5018V9H40.7498V7ZM40.5018 8V3.696H38.5018V8H40.5018ZM39.5018 4.696H40.6938V2.696H39.5018V4.696ZM39.6938 3.696V4.888H41.6938V3.696H39.6938ZM41.5428 4.3597L41.3188 3.9997L39.6207 5.0563L39.8447 5.4163L41.5428 4.3597ZM41.3508 5.00113C41.4125 4.88619 41.492 4.80672 41.6069 4.74499L40.6607 2.98301C40.1996 3.23061 39.8364 3.59381 39.5888 4.05487L41.3508 5.00113ZM41.6069 4.74499C41.732 4.67784 41.8938 4.632 42.1178 4.632V2.632C41.6057 2.632 41.1116 2.74083 40.6607 2.98301L41.6069 4.74499ZM47.673 8H46.673C46.673 8.55228 47.1207 9 47.673 9V8ZM47.673 7.16H48.673C48.673 7.02281 48.6448 6.88709 48.5901 6.76127L47.673 7.16ZM47.593 6.976H46.593C46.593 7.11319 46.6213 7.24891 46.676 7.37473L47.593 6.976ZM47.345 4.848L46.6627 5.57906C46.6667 5.58277 46.6707 5.58645 46.6747 5.5901L47.345 4.848ZM45.921 4.736L46.2233 5.68923C46.2279 5.68775 46.2326 5.68623 46.2373 5.68468L45.921 4.736ZM45.361 5.024L44.4716 5.48098C44.6083 5.74723 44.8572 5.9382 45.1498 6.00144C45.4424 6.06467 45.7479 5.9935 45.9824 5.8075L45.361 5.024ZM44.913 4.152L44.3371 3.33452C43.9294 3.62174 43.7957 4.16541 44.0236 4.60898L44.913 4.152ZM45.761 3.768L45.4966 2.8036L45.4966 2.8036L45.761 3.768ZM48.297 4.096L48.946 3.33517L48.946 3.33517L48.297 4.096ZM48.841 8V9C49.3933 9 49.841 8.55228 49.841 8H48.841ZM45.497 7.896L45.0578 8.79438C45.0632 8.79703 45.0687 8.79963 45.0741 8.80218L45.497 7.896ZM44.945 7.424L45.784 6.87981L45.784 6.87981L44.945 7.424ZM44.937 6.088L44.105 5.5333C44.1014 5.5387 44.0978 5.54414 44.0943 5.54961L44.937 6.088ZM45.537 5.64L45.9021 6.57097C45.9074 6.56892 45.9126 6.56682 45.9178 6.56468L45.537 5.64ZM47.745 5.472H48.745C48.745 4.91972 48.2973 4.472 47.745 4.472V5.472ZM47.745 6.2V7.2C48.2973 7.2 48.745 6.75228 48.745 6.2H47.745ZM46.129 6.344L45.4782 5.58474C45.4721 5.58999 45.4661 5.59531 45.4601 5.60071L46.129 6.344ZM46.153 7.088L45.5367 7.87551C45.5493 7.88531 45.562 7.89482 45.575 7.90402L46.153 7.088ZM47.233 7.08L47.7352 7.94479C47.742 7.94081 47.7488 7.93674 47.7556 7.9326L47.233 7.08ZM47.593 6.64L48.5417 6.32377C48.4085 5.92399 48.0389 5.65065 47.6176 5.6403C47.1963 5.62995 46.8138 5.8848 46.661 6.27755L47.593 6.64ZM47.785 7.216L48.7355 7.52674C48.8021 7.32296 48.8015 7.10316 48.7337 6.89977L47.785 7.216ZM47.289 7.848L46.7745 6.99051L46.7745 6.99051L47.289 7.848ZM48.673 8V7.16H46.673V8H48.673ZM48.5901 6.76127L48.5101 6.57727L46.676 7.37473L46.756 7.55873L48.5901 6.76127ZM48.593 6.976V5.472H46.593V6.976H48.593ZM48.593 5.472C48.593 4.98313 48.4317 4.48201 48.0153 4.1059L46.6747 5.5901C46.6606 5.57736 46.6457 5.56094 46.632 5.54117C46.6183 5.52141 46.6084 5.5021 46.6017 5.48534C46.5883 5.45163 46.593 5.44145 46.593 5.472H48.593ZM48.0273 4.11694C47.6045 3.72224 47.059 3.624 46.601 3.624V5.624C46.6484 5.624 46.6842 5.62666 46.7097 5.62993C46.7353 5.6332 46.7481 5.63674 46.7507 5.63754C46.7545 5.63868 46.7137 5.62666 46.6627 5.57906L48.0273 4.11694ZM46.601 3.624C46.261 3.624 45.9277 3.67968 45.6048 3.78732L46.2373 5.68468C46.3623 5.64299 46.4824 5.624 46.601 5.624V3.624ZM45.6188 3.78277C45.3028 3.88297 45.0036 4.03117 44.7396 4.2405L45.9824 5.8075C46.0278 5.77149 46.102 5.7277 46.2233 5.68923L45.6188 3.78277ZM46.2505 4.56702L45.8025 3.69502L44.0236 4.60898L44.4716 5.48098L46.2505 4.56702ZM45.489 4.96948C45.6127 4.88231 45.7852 4.79827 46.0255 4.7324L45.4966 2.8036C45.0755 2.91906 44.6827 3.09102 44.3371 3.33452L45.489 4.96948ZM46.0255 4.7324C46.2704 4.66525 46.5174 4.632 46.769 4.632V2.632C46.338 2.632 45.913 2.68941 45.4966 2.8036L46.0255 4.7324ZM46.769 4.632C47.2765 4.632 47.5244 4.75134 47.6481 4.85683L48.946 3.33517C48.3443 2.822 47.5736 2.632 46.769 2.632V4.632ZM47.6481 4.85683C47.713 4.91223 47.841 5.06533 47.841 5.544H49.841C49.841 4.71067 49.6064 3.89843 48.946 3.33517L47.6481 4.85683ZM47.841 5.544V8H49.841V5.544H47.841ZM48.841 7H47.673V9H48.841V7ZM46.361 7.064C46.1332 7.064 45.9969 7.02575 45.9199 6.98982L45.0741 8.80218C45.4771 8.99025 45.9169 9.064 46.361 9.064V7.064ZM45.9362 6.99762C45.8366 6.94888 45.8005 6.90522 45.784 6.87981L44.1061 7.96819C44.3456 8.33744 44.6775 8.60846 45.0578 8.79438L45.9362 6.99762ZM45.784 6.87981C45.7658 6.85171 45.753 6.82095 45.753 6.76H43.753C43.753 7.18972 43.8683 7.60162 44.1061 7.96819L45.784 6.87981ZM45.753 6.76C45.753 6.67049 45.7721 6.63828 45.7797 6.62639L44.0943 5.54961C43.8566 5.92172 43.753 6.33751 43.753 6.76H45.753ZM45.7691 6.6427C45.7648 6.64909 45.7653 6.64527 45.7813 6.63328C45.7988 6.62025 45.8355 6.59709 45.9021 6.57097L45.1719 4.70903C44.7603 4.87047 44.3734 5.13068 44.105 5.5333L45.7691 6.6427ZM45.9178 6.56468C46.0251 6.52048 46.2366 6.472 46.601 6.472V4.472C46.0908 4.472 45.5929 4.53552 45.1563 4.71532L45.9178 6.56468ZM46.601 6.472H47.745V4.472H46.601V6.472ZM46.745 5.472V6.2H48.745V5.472H46.745ZM47.745 5.2H46.737V7.2H47.745V5.2ZM46.737 5.2C46.4061 5.2 45.881 5.23954 45.4782 5.58474L46.7798 7.10326C46.726 7.14939 46.6774 7.176 46.6462 7.19031C46.6152 7.20445 46.5962 7.20891 46.5955 7.20908C46.5944 7.20933 46.6051 7.2068 46.6304 7.20435C46.6553 7.20193 46.6904 7.2 46.737 7.2V5.2ZM45.4601 5.60071C45.1419 5.8871 44.969 6.27763 44.969 6.704H46.969C46.969 6.75829 46.9583 6.83238 46.9228 6.91214C46.8874 6.99198 46.8393 7.05015 46.798 7.08729L45.4601 5.60071ZM44.969 6.704C44.969 7.16178 45.1643 7.58404 45.5367 7.87551L46.7693 6.30049C46.8173 6.338 46.8747 6.3999 46.9168 6.48788C46.9586 6.57502 46.969 6.65357 46.969 6.704H44.969ZM45.575 7.90402C45.9268 8.15322 46.3265 8.224 46.673 8.224V6.224C46.6311 6.224 46.6203 6.21947 46.6321 6.22254C46.6456 6.22608 46.6838 6.2385 46.731 6.27198L45.575 7.90402ZM46.673 8.224C47.0414 8.224 47.404 8.13705 47.7352 7.94479L46.7309 6.21521C46.7281 6.21684 46.7253 6.21813 46.72 6.21951C46.7142 6.221 46.6996 6.224 46.673 6.224V8.224ZM47.7556 7.9326C48.1194 7.70965 48.3764 7.38463 48.525 7.00245L46.661 6.27755C46.6585 6.28405 46.6609 6.2756 46.6731 6.26076C46.6857 6.24539 46.6999 6.23387 46.7105 6.2274L47.7556 7.9326ZM46.6443 6.95623L46.8363 7.53223L48.7337 6.89977L48.5417 6.32377L46.6443 6.95623ZM46.8345 6.90526C46.8152 6.96442 46.7988 6.97597 46.7745 6.99051L47.8035 8.70549C48.2593 8.43203 48.5735 8.02225 48.7355 7.52674L46.8345 6.90526ZM46.7745 6.99051C46.7355 7.01392 46.6202 7.064 46.361 7.064V9.064C46.8592 9.064 47.3626 8.97008 47.8035 8.70549L46.7745 6.99051ZM49.9705 8H48.9705C48.9705 8.55228 49.4182 9 49.9705 9V8ZM49.9705 2.064V1.064C49.4182 1.064 48.9705 1.51171 48.9705 2.064H49.9705ZM51.2185 2.064H52.2185C52.2185 1.51171 51.7708 1.064 51.2185 1.064V2.064ZM51.2185 8V9C51.7708 9 52.2185 8.55228 52.2185 8H51.2185ZM50.9705 8V2.064H48.9705V8H50.9705ZM49.9705 3.064H51.2185V1.064H49.9705V3.064ZM50.2185 2.064V8H52.2185V2.064H50.2185ZM51.2185 7H49.9705V9H51.2185V7ZM52.3768 8H51.3768C51.3768 8.55228 51.8245 9 52.3768 9V8ZM52.3768 3.696V2.696C51.8245 2.696 51.3768 3.14371 51.3768 3.696H52.3768ZM53.6248 3.696H54.6248C54.6248 3.14371 54.1771 2.696 53.6248 2.696V3.696ZM53.6248 8V9C54.1771 9 54.6248 8.55228 54.6248 8H53.6248ZM52.4408 2.896L51.7614 3.62976L51.7614 3.62976L52.4408 2.896ZM52.4408 1.904L53.1202 2.63776L53.1202 2.63776L52.4408 1.904ZM53.5608 1.896L52.8964 2.64341C52.9017 2.64808 52.907 2.65269 52.9123 2.65724L53.5608 1.896ZM53.5608 2.896L54.2539 3.61683L54.2544 3.61632L53.5608 2.896ZM53.3768 8V3.696H51.3768V8H53.3768ZM52.3768 4.696H53.6248V2.696H52.3768V4.696ZM52.6248 3.696V8H54.6248V3.696H52.6248ZM53.6248 7H52.3768V9H53.6248V7ZM53.0008 2.096C52.9831 2.096 52.995 2.09351 53.0251 2.10426C53.0577 2.1159 53.092 2.13617 53.1202 2.16224L51.7614 3.62976C52.121 3.96272 52.5648 4.096 53.0008 4.096V2.096ZM53.1202 2.16224C53.1406 2.1811 53.1717 2.21786 53.1956 2.27273C53.2195 2.32747 53.2248 2.37434 53.2248 2.4H51.2248C51.2248 2.87414 51.4117 3.30598 51.7614 3.62976L53.1202 2.16224ZM53.2248 2.4C53.2248 2.42566 53.2195 2.47252 53.1956 2.52727C53.1717 2.58214 53.1406 2.61891 53.1202 2.63776L51.7614 1.17024C51.4117 1.49402 51.2248 1.92586 51.2248 2.4H53.2248ZM53.1202 2.63776C53.092 2.66382 53.0577 2.6841 53.0251 2.69574C52.995 2.70649 52.9831 2.704 53.0008 2.704V0.704C52.5648 0.704 52.121 0.837275 51.7614 1.17024L53.1202 2.63776ZM53.0008 2.704C53.0226 2.704 53.0149 2.70701 52.9885 2.69795C52.9595 2.68802 52.9259 2.66963 52.8964 2.64341L54.2251 1.14859C53.8644 0.827947 53.4259 0.704 53.0008 0.704V2.704ZM52.9123 2.65724C52.8806 2.6302 52.8403 2.58372 52.8109 2.51836C52.782 2.45414 52.7768 2.40113 52.7768 2.376H54.7768C54.7768 1.90016 54.5871 1.45662 54.2092 1.13476L52.9123 2.65724ZM52.7768 2.376C52.7768 2.36261 52.7796 2.32583 52.7993 2.27839C52.8193 2.2301 52.8468 2.19531 52.8671 2.17568L54.2544 3.61632C54.6029 3.28076 54.7768 2.84342 54.7768 2.376H52.7768ZM52.8677 2.17517C52.9034 2.14078 52.9447 2.11702 52.9804 2.10426C53.0129 2.09268 53.0241 2.096 53.0008 2.096V4.096C53.4337 4.096 53.8897 3.96703 54.2539 3.61683L52.8677 2.17517ZM58.311 3.84L57.8497 4.72722C57.8567 4.73087 57.8638 4.73444 57.8709 4.73792L58.311 3.84ZM58.951 4.464L58.0737 4.94403L58.0777 4.95107L58.951 4.464ZM59.183 8V9C59.7353 9 60.183 8.55228 60.183 8H59.183ZM57.935 8H56.935C56.935 8.55228 57.3827 9 57.935 9V8ZM57.703 4.96L56.9609 5.63029C56.9648 5.63461 56.9688 5.6389 56.9728 5.64316L57.703 4.96ZM56.527 4.84L56.9865 5.72829L56.9976 5.72235L56.527 4.84ZM56.159 5.216L55.2759 4.74684C55.2721 4.75411 55.2683 4.76143 55.2646 4.76879L56.159 5.216ZM56.031 8V9C56.5833 9 57.031 8.55228 57.031 8H56.031ZM54.783 8H53.783C53.783 8.55228 54.2307 9 54.783 9V8ZM54.783 3.696V2.696C54.2307 2.696 53.783 3.14371 53.783 3.696H54.783ZM55.975 3.696H56.975C56.975 3.14371 56.5273 2.696 55.975 2.696V3.696ZM55.975 4.888L55.126 5.4163C55.3619 5.79539 55.8205 5.97218 56.2498 5.84952C56.6791 5.72687 56.975 5.33448 56.975 4.888H55.975ZM55.751 4.528L54.87 4.05487C54.7006 4.37033 54.7128 4.75228 54.902 5.0563L55.751 4.528ZM56.415 3.864L56.8882 4.74499L56.8882 4.74499L56.415 3.864ZM57.399 4.632C57.6017 4.632 57.7438 4.67217 57.8497 4.72722L58.7724 2.95278C58.3449 2.7305 57.879 2.632 57.399 2.632V4.632ZM57.8709 4.73792C57.9454 4.77447 58.0115 4.83022 58.0738 4.94401L59.8283 3.98399C59.5812 3.53244 59.2206 3.1722 58.7512 2.94208L57.8709 4.73792ZM58.0777 4.95107C58.1238 5.03383 58.183 5.20787 58.183 5.536H60.183C60.183 4.98946 60.0876 4.44884 59.8244 3.97693L58.0777 4.95107ZM58.183 5.536V8H60.183V5.536H58.183ZM59.183 7H57.935V9H59.183V7ZM58.935 8V5.728H56.935V8H58.935ZM58.935 5.728C58.935 5.25842 58.8337 4.70483 58.4333 4.27684L56.9728 5.64316C56.9278 5.59509 56.9175 5.55772 56.9198 5.56518C56.9231 5.57639 56.935 5.62528 56.935 5.728H58.935ZM58.4451 4.28971C58.0614 3.86492 57.5488 3.712 57.063 3.712V5.712C57.1036 5.712 57.0999 5.71813 57.0697 5.70644C57.0544 5.70051 57.0352 5.69106 57.0146 5.67696C56.9938 5.66279 56.9757 5.64667 56.9609 5.63029L58.4451 4.28971ZM57.063 3.712C56.7164 3.712 56.3738 3.78838 56.0564 3.95765L56.9976 5.72235C57.0003 5.72095 57.015 5.712 57.063 5.712V3.712ZM56.0676 3.95178C55.7128 4.13532 55.451 4.41724 55.2759 4.74684L57.0421 5.68515C57.0472 5.67573 57.0457 5.68124 57.0337 5.69346C57.0211 5.70635 57.0044 5.71894 56.9865 5.72822L56.0676 3.95178ZM55.2646 4.76879C55.0879 5.12226 55.031 5.50811 55.031 5.872H57.031C57.031 5.70255 57.0595 5.65107 57.0535 5.66321L55.2646 4.76879ZM55.031 5.872V8H57.031V5.872H55.031ZM56.031 7H54.783V9H56.031V7ZM55.783 8V3.696H53.783V8H55.783ZM54.783 4.696H55.975V2.696H54.783V4.696ZM54.975 3.696V4.888H56.975V3.696H54.975ZM56.8241 4.3597L56.6001 3.9997L54.902 5.0563L55.126 5.4163L56.8241 4.3597ZM56.632 5.00113C56.6937 4.88619 56.7732 4.80672 56.8882 4.74499L55.9419 2.98301C55.4808 3.23061 55.1176 3.59381 54.87 4.05487L56.632 5.00113ZM56.8882 4.74499C57.0132 4.67784 57.1751 4.632 57.399 4.632V2.632C56.887 2.632 56.3929 2.74083 55.9419 2.98301L56.8882 4.74499ZM61.1855 7.776L60.723 8.6626L60.7282 8.66529L61.1855 7.776ZM60.3295 6.992L59.4732 7.50851L59.4769 7.51456L60.3295 6.992ZM60.3215 4.704L59.4652 4.1875L59.4628 4.19154L60.3215 4.704ZM61.1455 3.92L61.6197 4.80053L61.63 4.79479L61.1455 3.92ZM63.4575 3.904L62.9826 4.78402C62.9881 4.787 62.9937 4.78993 62.9992 4.7928L63.4575 3.904ZM64.2655 4.672L63.4032 5.17843L63.4068 5.18446L64.2655 4.672ZM64.5535 6.032L65.5495 6.12254L65.5501 6.11504L64.5535 6.032ZM64.5375 6.2V7.2C65.0513 7.2 65.4814 6.8107 65.5326 6.2995L64.5375 6.2ZM61.0415 6.2H60.0415C60.0415 6.75228 60.4892 7.2 61.0415 7.2V6.2ZM61.0415 5.472V4.472C60.4892 4.472 60.0415 4.91972 60.0415 5.472H61.0415ZM63.8815 5.472L64.2919 6.38392C64.7218 6.19047 64.9582 5.72306 64.8593 5.26214C64.7603 4.80123 64.3529 4.472 63.8815 4.472V5.472ZM63.4015 5.688H62.4015C62.4015 6.02733 62.5736 6.34351 62.8586 6.52775C63.1435 6.712 63.5025 6.73917 63.8119 6.59992L63.4015 5.688ZM63.2655 5.104L62.3887 5.58483L62.3887 5.58483L63.2655 5.104ZM62.8895 4.72L62.375 5.57749C62.3821 5.58176 62.3893 5.58593 62.3965 5.59002L62.8895 4.72ZM61.7615 4.72L62.2546 5.59007L62.2637 5.58479L61.7615 4.72ZM61.3855 5.112L62.2624 5.59287L62.2686 5.58116L61.3855 5.112ZM61.4015 6.52L60.5286 7.00782C60.5343 7.01809 60.5402 7.02825 60.5463 7.0383L61.4015 6.52ZM61.8415 6.928L61.3842 7.81729C61.3942 7.82245 61.4043 7.82743 61.4145 7.83225L61.8415 6.928ZM63.1135 6.96L62.747 6.02954L62.7372 6.03353L63.1135 6.96ZM63.5935 6.648L64.3286 5.97006C64.1463 5.77234 63.892 5.65641 63.6232 5.64844C63.3543 5.64047 63.0936 5.74112 62.8999 5.92768L63.5935 6.648ZM64.2575 7.368L65.0079 8.02903C65.3465 7.64467 65.3399 7.06661 64.9926 6.69006L64.2575 7.368ZM63.5135 7.888L63.8792 8.81875C63.884 8.81688 63.8887 8.81497 63.8935 8.81302L63.5135 7.888ZM62.4815 7.064C62.1231 7.064 61.8527 6.9946 61.6429 6.88671L60.7282 8.66529C61.2651 8.9414 61.8586 9.064 62.4815 9.064V7.064ZM61.6481 6.88942C61.429 6.77508 61.2835 6.63479 61.1821 6.46944L59.4769 7.51456C59.7809 8.01054 60.2061 8.39292 60.723 8.66258L61.6481 6.88942ZM61.1858 6.47551C61.0853 6.30889 61.0255 6.10908 61.0255 5.848H59.0255C59.0255 6.44025 59.1684 7.00311 59.4732 7.50849L61.1858 6.47551ZM61.0255 5.848C61.0255 5.57391 61.0863 5.37392 61.1802 5.21646L59.4628 4.19154C59.1621 4.69542 59.0255 5.25809 59.0255 5.848H61.0255ZM61.1778 5.22049C61.2877 5.03841 61.4301 4.90253 61.6196 4.80047L60.6714 3.03953C60.1676 3.3108 59.7607 3.69759 59.4652 4.18751L61.1778 5.22049ZM61.63 4.79479C61.8135 4.6932 62.0357 4.632 62.3215 4.632V2.632C61.7327 2.632 61.1709 2.7628 60.661 3.04521L61.63 4.79479ZM62.3215 4.632C62.5946 4.632 62.8072 4.68936 62.9826 4.78402L63.9325 3.02398C63.4359 2.75598 62.8912 2.632 62.3215 2.632V4.632ZM62.9992 4.7928C63.1699 4.88078 63.3002 5.003 63.4032 5.17842L65.1278 4.16558C64.8362 3.669 64.4279 3.27922 63.9158 3.0152L62.9992 4.7928ZM63.4068 5.18446C63.4944 5.33117 63.5615 5.54336 63.5615 5.864H65.5615C65.5615 5.25664 65.4314 4.67417 65.1242 4.15954L63.4068 5.18446ZM63.5615 5.864C63.5615 5.87684 63.5607 5.904 63.557 5.94896L65.5501 6.11504C65.557 6.032 65.5615 5.94716 65.5615 5.864H63.5615ZM63.5576 5.94146C63.5526 5.99743 63.5475 6.05043 63.5425 6.1005L65.5326 6.2995C65.5382 6.24291 65.5438 6.18391 65.5494 6.12254L63.5576 5.94146ZM64.5375 5.2H61.0415V7.2H64.5375V5.2ZM62.0415 6.2V5.472H60.0415V6.2H62.0415ZM61.0415 6.472H63.8815V4.472H61.0415V6.472ZM63.4712 4.56008L62.9912 4.77608L63.8119 6.59992L64.2919 6.38392L63.4712 4.56008ZM64.4015 5.688C64.4015 5.3275 64.3278 4.96129 64.1423 4.62317L62.3887 5.58483C62.3877 5.58299 62.3903 5.58686 62.3936 5.60081C62.397 5.61548 62.4015 5.64332 62.4015 5.688H64.4015ZM64.1423 4.62317C63.9648 4.29932 63.7084 4.03463 63.3825 3.84998L62.3965 5.59002C62.3973 5.59047 62.3965 5.59009 62.3948 5.58873C62.393 5.58734 62.3909 5.58558 62.389 5.58362C62.3871 5.58168 62.386 5.58029 62.3858 5.57995C62.3856 5.57964 62.3866 5.58105 62.3887 5.58483L64.1423 4.62317ZM63.404 3.86251C63.0674 3.66052 62.6976 3.576 62.3295 3.576V5.576C62.361 5.576 62.3767 5.57951 62.3805 5.58049C62.3836 5.58128 62.3804 5.58072 62.375 5.57749L63.404 3.86251ZM62.3295 3.576C61.9607 3.576 61.5944 3.66071 61.2594 3.85521L62.2637 5.58479C62.2644 5.58436 62.2665 5.58304 62.2733 5.58133C62.2806 5.57947 62.2982 5.576 62.3295 5.576V3.576ZM61.2685 3.84998C60.9344 4.03932 60.6776 4.31314 60.5024 4.64284L62.2686 5.58116C62.27 5.57863 62.271 5.57686 62.2717 5.57574C62.2724 5.57463 62.2728 5.57411 62.2728 5.5741C62.2728 5.57409 62.2725 5.5745 62.2719 5.57526C62.2712 5.57602 62.2704 5.57704 62.2692 5.57823C62.2668 5.58071 62.264 5.58329 62.2609 5.58565C62.2579 5.58799 62.2556 5.58942 62.2545 5.59002L61.2685 3.84998ZM60.5087 4.63117C60.3215 4.97256 60.2495 5.34265 60.2495 5.704H62.2495C62.2495 5.60668 62.2682 5.5821 62.2623 5.59283L60.5087 4.63117ZM60.2495 5.704V5.896H62.2495V5.704H60.2495ZM60.2495 5.896C60.2495 6.27894 60.3336 6.65891 60.5286 7.00782L62.2745 6.03218C62.2668 6.01843 62.2495 5.98239 62.2495 5.896H60.2495ZM60.5463 7.0383C60.7508 7.37564 61.0366 7.63854 61.3842 7.81729L62.2989 6.03871C62.2731 6.02546 62.2656 6.01636 62.2567 6.0017L60.5463 7.0383ZM61.4145 7.83225C61.7647 7.9976 62.1398 8.064 62.5135 8.064V6.064C62.3753 6.064 62.3024 6.03974 62.2685 6.02375L61.4145 7.83225ZM62.5135 8.064C62.8414 8.064 63.1743 8.01467 63.4899 7.88647L62.7372 6.03353C62.7114 6.044 62.6444 6.064 62.5135 6.064V8.064ZM63.4801 7.89041C63.7846 7.77043 64.0544 7.59251 64.2872 7.36832L62.8999 5.92768C62.8447 5.98082 62.7944 6.0109 62.747 6.02959L63.4801 7.89041ZM62.8584 7.32594L63.5224 8.04594L64.9926 6.69006L64.3286 5.97006L62.8584 7.32594ZM63.5072 6.70697C63.4195 6.80646 63.302 6.89383 63.1336 6.96298L63.8935 8.81302C64.3224 8.63684 64.7009 8.37754 65.0079 8.02903L63.5072 6.70697ZM63.1479 6.95725C62.9876 7.0202 62.7717 7.064 62.4815 7.064V9.064C62.9701 9.064 63.4421 8.99046 63.8792 8.81875L63.1479 6.95725Z" fill="black"/>
</svg>
