<svg width="74" height="9" viewBox="0 0 74 9" fill="none" xmlns="http://www.w3.org/2000/svg">
<g clip-path="url(#clip0_1_2)">
<path d="M3 8V7H4V8H3ZM2 7V5H3V7H2ZM4 7V5H5V7H4ZM1 5V1H2V5H1ZM5 5V1H6V5H5ZM7 7V3H8V7H7ZM8 8V7H11V3H12V8H8ZM14 8V7H15V8H14ZM13 7V1H14V7H13ZM19 8V7H20V8H19ZM18 7V6H19V7H18ZM18 5V4H19V5H18ZM19 4V3H20V4H19ZM16 8V1H17V5H18V6H17V8H16ZM21 7V6H22V7H21ZM22 8V7H25V6H22V5H25V4H26V8H22ZM22 4V3H25V4H22ZM27 7V4H28V7H27ZM28 4V3H30V4H28ZM28 8V7H31V5H30V4H31V1H32V8H28ZM37 5V4H38V5H37ZM33 8V3H34V4H35V5H34V8H33ZM35 4V3H37V4H35ZM40 8V7H44V8H40ZM39 7V4H40V5H43V4H44V6H40V7H39ZM40 4V3H43V4H40ZM49 8V4H50V8H49ZM45 8V3H49V4H46V8H45ZM51 7V6H52V7H51ZM52 8V7H55V6H52V5H55V4H56V8H52ZM52 4V3H55V4H52ZM58 8V7H59V8H58ZM57 7V1H58V7H57ZM60 8V3H61V8H60ZM60 2V1H61V2H60ZM66 8V4H67V8H66ZM62 8V3H66V4H63V8H62ZM69 8V7H73V8H69ZM68 7V4H69V5H72V4H73V6H69V7H68ZM69 4V3H72V4H69Z" fill="#A74141"/>
<path d="M3 8H2V9H3V8ZM3 7V6H2V7H3ZM4 7H5V6H4V7ZM4 8V9H5V8H4ZM2 7H1V8H2V7ZM2 5V4H1V5H2ZM3 5H4V4H3V5ZM3 7V8H4V7H3ZM4 7H3V8H4V7ZM4 5V4H3V5H4ZM5 5H6V4H5V5ZM5 7V8H6V7H5ZM1 5H0V6H1V5ZM1 1V0H0V1H1ZM2 1H3V0H2V1ZM2 5V6H3V5H2ZM5 5H4V6H5V5ZM5 1V0H4V1H5ZM6 1H7V0H6V1ZM6 5V6H7V5H6ZM4 8V7H2V8H4ZM3 8H4V6H3V8ZM3 7V8H5V7H3ZM4 7H3V9H4V7ZM3 7V5H1V7H3ZM2 6H3V4H2V6ZM2 5V7H4V5H2ZM3 6H2V8H3V6ZM5 7V5H3V7H5ZM4 6H5V4H4V6ZM4 5V7H6V5H4ZM5 6H4V8H5V6ZM2 5V1H0V5H2ZM1 2H2V0H1V2ZM1 1V5H3V1H1ZM2 4H1V6H2V4ZM6 5V1H4V5H6ZM5 2H6V0H5V2ZM5 1V5H7V1H5ZM6 4H5V6H6V4ZM7 7H6V8H7V7ZM7 3V2H6V3H7ZM8 3H9V2H8V3ZM8 7V8H9V7H8ZM8 8H7V9H8V8ZM8 7V6H7V7H8ZM11 7V8H12V7H11ZM11 3V2H10V3H11ZM12 3H13V2H12V3ZM12 8V9H13V8H12ZM8 7V3H6V7H8ZM7 4H8V2H7V4ZM7 3V7H9V3H7ZM8 6H7V8H8V6ZM9 8V7H7V8H9ZM8 8H11V6H8V8ZM12 7V3H10V7H12ZM11 4H12V2H11V4ZM11 3V8H13V3H11ZM12 7H8V9H12V7ZM14 8H13V9H14V8ZM14 7V6H13V7H14ZM15 7H16V6H15V7ZM15 8V9H16V8H15ZM13 7H12V8H13V7ZM13 1V0H12V1H13ZM14 1H15V0H14V1ZM14 7V8H15V7H14ZM15 8V7H13V8H15ZM14 8H15V6H14V8ZM14 7V8H16V7H14ZM15 7H14V9H15V7ZM14 7V1H12V7H14ZM13 2H14V0H13V2ZM13 1V7H15V1H13ZM14 6H13V8H14V6ZM19 8H18V9H19V8ZM19 7V6H18V7H19ZM20 7H21V6H20V7ZM20 8V9H21V8H20ZM18 7H17V8H18V7ZM18 6V5H17V6H18ZM19 6H20V5H19V6ZM19 7V8H20V7H19ZM18 5H17V6H18V5ZM18 4V3H17V4H18ZM19 4H20V3H19V4ZM19 5V6H20V5H19ZM19 4H18V5H19V4ZM19 3V2H18V3H19ZM20 3H21V2H20V3ZM20 4V5H21V4H20ZM16 8H15V9H16V8ZM16 1V0H15V1H16ZM17 1H18V0H17V1ZM17 5H16V6H17V5ZM18 5H19V4H18V5ZM18 6V7H19V6H18ZM17 6V5H16V6H17ZM17 8V9H18V8H17ZM20 8V7H18V8H20ZM19 8H20V6H19V8ZM19 7V8H21V7H19ZM20 7H19V9H20V7ZM19 7V6H17V7H19ZM18 7H19V5H18V7ZM18 6V7H20V6H18ZM19 6H18V8H19V6ZM19 5V4H17V5H19ZM18 5H19V3H18V5ZM18 4V5H20V4H18ZM19 4H18V6H19V4ZM20 4V3H18V4H20ZM19 4H20V2H19V4ZM19 3V4H21V3H19ZM20 3H19V5H20V3ZM17 8V1H15V8H17ZM16 2H17V0H16V2ZM16 1V5H18V1H16ZM17 6H18V4H17V6ZM17 5V6H19V5H17ZM18 5H17V7H18V5ZM16 6V8H18V6H16ZM17 7H16V9H17V7ZM21 7H20V8H21V7ZM21 6V5H20V6H21ZM22 6H23V5H22V6ZM22 7V8H23V7H22ZM22 8H21V9H22V8ZM22 7V6H21V7H22ZM25 7V8H26V7H25ZM25 6H26V5H25V6ZM22 6H21V7H22V6ZM22 5V4H21V5H22ZM25 5V6H26V5H25ZM25 4V3H24V4H25ZM26 4H27V3H26V4ZM26 8V9H27V8H26ZM22 4H21V5H22V4ZM22 3V2H21V3H22ZM25 3H26V2H25V3ZM25 4V5H26V4H25ZM22 7V6H20V7H22ZM21 7H22V5H21V7ZM21 6V7H23V6H21ZM22 6H21V8H22V6ZM23 8V7H21V8H23ZM22 8H25V6H22V8ZM26 7V6H24V7H26ZM25 5H22V7H25V5ZM23 6V5H21V6H23ZM22 6H25V4H22V6ZM26 5V4H24V5H26ZM25 5H26V3H25V5ZM25 4V8H27V4H25ZM26 7H22V9H26V7ZM23 4V3H21V4H23ZM22 4H25V2H22V4ZM24 3V4H26V3H24ZM25 3H22V5H25V3ZM27 7H26V8H27V7ZM27 4V3H26V4H27ZM28 4H29V3H28V4ZM28 7V8H29V7H28ZM28 4H27V5H28V4ZM28 3V2H27V3H28ZM30 3H31V2H30V3ZM30 4V5H31V4H30ZM28 8H27V9H28V8ZM28 7V6H27V7H28ZM31 7V8H32V7H31ZM31 5H32V4H31V5ZM30 5H29V6H30V5ZM30 4V3H29V4H30ZM31 4V5H32V4H31ZM31 1V0H30V1H31ZM32 1H33V0H32V1ZM32 8V9H33V8H32ZM28 7V4H26V7H28ZM27 5H28V3H27V5ZM27 4V7H29V4H27ZM28 6H27V8H28V6ZM29 4V3H27V4H29ZM28 4H30V2H28V4ZM29 3V4H31V3H29ZM30 3H28V5H30V3ZM29 8V7H27V8H29ZM28 8H31V6H28V8ZM32 7V5H30V7H32ZM31 4H30V6H31V4ZM31 5V4H29V5H31ZM30 5H31V3H30V5ZM32 4V1H30V4H32ZM31 2H32V0H31V2ZM31 1V8H33V1H31ZM32 7H28V9H32V7ZM37 5H36V6H37V5ZM37 4V3H36V4H37ZM38 4H39V3H38V4ZM38 5V6H39V5H38ZM33 8H32V9H33V8ZM33 3V2H32V3H33ZM34 3H35V2H34V3ZM34 4H33V5H34V4ZM35 4H36V3H35V4ZM35 5V6H36V5H35ZM34 5V4H33V5H34ZM34 8V9H35V8H34ZM35 4H34V5H35V4ZM35 3V2H34V3H35ZM37 3H38V2H37V3ZM37 4V5H38V4H37ZM38 5V4H36V5H38ZM37 5H38V3H37V5ZM37 4V5H39V4H37ZM38 4H37V6H38V4ZM34 8V3H32V8H34ZM33 4H34V2H33V4ZM33 3V4H35V3H33ZM34 5H35V3H34V5ZM34 4V5H36V4H34ZM35 4H34V6H35V4ZM33 5V8H35V5H33ZM34 7H33V9H34V7ZM36 4V3H34V4H36ZM35 4H37V2H35V4ZM36 3V4H38V3H36ZM37 3H35V5H37V3ZM40 8H39V9H40V8ZM40 7V6H39V7H40ZM44 7H45V6H44V7ZM44 8V9H45V8H44ZM39 7H38V8H39V7ZM39 4V3H38V4H39ZM40 4H41V3H40V4ZM40 5H39V6H40V5ZM43 5V6H44V5H43ZM43 4V3H42V4H43ZM44 4H45V3H44V4ZM44 6V7H45V6H44ZM40 6V5H39V6H40ZM40 7V8H41V7H40ZM40 4H39V5H40V4ZM40 3V2H39V3H40ZM43 3H44V2H43V3ZM43 4V5H44V4H43ZM41 8V7H39V8H41ZM40 8H44V6H40V8ZM43 7V8H45V7H43ZM44 7H40V9H44V7ZM40 7V4H38V7H40ZM39 5H40V3H39V5ZM39 4V5H41V4H39ZM40 6H43V4H40V6ZM44 5V4H42V5H44ZM43 5H44V3H43V5ZM43 4V6H45V4H43ZM44 5H40V7H44V5ZM39 6V7H41V6H39ZM40 6H39V8H40V6ZM41 4V3H39V4H41ZM40 4H43V2H40V4ZM42 3V4H44V3H42ZM43 3H40V5H43V3ZM49 8H48V9H49V8ZM49 4V3H48V4H49ZM50 4H51V3H50V4ZM50 8V9H51V8H50ZM45 8H44V9H45V8ZM45 3V2H44V3H45ZM49 3H50V2H49V3ZM49 4V5H50V4H49ZM46 4V3H45V4H46ZM46 8V9H47V8H46ZM50 8V4H48V8H50ZM49 5H50V3H49V5ZM49 4V8H51V4H49ZM50 7H49V9H50V7ZM46 8V3H44V8H46ZM45 4H49V2H45V4ZM48 3V4H50V3H48ZM49 3H46V5H49V3ZM45 4V8H47V4H45ZM46 7H45V9H46V7ZM51 7H50V8H51V7ZM51 6V5H50V6H51ZM52 6H53V5H52V6ZM52 7V8H53V7H52ZM52 8H51V9H52V8ZM52 7V6H51V7H52ZM55 7V8H56V7H55ZM55 6H56V5H55V6ZM52 6H51V7H52V6ZM52 5V4H51V5H52ZM55 5V6H56V5H55ZM55 4V3H54V4H55ZM56 4H57V3H56V4ZM56 8V9H57V8H56ZM52 4H51V5H52V4ZM52 3V2H51V3H52ZM55 3H56V2H55V3ZM55 4V5H56V4H55ZM52 7V6H50V7H52ZM51 7H52V5H51V7ZM51 6V7H53V6H51ZM52 6H51V8H52V6ZM53 8V7H51V8H53ZM52 8H55V6H52V8ZM56 7V6H54V7H56ZM55 5H52V7H55V5ZM53 6V5H51V6H53ZM52 6H55V4H52V6ZM56 5V4H54V5H56ZM55 5H56V3H55V5ZM55 4V8H57V4H55ZM56 7H52V9H56V7ZM53 4V3H51V4H53ZM52 4H55V2H52V4ZM54 3V4H56V3H54ZM55 3H52V5H55V3ZM58 8H57V9H58V8ZM58 7V6H57V7H58ZM59 7H60V6H59V7ZM59 8V9H60V8H59ZM57 7H56V8H57V7ZM57 1V0H56V1H57ZM58 1H59V0H58V1ZM58 7V8H59V7H58ZM59 8V7H57V8H59ZM58 8H59V6H58V8ZM58 7V8H60V7H58ZM59 7H58V9H59V7ZM58 7V1H56V7H58ZM57 2H58V0H57V2ZM57 1V7H59V1H57ZM58 6H57V8H58V6ZM60 8H59V9H60V8ZM60 3V2H59V3H60ZM61 3H62V2H61V3ZM61 8V9H62V8H61ZM60 2H59V3H60V2ZM60 1V0H59V1H60ZM61 1H62V0H61V1ZM61 2V3H62V2H61ZM61 8V3H59V8H61ZM60 4H61V2H60V4ZM60 3V8H62V3H60ZM61 7H60V9H61V7ZM61 2V1H59V2H61ZM60 2H61V0H60V2ZM60 1V2H62V1H60ZM61 1H60V3H61V1ZM66 8H65V9H66V8ZM66 4V3H65V4H66ZM67 4H68V3H67V4ZM67 8V9H68V8H67ZM62 8H61V9H62V8ZM62 3V2H61V3H62ZM66 3H67V2H66V3ZM66 4V5H67V4H66ZM63 4V3H62V4H63ZM63 8V9H64V8H63ZM67 8V4H65V8H67ZM66 5H67V3H66V5ZM66 4V8H68V4H66ZM67 7H66V9H67V7ZM63 8V3H61V8H63ZM62 4H66V2H62V4ZM65 3V4H67V3H65ZM66 3H63V5H66V3ZM62 4V8H64V4H62ZM63 7H62V9H63V7ZM69 8H68V9H69V8ZM69 7V6H68V7H69ZM73 7H74V6H73V7ZM73 8V9H74V8H73ZM68 7H67V8H68V7ZM68 4V3H67V4H68ZM69 4H70V3H69V4ZM69 5H68V6H69V5ZM72 5V6H73V5H72ZM72 4V3H71V4H72ZM73 4H74V3H73V4ZM73 6V7H74V6H73ZM69 6V5H68V6H69ZM69 7V8H70V7H69ZM69 4H68V5H69V4ZM69 3V2H68V3H69ZM72 3H73V2H72V3ZM72 4V5H73V4H72ZM70 8V7H68V8H70ZM69 8H73V6H69V8ZM72 7V8H74V7H72ZM73 7H69V9H73V7ZM69 7V4H67V7H69ZM68 5H69V3H68V5ZM68 4V5H70V4H68ZM69 6H72V4H69V6ZM73 5V4H71V5H73ZM72 5H73V3H72V5ZM72 4V6H74V4H72ZM73 5H69V7H73V5ZM68 6V7H70V6H68ZM69 6H68V8H69V6ZM70 4V3H68V4H70ZM69 4H72V2H69V4ZM71 3V4H73V3H71ZM72 3H69V5H72V3Z" fill="black"/>
</g>
<defs>
<clipPath id="clip0_1_2">
<rect width="74" height="9" fill="white"/>
</clipPath>
</defs>
</svg>
