<svg width="49" height="7" viewBox="0 0 49 7" fill="none" xmlns="http://www.w3.org/2000/svg">
<g clip-path="url(#clip0_1_39)">
<path d="M4 6V1H5V6H4ZM0 7V0H4V1H1V6H4V7H0Z" fill="white"/>
<path d="M7 7V6H11V7H7ZM6 6V3H7V4H10V3H11V5H7V6H6ZM7 3V2H10V3H7Z" fill="white"/>
<path d="M13 7V6H16V7H13ZM16 6V5H17V6H16ZM12 6V3H13V6H12ZM16 4V3H17V4H16ZM13 3V2H16V3H13Z" fill="white"/>
<path d="M21 7V6H22V7H21ZM20 6V5H21V6H20ZM20 4V3H21V4H20ZM21 3V2H22V3H21ZM18 7V0H19V4H20V5H19V7H18Z" fill="white"/>
<path d="M24 7V6H27V7H24ZM27 6V5H28V6H27ZM23 6V1H24V6H23ZM27 2V1H28V2H27ZM24 1V0H27V1H24Z" fill="white"/>
<path d="M33 4V3H34V4H33ZM29 7V2H30V3H31V4H30V7H29ZM31 3V2H33V3H31Z" fill="white"/>
<path d="M35 6V5H36V6H35ZM36 7V6H39V5H36V4H39V3H40V7H36ZM36 3V2H39V3H36Z" fill="white"/>
<path d="M42 7V3H41V2H42V1H43V2H45V3H43V7H42ZM43 1V0H45V1H43Z" fill="white"/>
<path d="M48 7V6H49V7H48ZM47 6V2H46V1H47V0H48V1H49V2H48V6H47Z" fill="white"/>
</g>
<defs>
<clipPath id="clip0_1_39">
<rect width="49" height="7" fill="white"/>
</clipPath>
</defs>
</svg>
